G04 #@! TF.GenerationSoftware,KiCad,Pcbnew,5.0.2+dfsg1-1*
G04 #@! TF.CreationDate,2021-06-07T16:20:21-04:00*
G04 #@! TF.ProjectId,KyberBoard,4b796265-7242-46f6-9172-642e6b696361,rev?*
G04 #@! TF.SameCoordinates,Original*
G04 #@! TF.FileFunction,Paste,Top*
G04 #@! TF.FilePolarity,Positive*
%FSLAX46Y46*%
G04 Gerber Fmt 4.6, Leading zero omitted, Abs format (unit mm)*
G04 Created by KiCad (PCBNEW 5.0.2+dfsg1-1) date Mon 07 Jun 2021 04:20:21 PM EDT*
%MOMM*%
%LPD*%
G01*
G04 APERTURE LIST*
%ADD10C,1.000000*%
%ADD11C,0.150000*%
%ADD12R,0.650000X1.250000*%
%ADD13C,2.500000*%
%ADD14C,0.950000*%
%ADD15R,1.700000X0.350000*%
%ADD16R,5.200000X7.500000*%
%ADD17R,3.150000X1.000000*%
%ADD18R,1.000000X1.700000*%
G04 APERTURE END LIST*
D10*
G04 #@! TO.C,Q1*
X120523000Y-75044000D03*
D11*
G36*
X122823000Y-73994000D02*
X122823000Y-75644000D01*
X123223000Y-75644000D01*
X123223000Y-76444000D01*
X122823000Y-76444000D01*
X122823000Y-77504000D01*
X122098000Y-77504000D01*
X122098000Y-76904000D01*
X121448000Y-76904000D01*
X121448000Y-77504000D01*
X120723000Y-77504000D01*
X120723000Y-76904000D01*
X120323000Y-76904000D01*
X120323000Y-77504000D01*
X119598000Y-77504000D01*
X119598000Y-76904000D01*
X118948000Y-76904000D01*
X118948000Y-77504000D01*
X118223000Y-77504000D01*
X118223000Y-76444000D01*
X117823000Y-76444000D01*
X117823000Y-75644000D01*
X118223000Y-75644000D01*
X118223000Y-73994000D01*
X117823000Y-73994000D01*
X117823000Y-73194000D01*
X118223000Y-73194000D01*
X118223000Y-73004000D01*
X122823000Y-73004000D01*
X122823000Y-73194000D01*
X123223000Y-73194000D01*
X123223000Y-73994000D01*
X122823000Y-73994000D01*
X122823000Y-73994000D01*
G37*
D12*
X118618000Y-71479000D03*
X119888000Y-71479000D03*
X121158000Y-71479000D03*
X122428000Y-71479000D03*
G04 #@! TD*
D11*
G04 #@! TO.C,C6*
G36*
X122944504Y-85473604D02*
X122968773Y-85477204D01*
X122992571Y-85483165D01*
X123015671Y-85491430D01*
X123037849Y-85501920D01*
X123058893Y-85514533D01*
X123078598Y-85529147D01*
X123096777Y-85545623D01*
X123113253Y-85563802D01*
X123127867Y-85583507D01*
X123140480Y-85604551D01*
X123150970Y-85626729D01*
X123159235Y-85649829D01*
X123165196Y-85673627D01*
X123168796Y-85697896D01*
X123170000Y-85722400D01*
X123170000Y-89622400D01*
X123168796Y-89646904D01*
X123165196Y-89671173D01*
X123159235Y-89694971D01*
X123150970Y-89718071D01*
X123140480Y-89740249D01*
X123127867Y-89761293D01*
X123113253Y-89780998D01*
X123096777Y-89799177D01*
X123078598Y-89815653D01*
X123058893Y-89830267D01*
X123037849Y-89842880D01*
X123015671Y-89853370D01*
X122992571Y-89861635D01*
X122968773Y-89867596D01*
X122944504Y-89871196D01*
X122920000Y-89872400D01*
X120920000Y-89872400D01*
X120895496Y-89871196D01*
X120871227Y-89867596D01*
X120847429Y-89861635D01*
X120824329Y-89853370D01*
X120802151Y-89842880D01*
X120781107Y-89830267D01*
X120761402Y-89815653D01*
X120743223Y-89799177D01*
X120726747Y-89780998D01*
X120712133Y-89761293D01*
X120699520Y-89740249D01*
X120689030Y-89718071D01*
X120680765Y-89694971D01*
X120674804Y-89671173D01*
X120671204Y-89646904D01*
X120670000Y-89622400D01*
X120670000Y-85722400D01*
X120671204Y-85697896D01*
X120674804Y-85673627D01*
X120680765Y-85649829D01*
X120689030Y-85626729D01*
X120699520Y-85604551D01*
X120712133Y-85583507D01*
X120726747Y-85563802D01*
X120743223Y-85545623D01*
X120761402Y-85529147D01*
X120781107Y-85514533D01*
X120802151Y-85501920D01*
X120824329Y-85491430D01*
X120847429Y-85483165D01*
X120871227Y-85477204D01*
X120895496Y-85473604D01*
X120920000Y-85472400D01*
X122920000Y-85472400D01*
X122944504Y-85473604D01*
X122944504Y-85473604D01*
G37*
D13*
X121920000Y-87672400D03*
D11*
G36*
X122944504Y-78073604D02*
X122968773Y-78077204D01*
X122992571Y-78083165D01*
X123015671Y-78091430D01*
X123037849Y-78101920D01*
X123058893Y-78114533D01*
X123078598Y-78129147D01*
X123096777Y-78145623D01*
X123113253Y-78163802D01*
X123127867Y-78183507D01*
X123140480Y-78204551D01*
X123150970Y-78226729D01*
X123159235Y-78249829D01*
X123165196Y-78273627D01*
X123168796Y-78297896D01*
X123170000Y-78322400D01*
X123170000Y-82222400D01*
X123168796Y-82246904D01*
X123165196Y-82271173D01*
X123159235Y-82294971D01*
X123150970Y-82318071D01*
X123140480Y-82340249D01*
X123127867Y-82361293D01*
X123113253Y-82380998D01*
X123096777Y-82399177D01*
X123078598Y-82415653D01*
X123058893Y-82430267D01*
X123037849Y-82442880D01*
X123015671Y-82453370D01*
X122992571Y-82461635D01*
X122968773Y-82467596D01*
X122944504Y-82471196D01*
X122920000Y-82472400D01*
X120920000Y-82472400D01*
X120895496Y-82471196D01*
X120871227Y-82467596D01*
X120847429Y-82461635D01*
X120824329Y-82453370D01*
X120802151Y-82442880D01*
X120781107Y-82430267D01*
X120761402Y-82415653D01*
X120743223Y-82399177D01*
X120726747Y-82380998D01*
X120712133Y-82361293D01*
X120699520Y-82340249D01*
X120689030Y-82318071D01*
X120680765Y-82294971D01*
X120674804Y-82271173D01*
X120671204Y-82246904D01*
X120670000Y-82222400D01*
X120670000Y-78322400D01*
X120671204Y-78297896D01*
X120674804Y-78273627D01*
X120680765Y-78249829D01*
X120689030Y-78226729D01*
X120699520Y-78204551D01*
X120712133Y-78183507D01*
X120726747Y-78163802D01*
X120743223Y-78145623D01*
X120761402Y-78129147D01*
X120781107Y-78114533D01*
X120802151Y-78101920D01*
X120824329Y-78091430D01*
X120847429Y-78083165D01*
X120871227Y-78077204D01*
X120895496Y-78073604D01*
X120920000Y-78072400D01*
X122920000Y-78072400D01*
X122944504Y-78073604D01*
X122944504Y-78073604D01*
G37*
D13*
X121920000Y-80272400D03*
G04 #@! TD*
D11*
G04 #@! TO.C,C7*
G36*
X127042779Y-76996144D02*
X127065834Y-76999563D01*
X127088443Y-77005227D01*
X127110387Y-77013079D01*
X127131457Y-77023044D01*
X127151448Y-77035026D01*
X127170168Y-77048910D01*
X127187438Y-77064562D01*
X127203090Y-77081832D01*
X127216974Y-77100552D01*
X127228956Y-77120543D01*
X127238921Y-77141613D01*
X127246773Y-77163557D01*
X127252437Y-77186166D01*
X127255856Y-77209221D01*
X127257000Y-77232500D01*
X127257000Y-77707500D01*
X127255856Y-77730779D01*
X127252437Y-77753834D01*
X127246773Y-77776443D01*
X127238921Y-77798387D01*
X127228956Y-77819457D01*
X127216974Y-77839448D01*
X127203090Y-77858168D01*
X127187438Y-77875438D01*
X127170168Y-77891090D01*
X127151448Y-77904974D01*
X127131457Y-77916956D01*
X127110387Y-77926921D01*
X127088443Y-77934773D01*
X127065834Y-77940437D01*
X127042779Y-77943856D01*
X127019500Y-77945000D01*
X126444500Y-77945000D01*
X126421221Y-77943856D01*
X126398166Y-77940437D01*
X126375557Y-77934773D01*
X126353613Y-77926921D01*
X126332543Y-77916956D01*
X126312552Y-77904974D01*
X126293832Y-77891090D01*
X126276562Y-77875438D01*
X126260910Y-77858168D01*
X126247026Y-77839448D01*
X126235044Y-77819457D01*
X126225079Y-77798387D01*
X126217227Y-77776443D01*
X126211563Y-77753834D01*
X126208144Y-77730779D01*
X126207000Y-77707500D01*
X126207000Y-77232500D01*
X126208144Y-77209221D01*
X126211563Y-77186166D01*
X126217227Y-77163557D01*
X126225079Y-77141613D01*
X126235044Y-77120543D01*
X126247026Y-77100552D01*
X126260910Y-77081832D01*
X126276562Y-77064562D01*
X126293832Y-77048910D01*
X126312552Y-77035026D01*
X126332543Y-77023044D01*
X126353613Y-77013079D01*
X126375557Y-77005227D01*
X126398166Y-76999563D01*
X126421221Y-76996144D01*
X126444500Y-76995000D01*
X127019500Y-76995000D01*
X127042779Y-76996144D01*
X127042779Y-76996144D01*
G37*
D14*
X126732000Y-77470000D03*
D11*
G36*
X125292779Y-76996144D02*
X125315834Y-76999563D01*
X125338443Y-77005227D01*
X125360387Y-77013079D01*
X125381457Y-77023044D01*
X125401448Y-77035026D01*
X125420168Y-77048910D01*
X125437438Y-77064562D01*
X125453090Y-77081832D01*
X125466974Y-77100552D01*
X125478956Y-77120543D01*
X125488921Y-77141613D01*
X125496773Y-77163557D01*
X125502437Y-77186166D01*
X125505856Y-77209221D01*
X125507000Y-77232500D01*
X125507000Y-77707500D01*
X125505856Y-77730779D01*
X125502437Y-77753834D01*
X125496773Y-77776443D01*
X125488921Y-77798387D01*
X125478956Y-77819457D01*
X125466974Y-77839448D01*
X125453090Y-77858168D01*
X125437438Y-77875438D01*
X125420168Y-77891090D01*
X125401448Y-77904974D01*
X125381457Y-77916956D01*
X125360387Y-77926921D01*
X125338443Y-77934773D01*
X125315834Y-77940437D01*
X125292779Y-77943856D01*
X125269500Y-77945000D01*
X124694500Y-77945000D01*
X124671221Y-77943856D01*
X124648166Y-77940437D01*
X124625557Y-77934773D01*
X124603613Y-77926921D01*
X124582543Y-77916956D01*
X124562552Y-77904974D01*
X124543832Y-77891090D01*
X124526562Y-77875438D01*
X124510910Y-77858168D01*
X124497026Y-77839448D01*
X124485044Y-77819457D01*
X124475079Y-77798387D01*
X124467227Y-77776443D01*
X124461563Y-77753834D01*
X124458144Y-77730779D01*
X124457000Y-77707500D01*
X124457000Y-77232500D01*
X124458144Y-77209221D01*
X124461563Y-77186166D01*
X124467227Y-77163557D01*
X124475079Y-77141613D01*
X124485044Y-77120543D01*
X124497026Y-77100552D01*
X124510910Y-77081832D01*
X124526562Y-77064562D01*
X124543832Y-77048910D01*
X124562552Y-77035026D01*
X124582543Y-77023044D01*
X124603613Y-77013079D01*
X124625557Y-77005227D01*
X124648166Y-76999563D01*
X124671221Y-76996144D01*
X124694500Y-76995000D01*
X125269500Y-76995000D01*
X125292779Y-76996144D01*
X125292779Y-76996144D01*
G37*
D14*
X124982000Y-77470000D03*
G04 #@! TD*
D11*
G04 #@! TO.C,R11*
G36*
X145294779Y-82280144D02*
X145317834Y-82283563D01*
X145340443Y-82289227D01*
X145362387Y-82297079D01*
X145383457Y-82307044D01*
X145403448Y-82319026D01*
X145422168Y-82332910D01*
X145439438Y-82348562D01*
X145455090Y-82365832D01*
X145468974Y-82384552D01*
X145480956Y-82404543D01*
X145490921Y-82425613D01*
X145498773Y-82447557D01*
X145504437Y-82470166D01*
X145507856Y-82493221D01*
X145509000Y-82516500D01*
X145509000Y-83091500D01*
X145507856Y-83114779D01*
X145504437Y-83137834D01*
X145498773Y-83160443D01*
X145490921Y-83182387D01*
X145480956Y-83203457D01*
X145468974Y-83223448D01*
X145455090Y-83242168D01*
X145439438Y-83259438D01*
X145422168Y-83275090D01*
X145403448Y-83288974D01*
X145383457Y-83300956D01*
X145362387Y-83310921D01*
X145340443Y-83318773D01*
X145317834Y-83324437D01*
X145294779Y-83327856D01*
X145271500Y-83329000D01*
X144796500Y-83329000D01*
X144773221Y-83327856D01*
X144750166Y-83324437D01*
X144727557Y-83318773D01*
X144705613Y-83310921D01*
X144684543Y-83300956D01*
X144664552Y-83288974D01*
X144645832Y-83275090D01*
X144628562Y-83259438D01*
X144612910Y-83242168D01*
X144599026Y-83223448D01*
X144587044Y-83203457D01*
X144577079Y-83182387D01*
X144569227Y-83160443D01*
X144563563Y-83137834D01*
X144560144Y-83114779D01*
X144559000Y-83091500D01*
X144559000Y-82516500D01*
X144560144Y-82493221D01*
X144563563Y-82470166D01*
X144569227Y-82447557D01*
X144577079Y-82425613D01*
X144587044Y-82404543D01*
X144599026Y-82384552D01*
X144612910Y-82365832D01*
X144628562Y-82348562D01*
X144645832Y-82332910D01*
X144664552Y-82319026D01*
X144684543Y-82307044D01*
X144705613Y-82297079D01*
X144727557Y-82289227D01*
X144750166Y-82283563D01*
X144773221Y-82280144D01*
X144796500Y-82279000D01*
X145271500Y-82279000D01*
X145294779Y-82280144D01*
X145294779Y-82280144D01*
G37*
D14*
X145034000Y-82804000D03*
D11*
G36*
X145294779Y-80530144D02*
X145317834Y-80533563D01*
X145340443Y-80539227D01*
X145362387Y-80547079D01*
X145383457Y-80557044D01*
X145403448Y-80569026D01*
X145422168Y-80582910D01*
X145439438Y-80598562D01*
X145455090Y-80615832D01*
X145468974Y-80634552D01*
X145480956Y-80654543D01*
X145490921Y-80675613D01*
X145498773Y-80697557D01*
X145504437Y-80720166D01*
X145507856Y-80743221D01*
X145509000Y-80766500D01*
X145509000Y-81341500D01*
X145507856Y-81364779D01*
X145504437Y-81387834D01*
X145498773Y-81410443D01*
X145490921Y-81432387D01*
X145480956Y-81453457D01*
X145468974Y-81473448D01*
X145455090Y-81492168D01*
X145439438Y-81509438D01*
X145422168Y-81525090D01*
X145403448Y-81538974D01*
X145383457Y-81550956D01*
X145362387Y-81560921D01*
X145340443Y-81568773D01*
X145317834Y-81574437D01*
X145294779Y-81577856D01*
X145271500Y-81579000D01*
X144796500Y-81579000D01*
X144773221Y-81577856D01*
X144750166Y-81574437D01*
X144727557Y-81568773D01*
X144705613Y-81560921D01*
X144684543Y-81550956D01*
X144664552Y-81538974D01*
X144645832Y-81525090D01*
X144628562Y-81509438D01*
X144612910Y-81492168D01*
X144599026Y-81473448D01*
X144587044Y-81453457D01*
X144577079Y-81432387D01*
X144569227Y-81410443D01*
X144563563Y-81387834D01*
X144560144Y-81364779D01*
X144559000Y-81341500D01*
X144559000Y-80766500D01*
X144560144Y-80743221D01*
X144563563Y-80720166D01*
X144569227Y-80697557D01*
X144577079Y-80675613D01*
X144587044Y-80654543D01*
X144599026Y-80634552D01*
X144612910Y-80615832D01*
X144628562Y-80598562D01*
X144645832Y-80582910D01*
X144664552Y-80569026D01*
X144684543Y-80557044D01*
X144705613Y-80547079D01*
X144727557Y-80539227D01*
X144750166Y-80533563D01*
X144773221Y-80530144D01*
X144796500Y-80529000D01*
X145271500Y-80529000D01*
X145294779Y-80530144D01*
X145294779Y-80530144D01*
G37*
D14*
X145034000Y-81054000D03*
G04 #@! TD*
D15*
G04 #@! TO.C,U2*
X129433500Y-80586000D03*
X129433500Y-81086000D03*
X129433500Y-81586000D03*
X129433500Y-82086000D03*
X129433500Y-82586000D03*
X129433500Y-83086000D03*
X129433500Y-83586000D03*
X129433500Y-84086000D03*
X129433500Y-84586000D03*
X129433500Y-85086000D03*
X129433500Y-85586000D03*
X129433500Y-86086000D03*
X129433500Y-86586000D03*
X129433500Y-87086000D03*
X129433500Y-87586000D03*
X129433500Y-88086000D03*
X129433500Y-88586000D03*
X129433500Y-89086000D03*
X139298500Y-89086000D03*
X139298500Y-88586000D03*
X139298500Y-88086000D03*
X139298500Y-87586000D03*
X139298500Y-87086000D03*
X139298500Y-86586000D03*
X139298500Y-86086000D03*
X139298500Y-85586000D03*
X139298500Y-85086000D03*
X139298500Y-84586000D03*
X139298500Y-84086000D03*
X139298500Y-83586000D03*
X139298500Y-83086000D03*
X139298500Y-82586000D03*
X139298500Y-82086000D03*
X139298500Y-81586000D03*
X139298500Y-81086000D03*
X139298500Y-80586000D03*
D16*
X134366000Y-84836000D03*
G04 #@! TD*
D11*
G04 #@! TO.C,R6*
G36*
X150247779Y-80530144D02*
X150270834Y-80533563D01*
X150293443Y-80539227D01*
X150315387Y-80547079D01*
X150336457Y-80557044D01*
X150356448Y-80569026D01*
X150375168Y-80582910D01*
X150392438Y-80598562D01*
X150408090Y-80615832D01*
X150421974Y-80634552D01*
X150433956Y-80654543D01*
X150443921Y-80675613D01*
X150451773Y-80697557D01*
X150457437Y-80720166D01*
X150460856Y-80743221D01*
X150462000Y-80766500D01*
X150462000Y-81341500D01*
X150460856Y-81364779D01*
X150457437Y-81387834D01*
X150451773Y-81410443D01*
X150443921Y-81432387D01*
X150433956Y-81453457D01*
X150421974Y-81473448D01*
X150408090Y-81492168D01*
X150392438Y-81509438D01*
X150375168Y-81525090D01*
X150356448Y-81538974D01*
X150336457Y-81550956D01*
X150315387Y-81560921D01*
X150293443Y-81568773D01*
X150270834Y-81574437D01*
X150247779Y-81577856D01*
X150224500Y-81579000D01*
X149749500Y-81579000D01*
X149726221Y-81577856D01*
X149703166Y-81574437D01*
X149680557Y-81568773D01*
X149658613Y-81560921D01*
X149637543Y-81550956D01*
X149617552Y-81538974D01*
X149598832Y-81525090D01*
X149581562Y-81509438D01*
X149565910Y-81492168D01*
X149552026Y-81473448D01*
X149540044Y-81453457D01*
X149530079Y-81432387D01*
X149522227Y-81410443D01*
X149516563Y-81387834D01*
X149513144Y-81364779D01*
X149512000Y-81341500D01*
X149512000Y-80766500D01*
X149513144Y-80743221D01*
X149516563Y-80720166D01*
X149522227Y-80697557D01*
X149530079Y-80675613D01*
X149540044Y-80654543D01*
X149552026Y-80634552D01*
X149565910Y-80615832D01*
X149581562Y-80598562D01*
X149598832Y-80582910D01*
X149617552Y-80569026D01*
X149637543Y-80557044D01*
X149658613Y-80547079D01*
X149680557Y-80539227D01*
X149703166Y-80533563D01*
X149726221Y-80530144D01*
X149749500Y-80529000D01*
X150224500Y-80529000D01*
X150247779Y-80530144D01*
X150247779Y-80530144D01*
G37*
D14*
X149987000Y-81054000D03*
D11*
G36*
X150247779Y-82280144D02*
X150270834Y-82283563D01*
X150293443Y-82289227D01*
X150315387Y-82297079D01*
X150336457Y-82307044D01*
X150356448Y-82319026D01*
X150375168Y-82332910D01*
X150392438Y-82348562D01*
X150408090Y-82365832D01*
X150421974Y-82384552D01*
X150433956Y-82404543D01*
X150443921Y-82425613D01*
X150451773Y-82447557D01*
X150457437Y-82470166D01*
X150460856Y-82493221D01*
X150462000Y-82516500D01*
X150462000Y-83091500D01*
X150460856Y-83114779D01*
X150457437Y-83137834D01*
X150451773Y-83160443D01*
X150443921Y-83182387D01*
X150433956Y-83203457D01*
X150421974Y-83223448D01*
X150408090Y-83242168D01*
X150392438Y-83259438D01*
X150375168Y-83275090D01*
X150356448Y-83288974D01*
X150336457Y-83300956D01*
X150315387Y-83310921D01*
X150293443Y-83318773D01*
X150270834Y-83324437D01*
X150247779Y-83327856D01*
X150224500Y-83329000D01*
X149749500Y-83329000D01*
X149726221Y-83327856D01*
X149703166Y-83324437D01*
X149680557Y-83318773D01*
X149658613Y-83310921D01*
X149637543Y-83300956D01*
X149617552Y-83288974D01*
X149598832Y-83275090D01*
X149581562Y-83259438D01*
X149565910Y-83242168D01*
X149552026Y-83223448D01*
X149540044Y-83203457D01*
X149530079Y-83182387D01*
X149522227Y-83160443D01*
X149516563Y-83137834D01*
X149513144Y-83114779D01*
X149512000Y-83091500D01*
X149512000Y-82516500D01*
X149513144Y-82493221D01*
X149516563Y-82470166D01*
X149522227Y-82447557D01*
X149530079Y-82425613D01*
X149540044Y-82404543D01*
X149552026Y-82384552D01*
X149565910Y-82365832D01*
X149581562Y-82348562D01*
X149598832Y-82332910D01*
X149617552Y-82319026D01*
X149637543Y-82307044D01*
X149658613Y-82297079D01*
X149680557Y-82289227D01*
X149703166Y-82283563D01*
X149726221Y-82280144D01*
X149749500Y-82279000D01*
X150224500Y-82279000D01*
X150247779Y-82280144D01*
X150247779Y-82280144D01*
G37*
D14*
X149987000Y-82804000D03*
G04 #@! TD*
D11*
G04 #@! TO.C,R18*
G36*
X146945779Y-82266144D02*
X146968834Y-82269563D01*
X146991443Y-82275227D01*
X147013387Y-82283079D01*
X147034457Y-82293044D01*
X147054448Y-82305026D01*
X147073168Y-82318910D01*
X147090438Y-82334562D01*
X147106090Y-82351832D01*
X147119974Y-82370552D01*
X147131956Y-82390543D01*
X147141921Y-82411613D01*
X147149773Y-82433557D01*
X147155437Y-82456166D01*
X147158856Y-82479221D01*
X147160000Y-82502500D01*
X147160000Y-83077500D01*
X147158856Y-83100779D01*
X147155437Y-83123834D01*
X147149773Y-83146443D01*
X147141921Y-83168387D01*
X147131956Y-83189457D01*
X147119974Y-83209448D01*
X147106090Y-83228168D01*
X147090438Y-83245438D01*
X147073168Y-83261090D01*
X147054448Y-83274974D01*
X147034457Y-83286956D01*
X147013387Y-83296921D01*
X146991443Y-83304773D01*
X146968834Y-83310437D01*
X146945779Y-83313856D01*
X146922500Y-83315000D01*
X146447500Y-83315000D01*
X146424221Y-83313856D01*
X146401166Y-83310437D01*
X146378557Y-83304773D01*
X146356613Y-83296921D01*
X146335543Y-83286956D01*
X146315552Y-83274974D01*
X146296832Y-83261090D01*
X146279562Y-83245438D01*
X146263910Y-83228168D01*
X146250026Y-83209448D01*
X146238044Y-83189457D01*
X146228079Y-83168387D01*
X146220227Y-83146443D01*
X146214563Y-83123834D01*
X146211144Y-83100779D01*
X146210000Y-83077500D01*
X146210000Y-82502500D01*
X146211144Y-82479221D01*
X146214563Y-82456166D01*
X146220227Y-82433557D01*
X146228079Y-82411613D01*
X146238044Y-82390543D01*
X146250026Y-82370552D01*
X146263910Y-82351832D01*
X146279562Y-82334562D01*
X146296832Y-82318910D01*
X146315552Y-82305026D01*
X146335543Y-82293044D01*
X146356613Y-82283079D01*
X146378557Y-82275227D01*
X146401166Y-82269563D01*
X146424221Y-82266144D01*
X146447500Y-82265000D01*
X146922500Y-82265000D01*
X146945779Y-82266144D01*
X146945779Y-82266144D01*
G37*
D14*
X146685000Y-82790000D03*
D11*
G36*
X146945779Y-80516144D02*
X146968834Y-80519563D01*
X146991443Y-80525227D01*
X147013387Y-80533079D01*
X147034457Y-80543044D01*
X147054448Y-80555026D01*
X147073168Y-80568910D01*
X147090438Y-80584562D01*
X147106090Y-80601832D01*
X147119974Y-80620552D01*
X147131956Y-80640543D01*
X147141921Y-80661613D01*
X147149773Y-80683557D01*
X147155437Y-80706166D01*
X147158856Y-80729221D01*
X147160000Y-80752500D01*
X147160000Y-81327500D01*
X147158856Y-81350779D01*
X147155437Y-81373834D01*
X147149773Y-81396443D01*
X147141921Y-81418387D01*
X147131956Y-81439457D01*
X147119974Y-81459448D01*
X147106090Y-81478168D01*
X147090438Y-81495438D01*
X147073168Y-81511090D01*
X147054448Y-81524974D01*
X147034457Y-81536956D01*
X147013387Y-81546921D01*
X146991443Y-81554773D01*
X146968834Y-81560437D01*
X146945779Y-81563856D01*
X146922500Y-81565000D01*
X146447500Y-81565000D01*
X146424221Y-81563856D01*
X146401166Y-81560437D01*
X146378557Y-81554773D01*
X146356613Y-81546921D01*
X146335543Y-81536956D01*
X146315552Y-81524974D01*
X146296832Y-81511090D01*
X146279562Y-81495438D01*
X146263910Y-81478168D01*
X146250026Y-81459448D01*
X146238044Y-81439457D01*
X146228079Y-81418387D01*
X146220227Y-81396443D01*
X146214563Y-81373834D01*
X146211144Y-81350779D01*
X146210000Y-81327500D01*
X146210000Y-80752500D01*
X146211144Y-80729221D01*
X146214563Y-80706166D01*
X146220227Y-80683557D01*
X146228079Y-80661613D01*
X146238044Y-80640543D01*
X146250026Y-80620552D01*
X146263910Y-80601832D01*
X146279562Y-80584562D01*
X146296832Y-80568910D01*
X146315552Y-80555026D01*
X146335543Y-80543044D01*
X146356613Y-80533079D01*
X146378557Y-80525227D01*
X146401166Y-80519563D01*
X146424221Y-80516144D01*
X146447500Y-80515000D01*
X146922500Y-80515000D01*
X146945779Y-80516144D01*
X146945779Y-80516144D01*
G37*
D14*
X146685000Y-81040000D03*
G04 #@! TD*
D11*
G04 #@! TO.C,R19*
G36*
X148596779Y-80530144D02*
X148619834Y-80533563D01*
X148642443Y-80539227D01*
X148664387Y-80547079D01*
X148685457Y-80557044D01*
X148705448Y-80569026D01*
X148724168Y-80582910D01*
X148741438Y-80598562D01*
X148757090Y-80615832D01*
X148770974Y-80634552D01*
X148782956Y-80654543D01*
X148792921Y-80675613D01*
X148800773Y-80697557D01*
X148806437Y-80720166D01*
X148809856Y-80743221D01*
X148811000Y-80766500D01*
X148811000Y-81341500D01*
X148809856Y-81364779D01*
X148806437Y-81387834D01*
X148800773Y-81410443D01*
X148792921Y-81432387D01*
X148782956Y-81453457D01*
X148770974Y-81473448D01*
X148757090Y-81492168D01*
X148741438Y-81509438D01*
X148724168Y-81525090D01*
X148705448Y-81538974D01*
X148685457Y-81550956D01*
X148664387Y-81560921D01*
X148642443Y-81568773D01*
X148619834Y-81574437D01*
X148596779Y-81577856D01*
X148573500Y-81579000D01*
X148098500Y-81579000D01*
X148075221Y-81577856D01*
X148052166Y-81574437D01*
X148029557Y-81568773D01*
X148007613Y-81560921D01*
X147986543Y-81550956D01*
X147966552Y-81538974D01*
X147947832Y-81525090D01*
X147930562Y-81509438D01*
X147914910Y-81492168D01*
X147901026Y-81473448D01*
X147889044Y-81453457D01*
X147879079Y-81432387D01*
X147871227Y-81410443D01*
X147865563Y-81387834D01*
X147862144Y-81364779D01*
X147861000Y-81341500D01*
X147861000Y-80766500D01*
X147862144Y-80743221D01*
X147865563Y-80720166D01*
X147871227Y-80697557D01*
X147879079Y-80675613D01*
X147889044Y-80654543D01*
X147901026Y-80634552D01*
X147914910Y-80615832D01*
X147930562Y-80598562D01*
X147947832Y-80582910D01*
X147966552Y-80569026D01*
X147986543Y-80557044D01*
X148007613Y-80547079D01*
X148029557Y-80539227D01*
X148052166Y-80533563D01*
X148075221Y-80530144D01*
X148098500Y-80529000D01*
X148573500Y-80529000D01*
X148596779Y-80530144D01*
X148596779Y-80530144D01*
G37*
D14*
X148336000Y-81054000D03*
D11*
G36*
X148596779Y-82280144D02*
X148619834Y-82283563D01*
X148642443Y-82289227D01*
X148664387Y-82297079D01*
X148685457Y-82307044D01*
X148705448Y-82319026D01*
X148724168Y-82332910D01*
X148741438Y-82348562D01*
X148757090Y-82365832D01*
X148770974Y-82384552D01*
X148782956Y-82404543D01*
X148792921Y-82425613D01*
X148800773Y-82447557D01*
X148806437Y-82470166D01*
X148809856Y-82493221D01*
X148811000Y-82516500D01*
X148811000Y-83091500D01*
X148809856Y-83114779D01*
X148806437Y-83137834D01*
X148800773Y-83160443D01*
X148792921Y-83182387D01*
X148782956Y-83203457D01*
X148770974Y-83223448D01*
X148757090Y-83242168D01*
X148741438Y-83259438D01*
X148724168Y-83275090D01*
X148705448Y-83288974D01*
X148685457Y-83300956D01*
X148664387Y-83310921D01*
X148642443Y-83318773D01*
X148619834Y-83324437D01*
X148596779Y-83327856D01*
X148573500Y-83329000D01*
X148098500Y-83329000D01*
X148075221Y-83327856D01*
X148052166Y-83324437D01*
X148029557Y-83318773D01*
X148007613Y-83310921D01*
X147986543Y-83300956D01*
X147966552Y-83288974D01*
X147947832Y-83275090D01*
X147930562Y-83259438D01*
X147914910Y-83242168D01*
X147901026Y-83223448D01*
X147889044Y-83203457D01*
X147879079Y-83182387D01*
X147871227Y-83160443D01*
X147865563Y-83137834D01*
X147862144Y-83114779D01*
X147861000Y-83091500D01*
X147861000Y-82516500D01*
X147862144Y-82493221D01*
X147865563Y-82470166D01*
X147871227Y-82447557D01*
X147879079Y-82425613D01*
X147889044Y-82404543D01*
X147901026Y-82384552D01*
X147914910Y-82365832D01*
X147930562Y-82348562D01*
X147947832Y-82332910D01*
X147966552Y-82319026D01*
X147986543Y-82307044D01*
X148007613Y-82297079D01*
X148029557Y-82289227D01*
X148052166Y-82283563D01*
X148075221Y-82280144D01*
X148098500Y-82279000D01*
X148573500Y-82279000D01*
X148596779Y-82280144D01*
X148596779Y-82280144D01*
G37*
D14*
X148336000Y-82804000D03*
G04 #@! TD*
D11*
G04 #@! TO.C,HBT*
G36*
X150247779Y-83931144D02*
X150270834Y-83934563D01*
X150293443Y-83940227D01*
X150315387Y-83948079D01*
X150336457Y-83958044D01*
X150356448Y-83970026D01*
X150375168Y-83983910D01*
X150392438Y-83999562D01*
X150408090Y-84016832D01*
X150421974Y-84035552D01*
X150433956Y-84055543D01*
X150443921Y-84076613D01*
X150451773Y-84098557D01*
X150457437Y-84121166D01*
X150460856Y-84144221D01*
X150462000Y-84167500D01*
X150462000Y-84742500D01*
X150460856Y-84765779D01*
X150457437Y-84788834D01*
X150451773Y-84811443D01*
X150443921Y-84833387D01*
X150433956Y-84854457D01*
X150421974Y-84874448D01*
X150408090Y-84893168D01*
X150392438Y-84910438D01*
X150375168Y-84926090D01*
X150356448Y-84939974D01*
X150336457Y-84951956D01*
X150315387Y-84961921D01*
X150293443Y-84969773D01*
X150270834Y-84975437D01*
X150247779Y-84978856D01*
X150224500Y-84980000D01*
X149749500Y-84980000D01*
X149726221Y-84978856D01*
X149703166Y-84975437D01*
X149680557Y-84969773D01*
X149658613Y-84961921D01*
X149637543Y-84951956D01*
X149617552Y-84939974D01*
X149598832Y-84926090D01*
X149581562Y-84910438D01*
X149565910Y-84893168D01*
X149552026Y-84874448D01*
X149540044Y-84854457D01*
X149530079Y-84833387D01*
X149522227Y-84811443D01*
X149516563Y-84788834D01*
X149513144Y-84765779D01*
X149512000Y-84742500D01*
X149512000Y-84167500D01*
X149513144Y-84144221D01*
X149516563Y-84121166D01*
X149522227Y-84098557D01*
X149530079Y-84076613D01*
X149540044Y-84055543D01*
X149552026Y-84035552D01*
X149565910Y-84016832D01*
X149581562Y-83999562D01*
X149598832Y-83983910D01*
X149617552Y-83970026D01*
X149637543Y-83958044D01*
X149658613Y-83948079D01*
X149680557Y-83940227D01*
X149703166Y-83934563D01*
X149726221Y-83931144D01*
X149749500Y-83930000D01*
X150224500Y-83930000D01*
X150247779Y-83931144D01*
X150247779Y-83931144D01*
G37*
D14*
X149987000Y-84455000D03*
D11*
G36*
X150247779Y-85681144D02*
X150270834Y-85684563D01*
X150293443Y-85690227D01*
X150315387Y-85698079D01*
X150336457Y-85708044D01*
X150356448Y-85720026D01*
X150375168Y-85733910D01*
X150392438Y-85749562D01*
X150408090Y-85766832D01*
X150421974Y-85785552D01*
X150433956Y-85805543D01*
X150443921Y-85826613D01*
X150451773Y-85848557D01*
X150457437Y-85871166D01*
X150460856Y-85894221D01*
X150462000Y-85917500D01*
X150462000Y-86492500D01*
X150460856Y-86515779D01*
X150457437Y-86538834D01*
X150451773Y-86561443D01*
X150443921Y-86583387D01*
X150433956Y-86604457D01*
X150421974Y-86624448D01*
X150408090Y-86643168D01*
X150392438Y-86660438D01*
X150375168Y-86676090D01*
X150356448Y-86689974D01*
X150336457Y-86701956D01*
X150315387Y-86711921D01*
X150293443Y-86719773D01*
X150270834Y-86725437D01*
X150247779Y-86728856D01*
X150224500Y-86730000D01*
X149749500Y-86730000D01*
X149726221Y-86728856D01*
X149703166Y-86725437D01*
X149680557Y-86719773D01*
X149658613Y-86711921D01*
X149637543Y-86701956D01*
X149617552Y-86689974D01*
X149598832Y-86676090D01*
X149581562Y-86660438D01*
X149565910Y-86643168D01*
X149552026Y-86624448D01*
X149540044Y-86604457D01*
X149530079Y-86583387D01*
X149522227Y-86561443D01*
X149516563Y-86538834D01*
X149513144Y-86515779D01*
X149512000Y-86492500D01*
X149512000Y-85917500D01*
X149513144Y-85894221D01*
X149516563Y-85871166D01*
X149522227Y-85848557D01*
X149530079Y-85826613D01*
X149540044Y-85805543D01*
X149552026Y-85785552D01*
X149565910Y-85766832D01*
X149581562Y-85749562D01*
X149598832Y-85733910D01*
X149617552Y-85720026D01*
X149637543Y-85708044D01*
X149658613Y-85698079D01*
X149680557Y-85690227D01*
X149703166Y-85684563D01*
X149726221Y-85681144D01*
X149749500Y-85680000D01*
X150224500Y-85680000D01*
X150247779Y-85681144D01*
X150247779Y-85681144D01*
G37*
D14*
X149987000Y-86205000D03*
G04 #@! TD*
D11*
G04 #@! TO.C,UVL*
G36*
X145294779Y-85681144D02*
X145317834Y-85684563D01*
X145340443Y-85690227D01*
X145362387Y-85698079D01*
X145383457Y-85708044D01*
X145403448Y-85720026D01*
X145422168Y-85733910D01*
X145439438Y-85749562D01*
X145455090Y-85766832D01*
X145468974Y-85785552D01*
X145480956Y-85805543D01*
X145490921Y-85826613D01*
X145498773Y-85848557D01*
X145504437Y-85871166D01*
X145507856Y-85894221D01*
X145509000Y-85917500D01*
X145509000Y-86492500D01*
X145507856Y-86515779D01*
X145504437Y-86538834D01*
X145498773Y-86561443D01*
X145490921Y-86583387D01*
X145480956Y-86604457D01*
X145468974Y-86624448D01*
X145455090Y-86643168D01*
X145439438Y-86660438D01*
X145422168Y-86676090D01*
X145403448Y-86689974D01*
X145383457Y-86701956D01*
X145362387Y-86711921D01*
X145340443Y-86719773D01*
X145317834Y-86725437D01*
X145294779Y-86728856D01*
X145271500Y-86730000D01*
X144796500Y-86730000D01*
X144773221Y-86728856D01*
X144750166Y-86725437D01*
X144727557Y-86719773D01*
X144705613Y-86711921D01*
X144684543Y-86701956D01*
X144664552Y-86689974D01*
X144645832Y-86676090D01*
X144628562Y-86660438D01*
X144612910Y-86643168D01*
X144599026Y-86624448D01*
X144587044Y-86604457D01*
X144577079Y-86583387D01*
X144569227Y-86561443D01*
X144563563Y-86538834D01*
X144560144Y-86515779D01*
X144559000Y-86492500D01*
X144559000Y-85917500D01*
X144560144Y-85894221D01*
X144563563Y-85871166D01*
X144569227Y-85848557D01*
X144577079Y-85826613D01*
X144587044Y-85805543D01*
X144599026Y-85785552D01*
X144612910Y-85766832D01*
X144628562Y-85749562D01*
X144645832Y-85733910D01*
X144664552Y-85720026D01*
X144684543Y-85708044D01*
X144705613Y-85698079D01*
X144727557Y-85690227D01*
X144750166Y-85684563D01*
X144773221Y-85681144D01*
X144796500Y-85680000D01*
X145271500Y-85680000D01*
X145294779Y-85681144D01*
X145294779Y-85681144D01*
G37*
D14*
X145034000Y-86205000D03*
D11*
G36*
X145294779Y-83931144D02*
X145317834Y-83934563D01*
X145340443Y-83940227D01*
X145362387Y-83948079D01*
X145383457Y-83958044D01*
X145403448Y-83970026D01*
X145422168Y-83983910D01*
X145439438Y-83999562D01*
X145455090Y-84016832D01*
X145468974Y-84035552D01*
X145480956Y-84055543D01*
X145490921Y-84076613D01*
X145498773Y-84098557D01*
X145504437Y-84121166D01*
X145507856Y-84144221D01*
X145509000Y-84167500D01*
X145509000Y-84742500D01*
X145507856Y-84765779D01*
X145504437Y-84788834D01*
X145498773Y-84811443D01*
X145490921Y-84833387D01*
X145480956Y-84854457D01*
X145468974Y-84874448D01*
X145455090Y-84893168D01*
X145439438Y-84910438D01*
X145422168Y-84926090D01*
X145403448Y-84939974D01*
X145383457Y-84951956D01*
X145362387Y-84961921D01*
X145340443Y-84969773D01*
X145317834Y-84975437D01*
X145294779Y-84978856D01*
X145271500Y-84980000D01*
X144796500Y-84980000D01*
X144773221Y-84978856D01*
X144750166Y-84975437D01*
X144727557Y-84969773D01*
X144705613Y-84961921D01*
X144684543Y-84951956D01*
X144664552Y-84939974D01*
X144645832Y-84926090D01*
X144628562Y-84910438D01*
X144612910Y-84893168D01*
X144599026Y-84874448D01*
X144587044Y-84854457D01*
X144577079Y-84833387D01*
X144569227Y-84811443D01*
X144563563Y-84788834D01*
X144560144Y-84765779D01*
X144559000Y-84742500D01*
X144559000Y-84167500D01*
X144560144Y-84144221D01*
X144563563Y-84121166D01*
X144569227Y-84098557D01*
X144577079Y-84076613D01*
X144587044Y-84055543D01*
X144599026Y-84035552D01*
X144612910Y-84016832D01*
X144628562Y-83999562D01*
X144645832Y-83983910D01*
X144664552Y-83970026D01*
X144684543Y-83958044D01*
X144705613Y-83948079D01*
X144727557Y-83940227D01*
X144750166Y-83934563D01*
X144773221Y-83931144D01*
X144796500Y-83930000D01*
X145271500Y-83930000D01*
X145294779Y-83931144D01*
X145294779Y-83931144D01*
G37*
D14*
X145034000Y-84455000D03*
G04 #@! TD*
D11*
G04 #@! TO.C,12C*
G36*
X146945779Y-85681144D02*
X146968834Y-85684563D01*
X146991443Y-85690227D01*
X147013387Y-85698079D01*
X147034457Y-85708044D01*
X147054448Y-85720026D01*
X147073168Y-85733910D01*
X147090438Y-85749562D01*
X147106090Y-85766832D01*
X147119974Y-85785552D01*
X147131956Y-85805543D01*
X147141921Y-85826613D01*
X147149773Y-85848557D01*
X147155437Y-85871166D01*
X147158856Y-85894221D01*
X147160000Y-85917500D01*
X147160000Y-86492500D01*
X147158856Y-86515779D01*
X147155437Y-86538834D01*
X147149773Y-86561443D01*
X147141921Y-86583387D01*
X147131956Y-86604457D01*
X147119974Y-86624448D01*
X147106090Y-86643168D01*
X147090438Y-86660438D01*
X147073168Y-86676090D01*
X147054448Y-86689974D01*
X147034457Y-86701956D01*
X147013387Y-86711921D01*
X146991443Y-86719773D01*
X146968834Y-86725437D01*
X146945779Y-86728856D01*
X146922500Y-86730000D01*
X146447500Y-86730000D01*
X146424221Y-86728856D01*
X146401166Y-86725437D01*
X146378557Y-86719773D01*
X146356613Y-86711921D01*
X146335543Y-86701956D01*
X146315552Y-86689974D01*
X146296832Y-86676090D01*
X146279562Y-86660438D01*
X146263910Y-86643168D01*
X146250026Y-86624448D01*
X146238044Y-86604457D01*
X146228079Y-86583387D01*
X146220227Y-86561443D01*
X146214563Y-86538834D01*
X146211144Y-86515779D01*
X146210000Y-86492500D01*
X146210000Y-85917500D01*
X146211144Y-85894221D01*
X146214563Y-85871166D01*
X146220227Y-85848557D01*
X146228079Y-85826613D01*
X146238044Y-85805543D01*
X146250026Y-85785552D01*
X146263910Y-85766832D01*
X146279562Y-85749562D01*
X146296832Y-85733910D01*
X146315552Y-85720026D01*
X146335543Y-85708044D01*
X146356613Y-85698079D01*
X146378557Y-85690227D01*
X146401166Y-85684563D01*
X146424221Y-85681144D01*
X146447500Y-85680000D01*
X146922500Y-85680000D01*
X146945779Y-85681144D01*
X146945779Y-85681144D01*
G37*
D14*
X146685000Y-86205000D03*
D11*
G36*
X146945779Y-83931144D02*
X146968834Y-83934563D01*
X146991443Y-83940227D01*
X147013387Y-83948079D01*
X147034457Y-83958044D01*
X147054448Y-83970026D01*
X147073168Y-83983910D01*
X147090438Y-83999562D01*
X147106090Y-84016832D01*
X147119974Y-84035552D01*
X147131956Y-84055543D01*
X147141921Y-84076613D01*
X147149773Y-84098557D01*
X147155437Y-84121166D01*
X147158856Y-84144221D01*
X147160000Y-84167500D01*
X147160000Y-84742500D01*
X147158856Y-84765779D01*
X147155437Y-84788834D01*
X147149773Y-84811443D01*
X147141921Y-84833387D01*
X147131956Y-84854457D01*
X147119974Y-84874448D01*
X147106090Y-84893168D01*
X147090438Y-84910438D01*
X147073168Y-84926090D01*
X147054448Y-84939974D01*
X147034457Y-84951956D01*
X147013387Y-84961921D01*
X146991443Y-84969773D01*
X146968834Y-84975437D01*
X146945779Y-84978856D01*
X146922500Y-84980000D01*
X146447500Y-84980000D01*
X146424221Y-84978856D01*
X146401166Y-84975437D01*
X146378557Y-84969773D01*
X146356613Y-84961921D01*
X146335543Y-84951956D01*
X146315552Y-84939974D01*
X146296832Y-84926090D01*
X146279562Y-84910438D01*
X146263910Y-84893168D01*
X146250026Y-84874448D01*
X146238044Y-84854457D01*
X146228079Y-84833387D01*
X146220227Y-84811443D01*
X146214563Y-84788834D01*
X146211144Y-84765779D01*
X146210000Y-84742500D01*
X146210000Y-84167500D01*
X146211144Y-84144221D01*
X146214563Y-84121166D01*
X146220227Y-84098557D01*
X146228079Y-84076613D01*
X146238044Y-84055543D01*
X146250026Y-84035552D01*
X146263910Y-84016832D01*
X146279562Y-83999562D01*
X146296832Y-83983910D01*
X146315552Y-83970026D01*
X146335543Y-83958044D01*
X146356613Y-83948079D01*
X146378557Y-83940227D01*
X146401166Y-83934563D01*
X146424221Y-83931144D01*
X146447500Y-83930000D01*
X146922500Y-83930000D01*
X146945779Y-83931144D01*
X146945779Y-83931144D01*
G37*
D14*
X146685000Y-84455000D03*
G04 #@! TD*
D11*
G04 #@! TO.C,3V3*
G36*
X148596779Y-83931144D02*
X148619834Y-83934563D01*
X148642443Y-83940227D01*
X148664387Y-83948079D01*
X148685457Y-83958044D01*
X148705448Y-83970026D01*
X148724168Y-83983910D01*
X148741438Y-83999562D01*
X148757090Y-84016832D01*
X148770974Y-84035552D01*
X148782956Y-84055543D01*
X148792921Y-84076613D01*
X148800773Y-84098557D01*
X148806437Y-84121166D01*
X148809856Y-84144221D01*
X148811000Y-84167500D01*
X148811000Y-84742500D01*
X148809856Y-84765779D01*
X148806437Y-84788834D01*
X148800773Y-84811443D01*
X148792921Y-84833387D01*
X148782956Y-84854457D01*
X148770974Y-84874448D01*
X148757090Y-84893168D01*
X148741438Y-84910438D01*
X148724168Y-84926090D01*
X148705448Y-84939974D01*
X148685457Y-84951956D01*
X148664387Y-84961921D01*
X148642443Y-84969773D01*
X148619834Y-84975437D01*
X148596779Y-84978856D01*
X148573500Y-84980000D01*
X148098500Y-84980000D01*
X148075221Y-84978856D01*
X148052166Y-84975437D01*
X148029557Y-84969773D01*
X148007613Y-84961921D01*
X147986543Y-84951956D01*
X147966552Y-84939974D01*
X147947832Y-84926090D01*
X147930562Y-84910438D01*
X147914910Y-84893168D01*
X147901026Y-84874448D01*
X147889044Y-84854457D01*
X147879079Y-84833387D01*
X147871227Y-84811443D01*
X147865563Y-84788834D01*
X147862144Y-84765779D01*
X147861000Y-84742500D01*
X147861000Y-84167500D01*
X147862144Y-84144221D01*
X147865563Y-84121166D01*
X147871227Y-84098557D01*
X147879079Y-84076613D01*
X147889044Y-84055543D01*
X147901026Y-84035552D01*
X147914910Y-84016832D01*
X147930562Y-83999562D01*
X147947832Y-83983910D01*
X147966552Y-83970026D01*
X147986543Y-83958044D01*
X148007613Y-83948079D01*
X148029557Y-83940227D01*
X148052166Y-83934563D01*
X148075221Y-83931144D01*
X148098500Y-83930000D01*
X148573500Y-83930000D01*
X148596779Y-83931144D01*
X148596779Y-83931144D01*
G37*
D14*
X148336000Y-84455000D03*
D11*
G36*
X148596779Y-85681144D02*
X148619834Y-85684563D01*
X148642443Y-85690227D01*
X148664387Y-85698079D01*
X148685457Y-85708044D01*
X148705448Y-85720026D01*
X148724168Y-85733910D01*
X148741438Y-85749562D01*
X148757090Y-85766832D01*
X148770974Y-85785552D01*
X148782956Y-85805543D01*
X148792921Y-85826613D01*
X148800773Y-85848557D01*
X148806437Y-85871166D01*
X148809856Y-85894221D01*
X148811000Y-85917500D01*
X148811000Y-86492500D01*
X148809856Y-86515779D01*
X148806437Y-86538834D01*
X148800773Y-86561443D01*
X148792921Y-86583387D01*
X148782956Y-86604457D01*
X148770974Y-86624448D01*
X148757090Y-86643168D01*
X148741438Y-86660438D01*
X148724168Y-86676090D01*
X148705448Y-86689974D01*
X148685457Y-86701956D01*
X148664387Y-86711921D01*
X148642443Y-86719773D01*
X148619834Y-86725437D01*
X148596779Y-86728856D01*
X148573500Y-86730000D01*
X148098500Y-86730000D01*
X148075221Y-86728856D01*
X148052166Y-86725437D01*
X148029557Y-86719773D01*
X148007613Y-86711921D01*
X147986543Y-86701956D01*
X147966552Y-86689974D01*
X147947832Y-86676090D01*
X147930562Y-86660438D01*
X147914910Y-86643168D01*
X147901026Y-86624448D01*
X147889044Y-86604457D01*
X147879079Y-86583387D01*
X147871227Y-86561443D01*
X147865563Y-86538834D01*
X147862144Y-86515779D01*
X147861000Y-86492500D01*
X147861000Y-85917500D01*
X147862144Y-85894221D01*
X147865563Y-85871166D01*
X147871227Y-85848557D01*
X147879079Y-85826613D01*
X147889044Y-85805543D01*
X147901026Y-85785552D01*
X147914910Y-85766832D01*
X147930562Y-85749562D01*
X147947832Y-85733910D01*
X147966552Y-85720026D01*
X147986543Y-85708044D01*
X148007613Y-85698079D01*
X148029557Y-85690227D01*
X148052166Y-85684563D01*
X148075221Y-85681144D01*
X148098500Y-85680000D01*
X148573500Y-85680000D01*
X148596779Y-85681144D01*
X148596779Y-85681144D01*
G37*
D14*
X148336000Y-86205000D03*
G04 #@! TD*
D17*
G04 #@! TO.C,*
X159908000Y-77472114D03*
X164958000Y-77472114D03*
X159908000Y-80012114D03*
X164958000Y-80012114D03*
X159908000Y-82552114D03*
X164958000Y-82552114D03*
G04 #@! TD*
D18*
G04 #@! TO.C,*
X171455000Y-80246200D03*
X171455000Y-73946200D03*
X175255000Y-80246200D03*
X175255000Y-73946200D03*
G04 #@! TD*
M02*
