G04 #@! TF.GenerationSoftware,KiCad,Pcbnew,5.0.2+dfsg1-1*
G04 #@! TF.CreationDate,2021-06-07T16:20:21-04:00*
G04 #@! TF.ProjectId,KyberBoard,4b796265-7242-46f6-9172-642e6b696361,rev?*
G04 #@! TF.SameCoordinates,Original*
G04 #@! TF.FileFunction,Legend,Top*
G04 #@! TF.FilePolarity,Positive*
%FSLAX46Y46*%
G04 Gerber Fmt 4.6, Leading zero omitted, Abs format (unit mm)*
G04 Created by KiCad (PCBNEW 5.0.2+dfsg1-1) date Mon 07 Jun 2021 04:20:21 PM EDT*
%MOMM*%
%LPD*%
G01*
G04 APERTURE LIST*
%ADD10C,0.150000*%
%ADD11C,0.200000*%
%ADD12C,0.010000*%
%ADD13C,0.152400*%
%ADD14C,0.120000*%
%ADD15C,1.000000*%
%ADD16R,0.750000X1.350000*%
%ADD17C,2.600000*%
%ADD18C,1.050000*%
%ADD19R,1.800000X0.450000*%
%ADD20R,5.300000X7.600000*%
%ADD21R,2.300000X2.300000*%
%ADD22C,2.300000*%
%ADD23C,0.900000*%
%ADD24C,6.500000*%
%ADD25R,2.200000X2.200000*%
%ADD26C,2.200000*%
%ADD27R,3.250000X1.100000*%
%ADD28R,1.100000X1.800000*%
G04 APERTURE END LIST*
D10*
X166894047Y-82954761D02*
X167036904Y-83002380D01*
X167275000Y-83002380D01*
X167370238Y-82954761D01*
X167417857Y-82907142D01*
X167465476Y-82811904D01*
X167465476Y-82716666D01*
X167417857Y-82621428D01*
X167370238Y-82573809D01*
X167275000Y-82526190D01*
X167084523Y-82478571D01*
X166989285Y-82430952D01*
X166941666Y-82383333D01*
X166894047Y-82288095D01*
X166894047Y-82192857D01*
X166941666Y-82097619D01*
X166989285Y-82050000D01*
X167084523Y-82002380D01*
X167322619Y-82002380D01*
X167465476Y-82050000D01*
X167798809Y-82002380D02*
X168036904Y-83002380D01*
X168227380Y-82288095D01*
X168417857Y-83002380D01*
X168655952Y-82002380D01*
X169227380Y-82002380D02*
X169417857Y-82002380D01*
X169513095Y-82050000D01*
X169608333Y-82145238D01*
X169655952Y-82335714D01*
X169655952Y-82669047D01*
X169608333Y-82859523D01*
X169513095Y-82954761D01*
X169417857Y-83002380D01*
X169227380Y-83002380D01*
X169132142Y-82954761D01*
X169036904Y-82859523D01*
X168989285Y-82669047D01*
X168989285Y-82335714D01*
X169036904Y-82145238D01*
X169132142Y-82050000D01*
X169227380Y-82002380D01*
X128579571Y-67397095D02*
X128627190Y-67254238D01*
X128674809Y-67206619D01*
X128770047Y-67159000D01*
X128912904Y-67159000D01*
X129008142Y-67206619D01*
X129055761Y-67254238D01*
X129103380Y-67349476D01*
X129103380Y-67730428D01*
X128103380Y-67730428D01*
X128103380Y-67397095D01*
X128151000Y-67301857D01*
X128198619Y-67254238D01*
X128293857Y-67206619D01*
X128389095Y-67206619D01*
X128484333Y-67254238D01*
X128531952Y-67301857D01*
X128579571Y-67397095D01*
X128579571Y-67730428D01*
X128817666Y-66778047D02*
X128817666Y-66301857D01*
X129103380Y-66873285D02*
X128103380Y-66539952D01*
X129103380Y-66206619D01*
X128103380Y-66016142D02*
X128103380Y-65444714D01*
X129103380Y-65730428D02*
X128103380Y-65730428D01*
X128103380Y-65254238D02*
X128103380Y-64682809D01*
X129103380Y-64968523D02*
X128103380Y-64968523D01*
X128722428Y-64349476D02*
X128722428Y-63587571D01*
X126039571Y-67397096D02*
X126087190Y-67254239D01*
X126134809Y-67206620D01*
X126230047Y-67159001D01*
X126372904Y-67159001D01*
X126468142Y-67206620D01*
X126515761Y-67254239D01*
X126563380Y-67349477D01*
X126563380Y-67730429D01*
X125563380Y-67730429D01*
X125563380Y-67397096D01*
X125611000Y-67301858D01*
X125658619Y-67254239D01*
X125753857Y-67206620D01*
X125849095Y-67206620D01*
X125944333Y-67254239D01*
X125991952Y-67301858D01*
X126039571Y-67397096D01*
X126039571Y-67730429D01*
X126277666Y-66778048D02*
X126277666Y-66301858D01*
X126563380Y-66873286D02*
X125563380Y-66539953D01*
X126563380Y-66206620D01*
X125563380Y-66016143D02*
X125563380Y-65444715D01*
X126563380Y-65730429D02*
X125563380Y-65730429D01*
X125563380Y-65254239D02*
X125563380Y-64682810D01*
X126563380Y-64968524D02*
X125563380Y-64968524D01*
X126182428Y-64349477D02*
X126182428Y-63587572D01*
X126563380Y-63968524D02*
X125801476Y-63968524D01*
X136088380Y-67746333D02*
X135088380Y-67746333D01*
X135802666Y-67413000D01*
X135088380Y-67079666D01*
X136088380Y-67079666D01*
X135088380Y-66746333D02*
X135088380Y-66174904D01*
X136088380Y-66460619D02*
X135088380Y-66460619D01*
X136088380Y-65270142D02*
X135612190Y-65603476D01*
X136088380Y-65841571D02*
X135088380Y-65841571D01*
X135088380Y-65460619D01*
X135136000Y-65365380D01*
X135183619Y-65317761D01*
X135278857Y-65270142D01*
X135421714Y-65270142D01*
X135516952Y-65317761D01*
X135564571Y-65365380D01*
X135612190Y-65460619D01*
X135612190Y-65841571D01*
X135707428Y-64841571D02*
X135707428Y-64079666D01*
X133548380Y-67746333D02*
X132548380Y-67746333D01*
X133262666Y-67413000D01*
X132548380Y-67079666D01*
X133548380Y-67079666D01*
X132548380Y-66746333D02*
X132548380Y-66174904D01*
X133548380Y-66460619D02*
X132548380Y-66460619D01*
X133548380Y-65270142D02*
X133072190Y-65603476D01*
X133548380Y-65841571D02*
X132548380Y-65841571D01*
X132548380Y-65460619D01*
X132596000Y-65365380D01*
X132643619Y-65317761D01*
X132738857Y-65270142D01*
X132881714Y-65270142D01*
X132976952Y-65317761D01*
X133024571Y-65365380D01*
X133072190Y-65460619D01*
X133072190Y-65841571D01*
X133167428Y-64841571D02*
X133167428Y-64079666D01*
X133548380Y-64460619D02*
X132786476Y-64460619D01*
X167949571Y-67770142D02*
X167949571Y-67436809D01*
X168473380Y-67293952D02*
X168473380Y-67770142D01*
X167473380Y-67770142D01*
X167473380Y-67293952D01*
X168473380Y-66865380D02*
X167473380Y-66865380D01*
X168473380Y-66293952D01*
X167473380Y-66293952D01*
X168378142Y-65246333D02*
X168425761Y-65293952D01*
X168473380Y-65436809D01*
X168473380Y-65532047D01*
X168425761Y-65674904D01*
X168330523Y-65770142D01*
X168235285Y-65817761D01*
X168044809Y-65865380D01*
X167901952Y-65865380D01*
X167711476Y-65817761D01*
X167616238Y-65770142D01*
X167521000Y-65674904D01*
X167473380Y-65532047D01*
X167473380Y-65436809D01*
X167521000Y-65293952D01*
X167568619Y-65246333D01*
X168092428Y-64817761D02*
X168092428Y-64055857D01*
X165409571Y-67778095D02*
X165409571Y-67444761D01*
X165933380Y-67301904D02*
X165933380Y-67778095D01*
X164933380Y-67778095D01*
X164933380Y-67301904D01*
X165933380Y-66873333D02*
X164933380Y-66873333D01*
X165933380Y-66301904D01*
X164933380Y-66301904D01*
X165838142Y-65254285D02*
X165885761Y-65301904D01*
X165933380Y-65444761D01*
X165933380Y-65540000D01*
X165885761Y-65682857D01*
X165790523Y-65778095D01*
X165695285Y-65825714D01*
X165504809Y-65873333D01*
X165361952Y-65873333D01*
X165171476Y-65825714D01*
X165076238Y-65778095D01*
X164981000Y-65682857D01*
X164933380Y-65540000D01*
X164933380Y-65444761D01*
X164981000Y-65301904D01*
X165028619Y-65254285D01*
X165409571Y-64492380D02*
X165457190Y-64349523D01*
X165504809Y-64301904D01*
X165600047Y-64254285D01*
X165742904Y-64254285D01*
X165838142Y-64301904D01*
X165885761Y-64349523D01*
X165933380Y-64444761D01*
X165933380Y-64825714D01*
X164933380Y-64825714D01*
X164933380Y-64492380D01*
X164981000Y-64397142D01*
X165028619Y-64349523D01*
X165123857Y-64301904D01*
X165219095Y-64301904D01*
X165314333Y-64349523D01*
X165361952Y-64397142D01*
X165409571Y-64492380D01*
X165409571Y-64825714D01*
X162869571Y-67706666D02*
X162869571Y-67373333D01*
X163393380Y-67230476D02*
X163393380Y-67706666D01*
X162393380Y-67706666D01*
X162393380Y-67230476D01*
X163393380Y-66801904D02*
X162393380Y-66801904D01*
X163393380Y-66230476D01*
X162393380Y-66230476D01*
X163298142Y-65182857D02*
X163345761Y-65230476D01*
X163393380Y-65373333D01*
X163393380Y-65468571D01*
X163345761Y-65611428D01*
X163250523Y-65706666D01*
X163155285Y-65754285D01*
X162964809Y-65801904D01*
X162821952Y-65801904D01*
X162631476Y-65754285D01*
X162536238Y-65706666D01*
X162441000Y-65611428D01*
X162393380Y-65468571D01*
X162393380Y-65373333D01*
X162441000Y-65230476D01*
X162488619Y-65182857D01*
X163107666Y-64801904D02*
X163107666Y-64325714D01*
X163393380Y-64897142D02*
X162393380Y-64563809D01*
X163393380Y-64230476D01*
X160329571Y-67770142D02*
X160329571Y-67436809D01*
X160853380Y-67293952D02*
X160853380Y-67770142D01*
X159853380Y-67770142D01*
X159853380Y-67293952D01*
X160853380Y-66865380D02*
X159853380Y-66865380D01*
X160853380Y-66293952D01*
X159853380Y-66293952D01*
X160758142Y-65246333D02*
X160805761Y-65293952D01*
X160853380Y-65436809D01*
X160853380Y-65532047D01*
X160805761Y-65674904D01*
X160710523Y-65770142D01*
X160615285Y-65817761D01*
X160424809Y-65865380D01*
X160281952Y-65865380D01*
X160091476Y-65817761D01*
X159996238Y-65770142D01*
X159901000Y-65674904D01*
X159853380Y-65532047D01*
X159853380Y-65436809D01*
X159901000Y-65293952D01*
X159948619Y-65246333D01*
X160472428Y-64817761D02*
X160472428Y-64055857D01*
X160853380Y-64436809D02*
X160091476Y-64436809D01*
X157789571Y-67365380D02*
X157837190Y-67222523D01*
X157884809Y-67174904D01*
X157980047Y-67127285D01*
X158122904Y-67127285D01*
X158218142Y-67174904D01*
X158265761Y-67222523D01*
X158313380Y-67317761D01*
X158313380Y-67698714D01*
X157313380Y-67698714D01*
X157313380Y-67365380D01*
X157361000Y-67270142D01*
X157408619Y-67222523D01*
X157503857Y-67174904D01*
X157599095Y-67174904D01*
X157694333Y-67222523D01*
X157741952Y-67270142D01*
X157789571Y-67365380D01*
X157789571Y-67698714D01*
X157313380Y-66841571D02*
X157313380Y-66270142D01*
X158313380Y-66555857D02*
X157313380Y-66555857D01*
X158313380Y-65936809D02*
X157313380Y-65936809D01*
X158313380Y-65365380D01*
X157313380Y-65365380D01*
X157932428Y-64889190D02*
X157932428Y-64127285D01*
X155249571Y-67365380D02*
X155297190Y-67222523D01*
X155344809Y-67174904D01*
X155440047Y-67127285D01*
X155582904Y-67127285D01*
X155678142Y-67174904D01*
X155725761Y-67222523D01*
X155773380Y-67317761D01*
X155773380Y-67698714D01*
X154773380Y-67698714D01*
X154773380Y-67365380D01*
X154821000Y-67270142D01*
X154868619Y-67222523D01*
X154963857Y-67174904D01*
X155059095Y-67174904D01*
X155154333Y-67222523D01*
X155201952Y-67270142D01*
X155249571Y-67365380D01*
X155249571Y-67698714D01*
X154773380Y-66841571D02*
X154773380Y-66270142D01*
X155773380Y-66555857D02*
X154773380Y-66555857D01*
X155773380Y-65936809D02*
X154773380Y-65936809D01*
X155773380Y-65365380D01*
X154773380Y-65365380D01*
X155392428Y-64889190D02*
X155392428Y-64127285D01*
X155773380Y-64508238D02*
X155011476Y-64508238D01*
X153185761Y-68317761D02*
X153233380Y-68174904D01*
X153233380Y-67936809D01*
X153185761Y-67841571D01*
X153138142Y-67793952D01*
X153042904Y-67746333D01*
X152947666Y-67746333D01*
X152852428Y-67793952D01*
X152804809Y-67841571D01*
X152757190Y-67936809D01*
X152709571Y-68127285D01*
X152661952Y-68222523D01*
X152614333Y-68270142D01*
X152519095Y-68317761D01*
X152423857Y-68317761D01*
X152328619Y-68270142D01*
X152281000Y-68222523D01*
X152233380Y-68127285D01*
X152233380Y-67889190D01*
X152281000Y-67746333D01*
X153233380Y-67317761D02*
X152233380Y-67317761D01*
X152233380Y-66936809D01*
X152281000Y-66841571D01*
X152328619Y-66793952D01*
X152423857Y-66746333D01*
X152566714Y-66746333D01*
X152661952Y-66793952D01*
X152709571Y-66841571D01*
X152757190Y-66936809D01*
X152757190Y-67317761D01*
X153233380Y-66317761D02*
X152233380Y-66317761D01*
X153233380Y-65746333D02*
X152661952Y-66174904D01*
X152233380Y-65746333D02*
X152804809Y-66317761D01*
X153233380Y-64746333D02*
X152757190Y-65079666D01*
X153233380Y-65317761D02*
X152233380Y-65317761D01*
X152233380Y-64936809D01*
X152281000Y-64841571D01*
X152328619Y-64793952D01*
X152423857Y-64746333D01*
X152566714Y-64746333D01*
X152661952Y-64793952D01*
X152709571Y-64841571D01*
X152757190Y-64936809D01*
X152757190Y-65317761D01*
X152852428Y-64317761D02*
X152852428Y-63555857D01*
X150645761Y-68317761D02*
X150693380Y-68174904D01*
X150693380Y-67936809D01*
X150645761Y-67841571D01*
X150598142Y-67793952D01*
X150502904Y-67746333D01*
X150407666Y-67746333D01*
X150312428Y-67793952D01*
X150264809Y-67841571D01*
X150217190Y-67936809D01*
X150169571Y-68127285D01*
X150121952Y-68222523D01*
X150074333Y-68270142D01*
X149979095Y-68317761D01*
X149883857Y-68317761D01*
X149788619Y-68270142D01*
X149741000Y-68222523D01*
X149693380Y-68127285D01*
X149693380Y-67889190D01*
X149741000Y-67746333D01*
X150693380Y-67317761D02*
X149693380Y-67317761D01*
X149693380Y-66936809D01*
X149741000Y-66841571D01*
X149788619Y-66793952D01*
X149883857Y-66746333D01*
X150026714Y-66746333D01*
X150121952Y-66793952D01*
X150169571Y-66841571D01*
X150217190Y-66936809D01*
X150217190Y-67317761D01*
X150693380Y-66317761D02*
X149693380Y-66317761D01*
X150693380Y-65746333D02*
X150121952Y-66174904D01*
X149693380Y-65746333D02*
X150264809Y-66317761D01*
X150693380Y-64746333D02*
X150217190Y-65079666D01*
X150693380Y-65317761D02*
X149693380Y-65317761D01*
X149693380Y-64936809D01*
X149741000Y-64841571D01*
X149788619Y-64793952D01*
X149883857Y-64746333D01*
X150026714Y-64746333D01*
X150121952Y-64793952D01*
X150169571Y-64841571D01*
X150217190Y-64936809D01*
X150217190Y-65317761D01*
X150312428Y-64317761D02*
X150312428Y-63555857D01*
X150693380Y-63936809D02*
X149931476Y-63936809D01*
X148153380Y-67174904D02*
X148153380Y-67651095D01*
X147153380Y-67651095D01*
X147629571Y-66841571D02*
X147629571Y-66508238D01*
X148153380Y-66365380D02*
X148153380Y-66841571D01*
X147153380Y-66841571D01*
X147153380Y-66365380D01*
X148153380Y-65936809D02*
X147153380Y-65936809D01*
X147153380Y-65698714D01*
X147201000Y-65555857D01*
X147296238Y-65460619D01*
X147391476Y-65413000D01*
X147581952Y-65365380D01*
X147724809Y-65365380D01*
X147915285Y-65413000D01*
X148010523Y-65460619D01*
X148105761Y-65555857D01*
X148153380Y-65698714D01*
X148153380Y-65936809D01*
X147772428Y-64936809D02*
X147772428Y-64174904D01*
X145613380Y-67174904D02*
X145613380Y-67651095D01*
X144613380Y-67651095D01*
X145089571Y-66841571D02*
X145089571Y-66508238D01*
X145613380Y-66365380D02*
X145613380Y-66841571D01*
X144613380Y-66841571D01*
X144613380Y-66365380D01*
X145613380Y-65936809D02*
X144613380Y-65936809D01*
X144613380Y-65698714D01*
X144661000Y-65555857D01*
X144756238Y-65460619D01*
X144851476Y-65413000D01*
X145041952Y-65365380D01*
X145184809Y-65365380D01*
X145375285Y-65413000D01*
X145470523Y-65460619D01*
X145565761Y-65555857D01*
X145613380Y-65698714D01*
X145613380Y-65936809D01*
X145232428Y-64936809D02*
X145232428Y-64174904D01*
X145613380Y-64555857D02*
X144851476Y-64555857D01*
X143025761Y-67746333D02*
X143073380Y-67603476D01*
X143073380Y-67365380D01*
X143025761Y-67270142D01*
X142978142Y-67222523D01*
X142882904Y-67174904D01*
X142787666Y-67174904D01*
X142692428Y-67222523D01*
X142644809Y-67270142D01*
X142597190Y-67365380D01*
X142549571Y-67555857D01*
X142501952Y-67651095D01*
X142454333Y-67698714D01*
X142359095Y-67746333D01*
X142263857Y-67746333D01*
X142168619Y-67698714D01*
X142121000Y-67651095D01*
X142073380Y-67555857D01*
X142073380Y-67317761D01*
X142121000Y-67174904D01*
X142073380Y-66555857D02*
X142073380Y-66365380D01*
X142121000Y-66270142D01*
X142216238Y-66174904D01*
X142406714Y-66127285D01*
X142740047Y-66127285D01*
X142930523Y-66174904D01*
X143025761Y-66270142D01*
X143073380Y-66365380D01*
X143073380Y-66555857D01*
X143025761Y-66651095D01*
X142930523Y-66746333D01*
X142740047Y-66793952D01*
X142406714Y-66793952D01*
X142216238Y-66746333D01*
X142121000Y-66651095D01*
X142073380Y-66555857D01*
X143073380Y-65222523D02*
X143073380Y-65698714D01*
X142073380Y-65698714D01*
X142692428Y-64889190D02*
X142692428Y-64127285D01*
X140485761Y-67746333D02*
X140533380Y-67603476D01*
X140533380Y-67365380D01*
X140485761Y-67270142D01*
X140438142Y-67222523D01*
X140342904Y-67174904D01*
X140247666Y-67174904D01*
X140152428Y-67222523D01*
X140104809Y-67270142D01*
X140057190Y-67365380D01*
X140009571Y-67555857D01*
X139961952Y-67651095D01*
X139914333Y-67698714D01*
X139819095Y-67746333D01*
X139723857Y-67746333D01*
X139628619Y-67698714D01*
X139581000Y-67651095D01*
X139533380Y-67555857D01*
X139533380Y-67317761D01*
X139581000Y-67174904D01*
X139533380Y-66555857D02*
X139533380Y-66365380D01*
X139581000Y-66270142D01*
X139676238Y-66174904D01*
X139866714Y-66127285D01*
X140200047Y-66127285D01*
X140390523Y-66174904D01*
X140485761Y-66270142D01*
X140533380Y-66365380D01*
X140533380Y-66555857D01*
X140485761Y-66651095D01*
X140390523Y-66746333D01*
X140200047Y-66793952D01*
X139866714Y-66793952D01*
X139676238Y-66746333D01*
X139581000Y-66651095D01*
X139533380Y-66555857D01*
X140533380Y-65222523D02*
X140533380Y-65698714D01*
X139533380Y-65698714D01*
X140152428Y-64889190D02*
X140152428Y-64127285D01*
X140533380Y-64508238D02*
X139771476Y-64508238D01*
D11*
X153843619Y-86903976D02*
X153843619Y-85653976D01*
X154557904Y-86903976D02*
X154022190Y-86189690D01*
X154557904Y-85653976D02*
X153843619Y-86368261D01*
X154974571Y-86070642D02*
X155272190Y-86903976D01*
X155569809Y-86070642D02*
X155272190Y-86903976D01*
X155153142Y-87201595D01*
X155093619Y-87261119D01*
X154974571Y-87320642D01*
X156046000Y-86903976D02*
X156046000Y-85653976D01*
X156046000Y-86130166D02*
X156165047Y-86070642D01*
X156403142Y-86070642D01*
X156522190Y-86130166D01*
X156581714Y-86189690D01*
X156641238Y-86308738D01*
X156641238Y-86665880D01*
X156581714Y-86784928D01*
X156522190Y-86844452D01*
X156403142Y-86903976D01*
X156165047Y-86903976D01*
X156046000Y-86844452D01*
X157653142Y-86844452D02*
X157534095Y-86903976D01*
X157296000Y-86903976D01*
X157176952Y-86844452D01*
X157117428Y-86725404D01*
X157117428Y-86249214D01*
X157176952Y-86130166D01*
X157296000Y-86070642D01*
X157534095Y-86070642D01*
X157653142Y-86130166D01*
X157712666Y-86249214D01*
X157712666Y-86368261D01*
X157117428Y-86487309D01*
X158248380Y-86903976D02*
X158248380Y-86070642D01*
X158248380Y-86308738D02*
X158307904Y-86189690D01*
X158367428Y-86130166D01*
X158486476Y-86070642D01*
X158605523Y-86070642D01*
X159438857Y-86249214D02*
X159617428Y-86308738D01*
X159676952Y-86368261D01*
X159736476Y-86487309D01*
X159736476Y-86665880D01*
X159676952Y-86784928D01*
X159617428Y-86844452D01*
X159498380Y-86903976D01*
X159022190Y-86903976D01*
X159022190Y-85653976D01*
X159438857Y-85653976D01*
X159557904Y-85713500D01*
X159617428Y-85773023D01*
X159676952Y-85892071D01*
X159676952Y-86011119D01*
X159617428Y-86130166D01*
X159557904Y-86189690D01*
X159438857Y-86249214D01*
X159022190Y-86249214D01*
X160450761Y-86903976D02*
X160331714Y-86844452D01*
X160272190Y-86784928D01*
X160212666Y-86665880D01*
X160212666Y-86308738D01*
X160272190Y-86189690D01*
X160331714Y-86130166D01*
X160450761Y-86070642D01*
X160629333Y-86070642D01*
X160748380Y-86130166D01*
X160807904Y-86189690D01*
X160867428Y-86308738D01*
X160867428Y-86665880D01*
X160807904Y-86784928D01*
X160748380Y-86844452D01*
X160629333Y-86903976D01*
X160450761Y-86903976D01*
X161938857Y-86903976D02*
X161938857Y-86249214D01*
X161879333Y-86130166D01*
X161760285Y-86070642D01*
X161522190Y-86070642D01*
X161403142Y-86130166D01*
X161938857Y-86844452D02*
X161819809Y-86903976D01*
X161522190Y-86903976D01*
X161403142Y-86844452D01*
X161343619Y-86725404D01*
X161343619Y-86606357D01*
X161403142Y-86487309D01*
X161522190Y-86427785D01*
X161819809Y-86427785D01*
X161938857Y-86368261D01*
X162534095Y-86903976D02*
X162534095Y-86070642D01*
X162534095Y-86308738D02*
X162593619Y-86189690D01*
X162653142Y-86130166D01*
X162772190Y-86070642D01*
X162891238Y-86070642D01*
X163843619Y-86903976D02*
X163843619Y-85653976D01*
X163843619Y-86844452D02*
X163724571Y-86903976D01*
X163486476Y-86903976D01*
X163367428Y-86844452D01*
X163307904Y-86784928D01*
X163248380Y-86665880D01*
X163248380Y-86308738D01*
X163307904Y-86189690D01*
X163367428Y-86130166D01*
X163486476Y-86070642D01*
X163724571Y-86070642D01*
X163843619Y-86130166D01*
X166105523Y-86903976D02*
X165688857Y-86308738D01*
X165391238Y-86903976D02*
X165391238Y-85653976D01*
X165867428Y-85653976D01*
X165986476Y-85713500D01*
X166046000Y-85773023D01*
X166105523Y-85892071D01*
X166105523Y-86070642D01*
X166046000Y-86189690D01*
X165986476Y-86249214D01*
X165867428Y-86308738D01*
X165391238Y-86308738D01*
X167296000Y-86903976D02*
X166581714Y-86903976D01*
X166938857Y-86903976D02*
X166938857Y-85653976D01*
X166819809Y-85832547D01*
X166700761Y-85951595D01*
X166581714Y-86011119D01*
X153843619Y-88978976D02*
X153843619Y-87728976D01*
X154260285Y-88621833D01*
X154676952Y-87728976D01*
X154676952Y-88978976D01*
X155272190Y-88859928D02*
X155331714Y-88919452D01*
X155272190Y-88978976D01*
X155212666Y-88919452D01*
X155272190Y-88859928D01*
X155272190Y-88978976D01*
X156760285Y-88621833D02*
X157355523Y-88621833D01*
X156641238Y-88978976D02*
X157057904Y-87728976D01*
X157474571Y-88978976D01*
X157891238Y-88145642D02*
X157891238Y-88978976D01*
X157891238Y-88264690D02*
X157950761Y-88205166D01*
X158069809Y-88145642D01*
X158248380Y-88145642D01*
X158367428Y-88205166D01*
X158426952Y-88324214D01*
X158426952Y-88978976D01*
X159557904Y-88978976D02*
X159557904Y-87728976D01*
X159557904Y-88919452D02*
X159438857Y-88978976D01*
X159200761Y-88978976D01*
X159081714Y-88919452D01*
X159022190Y-88859928D01*
X158962666Y-88740880D01*
X158962666Y-88383738D01*
X159022190Y-88264690D01*
X159081714Y-88205166D01*
X159200761Y-88145642D01*
X159438857Y-88145642D01*
X159557904Y-88205166D01*
X160629333Y-88919452D02*
X160510285Y-88978976D01*
X160272190Y-88978976D01*
X160153142Y-88919452D01*
X160093619Y-88800404D01*
X160093619Y-88324214D01*
X160153142Y-88205166D01*
X160272190Y-88145642D01*
X160510285Y-88145642D01*
X160629333Y-88205166D01*
X160688857Y-88324214D01*
X160688857Y-88443261D01*
X160093619Y-88562309D01*
X161224571Y-88978976D02*
X161224571Y-88145642D01*
X161224571Y-88383738D02*
X161284095Y-88264690D01*
X161343619Y-88205166D01*
X161462666Y-88145642D01*
X161581714Y-88145642D01*
X161938857Y-88919452D02*
X162057904Y-88978976D01*
X162296000Y-88978976D01*
X162415047Y-88919452D01*
X162474571Y-88800404D01*
X162474571Y-88740880D01*
X162415047Y-88621833D01*
X162296000Y-88562309D01*
X162117428Y-88562309D01*
X161998380Y-88502785D01*
X161938857Y-88383738D01*
X161938857Y-88324214D01*
X161998380Y-88205166D01*
X162117428Y-88145642D01*
X162296000Y-88145642D01*
X162415047Y-88205166D01*
X163188857Y-88978976D02*
X163069809Y-88919452D01*
X163010285Y-88859928D01*
X162950761Y-88740880D01*
X162950761Y-88383738D01*
X163010285Y-88264690D01*
X163069809Y-88205166D01*
X163188857Y-88145642D01*
X163367428Y-88145642D01*
X163486476Y-88205166D01*
X163546000Y-88264690D01*
X163605523Y-88383738D01*
X163605523Y-88740880D01*
X163546000Y-88859928D01*
X163486476Y-88919452D01*
X163367428Y-88978976D01*
X163188857Y-88978976D01*
X164141238Y-88145642D02*
X164141238Y-88978976D01*
X164141238Y-88264690D02*
X164200761Y-88205166D01*
X164319809Y-88145642D01*
X164498380Y-88145642D01*
X164617428Y-88205166D01*
X164676952Y-88324214D01*
X164676952Y-88978976D01*
D10*
X155384666Y-76922380D02*
X155718000Y-77922380D01*
X156051333Y-76922380D01*
X156956095Y-77827142D02*
X156908476Y-77874761D01*
X156765619Y-77922380D01*
X156670380Y-77922380D01*
X156527523Y-77874761D01*
X156432285Y-77779523D01*
X156384666Y-77684285D01*
X156337047Y-77493809D01*
X156337047Y-77350952D01*
X156384666Y-77160476D01*
X156432285Y-77065238D01*
X156527523Y-76970000D01*
X156670380Y-76922380D01*
X156765619Y-76922380D01*
X156908476Y-76970000D01*
X156956095Y-77017619D01*
X157956095Y-77827142D02*
X157908476Y-77874761D01*
X157765619Y-77922380D01*
X157670380Y-77922380D01*
X157527523Y-77874761D01*
X157432285Y-77779523D01*
X157384666Y-77684285D01*
X157337047Y-77493809D01*
X157337047Y-77350952D01*
X157384666Y-77160476D01*
X157432285Y-77065238D01*
X157527523Y-76970000D01*
X157670380Y-76922380D01*
X157765619Y-76922380D01*
X157908476Y-76970000D01*
X157956095Y-77017619D01*
X155956095Y-79510000D02*
X155860857Y-79462380D01*
X155718000Y-79462380D01*
X155575142Y-79510000D01*
X155479904Y-79605238D01*
X155432285Y-79700476D01*
X155384666Y-79890952D01*
X155384666Y-80033809D01*
X155432285Y-80224285D01*
X155479904Y-80319523D01*
X155575142Y-80414761D01*
X155718000Y-80462380D01*
X155813238Y-80462380D01*
X155956095Y-80414761D01*
X156003714Y-80367142D01*
X156003714Y-80033809D01*
X155813238Y-80033809D01*
X156432285Y-80462380D02*
X156432285Y-79462380D01*
X157003714Y-80462380D01*
X157003714Y-79462380D01*
X157479904Y-80462380D02*
X157479904Y-79462380D01*
X157718000Y-79462380D01*
X157860857Y-79510000D01*
X157956095Y-79605238D01*
X158003714Y-79700476D01*
X158051333Y-79890952D01*
X158051333Y-80033809D01*
X158003714Y-80224285D01*
X157956095Y-80319523D01*
X157860857Y-80414761D01*
X157718000Y-80462380D01*
X157479904Y-80462380D01*
X155360857Y-81764114D02*
X156360857Y-81764114D01*
X156170380Y-83131494D02*
X155837047Y-82655304D01*
X155598952Y-83131494D02*
X155598952Y-82131494D01*
X155979904Y-82131494D01*
X156075142Y-82179114D01*
X156122761Y-82226733D01*
X156170380Y-82321971D01*
X156170380Y-82464828D01*
X156122761Y-82560066D01*
X156075142Y-82607685D01*
X155979904Y-82655304D01*
X155598952Y-82655304D01*
X156360857Y-81764114D02*
X157313238Y-81764114D01*
X156551333Y-83083875D02*
X156694190Y-83131494D01*
X156932285Y-83131494D01*
X157027523Y-83083875D01*
X157075142Y-83036256D01*
X157122761Y-82941018D01*
X157122761Y-82845780D01*
X157075142Y-82750542D01*
X157027523Y-82702923D01*
X156932285Y-82655304D01*
X156741809Y-82607685D01*
X156646571Y-82560066D01*
X156598952Y-82512447D01*
X156551333Y-82417209D01*
X156551333Y-82321971D01*
X156598952Y-82226733D01*
X156646571Y-82179114D01*
X156741809Y-82131494D01*
X156979904Y-82131494D01*
X157122761Y-82179114D01*
X157313238Y-81764114D02*
X158075142Y-81764114D01*
X157408476Y-82131494D02*
X157979904Y-82131494D01*
X157694190Y-83131494D02*
X157694190Y-82131494D01*
X167251190Y-80462380D02*
X167251190Y-79462380D01*
X167489285Y-79462380D01*
X167632142Y-79510000D01*
X167727380Y-79605238D01*
X167775000Y-79700476D01*
X167822619Y-79890952D01*
X167822619Y-80033809D01*
X167775000Y-80224285D01*
X167727380Y-80319523D01*
X167632142Y-80414761D01*
X167489285Y-80462380D01*
X167251190Y-80462380D01*
X168251190Y-80462380D02*
X168251190Y-79462380D01*
X168917857Y-79462380D02*
X169108333Y-79462380D01*
X169203571Y-79510000D01*
X169298809Y-79605238D01*
X169346428Y-79795714D01*
X169346428Y-80129047D01*
X169298809Y-80319523D01*
X169203571Y-80414761D01*
X169108333Y-80462380D01*
X168917857Y-80462380D01*
X168822619Y-80414761D01*
X168727380Y-80319523D01*
X168679761Y-80129047D01*
X168679761Y-79795714D01*
X168727380Y-79605238D01*
X168822619Y-79510000D01*
X168917857Y-79462380D01*
X167679761Y-77827142D02*
X167632142Y-77874761D01*
X167489285Y-77922380D01*
X167394047Y-77922380D01*
X167251190Y-77874761D01*
X167155952Y-77779523D01*
X167108333Y-77684285D01*
X167060714Y-77493809D01*
X167060714Y-77350952D01*
X167108333Y-77160476D01*
X167155952Y-77065238D01*
X167251190Y-76970000D01*
X167394047Y-76922380D01*
X167489285Y-76922380D01*
X167632142Y-76970000D01*
X167679761Y-77017619D01*
X168584523Y-77922380D02*
X168108333Y-77922380D01*
X168108333Y-76922380D01*
X168917857Y-77922380D02*
X168917857Y-76922380D01*
X169489285Y-77922380D02*
X169060714Y-77350952D01*
X169489285Y-76922380D02*
X168917857Y-77493809D01*
D12*
G04 #@! TO.C,G\002A\002A\002A*
G36*
X169297350Y-72805925D02*
X169294175Y-72809100D01*
X169291000Y-72805925D01*
X169294175Y-72802750D01*
X169297350Y-72805925D01*
X169297350Y-72805925D01*
G37*
X169297350Y-72805925D02*
X169294175Y-72809100D01*
X169291000Y-72805925D01*
X169294175Y-72802750D01*
X169297350Y-72805925D01*
G36*
X170014900Y-73485375D02*
X170011725Y-73488550D01*
X170008550Y-73485375D01*
X170011725Y-73482200D01*
X170014900Y-73485375D01*
X170014900Y-73485375D01*
G37*
X170014900Y-73485375D02*
X170011725Y-73488550D01*
X170008550Y-73485375D01*
X170011725Y-73482200D01*
X170014900Y-73485375D01*
G36*
X170243500Y-74006075D02*
X170240325Y-74009250D01*
X170237150Y-74006075D01*
X170240325Y-74002900D01*
X170243500Y-74006075D01*
X170243500Y-74006075D01*
G37*
X170243500Y-74006075D02*
X170240325Y-74009250D01*
X170237150Y-74006075D01*
X170240325Y-74002900D01*
X170243500Y-74006075D01*
G36*
X170139783Y-74366966D02*
X170140543Y-74374502D01*
X170139783Y-74375433D01*
X170136008Y-74374561D01*
X170135550Y-74371200D01*
X170137873Y-74365973D01*
X170139783Y-74366966D01*
X170139783Y-74366966D01*
G37*
X170139783Y-74366966D02*
X170140543Y-74374502D01*
X170139783Y-74375433D01*
X170136008Y-74374561D01*
X170135550Y-74371200D01*
X170137873Y-74365973D01*
X170139783Y-74366966D01*
G36*
X170842333Y-71720715D02*
X170846750Y-71723744D01*
X170850647Y-71727425D01*
X170853100Y-71726424D01*
X170863546Y-71725765D01*
X170867387Y-71727459D01*
X170880911Y-71733049D01*
X170884338Y-71733779D01*
X170897554Y-71738214D01*
X170917769Y-71747636D01*
X170941353Y-71760082D01*
X170964678Y-71773589D01*
X170984113Y-71786193D01*
X170991521Y-71791774D01*
X171005648Y-71803487D01*
X171026079Y-71820565D01*
X171049425Y-71840173D01*
X171061382Y-71850250D01*
X171104490Y-71885837D01*
X171140075Y-71913226D01*
X171169575Y-71933215D01*
X171194428Y-71946605D01*
X171216072Y-71954195D01*
X171235946Y-71956785D01*
X171251241Y-71955836D01*
X171267990Y-71952005D01*
X171292931Y-71944420D01*
X171322537Y-71934223D01*
X171349851Y-71923914D01*
X171396783Y-71905930D01*
X171435219Y-71892676D01*
X171468162Y-71883488D01*
X171498615Y-71877703D01*
X171529581Y-71874656D01*
X171564062Y-71873685D01*
X171577000Y-71873709D01*
X171613419Y-71874887D01*
X171651987Y-71877632D01*
X171687001Y-71881476D01*
X171704000Y-71884127D01*
X171738385Y-71890112D01*
X171776968Y-71896346D01*
X171811484Y-71901495D01*
X171811950Y-71901560D01*
X171841523Y-71906623D01*
X171870494Y-71913140D01*
X171893336Y-71919839D01*
X171896322Y-71920948D01*
X171918181Y-71928003D01*
X171938587Y-71932246D01*
X171945739Y-71932800D01*
X171965758Y-71935449D01*
X171986537Y-71942166D01*
X172003604Y-71951104D01*
X172012455Y-71960336D01*
X172019525Y-71967440D01*
X172034959Y-71977792D01*
X172055598Y-71989304D01*
X172058403Y-71990729D01*
X172108778Y-72022753D01*
X172150657Y-72064071D01*
X172184375Y-72115029D01*
X172190361Y-72126804D01*
X172203395Y-72155513D01*
X172211273Y-72178964D01*
X172215490Y-72202717D01*
X172217294Y-72226858D01*
X172218047Y-72253939D01*
X172216460Y-72273735D01*
X172211552Y-72291586D01*
X172202341Y-72312835D01*
X172200951Y-72315758D01*
X172185010Y-72359524D01*
X172175951Y-72409128D01*
X172170816Y-72441662D01*
X172162630Y-72468993D01*
X172149671Y-72494690D01*
X172130220Y-72522322D01*
X172109013Y-72548006D01*
X172083932Y-72581124D01*
X172069774Y-72609682D01*
X172065950Y-72631557D01*
X172065950Y-72648914D01*
X172286612Y-72652243D01*
X172351621Y-72653318D01*
X172405676Y-72654538D01*
X172450522Y-72656111D01*
X172487906Y-72658245D01*
X172519573Y-72661147D01*
X172547268Y-72665027D01*
X172572737Y-72670091D01*
X172597727Y-72676549D01*
X172623982Y-72684607D01*
X172653248Y-72694475D01*
X172659675Y-72696704D01*
X172696415Y-72709904D01*
X172731697Y-72723338D01*
X172763246Y-72736068D01*
X172788793Y-72747160D01*
X172806065Y-72755677D01*
X172811757Y-72759370D01*
X172822912Y-72763982D01*
X172829220Y-72764650D01*
X172838819Y-72768049D01*
X172840650Y-72772058D01*
X172843126Y-72776406D01*
X172844695Y-72775420D01*
X172851918Y-72776087D01*
X172864697Y-72782838D01*
X172868067Y-72785136D01*
X172879120Y-72792076D01*
X172883292Y-72792719D01*
X172882741Y-72791371D01*
X172882305Y-72786437D01*
X172887908Y-72787613D01*
X172894630Y-72793552D01*
X172894258Y-72796992D01*
X172895784Y-72799999D01*
X172900484Y-72798884D01*
X172911838Y-72799580D01*
X172927557Y-72806028D01*
X172930976Y-72808019D01*
X172945094Y-72816269D01*
X172954034Y-72820616D01*
X172954950Y-72820817D01*
X172966216Y-72822514D01*
X172979904Y-72826635D01*
X172990472Y-72831294D01*
X172993050Y-72833803D01*
X172998517Y-72837433D01*
X173009492Y-72839440D01*
X173024884Y-72842178D01*
X173033304Y-72845409D01*
X173044619Y-72850523D01*
X173047025Y-72851112D01*
X173055836Y-72852748D01*
X173073784Y-72856151D01*
X173097532Y-72860690D01*
X173106463Y-72862403D01*
X173143934Y-72867708D01*
X173191429Y-72871056D01*
X173250055Y-72872518D01*
X173269976Y-72872600D01*
X173380400Y-72872600D01*
X173380400Y-73031350D01*
X172150538Y-73031349D01*
X171995385Y-73031367D01*
X171852516Y-73031423D01*
X171721518Y-73031519D01*
X171601976Y-73031657D01*
X171493474Y-73031841D01*
X171395598Y-73032073D01*
X171307932Y-73032354D01*
X171230062Y-73032689D01*
X171161574Y-73033079D01*
X171102052Y-73033527D01*
X171051081Y-73034035D01*
X171008246Y-73034606D01*
X170973134Y-73035243D01*
X170945328Y-73035948D01*
X170924414Y-73036723D01*
X170909977Y-73037571D01*
X170901602Y-73038495D01*
X170899588Y-73038975D01*
X170878500Y-73046601D01*
X170878500Y-73753350D01*
X170878456Y-73846939D01*
X170878330Y-73936900D01*
X170878125Y-74022426D01*
X170877850Y-74102713D01*
X170877507Y-74176955D01*
X170877105Y-74244345D01*
X170876647Y-74304078D01*
X170876140Y-74355348D01*
X170875589Y-74397349D01*
X170875001Y-74429275D01*
X170874379Y-74450320D01*
X170873731Y-74459680D01*
X170873561Y-74460100D01*
X170865885Y-74455897D01*
X170858534Y-74448987D01*
X170847202Y-74438184D01*
X170831052Y-74424599D01*
X170825440Y-74420194D01*
X170810241Y-74405488D01*
X170799845Y-74389917D01*
X170798146Y-74385269D01*
X170789066Y-74363645D01*
X170773044Y-74338974D01*
X170756830Y-74319817D01*
X170749792Y-74307733D01*
X170742683Y-74288061D01*
X170738532Y-74271755D01*
X170736315Y-74259819D01*
X170734709Y-74247072D01*
X170733737Y-74232036D01*
X170733422Y-74213233D01*
X170733786Y-74189184D01*
X170734852Y-74158412D01*
X170736643Y-74119438D01*
X170739182Y-74070783D01*
X170742492Y-74010970D01*
X170742589Y-74009250D01*
X170746696Y-73936225D01*
X170725285Y-73927312D01*
X170707491Y-73918374D01*
X170693444Y-73908812D01*
X170692829Y-73908262D01*
X170670820Y-73887292D01*
X170656838Y-73871691D01*
X170648929Y-73858978D01*
X170645410Y-73848066D01*
X170638847Y-73833498D01*
X170629886Y-73826688D01*
X170621704Y-73820946D01*
X170618406Y-73807370D01*
X170618150Y-73798959D01*
X170618150Y-73774300D01*
X170495383Y-73774300D01*
X170450520Y-73774501D01*
X170417082Y-73775159D01*
X170393800Y-73776356D01*
X170379403Y-73778173D01*
X170372623Y-73780691D01*
X170371693Y-73782237D01*
X170369312Y-73799592D01*
X170366718Y-73814253D01*
X170364731Y-73821698D01*
X170364488Y-73821925D01*
X170362532Y-73827302D01*
X170360351Y-73837467D01*
X170354485Y-73853858D01*
X170348575Y-73862867D01*
X170341129Y-73873010D01*
X170339331Y-73877554D01*
X170335685Y-73889764D01*
X170328062Y-73903108D01*
X170319369Y-73913437D01*
X170312515Y-73916602D01*
X170312098Y-73916401D01*
X170308006Y-73915947D01*
X170309300Y-73918934D01*
X170308070Y-73927285D01*
X170300796Y-73934772D01*
X170292337Y-73942681D01*
X170291412Y-73947096D01*
X170288746Y-73952635D01*
X170278566Y-73964076D01*
X170262999Y-73979056D01*
X170261209Y-73980673D01*
X170244840Y-73996027D01*
X170233214Y-74008154D01*
X170228659Y-74014613D01*
X170228672Y-74014822D01*
X170226103Y-74022528D01*
X170223180Y-74026654D01*
X170219049Y-74040507D01*
X170221048Y-74062402D01*
X170228519Y-74089647D01*
X170240803Y-74119550D01*
X170250418Y-74138017D01*
X170262053Y-74158885D01*
X170270768Y-74175158D01*
X170275049Y-74183990D01*
X170275250Y-74184709D01*
X170279128Y-74190862D01*
X170288435Y-74201603D01*
X170303504Y-74222523D01*
X170316302Y-74248808D01*
X170324421Y-74274877D01*
X170326050Y-74288755D01*
X170328985Y-74305992D01*
X170335575Y-74318132D01*
X170343540Y-74331649D01*
X170345100Y-74339903D01*
X170347651Y-74349976D01*
X170350993Y-74352150D01*
X170354577Y-74357921D01*
X170358720Y-74373043D01*
X170362742Y-74394228D01*
X170365961Y-74418187D01*
X170366998Y-74429408D01*
X170371175Y-74437420D01*
X170372087Y-74438404D01*
X170375585Y-74447716D01*
X170376850Y-74461158D01*
X170377862Y-74472460D01*
X170383253Y-74477660D01*
X170396550Y-74479114D01*
X170403837Y-74479173D01*
X170429767Y-74482937D01*
X170451615Y-74491873D01*
X170478673Y-74503255D01*
X170502257Y-74502759D01*
X170521544Y-74490593D01*
X170533953Y-74471212D01*
X170542611Y-74457093D01*
X170550154Y-74454043D01*
X170555733Y-74460434D01*
X170558501Y-74474637D01*
X170557611Y-74495025D01*
X170554640Y-74510939D01*
X170546996Y-74533105D01*
X170536431Y-74552688D01*
X170531870Y-74558523D01*
X170521517Y-74572164D01*
X170516611Y-74583488D01*
X170516550Y-74584392D01*
X170511396Y-74592844D01*
X170498382Y-74604183D01*
X170481181Y-74615972D01*
X170463463Y-74625775D01*
X170448901Y-74631158D01*
X170445456Y-74631550D01*
X170437799Y-74634257D01*
X170434489Y-74644430D01*
X170434000Y-74656489D01*
X170436495Y-74676413D01*
X170445732Y-74690295D01*
X170450731Y-74694589D01*
X170465465Y-74703763D01*
X170477945Y-74707745D01*
X170478248Y-74707750D01*
X170491051Y-74710419D01*
X170492245Y-74718203D01*
X170486005Y-74726614D01*
X170460518Y-74744472D01*
X170430057Y-74751412D01*
X170396771Y-74747030D01*
X170389742Y-74744678D01*
X170375938Y-74737591D01*
X170364358Y-74729975D01*
X170465750Y-74729975D01*
X170468925Y-74733150D01*
X170472100Y-74729975D01*
X170468925Y-74726800D01*
X170465750Y-74729975D01*
X170364358Y-74729975D01*
X170358917Y-74726397D01*
X170355311Y-74723717D01*
X170331055Y-74710943D01*
X170312433Y-74707750D01*
X170294973Y-74705558D01*
X170282432Y-74700241D01*
X170281938Y-74699812D01*
X170276093Y-74695135D01*
X170277927Y-74699858D01*
X170278259Y-74700446D01*
X170279925Y-74705748D01*
X170273394Y-74703739D01*
X170269488Y-74701714D01*
X170260364Y-74694237D01*
X170259303Y-74688815D01*
X170257586Y-74681311D01*
X170251004Y-74674846D01*
X170233476Y-74656798D01*
X170217329Y-74630356D01*
X170204861Y-74599795D01*
X170199772Y-74579499D01*
X170192712Y-74551994D01*
X170182089Y-74522735D01*
X170176081Y-74509649D01*
X170164914Y-74482190D01*
X170158302Y-74454673D01*
X170157473Y-74446370D01*
X170155748Y-74427178D01*
X170153057Y-74413095D01*
X170151769Y-74409858D01*
X170150372Y-74399077D01*
X170151425Y-74396600D01*
X170151034Y-74390743D01*
X170148824Y-74390250D01*
X170145184Y-74385544D01*
X170146306Y-74379806D01*
X170144942Y-74367547D01*
X170138874Y-74360999D01*
X170132382Y-74353283D01*
X170128642Y-74339963D01*
X170126953Y-74318006D01*
X170126730Y-74308567D01*
X170125865Y-74287196D01*
X170124251Y-74272299D01*
X170122224Y-74266871D01*
X170122055Y-74266935D01*
X170118695Y-74262976D01*
X170116122Y-74253725D01*
X170129200Y-74253725D01*
X170132375Y-74256900D01*
X170135550Y-74253725D01*
X170132375Y-74250550D01*
X170129200Y-74253725D01*
X170116122Y-74253725D01*
X170115121Y-74250128D01*
X170114128Y-74244616D01*
X170108845Y-74223801D01*
X170100354Y-74201863D01*
X170090713Y-74183450D01*
X170082703Y-74173696D01*
X170077613Y-74165486D01*
X170073349Y-74151669D01*
X170070821Y-74136997D01*
X170070940Y-74126225D01*
X170073093Y-74123550D01*
X170076232Y-74119606D01*
X170075160Y-74117096D01*
X170068457Y-74112856D01*
X170066691Y-74113412D01*
X170064030Y-74109808D01*
X170063019Y-74096735D01*
X170063592Y-74077305D01*
X170065678Y-74054633D01*
X170068393Y-74036237D01*
X170072649Y-74019797D01*
X170077733Y-74010235D01*
X170079637Y-74009250D01*
X170083295Y-74004565D01*
X170082233Y-73999151D01*
X170081269Y-73986309D01*
X170082974Y-73981689D01*
X170087755Y-73970424D01*
X170088202Y-73967975D01*
X170091092Y-73948102D01*
X170095417Y-73928829D01*
X170100129Y-73914055D01*
X170104179Y-73907680D01*
X170104412Y-73907650D01*
X170107259Y-73902985D01*
X170106213Y-73898429D01*
X170105886Y-73885356D01*
X170107608Y-73881225D01*
X170110395Y-73870341D01*
X170111590Y-73852375D01*
X170111488Y-73844408D01*
X170111355Y-73827982D01*
X170112881Y-73822898D01*
X170116484Y-73827859D01*
X170116690Y-73828275D01*
X170120546Y-73834494D01*
X170121498Y-73830223D01*
X170120506Y-73818750D01*
X170121432Y-73803368D01*
X170123032Y-73796707D01*
X170126025Y-73799700D01*
X170129200Y-73796525D01*
X170126025Y-73793350D01*
X170123146Y-73796229D01*
X170125937Y-73784607D01*
X170126223Y-73783825D01*
X170129200Y-73783825D01*
X170132375Y-73787000D01*
X170135550Y-73783825D01*
X170132375Y-73780650D01*
X170129200Y-73783825D01*
X170126223Y-73783825D01*
X170130878Y-73771125D01*
X170135550Y-73771125D01*
X170138725Y-73774300D01*
X170141900Y-73771125D01*
X170138725Y-73767950D01*
X170135550Y-73771125D01*
X170130878Y-73771125D01*
X170132552Y-73766561D01*
X170139807Y-73753322D01*
X170145578Y-73748900D01*
X170146079Y-73753086D01*
X170144468Y-73756231D01*
X170143724Y-73760597D01*
X170146991Y-73759202D01*
X170151299Y-73750409D01*
X170150437Y-73745440D01*
X170150515Y-73732504D01*
X170152691Y-73728181D01*
X170157541Y-73717341D01*
X170154895Y-73704352D01*
X170149389Y-73693337D01*
X170144901Y-73682807D01*
X170145629Y-73679050D01*
X170145912Y-73675181D01*
X170142732Y-73670528D01*
X170138958Y-73660754D01*
X170140367Y-73656810D01*
X170140505Y-73654588D01*
X170137137Y-73656181D01*
X170130162Y-73656787D01*
X170129200Y-73654245D01*
X170125309Y-73645947D01*
X170115460Y-73632400D01*
X170109492Y-73625295D01*
X170098811Y-73612261D01*
X170093645Y-73604163D01*
X170093864Y-73602850D01*
X170093066Y-73598930D01*
X170085481Y-73589473D01*
X170085216Y-73589188D01*
X170077142Y-73577826D01*
X170075819Y-73570138D01*
X170074222Y-73565211D01*
X170071366Y-73564750D01*
X170066530Y-73562482D01*
X170067411Y-73560921D01*
X170065808Y-73554613D01*
X170057007Y-73543838D01*
X170054182Y-73541079D01*
X170045704Y-73532328D01*
X170045084Y-73529765D01*
X170046897Y-73530620D01*
X170048875Y-73530523D01*
X170042543Y-73523839D01*
X170037372Y-73519142D01*
X170025019Y-73505550D01*
X170021071Y-73498075D01*
X170021250Y-73498075D01*
X170024425Y-73501250D01*
X170027600Y-73498075D01*
X170024425Y-73494900D01*
X170021250Y-73498075D01*
X170021071Y-73498075D01*
X170018412Y-73493041D01*
X170018066Y-73490567D01*
X170014407Y-73480495D01*
X170010129Y-73478231D01*
X170000378Y-73476373D01*
X169999025Y-73475850D01*
X169990543Y-73472945D01*
X169989500Y-73472675D01*
X169982008Y-73470096D01*
X169981562Y-73469807D01*
X169974844Y-73467739D01*
X169967648Y-73466222D01*
X169944457Y-73461235D01*
X169931829Y-73456505D01*
X169927692Y-73451019D01*
X169928398Y-73447009D01*
X169928394Y-73438996D01*
X169925800Y-73437750D01*
X169919884Y-73442637D01*
X169919650Y-73444474D01*
X169915732Y-73448207D01*
X169913097Y-73447150D01*
X169904070Y-73445123D01*
X169885768Y-73443267D01*
X169861614Y-73441899D01*
X169852997Y-73441610D01*
X169824348Y-73441427D01*
X169806513Y-73442953D01*
X169797690Y-73446405D01*
X169796249Y-73448459D01*
X169788052Y-73455250D01*
X169779774Y-73456800D01*
X169770695Y-73458975D01*
X169770013Y-73462484D01*
X169768269Y-73469169D01*
X169763708Y-73471936D01*
X169756947Y-73472253D01*
X169757866Y-73467839D01*
X169757202Y-73466907D01*
X169750618Y-73474346D01*
X169747987Y-73477648D01*
X169734679Y-73490172D01*
X169722264Y-73491552D01*
X169721957Y-73491457D01*
X169712484Y-73491096D01*
X169711527Y-73496008D01*
X169708008Y-73502657D01*
X169702230Y-73503554D01*
X169694460Y-73505114D01*
X169694351Y-73507805D01*
X169693058Y-73515812D01*
X169688235Y-73522207D01*
X169681956Y-73530860D01*
X169681866Y-73534399D01*
X169679806Y-73540093D01*
X169670947Y-73549443D01*
X169662652Y-73555713D01*
X169661254Y-73554494D01*
X169661487Y-73554076D01*
X169660980Y-73544861D01*
X169657816Y-73541945D01*
X169653069Y-73540373D01*
X169654190Y-73542218D01*
X169653434Y-73549593D01*
X169647695Y-73564154D01*
X169638808Y-73582369D01*
X169628609Y-73600709D01*
X169618931Y-73615644D01*
X169611999Y-73623390D01*
X169609376Y-73627627D01*
X169611440Y-73628152D01*
X169610498Y-73632089D01*
X169602018Y-73642271D01*
X169589128Y-73655237D01*
X169572314Y-73672236D01*
X169550957Y-73695289D01*
X169528533Y-73720601D01*
X169517917Y-73733025D01*
X169499024Y-73755440D01*
X169482361Y-73775178D01*
X169470160Y-73789596D01*
X169465617Y-73794937D01*
X169459518Y-73803452D01*
X169459421Y-73806050D01*
X169459137Y-73810334D01*
X169453322Y-73820681D01*
X169444498Y-73833336D01*
X169435185Y-73844541D01*
X169430787Y-73848710D01*
X169425176Y-73855003D01*
X169426369Y-73856648D01*
X169426579Y-73861221D01*
X169420511Y-73872271D01*
X169418432Y-73875292D01*
X169409626Y-73889349D01*
X169405371Y-73899459D01*
X169405300Y-73900239D01*
X169401224Y-73909572D01*
X169395431Y-73916611D01*
X169388576Y-73925389D01*
X169383474Y-73937925D01*
X169378568Y-73958275D01*
X169377595Y-73963028D01*
X169372854Y-73973736D01*
X169371617Y-73975199D01*
X169368094Y-73984477D01*
X169367200Y-73994058D01*
X169364990Y-74006874D01*
X169361569Y-74011980D01*
X169356610Y-74020092D01*
X169352230Y-74035047D01*
X169352010Y-74036167D01*
X169345910Y-74057430D01*
X169338020Y-74075925D01*
X169330227Y-74092859D01*
X169325554Y-74106950D01*
X169325540Y-74107017D01*
X169321007Y-74124941D01*
X169314636Y-74145060D01*
X169308145Y-74162335D01*
X169303700Y-74171175D01*
X169298924Y-74180908D01*
X169292775Y-74197389D01*
X169290960Y-74202925D01*
X169267994Y-74257758D01*
X169236243Y-74307212D01*
X169209102Y-74337519D01*
X169186571Y-74352025D01*
X169154692Y-74362454D01*
X169116427Y-74367864D01*
X169113200Y-74368050D01*
X169091015Y-74370078D01*
X169071074Y-74373300D01*
X169066887Y-74374297D01*
X169046643Y-74376116D01*
X169024939Y-74370339D01*
X169000478Y-74356201D01*
X168971966Y-74332933D01*
X168938108Y-74299769D01*
X168934256Y-74295751D01*
X168910668Y-74269964D01*
X168889114Y-74244477D01*
X168871849Y-74222084D01*
X168861131Y-74205579D01*
X168860542Y-74204433D01*
X168850362Y-74180151D01*
X168841860Y-74151091D01*
X168834890Y-74116024D01*
X168829302Y-74073721D01*
X168824948Y-74022954D01*
X168821681Y-73962492D01*
X168819351Y-73891107D01*
X168818602Y-73856850D01*
X168816692Y-73780627D01*
X168814111Y-73715406D01*
X168810885Y-73661665D01*
X168807040Y-73619882D01*
X168804776Y-73602850D01*
X168799211Y-73558538D01*
X168797941Y-73523495D01*
X168801152Y-73494973D01*
X168804207Y-73485375D01*
X169729150Y-73485375D01*
X169732325Y-73488550D01*
X169735500Y-73485375D01*
X169732325Y-73482200D01*
X169729150Y-73485375D01*
X168804207Y-73485375D01*
X168809032Y-73470221D01*
X168814591Y-73458755D01*
X168817165Y-73453625D01*
X169754550Y-73453625D01*
X169757725Y-73456800D01*
X169760900Y-73453625D01*
X169757725Y-73450450D01*
X169754550Y-73453625D01*
X168817165Y-73453625D01*
X168820351Y-73447275D01*
X169786300Y-73447275D01*
X169789475Y-73450450D01*
X169792650Y-73447275D01*
X169789475Y-73444100D01*
X169786300Y-73447275D01*
X168820351Y-73447275D01*
X168822532Y-73442931D01*
X168827053Y-73431973D01*
X168827450Y-73430080D01*
X168829932Y-73422189D01*
X168836352Y-73406630D01*
X168842974Y-73391886D01*
X168853417Y-73367283D01*
X168864860Y-73337041D01*
X168876180Y-73304530D01*
X168886256Y-73273125D01*
X168893966Y-73246197D01*
X168898189Y-73227121D01*
X168898466Y-73225024D01*
X168903635Y-73208365D01*
X168914170Y-73188777D01*
X168919366Y-73181346D01*
X168931104Y-73163094D01*
X168938811Y-73145766D01*
X168940135Y-73140072D01*
X168946302Y-73123427D01*
X168956222Y-73110581D01*
X168970439Y-73095302D01*
X168984828Y-73076205D01*
X168996904Y-73057049D01*
X169004183Y-73041596D01*
X169005250Y-73036335D01*
X169009760Y-73025633D01*
X169020810Y-73012826D01*
X169022712Y-73011133D01*
X169036653Y-72997586D01*
X169053626Y-72978969D01*
X169064088Y-72966514D01*
X169078790Y-72949909D01*
X169092033Y-72937662D01*
X169099013Y-72933293D01*
X169109250Y-72925924D01*
X169121292Y-72911954D01*
X169124685Y-72907017D01*
X169140845Y-72888954D01*
X169160730Y-72875459D01*
X169162731Y-72874569D01*
X169183634Y-72863758D01*
X169202891Y-72850662D01*
X169204120Y-72849648D01*
X169218365Y-72839592D01*
X169229910Y-72834615D01*
X169231162Y-72834499D01*
X169239296Y-72830978D01*
X169240200Y-72828270D01*
X169245654Y-72822520D01*
X169258535Y-72817307D01*
X169273620Y-72814288D01*
X169283533Y-72814519D01*
X169295373Y-72812320D01*
X169300445Y-72809165D01*
X169313427Y-72802311D01*
X169323787Y-72799306D01*
X169342249Y-72795309D01*
X169354500Y-72792259D01*
X169376495Y-72789033D01*
X169407430Y-72788048D01*
X169443759Y-72789229D01*
X169481934Y-72792502D01*
X169503725Y-72795361D01*
X169530813Y-72799438D01*
X169555676Y-72803179D01*
X169573510Y-72805862D01*
X169575294Y-72806130D01*
X169594873Y-72810441D01*
X169617545Y-72817244D01*
X169622919Y-72819144D01*
X169658450Y-72830357D01*
X169699502Y-72840422D01*
X169740696Y-72848203D01*
X169776653Y-72852565D01*
X169783117Y-72852944D01*
X169804850Y-72854864D01*
X169821858Y-72858109D01*
X169828965Y-72861054D01*
X169838613Y-72864181D01*
X169857397Y-72866802D01*
X169881755Y-72868465D01*
X169889321Y-72868703D01*
X169914836Y-72869911D01*
X169936011Y-72872046D01*
X169949180Y-72874704D01*
X169950932Y-72875486D01*
X169961510Y-72878431D01*
X169980693Y-72880855D01*
X170004388Y-72882247D01*
X170005088Y-72882266D01*
X170031684Y-72884084D01*
X170056602Y-72887637D01*
X170073090Y-72891742D01*
X170093528Y-72895247D01*
X170122690Y-72895198D01*
X170157227Y-72891981D01*
X170193788Y-72885980D01*
X170229023Y-72877581D01*
X170247777Y-72871676D01*
X170267063Y-72865483D01*
X170280996Y-72862104D01*
X170285869Y-72862052D01*
X170292401Y-72860698D01*
X170307165Y-72854715D01*
X170327240Y-72845543D01*
X170349702Y-72834625D01*
X170371630Y-72823404D01*
X170390102Y-72813321D01*
X170402195Y-72805818D01*
X170405158Y-72803181D01*
X170412647Y-72797020D01*
X170427554Y-72788070D01*
X170437381Y-72782916D01*
X170456435Y-72772146D01*
X170471874Y-72761260D01*
X170476322Y-72757143D01*
X170478822Y-72755125D01*
X170484800Y-72755125D01*
X170487975Y-72758300D01*
X170491150Y-72755125D01*
X170487975Y-72751950D01*
X170484800Y-72755125D01*
X170478822Y-72755125D01*
X170487463Y-72748150D01*
X170494780Y-72745600D01*
X170503725Y-72742270D01*
X170504908Y-72740580D01*
X170511478Y-72736046D01*
X170526359Y-72728987D01*
X170545814Y-72720896D01*
X170566106Y-72713267D01*
X170583497Y-72707593D01*
X170592750Y-72705473D01*
X170603255Y-72702293D01*
X170605450Y-72700661D01*
X170615140Y-72695343D01*
X170616996Y-72694716D01*
X171254285Y-72694716D01*
X171259153Y-72701620D01*
X171266784Y-72704213D01*
X171325840Y-72715477D01*
X171381439Y-72719504D01*
X171424004Y-72720200D01*
X171422862Y-72687095D01*
X171680134Y-72687095D01*
X171682098Y-72693389D01*
X171693962Y-72694405D01*
X171716518Y-72690680D01*
X171743687Y-72684433D01*
X171764947Y-72678546D01*
X171780283Y-72672911D01*
X171786532Y-72668701D01*
X171786550Y-72668541D01*
X171781403Y-72658222D01*
X171768794Y-72646489D01*
X171752974Y-72636845D01*
X171744190Y-72633635D01*
X171732954Y-72632463D01*
X171722773Y-72636739D01*
X171710125Y-72648406D01*
X171702753Y-72656515D01*
X171687283Y-72674983D01*
X171680134Y-72687095D01*
X171422862Y-72687095D01*
X171422744Y-72683687D01*
X171422946Y-72657034D01*
X171424870Y-72630172D01*
X171426446Y-72618600D01*
X171431408Y-72590025D01*
X171379365Y-72565573D01*
X171339799Y-72547663D01*
X171307185Y-72534297D01*
X171282937Y-72526015D01*
X171268985Y-72523350D01*
X171265128Y-72527222D01*
X171262470Y-72539770D01*
X171260830Y-72562384D01*
X171260085Y-72591612D01*
X171259356Y-72622104D01*
X171258133Y-72649898D01*
X171256609Y-72671263D01*
X171255498Y-72680227D01*
X171254285Y-72694716D01*
X170616996Y-72694716D01*
X170634890Y-72688674D01*
X170638167Y-72687791D01*
X171045410Y-72687791D01*
X171068317Y-72690228D01*
X171100260Y-72693054D01*
X171120786Y-72693434D01*
X171130944Y-72691346D01*
X171132500Y-72688944D01*
X171128085Y-72682525D01*
X171116953Y-72671006D01*
X171102274Y-72657261D01*
X171087216Y-72644161D01*
X171074950Y-72634581D01*
X171068949Y-72631340D01*
X171065117Y-72636717D01*
X171059022Y-72650423D01*
X171055567Y-72659545D01*
X171045410Y-72687791D01*
X170638167Y-72687791D01*
X170662220Y-72681311D01*
X170694649Y-72673913D01*
X170729698Y-72667138D01*
X170735625Y-72666115D01*
X170779937Y-72660059D01*
X170818328Y-72658373D01*
X170849925Y-72660071D01*
X170882936Y-72663204D01*
X170905583Y-72664830D01*
X170920180Y-72664150D01*
X170929044Y-72660364D01*
X170934488Y-72652675D01*
X170938830Y-72640284D01*
X170942534Y-72628125D01*
X170948992Y-72605005D01*
X170953379Y-72584380D01*
X170954606Y-72573422D01*
X170959618Y-72556765D01*
X170972333Y-72537785D01*
X170989510Y-72520601D01*
X171003495Y-72511307D01*
X171019839Y-72505735D01*
X171035049Y-72504623D01*
X171044180Y-72508240D01*
X171044658Y-72509062D01*
X171051493Y-72514899D01*
X171064993Y-72522180D01*
X171080585Y-72528904D01*
X171093692Y-72533068D01*
X171099508Y-72533058D01*
X171100167Y-72525487D01*
X171098444Y-72509134D01*
X171094920Y-72488650D01*
X171090391Y-72456784D01*
X171090883Y-72426845D01*
X171093824Y-72404601D01*
X171097904Y-72374874D01*
X171101102Y-72343190D01*
X171102388Y-72323325D01*
X171103925Y-72285225D01*
X171063427Y-72265292D01*
X171046950Y-72257605D01*
X171031325Y-72251658D01*
X171014259Y-72247031D01*
X170993458Y-72243303D01*
X170966629Y-72240055D01*
X170931479Y-72236867D01*
X170890833Y-72233702D01*
X170836491Y-72229627D01*
X170795583Y-72254489D01*
X170772133Y-72269137D01*
X170752309Y-72282732D01*
X170732951Y-72297726D01*
X170710902Y-72316569D01*
X170683002Y-72341713D01*
X170681874Y-72342743D01*
X170641138Y-72378229D01*
X170606218Y-72404565D01*
X170575372Y-72422806D01*
X170546856Y-72434006D01*
X170523139Y-72438780D01*
X170496652Y-72439305D01*
X170480191Y-72432982D01*
X170472764Y-72419279D01*
X170472100Y-72411326D01*
X170470028Y-72400318D01*
X170461454Y-72398723D01*
X170457812Y-72399467D01*
X170445823Y-72400703D01*
X170436083Y-72396666D01*
X170426624Y-72385448D01*
X170415478Y-72365139D01*
X170409367Y-72352481D01*
X170407860Y-72348725D01*
X170656250Y-72348725D01*
X170659425Y-72351900D01*
X170662600Y-72348725D01*
X170659425Y-72345550D01*
X170656250Y-72348725D01*
X170407860Y-72348725D01*
X170397442Y-72322766D01*
X170393359Y-72298316D01*
X170396688Y-72274760D01*
X170400598Y-72263000D01*
X170404301Y-72250633D01*
X170404937Y-72247125D01*
X170407753Y-72228465D01*
X170412266Y-72204370D01*
X170417785Y-72177911D01*
X170423618Y-72152158D01*
X170429076Y-72130181D01*
X170433466Y-72115053D01*
X170435815Y-72109890D01*
X170440476Y-72103022D01*
X170440392Y-72101899D01*
X170440210Y-72092004D01*
X170441539Y-72072974D01*
X170444003Y-72048233D01*
X170447228Y-72021202D01*
X170450839Y-71995308D01*
X170454303Y-71974792D01*
X170460125Y-71951254D01*
X170466856Y-71938342D01*
X170473152Y-71934364D01*
X170482859Y-71929835D01*
X170484800Y-71926885D01*
X170489964Y-71921564D01*
X170502435Y-71913953D01*
X170517678Y-71906355D01*
X170531156Y-71901070D01*
X170537659Y-71900063D01*
X170540313Y-71897549D01*
X170539522Y-71895909D01*
X170542082Y-71889169D01*
X170552019Y-71876691D01*
X170567199Y-71861151D01*
X170567542Y-71860827D01*
X170582605Y-71846126D01*
X170592489Y-71835523D01*
X170595159Y-71831211D01*
X170595064Y-71831200D01*
X170595195Y-71827261D01*
X170599041Y-71821744D01*
X170608415Y-71815725D01*
X170613500Y-71816376D01*
X170617234Y-71816492D01*
X170616181Y-71814102D01*
X170617559Y-71804923D01*
X170629568Y-71792032D01*
X170651018Y-71776355D01*
X170680717Y-71758821D01*
X170700210Y-71748684D01*
X170729206Y-71735000D01*
X170752219Y-71726533D01*
X170774102Y-71721870D01*
X170799703Y-71719599D01*
X170800222Y-71719571D01*
X170826488Y-71719062D01*
X170842333Y-71720715D01*
X170842333Y-71720715D01*
G37*
X170842333Y-71720715D02*
X170846750Y-71723744D01*
X170850647Y-71727425D01*
X170853100Y-71726424D01*
X170863546Y-71725765D01*
X170867387Y-71727459D01*
X170880911Y-71733049D01*
X170884338Y-71733779D01*
X170897554Y-71738214D01*
X170917769Y-71747636D01*
X170941353Y-71760082D01*
X170964678Y-71773589D01*
X170984113Y-71786193D01*
X170991521Y-71791774D01*
X171005648Y-71803487D01*
X171026079Y-71820565D01*
X171049425Y-71840173D01*
X171061382Y-71850250D01*
X171104490Y-71885837D01*
X171140075Y-71913226D01*
X171169575Y-71933215D01*
X171194428Y-71946605D01*
X171216072Y-71954195D01*
X171235946Y-71956785D01*
X171251241Y-71955836D01*
X171267990Y-71952005D01*
X171292931Y-71944420D01*
X171322537Y-71934223D01*
X171349851Y-71923914D01*
X171396783Y-71905930D01*
X171435219Y-71892676D01*
X171468162Y-71883488D01*
X171498615Y-71877703D01*
X171529581Y-71874656D01*
X171564062Y-71873685D01*
X171577000Y-71873709D01*
X171613419Y-71874887D01*
X171651987Y-71877632D01*
X171687001Y-71881476D01*
X171704000Y-71884127D01*
X171738385Y-71890112D01*
X171776968Y-71896346D01*
X171811484Y-71901495D01*
X171811950Y-71901560D01*
X171841523Y-71906623D01*
X171870494Y-71913140D01*
X171893336Y-71919839D01*
X171896322Y-71920948D01*
X171918181Y-71928003D01*
X171938587Y-71932246D01*
X171945739Y-71932800D01*
X171965758Y-71935449D01*
X171986537Y-71942166D01*
X172003604Y-71951104D01*
X172012455Y-71960336D01*
X172019525Y-71967440D01*
X172034959Y-71977792D01*
X172055598Y-71989304D01*
X172058403Y-71990729D01*
X172108778Y-72022753D01*
X172150657Y-72064071D01*
X172184375Y-72115029D01*
X172190361Y-72126804D01*
X172203395Y-72155513D01*
X172211273Y-72178964D01*
X172215490Y-72202717D01*
X172217294Y-72226858D01*
X172218047Y-72253939D01*
X172216460Y-72273735D01*
X172211552Y-72291586D01*
X172202341Y-72312835D01*
X172200951Y-72315758D01*
X172185010Y-72359524D01*
X172175951Y-72409128D01*
X172170816Y-72441662D01*
X172162630Y-72468993D01*
X172149671Y-72494690D01*
X172130220Y-72522322D01*
X172109013Y-72548006D01*
X172083932Y-72581124D01*
X172069774Y-72609682D01*
X172065950Y-72631557D01*
X172065950Y-72648914D01*
X172286612Y-72652243D01*
X172351621Y-72653318D01*
X172405676Y-72654538D01*
X172450522Y-72656111D01*
X172487906Y-72658245D01*
X172519573Y-72661147D01*
X172547268Y-72665027D01*
X172572737Y-72670091D01*
X172597727Y-72676549D01*
X172623982Y-72684607D01*
X172653248Y-72694475D01*
X172659675Y-72696704D01*
X172696415Y-72709904D01*
X172731697Y-72723338D01*
X172763246Y-72736068D01*
X172788793Y-72747160D01*
X172806065Y-72755677D01*
X172811757Y-72759370D01*
X172822912Y-72763982D01*
X172829220Y-72764650D01*
X172838819Y-72768049D01*
X172840650Y-72772058D01*
X172843126Y-72776406D01*
X172844695Y-72775420D01*
X172851918Y-72776087D01*
X172864697Y-72782838D01*
X172868067Y-72785136D01*
X172879120Y-72792076D01*
X172883292Y-72792719D01*
X172882741Y-72791371D01*
X172882305Y-72786437D01*
X172887908Y-72787613D01*
X172894630Y-72793552D01*
X172894258Y-72796992D01*
X172895784Y-72799999D01*
X172900484Y-72798884D01*
X172911838Y-72799580D01*
X172927557Y-72806028D01*
X172930976Y-72808019D01*
X172945094Y-72816269D01*
X172954034Y-72820616D01*
X172954950Y-72820817D01*
X172966216Y-72822514D01*
X172979904Y-72826635D01*
X172990472Y-72831294D01*
X172993050Y-72833803D01*
X172998517Y-72837433D01*
X173009492Y-72839440D01*
X173024884Y-72842178D01*
X173033304Y-72845409D01*
X173044619Y-72850523D01*
X173047025Y-72851112D01*
X173055836Y-72852748D01*
X173073784Y-72856151D01*
X173097532Y-72860690D01*
X173106463Y-72862403D01*
X173143934Y-72867708D01*
X173191429Y-72871056D01*
X173250055Y-72872518D01*
X173269976Y-72872600D01*
X173380400Y-72872600D01*
X173380400Y-73031350D01*
X172150538Y-73031349D01*
X171995385Y-73031367D01*
X171852516Y-73031423D01*
X171721518Y-73031519D01*
X171601976Y-73031657D01*
X171493474Y-73031841D01*
X171395598Y-73032073D01*
X171307932Y-73032354D01*
X171230062Y-73032689D01*
X171161574Y-73033079D01*
X171102052Y-73033527D01*
X171051081Y-73034035D01*
X171008246Y-73034606D01*
X170973134Y-73035243D01*
X170945328Y-73035948D01*
X170924414Y-73036723D01*
X170909977Y-73037571D01*
X170901602Y-73038495D01*
X170899588Y-73038975D01*
X170878500Y-73046601D01*
X170878500Y-73753350D01*
X170878456Y-73846939D01*
X170878330Y-73936900D01*
X170878125Y-74022426D01*
X170877850Y-74102713D01*
X170877507Y-74176955D01*
X170877105Y-74244345D01*
X170876647Y-74304078D01*
X170876140Y-74355348D01*
X170875589Y-74397349D01*
X170875001Y-74429275D01*
X170874379Y-74450320D01*
X170873731Y-74459680D01*
X170873561Y-74460100D01*
X170865885Y-74455897D01*
X170858534Y-74448987D01*
X170847202Y-74438184D01*
X170831052Y-74424599D01*
X170825440Y-74420194D01*
X170810241Y-74405488D01*
X170799845Y-74389917D01*
X170798146Y-74385269D01*
X170789066Y-74363645D01*
X170773044Y-74338974D01*
X170756830Y-74319817D01*
X170749792Y-74307733D01*
X170742683Y-74288061D01*
X170738532Y-74271755D01*
X170736315Y-74259819D01*
X170734709Y-74247072D01*
X170733737Y-74232036D01*
X170733422Y-74213233D01*
X170733786Y-74189184D01*
X170734852Y-74158412D01*
X170736643Y-74119438D01*
X170739182Y-74070783D01*
X170742492Y-74010970D01*
X170742589Y-74009250D01*
X170746696Y-73936225D01*
X170725285Y-73927312D01*
X170707491Y-73918374D01*
X170693444Y-73908812D01*
X170692829Y-73908262D01*
X170670820Y-73887292D01*
X170656838Y-73871691D01*
X170648929Y-73858978D01*
X170645410Y-73848066D01*
X170638847Y-73833498D01*
X170629886Y-73826688D01*
X170621704Y-73820946D01*
X170618406Y-73807370D01*
X170618150Y-73798959D01*
X170618150Y-73774300D01*
X170495383Y-73774300D01*
X170450520Y-73774501D01*
X170417082Y-73775159D01*
X170393800Y-73776356D01*
X170379403Y-73778173D01*
X170372623Y-73780691D01*
X170371693Y-73782237D01*
X170369312Y-73799592D01*
X170366718Y-73814253D01*
X170364731Y-73821698D01*
X170364488Y-73821925D01*
X170362532Y-73827302D01*
X170360351Y-73837467D01*
X170354485Y-73853858D01*
X170348575Y-73862867D01*
X170341129Y-73873010D01*
X170339331Y-73877554D01*
X170335685Y-73889764D01*
X170328062Y-73903108D01*
X170319369Y-73913437D01*
X170312515Y-73916602D01*
X170312098Y-73916401D01*
X170308006Y-73915947D01*
X170309300Y-73918934D01*
X170308070Y-73927285D01*
X170300796Y-73934772D01*
X170292337Y-73942681D01*
X170291412Y-73947096D01*
X170288746Y-73952635D01*
X170278566Y-73964076D01*
X170262999Y-73979056D01*
X170261209Y-73980673D01*
X170244840Y-73996027D01*
X170233214Y-74008154D01*
X170228659Y-74014613D01*
X170228672Y-74014822D01*
X170226103Y-74022528D01*
X170223180Y-74026654D01*
X170219049Y-74040507D01*
X170221048Y-74062402D01*
X170228519Y-74089647D01*
X170240803Y-74119550D01*
X170250418Y-74138017D01*
X170262053Y-74158885D01*
X170270768Y-74175158D01*
X170275049Y-74183990D01*
X170275250Y-74184709D01*
X170279128Y-74190862D01*
X170288435Y-74201603D01*
X170303504Y-74222523D01*
X170316302Y-74248808D01*
X170324421Y-74274877D01*
X170326050Y-74288755D01*
X170328985Y-74305992D01*
X170335575Y-74318132D01*
X170343540Y-74331649D01*
X170345100Y-74339903D01*
X170347651Y-74349976D01*
X170350993Y-74352150D01*
X170354577Y-74357921D01*
X170358720Y-74373043D01*
X170362742Y-74394228D01*
X170365961Y-74418187D01*
X170366998Y-74429408D01*
X170371175Y-74437420D01*
X170372087Y-74438404D01*
X170375585Y-74447716D01*
X170376850Y-74461158D01*
X170377862Y-74472460D01*
X170383253Y-74477660D01*
X170396550Y-74479114D01*
X170403837Y-74479173D01*
X170429767Y-74482937D01*
X170451615Y-74491873D01*
X170478673Y-74503255D01*
X170502257Y-74502759D01*
X170521544Y-74490593D01*
X170533953Y-74471212D01*
X170542611Y-74457093D01*
X170550154Y-74454043D01*
X170555733Y-74460434D01*
X170558501Y-74474637D01*
X170557611Y-74495025D01*
X170554640Y-74510939D01*
X170546996Y-74533105D01*
X170536431Y-74552688D01*
X170531870Y-74558523D01*
X170521517Y-74572164D01*
X170516611Y-74583488D01*
X170516550Y-74584392D01*
X170511396Y-74592844D01*
X170498382Y-74604183D01*
X170481181Y-74615972D01*
X170463463Y-74625775D01*
X170448901Y-74631158D01*
X170445456Y-74631550D01*
X170437799Y-74634257D01*
X170434489Y-74644430D01*
X170434000Y-74656489D01*
X170436495Y-74676413D01*
X170445732Y-74690295D01*
X170450731Y-74694589D01*
X170465465Y-74703763D01*
X170477945Y-74707745D01*
X170478248Y-74707750D01*
X170491051Y-74710419D01*
X170492245Y-74718203D01*
X170486005Y-74726614D01*
X170460518Y-74744472D01*
X170430057Y-74751412D01*
X170396771Y-74747030D01*
X170389742Y-74744678D01*
X170375938Y-74737591D01*
X170364358Y-74729975D01*
X170465750Y-74729975D01*
X170468925Y-74733150D01*
X170472100Y-74729975D01*
X170468925Y-74726800D01*
X170465750Y-74729975D01*
X170364358Y-74729975D01*
X170358917Y-74726397D01*
X170355311Y-74723717D01*
X170331055Y-74710943D01*
X170312433Y-74707750D01*
X170294973Y-74705558D01*
X170282432Y-74700241D01*
X170281938Y-74699812D01*
X170276093Y-74695135D01*
X170277927Y-74699858D01*
X170278259Y-74700446D01*
X170279925Y-74705748D01*
X170273394Y-74703739D01*
X170269488Y-74701714D01*
X170260364Y-74694237D01*
X170259303Y-74688815D01*
X170257586Y-74681311D01*
X170251004Y-74674846D01*
X170233476Y-74656798D01*
X170217329Y-74630356D01*
X170204861Y-74599795D01*
X170199772Y-74579499D01*
X170192712Y-74551994D01*
X170182089Y-74522735D01*
X170176081Y-74509649D01*
X170164914Y-74482190D01*
X170158302Y-74454673D01*
X170157473Y-74446370D01*
X170155748Y-74427178D01*
X170153057Y-74413095D01*
X170151769Y-74409858D01*
X170150372Y-74399077D01*
X170151425Y-74396600D01*
X170151034Y-74390743D01*
X170148824Y-74390250D01*
X170145184Y-74385544D01*
X170146306Y-74379806D01*
X170144942Y-74367547D01*
X170138874Y-74360999D01*
X170132382Y-74353283D01*
X170128642Y-74339963D01*
X170126953Y-74318006D01*
X170126730Y-74308567D01*
X170125865Y-74287196D01*
X170124251Y-74272299D01*
X170122224Y-74266871D01*
X170122055Y-74266935D01*
X170118695Y-74262976D01*
X170116122Y-74253725D01*
X170129200Y-74253725D01*
X170132375Y-74256900D01*
X170135550Y-74253725D01*
X170132375Y-74250550D01*
X170129200Y-74253725D01*
X170116122Y-74253725D01*
X170115121Y-74250128D01*
X170114128Y-74244616D01*
X170108845Y-74223801D01*
X170100354Y-74201863D01*
X170090713Y-74183450D01*
X170082703Y-74173696D01*
X170077613Y-74165486D01*
X170073349Y-74151669D01*
X170070821Y-74136997D01*
X170070940Y-74126225D01*
X170073093Y-74123550D01*
X170076232Y-74119606D01*
X170075160Y-74117096D01*
X170068457Y-74112856D01*
X170066691Y-74113412D01*
X170064030Y-74109808D01*
X170063019Y-74096735D01*
X170063592Y-74077305D01*
X170065678Y-74054633D01*
X170068393Y-74036237D01*
X170072649Y-74019797D01*
X170077733Y-74010235D01*
X170079637Y-74009250D01*
X170083295Y-74004565D01*
X170082233Y-73999151D01*
X170081269Y-73986309D01*
X170082974Y-73981689D01*
X170087755Y-73970424D01*
X170088202Y-73967975D01*
X170091092Y-73948102D01*
X170095417Y-73928829D01*
X170100129Y-73914055D01*
X170104179Y-73907680D01*
X170104412Y-73907650D01*
X170107259Y-73902985D01*
X170106213Y-73898429D01*
X170105886Y-73885356D01*
X170107608Y-73881225D01*
X170110395Y-73870341D01*
X170111590Y-73852375D01*
X170111488Y-73844408D01*
X170111355Y-73827982D01*
X170112881Y-73822898D01*
X170116484Y-73827859D01*
X170116690Y-73828275D01*
X170120546Y-73834494D01*
X170121498Y-73830223D01*
X170120506Y-73818750D01*
X170121432Y-73803368D01*
X170123032Y-73796707D01*
X170126025Y-73799700D01*
X170129200Y-73796525D01*
X170126025Y-73793350D01*
X170123146Y-73796229D01*
X170125937Y-73784607D01*
X170126223Y-73783825D01*
X170129200Y-73783825D01*
X170132375Y-73787000D01*
X170135550Y-73783825D01*
X170132375Y-73780650D01*
X170129200Y-73783825D01*
X170126223Y-73783825D01*
X170130878Y-73771125D01*
X170135550Y-73771125D01*
X170138725Y-73774300D01*
X170141900Y-73771125D01*
X170138725Y-73767950D01*
X170135550Y-73771125D01*
X170130878Y-73771125D01*
X170132552Y-73766561D01*
X170139807Y-73753322D01*
X170145578Y-73748900D01*
X170146079Y-73753086D01*
X170144468Y-73756231D01*
X170143724Y-73760597D01*
X170146991Y-73759202D01*
X170151299Y-73750409D01*
X170150437Y-73745440D01*
X170150515Y-73732504D01*
X170152691Y-73728181D01*
X170157541Y-73717341D01*
X170154895Y-73704352D01*
X170149389Y-73693337D01*
X170144901Y-73682807D01*
X170145629Y-73679050D01*
X170145912Y-73675181D01*
X170142732Y-73670528D01*
X170138958Y-73660754D01*
X170140367Y-73656810D01*
X170140505Y-73654588D01*
X170137137Y-73656181D01*
X170130162Y-73656787D01*
X170129200Y-73654245D01*
X170125309Y-73645947D01*
X170115460Y-73632400D01*
X170109492Y-73625295D01*
X170098811Y-73612261D01*
X170093645Y-73604163D01*
X170093864Y-73602850D01*
X170093066Y-73598930D01*
X170085481Y-73589473D01*
X170085216Y-73589188D01*
X170077142Y-73577826D01*
X170075819Y-73570138D01*
X170074222Y-73565211D01*
X170071366Y-73564750D01*
X170066530Y-73562482D01*
X170067411Y-73560921D01*
X170065808Y-73554613D01*
X170057007Y-73543838D01*
X170054182Y-73541079D01*
X170045704Y-73532328D01*
X170045084Y-73529765D01*
X170046897Y-73530620D01*
X170048875Y-73530523D01*
X170042543Y-73523839D01*
X170037372Y-73519142D01*
X170025019Y-73505550D01*
X170021071Y-73498075D01*
X170021250Y-73498075D01*
X170024425Y-73501250D01*
X170027600Y-73498075D01*
X170024425Y-73494900D01*
X170021250Y-73498075D01*
X170021071Y-73498075D01*
X170018412Y-73493041D01*
X170018066Y-73490567D01*
X170014407Y-73480495D01*
X170010129Y-73478231D01*
X170000378Y-73476373D01*
X169999025Y-73475850D01*
X169990543Y-73472945D01*
X169989500Y-73472675D01*
X169982008Y-73470096D01*
X169981562Y-73469807D01*
X169974844Y-73467739D01*
X169967648Y-73466222D01*
X169944457Y-73461235D01*
X169931829Y-73456505D01*
X169927692Y-73451019D01*
X169928398Y-73447009D01*
X169928394Y-73438996D01*
X169925800Y-73437750D01*
X169919884Y-73442637D01*
X169919650Y-73444474D01*
X169915732Y-73448207D01*
X169913097Y-73447150D01*
X169904070Y-73445123D01*
X169885768Y-73443267D01*
X169861614Y-73441899D01*
X169852997Y-73441610D01*
X169824348Y-73441427D01*
X169806513Y-73442953D01*
X169797690Y-73446405D01*
X169796249Y-73448459D01*
X169788052Y-73455250D01*
X169779774Y-73456800D01*
X169770695Y-73458975D01*
X169770013Y-73462484D01*
X169768269Y-73469169D01*
X169763708Y-73471936D01*
X169756947Y-73472253D01*
X169757866Y-73467839D01*
X169757202Y-73466907D01*
X169750618Y-73474346D01*
X169747987Y-73477648D01*
X169734679Y-73490172D01*
X169722264Y-73491552D01*
X169721957Y-73491457D01*
X169712484Y-73491096D01*
X169711527Y-73496008D01*
X169708008Y-73502657D01*
X169702230Y-73503554D01*
X169694460Y-73505114D01*
X169694351Y-73507805D01*
X169693058Y-73515812D01*
X169688235Y-73522207D01*
X169681956Y-73530860D01*
X169681866Y-73534399D01*
X169679806Y-73540093D01*
X169670947Y-73549443D01*
X169662652Y-73555713D01*
X169661254Y-73554494D01*
X169661487Y-73554076D01*
X169660980Y-73544861D01*
X169657816Y-73541945D01*
X169653069Y-73540373D01*
X169654190Y-73542218D01*
X169653434Y-73549593D01*
X169647695Y-73564154D01*
X169638808Y-73582369D01*
X169628609Y-73600709D01*
X169618931Y-73615644D01*
X169611999Y-73623390D01*
X169609376Y-73627627D01*
X169611440Y-73628152D01*
X169610498Y-73632089D01*
X169602018Y-73642271D01*
X169589128Y-73655237D01*
X169572314Y-73672236D01*
X169550957Y-73695289D01*
X169528533Y-73720601D01*
X169517917Y-73733025D01*
X169499024Y-73755440D01*
X169482361Y-73775178D01*
X169470160Y-73789596D01*
X169465617Y-73794937D01*
X169459518Y-73803452D01*
X169459421Y-73806050D01*
X169459137Y-73810334D01*
X169453322Y-73820681D01*
X169444498Y-73833336D01*
X169435185Y-73844541D01*
X169430787Y-73848710D01*
X169425176Y-73855003D01*
X169426369Y-73856648D01*
X169426579Y-73861221D01*
X169420511Y-73872271D01*
X169418432Y-73875292D01*
X169409626Y-73889349D01*
X169405371Y-73899459D01*
X169405300Y-73900239D01*
X169401224Y-73909572D01*
X169395431Y-73916611D01*
X169388576Y-73925389D01*
X169383474Y-73937925D01*
X169378568Y-73958275D01*
X169377595Y-73963028D01*
X169372854Y-73973736D01*
X169371617Y-73975199D01*
X169368094Y-73984477D01*
X169367200Y-73994058D01*
X169364990Y-74006874D01*
X169361569Y-74011980D01*
X169356610Y-74020092D01*
X169352230Y-74035047D01*
X169352010Y-74036167D01*
X169345910Y-74057430D01*
X169338020Y-74075925D01*
X169330227Y-74092859D01*
X169325554Y-74106950D01*
X169325540Y-74107017D01*
X169321007Y-74124941D01*
X169314636Y-74145060D01*
X169308145Y-74162335D01*
X169303700Y-74171175D01*
X169298924Y-74180908D01*
X169292775Y-74197389D01*
X169290960Y-74202925D01*
X169267994Y-74257758D01*
X169236243Y-74307212D01*
X169209102Y-74337519D01*
X169186571Y-74352025D01*
X169154692Y-74362454D01*
X169116427Y-74367864D01*
X169113200Y-74368050D01*
X169091015Y-74370078D01*
X169071074Y-74373300D01*
X169066887Y-74374297D01*
X169046643Y-74376116D01*
X169024939Y-74370339D01*
X169000478Y-74356201D01*
X168971966Y-74332933D01*
X168938108Y-74299769D01*
X168934256Y-74295751D01*
X168910668Y-74269964D01*
X168889114Y-74244477D01*
X168871849Y-74222084D01*
X168861131Y-74205579D01*
X168860542Y-74204433D01*
X168850362Y-74180151D01*
X168841860Y-74151091D01*
X168834890Y-74116024D01*
X168829302Y-74073721D01*
X168824948Y-74022954D01*
X168821681Y-73962492D01*
X168819351Y-73891107D01*
X168818602Y-73856850D01*
X168816692Y-73780627D01*
X168814111Y-73715406D01*
X168810885Y-73661665D01*
X168807040Y-73619882D01*
X168804776Y-73602850D01*
X168799211Y-73558538D01*
X168797941Y-73523495D01*
X168801152Y-73494973D01*
X168804207Y-73485375D01*
X169729150Y-73485375D01*
X169732325Y-73488550D01*
X169735500Y-73485375D01*
X169732325Y-73482200D01*
X169729150Y-73485375D01*
X168804207Y-73485375D01*
X168809032Y-73470221D01*
X168814591Y-73458755D01*
X168817165Y-73453625D01*
X169754550Y-73453625D01*
X169757725Y-73456800D01*
X169760900Y-73453625D01*
X169757725Y-73450450D01*
X169754550Y-73453625D01*
X168817165Y-73453625D01*
X168820351Y-73447275D01*
X169786300Y-73447275D01*
X169789475Y-73450450D01*
X169792650Y-73447275D01*
X169789475Y-73444100D01*
X169786300Y-73447275D01*
X168820351Y-73447275D01*
X168822532Y-73442931D01*
X168827053Y-73431973D01*
X168827450Y-73430080D01*
X168829932Y-73422189D01*
X168836352Y-73406630D01*
X168842974Y-73391886D01*
X168853417Y-73367283D01*
X168864860Y-73337041D01*
X168876180Y-73304530D01*
X168886256Y-73273125D01*
X168893966Y-73246197D01*
X168898189Y-73227121D01*
X168898466Y-73225024D01*
X168903635Y-73208365D01*
X168914170Y-73188777D01*
X168919366Y-73181346D01*
X168931104Y-73163094D01*
X168938811Y-73145766D01*
X168940135Y-73140072D01*
X168946302Y-73123427D01*
X168956222Y-73110581D01*
X168970439Y-73095302D01*
X168984828Y-73076205D01*
X168996904Y-73057049D01*
X169004183Y-73041596D01*
X169005250Y-73036335D01*
X169009760Y-73025633D01*
X169020810Y-73012826D01*
X169022712Y-73011133D01*
X169036653Y-72997586D01*
X169053626Y-72978969D01*
X169064088Y-72966514D01*
X169078790Y-72949909D01*
X169092033Y-72937662D01*
X169099013Y-72933293D01*
X169109250Y-72925924D01*
X169121292Y-72911954D01*
X169124685Y-72907017D01*
X169140845Y-72888954D01*
X169160730Y-72875459D01*
X169162731Y-72874569D01*
X169183634Y-72863758D01*
X169202891Y-72850662D01*
X169204120Y-72849648D01*
X169218365Y-72839592D01*
X169229910Y-72834615D01*
X169231162Y-72834499D01*
X169239296Y-72830978D01*
X169240200Y-72828270D01*
X169245654Y-72822520D01*
X169258535Y-72817307D01*
X169273620Y-72814288D01*
X169283533Y-72814519D01*
X169295373Y-72812320D01*
X169300445Y-72809165D01*
X169313427Y-72802311D01*
X169323787Y-72799306D01*
X169342249Y-72795309D01*
X169354500Y-72792259D01*
X169376495Y-72789033D01*
X169407430Y-72788048D01*
X169443759Y-72789229D01*
X169481934Y-72792502D01*
X169503725Y-72795361D01*
X169530813Y-72799438D01*
X169555676Y-72803179D01*
X169573510Y-72805862D01*
X169575294Y-72806130D01*
X169594873Y-72810441D01*
X169617545Y-72817244D01*
X169622919Y-72819144D01*
X169658450Y-72830357D01*
X169699502Y-72840422D01*
X169740696Y-72848203D01*
X169776653Y-72852565D01*
X169783117Y-72852944D01*
X169804850Y-72854864D01*
X169821858Y-72858109D01*
X169828965Y-72861054D01*
X169838613Y-72864181D01*
X169857397Y-72866802D01*
X169881755Y-72868465D01*
X169889321Y-72868703D01*
X169914836Y-72869911D01*
X169936011Y-72872046D01*
X169949180Y-72874704D01*
X169950932Y-72875486D01*
X169961510Y-72878431D01*
X169980693Y-72880855D01*
X170004388Y-72882247D01*
X170005088Y-72882266D01*
X170031684Y-72884084D01*
X170056602Y-72887637D01*
X170073090Y-72891742D01*
X170093528Y-72895247D01*
X170122690Y-72895198D01*
X170157227Y-72891981D01*
X170193788Y-72885980D01*
X170229023Y-72877581D01*
X170247777Y-72871676D01*
X170267063Y-72865483D01*
X170280996Y-72862104D01*
X170285869Y-72862052D01*
X170292401Y-72860698D01*
X170307165Y-72854715D01*
X170327240Y-72845543D01*
X170349702Y-72834625D01*
X170371630Y-72823404D01*
X170390102Y-72813321D01*
X170402195Y-72805818D01*
X170405158Y-72803181D01*
X170412647Y-72797020D01*
X170427554Y-72788070D01*
X170437381Y-72782916D01*
X170456435Y-72772146D01*
X170471874Y-72761260D01*
X170476322Y-72757143D01*
X170478822Y-72755125D01*
X170484800Y-72755125D01*
X170487975Y-72758300D01*
X170491150Y-72755125D01*
X170487975Y-72751950D01*
X170484800Y-72755125D01*
X170478822Y-72755125D01*
X170487463Y-72748150D01*
X170494780Y-72745600D01*
X170503725Y-72742270D01*
X170504908Y-72740580D01*
X170511478Y-72736046D01*
X170526359Y-72728987D01*
X170545814Y-72720896D01*
X170566106Y-72713267D01*
X170583497Y-72707593D01*
X170592750Y-72705473D01*
X170603255Y-72702293D01*
X170605450Y-72700661D01*
X170615140Y-72695343D01*
X170616996Y-72694716D01*
X171254285Y-72694716D01*
X171259153Y-72701620D01*
X171266784Y-72704213D01*
X171325840Y-72715477D01*
X171381439Y-72719504D01*
X171424004Y-72720200D01*
X171422862Y-72687095D01*
X171680134Y-72687095D01*
X171682098Y-72693389D01*
X171693962Y-72694405D01*
X171716518Y-72690680D01*
X171743687Y-72684433D01*
X171764947Y-72678546D01*
X171780283Y-72672911D01*
X171786532Y-72668701D01*
X171786550Y-72668541D01*
X171781403Y-72658222D01*
X171768794Y-72646489D01*
X171752974Y-72636845D01*
X171744190Y-72633635D01*
X171732954Y-72632463D01*
X171722773Y-72636739D01*
X171710125Y-72648406D01*
X171702753Y-72656515D01*
X171687283Y-72674983D01*
X171680134Y-72687095D01*
X171422862Y-72687095D01*
X171422744Y-72683687D01*
X171422946Y-72657034D01*
X171424870Y-72630172D01*
X171426446Y-72618600D01*
X171431408Y-72590025D01*
X171379365Y-72565573D01*
X171339799Y-72547663D01*
X171307185Y-72534297D01*
X171282937Y-72526015D01*
X171268985Y-72523350D01*
X171265128Y-72527222D01*
X171262470Y-72539770D01*
X171260830Y-72562384D01*
X171260085Y-72591612D01*
X171259356Y-72622104D01*
X171258133Y-72649898D01*
X171256609Y-72671263D01*
X171255498Y-72680227D01*
X171254285Y-72694716D01*
X170616996Y-72694716D01*
X170634890Y-72688674D01*
X170638167Y-72687791D01*
X171045410Y-72687791D01*
X171068317Y-72690228D01*
X171100260Y-72693054D01*
X171120786Y-72693434D01*
X171130944Y-72691346D01*
X171132500Y-72688944D01*
X171128085Y-72682525D01*
X171116953Y-72671006D01*
X171102274Y-72657261D01*
X171087216Y-72644161D01*
X171074950Y-72634581D01*
X171068949Y-72631340D01*
X171065117Y-72636717D01*
X171059022Y-72650423D01*
X171055567Y-72659545D01*
X171045410Y-72687791D01*
X170638167Y-72687791D01*
X170662220Y-72681311D01*
X170694649Y-72673913D01*
X170729698Y-72667138D01*
X170735625Y-72666115D01*
X170779937Y-72660059D01*
X170818328Y-72658373D01*
X170849925Y-72660071D01*
X170882936Y-72663204D01*
X170905583Y-72664830D01*
X170920180Y-72664150D01*
X170929044Y-72660364D01*
X170934488Y-72652675D01*
X170938830Y-72640284D01*
X170942534Y-72628125D01*
X170948992Y-72605005D01*
X170953379Y-72584380D01*
X170954606Y-72573422D01*
X170959618Y-72556765D01*
X170972333Y-72537785D01*
X170989510Y-72520601D01*
X171003495Y-72511307D01*
X171019839Y-72505735D01*
X171035049Y-72504623D01*
X171044180Y-72508240D01*
X171044658Y-72509062D01*
X171051493Y-72514899D01*
X171064993Y-72522180D01*
X171080585Y-72528904D01*
X171093692Y-72533068D01*
X171099508Y-72533058D01*
X171100167Y-72525487D01*
X171098444Y-72509134D01*
X171094920Y-72488650D01*
X171090391Y-72456784D01*
X171090883Y-72426845D01*
X171093824Y-72404601D01*
X171097904Y-72374874D01*
X171101102Y-72343190D01*
X171102388Y-72323325D01*
X171103925Y-72285225D01*
X171063427Y-72265292D01*
X171046950Y-72257605D01*
X171031325Y-72251658D01*
X171014259Y-72247031D01*
X170993458Y-72243303D01*
X170966629Y-72240055D01*
X170931479Y-72236867D01*
X170890833Y-72233702D01*
X170836491Y-72229627D01*
X170795583Y-72254489D01*
X170772133Y-72269137D01*
X170752309Y-72282732D01*
X170732951Y-72297726D01*
X170710902Y-72316569D01*
X170683002Y-72341713D01*
X170681874Y-72342743D01*
X170641138Y-72378229D01*
X170606218Y-72404565D01*
X170575372Y-72422806D01*
X170546856Y-72434006D01*
X170523139Y-72438780D01*
X170496652Y-72439305D01*
X170480191Y-72432982D01*
X170472764Y-72419279D01*
X170472100Y-72411326D01*
X170470028Y-72400318D01*
X170461454Y-72398723D01*
X170457812Y-72399467D01*
X170445823Y-72400703D01*
X170436083Y-72396666D01*
X170426624Y-72385448D01*
X170415478Y-72365139D01*
X170409367Y-72352481D01*
X170407860Y-72348725D01*
X170656250Y-72348725D01*
X170659425Y-72351900D01*
X170662600Y-72348725D01*
X170659425Y-72345550D01*
X170656250Y-72348725D01*
X170407860Y-72348725D01*
X170397442Y-72322766D01*
X170393359Y-72298316D01*
X170396688Y-72274760D01*
X170400598Y-72263000D01*
X170404301Y-72250633D01*
X170404937Y-72247125D01*
X170407753Y-72228465D01*
X170412266Y-72204370D01*
X170417785Y-72177911D01*
X170423618Y-72152158D01*
X170429076Y-72130181D01*
X170433466Y-72115053D01*
X170435815Y-72109890D01*
X170440476Y-72103022D01*
X170440392Y-72101899D01*
X170440210Y-72092004D01*
X170441539Y-72072974D01*
X170444003Y-72048233D01*
X170447228Y-72021202D01*
X170450839Y-71995308D01*
X170454303Y-71974792D01*
X170460125Y-71951254D01*
X170466856Y-71938342D01*
X170473152Y-71934364D01*
X170482859Y-71929835D01*
X170484800Y-71926885D01*
X170489964Y-71921564D01*
X170502435Y-71913953D01*
X170517678Y-71906355D01*
X170531156Y-71901070D01*
X170537659Y-71900063D01*
X170540313Y-71897549D01*
X170539522Y-71895909D01*
X170542082Y-71889169D01*
X170552019Y-71876691D01*
X170567199Y-71861151D01*
X170567542Y-71860827D01*
X170582605Y-71846126D01*
X170592489Y-71835523D01*
X170595159Y-71831211D01*
X170595064Y-71831200D01*
X170595195Y-71827261D01*
X170599041Y-71821744D01*
X170608415Y-71815725D01*
X170613500Y-71816376D01*
X170617234Y-71816492D01*
X170616181Y-71814102D01*
X170617559Y-71804923D01*
X170629568Y-71792032D01*
X170651018Y-71776355D01*
X170680717Y-71758821D01*
X170700210Y-71748684D01*
X170729206Y-71735000D01*
X170752219Y-71726533D01*
X170774102Y-71721870D01*
X170799703Y-71719599D01*
X170800222Y-71719571D01*
X170826488Y-71719062D01*
X170842333Y-71720715D01*
G36*
X172321493Y-73113207D02*
X172332650Y-73114797D01*
X172358326Y-73117928D01*
X172392135Y-73120588D01*
X172429508Y-73122479D01*
X172462825Y-73123281D01*
X172506416Y-73124393D01*
X172539180Y-73126964D01*
X172562922Y-73131172D01*
X172572451Y-73134121D01*
X172595334Y-73144703D01*
X172621879Y-73159996D01*
X172648205Y-73177444D01*
X172670435Y-73194490D01*
X172683916Y-73207596D01*
X172695887Y-73221582D01*
X172704612Y-73230955D01*
X172712250Y-73243255D01*
X172713650Y-73249971D01*
X172716587Y-73258714D01*
X172719305Y-73259950D01*
X172724918Y-73265871D01*
X172729580Y-73281972D01*
X172733156Y-73305761D01*
X172735511Y-73334743D01*
X172736508Y-73366425D01*
X172736014Y-73398314D01*
X172733892Y-73427916D01*
X172730008Y-73452737D01*
X172729807Y-73453625D01*
X172724261Y-73478276D01*
X172719571Y-73499997D01*
X172716778Y-73513950D01*
X172714182Y-73528515D01*
X172710273Y-73550427D01*
X172706584Y-73571100D01*
X172694784Y-73611799D01*
X172673979Y-73646816D01*
X172651668Y-73671216D01*
X172639758Y-73680051D01*
X172631108Y-73682172D01*
X172630661Y-73681953D01*
X172625603Y-73683664D01*
X172624750Y-73688293D01*
X172630634Y-73700475D01*
X172648435Y-73711392D01*
X172678377Y-73721131D01*
X172720685Y-73729780D01*
X172737369Y-73732405D01*
X172793673Y-73743010D01*
X172840394Y-73757328D01*
X172880420Y-73776681D01*
X172916641Y-73802394D01*
X172942947Y-73826547D01*
X172963113Y-73848122D01*
X172981102Y-73869821D01*
X172993829Y-73887848D01*
X172996225Y-73892099D01*
X173006826Y-73911251D01*
X173021037Y-73934861D01*
X173032004Y-73952027D01*
X173047484Y-73976793D01*
X173062807Y-74003355D01*
X173071092Y-74018968D01*
X173083053Y-74038590D01*
X173096304Y-74054156D01*
X173103573Y-74059727D01*
X173119700Y-74075086D01*
X173129165Y-74098441D01*
X173131402Y-74126648D01*
X173125847Y-74156560D01*
X173122571Y-74165409D01*
X173115693Y-74192432D01*
X173115853Y-74212222D01*
X173124301Y-74266972D01*
X173131215Y-74311047D01*
X173137029Y-74346320D01*
X173142176Y-74374664D01*
X173147090Y-74397951D01*
X173152204Y-74418055D01*
X173157952Y-74436846D01*
X173164766Y-74456199D01*
X173173080Y-74477984D01*
X173183329Y-74504076D01*
X173183515Y-74504550D01*
X173195653Y-74536537D01*
X173202997Y-74559314D01*
X173206048Y-74575213D01*
X173205310Y-74586566D01*
X173202649Y-74593357D01*
X173192519Y-74603564D01*
X173184104Y-74606150D01*
X173170279Y-74610752D01*
X173164500Y-74615675D01*
X173151778Y-74623754D01*
X173143846Y-74625200D01*
X173138078Y-74626117D01*
X173134695Y-74630119D01*
X173133737Y-74639078D01*
X173135246Y-74654867D01*
X173139260Y-74679359D01*
X173145758Y-74714100D01*
X173150338Y-74739397D01*
X173154432Y-74764278D01*
X173155926Y-74774425D01*
X173166269Y-74803513D01*
X173180340Y-74822050D01*
X173195025Y-74840899D01*
X173209807Y-74864935D01*
X173217099Y-74879419D01*
X173227225Y-74899721D01*
X173237034Y-74915853D01*
X173242754Y-74922720D01*
X173253877Y-74939588D01*
X173256987Y-74962676D01*
X173251594Y-74987972D01*
X173250909Y-74989667D01*
X173242830Y-75004996D01*
X173233064Y-75011442D01*
X173221180Y-75012550D01*
X173207660Y-75013443D01*
X173203317Y-75018706D01*
X173205185Y-75032214D01*
X173205390Y-75033187D01*
X173209840Y-75055386D01*
X173213365Y-75074462D01*
X173216961Y-75095100D01*
X172040550Y-75095100D01*
X172040550Y-73847117D01*
X172077062Y-73825468D01*
X172096074Y-73813948D01*
X172110383Y-73804814D01*
X172116750Y-73800162D01*
X172126061Y-73793587D01*
X172141224Y-73785835D01*
X172156090Y-73779883D01*
X172161471Y-73778515D01*
X172174263Y-73774616D01*
X172177123Y-73773110D01*
X172187169Y-73769398D01*
X172203853Y-73765324D01*
X172207792Y-73764549D01*
X172224277Y-73759466D01*
X172234556Y-73752605D01*
X172235529Y-73750964D01*
X172234186Y-73741925D01*
X172227875Y-73724403D01*
X172217667Y-73701090D01*
X172207142Y-73679548D01*
X172188693Y-73641303D01*
X172176756Y-73610332D01*
X172170661Y-73583431D01*
X172169737Y-73557401D01*
X172173312Y-73529040D01*
X172174405Y-73523327D01*
X172178498Y-73500118D01*
X172179224Y-73484321D01*
X172176272Y-73471022D01*
X172170260Y-73457217D01*
X172161004Y-73441335D01*
X172152179Y-73431400D01*
X172149488Y-73430021D01*
X172142213Y-73423809D01*
X172131887Y-73409467D01*
X172122502Y-73393300D01*
X172113109Y-73376810D01*
X172106464Y-73367610D01*
X172104051Y-73367582D01*
X172101539Y-73372918D01*
X172098181Y-73370757D01*
X172095595Y-73362301D01*
X172093073Y-73344289D01*
X172090795Y-73319865D01*
X172088944Y-73292172D01*
X172087698Y-73264354D01*
X172087239Y-73239554D01*
X172087748Y-73220917D01*
X172089076Y-73212264D01*
X172095021Y-73205868D01*
X172098292Y-73206341D01*
X172101271Y-73204787D01*
X172100122Y-73199954D01*
X172100394Y-73191603D01*
X172103745Y-73190100D01*
X172108526Y-73186758D01*
X172107819Y-73184711D01*
X172109248Y-73176738D01*
X172116969Y-73165927D01*
X172126088Y-73153915D01*
X172129450Y-73145558D01*
X172135341Y-73137544D01*
X172151284Y-73129254D01*
X172174680Y-73121538D01*
X172202929Y-73115251D01*
X172233434Y-73111245D01*
X172234225Y-73111180D01*
X172277719Y-73110114D01*
X172321493Y-73113207D01*
X172321493Y-73113207D01*
G37*
X172321493Y-73113207D02*
X172332650Y-73114797D01*
X172358326Y-73117928D01*
X172392135Y-73120588D01*
X172429508Y-73122479D01*
X172462825Y-73123281D01*
X172506416Y-73124393D01*
X172539180Y-73126964D01*
X172562922Y-73131172D01*
X172572451Y-73134121D01*
X172595334Y-73144703D01*
X172621879Y-73159996D01*
X172648205Y-73177444D01*
X172670435Y-73194490D01*
X172683916Y-73207596D01*
X172695887Y-73221582D01*
X172704612Y-73230955D01*
X172712250Y-73243255D01*
X172713650Y-73249971D01*
X172716587Y-73258714D01*
X172719305Y-73259950D01*
X172724918Y-73265871D01*
X172729580Y-73281972D01*
X172733156Y-73305761D01*
X172735511Y-73334743D01*
X172736508Y-73366425D01*
X172736014Y-73398314D01*
X172733892Y-73427916D01*
X172730008Y-73452737D01*
X172729807Y-73453625D01*
X172724261Y-73478276D01*
X172719571Y-73499997D01*
X172716778Y-73513950D01*
X172714182Y-73528515D01*
X172710273Y-73550427D01*
X172706584Y-73571100D01*
X172694784Y-73611799D01*
X172673979Y-73646816D01*
X172651668Y-73671216D01*
X172639758Y-73680051D01*
X172631108Y-73682172D01*
X172630661Y-73681953D01*
X172625603Y-73683664D01*
X172624750Y-73688293D01*
X172630634Y-73700475D01*
X172648435Y-73711392D01*
X172678377Y-73721131D01*
X172720685Y-73729780D01*
X172737369Y-73732405D01*
X172793673Y-73743010D01*
X172840394Y-73757328D01*
X172880420Y-73776681D01*
X172916641Y-73802394D01*
X172942947Y-73826547D01*
X172963113Y-73848122D01*
X172981102Y-73869821D01*
X172993829Y-73887848D01*
X172996225Y-73892099D01*
X173006826Y-73911251D01*
X173021037Y-73934861D01*
X173032004Y-73952027D01*
X173047484Y-73976793D01*
X173062807Y-74003355D01*
X173071092Y-74018968D01*
X173083053Y-74038590D01*
X173096304Y-74054156D01*
X173103573Y-74059727D01*
X173119700Y-74075086D01*
X173129165Y-74098441D01*
X173131402Y-74126648D01*
X173125847Y-74156560D01*
X173122571Y-74165409D01*
X173115693Y-74192432D01*
X173115853Y-74212222D01*
X173124301Y-74266972D01*
X173131215Y-74311047D01*
X173137029Y-74346320D01*
X173142176Y-74374664D01*
X173147090Y-74397951D01*
X173152204Y-74418055D01*
X173157952Y-74436846D01*
X173164766Y-74456199D01*
X173173080Y-74477984D01*
X173183329Y-74504076D01*
X173183515Y-74504550D01*
X173195653Y-74536537D01*
X173202997Y-74559314D01*
X173206048Y-74575213D01*
X173205310Y-74586566D01*
X173202649Y-74593357D01*
X173192519Y-74603564D01*
X173184104Y-74606150D01*
X173170279Y-74610752D01*
X173164500Y-74615675D01*
X173151778Y-74623754D01*
X173143846Y-74625200D01*
X173138078Y-74626117D01*
X173134695Y-74630119D01*
X173133737Y-74639078D01*
X173135246Y-74654867D01*
X173139260Y-74679359D01*
X173145758Y-74714100D01*
X173150338Y-74739397D01*
X173154432Y-74764278D01*
X173155926Y-74774425D01*
X173166269Y-74803513D01*
X173180340Y-74822050D01*
X173195025Y-74840899D01*
X173209807Y-74864935D01*
X173217099Y-74879419D01*
X173227225Y-74899721D01*
X173237034Y-74915853D01*
X173242754Y-74922720D01*
X173253877Y-74939588D01*
X173256987Y-74962676D01*
X173251594Y-74987972D01*
X173250909Y-74989667D01*
X173242830Y-75004996D01*
X173233064Y-75011442D01*
X173221180Y-75012550D01*
X173207660Y-75013443D01*
X173203317Y-75018706D01*
X173205185Y-75032214D01*
X173205390Y-75033187D01*
X173209840Y-75055386D01*
X173213365Y-75074462D01*
X173216961Y-75095100D01*
X172040550Y-75095100D01*
X172040550Y-73847117D01*
X172077062Y-73825468D01*
X172096074Y-73813948D01*
X172110383Y-73804814D01*
X172116750Y-73800162D01*
X172126061Y-73793587D01*
X172141224Y-73785835D01*
X172156090Y-73779883D01*
X172161471Y-73778515D01*
X172174263Y-73774616D01*
X172177123Y-73773110D01*
X172187169Y-73769398D01*
X172203853Y-73765324D01*
X172207792Y-73764549D01*
X172224277Y-73759466D01*
X172234556Y-73752605D01*
X172235529Y-73750964D01*
X172234186Y-73741925D01*
X172227875Y-73724403D01*
X172217667Y-73701090D01*
X172207142Y-73679548D01*
X172188693Y-73641303D01*
X172176756Y-73610332D01*
X172170661Y-73583431D01*
X172169737Y-73557401D01*
X172173312Y-73529040D01*
X172174405Y-73523327D01*
X172178498Y-73500118D01*
X172179224Y-73484321D01*
X172176272Y-73471022D01*
X172170260Y-73457217D01*
X172161004Y-73441335D01*
X172152179Y-73431400D01*
X172149488Y-73430021D01*
X172142213Y-73423809D01*
X172131887Y-73409467D01*
X172122502Y-73393300D01*
X172113109Y-73376810D01*
X172106464Y-73367610D01*
X172104051Y-73367582D01*
X172101539Y-73372918D01*
X172098181Y-73370757D01*
X172095595Y-73362301D01*
X172093073Y-73344289D01*
X172090795Y-73319865D01*
X172088944Y-73292172D01*
X172087698Y-73264354D01*
X172087239Y-73239554D01*
X172087748Y-73220917D01*
X172089076Y-73212264D01*
X172095021Y-73205868D01*
X172098292Y-73206341D01*
X172101271Y-73204787D01*
X172100122Y-73199954D01*
X172100394Y-73191603D01*
X172103745Y-73190100D01*
X172108526Y-73186758D01*
X172107819Y-73184711D01*
X172109248Y-73176738D01*
X172116969Y-73165927D01*
X172126088Y-73153915D01*
X172129450Y-73145558D01*
X172135341Y-73137544D01*
X172151284Y-73129254D01*
X172174680Y-73121538D01*
X172202929Y-73115251D01*
X172233434Y-73111245D01*
X172234225Y-73111180D01*
X172277719Y-73110114D01*
X172321493Y-73113207D01*
D13*
G04 #@! TO.C,Q1*
X123355100Y-71212300D02*
X122989340Y-71212300D01*
X123355100Y-73419203D02*
X123355100Y-71212300D01*
X118056660Y-71212300D02*
X117690900Y-71212300D01*
X117690900Y-71212300D02*
X117690900Y-73419203D01*
D14*
G04 #@! TO.C,C6*
X124930000Y-78872400D02*
X123930000Y-78872400D01*
X124430000Y-78372400D02*
X124430000Y-79372400D01*
X118624437Y-79612400D02*
X117560000Y-80676837D01*
X125215563Y-79612400D02*
X126280000Y-80676837D01*
X125215563Y-79612400D02*
X123430000Y-79612400D01*
X118624437Y-79612400D02*
X120410000Y-79612400D01*
X117560000Y-80676837D02*
X117560000Y-88332400D01*
X126280000Y-80676837D02*
X126280000Y-88332400D01*
X126280000Y-88332400D02*
X123430000Y-88332400D01*
X117560000Y-88332400D02*
X120410000Y-88332400D01*
G04 #@! TO.C,C7*
X125685733Y-77980000D02*
X126028267Y-77980000D01*
X125685733Y-76960000D02*
X126028267Y-76960000D01*
G04 #@! TO.C,R11*
X144524000Y-81757733D02*
X144524000Y-82100267D01*
X145544000Y-81757733D02*
X145544000Y-82100267D01*
G04 #@! TO.C,U2*
X138116000Y-79586000D02*
X138216000Y-79586000D01*
X138216000Y-79586000D02*
X138216000Y-80136000D01*
X138116000Y-90086000D02*
X138216000Y-90086000D01*
X138216000Y-90086000D02*
X138216000Y-89536000D01*
X138216000Y-90086000D02*
X130516000Y-90086000D01*
X130516000Y-90086000D02*
X130516000Y-89536000D01*
X138216000Y-79586000D02*
X130516000Y-79586000D01*
X130616000Y-79586000D02*
X130516000Y-79586000D01*
X130516000Y-79586000D02*
X130516000Y-80136000D01*
X130516000Y-80136000D02*
X128816000Y-80136000D01*
G04 #@! TO.C,R6*
X150497000Y-82100267D02*
X150497000Y-81757733D01*
X149477000Y-82100267D02*
X149477000Y-81757733D01*
G04 #@! TO.C,R18*
X146175000Y-81743733D02*
X146175000Y-82086267D01*
X147195000Y-81743733D02*
X147195000Y-82086267D01*
G04 #@! TO.C,R19*
X148846000Y-81757733D02*
X148846000Y-82100267D01*
X147826000Y-81757733D02*
X147826000Y-82100267D01*
G04 #@! TO.C,*
X138521000Y-74355000D02*
X169582000Y-74355000D01*
X138521000Y-69055000D02*
X169582000Y-69055000D01*
X138521000Y-68595000D02*
X169582000Y-68595000D01*
X138521000Y-74915000D02*
X169582000Y-74915000D01*
X138521000Y-68595000D02*
X138521000Y-74915000D01*
X169582000Y-68595000D02*
X169582000Y-74915000D01*
X138281000Y-74415000D02*
X138281000Y-75155000D01*
X138281000Y-75155000D02*
X138781000Y-75155000D01*
G04 #@! TO.C,HBT*
X150722000Y-86990000D02*
X150722000Y-84530000D01*
X149252000Y-86990000D02*
X150722000Y-86990000D01*
X149252000Y-84530000D02*
X149252000Y-86990000D01*
G04 #@! TO.C,UVL*
X144299000Y-84530000D02*
X144299000Y-86990000D01*
X144299000Y-86990000D02*
X145769000Y-86990000D01*
X145769000Y-86990000D02*
X145769000Y-84530000D01*
G04 #@! TO.C,12C*
X145950000Y-84530000D02*
X145950000Y-86990000D01*
X145950000Y-86990000D02*
X147420000Y-86990000D01*
X147420000Y-86990000D02*
X147420000Y-84530000D01*
G04 #@! TO.C,3V3*
X149071000Y-86990000D02*
X149071000Y-84530000D01*
X147601000Y-86990000D02*
X149071000Y-86990000D01*
X147601000Y-84530000D02*
X147601000Y-86990000D01*
G04 #@! TO.C,*
X130271000Y-68905000D02*
X124491000Y-68905000D01*
X130271000Y-74005000D02*
X124491000Y-74005000D01*
X130271000Y-75125000D02*
X124491000Y-75125000D01*
X130271000Y-68385000D02*
X124491000Y-68385000D01*
X130271000Y-75125000D02*
X130271000Y-68385000D01*
X124491000Y-75125000D02*
X124491000Y-68385000D01*
X130511000Y-68785000D02*
X130511000Y-68145000D01*
X130511000Y-68145000D02*
X130111000Y-68145000D01*
X137496000Y-68145000D02*
X137096000Y-68145000D01*
X137496000Y-68785000D02*
X137496000Y-68145000D01*
X131476000Y-75125000D02*
X131476000Y-68385000D01*
X137256000Y-75125000D02*
X137256000Y-68385000D01*
X137256000Y-68385000D02*
X131476000Y-68385000D01*
X137256000Y-75125000D02*
X131476000Y-75125000D01*
X137256000Y-74005000D02*
X131476000Y-74005000D01*
X137256000Y-68905000D02*
X131476000Y-68905000D01*
X159833000Y-76142114D02*
X165033000Y-76142114D01*
X159833000Y-83882114D02*
X165033000Y-83882114D01*
X158393000Y-76712114D02*
X159833000Y-76712114D01*
X159833000Y-76142114D02*
X159833000Y-76712114D01*
X165033000Y-76142114D02*
X165033000Y-76712114D01*
X159833000Y-83312114D02*
X159833000Y-83882114D01*
X165033000Y-83312114D02*
X165033000Y-83882114D01*
X159833000Y-78232114D02*
X159833000Y-79252114D01*
X165033000Y-78232114D02*
X165033000Y-79252114D01*
X159833000Y-80772114D02*
X159833000Y-81792114D01*
X165033000Y-80772114D02*
X165033000Y-81792114D01*
X175655000Y-78796200D02*
X176105000Y-78346200D01*
X175655000Y-75396200D02*
X176105000Y-75846200D01*
X171055000Y-75396200D02*
X170605000Y-75846200D01*
X171055000Y-78796200D02*
X170605000Y-78346200D01*
X172355000Y-74346200D02*
X174355000Y-74346200D01*
X176105000Y-78346200D02*
X176105000Y-75846200D01*
X172355000Y-79846200D02*
X174355000Y-79846200D01*
X170605000Y-78346200D02*
X170605000Y-75846200D01*
G04 #@! TO.C,Q1*
D10*
X117252761Y-70905619D02*
X117157523Y-70858000D01*
X117062285Y-70762761D01*
X116919428Y-70619904D01*
X116824190Y-70572285D01*
X116728952Y-70572285D01*
X116776571Y-70810380D02*
X116681333Y-70762761D01*
X116586095Y-70667523D01*
X116538476Y-70477047D01*
X116538476Y-70143714D01*
X116586095Y-69953238D01*
X116681333Y-69858000D01*
X116776571Y-69810380D01*
X116967047Y-69810380D01*
X117062285Y-69858000D01*
X117157523Y-69953238D01*
X117205142Y-70143714D01*
X117205142Y-70477047D01*
X117157523Y-70667523D01*
X117062285Y-70762761D01*
X116967047Y-70810380D01*
X116776571Y-70810380D01*
X118157523Y-70810380D02*
X117586095Y-70810380D01*
X117871809Y-70810380D02*
X117871809Y-69810380D01*
X117776571Y-69953238D01*
X117681333Y-70048476D01*
X117586095Y-70096095D01*
G04 #@! TO.C,C6*
X124928333Y-89790542D02*
X124880714Y-89838161D01*
X124737857Y-89885780D01*
X124642619Y-89885780D01*
X124499761Y-89838161D01*
X124404523Y-89742923D01*
X124356904Y-89647685D01*
X124309285Y-89457209D01*
X124309285Y-89314352D01*
X124356904Y-89123876D01*
X124404523Y-89028638D01*
X124499761Y-88933400D01*
X124642619Y-88885780D01*
X124737857Y-88885780D01*
X124880714Y-88933400D01*
X124928333Y-88981019D01*
X125785476Y-88885780D02*
X125595000Y-88885780D01*
X125499761Y-88933400D01*
X125452142Y-88981019D01*
X125356904Y-89123876D01*
X125309285Y-89314352D01*
X125309285Y-89695304D01*
X125356904Y-89790542D01*
X125404523Y-89838161D01*
X125499761Y-89885780D01*
X125690238Y-89885780D01*
X125785476Y-89838161D01*
X125833095Y-89790542D01*
X125880714Y-89695304D01*
X125880714Y-89457209D01*
X125833095Y-89361971D01*
X125785476Y-89314352D01*
X125690238Y-89266733D01*
X125499761Y-89266733D01*
X125404523Y-89314352D01*
X125356904Y-89361971D01*
X125309285Y-89457209D01*
G04 #@! TO.C,C7*
X128293833Y-77827142D02*
X128246214Y-77874761D01*
X128103357Y-77922380D01*
X128008119Y-77922380D01*
X127865261Y-77874761D01*
X127770023Y-77779523D01*
X127722404Y-77684285D01*
X127674785Y-77493809D01*
X127674785Y-77350952D01*
X127722404Y-77160476D01*
X127770023Y-77065238D01*
X127865261Y-76970000D01*
X128008119Y-76922380D01*
X128103357Y-76922380D01*
X128246214Y-76970000D01*
X128293833Y-77017619D01*
X128627166Y-76922380D02*
X129293833Y-76922380D01*
X128865261Y-77922380D01*
G04 #@! TO.C,R11*
X145587980Y-79320657D02*
X145111790Y-79653990D01*
X145587980Y-79892085D02*
X144587980Y-79892085D01*
X144587980Y-79511133D01*
X144635600Y-79415895D01*
X144683219Y-79368276D01*
X144778457Y-79320657D01*
X144921314Y-79320657D01*
X145016552Y-79368276D01*
X145064171Y-79415895D01*
X145111790Y-79511133D01*
X145111790Y-79892085D01*
X145587980Y-78368276D02*
X145587980Y-78939704D01*
X145587980Y-78653990D02*
X144587980Y-78653990D01*
X144730838Y-78749228D01*
X144826076Y-78844466D01*
X144873695Y-78939704D01*
X145587980Y-77415895D02*
X145587980Y-77987323D01*
X145587980Y-77701609D02*
X144587980Y-77701609D01*
X144730838Y-77796847D01*
X144826076Y-77892085D01*
X144873695Y-77987323D01*
G04 #@! TO.C,U2*
X132588095Y-78192380D02*
X132588095Y-79001904D01*
X132635714Y-79097142D01*
X132683333Y-79144761D01*
X132778571Y-79192380D01*
X132969047Y-79192380D01*
X133064285Y-79144761D01*
X133111904Y-79097142D01*
X133159523Y-79001904D01*
X133159523Y-78192380D01*
X133588095Y-78287619D02*
X133635714Y-78240000D01*
X133730952Y-78192380D01*
X133969047Y-78192380D01*
X134064285Y-78240000D01*
X134111904Y-78287619D01*
X134159523Y-78382857D01*
X134159523Y-78478095D01*
X134111904Y-78620952D01*
X133540476Y-79192380D01*
X134159523Y-79192380D01*
G04 #@! TO.C,R6*
X150312380Y-79160666D02*
X149836190Y-79494000D01*
X150312380Y-79732095D02*
X149312380Y-79732095D01*
X149312380Y-79351142D01*
X149360000Y-79255904D01*
X149407619Y-79208285D01*
X149502857Y-79160666D01*
X149645714Y-79160666D01*
X149740952Y-79208285D01*
X149788571Y-79255904D01*
X149836190Y-79351142D01*
X149836190Y-79732095D01*
X149312380Y-78303523D02*
X149312380Y-78494000D01*
X149360000Y-78589238D01*
X149407619Y-78636857D01*
X149550476Y-78732095D01*
X149740952Y-78779714D01*
X150121904Y-78779714D01*
X150217142Y-78732095D01*
X150264761Y-78684476D01*
X150312380Y-78589238D01*
X150312380Y-78398761D01*
X150264761Y-78303523D01*
X150217142Y-78255904D01*
X150121904Y-78208285D01*
X149883809Y-78208285D01*
X149788571Y-78255904D01*
X149740952Y-78303523D01*
X149693333Y-78398761D01*
X149693333Y-78589238D01*
X149740952Y-78684476D01*
X149788571Y-78732095D01*
X149883809Y-78779714D01*
G04 #@! TO.C,R18*
X147137380Y-79179657D02*
X146661190Y-79512990D01*
X147137380Y-79751085D02*
X146137380Y-79751085D01*
X146137380Y-79370133D01*
X146185000Y-79274895D01*
X146232619Y-79227276D01*
X146327857Y-79179657D01*
X146470714Y-79179657D01*
X146565952Y-79227276D01*
X146613571Y-79274895D01*
X146661190Y-79370133D01*
X146661190Y-79751085D01*
X147137380Y-78227276D02*
X147137380Y-78798704D01*
X147137380Y-78512990D02*
X146137380Y-78512990D01*
X146280238Y-78608228D01*
X146375476Y-78703466D01*
X146423095Y-78798704D01*
X146565952Y-77655847D02*
X146518333Y-77751085D01*
X146470714Y-77798704D01*
X146375476Y-77846323D01*
X146327857Y-77846323D01*
X146232619Y-77798704D01*
X146185000Y-77751085D01*
X146137380Y-77655847D01*
X146137380Y-77465371D01*
X146185000Y-77370133D01*
X146232619Y-77322514D01*
X146327857Y-77274895D01*
X146375476Y-77274895D01*
X146470714Y-77322514D01*
X146518333Y-77370133D01*
X146565952Y-77465371D01*
X146565952Y-77655847D01*
X146613571Y-77751085D01*
X146661190Y-77798704D01*
X146756428Y-77846323D01*
X146946904Y-77846323D01*
X147042142Y-77798704D01*
X147089761Y-77751085D01*
X147137380Y-77655847D01*
X147137380Y-77465371D01*
X147089761Y-77370133D01*
X147042142Y-77322514D01*
X146946904Y-77274895D01*
X146756428Y-77274895D01*
X146661190Y-77322514D01*
X146613571Y-77370133D01*
X146565952Y-77465371D01*
G04 #@! TO.C,R19*
X148788380Y-79193657D02*
X148312190Y-79526990D01*
X148788380Y-79765085D02*
X147788380Y-79765085D01*
X147788380Y-79384133D01*
X147836000Y-79288895D01*
X147883619Y-79241276D01*
X147978857Y-79193657D01*
X148121714Y-79193657D01*
X148216952Y-79241276D01*
X148264571Y-79288895D01*
X148312190Y-79384133D01*
X148312190Y-79765085D01*
X148788380Y-78241276D02*
X148788380Y-78812704D01*
X148788380Y-78526990D02*
X147788380Y-78526990D01*
X147931238Y-78622228D01*
X148026476Y-78717466D01*
X148074095Y-78812704D01*
X148788380Y-77765085D02*
X148788380Y-77574609D01*
X148740761Y-77479371D01*
X148693142Y-77431752D01*
X148550285Y-77336514D01*
X148359809Y-77288895D01*
X147978857Y-77288895D01*
X147883619Y-77336514D01*
X147836000Y-77384133D01*
X147788380Y-77479371D01*
X147788380Y-77669847D01*
X147836000Y-77765085D01*
X147883619Y-77812704D01*
X147978857Y-77860323D01*
X148216952Y-77860323D01*
X148312190Y-77812704D01*
X148359809Y-77765085D01*
X148407428Y-77669847D01*
X148407428Y-77479371D01*
X148359809Y-77384133D01*
X148312190Y-77336514D01*
X148216952Y-77288895D01*
G04 #@! TO.C,*
G04 #@! TO.C,HBT*
X150439380Y-89749166D02*
X149439380Y-89749166D01*
X149915571Y-89749166D02*
X149915571Y-89177738D01*
X150439380Y-89177738D02*
X149439380Y-89177738D01*
X149915571Y-88368214D02*
X149963190Y-88225357D01*
X150010809Y-88177738D01*
X150106047Y-88130119D01*
X150248904Y-88130119D01*
X150344142Y-88177738D01*
X150391761Y-88225357D01*
X150439380Y-88320595D01*
X150439380Y-88701547D01*
X149439380Y-88701547D01*
X149439380Y-88368214D01*
X149487000Y-88272976D01*
X149534619Y-88225357D01*
X149629857Y-88177738D01*
X149725095Y-88177738D01*
X149820333Y-88225357D01*
X149867952Y-88272976D01*
X149915571Y-88368214D01*
X149915571Y-88701547D01*
X149439380Y-87844404D02*
X149439380Y-87272976D01*
X150439380Y-87558690D02*
X149439380Y-87558690D01*
G04 #@! TO.C,UVL*
X144486380Y-89701547D02*
X145295904Y-89701547D01*
X145391142Y-89653928D01*
X145438761Y-89606309D01*
X145486380Y-89511071D01*
X145486380Y-89320595D01*
X145438761Y-89225357D01*
X145391142Y-89177738D01*
X145295904Y-89130119D01*
X144486380Y-89130119D01*
X144486380Y-88796785D02*
X145486380Y-88463452D01*
X144486380Y-88130119D01*
X145486380Y-87320595D02*
X145486380Y-87796785D01*
X144486380Y-87796785D01*
G04 #@! TO.C,12C*
X147137380Y-89209476D02*
X147137380Y-89780904D01*
X147137380Y-89495190D02*
X146137380Y-89495190D01*
X146280238Y-89590428D01*
X146375476Y-89685666D01*
X146423095Y-89780904D01*
X146232619Y-88828523D02*
X146185000Y-88780904D01*
X146137380Y-88685666D01*
X146137380Y-88447571D01*
X146185000Y-88352333D01*
X146232619Y-88304714D01*
X146327857Y-88257095D01*
X146423095Y-88257095D01*
X146565952Y-88304714D01*
X147137380Y-88876142D01*
X147137380Y-88257095D01*
X147042142Y-87257095D02*
X147089761Y-87304714D01*
X147137380Y-87447571D01*
X147137380Y-87542809D01*
X147089761Y-87685666D01*
X146994523Y-87780904D01*
X146899285Y-87828523D01*
X146708809Y-87876142D01*
X146565952Y-87876142D01*
X146375476Y-87828523D01*
X146280238Y-87780904D01*
X146185000Y-87685666D01*
X146137380Y-87542809D01*
X146137380Y-87447571D01*
X146185000Y-87304714D01*
X146232619Y-87257095D01*
G04 #@! TO.C,3V3*
X147788380Y-89757095D02*
X147788380Y-89138047D01*
X148169333Y-89471380D01*
X148169333Y-89328523D01*
X148216952Y-89233285D01*
X148264571Y-89185666D01*
X148359809Y-89138047D01*
X148597904Y-89138047D01*
X148693142Y-89185666D01*
X148740761Y-89233285D01*
X148788380Y-89328523D01*
X148788380Y-89614238D01*
X148740761Y-89709476D01*
X148693142Y-89757095D01*
X147788380Y-88852333D02*
X148788380Y-88519000D01*
X147788380Y-88185666D01*
X147788380Y-87947571D02*
X147788380Y-87328523D01*
X148169333Y-87661857D01*
X148169333Y-87519000D01*
X148216952Y-87423761D01*
X148264571Y-87376142D01*
X148359809Y-87328523D01*
X148597904Y-87328523D01*
X148693142Y-87376142D01*
X148740761Y-87423761D01*
X148788380Y-87519000D01*
X148788380Y-87804714D01*
X148740761Y-87899952D01*
X148693142Y-87947571D01*
G04 #@! TO.C,*
G04 #@! TD*
%LPC*%
D15*
G04 #@! TO.C,Q1*
X120523000Y-75044000D03*
D10*
G36*
X123272039Y-74003755D02*
X123269194Y-74013134D01*
X123264573Y-74021779D01*
X123258355Y-74029355D01*
X123250779Y-74035573D01*
X123242134Y-74040194D01*
X123232755Y-74043039D01*
X123223000Y-74044000D01*
X122873000Y-74044000D01*
X122873000Y-75594000D01*
X123223000Y-75594000D01*
X123232755Y-75594961D01*
X123242134Y-75597806D01*
X123250779Y-75602427D01*
X123258355Y-75608645D01*
X123264573Y-75616221D01*
X123269194Y-75624866D01*
X123272039Y-75634245D01*
X123273000Y-75644000D01*
X123273000Y-76444000D01*
X123272039Y-76453755D01*
X123269194Y-76463134D01*
X123264573Y-76471779D01*
X123258355Y-76479355D01*
X123250779Y-76485573D01*
X123242134Y-76490194D01*
X123232755Y-76493039D01*
X123223000Y-76494000D01*
X122873000Y-76494000D01*
X122873000Y-77504000D01*
X122872039Y-77513755D01*
X122869194Y-77523134D01*
X122864573Y-77531779D01*
X122858355Y-77539355D01*
X122850779Y-77545573D01*
X122842134Y-77550194D01*
X122832755Y-77553039D01*
X122823000Y-77554000D01*
X122098000Y-77554000D01*
X122088245Y-77553039D01*
X122078866Y-77550194D01*
X122070221Y-77545573D01*
X122062645Y-77539355D01*
X122056427Y-77531779D01*
X122051806Y-77523134D01*
X122048961Y-77513755D01*
X122048000Y-77504000D01*
X122048000Y-76954000D01*
X121498000Y-76954000D01*
X121498000Y-77504000D01*
X121497039Y-77513755D01*
X121494194Y-77523134D01*
X121489573Y-77531779D01*
X121483355Y-77539355D01*
X121475779Y-77545573D01*
X121467134Y-77550194D01*
X121457755Y-77553039D01*
X121448000Y-77554000D01*
X120723000Y-77554000D01*
X120713245Y-77553039D01*
X120703866Y-77550194D01*
X120695221Y-77545573D01*
X120687645Y-77539355D01*
X120681427Y-77531779D01*
X120676806Y-77523134D01*
X120673961Y-77513755D01*
X120673000Y-77504000D01*
X120673000Y-76954000D01*
X120373000Y-76954000D01*
X120373000Y-77504000D01*
X120372039Y-77513755D01*
X120369194Y-77523134D01*
X120364573Y-77531779D01*
X120358355Y-77539355D01*
X120350779Y-77545573D01*
X120342134Y-77550194D01*
X120332755Y-77553039D01*
X120323000Y-77554000D01*
X119598000Y-77554000D01*
X119588245Y-77553039D01*
X119578866Y-77550194D01*
X119570221Y-77545573D01*
X119562645Y-77539355D01*
X119556427Y-77531779D01*
X119551806Y-77523134D01*
X119548961Y-77513755D01*
X119548000Y-77504000D01*
X119548000Y-76954000D01*
X118998000Y-76954000D01*
X118998000Y-77504000D01*
X118997039Y-77513755D01*
X118994194Y-77523134D01*
X118989573Y-77531779D01*
X118983355Y-77539355D01*
X118975779Y-77545573D01*
X118967134Y-77550194D01*
X118957755Y-77553039D01*
X118948000Y-77554000D01*
X118223000Y-77554000D01*
X118213245Y-77553039D01*
X118203866Y-77550194D01*
X118195221Y-77545573D01*
X118187645Y-77539355D01*
X118181427Y-77531779D01*
X118176806Y-77523134D01*
X118173961Y-77513755D01*
X118173000Y-77504000D01*
X118173000Y-76494000D01*
X117823000Y-76494000D01*
X117813245Y-76493039D01*
X117803866Y-76490194D01*
X117795221Y-76485573D01*
X117787645Y-76479355D01*
X117781427Y-76471779D01*
X117776806Y-76463134D01*
X117773961Y-76453755D01*
X117773000Y-76444000D01*
X117773000Y-75644000D01*
X117773961Y-75634245D01*
X117776806Y-75624866D01*
X117781427Y-75616221D01*
X117787645Y-75608645D01*
X117795221Y-75602427D01*
X117803866Y-75597806D01*
X117813245Y-75594961D01*
X117823000Y-75594000D01*
X118173000Y-75594000D01*
X118173000Y-74044000D01*
X117823000Y-74044000D01*
X117813245Y-74043039D01*
X117803866Y-74040194D01*
X117795221Y-74035573D01*
X117787645Y-74029355D01*
X117781427Y-74021779D01*
X117776806Y-74013134D01*
X117773961Y-74003755D01*
X117773000Y-73994000D01*
X117773000Y-73194000D01*
X117773961Y-73184245D01*
X117776806Y-73174866D01*
X117781427Y-73166221D01*
X117787645Y-73158645D01*
X117795221Y-73152427D01*
X117803866Y-73147806D01*
X117813245Y-73144961D01*
X117823000Y-73144000D01*
X118173000Y-73144000D01*
X118173000Y-73004000D01*
X118173961Y-72994245D01*
X118176806Y-72984866D01*
X118181427Y-72976221D01*
X118187645Y-72968645D01*
X118195221Y-72962427D01*
X118203866Y-72957806D01*
X118213245Y-72954961D01*
X118223000Y-72954000D01*
X122823000Y-72954000D01*
X122832755Y-72954961D01*
X122842134Y-72957806D01*
X122850779Y-72962427D01*
X122858355Y-72968645D01*
X122864573Y-72976221D01*
X122869194Y-72984866D01*
X122872039Y-72994245D01*
X122873000Y-73004000D01*
X122873000Y-73144000D01*
X123223000Y-73144000D01*
X123232755Y-73144961D01*
X123242134Y-73147806D01*
X123250779Y-73152427D01*
X123258355Y-73158645D01*
X123264573Y-73166221D01*
X123269194Y-73174866D01*
X123272039Y-73184245D01*
X123273000Y-73194000D01*
X123273000Y-73994000D01*
X123272039Y-74003755D01*
X123272039Y-74003755D01*
G37*
D16*
X118618000Y-71479000D03*
X119888000Y-71479000D03*
X121158000Y-71479000D03*
X122428000Y-71479000D03*
G04 #@! TD*
D10*
G04 #@! TO.C,C6*
G36*
X122985484Y-85423652D02*
X123010723Y-85427396D01*
X123035474Y-85433596D01*
X123059498Y-85442191D01*
X123082563Y-85453100D01*
X123104448Y-85466218D01*
X123124942Y-85481417D01*
X123143848Y-85498552D01*
X123160983Y-85517458D01*
X123176182Y-85537952D01*
X123189300Y-85559837D01*
X123200209Y-85582902D01*
X123208804Y-85606926D01*
X123215004Y-85631677D01*
X123218748Y-85656916D01*
X123220000Y-85682400D01*
X123220000Y-89662400D01*
X123218748Y-89687884D01*
X123215004Y-89713123D01*
X123208804Y-89737874D01*
X123200209Y-89761898D01*
X123189300Y-89784963D01*
X123176182Y-89806848D01*
X123160983Y-89827342D01*
X123143848Y-89846248D01*
X123124942Y-89863383D01*
X123104448Y-89878582D01*
X123082563Y-89891700D01*
X123059498Y-89902609D01*
X123035474Y-89911204D01*
X123010723Y-89917404D01*
X122985484Y-89921148D01*
X122960000Y-89922400D01*
X120880000Y-89922400D01*
X120854516Y-89921148D01*
X120829277Y-89917404D01*
X120804526Y-89911204D01*
X120780502Y-89902609D01*
X120757437Y-89891700D01*
X120735552Y-89878582D01*
X120715058Y-89863383D01*
X120696152Y-89846248D01*
X120679017Y-89827342D01*
X120663818Y-89806848D01*
X120650700Y-89784963D01*
X120639791Y-89761898D01*
X120631196Y-89737874D01*
X120624996Y-89713123D01*
X120621252Y-89687884D01*
X120620000Y-89662400D01*
X120620000Y-85682400D01*
X120621252Y-85656916D01*
X120624996Y-85631677D01*
X120631196Y-85606926D01*
X120639791Y-85582902D01*
X120650700Y-85559837D01*
X120663818Y-85537952D01*
X120679017Y-85517458D01*
X120696152Y-85498552D01*
X120715058Y-85481417D01*
X120735552Y-85466218D01*
X120757437Y-85453100D01*
X120780502Y-85442191D01*
X120804526Y-85433596D01*
X120829277Y-85427396D01*
X120854516Y-85423652D01*
X120880000Y-85422400D01*
X122960000Y-85422400D01*
X122985484Y-85423652D01*
X122985484Y-85423652D01*
G37*
D17*
X121920000Y-87672400D03*
D10*
G36*
X122985484Y-78023652D02*
X123010723Y-78027396D01*
X123035474Y-78033596D01*
X123059498Y-78042191D01*
X123082563Y-78053100D01*
X123104448Y-78066218D01*
X123124942Y-78081417D01*
X123143848Y-78098552D01*
X123160983Y-78117458D01*
X123176182Y-78137952D01*
X123189300Y-78159837D01*
X123200209Y-78182902D01*
X123208804Y-78206926D01*
X123215004Y-78231677D01*
X123218748Y-78256916D01*
X123220000Y-78282400D01*
X123220000Y-82262400D01*
X123218748Y-82287884D01*
X123215004Y-82313123D01*
X123208804Y-82337874D01*
X123200209Y-82361898D01*
X123189300Y-82384963D01*
X123176182Y-82406848D01*
X123160983Y-82427342D01*
X123143848Y-82446248D01*
X123124942Y-82463383D01*
X123104448Y-82478582D01*
X123082563Y-82491700D01*
X123059498Y-82502609D01*
X123035474Y-82511204D01*
X123010723Y-82517404D01*
X122985484Y-82521148D01*
X122960000Y-82522400D01*
X120880000Y-82522400D01*
X120854516Y-82521148D01*
X120829277Y-82517404D01*
X120804526Y-82511204D01*
X120780502Y-82502609D01*
X120757437Y-82491700D01*
X120735552Y-82478582D01*
X120715058Y-82463383D01*
X120696152Y-82446248D01*
X120679017Y-82427342D01*
X120663818Y-82406848D01*
X120650700Y-82384963D01*
X120639791Y-82361898D01*
X120631196Y-82337874D01*
X120624996Y-82313123D01*
X120621252Y-82287884D01*
X120620000Y-82262400D01*
X120620000Y-78282400D01*
X120621252Y-78256916D01*
X120624996Y-78231677D01*
X120631196Y-78206926D01*
X120639791Y-78182902D01*
X120650700Y-78159837D01*
X120663818Y-78137952D01*
X120679017Y-78117458D01*
X120696152Y-78098552D01*
X120715058Y-78081417D01*
X120735552Y-78066218D01*
X120757437Y-78053100D01*
X120780502Y-78042191D01*
X120804526Y-78033596D01*
X120829277Y-78027396D01*
X120854516Y-78023652D01*
X120880000Y-78022400D01*
X122960000Y-78022400D01*
X122985484Y-78023652D01*
X122985484Y-78023652D01*
G37*
D17*
X121920000Y-80272400D03*
G04 #@! TD*
D10*
G04 #@! TO.C,C7*
G36*
X127070229Y-76946264D02*
X127095711Y-76950044D01*
X127120700Y-76956303D01*
X127144954Y-76964982D01*
X127168242Y-76975996D01*
X127190337Y-76989239D01*
X127211028Y-77004585D01*
X127230116Y-77021884D01*
X127247415Y-77040972D01*
X127262761Y-77061663D01*
X127276004Y-77083758D01*
X127287018Y-77107046D01*
X127295697Y-77131300D01*
X127301956Y-77156289D01*
X127305736Y-77181771D01*
X127307000Y-77207500D01*
X127307000Y-77732500D01*
X127305736Y-77758229D01*
X127301956Y-77783711D01*
X127295697Y-77808700D01*
X127287018Y-77832954D01*
X127276004Y-77856242D01*
X127262761Y-77878337D01*
X127247415Y-77899028D01*
X127230116Y-77918116D01*
X127211028Y-77935415D01*
X127190337Y-77950761D01*
X127168242Y-77964004D01*
X127144954Y-77975018D01*
X127120700Y-77983697D01*
X127095711Y-77989956D01*
X127070229Y-77993736D01*
X127044500Y-77995000D01*
X126419500Y-77995000D01*
X126393771Y-77993736D01*
X126368289Y-77989956D01*
X126343300Y-77983697D01*
X126319046Y-77975018D01*
X126295758Y-77964004D01*
X126273663Y-77950761D01*
X126252972Y-77935415D01*
X126233884Y-77918116D01*
X126216585Y-77899028D01*
X126201239Y-77878337D01*
X126187996Y-77856242D01*
X126176982Y-77832954D01*
X126168303Y-77808700D01*
X126162044Y-77783711D01*
X126158264Y-77758229D01*
X126157000Y-77732500D01*
X126157000Y-77207500D01*
X126158264Y-77181771D01*
X126162044Y-77156289D01*
X126168303Y-77131300D01*
X126176982Y-77107046D01*
X126187996Y-77083758D01*
X126201239Y-77061663D01*
X126216585Y-77040972D01*
X126233884Y-77021884D01*
X126252972Y-77004585D01*
X126273663Y-76989239D01*
X126295758Y-76975996D01*
X126319046Y-76964982D01*
X126343300Y-76956303D01*
X126368289Y-76950044D01*
X126393771Y-76946264D01*
X126419500Y-76945000D01*
X127044500Y-76945000D01*
X127070229Y-76946264D01*
X127070229Y-76946264D01*
G37*
D18*
X126732000Y-77470000D03*
D10*
G36*
X125320229Y-76946264D02*
X125345711Y-76950044D01*
X125370700Y-76956303D01*
X125394954Y-76964982D01*
X125418242Y-76975996D01*
X125440337Y-76989239D01*
X125461028Y-77004585D01*
X125480116Y-77021884D01*
X125497415Y-77040972D01*
X125512761Y-77061663D01*
X125526004Y-77083758D01*
X125537018Y-77107046D01*
X125545697Y-77131300D01*
X125551956Y-77156289D01*
X125555736Y-77181771D01*
X125557000Y-77207500D01*
X125557000Y-77732500D01*
X125555736Y-77758229D01*
X125551956Y-77783711D01*
X125545697Y-77808700D01*
X125537018Y-77832954D01*
X125526004Y-77856242D01*
X125512761Y-77878337D01*
X125497415Y-77899028D01*
X125480116Y-77918116D01*
X125461028Y-77935415D01*
X125440337Y-77950761D01*
X125418242Y-77964004D01*
X125394954Y-77975018D01*
X125370700Y-77983697D01*
X125345711Y-77989956D01*
X125320229Y-77993736D01*
X125294500Y-77995000D01*
X124669500Y-77995000D01*
X124643771Y-77993736D01*
X124618289Y-77989956D01*
X124593300Y-77983697D01*
X124569046Y-77975018D01*
X124545758Y-77964004D01*
X124523663Y-77950761D01*
X124502972Y-77935415D01*
X124483884Y-77918116D01*
X124466585Y-77899028D01*
X124451239Y-77878337D01*
X124437996Y-77856242D01*
X124426982Y-77832954D01*
X124418303Y-77808700D01*
X124412044Y-77783711D01*
X124408264Y-77758229D01*
X124407000Y-77732500D01*
X124407000Y-77207500D01*
X124408264Y-77181771D01*
X124412044Y-77156289D01*
X124418303Y-77131300D01*
X124426982Y-77107046D01*
X124437996Y-77083758D01*
X124451239Y-77061663D01*
X124466585Y-77040972D01*
X124483884Y-77021884D01*
X124502972Y-77004585D01*
X124523663Y-76989239D01*
X124545758Y-76975996D01*
X124569046Y-76964982D01*
X124593300Y-76956303D01*
X124618289Y-76950044D01*
X124643771Y-76946264D01*
X124669500Y-76945000D01*
X125294500Y-76945000D01*
X125320229Y-76946264D01*
X125320229Y-76946264D01*
G37*
D18*
X124982000Y-77470000D03*
G04 #@! TD*
D10*
G04 #@! TO.C,R11*
G36*
X145322229Y-82230264D02*
X145347711Y-82234044D01*
X145372700Y-82240303D01*
X145396954Y-82248982D01*
X145420242Y-82259996D01*
X145442337Y-82273239D01*
X145463028Y-82288585D01*
X145482116Y-82305884D01*
X145499415Y-82324972D01*
X145514761Y-82345663D01*
X145528004Y-82367758D01*
X145539018Y-82391046D01*
X145547697Y-82415300D01*
X145553956Y-82440289D01*
X145557736Y-82465771D01*
X145559000Y-82491500D01*
X145559000Y-83116500D01*
X145557736Y-83142229D01*
X145553956Y-83167711D01*
X145547697Y-83192700D01*
X145539018Y-83216954D01*
X145528004Y-83240242D01*
X145514761Y-83262337D01*
X145499415Y-83283028D01*
X145482116Y-83302116D01*
X145463028Y-83319415D01*
X145442337Y-83334761D01*
X145420242Y-83348004D01*
X145396954Y-83359018D01*
X145372700Y-83367697D01*
X145347711Y-83373956D01*
X145322229Y-83377736D01*
X145296500Y-83379000D01*
X144771500Y-83379000D01*
X144745771Y-83377736D01*
X144720289Y-83373956D01*
X144695300Y-83367697D01*
X144671046Y-83359018D01*
X144647758Y-83348004D01*
X144625663Y-83334761D01*
X144604972Y-83319415D01*
X144585884Y-83302116D01*
X144568585Y-83283028D01*
X144553239Y-83262337D01*
X144539996Y-83240242D01*
X144528982Y-83216954D01*
X144520303Y-83192700D01*
X144514044Y-83167711D01*
X144510264Y-83142229D01*
X144509000Y-83116500D01*
X144509000Y-82491500D01*
X144510264Y-82465771D01*
X144514044Y-82440289D01*
X144520303Y-82415300D01*
X144528982Y-82391046D01*
X144539996Y-82367758D01*
X144553239Y-82345663D01*
X144568585Y-82324972D01*
X144585884Y-82305884D01*
X144604972Y-82288585D01*
X144625663Y-82273239D01*
X144647758Y-82259996D01*
X144671046Y-82248982D01*
X144695300Y-82240303D01*
X144720289Y-82234044D01*
X144745771Y-82230264D01*
X144771500Y-82229000D01*
X145296500Y-82229000D01*
X145322229Y-82230264D01*
X145322229Y-82230264D01*
G37*
D18*
X145034000Y-82804000D03*
D10*
G36*
X145322229Y-80480264D02*
X145347711Y-80484044D01*
X145372700Y-80490303D01*
X145396954Y-80498982D01*
X145420242Y-80509996D01*
X145442337Y-80523239D01*
X145463028Y-80538585D01*
X145482116Y-80555884D01*
X145499415Y-80574972D01*
X145514761Y-80595663D01*
X145528004Y-80617758D01*
X145539018Y-80641046D01*
X145547697Y-80665300D01*
X145553956Y-80690289D01*
X145557736Y-80715771D01*
X145559000Y-80741500D01*
X145559000Y-81366500D01*
X145557736Y-81392229D01*
X145553956Y-81417711D01*
X145547697Y-81442700D01*
X145539018Y-81466954D01*
X145528004Y-81490242D01*
X145514761Y-81512337D01*
X145499415Y-81533028D01*
X145482116Y-81552116D01*
X145463028Y-81569415D01*
X145442337Y-81584761D01*
X145420242Y-81598004D01*
X145396954Y-81609018D01*
X145372700Y-81617697D01*
X145347711Y-81623956D01*
X145322229Y-81627736D01*
X145296500Y-81629000D01*
X144771500Y-81629000D01*
X144745771Y-81627736D01*
X144720289Y-81623956D01*
X144695300Y-81617697D01*
X144671046Y-81609018D01*
X144647758Y-81598004D01*
X144625663Y-81584761D01*
X144604972Y-81569415D01*
X144585884Y-81552116D01*
X144568585Y-81533028D01*
X144553239Y-81512337D01*
X144539996Y-81490242D01*
X144528982Y-81466954D01*
X144520303Y-81442700D01*
X144514044Y-81417711D01*
X144510264Y-81392229D01*
X144509000Y-81366500D01*
X144509000Y-80741500D01*
X144510264Y-80715771D01*
X144514044Y-80690289D01*
X144520303Y-80665300D01*
X144528982Y-80641046D01*
X144539996Y-80617758D01*
X144553239Y-80595663D01*
X144568585Y-80574972D01*
X144585884Y-80555884D01*
X144604972Y-80538585D01*
X144625663Y-80523239D01*
X144647758Y-80509996D01*
X144671046Y-80498982D01*
X144695300Y-80490303D01*
X144720289Y-80484044D01*
X144745771Y-80480264D01*
X144771500Y-80479000D01*
X145296500Y-80479000D01*
X145322229Y-80480264D01*
X145322229Y-80480264D01*
G37*
D18*
X145034000Y-81054000D03*
G04 #@! TD*
D19*
G04 #@! TO.C,U2*
X129433500Y-80586000D03*
X129433500Y-81086000D03*
X129433500Y-81586000D03*
X129433500Y-82086000D03*
X129433500Y-82586000D03*
X129433500Y-83086000D03*
X129433500Y-83586000D03*
X129433500Y-84086000D03*
X129433500Y-84586000D03*
X129433500Y-85086000D03*
X129433500Y-85586000D03*
X129433500Y-86086000D03*
X129433500Y-86586000D03*
X129433500Y-87086000D03*
X129433500Y-87586000D03*
X129433500Y-88086000D03*
X129433500Y-88586000D03*
X129433500Y-89086000D03*
X139298500Y-89086000D03*
X139298500Y-88586000D03*
X139298500Y-88086000D03*
X139298500Y-87586000D03*
X139298500Y-87086000D03*
X139298500Y-86586000D03*
X139298500Y-86086000D03*
X139298500Y-85586000D03*
X139298500Y-85086000D03*
X139298500Y-84586000D03*
X139298500Y-84086000D03*
X139298500Y-83586000D03*
X139298500Y-83086000D03*
X139298500Y-82586000D03*
X139298500Y-82086000D03*
X139298500Y-81586000D03*
X139298500Y-81086000D03*
X139298500Y-80586000D03*
D20*
X134366000Y-84836000D03*
G04 #@! TD*
D10*
G04 #@! TO.C,R6*
G36*
X150275229Y-80480264D02*
X150300711Y-80484044D01*
X150325700Y-80490303D01*
X150349954Y-80498982D01*
X150373242Y-80509996D01*
X150395337Y-80523239D01*
X150416028Y-80538585D01*
X150435116Y-80555884D01*
X150452415Y-80574972D01*
X150467761Y-80595663D01*
X150481004Y-80617758D01*
X150492018Y-80641046D01*
X150500697Y-80665300D01*
X150506956Y-80690289D01*
X150510736Y-80715771D01*
X150512000Y-80741500D01*
X150512000Y-81366500D01*
X150510736Y-81392229D01*
X150506956Y-81417711D01*
X150500697Y-81442700D01*
X150492018Y-81466954D01*
X150481004Y-81490242D01*
X150467761Y-81512337D01*
X150452415Y-81533028D01*
X150435116Y-81552116D01*
X150416028Y-81569415D01*
X150395337Y-81584761D01*
X150373242Y-81598004D01*
X150349954Y-81609018D01*
X150325700Y-81617697D01*
X150300711Y-81623956D01*
X150275229Y-81627736D01*
X150249500Y-81629000D01*
X149724500Y-81629000D01*
X149698771Y-81627736D01*
X149673289Y-81623956D01*
X149648300Y-81617697D01*
X149624046Y-81609018D01*
X149600758Y-81598004D01*
X149578663Y-81584761D01*
X149557972Y-81569415D01*
X149538884Y-81552116D01*
X149521585Y-81533028D01*
X149506239Y-81512337D01*
X149492996Y-81490242D01*
X149481982Y-81466954D01*
X149473303Y-81442700D01*
X149467044Y-81417711D01*
X149463264Y-81392229D01*
X149462000Y-81366500D01*
X149462000Y-80741500D01*
X149463264Y-80715771D01*
X149467044Y-80690289D01*
X149473303Y-80665300D01*
X149481982Y-80641046D01*
X149492996Y-80617758D01*
X149506239Y-80595663D01*
X149521585Y-80574972D01*
X149538884Y-80555884D01*
X149557972Y-80538585D01*
X149578663Y-80523239D01*
X149600758Y-80509996D01*
X149624046Y-80498982D01*
X149648300Y-80490303D01*
X149673289Y-80484044D01*
X149698771Y-80480264D01*
X149724500Y-80479000D01*
X150249500Y-80479000D01*
X150275229Y-80480264D01*
X150275229Y-80480264D01*
G37*
D18*
X149987000Y-81054000D03*
D10*
G36*
X150275229Y-82230264D02*
X150300711Y-82234044D01*
X150325700Y-82240303D01*
X150349954Y-82248982D01*
X150373242Y-82259996D01*
X150395337Y-82273239D01*
X150416028Y-82288585D01*
X150435116Y-82305884D01*
X150452415Y-82324972D01*
X150467761Y-82345663D01*
X150481004Y-82367758D01*
X150492018Y-82391046D01*
X150500697Y-82415300D01*
X150506956Y-82440289D01*
X150510736Y-82465771D01*
X150512000Y-82491500D01*
X150512000Y-83116500D01*
X150510736Y-83142229D01*
X150506956Y-83167711D01*
X150500697Y-83192700D01*
X150492018Y-83216954D01*
X150481004Y-83240242D01*
X150467761Y-83262337D01*
X150452415Y-83283028D01*
X150435116Y-83302116D01*
X150416028Y-83319415D01*
X150395337Y-83334761D01*
X150373242Y-83348004D01*
X150349954Y-83359018D01*
X150325700Y-83367697D01*
X150300711Y-83373956D01*
X150275229Y-83377736D01*
X150249500Y-83379000D01*
X149724500Y-83379000D01*
X149698771Y-83377736D01*
X149673289Y-83373956D01*
X149648300Y-83367697D01*
X149624046Y-83359018D01*
X149600758Y-83348004D01*
X149578663Y-83334761D01*
X149557972Y-83319415D01*
X149538884Y-83302116D01*
X149521585Y-83283028D01*
X149506239Y-83262337D01*
X149492996Y-83240242D01*
X149481982Y-83216954D01*
X149473303Y-83192700D01*
X149467044Y-83167711D01*
X149463264Y-83142229D01*
X149462000Y-83116500D01*
X149462000Y-82491500D01*
X149463264Y-82465771D01*
X149467044Y-82440289D01*
X149473303Y-82415300D01*
X149481982Y-82391046D01*
X149492996Y-82367758D01*
X149506239Y-82345663D01*
X149521585Y-82324972D01*
X149538884Y-82305884D01*
X149557972Y-82288585D01*
X149578663Y-82273239D01*
X149600758Y-82259996D01*
X149624046Y-82248982D01*
X149648300Y-82240303D01*
X149673289Y-82234044D01*
X149698771Y-82230264D01*
X149724500Y-82229000D01*
X150249500Y-82229000D01*
X150275229Y-82230264D01*
X150275229Y-82230264D01*
G37*
D18*
X149987000Y-82804000D03*
G04 #@! TD*
D10*
G04 #@! TO.C,R18*
G36*
X146973229Y-82216264D02*
X146998711Y-82220044D01*
X147023700Y-82226303D01*
X147047954Y-82234982D01*
X147071242Y-82245996D01*
X147093337Y-82259239D01*
X147114028Y-82274585D01*
X147133116Y-82291884D01*
X147150415Y-82310972D01*
X147165761Y-82331663D01*
X147179004Y-82353758D01*
X147190018Y-82377046D01*
X147198697Y-82401300D01*
X147204956Y-82426289D01*
X147208736Y-82451771D01*
X147210000Y-82477500D01*
X147210000Y-83102500D01*
X147208736Y-83128229D01*
X147204956Y-83153711D01*
X147198697Y-83178700D01*
X147190018Y-83202954D01*
X147179004Y-83226242D01*
X147165761Y-83248337D01*
X147150415Y-83269028D01*
X147133116Y-83288116D01*
X147114028Y-83305415D01*
X147093337Y-83320761D01*
X147071242Y-83334004D01*
X147047954Y-83345018D01*
X147023700Y-83353697D01*
X146998711Y-83359956D01*
X146973229Y-83363736D01*
X146947500Y-83365000D01*
X146422500Y-83365000D01*
X146396771Y-83363736D01*
X146371289Y-83359956D01*
X146346300Y-83353697D01*
X146322046Y-83345018D01*
X146298758Y-83334004D01*
X146276663Y-83320761D01*
X146255972Y-83305415D01*
X146236884Y-83288116D01*
X146219585Y-83269028D01*
X146204239Y-83248337D01*
X146190996Y-83226242D01*
X146179982Y-83202954D01*
X146171303Y-83178700D01*
X146165044Y-83153711D01*
X146161264Y-83128229D01*
X146160000Y-83102500D01*
X146160000Y-82477500D01*
X146161264Y-82451771D01*
X146165044Y-82426289D01*
X146171303Y-82401300D01*
X146179982Y-82377046D01*
X146190996Y-82353758D01*
X146204239Y-82331663D01*
X146219585Y-82310972D01*
X146236884Y-82291884D01*
X146255972Y-82274585D01*
X146276663Y-82259239D01*
X146298758Y-82245996D01*
X146322046Y-82234982D01*
X146346300Y-82226303D01*
X146371289Y-82220044D01*
X146396771Y-82216264D01*
X146422500Y-82215000D01*
X146947500Y-82215000D01*
X146973229Y-82216264D01*
X146973229Y-82216264D01*
G37*
D18*
X146685000Y-82790000D03*
D10*
G36*
X146973229Y-80466264D02*
X146998711Y-80470044D01*
X147023700Y-80476303D01*
X147047954Y-80484982D01*
X147071242Y-80495996D01*
X147093337Y-80509239D01*
X147114028Y-80524585D01*
X147133116Y-80541884D01*
X147150415Y-80560972D01*
X147165761Y-80581663D01*
X147179004Y-80603758D01*
X147190018Y-80627046D01*
X147198697Y-80651300D01*
X147204956Y-80676289D01*
X147208736Y-80701771D01*
X147210000Y-80727500D01*
X147210000Y-81352500D01*
X147208736Y-81378229D01*
X147204956Y-81403711D01*
X147198697Y-81428700D01*
X147190018Y-81452954D01*
X147179004Y-81476242D01*
X147165761Y-81498337D01*
X147150415Y-81519028D01*
X147133116Y-81538116D01*
X147114028Y-81555415D01*
X147093337Y-81570761D01*
X147071242Y-81584004D01*
X147047954Y-81595018D01*
X147023700Y-81603697D01*
X146998711Y-81609956D01*
X146973229Y-81613736D01*
X146947500Y-81615000D01*
X146422500Y-81615000D01*
X146396771Y-81613736D01*
X146371289Y-81609956D01*
X146346300Y-81603697D01*
X146322046Y-81595018D01*
X146298758Y-81584004D01*
X146276663Y-81570761D01*
X146255972Y-81555415D01*
X146236884Y-81538116D01*
X146219585Y-81519028D01*
X146204239Y-81498337D01*
X146190996Y-81476242D01*
X146179982Y-81452954D01*
X146171303Y-81428700D01*
X146165044Y-81403711D01*
X146161264Y-81378229D01*
X146160000Y-81352500D01*
X146160000Y-80727500D01*
X146161264Y-80701771D01*
X146165044Y-80676289D01*
X146171303Y-80651300D01*
X146179982Y-80627046D01*
X146190996Y-80603758D01*
X146204239Y-80581663D01*
X146219585Y-80560972D01*
X146236884Y-80541884D01*
X146255972Y-80524585D01*
X146276663Y-80509239D01*
X146298758Y-80495996D01*
X146322046Y-80484982D01*
X146346300Y-80476303D01*
X146371289Y-80470044D01*
X146396771Y-80466264D01*
X146422500Y-80465000D01*
X146947500Y-80465000D01*
X146973229Y-80466264D01*
X146973229Y-80466264D01*
G37*
D18*
X146685000Y-81040000D03*
G04 #@! TD*
D10*
G04 #@! TO.C,R19*
G36*
X148624229Y-80480264D02*
X148649711Y-80484044D01*
X148674700Y-80490303D01*
X148698954Y-80498982D01*
X148722242Y-80509996D01*
X148744337Y-80523239D01*
X148765028Y-80538585D01*
X148784116Y-80555884D01*
X148801415Y-80574972D01*
X148816761Y-80595663D01*
X148830004Y-80617758D01*
X148841018Y-80641046D01*
X148849697Y-80665300D01*
X148855956Y-80690289D01*
X148859736Y-80715771D01*
X148861000Y-80741500D01*
X148861000Y-81366500D01*
X148859736Y-81392229D01*
X148855956Y-81417711D01*
X148849697Y-81442700D01*
X148841018Y-81466954D01*
X148830004Y-81490242D01*
X148816761Y-81512337D01*
X148801415Y-81533028D01*
X148784116Y-81552116D01*
X148765028Y-81569415D01*
X148744337Y-81584761D01*
X148722242Y-81598004D01*
X148698954Y-81609018D01*
X148674700Y-81617697D01*
X148649711Y-81623956D01*
X148624229Y-81627736D01*
X148598500Y-81629000D01*
X148073500Y-81629000D01*
X148047771Y-81627736D01*
X148022289Y-81623956D01*
X147997300Y-81617697D01*
X147973046Y-81609018D01*
X147949758Y-81598004D01*
X147927663Y-81584761D01*
X147906972Y-81569415D01*
X147887884Y-81552116D01*
X147870585Y-81533028D01*
X147855239Y-81512337D01*
X147841996Y-81490242D01*
X147830982Y-81466954D01*
X147822303Y-81442700D01*
X147816044Y-81417711D01*
X147812264Y-81392229D01*
X147811000Y-81366500D01*
X147811000Y-80741500D01*
X147812264Y-80715771D01*
X147816044Y-80690289D01*
X147822303Y-80665300D01*
X147830982Y-80641046D01*
X147841996Y-80617758D01*
X147855239Y-80595663D01*
X147870585Y-80574972D01*
X147887884Y-80555884D01*
X147906972Y-80538585D01*
X147927663Y-80523239D01*
X147949758Y-80509996D01*
X147973046Y-80498982D01*
X147997300Y-80490303D01*
X148022289Y-80484044D01*
X148047771Y-80480264D01*
X148073500Y-80479000D01*
X148598500Y-80479000D01*
X148624229Y-80480264D01*
X148624229Y-80480264D01*
G37*
D18*
X148336000Y-81054000D03*
D10*
G36*
X148624229Y-82230264D02*
X148649711Y-82234044D01*
X148674700Y-82240303D01*
X148698954Y-82248982D01*
X148722242Y-82259996D01*
X148744337Y-82273239D01*
X148765028Y-82288585D01*
X148784116Y-82305884D01*
X148801415Y-82324972D01*
X148816761Y-82345663D01*
X148830004Y-82367758D01*
X148841018Y-82391046D01*
X148849697Y-82415300D01*
X148855956Y-82440289D01*
X148859736Y-82465771D01*
X148861000Y-82491500D01*
X148861000Y-83116500D01*
X148859736Y-83142229D01*
X148855956Y-83167711D01*
X148849697Y-83192700D01*
X148841018Y-83216954D01*
X148830004Y-83240242D01*
X148816761Y-83262337D01*
X148801415Y-83283028D01*
X148784116Y-83302116D01*
X148765028Y-83319415D01*
X148744337Y-83334761D01*
X148722242Y-83348004D01*
X148698954Y-83359018D01*
X148674700Y-83367697D01*
X148649711Y-83373956D01*
X148624229Y-83377736D01*
X148598500Y-83379000D01*
X148073500Y-83379000D01*
X148047771Y-83377736D01*
X148022289Y-83373956D01*
X147997300Y-83367697D01*
X147973046Y-83359018D01*
X147949758Y-83348004D01*
X147927663Y-83334761D01*
X147906972Y-83319415D01*
X147887884Y-83302116D01*
X147870585Y-83283028D01*
X147855239Y-83262337D01*
X147841996Y-83240242D01*
X147830982Y-83216954D01*
X147822303Y-83192700D01*
X147816044Y-83167711D01*
X147812264Y-83142229D01*
X147811000Y-83116500D01*
X147811000Y-82491500D01*
X147812264Y-82465771D01*
X147816044Y-82440289D01*
X147822303Y-82415300D01*
X147830982Y-82391046D01*
X147841996Y-82367758D01*
X147855239Y-82345663D01*
X147870585Y-82324972D01*
X147887884Y-82305884D01*
X147906972Y-82288585D01*
X147927663Y-82273239D01*
X147949758Y-82259996D01*
X147973046Y-82248982D01*
X147997300Y-82240303D01*
X148022289Y-82234044D01*
X148047771Y-82230264D01*
X148073500Y-82229000D01*
X148598500Y-82229000D01*
X148624229Y-82230264D01*
X148624229Y-82230264D01*
G37*
D18*
X148336000Y-82804000D03*
G04 #@! TD*
D21*
G04 #@! TO.C,*
X140081000Y-71755000D03*
D22*
X142621000Y-71755000D03*
X145161000Y-71755000D03*
X147701000Y-71755000D03*
X150241000Y-71755000D03*
X152781000Y-71755000D03*
X155321000Y-71755000D03*
X157861000Y-71755000D03*
X160401000Y-71755000D03*
X162941000Y-71755000D03*
X165481000Y-71755000D03*
X168021000Y-71755000D03*
G04 #@! TD*
D10*
G04 #@! TO.C,HBT*
G36*
X150275229Y-83881264D02*
X150300711Y-83885044D01*
X150325700Y-83891303D01*
X150349954Y-83899982D01*
X150373242Y-83910996D01*
X150395337Y-83924239D01*
X150416028Y-83939585D01*
X150435116Y-83956884D01*
X150452415Y-83975972D01*
X150467761Y-83996663D01*
X150481004Y-84018758D01*
X150492018Y-84042046D01*
X150500697Y-84066300D01*
X150506956Y-84091289D01*
X150510736Y-84116771D01*
X150512000Y-84142500D01*
X150512000Y-84767500D01*
X150510736Y-84793229D01*
X150506956Y-84818711D01*
X150500697Y-84843700D01*
X150492018Y-84867954D01*
X150481004Y-84891242D01*
X150467761Y-84913337D01*
X150452415Y-84934028D01*
X150435116Y-84953116D01*
X150416028Y-84970415D01*
X150395337Y-84985761D01*
X150373242Y-84999004D01*
X150349954Y-85010018D01*
X150325700Y-85018697D01*
X150300711Y-85024956D01*
X150275229Y-85028736D01*
X150249500Y-85030000D01*
X149724500Y-85030000D01*
X149698771Y-85028736D01*
X149673289Y-85024956D01*
X149648300Y-85018697D01*
X149624046Y-85010018D01*
X149600758Y-84999004D01*
X149578663Y-84985761D01*
X149557972Y-84970415D01*
X149538884Y-84953116D01*
X149521585Y-84934028D01*
X149506239Y-84913337D01*
X149492996Y-84891242D01*
X149481982Y-84867954D01*
X149473303Y-84843700D01*
X149467044Y-84818711D01*
X149463264Y-84793229D01*
X149462000Y-84767500D01*
X149462000Y-84142500D01*
X149463264Y-84116771D01*
X149467044Y-84091289D01*
X149473303Y-84066300D01*
X149481982Y-84042046D01*
X149492996Y-84018758D01*
X149506239Y-83996663D01*
X149521585Y-83975972D01*
X149538884Y-83956884D01*
X149557972Y-83939585D01*
X149578663Y-83924239D01*
X149600758Y-83910996D01*
X149624046Y-83899982D01*
X149648300Y-83891303D01*
X149673289Y-83885044D01*
X149698771Y-83881264D01*
X149724500Y-83880000D01*
X150249500Y-83880000D01*
X150275229Y-83881264D01*
X150275229Y-83881264D01*
G37*
D18*
X149987000Y-84455000D03*
D10*
G36*
X150275229Y-85631264D02*
X150300711Y-85635044D01*
X150325700Y-85641303D01*
X150349954Y-85649982D01*
X150373242Y-85660996D01*
X150395337Y-85674239D01*
X150416028Y-85689585D01*
X150435116Y-85706884D01*
X150452415Y-85725972D01*
X150467761Y-85746663D01*
X150481004Y-85768758D01*
X150492018Y-85792046D01*
X150500697Y-85816300D01*
X150506956Y-85841289D01*
X150510736Y-85866771D01*
X150512000Y-85892500D01*
X150512000Y-86517500D01*
X150510736Y-86543229D01*
X150506956Y-86568711D01*
X150500697Y-86593700D01*
X150492018Y-86617954D01*
X150481004Y-86641242D01*
X150467761Y-86663337D01*
X150452415Y-86684028D01*
X150435116Y-86703116D01*
X150416028Y-86720415D01*
X150395337Y-86735761D01*
X150373242Y-86749004D01*
X150349954Y-86760018D01*
X150325700Y-86768697D01*
X150300711Y-86774956D01*
X150275229Y-86778736D01*
X150249500Y-86780000D01*
X149724500Y-86780000D01*
X149698771Y-86778736D01*
X149673289Y-86774956D01*
X149648300Y-86768697D01*
X149624046Y-86760018D01*
X149600758Y-86749004D01*
X149578663Y-86735761D01*
X149557972Y-86720415D01*
X149538884Y-86703116D01*
X149521585Y-86684028D01*
X149506239Y-86663337D01*
X149492996Y-86641242D01*
X149481982Y-86617954D01*
X149473303Y-86593700D01*
X149467044Y-86568711D01*
X149463264Y-86543229D01*
X149462000Y-86517500D01*
X149462000Y-85892500D01*
X149463264Y-85866771D01*
X149467044Y-85841289D01*
X149473303Y-85816300D01*
X149481982Y-85792046D01*
X149492996Y-85768758D01*
X149506239Y-85746663D01*
X149521585Y-85725972D01*
X149538884Y-85706884D01*
X149557972Y-85689585D01*
X149578663Y-85674239D01*
X149600758Y-85660996D01*
X149624046Y-85649982D01*
X149648300Y-85641303D01*
X149673289Y-85635044D01*
X149698771Y-85631264D01*
X149724500Y-85630000D01*
X150249500Y-85630000D01*
X150275229Y-85631264D01*
X150275229Y-85631264D01*
G37*
D18*
X149987000Y-86205000D03*
G04 #@! TD*
D10*
G04 #@! TO.C,UVL*
G36*
X145322229Y-85631264D02*
X145347711Y-85635044D01*
X145372700Y-85641303D01*
X145396954Y-85649982D01*
X145420242Y-85660996D01*
X145442337Y-85674239D01*
X145463028Y-85689585D01*
X145482116Y-85706884D01*
X145499415Y-85725972D01*
X145514761Y-85746663D01*
X145528004Y-85768758D01*
X145539018Y-85792046D01*
X145547697Y-85816300D01*
X145553956Y-85841289D01*
X145557736Y-85866771D01*
X145559000Y-85892500D01*
X145559000Y-86517500D01*
X145557736Y-86543229D01*
X145553956Y-86568711D01*
X145547697Y-86593700D01*
X145539018Y-86617954D01*
X145528004Y-86641242D01*
X145514761Y-86663337D01*
X145499415Y-86684028D01*
X145482116Y-86703116D01*
X145463028Y-86720415D01*
X145442337Y-86735761D01*
X145420242Y-86749004D01*
X145396954Y-86760018D01*
X145372700Y-86768697D01*
X145347711Y-86774956D01*
X145322229Y-86778736D01*
X145296500Y-86780000D01*
X144771500Y-86780000D01*
X144745771Y-86778736D01*
X144720289Y-86774956D01*
X144695300Y-86768697D01*
X144671046Y-86760018D01*
X144647758Y-86749004D01*
X144625663Y-86735761D01*
X144604972Y-86720415D01*
X144585884Y-86703116D01*
X144568585Y-86684028D01*
X144553239Y-86663337D01*
X144539996Y-86641242D01*
X144528982Y-86617954D01*
X144520303Y-86593700D01*
X144514044Y-86568711D01*
X144510264Y-86543229D01*
X144509000Y-86517500D01*
X144509000Y-85892500D01*
X144510264Y-85866771D01*
X144514044Y-85841289D01*
X144520303Y-85816300D01*
X144528982Y-85792046D01*
X144539996Y-85768758D01*
X144553239Y-85746663D01*
X144568585Y-85725972D01*
X144585884Y-85706884D01*
X144604972Y-85689585D01*
X144625663Y-85674239D01*
X144647758Y-85660996D01*
X144671046Y-85649982D01*
X144695300Y-85641303D01*
X144720289Y-85635044D01*
X144745771Y-85631264D01*
X144771500Y-85630000D01*
X145296500Y-85630000D01*
X145322229Y-85631264D01*
X145322229Y-85631264D01*
G37*
D18*
X145034000Y-86205000D03*
D10*
G36*
X145322229Y-83881264D02*
X145347711Y-83885044D01*
X145372700Y-83891303D01*
X145396954Y-83899982D01*
X145420242Y-83910996D01*
X145442337Y-83924239D01*
X145463028Y-83939585D01*
X145482116Y-83956884D01*
X145499415Y-83975972D01*
X145514761Y-83996663D01*
X145528004Y-84018758D01*
X145539018Y-84042046D01*
X145547697Y-84066300D01*
X145553956Y-84091289D01*
X145557736Y-84116771D01*
X145559000Y-84142500D01*
X145559000Y-84767500D01*
X145557736Y-84793229D01*
X145553956Y-84818711D01*
X145547697Y-84843700D01*
X145539018Y-84867954D01*
X145528004Y-84891242D01*
X145514761Y-84913337D01*
X145499415Y-84934028D01*
X145482116Y-84953116D01*
X145463028Y-84970415D01*
X145442337Y-84985761D01*
X145420242Y-84999004D01*
X145396954Y-85010018D01*
X145372700Y-85018697D01*
X145347711Y-85024956D01*
X145322229Y-85028736D01*
X145296500Y-85030000D01*
X144771500Y-85030000D01*
X144745771Y-85028736D01*
X144720289Y-85024956D01*
X144695300Y-85018697D01*
X144671046Y-85010018D01*
X144647758Y-84999004D01*
X144625663Y-84985761D01*
X144604972Y-84970415D01*
X144585884Y-84953116D01*
X144568585Y-84934028D01*
X144553239Y-84913337D01*
X144539996Y-84891242D01*
X144528982Y-84867954D01*
X144520303Y-84843700D01*
X144514044Y-84818711D01*
X144510264Y-84793229D01*
X144509000Y-84767500D01*
X144509000Y-84142500D01*
X144510264Y-84116771D01*
X144514044Y-84091289D01*
X144520303Y-84066300D01*
X144528982Y-84042046D01*
X144539996Y-84018758D01*
X144553239Y-83996663D01*
X144568585Y-83975972D01*
X144585884Y-83956884D01*
X144604972Y-83939585D01*
X144625663Y-83924239D01*
X144647758Y-83910996D01*
X144671046Y-83899982D01*
X144695300Y-83891303D01*
X144720289Y-83885044D01*
X144745771Y-83881264D01*
X144771500Y-83880000D01*
X145296500Y-83880000D01*
X145322229Y-83881264D01*
X145322229Y-83881264D01*
G37*
D18*
X145034000Y-84455000D03*
G04 #@! TD*
D10*
G04 #@! TO.C,12C*
G36*
X146973229Y-85631264D02*
X146998711Y-85635044D01*
X147023700Y-85641303D01*
X147047954Y-85649982D01*
X147071242Y-85660996D01*
X147093337Y-85674239D01*
X147114028Y-85689585D01*
X147133116Y-85706884D01*
X147150415Y-85725972D01*
X147165761Y-85746663D01*
X147179004Y-85768758D01*
X147190018Y-85792046D01*
X147198697Y-85816300D01*
X147204956Y-85841289D01*
X147208736Y-85866771D01*
X147210000Y-85892500D01*
X147210000Y-86517500D01*
X147208736Y-86543229D01*
X147204956Y-86568711D01*
X147198697Y-86593700D01*
X147190018Y-86617954D01*
X147179004Y-86641242D01*
X147165761Y-86663337D01*
X147150415Y-86684028D01*
X147133116Y-86703116D01*
X147114028Y-86720415D01*
X147093337Y-86735761D01*
X147071242Y-86749004D01*
X147047954Y-86760018D01*
X147023700Y-86768697D01*
X146998711Y-86774956D01*
X146973229Y-86778736D01*
X146947500Y-86780000D01*
X146422500Y-86780000D01*
X146396771Y-86778736D01*
X146371289Y-86774956D01*
X146346300Y-86768697D01*
X146322046Y-86760018D01*
X146298758Y-86749004D01*
X146276663Y-86735761D01*
X146255972Y-86720415D01*
X146236884Y-86703116D01*
X146219585Y-86684028D01*
X146204239Y-86663337D01*
X146190996Y-86641242D01*
X146179982Y-86617954D01*
X146171303Y-86593700D01*
X146165044Y-86568711D01*
X146161264Y-86543229D01*
X146160000Y-86517500D01*
X146160000Y-85892500D01*
X146161264Y-85866771D01*
X146165044Y-85841289D01*
X146171303Y-85816300D01*
X146179982Y-85792046D01*
X146190996Y-85768758D01*
X146204239Y-85746663D01*
X146219585Y-85725972D01*
X146236884Y-85706884D01*
X146255972Y-85689585D01*
X146276663Y-85674239D01*
X146298758Y-85660996D01*
X146322046Y-85649982D01*
X146346300Y-85641303D01*
X146371289Y-85635044D01*
X146396771Y-85631264D01*
X146422500Y-85630000D01*
X146947500Y-85630000D01*
X146973229Y-85631264D01*
X146973229Y-85631264D01*
G37*
D18*
X146685000Y-86205000D03*
D10*
G36*
X146973229Y-83881264D02*
X146998711Y-83885044D01*
X147023700Y-83891303D01*
X147047954Y-83899982D01*
X147071242Y-83910996D01*
X147093337Y-83924239D01*
X147114028Y-83939585D01*
X147133116Y-83956884D01*
X147150415Y-83975972D01*
X147165761Y-83996663D01*
X147179004Y-84018758D01*
X147190018Y-84042046D01*
X147198697Y-84066300D01*
X147204956Y-84091289D01*
X147208736Y-84116771D01*
X147210000Y-84142500D01*
X147210000Y-84767500D01*
X147208736Y-84793229D01*
X147204956Y-84818711D01*
X147198697Y-84843700D01*
X147190018Y-84867954D01*
X147179004Y-84891242D01*
X147165761Y-84913337D01*
X147150415Y-84934028D01*
X147133116Y-84953116D01*
X147114028Y-84970415D01*
X147093337Y-84985761D01*
X147071242Y-84999004D01*
X147047954Y-85010018D01*
X147023700Y-85018697D01*
X146998711Y-85024956D01*
X146973229Y-85028736D01*
X146947500Y-85030000D01*
X146422500Y-85030000D01*
X146396771Y-85028736D01*
X146371289Y-85024956D01*
X146346300Y-85018697D01*
X146322046Y-85010018D01*
X146298758Y-84999004D01*
X146276663Y-84985761D01*
X146255972Y-84970415D01*
X146236884Y-84953116D01*
X146219585Y-84934028D01*
X146204239Y-84913337D01*
X146190996Y-84891242D01*
X146179982Y-84867954D01*
X146171303Y-84843700D01*
X146165044Y-84818711D01*
X146161264Y-84793229D01*
X146160000Y-84767500D01*
X146160000Y-84142500D01*
X146161264Y-84116771D01*
X146165044Y-84091289D01*
X146171303Y-84066300D01*
X146179982Y-84042046D01*
X146190996Y-84018758D01*
X146204239Y-83996663D01*
X146219585Y-83975972D01*
X146236884Y-83956884D01*
X146255972Y-83939585D01*
X146276663Y-83924239D01*
X146298758Y-83910996D01*
X146322046Y-83899982D01*
X146346300Y-83891303D01*
X146371289Y-83885044D01*
X146396771Y-83881264D01*
X146422500Y-83880000D01*
X146947500Y-83880000D01*
X146973229Y-83881264D01*
X146973229Y-83881264D01*
G37*
D18*
X146685000Y-84455000D03*
G04 #@! TD*
D10*
G04 #@! TO.C,3V3*
G36*
X148624229Y-83881264D02*
X148649711Y-83885044D01*
X148674700Y-83891303D01*
X148698954Y-83899982D01*
X148722242Y-83910996D01*
X148744337Y-83924239D01*
X148765028Y-83939585D01*
X148784116Y-83956884D01*
X148801415Y-83975972D01*
X148816761Y-83996663D01*
X148830004Y-84018758D01*
X148841018Y-84042046D01*
X148849697Y-84066300D01*
X148855956Y-84091289D01*
X148859736Y-84116771D01*
X148861000Y-84142500D01*
X148861000Y-84767500D01*
X148859736Y-84793229D01*
X148855956Y-84818711D01*
X148849697Y-84843700D01*
X148841018Y-84867954D01*
X148830004Y-84891242D01*
X148816761Y-84913337D01*
X148801415Y-84934028D01*
X148784116Y-84953116D01*
X148765028Y-84970415D01*
X148744337Y-84985761D01*
X148722242Y-84999004D01*
X148698954Y-85010018D01*
X148674700Y-85018697D01*
X148649711Y-85024956D01*
X148624229Y-85028736D01*
X148598500Y-85030000D01*
X148073500Y-85030000D01*
X148047771Y-85028736D01*
X148022289Y-85024956D01*
X147997300Y-85018697D01*
X147973046Y-85010018D01*
X147949758Y-84999004D01*
X147927663Y-84985761D01*
X147906972Y-84970415D01*
X147887884Y-84953116D01*
X147870585Y-84934028D01*
X147855239Y-84913337D01*
X147841996Y-84891242D01*
X147830982Y-84867954D01*
X147822303Y-84843700D01*
X147816044Y-84818711D01*
X147812264Y-84793229D01*
X147811000Y-84767500D01*
X147811000Y-84142500D01*
X147812264Y-84116771D01*
X147816044Y-84091289D01*
X147822303Y-84066300D01*
X147830982Y-84042046D01*
X147841996Y-84018758D01*
X147855239Y-83996663D01*
X147870585Y-83975972D01*
X147887884Y-83956884D01*
X147906972Y-83939585D01*
X147927663Y-83924239D01*
X147949758Y-83910996D01*
X147973046Y-83899982D01*
X147997300Y-83891303D01*
X148022289Y-83885044D01*
X148047771Y-83881264D01*
X148073500Y-83880000D01*
X148598500Y-83880000D01*
X148624229Y-83881264D01*
X148624229Y-83881264D01*
G37*
D18*
X148336000Y-84455000D03*
D10*
G36*
X148624229Y-85631264D02*
X148649711Y-85635044D01*
X148674700Y-85641303D01*
X148698954Y-85649982D01*
X148722242Y-85660996D01*
X148744337Y-85674239D01*
X148765028Y-85689585D01*
X148784116Y-85706884D01*
X148801415Y-85725972D01*
X148816761Y-85746663D01*
X148830004Y-85768758D01*
X148841018Y-85792046D01*
X148849697Y-85816300D01*
X148855956Y-85841289D01*
X148859736Y-85866771D01*
X148861000Y-85892500D01*
X148861000Y-86517500D01*
X148859736Y-86543229D01*
X148855956Y-86568711D01*
X148849697Y-86593700D01*
X148841018Y-86617954D01*
X148830004Y-86641242D01*
X148816761Y-86663337D01*
X148801415Y-86684028D01*
X148784116Y-86703116D01*
X148765028Y-86720415D01*
X148744337Y-86735761D01*
X148722242Y-86749004D01*
X148698954Y-86760018D01*
X148674700Y-86768697D01*
X148649711Y-86774956D01*
X148624229Y-86778736D01*
X148598500Y-86780000D01*
X148073500Y-86780000D01*
X148047771Y-86778736D01*
X148022289Y-86774956D01*
X147997300Y-86768697D01*
X147973046Y-86760018D01*
X147949758Y-86749004D01*
X147927663Y-86735761D01*
X147906972Y-86720415D01*
X147887884Y-86703116D01*
X147870585Y-86684028D01*
X147855239Y-86663337D01*
X147841996Y-86641242D01*
X147830982Y-86617954D01*
X147822303Y-86593700D01*
X147816044Y-86568711D01*
X147812264Y-86543229D01*
X147811000Y-86517500D01*
X147811000Y-85892500D01*
X147812264Y-85866771D01*
X147816044Y-85841289D01*
X147822303Y-85816300D01*
X147830982Y-85792046D01*
X147841996Y-85768758D01*
X147855239Y-85746663D01*
X147870585Y-85725972D01*
X147887884Y-85706884D01*
X147906972Y-85689585D01*
X147927663Y-85674239D01*
X147949758Y-85660996D01*
X147973046Y-85649982D01*
X147997300Y-85641303D01*
X148022289Y-85635044D01*
X148047771Y-85631264D01*
X148073500Y-85630000D01*
X148598500Y-85630000D01*
X148624229Y-85631264D01*
X148624229Y-85631264D01*
G37*
D18*
X148336000Y-86205000D03*
G04 #@! TD*
D23*
G04 #@! TO.C,*
X121839056Y-65358944D03*
X120142000Y-64656000D03*
X118444944Y-65358944D03*
X117742000Y-67056000D03*
X118444944Y-68753056D03*
X120142000Y-69456000D03*
X121839056Y-68753056D03*
X122542000Y-67056000D03*
D24*
X120142000Y-67056000D03*
G04 #@! TD*
G04 #@! TO.C,*
X173228000Y-67056000D03*
D23*
X175628000Y-67056000D03*
X174925056Y-68753056D03*
X173228000Y-69456000D03*
X171530944Y-68753056D03*
X170828000Y-67056000D03*
X171530944Y-65358944D03*
X173228000Y-64656000D03*
X174925056Y-65358944D03*
G04 #@! TD*
D24*
G04 #@! TO.C,*
X173228000Y-86614000D03*
D23*
X175628000Y-86614000D03*
X174925056Y-88311056D03*
X173228000Y-89014000D03*
X171530944Y-88311056D03*
X170828000Y-86614000D03*
X171530944Y-84916944D03*
X173228000Y-84214000D03*
X174925056Y-84916944D03*
G04 #@! TD*
D25*
G04 #@! TO.C,*
X128651000Y-71755000D03*
D26*
X126111000Y-71755000D03*
G04 #@! TD*
G04 #@! TO.C,*
X133096000Y-71755000D03*
D25*
X135636000Y-71755000D03*
G04 #@! TD*
D27*
G04 #@! TO.C,*
X159908000Y-77472114D03*
X164958000Y-77472114D03*
X159908000Y-80012114D03*
X164958000Y-80012114D03*
X159908000Y-82552114D03*
X164958000Y-82552114D03*
G04 #@! TD*
D28*
G04 #@! TO.C,*
X171455000Y-80246200D03*
X171455000Y-73946200D03*
X175255000Y-80246200D03*
X175255000Y-73946200D03*
G04 #@! TD*
M02*
