G04 #@! TF.GenerationSoftware,KiCad,Pcbnew,5.0.2+dfsg1-1*
G04 #@! TF.CreationDate,2021-06-07T16:10:35-04:00*
G04 #@! TF.ProjectId,KyberBoard,4b796265-7242-46f6-9172-642e6b696361,rev?*
G04 #@! TF.SameCoordinates,Original*
G04 #@! TF.FileFunction,Legend,Bot*
G04 #@! TF.FilePolarity,Positive*
%FSLAX46Y46*%
G04 Gerber Fmt 4.6, Leading zero omitted, Abs format (unit mm)*
G04 Created by KiCad (PCBNEW 5.0.2+dfsg1-1) date Mon 07 Jun 2021 04:10:35 PM EDT*
%MOMM*%
%LPD*%
G01*
G04 APERTURE LIST*
%ADD10C,0.152400*%
%ADD11C,0.127000*%
%ADD12C,0.150000*%
%ADD13C,0.120000*%
%ADD14C,0.010000*%
G04 APERTURE END LIST*
D10*
X146064514Y-66026695D02*
X146451561Y-66026695D01*
X146451561Y-65213895D01*
X145793580Y-65600942D02*
X145522647Y-65600942D01*
X145406533Y-66026695D02*
X145793580Y-66026695D01*
X145793580Y-65213895D01*
X145406533Y-65213895D01*
X145058190Y-66026695D02*
X145058190Y-65213895D01*
X144864666Y-65213895D01*
X144748552Y-65252600D01*
X144671142Y-65330009D01*
X144632438Y-65407419D01*
X144593733Y-65562238D01*
X144593733Y-65678352D01*
X144632438Y-65833171D01*
X144671142Y-65910580D01*
X144748552Y-65987990D01*
X144864666Y-66026695D01*
X145058190Y-66026695D01*
X152073428Y-65987990D02*
X151957314Y-66026695D01*
X151763790Y-66026695D01*
X151686380Y-65987990D01*
X151647676Y-65949285D01*
X151608971Y-65871876D01*
X151608971Y-65794466D01*
X151647676Y-65717057D01*
X151686380Y-65678352D01*
X151763790Y-65639647D01*
X151918609Y-65600942D01*
X151996019Y-65562238D01*
X152034723Y-65523533D01*
X152073428Y-65446123D01*
X152073428Y-65368714D01*
X152034723Y-65291304D01*
X151996019Y-65252600D01*
X151918609Y-65213895D01*
X151725085Y-65213895D01*
X151608971Y-65252600D01*
X151260628Y-66026695D02*
X151260628Y-65213895D01*
X150950990Y-65213895D01*
X150873580Y-65252600D01*
X150834876Y-65291304D01*
X150796171Y-65368714D01*
X150796171Y-65484828D01*
X150834876Y-65562238D01*
X150873580Y-65600942D01*
X150950990Y-65639647D01*
X151260628Y-65639647D01*
X150447828Y-66026695D02*
X150447828Y-65213895D01*
X149983371Y-66026695D02*
X150331714Y-65562238D01*
X149983371Y-65213895D02*
X150447828Y-65678352D01*
X149170571Y-66026695D02*
X149441504Y-65639647D01*
X149635028Y-66026695D02*
X149635028Y-65213895D01*
X149325390Y-65213895D01*
X149247980Y-65252600D01*
X149209276Y-65291304D01*
X149170571Y-65368714D01*
X149170571Y-65484828D01*
X149209276Y-65562238D01*
X149247980Y-65600942D01*
X149325390Y-65639647D01*
X149635028Y-65639647D01*
D11*
X170154285Y-63954428D02*
X170047142Y-63990142D01*
X170011428Y-64025857D01*
X169975714Y-64097285D01*
X169975714Y-64204428D01*
X170011428Y-64275857D01*
X170047142Y-64311571D01*
X170118571Y-64347285D01*
X170404285Y-64347285D01*
X170404285Y-63597285D01*
X170154285Y-63597285D01*
X170082857Y-63633000D01*
X170047142Y-63668714D01*
X170011428Y-63740142D01*
X170011428Y-63811571D01*
X170047142Y-63883000D01*
X170082857Y-63918714D01*
X170154285Y-63954428D01*
X170404285Y-63954428D01*
X169725714Y-63847285D02*
X169547142Y-64347285D01*
X169368571Y-63847285D02*
X169547142Y-64347285D01*
X169618571Y-64525857D01*
X169654285Y-64561571D01*
X169725714Y-64597285D01*
X168618571Y-63847285D02*
X168332857Y-63847285D01*
X168511428Y-63597285D02*
X168511428Y-64240142D01*
X168475714Y-64311571D01*
X168404285Y-64347285D01*
X168332857Y-64347285D01*
X168082857Y-64347285D02*
X168082857Y-63597285D01*
X167761428Y-64347285D02*
X167761428Y-63954428D01*
X167797142Y-63883000D01*
X167868571Y-63847285D01*
X167975714Y-63847285D01*
X168047142Y-63883000D01*
X168082857Y-63918714D01*
X167118571Y-64311571D02*
X167190000Y-64347285D01*
X167332857Y-64347285D01*
X167404285Y-64311571D01*
X167440000Y-64240142D01*
X167440000Y-63954428D01*
X167404285Y-63883000D01*
X167332857Y-63847285D01*
X167190000Y-63847285D01*
X167118571Y-63883000D01*
X167082857Y-63954428D01*
X167082857Y-64025857D01*
X167440000Y-64097285D01*
X166190000Y-64347285D02*
X166190000Y-63847285D01*
X166190000Y-63990142D02*
X166154285Y-63918714D01*
X166118571Y-63883000D01*
X166047142Y-63847285D01*
X165975714Y-63847285D01*
X165725714Y-64347285D02*
X165725714Y-63847285D01*
X165725714Y-63597285D02*
X165761428Y-63633000D01*
X165725714Y-63668714D01*
X165690000Y-63633000D01*
X165725714Y-63597285D01*
X165725714Y-63668714D01*
X165047142Y-63847285D02*
X165047142Y-64454428D01*
X165082857Y-64525857D01*
X165118571Y-64561571D01*
X165190000Y-64597285D01*
X165297142Y-64597285D01*
X165368571Y-64561571D01*
X165047142Y-64311571D02*
X165118571Y-64347285D01*
X165261428Y-64347285D01*
X165332857Y-64311571D01*
X165368571Y-64275857D01*
X165404285Y-64204428D01*
X165404285Y-63990142D01*
X165368571Y-63918714D01*
X165332857Y-63883000D01*
X165261428Y-63847285D01*
X165118571Y-63847285D01*
X165047142Y-63883000D01*
X164690000Y-64347285D02*
X164690000Y-63597285D01*
X164368571Y-64347285D02*
X164368571Y-63954428D01*
X164404285Y-63883000D01*
X164475714Y-63847285D01*
X164582857Y-63847285D01*
X164654285Y-63883000D01*
X164690000Y-63918714D01*
X164118571Y-63847285D02*
X163832857Y-63847285D01*
X164011428Y-63597285D02*
X164011428Y-64240142D01*
X163975714Y-64311571D01*
X163904285Y-64347285D01*
X163832857Y-64347285D01*
X162904285Y-64347285D02*
X162975714Y-64311571D01*
X163011428Y-64275857D01*
X163047142Y-64204428D01*
X163047142Y-63990142D01*
X163011428Y-63918714D01*
X162975714Y-63883000D01*
X162904285Y-63847285D01*
X162797142Y-63847285D01*
X162725714Y-63883000D01*
X162690000Y-63918714D01*
X162654285Y-63990142D01*
X162654285Y-64204428D01*
X162690000Y-64275857D01*
X162725714Y-64311571D01*
X162797142Y-64347285D01*
X162904285Y-64347285D01*
X162440000Y-63847285D02*
X162154285Y-63847285D01*
X162332857Y-64347285D02*
X162332857Y-63704428D01*
X162297142Y-63633000D01*
X162225714Y-63597285D01*
X162154285Y-63597285D01*
X161440000Y-63847285D02*
X161154285Y-63847285D01*
X161332857Y-63597285D02*
X161332857Y-64240142D01*
X161297142Y-64311571D01*
X161225714Y-64347285D01*
X161154285Y-64347285D01*
X160904285Y-64347285D02*
X160904285Y-63597285D01*
X160582857Y-64347285D02*
X160582857Y-63954428D01*
X160618571Y-63883000D01*
X160690000Y-63847285D01*
X160797142Y-63847285D01*
X160868571Y-63883000D01*
X160904285Y-63918714D01*
X159940000Y-64311571D02*
X160011428Y-64347285D01*
X160154285Y-64347285D01*
X160225714Y-64311571D01*
X160261428Y-64240142D01*
X160261428Y-63954428D01*
X160225714Y-63883000D01*
X160154285Y-63847285D01*
X160011428Y-63847285D01*
X159940000Y-63883000D01*
X159904285Y-63954428D01*
X159904285Y-64025857D01*
X160261428Y-64097285D01*
X158582857Y-64275857D02*
X158618571Y-64311571D01*
X158725714Y-64347285D01*
X158797142Y-64347285D01*
X158904285Y-64311571D01*
X158975714Y-64240142D01*
X159011428Y-64168714D01*
X159047142Y-64025857D01*
X159047142Y-63918714D01*
X159011428Y-63775857D01*
X158975714Y-63704428D01*
X158904285Y-63633000D01*
X158797142Y-63597285D01*
X158725714Y-63597285D01*
X158618571Y-63633000D01*
X158582857Y-63668714D01*
X158154285Y-64347285D02*
X158225714Y-64311571D01*
X158261428Y-64275857D01*
X158297142Y-64204428D01*
X158297142Y-63990142D01*
X158261428Y-63918714D01*
X158225714Y-63883000D01*
X158154285Y-63847285D01*
X158047142Y-63847285D01*
X157975714Y-63883000D01*
X157940000Y-63918714D01*
X157904285Y-63990142D01*
X157904285Y-64204428D01*
X157940000Y-64275857D01*
X157975714Y-64311571D01*
X158047142Y-64347285D01*
X158154285Y-64347285D01*
X157261428Y-63847285D02*
X157261428Y-64347285D01*
X157582857Y-63847285D02*
X157582857Y-64240142D01*
X157547142Y-64311571D01*
X157475714Y-64347285D01*
X157368571Y-64347285D01*
X157297142Y-64311571D01*
X157261428Y-64275857D01*
X156904285Y-63847285D02*
X156904285Y-64347285D01*
X156904285Y-63918714D02*
X156868571Y-63883000D01*
X156797142Y-63847285D01*
X156690000Y-63847285D01*
X156618571Y-63883000D01*
X156582857Y-63954428D01*
X156582857Y-64347285D01*
X155904285Y-64311571D02*
X155975714Y-64347285D01*
X156118571Y-64347285D01*
X156190000Y-64311571D01*
X156225714Y-64275857D01*
X156261428Y-64204428D01*
X156261428Y-63990142D01*
X156225714Y-63918714D01*
X156190000Y-63883000D01*
X156118571Y-63847285D01*
X155975714Y-63847285D01*
X155904285Y-63883000D01*
X155582857Y-64347285D02*
X155582857Y-63847285D01*
X155582857Y-63597285D02*
X155618571Y-63633000D01*
X155582857Y-63668714D01*
X155547142Y-63633000D01*
X155582857Y-63597285D01*
X155582857Y-63668714D01*
X155118571Y-64347285D02*
X155190000Y-64311571D01*
X155225714Y-64240142D01*
X155225714Y-63597285D01*
X154797142Y-64311571D02*
X154797142Y-64347285D01*
X154832857Y-64418714D01*
X154868571Y-64454428D01*
X153904285Y-64347285D02*
X153904285Y-63597285D01*
X153904285Y-63883000D02*
X153832857Y-63847285D01*
X153690000Y-63847285D01*
X153618571Y-63883000D01*
X153582857Y-63918714D01*
X153547142Y-63990142D01*
X153547142Y-64204428D01*
X153582857Y-64275857D01*
X153618571Y-64311571D01*
X153690000Y-64347285D01*
X153832857Y-64347285D01*
X153904285Y-64311571D01*
X153297142Y-63847285D02*
X153118571Y-64347285D01*
X152940000Y-63847285D02*
X153118571Y-64347285D01*
X153190000Y-64525857D01*
X153225714Y-64561571D01*
X153297142Y-64597285D01*
X152190000Y-63847285D02*
X151904285Y-63847285D01*
X152082857Y-63597285D02*
X152082857Y-64240142D01*
X152047142Y-64311571D01*
X151975714Y-64347285D01*
X151904285Y-64347285D01*
X151654285Y-64347285D02*
X151654285Y-63597285D01*
X151332857Y-64347285D02*
X151332857Y-63954428D01*
X151368571Y-63883000D01*
X151440000Y-63847285D01*
X151547142Y-63847285D01*
X151618571Y-63883000D01*
X151654285Y-63918714D01*
X150690000Y-64311571D02*
X150761428Y-64347285D01*
X150904285Y-64347285D01*
X150975714Y-64311571D01*
X151011428Y-64240142D01*
X151011428Y-63954428D01*
X150975714Y-63883000D01*
X150904285Y-63847285D01*
X150761428Y-63847285D01*
X150690000Y-63883000D01*
X150654285Y-63954428D01*
X150654285Y-64025857D01*
X151011428Y-64097285D01*
X149832857Y-63847285D02*
X149690000Y-64347285D01*
X149547142Y-63990142D01*
X149404285Y-64347285D01*
X149261428Y-63847285D01*
X148975714Y-64347285D02*
X148975714Y-63847285D01*
X148975714Y-63597285D02*
X149011428Y-63633000D01*
X148975714Y-63668714D01*
X148940000Y-63633000D01*
X148975714Y-63597285D01*
X148975714Y-63668714D01*
X148511428Y-64347285D02*
X148582857Y-64311571D01*
X148618571Y-64240142D01*
X148618571Y-63597285D01*
X148118571Y-64347285D02*
X148190000Y-64311571D01*
X148225714Y-64240142D01*
X148225714Y-63597285D01*
X147154285Y-64347285D02*
X147225714Y-64311571D01*
X147261428Y-64275857D01*
X147297142Y-64204428D01*
X147297142Y-63990142D01*
X147261428Y-63918714D01*
X147225714Y-63883000D01*
X147154285Y-63847285D01*
X147047142Y-63847285D01*
X146975714Y-63883000D01*
X146940000Y-63918714D01*
X146904285Y-63990142D01*
X146904285Y-64204428D01*
X146940000Y-64275857D01*
X146975714Y-64311571D01*
X147047142Y-64347285D01*
X147154285Y-64347285D01*
X146690000Y-63847285D02*
X146404285Y-63847285D01*
X146582857Y-64347285D02*
X146582857Y-63704428D01*
X146547142Y-63633000D01*
X146475714Y-63597285D01*
X146404285Y-63597285D01*
X145690000Y-63847285D02*
X145404285Y-63847285D01*
X145582857Y-63597285D02*
X145582857Y-64240142D01*
X145547142Y-64311571D01*
X145475714Y-64347285D01*
X145404285Y-64347285D01*
X145154285Y-64347285D02*
X145154285Y-63597285D01*
X144832857Y-64347285D02*
X144832857Y-63954428D01*
X144868571Y-63883000D01*
X144940000Y-63847285D01*
X145047142Y-63847285D01*
X145118571Y-63883000D01*
X145154285Y-63918714D01*
X144190000Y-64311571D02*
X144261428Y-64347285D01*
X144404285Y-64347285D01*
X144475714Y-64311571D01*
X144511428Y-64240142D01*
X144511428Y-63954428D01*
X144475714Y-63883000D01*
X144404285Y-63847285D01*
X144261428Y-63847285D01*
X144190000Y-63883000D01*
X144154285Y-63954428D01*
X144154285Y-64025857D01*
X144511428Y-64097285D01*
X143011428Y-63954428D02*
X143261428Y-63954428D01*
X143261428Y-64347285D02*
X143261428Y-63597285D01*
X142904285Y-63597285D01*
X142511428Y-64347285D02*
X142582857Y-64311571D01*
X142618571Y-64275857D01*
X142654285Y-64204428D01*
X142654285Y-63990142D01*
X142618571Y-63918714D01*
X142582857Y-63883000D01*
X142511428Y-63847285D01*
X142404285Y-63847285D01*
X142332857Y-63883000D01*
X142297142Y-63918714D01*
X142261428Y-63990142D01*
X142261428Y-64204428D01*
X142297142Y-64275857D01*
X142332857Y-64311571D01*
X142404285Y-64347285D01*
X142511428Y-64347285D01*
X141940000Y-64347285D02*
X141940000Y-63847285D01*
X141940000Y-63990142D02*
X141904285Y-63918714D01*
X141868571Y-63883000D01*
X141797142Y-63847285D01*
X141725714Y-63847285D01*
X141154285Y-64311571D02*
X141225714Y-64347285D01*
X141368571Y-64347285D01*
X141440000Y-64311571D01*
X141475714Y-64275857D01*
X141511428Y-64204428D01*
X141511428Y-63990142D01*
X141475714Y-63918714D01*
X141440000Y-63883000D01*
X141368571Y-63847285D01*
X141225714Y-63847285D01*
X141154285Y-63883000D01*
X140547142Y-64311571D02*
X140618571Y-64347285D01*
X140761428Y-64347285D01*
X140832857Y-64311571D01*
X140868571Y-64240142D01*
X140868571Y-63954428D01*
X140832857Y-63883000D01*
X140761428Y-63847285D01*
X140618571Y-63847285D01*
X140547142Y-63883000D01*
X140511428Y-63954428D01*
X140511428Y-64025857D01*
X140868571Y-64097285D01*
X140190000Y-64275857D02*
X140154285Y-64311571D01*
X140190000Y-64347285D01*
X140225714Y-64311571D01*
X140190000Y-64275857D01*
X140190000Y-64347285D01*
X139832857Y-64275857D02*
X139797142Y-64311571D01*
X139832857Y-64347285D01*
X139868571Y-64311571D01*
X139832857Y-64275857D01*
X139832857Y-64347285D01*
X139475714Y-64275857D02*
X139440000Y-64311571D01*
X139475714Y-64347285D01*
X139511428Y-64311571D01*
X139475714Y-64275857D01*
X139475714Y-64347285D01*
D12*
X116332000Y-67056000D02*
G75*
G02X120142000Y-63246000I3810000J0D01*
G01*
X120142000Y-90424000D02*
G75*
G02X116332000Y-86614000I0J3810000D01*
G01*
X116332000Y-86614000D02*
X116332000Y-67056000D01*
X173228000Y-90424000D02*
X120142000Y-90424000D01*
X173228000Y-63246000D02*
X120142000Y-63246000D01*
X177038000Y-86614000D02*
X177038000Y-67056000D01*
X177038000Y-86614000D02*
G75*
G02X173228000Y-90424000I-3810000J0D01*
G01*
X173228000Y-63246000D02*
G75*
G02X177038000Y-67056000I0J-3810000D01*
G01*
G04 #@! TO.C,U4*
X172593000Y-80899000D02*
X172593000Y-80137000D01*
X169333000Y-77618000D02*
X169533000Y-77618000D01*
X169333000Y-77618000D02*
X169333000Y-77818000D01*
X172583000Y-77618000D02*
X172583000Y-77818000D01*
X172583000Y-77618000D02*
X172383000Y-77618000D01*
X169333000Y-80868000D02*
X169533000Y-80868000D01*
X169333000Y-80868000D02*
X169333000Y-80668000D01*
D13*
G04 #@! TO.C,C15*
X175004000Y-77450767D02*
X175004000Y-77108233D01*
X176024000Y-77450767D02*
X176024000Y-77108233D01*
D14*
G04 #@! TO.C,G\002A\002A\002A*
G36*
X157457108Y-85201435D02*
X157441335Y-85202328D01*
X157427687Y-85203697D01*
X157425051Y-85204063D01*
X157388774Y-85211095D01*
X157353657Y-85221255D01*
X157319865Y-85234438D01*
X157287561Y-85250542D01*
X157256909Y-85269463D01*
X157228072Y-85291097D01*
X157201213Y-85315342D01*
X157176497Y-85342093D01*
X157154087Y-85371248D01*
X157148988Y-85378713D01*
X157140057Y-85393130D01*
X157130873Y-85409787D01*
X157121950Y-85427627D01*
X157113803Y-85445590D01*
X157106945Y-85462620D01*
X157103619Y-85472085D01*
X157095433Y-85500023D01*
X157089540Y-85527214D01*
X157085776Y-85554707D01*
X157083975Y-85583550D01*
X157083760Y-85598693D01*
X157085423Y-85635238D01*
X157090365Y-85671115D01*
X157098510Y-85706150D01*
X157109787Y-85740164D01*
X157124122Y-85772982D01*
X157141442Y-85804427D01*
X157161673Y-85834322D01*
X157184743Y-85862491D01*
X157199713Y-85878287D01*
X157226828Y-85903047D01*
X157255811Y-85925008D01*
X157286534Y-85944108D01*
X157318870Y-85960284D01*
X157352691Y-85973475D01*
X157387870Y-85983616D01*
X157424279Y-85990648D01*
X157431404Y-85991637D01*
X157442144Y-85992687D01*
X157455326Y-85993435D01*
X157470017Y-85993873D01*
X157485284Y-85993997D01*
X157500194Y-85993799D01*
X157513816Y-85993274D01*
X157525216Y-85992415D01*
X157526567Y-85992269D01*
X157557383Y-85987327D01*
X157588787Y-85979495D01*
X157620082Y-85969016D01*
X157650568Y-85956133D01*
X157679550Y-85941088D01*
X157688271Y-85935931D01*
X157717318Y-85916262D01*
X157744686Y-85893817D01*
X157770093Y-85868906D01*
X157793258Y-85841838D01*
X157813898Y-85812923D01*
X157831732Y-85782470D01*
X157836405Y-85773260D01*
X157850113Y-85742573D01*
X157860829Y-85712351D01*
X157868703Y-85681954D01*
X157873883Y-85650739D01*
X157876516Y-85618065D01*
X157876935Y-85598000D01*
X157876387Y-85572315D01*
X157875906Y-85565959D01*
X157843280Y-85565959D01*
X157842269Y-85597543D01*
X157838272Y-85628744D01*
X157837421Y-85633321D01*
X157835603Y-85642320D01*
X157833821Y-85650480D01*
X157832217Y-85657205D01*
X157830935Y-85661901D01*
X157830117Y-85663972D01*
X157830032Y-85664020D01*
X157826863Y-85663367D01*
X157821532Y-85661823D01*
X157815036Y-85659713D01*
X157808371Y-85657363D01*
X157802537Y-85655098D01*
X157801942Y-85654849D01*
X157793992Y-85651179D01*
X157791997Y-85650110D01*
X157718760Y-85650110D01*
X157717309Y-85651196D01*
X157713229Y-85653561D01*
X157706928Y-85656985D01*
X157698813Y-85661251D01*
X157689294Y-85666140D01*
X157681083Y-85670281D01*
X157664425Y-85678804D01*
X157650543Y-85686393D01*
X157639064Y-85693363D01*
X157629618Y-85700028D01*
X157621833Y-85706703D01*
X157615335Y-85713705D01*
X157609755Y-85721347D01*
X157604719Y-85729946D01*
X157600397Y-85738653D01*
X157596725Y-85747096D01*
X157593555Y-85755825D01*
X157590731Y-85765442D01*
X157588096Y-85776547D01*
X157585494Y-85789743D01*
X157582770Y-85805631D01*
X157582390Y-85807973D01*
X157577716Y-85835423D01*
X157573009Y-85859717D01*
X157568195Y-85881085D01*
X157563200Y-85899758D01*
X157557947Y-85915964D01*
X157552364Y-85929935D01*
X157546373Y-85941901D01*
X157539902Y-85952091D01*
X157532875Y-85960737D01*
X157532612Y-85961021D01*
X157523086Y-85969520D01*
X157513285Y-85974739D01*
X157502972Y-85976787D01*
X157498070Y-85976699D01*
X157492626Y-85976143D01*
X157488703Y-85975516D01*
X157487369Y-85975080D01*
X157487551Y-85974529D01*
X157474920Y-85974529D01*
X157473349Y-85975674D01*
X157469089Y-85976407D01*
X157462821Y-85976651D01*
X157457563Y-85976488D01*
X157447106Y-85974612D01*
X157440348Y-85971552D01*
X157430748Y-85964104D01*
X157421735Y-85953351D01*
X157413295Y-85939277D01*
X157411557Y-85935820D01*
X157406682Y-85925127D01*
X157402244Y-85913781D01*
X157398134Y-85901376D01*
X157394246Y-85887504D01*
X157390470Y-85871760D01*
X157386700Y-85853739D01*
X157382827Y-85833033D01*
X157380000Y-85816733D01*
X157376857Y-85798638D01*
X157373999Y-85783456D01*
X157371295Y-85770740D01*
X157368614Y-85760040D01*
X157365822Y-85750910D01*
X157362789Y-85742902D01*
X157359382Y-85735567D01*
X157355470Y-85728458D01*
X157352647Y-85723831D01*
X157347440Y-85716285D01*
X157341577Y-85709356D01*
X157334701Y-85702796D01*
X157326460Y-85696352D01*
X157316500Y-85689775D01*
X157304466Y-85682814D01*
X157290005Y-85675218D01*
X157272763Y-85666736D01*
X157270397Y-85665603D01*
X157259838Y-85660438D01*
X157251615Y-85656166D01*
X157245938Y-85652906D01*
X157243019Y-85650776D01*
X157242723Y-85650026D01*
X157245260Y-85649213D01*
X157250464Y-85648699D01*
X157257632Y-85648470D01*
X157266060Y-85648511D01*
X157275043Y-85648807D01*
X157283878Y-85649344D01*
X157291860Y-85650107D01*
X157298285Y-85651081D01*
X157298813Y-85651190D01*
X157317784Y-85656040D01*
X157337443Y-85662593D01*
X157356940Y-85670480D01*
X157375427Y-85679334D01*
X157392053Y-85688786D01*
X157403377Y-85696481D01*
X157417347Y-85706909D01*
X157417387Y-85729078D01*
X157417729Y-85745636D01*
X157418644Y-85764525D01*
X157420049Y-85784754D01*
X157421863Y-85805331D01*
X157424001Y-85825266D01*
X157426380Y-85843566D01*
X157427668Y-85852000D01*
X157432664Y-85878427D01*
X157438639Y-85902297D01*
X157445536Y-85923450D01*
X157453297Y-85941726D01*
X157461865Y-85956962D01*
X157468330Y-85965757D01*
X157471806Y-85970065D01*
X157474194Y-85973270D01*
X157474920Y-85974529D01*
X157487551Y-85974529D01*
X157487913Y-85973437D01*
X157490096Y-85969815D01*
X157493486Y-85964914D01*
X157494523Y-85963501D01*
X157503177Y-85950149D01*
X157510954Y-85934507D01*
X157517882Y-85916453D01*
X157523986Y-85895865D01*
X157529293Y-85872623D01*
X157533829Y-85846603D01*
X157537619Y-85817685D01*
X157540691Y-85785746D01*
X157543069Y-85750665D01*
X157543974Y-85732620D01*
X157545193Y-85705527D01*
X157557047Y-85696536D01*
X157569368Y-85688237D01*
X157584236Y-85679917D01*
X157600833Y-85671931D01*
X157618338Y-85664632D01*
X157635934Y-85658374D01*
X157652801Y-85653509D01*
X157661187Y-85651612D01*
X157668537Y-85650411D01*
X157677070Y-85649454D01*
X157686170Y-85648755D01*
X157695218Y-85648332D01*
X157703596Y-85648200D01*
X157710687Y-85648376D01*
X157715873Y-85648875D01*
X157718537Y-85649713D01*
X157718760Y-85650110D01*
X157791997Y-85650110D01*
X157785443Y-85646599D01*
X157775815Y-85640818D01*
X157764626Y-85633543D01*
X157751395Y-85624484D01*
X157748247Y-85622282D01*
X157727780Y-85607919D01*
X157728511Y-85569516D01*
X157728687Y-85551893D01*
X157728435Y-85536935D01*
X157727685Y-85523937D01*
X157726364Y-85512197D01*
X157724400Y-85501011D01*
X157721723Y-85489676D01*
X157719599Y-85482007D01*
X157714543Y-85466662D01*
X157708536Y-85451922D01*
X157701863Y-85438304D01*
X157694808Y-85426323D01*
X157687656Y-85416494D01*
X157680691Y-85409335D01*
X157678664Y-85407772D01*
X157667605Y-85400942D01*
X157656948Y-85396652D01*
X157645427Y-85394497D01*
X157635787Y-85394038D01*
X157627799Y-85394106D01*
X157622055Y-85394552D01*
X157617416Y-85395585D01*
X157612741Y-85397417D01*
X157609689Y-85398869D01*
X157600823Y-85404376D01*
X157591485Y-85412137D01*
X157582539Y-85421293D01*
X157574851Y-85430987D01*
X157570822Y-85437379D01*
X157567116Y-85444316D01*
X157563854Y-85451109D01*
X157560858Y-85458273D01*
X157557952Y-85466324D01*
X157554958Y-85475778D01*
X157551699Y-85487148D01*
X157547997Y-85500951D01*
X157545084Y-85512196D01*
X157541670Y-85525356D01*
X157538387Y-85537656D01*
X157535101Y-85549538D01*
X157531678Y-85561442D01*
X157527982Y-85573810D01*
X157523879Y-85587082D01*
X157519235Y-85601700D01*
X157513915Y-85618103D01*
X157507785Y-85636733D01*
X157500709Y-85658031D01*
X157499104Y-85662844D01*
X157493815Y-85678507D01*
X157489296Y-85691501D01*
X157485590Y-85701713D01*
X157482738Y-85709032D01*
X157480783Y-85713344D01*
X157479766Y-85714539D01*
X157479722Y-85714490D01*
X157478904Y-85712461D01*
X157477144Y-85707559D01*
X157474561Y-85700127D01*
X157471271Y-85690511D01*
X157467391Y-85679054D01*
X157463040Y-85666099D01*
X157458334Y-85651992D01*
X157455589Y-85643720D01*
X157449030Y-85623877D01*
X157443427Y-85606812D01*
X157438651Y-85592092D01*
X157434571Y-85579289D01*
X157431056Y-85567971D01*
X157427978Y-85557708D01*
X157425206Y-85548068D01*
X157422609Y-85538622D01*
X157420058Y-85528939D01*
X157417423Y-85518587D01*
X157415688Y-85511640D01*
X157410674Y-85492293D01*
X157405922Y-85475879D01*
X157401263Y-85461973D01*
X157396523Y-85450150D01*
X157391531Y-85439985D01*
X157386115Y-85431052D01*
X157380103Y-85422926D01*
X157379542Y-85422237D01*
X157367805Y-85410128D01*
X157355219Y-85401268D01*
X157341888Y-85395680D01*
X157327913Y-85393388D01*
X157313395Y-85394413D01*
X157298437Y-85398778D01*
X157290347Y-85402462D01*
X157280497Y-85409265D01*
X157271033Y-85419366D01*
X157262007Y-85432697D01*
X157253471Y-85449186D01*
X157249972Y-85457212D01*
X157241184Y-85482618D01*
X157235123Y-85509765D01*
X157231830Y-85538330D01*
X157231350Y-85567989D01*
X157232738Y-85589533D01*
X157233405Y-85597605D01*
X157233517Y-85602951D01*
X157233052Y-85606193D01*
X157232132Y-85607813D01*
X157228933Y-85610518D01*
X157223440Y-85614620D01*
X157216237Y-85619728D01*
X157207908Y-85625451D01*
X157199033Y-85631398D01*
X157190198Y-85637178D01*
X157181984Y-85642399D01*
X157174975Y-85646671D01*
X157170120Y-85649411D01*
X157163761Y-85652506D01*
X157156482Y-85655664D01*
X157148971Y-85658636D01*
X157141918Y-85661171D01*
X157136009Y-85663021D01*
X157131934Y-85663934D01*
X157130443Y-85663809D01*
X157129735Y-85661800D01*
X157128547Y-85657185D01*
X157127038Y-85650686D01*
X157125362Y-85643022D01*
X157123678Y-85634914D01*
X157122142Y-85627083D01*
X157120911Y-85620249D01*
X157120731Y-85619167D01*
X157119916Y-85612103D01*
X157119271Y-85602249D01*
X157118821Y-85590196D01*
X157118591Y-85576537D01*
X157118568Y-85569213D01*
X157118642Y-85555838D01*
X157118864Y-85545104D01*
X157119282Y-85536267D01*
X157119948Y-85528583D01*
X157120910Y-85521307D01*
X157122220Y-85513696D01*
X157122345Y-85513028D01*
X157129303Y-85484445D01*
X157139279Y-85455745D01*
X157151976Y-85427498D01*
X157167097Y-85400276D01*
X157184343Y-85374652D01*
X157203418Y-85351196D01*
X157210495Y-85343580D01*
X157233760Y-85321686D01*
X157258920Y-85302369D01*
X157286077Y-85285578D01*
X157315336Y-85271262D01*
X157346800Y-85259370D01*
X157380571Y-85249851D01*
X157414807Y-85242973D01*
X157424838Y-85241720D01*
X157437535Y-85240761D01*
X157452190Y-85240097D01*
X157468097Y-85239729D01*
X157484547Y-85239656D01*
X157500832Y-85239878D01*
X157516246Y-85240397D01*
X157530080Y-85241213D01*
X157541627Y-85242325D01*
X157545803Y-85242909D01*
X157581733Y-85250093D01*
X157615714Y-85259926D01*
X157647681Y-85272370D01*
X157677572Y-85287387D01*
X157705323Y-85304938D01*
X157730872Y-85324986D01*
X157754154Y-85347491D01*
X157775108Y-85372416D01*
X157786773Y-85388873D01*
X157792710Y-85398469D01*
X157799290Y-85410184D01*
X157806120Y-85423216D01*
X157812806Y-85436762D01*
X157818954Y-85450021D01*
X157824173Y-85462192D01*
X157828068Y-85472472D01*
X157828704Y-85474387D01*
X157836468Y-85503834D01*
X157841337Y-85534541D01*
X157843280Y-85565959D01*
X157875906Y-85565959D01*
X157874611Y-85548877D01*
X157871482Y-85526730D01*
X157866874Y-85504919D01*
X157862611Y-85489030D01*
X157850782Y-85454137D01*
X157836094Y-85420937D01*
X157818687Y-85389552D01*
X157798703Y-85360107D01*
X157776284Y-85332725D01*
X157751570Y-85307528D01*
X157724704Y-85284641D01*
X157695826Y-85264186D01*
X157665077Y-85246287D01*
X157632600Y-85231067D01*
X157598534Y-85218649D01*
X157563023Y-85209156D01*
X157535880Y-85204085D01*
X157523181Y-85202607D01*
X157508041Y-85201602D01*
X157491373Y-85201072D01*
X157474091Y-85201016D01*
X157457108Y-85201435D01*
X157457108Y-85201435D01*
G37*
X157457108Y-85201435D02*
X157441335Y-85202328D01*
X157427687Y-85203697D01*
X157425051Y-85204063D01*
X157388774Y-85211095D01*
X157353657Y-85221255D01*
X157319865Y-85234438D01*
X157287561Y-85250542D01*
X157256909Y-85269463D01*
X157228072Y-85291097D01*
X157201213Y-85315342D01*
X157176497Y-85342093D01*
X157154087Y-85371248D01*
X157148988Y-85378713D01*
X157140057Y-85393130D01*
X157130873Y-85409787D01*
X157121950Y-85427627D01*
X157113803Y-85445590D01*
X157106945Y-85462620D01*
X157103619Y-85472085D01*
X157095433Y-85500023D01*
X157089540Y-85527214D01*
X157085776Y-85554707D01*
X157083975Y-85583550D01*
X157083760Y-85598693D01*
X157085423Y-85635238D01*
X157090365Y-85671115D01*
X157098510Y-85706150D01*
X157109787Y-85740164D01*
X157124122Y-85772982D01*
X157141442Y-85804427D01*
X157161673Y-85834322D01*
X157184743Y-85862491D01*
X157199713Y-85878287D01*
X157226828Y-85903047D01*
X157255811Y-85925008D01*
X157286534Y-85944108D01*
X157318870Y-85960284D01*
X157352691Y-85973475D01*
X157387870Y-85983616D01*
X157424279Y-85990648D01*
X157431404Y-85991637D01*
X157442144Y-85992687D01*
X157455326Y-85993435D01*
X157470017Y-85993873D01*
X157485284Y-85993997D01*
X157500194Y-85993799D01*
X157513816Y-85993274D01*
X157525216Y-85992415D01*
X157526567Y-85992269D01*
X157557383Y-85987327D01*
X157588787Y-85979495D01*
X157620082Y-85969016D01*
X157650568Y-85956133D01*
X157679550Y-85941088D01*
X157688271Y-85935931D01*
X157717318Y-85916262D01*
X157744686Y-85893817D01*
X157770093Y-85868906D01*
X157793258Y-85841838D01*
X157813898Y-85812923D01*
X157831732Y-85782470D01*
X157836405Y-85773260D01*
X157850113Y-85742573D01*
X157860829Y-85712351D01*
X157868703Y-85681954D01*
X157873883Y-85650739D01*
X157876516Y-85618065D01*
X157876935Y-85598000D01*
X157876387Y-85572315D01*
X157875906Y-85565959D01*
X157843280Y-85565959D01*
X157842269Y-85597543D01*
X157838272Y-85628744D01*
X157837421Y-85633321D01*
X157835603Y-85642320D01*
X157833821Y-85650480D01*
X157832217Y-85657205D01*
X157830935Y-85661901D01*
X157830117Y-85663972D01*
X157830032Y-85664020D01*
X157826863Y-85663367D01*
X157821532Y-85661823D01*
X157815036Y-85659713D01*
X157808371Y-85657363D01*
X157802537Y-85655098D01*
X157801942Y-85654849D01*
X157793992Y-85651179D01*
X157791997Y-85650110D01*
X157718760Y-85650110D01*
X157717309Y-85651196D01*
X157713229Y-85653561D01*
X157706928Y-85656985D01*
X157698813Y-85661251D01*
X157689294Y-85666140D01*
X157681083Y-85670281D01*
X157664425Y-85678804D01*
X157650543Y-85686393D01*
X157639064Y-85693363D01*
X157629618Y-85700028D01*
X157621833Y-85706703D01*
X157615335Y-85713705D01*
X157609755Y-85721347D01*
X157604719Y-85729946D01*
X157600397Y-85738653D01*
X157596725Y-85747096D01*
X157593555Y-85755825D01*
X157590731Y-85765442D01*
X157588096Y-85776547D01*
X157585494Y-85789743D01*
X157582770Y-85805631D01*
X157582390Y-85807973D01*
X157577716Y-85835423D01*
X157573009Y-85859717D01*
X157568195Y-85881085D01*
X157563200Y-85899758D01*
X157557947Y-85915964D01*
X157552364Y-85929935D01*
X157546373Y-85941901D01*
X157539902Y-85952091D01*
X157532875Y-85960737D01*
X157532612Y-85961021D01*
X157523086Y-85969520D01*
X157513285Y-85974739D01*
X157502972Y-85976787D01*
X157498070Y-85976699D01*
X157492626Y-85976143D01*
X157488703Y-85975516D01*
X157487369Y-85975080D01*
X157487551Y-85974529D01*
X157474920Y-85974529D01*
X157473349Y-85975674D01*
X157469089Y-85976407D01*
X157462821Y-85976651D01*
X157457563Y-85976488D01*
X157447106Y-85974612D01*
X157440348Y-85971552D01*
X157430748Y-85964104D01*
X157421735Y-85953351D01*
X157413295Y-85939277D01*
X157411557Y-85935820D01*
X157406682Y-85925127D01*
X157402244Y-85913781D01*
X157398134Y-85901376D01*
X157394246Y-85887504D01*
X157390470Y-85871760D01*
X157386700Y-85853739D01*
X157382827Y-85833033D01*
X157380000Y-85816733D01*
X157376857Y-85798638D01*
X157373999Y-85783456D01*
X157371295Y-85770740D01*
X157368614Y-85760040D01*
X157365822Y-85750910D01*
X157362789Y-85742902D01*
X157359382Y-85735567D01*
X157355470Y-85728458D01*
X157352647Y-85723831D01*
X157347440Y-85716285D01*
X157341577Y-85709356D01*
X157334701Y-85702796D01*
X157326460Y-85696352D01*
X157316500Y-85689775D01*
X157304466Y-85682814D01*
X157290005Y-85675218D01*
X157272763Y-85666736D01*
X157270397Y-85665603D01*
X157259838Y-85660438D01*
X157251615Y-85656166D01*
X157245938Y-85652906D01*
X157243019Y-85650776D01*
X157242723Y-85650026D01*
X157245260Y-85649213D01*
X157250464Y-85648699D01*
X157257632Y-85648470D01*
X157266060Y-85648511D01*
X157275043Y-85648807D01*
X157283878Y-85649344D01*
X157291860Y-85650107D01*
X157298285Y-85651081D01*
X157298813Y-85651190D01*
X157317784Y-85656040D01*
X157337443Y-85662593D01*
X157356940Y-85670480D01*
X157375427Y-85679334D01*
X157392053Y-85688786D01*
X157403377Y-85696481D01*
X157417347Y-85706909D01*
X157417387Y-85729078D01*
X157417729Y-85745636D01*
X157418644Y-85764525D01*
X157420049Y-85784754D01*
X157421863Y-85805331D01*
X157424001Y-85825266D01*
X157426380Y-85843566D01*
X157427668Y-85852000D01*
X157432664Y-85878427D01*
X157438639Y-85902297D01*
X157445536Y-85923450D01*
X157453297Y-85941726D01*
X157461865Y-85956962D01*
X157468330Y-85965757D01*
X157471806Y-85970065D01*
X157474194Y-85973270D01*
X157474920Y-85974529D01*
X157487551Y-85974529D01*
X157487913Y-85973437D01*
X157490096Y-85969815D01*
X157493486Y-85964914D01*
X157494523Y-85963501D01*
X157503177Y-85950149D01*
X157510954Y-85934507D01*
X157517882Y-85916453D01*
X157523986Y-85895865D01*
X157529293Y-85872623D01*
X157533829Y-85846603D01*
X157537619Y-85817685D01*
X157540691Y-85785746D01*
X157543069Y-85750665D01*
X157543974Y-85732620D01*
X157545193Y-85705527D01*
X157557047Y-85696536D01*
X157569368Y-85688237D01*
X157584236Y-85679917D01*
X157600833Y-85671931D01*
X157618338Y-85664632D01*
X157635934Y-85658374D01*
X157652801Y-85653509D01*
X157661187Y-85651612D01*
X157668537Y-85650411D01*
X157677070Y-85649454D01*
X157686170Y-85648755D01*
X157695218Y-85648332D01*
X157703596Y-85648200D01*
X157710687Y-85648376D01*
X157715873Y-85648875D01*
X157718537Y-85649713D01*
X157718760Y-85650110D01*
X157791997Y-85650110D01*
X157785443Y-85646599D01*
X157775815Y-85640818D01*
X157764626Y-85633543D01*
X157751395Y-85624484D01*
X157748247Y-85622282D01*
X157727780Y-85607919D01*
X157728511Y-85569516D01*
X157728687Y-85551893D01*
X157728435Y-85536935D01*
X157727685Y-85523937D01*
X157726364Y-85512197D01*
X157724400Y-85501011D01*
X157721723Y-85489676D01*
X157719599Y-85482007D01*
X157714543Y-85466662D01*
X157708536Y-85451922D01*
X157701863Y-85438304D01*
X157694808Y-85426323D01*
X157687656Y-85416494D01*
X157680691Y-85409335D01*
X157678664Y-85407772D01*
X157667605Y-85400942D01*
X157656948Y-85396652D01*
X157645427Y-85394497D01*
X157635787Y-85394038D01*
X157627799Y-85394106D01*
X157622055Y-85394552D01*
X157617416Y-85395585D01*
X157612741Y-85397417D01*
X157609689Y-85398869D01*
X157600823Y-85404376D01*
X157591485Y-85412137D01*
X157582539Y-85421293D01*
X157574851Y-85430987D01*
X157570822Y-85437379D01*
X157567116Y-85444316D01*
X157563854Y-85451109D01*
X157560858Y-85458273D01*
X157557952Y-85466324D01*
X157554958Y-85475778D01*
X157551699Y-85487148D01*
X157547997Y-85500951D01*
X157545084Y-85512196D01*
X157541670Y-85525356D01*
X157538387Y-85537656D01*
X157535101Y-85549538D01*
X157531678Y-85561442D01*
X157527982Y-85573810D01*
X157523879Y-85587082D01*
X157519235Y-85601700D01*
X157513915Y-85618103D01*
X157507785Y-85636733D01*
X157500709Y-85658031D01*
X157499104Y-85662844D01*
X157493815Y-85678507D01*
X157489296Y-85691501D01*
X157485590Y-85701713D01*
X157482738Y-85709032D01*
X157480783Y-85713344D01*
X157479766Y-85714539D01*
X157479722Y-85714490D01*
X157478904Y-85712461D01*
X157477144Y-85707559D01*
X157474561Y-85700127D01*
X157471271Y-85690511D01*
X157467391Y-85679054D01*
X157463040Y-85666099D01*
X157458334Y-85651992D01*
X157455589Y-85643720D01*
X157449030Y-85623877D01*
X157443427Y-85606812D01*
X157438651Y-85592092D01*
X157434571Y-85579289D01*
X157431056Y-85567971D01*
X157427978Y-85557708D01*
X157425206Y-85548068D01*
X157422609Y-85538622D01*
X157420058Y-85528939D01*
X157417423Y-85518587D01*
X157415688Y-85511640D01*
X157410674Y-85492293D01*
X157405922Y-85475879D01*
X157401263Y-85461973D01*
X157396523Y-85450150D01*
X157391531Y-85439985D01*
X157386115Y-85431052D01*
X157380103Y-85422926D01*
X157379542Y-85422237D01*
X157367805Y-85410128D01*
X157355219Y-85401268D01*
X157341888Y-85395680D01*
X157327913Y-85393388D01*
X157313395Y-85394413D01*
X157298437Y-85398778D01*
X157290347Y-85402462D01*
X157280497Y-85409265D01*
X157271033Y-85419366D01*
X157262007Y-85432697D01*
X157253471Y-85449186D01*
X157249972Y-85457212D01*
X157241184Y-85482618D01*
X157235123Y-85509765D01*
X157231830Y-85538330D01*
X157231350Y-85567989D01*
X157232738Y-85589533D01*
X157233405Y-85597605D01*
X157233517Y-85602951D01*
X157233052Y-85606193D01*
X157232132Y-85607813D01*
X157228933Y-85610518D01*
X157223440Y-85614620D01*
X157216237Y-85619728D01*
X157207908Y-85625451D01*
X157199033Y-85631398D01*
X157190198Y-85637178D01*
X157181984Y-85642399D01*
X157174975Y-85646671D01*
X157170120Y-85649411D01*
X157163761Y-85652506D01*
X157156482Y-85655664D01*
X157148971Y-85658636D01*
X157141918Y-85661171D01*
X157136009Y-85663021D01*
X157131934Y-85663934D01*
X157130443Y-85663809D01*
X157129735Y-85661800D01*
X157128547Y-85657185D01*
X157127038Y-85650686D01*
X157125362Y-85643022D01*
X157123678Y-85634914D01*
X157122142Y-85627083D01*
X157120911Y-85620249D01*
X157120731Y-85619167D01*
X157119916Y-85612103D01*
X157119271Y-85602249D01*
X157118821Y-85590196D01*
X157118591Y-85576537D01*
X157118568Y-85569213D01*
X157118642Y-85555838D01*
X157118864Y-85545104D01*
X157119282Y-85536267D01*
X157119948Y-85528583D01*
X157120910Y-85521307D01*
X157122220Y-85513696D01*
X157122345Y-85513028D01*
X157129303Y-85484445D01*
X157139279Y-85455745D01*
X157151976Y-85427498D01*
X157167097Y-85400276D01*
X157184343Y-85374652D01*
X157203418Y-85351196D01*
X157210495Y-85343580D01*
X157233760Y-85321686D01*
X157258920Y-85302369D01*
X157286077Y-85285578D01*
X157315336Y-85271262D01*
X157346800Y-85259370D01*
X157380571Y-85249851D01*
X157414807Y-85242973D01*
X157424838Y-85241720D01*
X157437535Y-85240761D01*
X157452190Y-85240097D01*
X157468097Y-85239729D01*
X157484547Y-85239656D01*
X157500832Y-85239878D01*
X157516246Y-85240397D01*
X157530080Y-85241213D01*
X157541627Y-85242325D01*
X157545803Y-85242909D01*
X157581733Y-85250093D01*
X157615714Y-85259926D01*
X157647681Y-85272370D01*
X157677572Y-85287387D01*
X157705323Y-85304938D01*
X157730872Y-85324986D01*
X157754154Y-85347491D01*
X157775108Y-85372416D01*
X157786773Y-85388873D01*
X157792710Y-85398469D01*
X157799290Y-85410184D01*
X157806120Y-85423216D01*
X157812806Y-85436762D01*
X157818954Y-85450021D01*
X157824173Y-85462192D01*
X157828068Y-85472472D01*
X157828704Y-85474387D01*
X157836468Y-85503834D01*
X157841337Y-85534541D01*
X157843280Y-85565959D01*
X157875906Y-85565959D01*
X157874611Y-85548877D01*
X157871482Y-85526730D01*
X157866874Y-85504919D01*
X157862611Y-85489030D01*
X157850782Y-85454137D01*
X157836094Y-85420937D01*
X157818687Y-85389552D01*
X157798703Y-85360107D01*
X157776284Y-85332725D01*
X157751570Y-85307528D01*
X157724704Y-85284641D01*
X157695826Y-85264186D01*
X157665077Y-85246287D01*
X157632600Y-85231067D01*
X157598534Y-85218649D01*
X157563023Y-85209156D01*
X157535880Y-85204085D01*
X157523181Y-85202607D01*
X157508041Y-85201602D01*
X157491373Y-85201072D01*
X157474091Y-85201016D01*
X157457108Y-85201435D01*
G36*
X129339916Y-85622161D02*
X129321908Y-85635101D01*
X129293801Y-85663975D01*
X129264271Y-85705066D01*
X129237850Y-85751165D01*
X129219069Y-85795059D01*
X129216789Y-85802378D01*
X129208141Y-85847304D01*
X129205130Y-85897160D01*
X129207851Y-85943424D01*
X129214850Y-85973839D01*
X129219648Y-85991881D01*
X129215226Y-85994453D01*
X129204261Y-85978294D01*
X129194530Y-85947226D01*
X129187275Y-85906660D01*
X129183743Y-85862008D01*
X129183635Y-85857080D01*
X129182756Y-85801200D01*
X129163871Y-85841776D01*
X129142735Y-85907294D01*
X129137099Y-85975662D01*
X129142584Y-86019439D01*
X129147377Y-86050981D01*
X129145095Y-86068827D01*
X129143325Y-86070709D01*
X129138360Y-86084813D01*
X129143552Y-86111265D01*
X129156887Y-86146141D01*
X129176355Y-86185514D01*
X129199942Y-86225460D01*
X129225638Y-86262051D01*
X129251431Y-86291364D01*
X129260640Y-86299615D01*
X129319502Y-86341125D01*
X129380512Y-86369186D01*
X129449255Y-86385727D01*
X129529786Y-86392630D01*
X129584641Y-86393515D01*
X129625201Y-86391629D01*
X129657373Y-86386391D01*
X129687063Y-86377219D01*
X129687320Y-86377123D01*
X129768794Y-86339477D01*
X129833334Y-86292899D01*
X129883125Y-86235342D01*
X129920354Y-86164758D01*
X129924102Y-86155260D01*
X129936525Y-86107359D01*
X129943594Y-86047319D01*
X129945119Y-85982655D01*
X129940909Y-85920882D01*
X129931317Y-85871353D01*
X129919605Y-85836412D01*
X129909832Y-85816637D01*
X129903268Y-85813128D01*
X129901186Y-85826984D01*
X129902979Y-85846875D01*
X129903527Y-85877438D01*
X129899257Y-85913412D01*
X129891597Y-85947988D01*
X129881975Y-85974359D01*
X129874040Y-85984846D01*
X129870227Y-85980002D01*
X129871947Y-85961214D01*
X129872893Y-85956645D01*
X129879496Y-85881987D01*
X129867709Y-85806709D01*
X129838874Y-85735043D01*
X129794332Y-85671221D01*
X129776502Y-85652686D01*
X129752445Y-85631223D01*
X129739233Y-85623086D01*
X129738014Y-85628480D01*
X129755208Y-85673479D01*
X129765655Y-85705023D01*
X129770253Y-85728482D01*
X129769904Y-85749226D01*
X129765507Y-85772627D01*
X129763554Y-85780880D01*
X129750588Y-85818974D01*
X129730720Y-85861158D01*
X129717364Y-85883985D01*
X129683407Y-85936291D01*
X129703144Y-85988234D01*
X129715019Y-86030327D01*
X129722022Y-86076114D01*
X129722824Y-86093408D01*
X129719611Y-86150643D01*
X129708150Y-86195936D01*
X129685496Y-86236061D01*
X129648704Y-86277791D01*
X129638184Y-86288085D01*
X129575560Y-86348251D01*
X129569143Y-86318565D01*
X129563488Y-86283332D01*
X129561778Y-86251931D01*
X129564007Y-86229951D01*
X129569236Y-86222840D01*
X129582477Y-86229791D01*
X129590800Y-86238080D01*
X129606809Y-86252381D01*
X129614121Y-86249619D01*
X129610376Y-86232036D01*
X129606301Y-86223344D01*
X129595723Y-86201688D01*
X129590839Y-86189324D01*
X129590800Y-86188938D01*
X129599822Y-86184950D01*
X129622664Y-86179938D01*
X129636520Y-86177651D01*
X129666459Y-86170697D01*
X129680453Y-86162580D01*
X129677423Y-86155520D01*
X129656286Y-86151736D01*
X129649220Y-86151564D01*
X129614799Y-86148465D01*
X129597690Y-86137747D01*
X129595477Y-86116656D01*
X129600787Y-86096366D01*
X129607616Y-86069111D01*
X129607310Y-86054464D01*
X129601103Y-86054860D01*
X129590230Y-86072733D01*
X129589550Y-86074207D01*
X129578161Y-86093440D01*
X129568850Y-86100920D01*
X129565557Y-86091395D01*
X129562653Y-86065359D01*
X129560426Y-86026623D01*
X129559163Y-85978994D01*
X129559076Y-85971380D01*
X129557967Y-85908472D01*
X129555947Y-85840016D01*
X129553331Y-85775418D01*
X129551167Y-85735160D01*
X129544503Y-85628480D01*
X129537558Y-85694520D01*
X129534472Y-85730360D01*
X129531099Y-85780124D01*
X129527835Y-85837425D01*
X129525072Y-85895878D01*
X129524900Y-85900042D01*
X129520991Y-85973970D01*
X129516116Y-86027865D01*
X129510231Y-86061991D01*
X129503290Y-86076615D01*
X129495354Y-86072177D01*
X129483763Y-86059345D01*
X129477520Y-86062898D01*
X129478222Y-86079250D01*
X129484118Y-86097399D01*
X129492934Y-86121869D01*
X129495823Y-86137172D01*
X129495253Y-86138894D01*
X129483329Y-86142863D01*
X129458853Y-86147466D01*
X129449400Y-86148832D01*
X129422764Y-86154847D01*
X129409213Y-86162460D01*
X129410800Y-86169092D01*
X129429583Y-86172165D01*
X129430780Y-86172178D01*
X129460328Y-86175069D01*
X129476191Y-86178362D01*
X129490939Y-86184031D01*
X129492667Y-86193969D01*
X129483811Y-86213279D01*
X129471417Y-86241730D01*
X129470517Y-86255706D01*
X129480730Y-86254114D01*
X129494280Y-86243160D01*
X129519680Y-86219297D01*
X129519680Y-86282028D01*
X129519223Y-86314709D01*
X129518030Y-86337400D01*
X129516574Y-86344760D01*
X129502216Y-86337728D01*
X129479231Y-86319440D01*
X129452173Y-86294103D01*
X129425595Y-86265924D01*
X129407806Y-86244253D01*
X129375061Y-86187787D01*
X129360545Y-86128242D01*
X129363880Y-86062771D01*
X129376035Y-86014560D01*
X129235200Y-86014560D01*
X129230120Y-86019640D01*
X129225040Y-86014560D01*
X129230120Y-86009480D01*
X129235200Y-86014560D01*
X129376035Y-86014560D01*
X129376983Y-86010803D01*
X129398612Y-85943440D01*
X129357546Y-85864153D01*
X129329188Y-85799751D01*
X129316637Y-85745111D01*
X129319634Y-85697556D01*
X129337386Y-85655274D01*
X129351537Y-85628933D01*
X129352410Y-85617934D01*
X129339916Y-85622161D01*
X129339916Y-85622161D01*
G37*
X129339916Y-85622161D02*
X129321908Y-85635101D01*
X129293801Y-85663975D01*
X129264271Y-85705066D01*
X129237850Y-85751165D01*
X129219069Y-85795059D01*
X129216789Y-85802378D01*
X129208141Y-85847304D01*
X129205130Y-85897160D01*
X129207851Y-85943424D01*
X129214850Y-85973839D01*
X129219648Y-85991881D01*
X129215226Y-85994453D01*
X129204261Y-85978294D01*
X129194530Y-85947226D01*
X129187275Y-85906660D01*
X129183743Y-85862008D01*
X129183635Y-85857080D01*
X129182756Y-85801200D01*
X129163871Y-85841776D01*
X129142735Y-85907294D01*
X129137099Y-85975662D01*
X129142584Y-86019439D01*
X129147377Y-86050981D01*
X129145095Y-86068827D01*
X129143325Y-86070709D01*
X129138360Y-86084813D01*
X129143552Y-86111265D01*
X129156887Y-86146141D01*
X129176355Y-86185514D01*
X129199942Y-86225460D01*
X129225638Y-86262051D01*
X129251431Y-86291364D01*
X129260640Y-86299615D01*
X129319502Y-86341125D01*
X129380512Y-86369186D01*
X129449255Y-86385727D01*
X129529786Y-86392630D01*
X129584641Y-86393515D01*
X129625201Y-86391629D01*
X129657373Y-86386391D01*
X129687063Y-86377219D01*
X129687320Y-86377123D01*
X129768794Y-86339477D01*
X129833334Y-86292899D01*
X129883125Y-86235342D01*
X129920354Y-86164758D01*
X129924102Y-86155260D01*
X129936525Y-86107359D01*
X129943594Y-86047319D01*
X129945119Y-85982655D01*
X129940909Y-85920882D01*
X129931317Y-85871353D01*
X129919605Y-85836412D01*
X129909832Y-85816637D01*
X129903268Y-85813128D01*
X129901186Y-85826984D01*
X129902979Y-85846875D01*
X129903527Y-85877438D01*
X129899257Y-85913412D01*
X129891597Y-85947988D01*
X129881975Y-85974359D01*
X129874040Y-85984846D01*
X129870227Y-85980002D01*
X129871947Y-85961214D01*
X129872893Y-85956645D01*
X129879496Y-85881987D01*
X129867709Y-85806709D01*
X129838874Y-85735043D01*
X129794332Y-85671221D01*
X129776502Y-85652686D01*
X129752445Y-85631223D01*
X129739233Y-85623086D01*
X129738014Y-85628480D01*
X129755208Y-85673479D01*
X129765655Y-85705023D01*
X129770253Y-85728482D01*
X129769904Y-85749226D01*
X129765507Y-85772627D01*
X129763554Y-85780880D01*
X129750588Y-85818974D01*
X129730720Y-85861158D01*
X129717364Y-85883985D01*
X129683407Y-85936291D01*
X129703144Y-85988234D01*
X129715019Y-86030327D01*
X129722022Y-86076114D01*
X129722824Y-86093408D01*
X129719611Y-86150643D01*
X129708150Y-86195936D01*
X129685496Y-86236061D01*
X129648704Y-86277791D01*
X129638184Y-86288085D01*
X129575560Y-86348251D01*
X129569143Y-86318565D01*
X129563488Y-86283332D01*
X129561778Y-86251931D01*
X129564007Y-86229951D01*
X129569236Y-86222840D01*
X129582477Y-86229791D01*
X129590800Y-86238080D01*
X129606809Y-86252381D01*
X129614121Y-86249619D01*
X129610376Y-86232036D01*
X129606301Y-86223344D01*
X129595723Y-86201688D01*
X129590839Y-86189324D01*
X129590800Y-86188938D01*
X129599822Y-86184950D01*
X129622664Y-86179938D01*
X129636520Y-86177651D01*
X129666459Y-86170697D01*
X129680453Y-86162580D01*
X129677423Y-86155520D01*
X129656286Y-86151736D01*
X129649220Y-86151564D01*
X129614799Y-86148465D01*
X129597690Y-86137747D01*
X129595477Y-86116656D01*
X129600787Y-86096366D01*
X129607616Y-86069111D01*
X129607310Y-86054464D01*
X129601103Y-86054860D01*
X129590230Y-86072733D01*
X129589550Y-86074207D01*
X129578161Y-86093440D01*
X129568850Y-86100920D01*
X129565557Y-86091395D01*
X129562653Y-86065359D01*
X129560426Y-86026623D01*
X129559163Y-85978994D01*
X129559076Y-85971380D01*
X129557967Y-85908472D01*
X129555947Y-85840016D01*
X129553331Y-85775418D01*
X129551167Y-85735160D01*
X129544503Y-85628480D01*
X129537558Y-85694520D01*
X129534472Y-85730360D01*
X129531099Y-85780124D01*
X129527835Y-85837425D01*
X129525072Y-85895878D01*
X129524900Y-85900042D01*
X129520991Y-85973970D01*
X129516116Y-86027865D01*
X129510231Y-86061991D01*
X129503290Y-86076615D01*
X129495354Y-86072177D01*
X129483763Y-86059345D01*
X129477520Y-86062898D01*
X129478222Y-86079250D01*
X129484118Y-86097399D01*
X129492934Y-86121869D01*
X129495823Y-86137172D01*
X129495253Y-86138894D01*
X129483329Y-86142863D01*
X129458853Y-86147466D01*
X129449400Y-86148832D01*
X129422764Y-86154847D01*
X129409213Y-86162460D01*
X129410800Y-86169092D01*
X129429583Y-86172165D01*
X129430780Y-86172178D01*
X129460328Y-86175069D01*
X129476191Y-86178362D01*
X129490939Y-86184031D01*
X129492667Y-86193969D01*
X129483811Y-86213279D01*
X129471417Y-86241730D01*
X129470517Y-86255706D01*
X129480730Y-86254114D01*
X129494280Y-86243160D01*
X129519680Y-86219297D01*
X129519680Y-86282028D01*
X129519223Y-86314709D01*
X129518030Y-86337400D01*
X129516574Y-86344760D01*
X129502216Y-86337728D01*
X129479231Y-86319440D01*
X129452173Y-86294103D01*
X129425595Y-86265924D01*
X129407806Y-86244253D01*
X129375061Y-86187787D01*
X129360545Y-86128242D01*
X129363880Y-86062771D01*
X129376035Y-86014560D01*
X129235200Y-86014560D01*
X129230120Y-86019640D01*
X129225040Y-86014560D01*
X129230120Y-86009480D01*
X129235200Y-86014560D01*
X129376035Y-86014560D01*
X129376983Y-86010803D01*
X129398612Y-85943440D01*
X129357546Y-85864153D01*
X129329188Y-85799751D01*
X129316637Y-85745111D01*
X129319634Y-85697556D01*
X129337386Y-85655274D01*
X129351537Y-85628933D01*
X129352410Y-85617934D01*
X129339916Y-85622161D01*
G36*
X129419651Y-85470244D02*
X129327822Y-85502770D01*
X129242197Y-85553331D01*
X129173184Y-85612901D01*
X129110950Y-85685096D01*
X129066440Y-85758537D01*
X129038192Y-85837127D01*
X129024746Y-85924767D01*
X129023953Y-86011432D01*
X129027566Y-86068268D01*
X129033688Y-86111998D01*
X129043650Y-86149802D01*
X129055330Y-86180729D01*
X129103044Y-86269509D01*
X129166480Y-86347296D01*
X129243100Y-86411989D01*
X129330368Y-86461491D01*
X129425746Y-86493701D01*
X129436361Y-86496043D01*
X129506672Y-86505166D01*
X129580733Y-86505271D01*
X129649803Y-86496635D01*
X129682528Y-86488250D01*
X129779273Y-86447745D01*
X129865068Y-86392561D01*
X129938087Y-86324625D01*
X129996505Y-86245863D01*
X130038496Y-86158204D01*
X130057093Y-86092799D01*
X130066928Y-86006296D01*
X129993355Y-86006296D01*
X129980246Y-86094217D01*
X129950210Y-86176397D01*
X129904909Y-86250803D01*
X129846006Y-86315407D01*
X129775161Y-86368177D01*
X129694036Y-86407083D01*
X129604294Y-86430095D01*
X129562267Y-86434677D01*
X129540679Y-86433913D01*
X129506390Y-86430453D01*
X129466726Y-86425041D01*
X129465747Y-86424890D01*
X129374076Y-86401492D01*
X129293977Y-86361405D01*
X129225254Y-86304505D01*
X129174706Y-86241440D01*
X129128441Y-86156004D01*
X129101840Y-86066863D01*
X129094304Y-85971855D01*
X129094968Y-85953163D01*
X129098363Y-85908494D01*
X129104574Y-85873090D01*
X129115827Y-85838851D01*
X129134349Y-85797681D01*
X129142034Y-85782005D01*
X129181005Y-85714471D01*
X129225790Y-85660737D01*
X129281119Y-85616224D01*
X129351719Y-85576353D01*
X129357120Y-85573731D01*
X129391843Y-85557512D01*
X129419359Y-85546947D01*
X129445859Y-85540826D01*
X129477533Y-85537942D01*
X129520573Y-85537085D01*
X129545080Y-85537040D01*
X129595837Y-85537454D01*
X129632267Y-85539406D01*
X129660356Y-85543963D01*
X129686092Y-85552190D01*
X129715461Y-85565152D01*
X129722880Y-85568685D01*
X129809964Y-85619690D01*
X129879815Y-85681266D01*
X129932937Y-85754074D01*
X129969839Y-85838773D01*
X129987876Y-85914663D01*
X129993355Y-86006296D01*
X130066928Y-86006296D01*
X130068750Y-85990279D01*
X130061221Y-85891205D01*
X130035576Y-85797451D01*
X129992888Y-85710891D01*
X129934230Y-85633400D01*
X129860672Y-85566853D01*
X129773288Y-85513122D01*
X129710095Y-85486144D01*
X129613014Y-85461406D01*
X129515458Y-85456281D01*
X129419651Y-85470244D01*
X129419651Y-85470244D01*
G37*
X129419651Y-85470244D02*
X129327822Y-85502770D01*
X129242197Y-85553331D01*
X129173184Y-85612901D01*
X129110950Y-85685096D01*
X129066440Y-85758537D01*
X129038192Y-85837127D01*
X129024746Y-85924767D01*
X129023953Y-86011432D01*
X129027566Y-86068268D01*
X129033688Y-86111998D01*
X129043650Y-86149802D01*
X129055330Y-86180729D01*
X129103044Y-86269509D01*
X129166480Y-86347296D01*
X129243100Y-86411989D01*
X129330368Y-86461491D01*
X129425746Y-86493701D01*
X129436361Y-86496043D01*
X129506672Y-86505166D01*
X129580733Y-86505271D01*
X129649803Y-86496635D01*
X129682528Y-86488250D01*
X129779273Y-86447745D01*
X129865068Y-86392561D01*
X129938087Y-86324625D01*
X129996505Y-86245863D01*
X130038496Y-86158204D01*
X130057093Y-86092799D01*
X130066928Y-86006296D01*
X129993355Y-86006296D01*
X129980246Y-86094217D01*
X129950210Y-86176397D01*
X129904909Y-86250803D01*
X129846006Y-86315407D01*
X129775161Y-86368177D01*
X129694036Y-86407083D01*
X129604294Y-86430095D01*
X129562267Y-86434677D01*
X129540679Y-86433913D01*
X129506390Y-86430453D01*
X129466726Y-86425041D01*
X129465747Y-86424890D01*
X129374076Y-86401492D01*
X129293977Y-86361405D01*
X129225254Y-86304505D01*
X129174706Y-86241440D01*
X129128441Y-86156004D01*
X129101840Y-86066863D01*
X129094304Y-85971855D01*
X129094968Y-85953163D01*
X129098363Y-85908494D01*
X129104574Y-85873090D01*
X129115827Y-85838851D01*
X129134349Y-85797681D01*
X129142034Y-85782005D01*
X129181005Y-85714471D01*
X129225790Y-85660737D01*
X129281119Y-85616224D01*
X129351719Y-85576353D01*
X129357120Y-85573731D01*
X129391843Y-85557512D01*
X129419359Y-85546947D01*
X129445859Y-85540826D01*
X129477533Y-85537942D01*
X129520573Y-85537085D01*
X129545080Y-85537040D01*
X129595837Y-85537454D01*
X129632267Y-85539406D01*
X129660356Y-85543963D01*
X129686092Y-85552190D01*
X129715461Y-85565152D01*
X129722880Y-85568685D01*
X129809964Y-85619690D01*
X129879815Y-85681266D01*
X129932937Y-85754074D01*
X129969839Y-85838773D01*
X129987876Y-85914663D01*
X129993355Y-86006296D01*
X130066928Y-86006296D01*
X130068750Y-85990279D01*
X130061221Y-85891205D01*
X130035576Y-85797451D01*
X129992888Y-85710891D01*
X129934230Y-85633400D01*
X129860672Y-85566853D01*
X129773288Y-85513122D01*
X129710095Y-85486144D01*
X129613014Y-85461406D01*
X129515458Y-85456281D01*
X129419651Y-85470244D01*
G36*
X170767853Y-89648046D02*
X170777226Y-89656887D01*
X170786588Y-89645635D01*
X170792080Y-89639499D01*
X170796533Y-89635345D01*
X170798476Y-89634221D01*
X170800494Y-89632495D01*
X170805545Y-89627682D01*
X170813144Y-89620272D01*
X170822805Y-89610750D01*
X170834043Y-89599604D01*
X170846370Y-89587321D01*
X170859303Y-89574389D01*
X170872354Y-89561293D01*
X170885039Y-89548522D01*
X170896871Y-89536562D01*
X170907366Y-89525900D01*
X170916036Y-89517025D01*
X170922397Y-89510421D01*
X170925963Y-89506578D01*
X170926545Y-89505790D01*
X170925213Y-89503919D01*
X170921809Y-89499119D01*
X170918887Y-89494995D01*
X170914257Y-89488896D01*
X170910688Y-89484983D01*
X170909475Y-89484200D01*
X170907346Y-89485968D01*
X170902105Y-89490998D01*
X170894151Y-89498883D01*
X170883884Y-89509213D01*
X170871703Y-89521582D01*
X170858007Y-89535580D01*
X170843197Y-89550799D01*
X170827671Y-89566832D01*
X170811828Y-89583269D01*
X170796069Y-89599704D01*
X170780839Y-89615678D01*
X170758479Y-89639206D01*
X170767853Y-89648046D01*
X170767853Y-89648046D01*
G37*
X170767853Y-89648046D02*
X170777226Y-89656887D01*
X170786588Y-89645635D01*
X170792080Y-89639499D01*
X170796533Y-89635345D01*
X170798476Y-89634221D01*
X170800494Y-89632495D01*
X170805545Y-89627682D01*
X170813144Y-89620272D01*
X170822805Y-89610750D01*
X170834043Y-89599604D01*
X170846370Y-89587321D01*
X170859303Y-89574389D01*
X170872354Y-89561293D01*
X170885039Y-89548522D01*
X170896871Y-89536562D01*
X170907366Y-89525900D01*
X170916036Y-89517025D01*
X170922397Y-89510421D01*
X170925963Y-89506578D01*
X170926545Y-89505790D01*
X170925213Y-89503919D01*
X170921809Y-89499119D01*
X170918887Y-89494995D01*
X170914257Y-89488896D01*
X170910688Y-89484983D01*
X170909475Y-89484200D01*
X170907346Y-89485968D01*
X170902105Y-89490998D01*
X170894151Y-89498883D01*
X170883884Y-89509213D01*
X170871703Y-89521582D01*
X170858007Y-89535580D01*
X170843197Y-89550799D01*
X170827671Y-89566832D01*
X170811828Y-89583269D01*
X170796069Y-89599704D01*
X170780839Y-89615678D01*
X170758479Y-89639206D01*
X170767853Y-89648046D01*
G36*
X170810858Y-89647744D02*
X170815506Y-89654691D01*
X170822041Y-89662546D01*
X170825487Y-89666130D01*
X170835459Y-89675867D01*
X170887459Y-89623021D01*
X170900684Y-89609519D01*
X170912669Y-89597161D01*
X170922971Y-89586415D01*
X170931146Y-89577750D01*
X170936749Y-89571632D01*
X170939336Y-89568529D01*
X170939460Y-89568271D01*
X170937788Y-89565696D01*
X170933352Y-89560557D01*
X170927017Y-89553842D01*
X170925160Y-89551953D01*
X170918293Y-89545220D01*
X170912785Y-89540167D01*
X170909596Y-89537665D01*
X170909261Y-89537540D01*
X170907122Y-89539267D01*
X170901875Y-89544146D01*
X170893987Y-89551721D01*
X170883928Y-89561538D01*
X170872167Y-89573142D01*
X170859171Y-89586077D01*
X170856931Y-89588318D01*
X170806201Y-89639096D01*
X170810858Y-89647744D01*
X170810858Y-89647744D01*
G37*
X170810858Y-89647744D02*
X170815506Y-89654691D01*
X170822041Y-89662546D01*
X170825487Y-89666130D01*
X170835459Y-89675867D01*
X170887459Y-89623021D01*
X170900684Y-89609519D01*
X170912669Y-89597161D01*
X170922971Y-89586415D01*
X170931146Y-89577750D01*
X170936749Y-89571632D01*
X170939336Y-89568529D01*
X170939460Y-89568271D01*
X170937788Y-89565696D01*
X170933352Y-89560557D01*
X170927017Y-89553842D01*
X170925160Y-89551953D01*
X170918293Y-89545220D01*
X170912785Y-89540167D01*
X170909596Y-89537665D01*
X170909261Y-89537540D01*
X170907122Y-89539267D01*
X170901875Y-89544146D01*
X170893987Y-89551721D01*
X170883928Y-89561538D01*
X170872167Y-89573142D01*
X170859171Y-89586077D01*
X170856931Y-89588318D01*
X170806201Y-89639096D01*
X170810858Y-89647744D01*
G36*
X170171191Y-89065736D02*
X170174624Y-89085976D01*
X170176756Y-89094681D01*
X170178992Y-89102076D01*
X170181807Y-89109114D01*
X170185673Y-89116745D01*
X170191061Y-89125923D01*
X170198445Y-89137599D01*
X170206074Y-89149328D01*
X170213633Y-89160767D01*
X170220413Y-89170646D01*
X170226969Y-89179626D01*
X170233859Y-89188364D01*
X170241639Y-89197520D01*
X170250866Y-89207753D01*
X170262097Y-89219721D01*
X170275888Y-89234084D01*
X170289753Y-89248372D01*
X170303988Y-89263059D01*
X170317300Y-89276896D01*
X170329215Y-89289380D01*
X170339257Y-89300011D01*
X170346953Y-89308289D01*
X170351827Y-89313712D01*
X170353129Y-89315290D01*
X170356732Y-89319760D01*
X170363004Y-89327185D01*
X170371229Y-89336730D01*
X170380692Y-89347562D01*
X170386956Y-89354660D01*
X170410871Y-89381650D01*
X170431867Y-89405349D01*
X170450393Y-89426263D01*
X170466901Y-89444902D01*
X170481839Y-89461775D01*
X170495659Y-89477390D01*
X170508811Y-89492255D01*
X170521746Y-89506880D01*
X170534912Y-89521774D01*
X170542113Y-89529920D01*
X170565201Y-89556054D01*
X170585163Y-89578658D01*
X170602252Y-89597996D01*
X170616720Y-89614330D01*
X170628821Y-89627923D01*
X170638807Y-89639039D01*
X170646932Y-89647941D01*
X170653447Y-89654892D01*
X170658607Y-89660155D01*
X170662663Y-89663993D01*
X170665870Y-89666670D01*
X170668479Y-89668448D01*
X170670744Y-89669591D01*
X170672917Y-89670362D01*
X170675252Y-89671024D01*
X170678001Y-89671840D01*
X170678737Y-89672083D01*
X170701998Y-89677852D01*
X170723815Y-89678846D01*
X170744458Y-89675071D01*
X170747633Y-89674038D01*
X170765356Y-89667917D01*
X170754677Y-89660850D01*
X170745860Y-89652607D01*
X170741733Y-89642856D01*
X170742466Y-89632013D01*
X170742715Y-89631188D01*
X170744797Y-89628356D01*
X170750034Y-89622402D01*
X170757974Y-89613788D01*
X170768169Y-89602972D01*
X170780166Y-89590413D01*
X170793517Y-89576571D01*
X170807771Y-89561904D01*
X170822477Y-89546873D01*
X170837185Y-89531936D01*
X170851446Y-89517553D01*
X170864808Y-89504183D01*
X170876822Y-89492285D01*
X170887037Y-89482318D01*
X170895003Y-89474742D01*
X170900270Y-89470016D01*
X170902030Y-89468691D01*
X170907517Y-89467436D01*
X170914774Y-89467759D01*
X170915303Y-89467852D01*
X170921880Y-89470201D01*
X170927357Y-89475238D01*
X170931143Y-89480656D01*
X170936165Y-89488056D01*
X170939465Y-89491246D01*
X170941611Y-89490551D01*
X170942890Y-89487375D01*
X170945111Y-89472838D01*
X170944933Y-89453873D01*
X170942356Y-89430457D01*
X170941016Y-89421970D01*
X170936734Y-89400448D01*
X170931578Y-89381078D01*
X170926953Y-89367830D01*
X170918436Y-89346710D01*
X170859733Y-89291801D01*
X170823688Y-89258091D01*
X170791169Y-89227690D01*
X170761993Y-89200432D01*
X170735980Y-89176149D01*
X170712948Y-89154676D01*
X170692718Y-89135847D01*
X170675107Y-89119496D01*
X170659935Y-89105455D01*
X170647021Y-89093559D01*
X170636184Y-89083642D01*
X170627244Y-89075536D01*
X170620018Y-89069077D01*
X170614327Y-89064098D01*
X170609989Y-89060431D01*
X170606823Y-89057912D01*
X170604649Y-89056374D01*
X170603285Y-89055650D01*
X170602638Y-89055550D01*
X170600112Y-89054074D01*
X170594379Y-89049682D01*
X170586002Y-89042865D01*
X170575543Y-89034114D01*
X170563563Y-89023919D01*
X170550624Y-89012771D01*
X170537288Y-89001160D01*
X170524117Y-88989578D01*
X170511673Y-88978514D01*
X170500519Y-88968461D01*
X170491215Y-88959908D01*
X170484324Y-88953346D01*
X170480408Y-88949267D01*
X170479719Y-88948211D01*
X170477636Y-88945396D01*
X170471944Y-88940672D01*
X170463483Y-88934583D01*
X170453092Y-88927677D01*
X170441611Y-88920498D01*
X170429878Y-88913593D01*
X170418732Y-88907507D01*
X170411943Y-88904127D01*
X170402267Y-88899615D01*
X170394496Y-88896299D01*
X170387462Y-88893900D01*
X170379998Y-88892144D01*
X170370938Y-88890753D01*
X170359114Y-88889452D01*
X170343940Y-88888017D01*
X170301805Y-88884122D01*
X170282878Y-88891024D01*
X170259865Y-88901884D01*
X170237790Y-88916974D01*
X170217498Y-88935445D01*
X170199835Y-88956449D01*
X170185645Y-88979137D01*
X170177888Y-88996481D01*
X170172364Y-89017506D01*
X170170114Y-89041057D01*
X170171191Y-89065736D01*
X170171191Y-89065736D01*
G37*
X170171191Y-89065736D02*
X170174624Y-89085976D01*
X170176756Y-89094681D01*
X170178992Y-89102076D01*
X170181807Y-89109114D01*
X170185673Y-89116745D01*
X170191061Y-89125923D01*
X170198445Y-89137599D01*
X170206074Y-89149328D01*
X170213633Y-89160767D01*
X170220413Y-89170646D01*
X170226969Y-89179626D01*
X170233859Y-89188364D01*
X170241639Y-89197520D01*
X170250866Y-89207753D01*
X170262097Y-89219721D01*
X170275888Y-89234084D01*
X170289753Y-89248372D01*
X170303988Y-89263059D01*
X170317300Y-89276896D01*
X170329215Y-89289380D01*
X170339257Y-89300011D01*
X170346953Y-89308289D01*
X170351827Y-89313712D01*
X170353129Y-89315290D01*
X170356732Y-89319760D01*
X170363004Y-89327185D01*
X170371229Y-89336730D01*
X170380692Y-89347562D01*
X170386956Y-89354660D01*
X170410871Y-89381650D01*
X170431867Y-89405349D01*
X170450393Y-89426263D01*
X170466901Y-89444902D01*
X170481839Y-89461775D01*
X170495659Y-89477390D01*
X170508811Y-89492255D01*
X170521746Y-89506880D01*
X170534912Y-89521774D01*
X170542113Y-89529920D01*
X170565201Y-89556054D01*
X170585163Y-89578658D01*
X170602252Y-89597996D01*
X170616720Y-89614330D01*
X170628821Y-89627923D01*
X170638807Y-89639039D01*
X170646932Y-89647941D01*
X170653447Y-89654892D01*
X170658607Y-89660155D01*
X170662663Y-89663993D01*
X170665870Y-89666670D01*
X170668479Y-89668448D01*
X170670744Y-89669591D01*
X170672917Y-89670362D01*
X170675252Y-89671024D01*
X170678001Y-89671840D01*
X170678737Y-89672083D01*
X170701998Y-89677852D01*
X170723815Y-89678846D01*
X170744458Y-89675071D01*
X170747633Y-89674038D01*
X170765356Y-89667917D01*
X170754677Y-89660850D01*
X170745860Y-89652607D01*
X170741733Y-89642856D01*
X170742466Y-89632013D01*
X170742715Y-89631188D01*
X170744797Y-89628356D01*
X170750034Y-89622402D01*
X170757974Y-89613788D01*
X170768169Y-89602972D01*
X170780166Y-89590413D01*
X170793517Y-89576571D01*
X170807771Y-89561904D01*
X170822477Y-89546873D01*
X170837185Y-89531936D01*
X170851446Y-89517553D01*
X170864808Y-89504183D01*
X170876822Y-89492285D01*
X170887037Y-89482318D01*
X170895003Y-89474742D01*
X170900270Y-89470016D01*
X170902030Y-89468691D01*
X170907517Y-89467436D01*
X170914774Y-89467759D01*
X170915303Y-89467852D01*
X170921880Y-89470201D01*
X170927357Y-89475238D01*
X170931143Y-89480656D01*
X170936165Y-89488056D01*
X170939465Y-89491246D01*
X170941611Y-89490551D01*
X170942890Y-89487375D01*
X170945111Y-89472838D01*
X170944933Y-89453873D01*
X170942356Y-89430457D01*
X170941016Y-89421970D01*
X170936734Y-89400448D01*
X170931578Y-89381078D01*
X170926953Y-89367830D01*
X170918436Y-89346710D01*
X170859733Y-89291801D01*
X170823688Y-89258091D01*
X170791169Y-89227690D01*
X170761993Y-89200432D01*
X170735980Y-89176149D01*
X170712948Y-89154676D01*
X170692718Y-89135847D01*
X170675107Y-89119496D01*
X170659935Y-89105455D01*
X170647021Y-89093559D01*
X170636184Y-89083642D01*
X170627244Y-89075536D01*
X170620018Y-89069077D01*
X170614327Y-89064098D01*
X170609989Y-89060431D01*
X170606823Y-89057912D01*
X170604649Y-89056374D01*
X170603285Y-89055650D01*
X170602638Y-89055550D01*
X170600112Y-89054074D01*
X170594379Y-89049682D01*
X170586002Y-89042865D01*
X170575543Y-89034114D01*
X170563563Y-89023919D01*
X170550624Y-89012771D01*
X170537288Y-89001160D01*
X170524117Y-88989578D01*
X170511673Y-88978514D01*
X170500519Y-88968461D01*
X170491215Y-88959908D01*
X170484324Y-88953346D01*
X170480408Y-88949267D01*
X170479719Y-88948211D01*
X170477636Y-88945396D01*
X170471944Y-88940672D01*
X170463483Y-88934583D01*
X170453092Y-88927677D01*
X170441611Y-88920498D01*
X170429878Y-88913593D01*
X170418732Y-88907507D01*
X170411943Y-88904127D01*
X170402267Y-88899615D01*
X170394496Y-88896299D01*
X170387462Y-88893900D01*
X170379998Y-88892144D01*
X170370938Y-88890753D01*
X170359114Y-88889452D01*
X170343940Y-88888017D01*
X170301805Y-88884122D01*
X170282878Y-88891024D01*
X170259865Y-88901884D01*
X170237790Y-88916974D01*
X170217498Y-88935445D01*
X170199835Y-88956449D01*
X170185645Y-88979137D01*
X170177888Y-88996481D01*
X170172364Y-89017506D01*
X170170114Y-89041057D01*
X170171191Y-89065736D01*
G36*
X170877369Y-89677304D02*
X170888615Y-89688799D01*
X170879425Y-89697989D01*
X170874114Y-89703495D01*
X170871954Y-89706954D01*
X170872491Y-89709897D01*
X170874858Y-89713308D01*
X170880317Y-89719432D01*
X170885036Y-89723628D01*
X170886741Y-89724738D01*
X170888566Y-89725137D01*
X170890940Y-89724474D01*
X170894295Y-89722399D01*
X170899060Y-89718560D01*
X170905667Y-89712607D01*
X170914546Y-89704190D01*
X170926128Y-89692958D01*
X170940842Y-89678561D01*
X170943067Y-89676380D01*
X170995543Y-89624943D01*
X170988245Y-89614896D01*
X170985180Y-89610840D01*
X170985180Y-89614222D01*
X170983510Y-89616672D01*
X170980100Y-89620090D01*
X170976420Y-89623023D01*
X170975020Y-89623417D01*
X170976689Y-89620967D01*
X170980100Y-89617550D01*
X170983779Y-89614616D01*
X170985180Y-89614222D01*
X170985180Y-89610840D01*
X170981789Y-89606351D01*
X170977194Y-89601826D01*
X170973475Y-89601134D01*
X170969648Y-89604086D01*
X170964785Y-89610413D01*
X170956271Y-89622269D01*
X170932541Y-89595775D01*
X170899332Y-89630792D01*
X170866122Y-89665810D01*
X170877369Y-89677304D01*
X170877369Y-89677304D01*
G37*
X170877369Y-89677304D02*
X170888615Y-89688799D01*
X170879425Y-89697989D01*
X170874114Y-89703495D01*
X170871954Y-89706954D01*
X170872491Y-89709897D01*
X170874858Y-89713308D01*
X170880317Y-89719432D01*
X170885036Y-89723628D01*
X170886741Y-89724738D01*
X170888566Y-89725137D01*
X170890940Y-89724474D01*
X170894295Y-89722399D01*
X170899060Y-89718560D01*
X170905667Y-89712607D01*
X170914546Y-89704190D01*
X170926128Y-89692958D01*
X170940842Y-89678561D01*
X170943067Y-89676380D01*
X170995543Y-89624943D01*
X170988245Y-89614896D01*
X170985180Y-89610840D01*
X170985180Y-89614222D01*
X170983510Y-89616672D01*
X170980100Y-89620090D01*
X170976420Y-89623023D01*
X170975020Y-89623417D01*
X170976689Y-89620967D01*
X170980100Y-89617550D01*
X170983779Y-89614616D01*
X170985180Y-89614222D01*
X170985180Y-89610840D01*
X170981789Y-89606351D01*
X170977194Y-89601826D01*
X170973475Y-89601134D01*
X170969648Y-89604086D01*
X170964785Y-89610413D01*
X170956271Y-89622269D01*
X170932541Y-89595775D01*
X170899332Y-89630792D01*
X170866122Y-89665810D01*
X170877369Y-89677304D01*
G36*
X171314567Y-89890285D02*
X171330213Y-89874499D01*
X171337223Y-89867280D01*
X171342609Y-89861453D01*
X171345551Y-89857919D01*
X171345860Y-89857336D01*
X171344065Y-89855317D01*
X171339012Y-89850345D01*
X171331197Y-89842890D01*
X171321115Y-89833420D01*
X171309262Y-89822405D01*
X171297642Y-89811698D01*
X171284535Y-89799711D01*
X171272628Y-89788904D01*
X171262439Y-89779742D01*
X171254488Y-89772690D01*
X171249294Y-89768212D01*
X171247417Y-89766769D01*
X171244827Y-89768140D01*
X171239704Y-89772377D01*
X171233012Y-89778659D01*
X171230780Y-89780883D01*
X171216151Y-89795667D01*
X171314567Y-89890285D01*
X171314567Y-89890285D01*
G37*
X171314567Y-89890285D02*
X171330213Y-89874499D01*
X171337223Y-89867280D01*
X171342609Y-89861453D01*
X171345551Y-89857919D01*
X171345860Y-89857336D01*
X171344065Y-89855317D01*
X171339012Y-89850345D01*
X171331197Y-89842890D01*
X171321115Y-89833420D01*
X171309262Y-89822405D01*
X171297642Y-89811698D01*
X171284535Y-89799711D01*
X171272628Y-89788904D01*
X171262439Y-89779742D01*
X171254488Y-89772690D01*
X171249294Y-89768212D01*
X171247417Y-89766769D01*
X171244827Y-89768140D01*
X171239704Y-89772377D01*
X171233012Y-89778659D01*
X171230780Y-89780883D01*
X171216151Y-89795667D01*
X171314567Y-89890285D01*
G36*
X171103970Y-89874090D02*
X171111147Y-89867740D01*
X171113721Y-89865785D01*
X171113450Y-89866759D01*
X171113450Y-89917270D01*
X171130595Y-89933706D01*
X171139037Y-89941853D01*
X171144314Y-89947117D01*
X171146970Y-89950091D01*
X171147549Y-89951364D01*
X171147031Y-89951560D01*
X171145087Y-89949852D01*
X171140454Y-89945269D01*
X171133939Y-89938619D01*
X171129886Y-89934415D01*
X171113450Y-89917270D01*
X171113450Y-89866759D01*
X171113402Y-89866932D01*
X171110738Y-89870542D01*
X171108370Y-89873426D01*
X171108370Y-89910920D01*
X171109640Y-89912190D01*
X171108370Y-89913460D01*
X171107100Y-89912190D01*
X171108370Y-89910920D01*
X171108370Y-89873426D01*
X171106274Y-89875980D01*
X171100559Y-89882606D01*
X171094139Y-89889784D01*
X171087561Y-89896877D01*
X171081371Y-89903246D01*
X171077372Y-89907110D01*
X171063692Y-89919810D01*
X171171180Y-90027172D01*
X171278668Y-90134535D01*
X171289932Y-90123057D01*
X171297391Y-90115936D01*
X171302608Y-90112451D01*
X171306502Y-90112262D01*
X171309990Y-90115027D01*
X171310364Y-90115468D01*
X171313999Y-90119149D01*
X171320090Y-90124679D01*
X171325623Y-90129430D01*
X171337655Y-90139504D01*
X171360271Y-90119522D01*
X171370430Y-90110059D01*
X171380188Y-90100124D01*
X171388267Y-90091060D01*
X171392484Y-90085604D01*
X171399032Y-90077243D01*
X171407862Y-90067463D01*
X171417326Y-90058065D01*
X171419691Y-90055903D01*
X171427399Y-90048676D01*
X171433393Y-90042438D01*
X171436818Y-90038109D01*
X171437300Y-90036936D01*
X171435557Y-90034633D01*
X171430522Y-90029032D01*
X171422487Y-90020432D01*
X171411742Y-90009137D01*
X171398579Y-89995448D01*
X171383288Y-89979667D01*
X171366161Y-89962096D01*
X171364910Y-89960820D01*
X171364910Y-90091260D01*
X171366180Y-90092530D01*
X171364910Y-90093800D01*
X171363640Y-90092530D01*
X171364910Y-90091260D01*
X171364910Y-89960820D01*
X171347488Y-89943037D01*
X171327560Y-89922792D01*
X171315648Y-89910732D01*
X171283630Y-89878359D01*
X171283630Y-90092530D01*
X171291885Y-90099990D01*
X171297655Y-90105407D01*
X171299985Y-90108222D01*
X171299373Y-90109039D01*
X171299345Y-90109040D01*
X171297326Y-90107339D01*
X171293172Y-90103054D01*
X171291090Y-90100785D01*
X171283630Y-90092530D01*
X171283630Y-89878359D01*
X171197270Y-89791041D01*
X171197270Y-90003630D01*
X171215685Y-90021341D01*
X171224455Y-90029824D01*
X171230062Y-90035401D01*
X171233039Y-90038647D01*
X171233921Y-90040139D01*
X171233396Y-90040460D01*
X171231458Y-90038751D01*
X171226792Y-90034143D01*
X171220176Y-90027413D01*
X171214981Y-90022045D01*
X171197270Y-90003630D01*
X171197270Y-89791041D01*
X171193996Y-89787730D01*
X171186288Y-89795016D01*
X171178581Y-89802303D01*
X171137580Y-89760865D01*
X171137580Y-89842822D01*
X171135910Y-89845272D01*
X171132500Y-89848690D01*
X171128820Y-89851623D01*
X171127420Y-89852017D01*
X171129089Y-89849567D01*
X171132500Y-89846150D01*
X171136179Y-89843216D01*
X171137580Y-89842822D01*
X171137580Y-89760865D01*
X171123610Y-89746746D01*
X171123610Y-89832180D01*
X171124880Y-89833450D01*
X171123610Y-89834720D01*
X171122340Y-89833450D01*
X171123610Y-89832180D01*
X171123610Y-89746746D01*
X171104771Y-89727706D01*
X171030961Y-89653110D01*
X171007377Y-89677240D01*
X170997128Y-89687553D01*
X170986732Y-89697717D01*
X170977415Y-89706552D01*
X170970492Y-89712800D01*
X170957190Y-89724230D01*
X171103970Y-89874090D01*
X171103970Y-89874090D01*
G37*
X171103970Y-89874090D02*
X171111147Y-89867740D01*
X171113721Y-89865785D01*
X171113450Y-89866759D01*
X171113450Y-89917270D01*
X171130595Y-89933706D01*
X171139037Y-89941853D01*
X171144314Y-89947117D01*
X171146970Y-89950091D01*
X171147549Y-89951364D01*
X171147031Y-89951560D01*
X171145087Y-89949852D01*
X171140454Y-89945269D01*
X171133939Y-89938619D01*
X171129886Y-89934415D01*
X171113450Y-89917270D01*
X171113450Y-89866759D01*
X171113402Y-89866932D01*
X171110738Y-89870542D01*
X171108370Y-89873426D01*
X171108370Y-89910920D01*
X171109640Y-89912190D01*
X171108370Y-89913460D01*
X171107100Y-89912190D01*
X171108370Y-89910920D01*
X171108370Y-89873426D01*
X171106274Y-89875980D01*
X171100559Y-89882606D01*
X171094139Y-89889784D01*
X171087561Y-89896877D01*
X171081371Y-89903246D01*
X171077372Y-89907110D01*
X171063692Y-89919810D01*
X171171180Y-90027172D01*
X171278668Y-90134535D01*
X171289932Y-90123057D01*
X171297391Y-90115936D01*
X171302608Y-90112451D01*
X171306502Y-90112262D01*
X171309990Y-90115027D01*
X171310364Y-90115468D01*
X171313999Y-90119149D01*
X171320090Y-90124679D01*
X171325623Y-90129430D01*
X171337655Y-90139504D01*
X171360271Y-90119522D01*
X171370430Y-90110059D01*
X171380188Y-90100124D01*
X171388267Y-90091060D01*
X171392484Y-90085604D01*
X171399032Y-90077243D01*
X171407862Y-90067463D01*
X171417326Y-90058065D01*
X171419691Y-90055903D01*
X171427399Y-90048676D01*
X171433393Y-90042438D01*
X171436818Y-90038109D01*
X171437300Y-90036936D01*
X171435557Y-90034633D01*
X171430522Y-90029032D01*
X171422487Y-90020432D01*
X171411742Y-90009137D01*
X171398579Y-89995448D01*
X171383288Y-89979667D01*
X171366161Y-89962096D01*
X171364910Y-89960820D01*
X171364910Y-90091260D01*
X171366180Y-90092530D01*
X171364910Y-90093800D01*
X171363640Y-90092530D01*
X171364910Y-90091260D01*
X171364910Y-89960820D01*
X171347488Y-89943037D01*
X171327560Y-89922792D01*
X171315648Y-89910732D01*
X171283630Y-89878359D01*
X171283630Y-90092530D01*
X171291885Y-90099990D01*
X171297655Y-90105407D01*
X171299985Y-90108222D01*
X171299373Y-90109039D01*
X171299345Y-90109040D01*
X171297326Y-90107339D01*
X171293172Y-90103054D01*
X171291090Y-90100785D01*
X171283630Y-90092530D01*
X171283630Y-89878359D01*
X171197270Y-89791041D01*
X171197270Y-90003630D01*
X171215685Y-90021341D01*
X171224455Y-90029824D01*
X171230062Y-90035401D01*
X171233039Y-90038647D01*
X171233921Y-90040139D01*
X171233396Y-90040460D01*
X171231458Y-90038751D01*
X171226792Y-90034143D01*
X171220176Y-90027413D01*
X171214981Y-90022045D01*
X171197270Y-90003630D01*
X171197270Y-89791041D01*
X171193996Y-89787730D01*
X171186288Y-89795016D01*
X171178581Y-89802303D01*
X171137580Y-89760865D01*
X171137580Y-89842822D01*
X171135910Y-89845272D01*
X171132500Y-89848690D01*
X171128820Y-89851623D01*
X171127420Y-89852017D01*
X171129089Y-89849567D01*
X171132500Y-89846150D01*
X171136179Y-89843216D01*
X171137580Y-89842822D01*
X171137580Y-89760865D01*
X171123610Y-89746746D01*
X171123610Y-89832180D01*
X171124880Y-89833450D01*
X171123610Y-89834720D01*
X171122340Y-89833450D01*
X171123610Y-89832180D01*
X171123610Y-89746746D01*
X171104771Y-89727706D01*
X171030961Y-89653110D01*
X171007377Y-89677240D01*
X170997128Y-89687553D01*
X170986732Y-89697717D01*
X170977415Y-89706552D01*
X170970492Y-89712800D01*
X170957190Y-89724230D01*
X171103970Y-89874090D01*
G36*
X162040661Y-76248236D02*
X162020207Y-76275956D01*
X161991389Y-76317579D01*
X161956848Y-76369345D01*
X161940966Y-76393674D01*
X161773338Y-76662542D01*
X161618868Y-76932664D01*
X161476587Y-77206565D01*
X161345524Y-77486772D01*
X161224708Y-77775809D01*
X161113170Y-78076203D01*
X161009938Y-78390479D01*
X160914044Y-78721164D01*
X160824516Y-79070782D01*
X160740385Y-79441860D01*
X160705281Y-79610347D01*
X160690868Y-79682535D01*
X160674104Y-79768626D01*
X160655487Y-79865882D01*
X160635515Y-79971565D01*
X160614688Y-80082937D01*
X160593503Y-80197260D01*
X160572459Y-80311795D01*
X160552054Y-80423805D01*
X160532787Y-80530552D01*
X160515156Y-80629297D01*
X160499659Y-80717303D01*
X160486794Y-80791831D01*
X160477061Y-80850143D01*
X160470957Y-80889501D01*
X160468981Y-80907167D01*
X160469116Y-80907848D01*
X160475248Y-80899241D01*
X160487062Y-80872392D01*
X160502012Y-80833090D01*
X160502178Y-80832629D01*
X160546953Y-80714116D01*
X160599138Y-80586392D01*
X160656267Y-80454804D01*
X160715876Y-80324697D01*
X160775500Y-80201417D01*
X160832675Y-80090310D01*
X160884936Y-79996722D01*
X160896240Y-79977845D01*
X160971313Y-79863701D01*
X161051490Y-79758454D01*
X161133549Y-79665688D01*
X161214270Y-79588986D01*
X161290430Y-79531933D01*
X161305006Y-79523094D01*
X161408312Y-79477158D01*
X161515969Y-79456003D01*
X161626161Y-79459768D01*
X161737073Y-79488595D01*
X161739479Y-79489501D01*
X161794986Y-79515335D01*
X161865700Y-79555791D01*
X161948014Y-79608422D01*
X162038324Y-79670783D01*
X162133025Y-79740429D01*
X162228510Y-79814915D01*
X162274250Y-79852238D01*
X162395961Y-79957505D01*
X162529056Y-80080584D01*
X162670538Y-80218349D01*
X162817410Y-80367676D01*
X162966676Y-80525440D01*
X163115338Y-80688515D01*
X163260400Y-80853776D01*
X163398864Y-81018099D01*
X163436934Y-81064611D01*
X163500998Y-81143389D01*
X163550833Y-81204456D01*
X163588233Y-81249815D01*
X163614988Y-81281467D01*
X163632890Y-81301411D01*
X163643731Y-81311651D01*
X163649304Y-81314186D01*
X163651398Y-81311017D01*
X163651799Y-81304578D01*
X163650685Y-81267597D01*
X163646587Y-81208795D01*
X163639882Y-81131528D01*
X163630948Y-81039152D01*
X163620162Y-80935022D01*
X163607902Y-80822494D01*
X163594545Y-80704925D01*
X163580469Y-80585669D01*
X163566051Y-80468082D01*
X163551669Y-80355521D01*
X163537700Y-80251341D01*
X163524521Y-80158897D01*
X163518319Y-80117950D01*
X163429784Y-79620401D01*
X163320820Y-79136498D01*
X163191561Y-78666614D01*
X163072734Y-78304375D01*
X162579050Y-78304375D01*
X162407600Y-78390279D01*
X162347750Y-78420354D01*
X162296527Y-78446257D01*
X162257956Y-78465940D01*
X162236062Y-78477357D01*
X162232622Y-78479328D01*
X162232871Y-78492175D01*
X162235675Y-78525201D01*
X162240482Y-78573376D01*
X162246741Y-78631671D01*
X162253902Y-78695055D01*
X162261413Y-78758498D01*
X162268723Y-78816970D01*
X162273709Y-78854300D01*
X162276126Y-78871486D01*
X162276889Y-78882497D01*
X162274407Y-78885133D01*
X162267088Y-78877195D01*
X162253342Y-78856483D01*
X162231577Y-78820799D01*
X162200202Y-78767944D01*
X162157626Y-78695717D01*
X162151740Y-78685732D01*
X162116286Y-78626102D01*
X162085073Y-78574574D01*
X162060462Y-78534966D01*
X162044810Y-78511098D01*
X162040628Y-78505870D01*
X162031904Y-78514585D01*
X162012806Y-78541839D01*
X161985598Y-78584141D01*
X161952544Y-78637997D01*
X161925473Y-78683538D01*
X161889782Y-78743747D01*
X161858645Y-78795111D01*
X161834242Y-78834123D01*
X161818755Y-78857281D01*
X161814306Y-78862139D01*
X161814242Y-78848786D01*
X161816788Y-78814805D01*
X161821530Y-78764787D01*
X161828054Y-78703322D01*
X161830985Y-78677310D01*
X161837818Y-78610478D01*
X161842070Y-78553675D01*
X161843510Y-78511463D01*
X161841904Y-78488408D01*
X161840712Y-78485825D01*
X161825873Y-78476217D01*
X161793039Y-78457490D01*
X161746784Y-78432180D01*
X161691682Y-78402825D01*
X161680663Y-78397038D01*
X161624997Y-78367440D01*
X161577919Y-78341594D01*
X161543795Y-78321957D01*
X161526993Y-78310988D01*
X161526084Y-78310034D01*
X161535497Y-78303149D01*
X161565071Y-78290040D01*
X161610803Y-78272300D01*
X161668686Y-78251518D01*
X161702308Y-78240022D01*
X161884023Y-78178894D01*
X161891016Y-78132422D01*
X161893978Y-78110163D01*
X161899584Y-78065545D01*
X161907485Y-78001435D01*
X161917333Y-77920697D01*
X161928779Y-77826197D01*
X161941474Y-77720799D01*
X161955070Y-77607368D01*
X161963132Y-77539850D01*
X161977069Y-77424162D01*
X161990398Y-77315764D01*
X162002767Y-77217370D01*
X162013821Y-77131694D01*
X162023207Y-77061452D01*
X162030572Y-77009357D01*
X162035561Y-76978125D01*
X162037285Y-76970484D01*
X162040606Y-76977895D01*
X162046608Y-77008218D01*
X162054956Y-77059144D01*
X162065315Y-77128365D01*
X162077351Y-77213571D01*
X162090729Y-77312455D01*
X162105115Y-77422707D01*
X162120168Y-77541984D01*
X162135214Y-77662640D01*
X162149473Y-77775986D01*
X162162612Y-77879446D01*
X162174297Y-77970444D01*
X162184196Y-78046405D01*
X162191976Y-78104752D01*
X162197305Y-78142909D01*
X162199792Y-78158110D01*
X162212955Y-78171037D01*
X162247351Y-78188544D01*
X162304092Y-78211115D01*
X162384288Y-78239233D01*
X162392307Y-78241923D01*
X162579050Y-78304375D01*
X163072734Y-78304375D01*
X163042142Y-78211120D01*
X162872697Y-77770390D01*
X162683359Y-77344797D01*
X162474264Y-76934714D01*
X162245547Y-76540514D01*
X162207429Y-76479400D01*
X162168863Y-76418033D01*
X162133641Y-76361732D01*
X162104653Y-76315136D01*
X162084788Y-76282885D01*
X162078896Y-76273105D01*
X162062349Y-76248940D01*
X162050459Y-76238211D01*
X162050112Y-76238180D01*
X162040661Y-76248236D01*
X162040661Y-76248236D01*
G37*
X162040661Y-76248236D02*
X162020207Y-76275956D01*
X161991389Y-76317579D01*
X161956848Y-76369345D01*
X161940966Y-76393674D01*
X161773338Y-76662542D01*
X161618868Y-76932664D01*
X161476587Y-77206565D01*
X161345524Y-77486772D01*
X161224708Y-77775809D01*
X161113170Y-78076203D01*
X161009938Y-78390479D01*
X160914044Y-78721164D01*
X160824516Y-79070782D01*
X160740385Y-79441860D01*
X160705281Y-79610347D01*
X160690868Y-79682535D01*
X160674104Y-79768626D01*
X160655487Y-79865882D01*
X160635515Y-79971565D01*
X160614688Y-80082937D01*
X160593503Y-80197260D01*
X160572459Y-80311795D01*
X160552054Y-80423805D01*
X160532787Y-80530552D01*
X160515156Y-80629297D01*
X160499659Y-80717303D01*
X160486794Y-80791831D01*
X160477061Y-80850143D01*
X160470957Y-80889501D01*
X160468981Y-80907167D01*
X160469116Y-80907848D01*
X160475248Y-80899241D01*
X160487062Y-80872392D01*
X160502012Y-80833090D01*
X160502178Y-80832629D01*
X160546953Y-80714116D01*
X160599138Y-80586392D01*
X160656267Y-80454804D01*
X160715876Y-80324697D01*
X160775500Y-80201417D01*
X160832675Y-80090310D01*
X160884936Y-79996722D01*
X160896240Y-79977845D01*
X160971313Y-79863701D01*
X161051490Y-79758454D01*
X161133549Y-79665688D01*
X161214270Y-79588986D01*
X161290430Y-79531933D01*
X161305006Y-79523094D01*
X161408312Y-79477158D01*
X161515969Y-79456003D01*
X161626161Y-79459768D01*
X161737073Y-79488595D01*
X161739479Y-79489501D01*
X161794986Y-79515335D01*
X161865700Y-79555791D01*
X161948014Y-79608422D01*
X162038324Y-79670783D01*
X162133025Y-79740429D01*
X162228510Y-79814915D01*
X162274250Y-79852238D01*
X162395961Y-79957505D01*
X162529056Y-80080584D01*
X162670538Y-80218349D01*
X162817410Y-80367676D01*
X162966676Y-80525440D01*
X163115338Y-80688515D01*
X163260400Y-80853776D01*
X163398864Y-81018099D01*
X163436934Y-81064611D01*
X163500998Y-81143389D01*
X163550833Y-81204456D01*
X163588233Y-81249815D01*
X163614988Y-81281467D01*
X163632890Y-81301411D01*
X163643731Y-81311651D01*
X163649304Y-81314186D01*
X163651398Y-81311017D01*
X163651799Y-81304578D01*
X163650685Y-81267597D01*
X163646587Y-81208795D01*
X163639882Y-81131528D01*
X163630948Y-81039152D01*
X163620162Y-80935022D01*
X163607902Y-80822494D01*
X163594545Y-80704925D01*
X163580469Y-80585669D01*
X163566051Y-80468082D01*
X163551669Y-80355521D01*
X163537700Y-80251341D01*
X163524521Y-80158897D01*
X163518319Y-80117950D01*
X163429784Y-79620401D01*
X163320820Y-79136498D01*
X163191561Y-78666614D01*
X163072734Y-78304375D01*
X162579050Y-78304375D01*
X162407600Y-78390279D01*
X162347750Y-78420354D01*
X162296527Y-78446257D01*
X162257956Y-78465940D01*
X162236062Y-78477357D01*
X162232622Y-78479328D01*
X162232871Y-78492175D01*
X162235675Y-78525201D01*
X162240482Y-78573376D01*
X162246741Y-78631671D01*
X162253902Y-78695055D01*
X162261413Y-78758498D01*
X162268723Y-78816970D01*
X162273709Y-78854300D01*
X162276126Y-78871486D01*
X162276889Y-78882497D01*
X162274407Y-78885133D01*
X162267088Y-78877195D01*
X162253342Y-78856483D01*
X162231577Y-78820799D01*
X162200202Y-78767944D01*
X162157626Y-78695717D01*
X162151740Y-78685732D01*
X162116286Y-78626102D01*
X162085073Y-78574574D01*
X162060462Y-78534966D01*
X162044810Y-78511098D01*
X162040628Y-78505870D01*
X162031904Y-78514585D01*
X162012806Y-78541839D01*
X161985598Y-78584141D01*
X161952544Y-78637997D01*
X161925473Y-78683538D01*
X161889782Y-78743747D01*
X161858645Y-78795111D01*
X161834242Y-78834123D01*
X161818755Y-78857281D01*
X161814306Y-78862139D01*
X161814242Y-78848786D01*
X161816788Y-78814805D01*
X161821530Y-78764787D01*
X161828054Y-78703322D01*
X161830985Y-78677310D01*
X161837818Y-78610478D01*
X161842070Y-78553675D01*
X161843510Y-78511463D01*
X161841904Y-78488408D01*
X161840712Y-78485825D01*
X161825873Y-78476217D01*
X161793039Y-78457490D01*
X161746784Y-78432180D01*
X161691682Y-78402825D01*
X161680663Y-78397038D01*
X161624997Y-78367440D01*
X161577919Y-78341594D01*
X161543795Y-78321957D01*
X161526993Y-78310988D01*
X161526084Y-78310034D01*
X161535497Y-78303149D01*
X161565071Y-78290040D01*
X161610803Y-78272300D01*
X161668686Y-78251518D01*
X161702308Y-78240022D01*
X161884023Y-78178894D01*
X161891016Y-78132422D01*
X161893978Y-78110163D01*
X161899584Y-78065545D01*
X161907485Y-78001435D01*
X161917333Y-77920697D01*
X161928779Y-77826197D01*
X161941474Y-77720799D01*
X161955070Y-77607368D01*
X161963132Y-77539850D01*
X161977069Y-77424162D01*
X161990398Y-77315764D01*
X162002767Y-77217370D01*
X162013821Y-77131694D01*
X162023207Y-77061452D01*
X162030572Y-77009357D01*
X162035561Y-76978125D01*
X162037285Y-76970484D01*
X162040606Y-76977895D01*
X162046608Y-77008218D01*
X162054956Y-77059144D01*
X162065315Y-77128365D01*
X162077351Y-77213571D01*
X162090729Y-77312455D01*
X162105115Y-77422707D01*
X162120168Y-77541984D01*
X162135214Y-77662640D01*
X162149473Y-77775986D01*
X162162612Y-77879446D01*
X162174297Y-77970444D01*
X162184196Y-78046405D01*
X162191976Y-78104752D01*
X162197305Y-78142909D01*
X162199792Y-78158110D01*
X162212955Y-78171037D01*
X162247351Y-78188544D01*
X162304092Y-78211115D01*
X162384288Y-78239233D01*
X162392307Y-78241923D01*
X162579050Y-78304375D01*
X163072734Y-78304375D01*
X163042142Y-78211120D01*
X162872697Y-77770390D01*
X162683359Y-77344797D01*
X162474264Y-76934714D01*
X162245547Y-76540514D01*
X162207429Y-76479400D01*
X162168863Y-76418033D01*
X162133641Y-76361732D01*
X162104653Y-76315136D01*
X162084788Y-76282885D01*
X162078896Y-76273105D01*
X162062349Y-76248940D01*
X162050459Y-76238211D01*
X162050112Y-76238180D01*
X162040661Y-76248236D01*
D10*
G04 #@! TO.C,Q4*
X131533900Y-79466700D02*
X131533900Y-77259797D01*
X131899660Y-79466700D02*
X131533900Y-79466700D01*
X137198100Y-77259797D02*
X137198100Y-79466700D01*
X137198100Y-79466700D02*
X136832340Y-79466700D01*
D13*
G04 #@! TO.C,U3*
X151770000Y-77489000D02*
X151770000Y-78749000D01*
X151770000Y-84309000D02*
X151770000Y-83049000D01*
X148010000Y-77489000D02*
X151770000Y-77489000D01*
X145760000Y-84309000D02*
X151770000Y-84309000D01*
G04 #@! TO.C,R8*
X130681000Y-82364267D02*
X130681000Y-82021733D01*
X131701000Y-82364267D02*
X131701000Y-82021733D01*
G04 #@! TO.C,C1*
X155005500Y-86315733D02*
X155005500Y-86658267D01*
X153985500Y-86315733D02*
X153985500Y-86658267D01*
G04 #@! TO.C,C2*
X161692151Y-85172733D02*
X161692151Y-85515267D01*
X162712151Y-85172733D02*
X162712151Y-85515267D01*
G04 #@! TO.C,C3*
X165204283Y-83970400D02*
X165546817Y-83970400D01*
X165204283Y-84990400D02*
X165546817Y-84990400D01*
G04 #@! TO.C,C4*
X165204282Y-86514400D02*
X165546818Y-86514400D01*
X165204282Y-85494400D02*
X165546818Y-85494400D01*
G04 #@! TO.C,C5*
X156466000Y-74885732D02*
X156466000Y-75228268D01*
X155446000Y-74885732D02*
X155446000Y-75228268D01*
G04 #@! TO.C,C8*
X139892709Y-86356267D02*
X139892709Y-86013733D01*
X138872709Y-86356267D02*
X138872709Y-86013733D01*
G04 #@! TO.C,C9*
X134600767Y-69276500D02*
X134258233Y-69276500D01*
X134600767Y-70296500D02*
X134258233Y-70296500D01*
G04 #@! TO.C,C11*
X138495500Y-71964733D02*
X138495500Y-72307267D01*
X137475500Y-71964733D02*
X137475500Y-72307267D01*
G04 #@! TO.C,C12*
X145036000Y-81705267D02*
X145036000Y-81362733D01*
X144016000Y-81705267D02*
X144016000Y-81362733D01*
G04 #@! TO.C,C13*
X143385000Y-81362733D02*
X143385000Y-81705267D01*
X142365000Y-81362733D02*
X142365000Y-81705267D01*
G04 #@! TO.C,C16*
X173818733Y-74039000D02*
X174161267Y-74039000D01*
X173818733Y-75059000D02*
X174161267Y-75059000D01*
G04 #@! TO.C,C17*
X175004000Y-80664233D02*
X175004000Y-81006767D01*
X176024000Y-80664233D02*
X176024000Y-81006767D01*
G04 #@! TO.C,L1*
X143910578Y-77966500D02*
X143393422Y-77966500D01*
X143910578Y-79386500D02*
X143393422Y-79386500D01*
G04 #@! TO.C,Q3*
X126817000Y-81536000D02*
X126817000Y-82996000D01*
X129977000Y-81536000D02*
X129977000Y-83696000D01*
X129977000Y-81536000D02*
X129047000Y-81536000D01*
X126817000Y-81536000D02*
X127747000Y-81536000D01*
G04 #@! TO.C,Q5*
X141041000Y-74027000D02*
X141971000Y-74027000D01*
X144201000Y-74027000D02*
X143271000Y-74027000D01*
X144201000Y-74027000D02*
X144201000Y-76187000D01*
X141041000Y-74027000D02*
X141041000Y-75487000D01*
G04 #@! TO.C,Q6*
X146121000Y-74027000D02*
X146121000Y-75487000D01*
X149281000Y-74027000D02*
X149281000Y-76187000D01*
X149281000Y-74027000D02*
X148351000Y-74027000D01*
X146121000Y-74027000D02*
X147051000Y-74027000D01*
G04 #@! TO.C,Q7*
X151201000Y-74027000D02*
X151201000Y-75487000D01*
X154361000Y-74027000D02*
X154361000Y-76187000D01*
X154361000Y-74027000D02*
X153431000Y-74027000D01*
X151201000Y-74027000D02*
X152131000Y-74027000D01*
G04 #@! TO.C,R1*
X150315344Y-86315733D02*
X150315344Y-86658267D01*
X149295344Y-86315733D02*
X149295344Y-86658267D01*
G04 #@! TO.C,R2*
X155573000Y-86315733D02*
X155573000Y-86658267D01*
X156593000Y-86315733D02*
X156593000Y-86658267D01*
G04 #@! TO.C,R3*
X147699000Y-86315733D02*
X147699000Y-86658267D01*
X148719000Y-86315733D02*
X148719000Y-86658267D01*
G04 #@! TO.C,R4*
X153443400Y-86315733D02*
X153443400Y-86658267D01*
X152423400Y-86315733D02*
X152423400Y-86658267D01*
G04 #@! TO.C,R5*
X151894000Y-86658267D02*
X151894000Y-86315733D01*
X150874000Y-86658267D02*
X150874000Y-86315733D01*
G04 #@! TO.C,R10*
X125220000Y-82364267D02*
X125220000Y-82021733D01*
X126240000Y-82364267D02*
X126240000Y-82021733D01*
G04 #@! TO.C,R12*
X129030000Y-87918733D02*
X129030000Y-88261267D01*
X130050000Y-87918733D02*
X130050000Y-88261267D01*
G04 #@! TO.C,R13*
X136315267Y-88854000D02*
X135972733Y-88854000D01*
X136315267Y-87834000D02*
X135972733Y-87834000D01*
G04 #@! TO.C,C10*
X130300000Y-71964733D02*
X130300000Y-72307267D01*
X131320000Y-71964733D02*
X131320000Y-72307267D01*
G04 #@! TO.C,D2*
X123024000Y-84148000D02*
X123024000Y-80998000D01*
X121324000Y-84148000D02*
X121324000Y-80998000D01*
X123024000Y-84148000D02*
X121324000Y-84148000D01*
G04 #@! TO.C,Q2*
X141335000Y-78248000D02*
X141000000Y-78248000D01*
X138400000Y-78248000D02*
X138065000Y-78248000D01*
X138400000Y-81518000D02*
X138065000Y-81518000D01*
X138065000Y-81518000D02*
X138065000Y-78248000D01*
X141335000Y-81753000D02*
X141335000Y-78248000D01*
G04 #@! TO.C,R20*
X168738733Y-75567000D02*
X169081267Y-75567000D01*
X168738733Y-74547000D02*
X169081267Y-74547000D01*
G04 #@! TO.C,R9*
X123569000Y-82364267D02*
X123569000Y-82021733D01*
X124589000Y-82364267D02*
X124589000Y-82021733D01*
G04 #@! TO.C,D4*
X131019500Y-67464000D02*
X133479500Y-67464000D01*
X131019500Y-68934000D02*
X131019500Y-67464000D01*
X133479500Y-68934000D02*
X131019500Y-68934000D01*
G04 #@! TO.C,D5*
X137839500Y-68934000D02*
X135379500Y-68934000D01*
X137839500Y-67464000D02*
X137839500Y-68934000D01*
X135379500Y-67464000D02*
X137839500Y-67464000D01*
G04 #@! TO.C,D6*
X134289500Y-64605000D02*
X134289500Y-67065000D01*
X134289500Y-67065000D02*
X132819500Y-67065000D01*
X132819500Y-67065000D02*
X132819500Y-64605000D01*
G04 #@! TO.C,D7*
X134569500Y-67065000D02*
X134569500Y-64605000D01*
X136039500Y-67065000D02*
X134569500Y-67065000D01*
X136039500Y-64605000D02*
X136039500Y-67065000D01*
G04 #@! TO.C,D8*
X142151000Y-70458000D02*
X139691000Y-70458000D01*
X139691000Y-70458000D02*
X139691000Y-68988000D01*
X139691000Y-68988000D02*
X142151000Y-68988000D01*
G04 #@! TO.C,D9*
X149851000Y-68988000D02*
X152311000Y-68988000D01*
X149851000Y-70458000D02*
X149851000Y-68988000D01*
X152311000Y-70458000D02*
X149851000Y-70458000D01*
G04 #@! TO.C,C18*
X158595600Y-85180691D02*
X158595600Y-85523225D01*
X159615600Y-85180691D02*
X159615600Y-85523225D01*
G04 #@! TO.C,C19*
X161165000Y-85180690D02*
X161165000Y-85523224D01*
X160145000Y-85180690D02*
X160145000Y-85523224D01*
D12*
G04 #@! TO.C,U1*
X165554151Y-82119956D02*
X165329151Y-82119956D01*
X165554151Y-74869956D02*
X165254151Y-74869956D01*
X158304151Y-74869956D02*
X158604151Y-74869956D01*
X158304151Y-82119956D02*
X158604151Y-82119956D01*
X165554151Y-82119956D02*
X165554151Y-81819956D01*
X158304151Y-82119956D02*
X158304151Y-81819956D01*
X158304151Y-74869956D02*
X158304151Y-75169956D01*
X165554151Y-74869956D02*
X165554151Y-75169956D01*
X165329151Y-82119956D02*
X165329151Y-83344956D01*
D13*
G04 #@! TO.C,D12*
X147231000Y-70458000D02*
X144771000Y-70458000D01*
X144771000Y-70458000D02*
X144771000Y-68988000D01*
X144771000Y-68988000D02*
X147231000Y-68988000D01*
G04 #@! TO.C,D13*
X157261000Y-68388000D02*
X157261000Y-70238000D01*
X158461000Y-68388000D02*
X158461000Y-70238000D01*
X158461000Y-70238000D02*
X157261000Y-70238000D01*
G04 #@! TO.C,D14*
X163541000Y-70238000D02*
X162341000Y-70238000D01*
X163541000Y-68388000D02*
X163541000Y-70238000D01*
X162341000Y-68388000D02*
X162341000Y-70238000D01*
G04 #@! TO.C,D15*
X166081000Y-70238000D02*
X164881000Y-70238000D01*
X166081000Y-68388000D02*
X166081000Y-70238000D01*
X164881000Y-68388000D02*
X164881000Y-70238000D01*
D14*
G04 #@! TO.C,G\002A\002A\002A*
G36*
X117705909Y-72540091D02*
X118260091Y-72540091D01*
X118260091Y-71985909D01*
X117705909Y-71985909D01*
X117705909Y-72540091D01*
X117705909Y-72540091D01*
G37*
X117705909Y-72540091D02*
X118260091Y-72540091D01*
X118260091Y-71985909D01*
X117705909Y-71985909D01*
X117705909Y-72540091D01*
G36*
X121769909Y-72540091D02*
X122324091Y-72540091D01*
X122324091Y-71985909D01*
X121769909Y-71985909D01*
X121769909Y-72540091D01*
X121769909Y-72540091D01*
G37*
X121769909Y-72540091D02*
X122324091Y-72540091D01*
X122324091Y-71985909D01*
X121769909Y-71985909D01*
X121769909Y-72540091D01*
G36*
X118444818Y-75865182D02*
X118629546Y-75865182D01*
X118629546Y-75680454D01*
X118444818Y-75680454D01*
X118444818Y-75865182D01*
X118444818Y-75865182D01*
G37*
X118444818Y-75865182D02*
X118629546Y-75865182D01*
X118629546Y-75680454D01*
X118444818Y-75680454D01*
X118444818Y-75865182D01*
G36*
X119183727Y-76049909D02*
X119368455Y-76049909D01*
X119368455Y-75680454D01*
X119183727Y-75680454D01*
X119183727Y-76049909D01*
X119183727Y-76049909D01*
G37*
X119183727Y-76049909D02*
X119368455Y-76049909D01*
X119368455Y-75680454D01*
X119183727Y-75680454D01*
X119183727Y-76049909D01*
G36*
X121769909Y-76604091D02*
X122324091Y-76604091D01*
X122324091Y-76049909D01*
X121769909Y-76049909D01*
X121769909Y-76604091D01*
X121769909Y-76604091D01*
G37*
X121769909Y-76604091D02*
X122324091Y-76604091D01*
X122324091Y-76049909D01*
X121769909Y-76049909D01*
X121769909Y-76604091D01*
G36*
X120846273Y-71801182D02*
X121215727Y-71801182D01*
X121215727Y-71616454D01*
X120846273Y-71616454D01*
X120846273Y-71801182D01*
X120846273Y-71801182D01*
G37*
X120846273Y-71801182D02*
X121215727Y-71801182D01*
X121215727Y-71616454D01*
X120846273Y-71616454D01*
X120846273Y-71801182D01*
G36*
X117336455Y-72909545D02*
X118629546Y-72909545D01*
X118629546Y-71801182D01*
X118444818Y-71801182D01*
X118444818Y-72724818D01*
X117521182Y-72724818D01*
X117521182Y-71801182D01*
X118444818Y-71801182D01*
X118629546Y-71801182D01*
X118629546Y-71616454D01*
X117336455Y-71616454D01*
X117336455Y-72909545D01*
X117336455Y-72909545D01*
G37*
X117336455Y-72909545D02*
X118629546Y-72909545D01*
X118629546Y-71801182D01*
X118444818Y-71801182D01*
X118444818Y-72724818D01*
X117521182Y-72724818D01*
X117521182Y-71801182D01*
X118444818Y-71801182D01*
X118629546Y-71801182D01*
X118629546Y-71616454D01*
X117336455Y-71616454D01*
X117336455Y-72909545D01*
G36*
X121400455Y-72909545D02*
X122693546Y-72909545D01*
X122693546Y-71801182D01*
X122508818Y-71801182D01*
X122508818Y-72724818D01*
X121585182Y-72724818D01*
X121585182Y-71801182D01*
X122508818Y-71801182D01*
X122693546Y-71801182D01*
X122693546Y-71616454D01*
X121400455Y-71616454D01*
X121400455Y-72909545D01*
X121400455Y-72909545D01*
G37*
X121400455Y-72909545D02*
X122693546Y-72909545D01*
X122693546Y-71801182D01*
X122508818Y-71801182D01*
X122508818Y-72724818D01*
X121585182Y-72724818D01*
X121585182Y-71801182D01*
X122508818Y-71801182D01*
X122693546Y-71801182D01*
X122693546Y-71616454D01*
X121400455Y-71616454D01*
X121400455Y-72909545D01*
G36*
X122324091Y-74199848D02*
X122410682Y-74207015D01*
X122467850Y-74215434D01*
X122493784Y-74237775D01*
X122503418Y-74288974D01*
X122504439Y-74300773D01*
X122511976Y-74356551D01*
X122531738Y-74381093D01*
X122578240Y-74387207D01*
X122602576Y-74387364D01*
X122693546Y-74387364D01*
X122693546Y-73833182D01*
X122324091Y-73833182D01*
X122324091Y-74199848D01*
X122324091Y-74199848D01*
G37*
X122324091Y-74199848D02*
X122410682Y-74207015D01*
X122467850Y-74215434D01*
X122493784Y-74237775D01*
X122503418Y-74288974D01*
X122504439Y-74300773D01*
X122511976Y-74356551D01*
X122531738Y-74381093D01*
X122578240Y-74387207D01*
X122602576Y-74387364D01*
X122693546Y-74387364D01*
X122693546Y-73833182D01*
X122324091Y-73833182D01*
X122324091Y-74199848D01*
G36*
X121400455Y-75126273D02*
X121769909Y-75126273D01*
X121769909Y-74941545D01*
X121400455Y-74941545D01*
X121400455Y-75126273D01*
X121400455Y-75126273D01*
G37*
X121400455Y-75126273D02*
X121769909Y-75126273D01*
X121769909Y-74941545D01*
X121400455Y-74941545D01*
X121400455Y-75126273D01*
G36*
X122324091Y-75495727D02*
X122508818Y-75495727D01*
X122508818Y-75311000D01*
X122324091Y-75311000D01*
X122324091Y-75495727D01*
X122324091Y-75495727D01*
G37*
X122324091Y-75495727D02*
X122508818Y-75495727D01*
X122508818Y-75311000D01*
X122324091Y-75311000D01*
X122324091Y-75495727D01*
G36*
X120107364Y-76973545D02*
X120661546Y-76973545D01*
X120661546Y-76788818D01*
X120107364Y-76788818D01*
X120107364Y-76973545D01*
X120107364Y-76973545D01*
G37*
X120107364Y-76973545D02*
X120661546Y-76973545D01*
X120661546Y-76788818D01*
X120107364Y-76788818D01*
X120107364Y-76973545D01*
G36*
X119368455Y-71801182D02*
X119183727Y-71801182D01*
X119183727Y-71985909D01*
X119368455Y-71985909D01*
X119368455Y-71801182D01*
X119368455Y-71801182D01*
G37*
X119368455Y-71801182D02*
X119183727Y-71801182D01*
X119183727Y-71985909D01*
X119368455Y-71985909D01*
X119368455Y-71801182D01*
G36*
X119183727Y-71616454D02*
X118999000Y-71616454D01*
X118999000Y-71801182D01*
X119183727Y-71801182D01*
X119183727Y-71616454D01*
X119183727Y-71616454D01*
G37*
X119183727Y-71616454D02*
X118999000Y-71616454D01*
X118999000Y-71801182D01*
X119183727Y-71801182D01*
X119183727Y-71616454D01*
G36*
X119273303Y-72909545D02*
X119332702Y-72906891D01*
X119360322Y-72890581D01*
X119370552Y-72848098D01*
X119372834Y-72822954D01*
X119380875Y-72766210D01*
X119401443Y-72741930D01*
X119448454Y-72736419D01*
X119460818Y-72736364D01*
X119541636Y-72736364D01*
X119554648Y-73279000D01*
X119644884Y-73279000D01*
X119703413Y-73276152D01*
X119730362Y-73258965D01*
X119740315Y-73214476D01*
X119742288Y-73192409D01*
X119750330Y-73135664D01*
X119770898Y-73111385D01*
X119817909Y-73105874D01*
X119830273Y-73105818D01*
X119883531Y-73109403D01*
X119907838Y-73129287D01*
X119917110Y-73179167D01*
X119918258Y-73192409D01*
X119925911Y-73248491D01*
X119946011Y-73272943D01*
X119993200Y-73278873D01*
X120015000Y-73279000D01*
X120073256Y-73276088D01*
X120099998Y-73258615D01*
X120109868Y-73213473D01*
X120111743Y-73192409D01*
X120120161Y-73135241D01*
X120142502Y-73109307D01*
X120193701Y-73099673D01*
X120205500Y-73098651D01*
X120261279Y-73091115D01*
X120285821Y-73071353D01*
X120291935Y-73024851D01*
X120292091Y-73000515D01*
X120294372Y-72942287D01*
X120310103Y-72916413D01*
X120335058Y-72912510D01*
X120295056Y-72912510D01*
X120206982Y-72905255D01*
X120149611Y-72897337D01*
X120124809Y-72877406D01*
X120118991Y-72831876D01*
X120118909Y-72817182D01*
X120120703Y-72789997D01*
X119918690Y-72789997D01*
X119918637Y-72861476D01*
X119890324Y-72898472D01*
X119829899Y-72905705D01*
X119824659Y-72905247D01*
X119773995Y-72895788D01*
X119753322Y-72870622D01*
X119749455Y-72817182D01*
X119753029Y-72763015D01*
X119773196Y-72740801D01*
X119824121Y-72736374D01*
X119830273Y-72736364D01*
X119886769Y-72741847D01*
X119912213Y-72764130D01*
X119918690Y-72789997D01*
X120120703Y-72789997D01*
X120122484Y-72763015D01*
X120142651Y-72740801D01*
X120193576Y-72736374D01*
X120199727Y-72736364D01*
X120252659Y-72739842D01*
X120277024Y-72759336D01*
X120286407Y-72808431D01*
X120287801Y-72824437D01*
X120295056Y-72912510D01*
X120335058Y-72912510D01*
X120352616Y-72909764D01*
X120384455Y-72909545D01*
X120476818Y-72909545D01*
X120476818Y-73094273D01*
X120661546Y-73094273D01*
X120661546Y-72909545D01*
X120846273Y-72909545D01*
X120846273Y-73094273D01*
X121031000Y-73094273D01*
X121031000Y-72909545D01*
X121215727Y-72909545D01*
X121215727Y-72817182D01*
X121031000Y-72817182D01*
X121031000Y-72909545D01*
X120846273Y-72909545D01*
X120846273Y-72724818D01*
X120661546Y-72724818D01*
X120661546Y-72909545D01*
X120476818Y-72909545D01*
X120476818Y-72541263D01*
X120113136Y-72534904D01*
X119749455Y-72528545D01*
X119749455Y-72447727D01*
X119753137Y-72394173D01*
X119773380Y-72369921D01*
X119823979Y-72360749D01*
X119834730Y-72359821D01*
X119891386Y-72351226D01*
X119916916Y-72328246D01*
X119926375Y-72275830D01*
X119927094Y-72267457D01*
X119935553Y-72211125D01*
X119958140Y-72185535D01*
X120009777Y-72175964D01*
X120020773Y-72175015D01*
X120076551Y-72167478D01*
X120101094Y-72147717D01*
X120107207Y-72101215D01*
X120107364Y-72076879D01*
X120109645Y-72018650D01*
X120125376Y-71992777D01*
X120167888Y-71986128D01*
X120199727Y-71985909D01*
X120258848Y-71988156D01*
X120285118Y-72003649D01*
X120291869Y-72045520D01*
X120292091Y-72076879D01*
X120294871Y-72135708D01*
X120311748Y-72162888D01*
X120355530Y-72172935D01*
X120378682Y-72175015D01*
X120465273Y-72182182D01*
X120472000Y-72360182D01*
X120478727Y-72538183D01*
X120656727Y-72544909D01*
X120834727Y-72551636D01*
X120841894Y-72638227D01*
X120849431Y-72694006D01*
X120869192Y-72718548D01*
X120915694Y-72724662D01*
X120940030Y-72724818D01*
X120998259Y-72727099D01*
X121024132Y-72742830D01*
X121030782Y-72785343D01*
X121031000Y-72817182D01*
X121215727Y-72817182D01*
X121215727Y-72724818D01*
X121028212Y-72724818D01*
X121035379Y-72638227D01*
X121043798Y-72581059D01*
X121066139Y-72555125D01*
X121117338Y-72545491D01*
X121129136Y-72544470D01*
X121215727Y-72537303D01*
X121215727Y-71985909D01*
X121124758Y-71985909D01*
X121065929Y-71988689D01*
X121038748Y-72005566D01*
X121028702Y-72049347D01*
X121026621Y-72072500D01*
X121018169Y-72129693D01*
X120995872Y-72155632D01*
X120945008Y-72165239D01*
X120934179Y-72166179D01*
X120877524Y-72174774D01*
X120851993Y-72197753D01*
X120842535Y-72250170D01*
X120841816Y-72258543D01*
X120833656Y-72314727D01*
X120812491Y-72338542D01*
X120764101Y-72343781D01*
X120753909Y-72343818D01*
X120673091Y-72343818D01*
X120666347Y-72164864D01*
X120659603Y-71985909D01*
X120292091Y-71985909D01*
X120292091Y-71801182D01*
X120107364Y-71801182D01*
X120107364Y-71987852D01*
X119928409Y-71981108D01*
X119749455Y-71974364D01*
X119742288Y-71887773D01*
X119734634Y-71831691D01*
X119714535Y-71807238D01*
X119667346Y-71801308D01*
X119645546Y-71801182D01*
X119587289Y-71804093D01*
X119560548Y-71821567D01*
X119550677Y-71866709D01*
X119548803Y-71887773D01*
X119540385Y-71944941D01*
X119518044Y-71970874D01*
X119466844Y-71980509D01*
X119455046Y-71981530D01*
X119370298Y-71988544D01*
X119363653Y-72164864D01*
X119356909Y-72343818D01*
X119177955Y-72350562D01*
X118999000Y-72357306D01*
X118999000Y-72447305D01*
X119001871Y-72505735D01*
X119019160Y-72532609D01*
X119063883Y-72542532D01*
X119085591Y-72544470D01*
X119172182Y-72551636D01*
X119185613Y-72909545D01*
X119273303Y-72909545D01*
X119273303Y-72909545D01*
G37*
X119273303Y-72909545D02*
X119332702Y-72906891D01*
X119360322Y-72890581D01*
X119370552Y-72848098D01*
X119372834Y-72822954D01*
X119380875Y-72766210D01*
X119401443Y-72741930D01*
X119448454Y-72736419D01*
X119460818Y-72736364D01*
X119541636Y-72736364D01*
X119554648Y-73279000D01*
X119644884Y-73279000D01*
X119703413Y-73276152D01*
X119730362Y-73258965D01*
X119740315Y-73214476D01*
X119742288Y-73192409D01*
X119750330Y-73135664D01*
X119770898Y-73111385D01*
X119817909Y-73105874D01*
X119830273Y-73105818D01*
X119883531Y-73109403D01*
X119907838Y-73129287D01*
X119917110Y-73179167D01*
X119918258Y-73192409D01*
X119925911Y-73248491D01*
X119946011Y-73272943D01*
X119993200Y-73278873D01*
X120015000Y-73279000D01*
X120073256Y-73276088D01*
X120099998Y-73258615D01*
X120109868Y-73213473D01*
X120111743Y-73192409D01*
X120120161Y-73135241D01*
X120142502Y-73109307D01*
X120193701Y-73099673D01*
X120205500Y-73098651D01*
X120261279Y-73091115D01*
X120285821Y-73071353D01*
X120291935Y-73024851D01*
X120292091Y-73000515D01*
X120294372Y-72942287D01*
X120310103Y-72916413D01*
X120335058Y-72912510D01*
X120295056Y-72912510D01*
X120206982Y-72905255D01*
X120149611Y-72897337D01*
X120124809Y-72877406D01*
X120118991Y-72831876D01*
X120118909Y-72817182D01*
X120120703Y-72789997D01*
X119918690Y-72789997D01*
X119918637Y-72861476D01*
X119890324Y-72898472D01*
X119829899Y-72905705D01*
X119824659Y-72905247D01*
X119773995Y-72895788D01*
X119753322Y-72870622D01*
X119749455Y-72817182D01*
X119753029Y-72763015D01*
X119773196Y-72740801D01*
X119824121Y-72736374D01*
X119830273Y-72736364D01*
X119886769Y-72741847D01*
X119912213Y-72764130D01*
X119918690Y-72789997D01*
X120120703Y-72789997D01*
X120122484Y-72763015D01*
X120142651Y-72740801D01*
X120193576Y-72736374D01*
X120199727Y-72736364D01*
X120252659Y-72739842D01*
X120277024Y-72759336D01*
X120286407Y-72808431D01*
X120287801Y-72824437D01*
X120295056Y-72912510D01*
X120335058Y-72912510D01*
X120352616Y-72909764D01*
X120384455Y-72909545D01*
X120476818Y-72909545D01*
X120476818Y-73094273D01*
X120661546Y-73094273D01*
X120661546Y-72909545D01*
X120846273Y-72909545D01*
X120846273Y-73094273D01*
X121031000Y-73094273D01*
X121031000Y-72909545D01*
X121215727Y-72909545D01*
X121215727Y-72817182D01*
X121031000Y-72817182D01*
X121031000Y-72909545D01*
X120846273Y-72909545D01*
X120846273Y-72724818D01*
X120661546Y-72724818D01*
X120661546Y-72909545D01*
X120476818Y-72909545D01*
X120476818Y-72541263D01*
X120113136Y-72534904D01*
X119749455Y-72528545D01*
X119749455Y-72447727D01*
X119753137Y-72394173D01*
X119773380Y-72369921D01*
X119823979Y-72360749D01*
X119834730Y-72359821D01*
X119891386Y-72351226D01*
X119916916Y-72328246D01*
X119926375Y-72275830D01*
X119927094Y-72267457D01*
X119935553Y-72211125D01*
X119958140Y-72185535D01*
X120009777Y-72175964D01*
X120020773Y-72175015D01*
X120076551Y-72167478D01*
X120101094Y-72147717D01*
X120107207Y-72101215D01*
X120107364Y-72076879D01*
X120109645Y-72018650D01*
X120125376Y-71992777D01*
X120167888Y-71986128D01*
X120199727Y-71985909D01*
X120258848Y-71988156D01*
X120285118Y-72003649D01*
X120291869Y-72045520D01*
X120292091Y-72076879D01*
X120294871Y-72135708D01*
X120311748Y-72162888D01*
X120355530Y-72172935D01*
X120378682Y-72175015D01*
X120465273Y-72182182D01*
X120472000Y-72360182D01*
X120478727Y-72538183D01*
X120656727Y-72544909D01*
X120834727Y-72551636D01*
X120841894Y-72638227D01*
X120849431Y-72694006D01*
X120869192Y-72718548D01*
X120915694Y-72724662D01*
X120940030Y-72724818D01*
X120998259Y-72727099D01*
X121024132Y-72742830D01*
X121030782Y-72785343D01*
X121031000Y-72817182D01*
X121215727Y-72817182D01*
X121215727Y-72724818D01*
X121028212Y-72724818D01*
X121035379Y-72638227D01*
X121043798Y-72581059D01*
X121066139Y-72555125D01*
X121117338Y-72545491D01*
X121129136Y-72544470D01*
X121215727Y-72537303D01*
X121215727Y-71985909D01*
X121124758Y-71985909D01*
X121065929Y-71988689D01*
X121038748Y-72005566D01*
X121028702Y-72049347D01*
X121026621Y-72072500D01*
X121018169Y-72129693D01*
X120995872Y-72155632D01*
X120945008Y-72165239D01*
X120934179Y-72166179D01*
X120877524Y-72174774D01*
X120851993Y-72197753D01*
X120842535Y-72250170D01*
X120841816Y-72258543D01*
X120833656Y-72314727D01*
X120812491Y-72338542D01*
X120764101Y-72343781D01*
X120753909Y-72343818D01*
X120673091Y-72343818D01*
X120666347Y-72164864D01*
X120659603Y-71985909D01*
X120292091Y-71985909D01*
X120292091Y-71801182D01*
X120107364Y-71801182D01*
X120107364Y-71987852D01*
X119928409Y-71981108D01*
X119749455Y-71974364D01*
X119742288Y-71887773D01*
X119734634Y-71831691D01*
X119714535Y-71807238D01*
X119667346Y-71801308D01*
X119645546Y-71801182D01*
X119587289Y-71804093D01*
X119560548Y-71821567D01*
X119550677Y-71866709D01*
X119548803Y-71887773D01*
X119540385Y-71944941D01*
X119518044Y-71970874D01*
X119466844Y-71980509D01*
X119455046Y-71981530D01*
X119370298Y-71988544D01*
X119363653Y-72164864D01*
X119356909Y-72343818D01*
X119177955Y-72350562D01*
X118999000Y-72357306D01*
X118999000Y-72447305D01*
X119001871Y-72505735D01*
X119019160Y-72532609D01*
X119063883Y-72542532D01*
X119085591Y-72544470D01*
X119172182Y-72551636D01*
X119185613Y-72909545D01*
X119273303Y-72909545D01*
G36*
X117521182Y-73094273D02*
X117336455Y-73094273D01*
X117336455Y-73279000D01*
X117521182Y-73279000D01*
X117521182Y-73094273D01*
X117521182Y-73094273D01*
G37*
X117521182Y-73094273D02*
X117336455Y-73094273D01*
X117336455Y-73279000D01*
X117521182Y-73279000D01*
X117521182Y-73094273D01*
G36*
X122508818Y-74756818D02*
X122324091Y-74756818D01*
X122324091Y-74941545D01*
X122508818Y-74941545D01*
X122508818Y-74756818D01*
X122508818Y-74756818D01*
G37*
X122508818Y-74756818D02*
X122324091Y-74756818D01*
X122324091Y-74941545D01*
X122508818Y-74941545D01*
X122508818Y-74756818D01*
G36*
X122136576Y-74941545D02*
X122143743Y-74854954D01*
X122152161Y-74797786D01*
X122174502Y-74771853D01*
X122225701Y-74762218D01*
X122237500Y-74761197D01*
X122324091Y-74754030D01*
X122324091Y-74463362D01*
X122139364Y-74463362D01*
X122134931Y-74521072D01*
X122124151Y-74556340D01*
X122123054Y-74557612D01*
X122093398Y-74564816D01*
X122030872Y-74568321D01*
X121948691Y-74567416D01*
X121944100Y-74567233D01*
X121781455Y-74560545D01*
X121781455Y-74398909D01*
X121960409Y-74392165D01*
X122139364Y-74385421D01*
X122139364Y-74463362D01*
X122324091Y-74463362D01*
X122324091Y-74387364D01*
X122231727Y-74387364D01*
X122172607Y-74385117D01*
X122146337Y-74369623D01*
X122139586Y-74327752D01*
X122139364Y-74296394D01*
X122136584Y-74237565D01*
X122119707Y-74210384D01*
X122075925Y-74200338D01*
X122052773Y-74198257D01*
X121995605Y-74189839D01*
X121969671Y-74167498D01*
X121960037Y-74116299D01*
X121959015Y-74104500D01*
X121951479Y-74048721D01*
X121931717Y-74024179D01*
X121885215Y-74018065D01*
X121860879Y-74017909D01*
X121802651Y-74015628D01*
X121776777Y-73999897D01*
X121770128Y-73957384D01*
X121769909Y-73925545D01*
X121769909Y-73833182D01*
X121400455Y-73833182D01*
X121400455Y-74017909D01*
X121772697Y-74017909D01*
X121765530Y-74104500D01*
X121758364Y-74191091D01*
X121487046Y-74197596D01*
X121215727Y-74204102D01*
X121215727Y-74385421D01*
X121394682Y-74392165D01*
X121573636Y-74398909D01*
X121573636Y-74560545D01*
X121394682Y-74567289D01*
X121215727Y-74574033D01*
X121215727Y-74755645D01*
X121579409Y-74762004D01*
X121943091Y-74768364D01*
X121950258Y-74854954D01*
X121957794Y-74910733D01*
X121977556Y-74935275D01*
X122024058Y-74941389D01*
X122048394Y-74941545D01*
X122106622Y-74943826D01*
X122132496Y-74959558D01*
X122139145Y-75002070D01*
X122139364Y-75033909D01*
X122139364Y-75126273D01*
X122324091Y-75126273D01*
X122324091Y-74941545D01*
X122136576Y-74941545D01*
X122136576Y-74941545D01*
G37*
X122136576Y-74941545D02*
X122143743Y-74854954D01*
X122152161Y-74797786D01*
X122174502Y-74771853D01*
X122225701Y-74762218D01*
X122237500Y-74761197D01*
X122324091Y-74754030D01*
X122324091Y-74463362D01*
X122139364Y-74463362D01*
X122134931Y-74521072D01*
X122124151Y-74556340D01*
X122123054Y-74557612D01*
X122093398Y-74564816D01*
X122030872Y-74568321D01*
X121948691Y-74567416D01*
X121944100Y-74567233D01*
X121781455Y-74560545D01*
X121781455Y-74398909D01*
X121960409Y-74392165D01*
X122139364Y-74385421D01*
X122139364Y-74463362D01*
X122324091Y-74463362D01*
X122324091Y-74387364D01*
X122231727Y-74387364D01*
X122172607Y-74385117D01*
X122146337Y-74369623D01*
X122139586Y-74327752D01*
X122139364Y-74296394D01*
X122136584Y-74237565D01*
X122119707Y-74210384D01*
X122075925Y-74200338D01*
X122052773Y-74198257D01*
X121995605Y-74189839D01*
X121969671Y-74167498D01*
X121960037Y-74116299D01*
X121959015Y-74104500D01*
X121951479Y-74048721D01*
X121931717Y-74024179D01*
X121885215Y-74018065D01*
X121860879Y-74017909D01*
X121802651Y-74015628D01*
X121776777Y-73999897D01*
X121770128Y-73957384D01*
X121769909Y-73925545D01*
X121769909Y-73833182D01*
X121400455Y-73833182D01*
X121400455Y-74017909D01*
X121772697Y-74017909D01*
X121765530Y-74104500D01*
X121758364Y-74191091D01*
X121487046Y-74197596D01*
X121215727Y-74204102D01*
X121215727Y-74385421D01*
X121394682Y-74392165D01*
X121573636Y-74398909D01*
X121573636Y-74560545D01*
X121394682Y-74567289D01*
X121215727Y-74574033D01*
X121215727Y-74755645D01*
X121579409Y-74762004D01*
X121943091Y-74768364D01*
X121950258Y-74854954D01*
X121957794Y-74910733D01*
X121977556Y-74935275D01*
X122024058Y-74941389D01*
X122048394Y-74941545D01*
X122106622Y-74943826D01*
X122132496Y-74959558D01*
X122139145Y-75002070D01*
X122139364Y-75033909D01*
X122139364Y-75126273D01*
X122324091Y-75126273D01*
X122324091Y-74941545D01*
X122136576Y-74941545D01*
G36*
X121954636Y-73833182D02*
X121954636Y-73648454D01*
X122322148Y-73648454D01*
X122328892Y-73469500D01*
X122335636Y-73290545D01*
X122497273Y-73290545D01*
X122504017Y-73469500D01*
X122510761Y-73648454D01*
X122693546Y-73648454D01*
X122693546Y-73094273D01*
X121954636Y-73094273D01*
X121954636Y-73276212D01*
X122041227Y-73283379D01*
X122097972Y-73291421D01*
X122122252Y-73311989D01*
X122127763Y-73358999D01*
X122127818Y-73371364D01*
X122124234Y-73424622D01*
X122104350Y-73448929D01*
X122054470Y-73458200D01*
X122041227Y-73459348D01*
X121985449Y-73466885D01*
X121960907Y-73486647D01*
X121954793Y-73533149D01*
X121954636Y-73557485D01*
X121952429Y-73615414D01*
X121936987Y-73641374D01*
X121895076Y-73648202D01*
X121860879Y-73648454D01*
X121769909Y-73648454D01*
X121769909Y-73833182D01*
X121954636Y-73833182D01*
X121954636Y-73833182D01*
G37*
X121954636Y-73833182D02*
X121954636Y-73648454D01*
X122322148Y-73648454D01*
X122328892Y-73469500D01*
X122335636Y-73290545D01*
X122497273Y-73290545D01*
X122504017Y-73469500D01*
X122510761Y-73648454D01*
X122693546Y-73648454D01*
X122693546Y-73094273D01*
X121954636Y-73094273D01*
X121954636Y-73276212D01*
X122041227Y-73283379D01*
X122097972Y-73291421D01*
X122122252Y-73311989D01*
X122127763Y-73358999D01*
X122127818Y-73371364D01*
X122124234Y-73424622D01*
X122104350Y-73448929D01*
X122054470Y-73458200D01*
X122041227Y-73459348D01*
X121985449Y-73466885D01*
X121960907Y-73486647D01*
X121954793Y-73533149D01*
X121954636Y-73557485D01*
X121952429Y-73615414D01*
X121936987Y-73641374D01*
X121895076Y-73648202D01*
X121860879Y-73648454D01*
X121769909Y-73648454D01*
X121769909Y-73833182D01*
X121954636Y-73833182D01*
G36*
X117521182Y-76419364D02*
X117336455Y-76419364D01*
X117336455Y-76788818D01*
X117521182Y-76788818D01*
X117521182Y-76419364D01*
X117521182Y-76419364D01*
G37*
X117521182Y-76419364D02*
X117336455Y-76419364D01*
X117336455Y-76788818D01*
X117521182Y-76788818D01*
X117521182Y-76419364D01*
G36*
X119368455Y-71988697D02*
X119370298Y-71988544D01*
X119370397Y-71985909D01*
X119368455Y-71985909D01*
X119368455Y-71988697D01*
X119368455Y-71988697D01*
G37*
X119368455Y-71988697D02*
X119370298Y-71988544D01*
X119370397Y-71985909D01*
X119368455Y-71985909D01*
X119368455Y-71988697D01*
G36*
X118814273Y-72170636D02*
X118999000Y-72170636D01*
X118999000Y-71801182D01*
X118814273Y-71801182D01*
X118814273Y-72170636D01*
X118814273Y-72170636D01*
G37*
X118814273Y-72170636D02*
X118999000Y-72170636D01*
X118999000Y-71801182D01*
X118814273Y-71801182D01*
X118814273Y-72170636D01*
G36*
X119180940Y-72909545D02*
X119181149Y-72912075D01*
X119185722Y-72912452D01*
X119185613Y-72909545D01*
X119180940Y-72909545D01*
X119180940Y-72909545D01*
G37*
X119180940Y-72909545D02*
X119181149Y-72912075D01*
X119185722Y-72912452D01*
X119185613Y-72909545D01*
X119180940Y-72909545D01*
G36*
X121400455Y-73279000D02*
X121585182Y-73279000D01*
X121585182Y-73094273D01*
X121400455Y-73094273D01*
X121400455Y-73279000D01*
X121400455Y-73279000D01*
G37*
X121400455Y-73279000D02*
X121585182Y-73279000D01*
X121585182Y-73094273D01*
X121400455Y-73094273D01*
X121400455Y-73279000D01*
G36*
X121026621Y-73180864D02*
X121018203Y-73238032D01*
X120995862Y-73263965D01*
X120944663Y-73273600D01*
X120932864Y-73274621D01*
X120877085Y-73282158D01*
X120852543Y-73301919D01*
X120846429Y-73348421D01*
X120846273Y-73372757D01*
X120846273Y-73463727D01*
X121215727Y-73463727D01*
X121215727Y-73094273D01*
X121033788Y-73094273D01*
X121026621Y-73180864D01*
X121026621Y-73180864D01*
G37*
X121026621Y-73180864D02*
X121018203Y-73238032D01*
X120995862Y-73263965D01*
X120944663Y-73273600D01*
X120932864Y-73274621D01*
X120877085Y-73282158D01*
X120852543Y-73301919D01*
X120846429Y-73348421D01*
X120846273Y-73372757D01*
X120846273Y-73463727D01*
X121215727Y-73463727D01*
X121215727Y-73094273D01*
X121033788Y-73094273D01*
X121026621Y-73180864D01*
G36*
X117705909Y-73276212D02*
X117792500Y-73283379D01*
X117879091Y-73290545D01*
X117885835Y-73469500D01*
X117892579Y-73648454D01*
X118257303Y-73648454D01*
X118264470Y-73561864D01*
X118271636Y-73475273D01*
X118629546Y-73461785D01*
X118629546Y-73280942D01*
X118271636Y-73267454D01*
X118264470Y-73180864D01*
X118257303Y-73094273D01*
X117705909Y-73094273D01*
X117705909Y-73276212D01*
X117705909Y-73276212D01*
G37*
X117705909Y-73276212D02*
X117792500Y-73283379D01*
X117879091Y-73290545D01*
X117885835Y-73469500D01*
X117892579Y-73648454D01*
X118257303Y-73648454D01*
X118264470Y-73561864D01*
X118271636Y-73475273D01*
X118629546Y-73461785D01*
X118629546Y-73280942D01*
X118271636Y-73267454D01*
X118264470Y-73180864D01*
X118257303Y-73094273D01*
X117705909Y-73094273D01*
X117705909Y-73276212D01*
G36*
X121580803Y-73365591D02*
X121572385Y-73422759D01*
X121550044Y-73448692D01*
X121498844Y-73458327D01*
X121487046Y-73459348D01*
X121431267Y-73466885D01*
X121406725Y-73486647D01*
X121400611Y-73533149D01*
X121400455Y-73557485D01*
X121400455Y-73648454D01*
X121767121Y-73648454D01*
X121774288Y-73561864D01*
X121782707Y-73504695D01*
X121805048Y-73478762D01*
X121856247Y-73469127D01*
X121868046Y-73468106D01*
X121923526Y-73460682D01*
X121948154Y-73441247D01*
X121954448Y-73395411D01*
X121954636Y-73368576D01*
X121954636Y-73279000D01*
X121587970Y-73279000D01*
X121580803Y-73365591D01*
X121580803Y-73365591D01*
G37*
X121580803Y-73365591D02*
X121572385Y-73422759D01*
X121550044Y-73448692D01*
X121498844Y-73458327D01*
X121487046Y-73459348D01*
X121431267Y-73466885D01*
X121406725Y-73486647D01*
X121400611Y-73533149D01*
X121400455Y-73557485D01*
X121400455Y-73648454D01*
X121767121Y-73648454D01*
X121774288Y-73561864D01*
X121782707Y-73504695D01*
X121805048Y-73478762D01*
X121856247Y-73469127D01*
X121868046Y-73468106D01*
X121923526Y-73460682D01*
X121948154Y-73441247D01*
X121954448Y-73395411D01*
X121954636Y-73368576D01*
X121954636Y-73279000D01*
X121587970Y-73279000D01*
X121580803Y-73365591D01*
G36*
X117521182Y-73833182D02*
X117705909Y-73833182D01*
X117705909Y-73279000D01*
X117521182Y-73279000D01*
X117521182Y-73833182D01*
X117521182Y-73833182D01*
G37*
X117521182Y-73833182D02*
X117705909Y-73833182D01*
X117705909Y-73279000D01*
X117521182Y-73279000D01*
X117521182Y-73833182D01*
G36*
X118809471Y-72903773D02*
X118802727Y-73082727D01*
X118716136Y-73089894D01*
X118660566Y-73097351D01*
X118635964Y-73116884D01*
X118629724Y-73162920D01*
X118629546Y-73189001D01*
X118629546Y-73276212D01*
X118716136Y-73283379D01*
X118802727Y-73290545D01*
X118809233Y-73561864D01*
X118815738Y-73833182D01*
X118997535Y-73833182D01*
X119004040Y-73561864D01*
X119010546Y-73290545D01*
X119189500Y-73283801D01*
X119368455Y-73277057D01*
X119368455Y-73187059D01*
X119365584Y-73128629D01*
X119348295Y-73101754D01*
X119303571Y-73091831D01*
X119281864Y-73089894D01*
X119224696Y-73081475D01*
X119198762Y-73059134D01*
X119189127Y-73007935D01*
X119188106Y-72996136D01*
X119181149Y-72912075D01*
X119098134Y-72905226D01*
X119040559Y-72896909D01*
X119014315Y-72875065D01*
X119004565Y-72825005D01*
X119003379Y-72811409D01*
X118995761Y-72755420D01*
X118975765Y-72730940D01*
X118928787Y-72724953D01*
X118906214Y-72724818D01*
X118816215Y-72724818D01*
X118809471Y-72903773D01*
X118809471Y-72903773D01*
G37*
X118809471Y-72903773D02*
X118802727Y-73082727D01*
X118716136Y-73089894D01*
X118660566Y-73097351D01*
X118635964Y-73116884D01*
X118629724Y-73162920D01*
X118629546Y-73189001D01*
X118629546Y-73276212D01*
X118716136Y-73283379D01*
X118802727Y-73290545D01*
X118809233Y-73561864D01*
X118815738Y-73833182D01*
X118997535Y-73833182D01*
X119004040Y-73561864D01*
X119010546Y-73290545D01*
X119189500Y-73283801D01*
X119368455Y-73277057D01*
X119368455Y-73187059D01*
X119365584Y-73128629D01*
X119348295Y-73101754D01*
X119303571Y-73091831D01*
X119281864Y-73089894D01*
X119224696Y-73081475D01*
X119198762Y-73059134D01*
X119189127Y-73007935D01*
X119188106Y-72996136D01*
X119181149Y-72912075D01*
X119098134Y-72905226D01*
X119040559Y-72896909D01*
X119014315Y-72875065D01*
X119004565Y-72825005D01*
X119003379Y-72811409D01*
X118995761Y-72755420D01*
X118975765Y-72730940D01*
X118928787Y-72724953D01*
X118906214Y-72724818D01*
X118816215Y-72724818D01*
X118809471Y-72903773D01*
G36*
X117705909Y-74387364D02*
X117795485Y-74387364D01*
X117854884Y-74384709D01*
X117882504Y-74368399D01*
X117892733Y-74325916D01*
X117895015Y-74300773D01*
X117903434Y-74243604D01*
X117925775Y-74217671D01*
X117976974Y-74208036D01*
X117988773Y-74207015D01*
X118075364Y-74199848D01*
X118075364Y-74017909D01*
X117705909Y-74017909D01*
X117705909Y-74387364D01*
X117705909Y-74387364D01*
G37*
X117705909Y-74387364D02*
X117795485Y-74387364D01*
X117854884Y-74384709D01*
X117882504Y-74368399D01*
X117892733Y-74325916D01*
X117895015Y-74300773D01*
X117903434Y-74243604D01*
X117925775Y-74217671D01*
X117976974Y-74208036D01*
X117988773Y-74207015D01*
X118075364Y-74199848D01*
X118075364Y-74017909D01*
X117705909Y-74017909D01*
X117705909Y-74387364D01*
G36*
X120107364Y-73651242D02*
X120020773Y-73644076D01*
X119963605Y-73635657D01*
X119937671Y-73613316D01*
X119928037Y-73562117D01*
X119927015Y-73550318D01*
X119919849Y-73463727D01*
X119553182Y-73463727D01*
X119553182Y-73556091D01*
X119550943Y-73615211D01*
X119535431Y-73641481D01*
X119493456Y-73648232D01*
X119461790Y-73648454D01*
X119370397Y-73648454D01*
X119356909Y-74006364D01*
X119085591Y-74012869D01*
X118814273Y-74019375D01*
X118814273Y-74199848D01*
X118900864Y-74207015D01*
X118957608Y-74215057D01*
X118981888Y-74235625D01*
X118987399Y-74282636D01*
X118987455Y-74295000D01*
X118983870Y-74348258D01*
X118963986Y-74372565D01*
X118914106Y-74381837D01*
X118900864Y-74382985D01*
X118845085Y-74390521D01*
X118820543Y-74410283D01*
X118814429Y-74456785D01*
X118814273Y-74481121D01*
X118814273Y-74572091D01*
X119180940Y-74572091D01*
X119188106Y-74485500D01*
X119195273Y-74398909D01*
X119550507Y-74385469D01*
X119557617Y-74299825D01*
X119566171Y-74243019D01*
X119588956Y-74217374D01*
X119640931Y-74207875D01*
X119650003Y-74207093D01*
X119706658Y-74198499D01*
X119732189Y-74175519D01*
X119741647Y-74123102D01*
X119742366Y-74114730D01*
X119750961Y-74058074D01*
X119773941Y-74032544D01*
X119826358Y-74023085D01*
X119834730Y-74022366D01*
X119891386Y-74013771D01*
X119916916Y-73990792D01*
X119926375Y-73938375D01*
X119927094Y-73930003D01*
X119935553Y-73873671D01*
X119958140Y-73848081D01*
X120009777Y-73838510D01*
X120020773Y-73837561D01*
X120076551Y-73830024D01*
X120101094Y-73810262D01*
X120107207Y-73763760D01*
X120107364Y-73739424D01*
X120108374Y-73713634D01*
X119733963Y-73713634D01*
X119733910Y-73785113D01*
X119705597Y-73822108D01*
X119645172Y-73829342D01*
X119639932Y-73828884D01*
X119590245Y-73819538D01*
X119567176Y-73794630D01*
X119557966Y-73739409D01*
X119557472Y-73733563D01*
X119550217Y-73645490D01*
X119638291Y-73652745D01*
X119698557Y-73663063D01*
X119726520Y-73686477D01*
X119733963Y-73713634D01*
X120108374Y-73713634D01*
X120109645Y-73681196D01*
X120125376Y-73655322D01*
X120167888Y-73648673D01*
X120199727Y-73648454D01*
X120258848Y-73650701D01*
X120285118Y-73666195D01*
X120291869Y-73708066D01*
X120292091Y-73739424D01*
X120294871Y-73798253D01*
X120311748Y-73825434D01*
X120355530Y-73835480D01*
X120378682Y-73837561D01*
X120465273Y-73844727D01*
X120472017Y-74023682D01*
X120478662Y-74200001D01*
X120563409Y-74207015D01*
X120620577Y-74215434D01*
X120646511Y-74237775D01*
X120656146Y-74288974D01*
X120657167Y-74300773D01*
X120664820Y-74356855D01*
X120684920Y-74381307D01*
X120732109Y-74387237D01*
X120753909Y-74387364D01*
X120812165Y-74384452D01*
X120838907Y-74366979D01*
X120848777Y-74321836D01*
X120850652Y-74300773D01*
X120857818Y-74214182D01*
X121036773Y-74207438D01*
X121215727Y-74200694D01*
X121215727Y-73833182D01*
X120849061Y-73833182D01*
X120841894Y-73919773D01*
X120833852Y-73976517D01*
X120813284Y-74000797D01*
X120766273Y-74006308D01*
X120753909Y-74006364D01*
X120673091Y-74006364D01*
X120659603Y-73648454D01*
X120292091Y-73648454D01*
X120292091Y-73463727D01*
X120107364Y-73463727D01*
X120107364Y-73651242D01*
X120107364Y-73651242D01*
G37*
X120107364Y-73651242D02*
X120020773Y-73644076D01*
X119963605Y-73635657D01*
X119937671Y-73613316D01*
X119928037Y-73562117D01*
X119927015Y-73550318D01*
X119919849Y-73463727D01*
X119553182Y-73463727D01*
X119553182Y-73556091D01*
X119550943Y-73615211D01*
X119535431Y-73641481D01*
X119493456Y-73648232D01*
X119461790Y-73648454D01*
X119370397Y-73648454D01*
X119356909Y-74006364D01*
X119085591Y-74012869D01*
X118814273Y-74019375D01*
X118814273Y-74199848D01*
X118900864Y-74207015D01*
X118957608Y-74215057D01*
X118981888Y-74235625D01*
X118987399Y-74282636D01*
X118987455Y-74295000D01*
X118983870Y-74348258D01*
X118963986Y-74372565D01*
X118914106Y-74381837D01*
X118900864Y-74382985D01*
X118845085Y-74390521D01*
X118820543Y-74410283D01*
X118814429Y-74456785D01*
X118814273Y-74481121D01*
X118814273Y-74572091D01*
X119180940Y-74572091D01*
X119188106Y-74485500D01*
X119195273Y-74398909D01*
X119550507Y-74385469D01*
X119557617Y-74299825D01*
X119566171Y-74243019D01*
X119588956Y-74217374D01*
X119640931Y-74207875D01*
X119650003Y-74207093D01*
X119706658Y-74198499D01*
X119732189Y-74175519D01*
X119741647Y-74123102D01*
X119742366Y-74114730D01*
X119750961Y-74058074D01*
X119773941Y-74032544D01*
X119826358Y-74023085D01*
X119834730Y-74022366D01*
X119891386Y-74013771D01*
X119916916Y-73990792D01*
X119926375Y-73938375D01*
X119927094Y-73930003D01*
X119935553Y-73873671D01*
X119958140Y-73848081D01*
X120009777Y-73838510D01*
X120020773Y-73837561D01*
X120076551Y-73830024D01*
X120101094Y-73810262D01*
X120107207Y-73763760D01*
X120107364Y-73739424D01*
X120108374Y-73713634D01*
X119733963Y-73713634D01*
X119733910Y-73785113D01*
X119705597Y-73822108D01*
X119645172Y-73829342D01*
X119639932Y-73828884D01*
X119590245Y-73819538D01*
X119567176Y-73794630D01*
X119557966Y-73739409D01*
X119557472Y-73733563D01*
X119550217Y-73645490D01*
X119638291Y-73652745D01*
X119698557Y-73663063D01*
X119726520Y-73686477D01*
X119733963Y-73713634D01*
X120108374Y-73713634D01*
X120109645Y-73681196D01*
X120125376Y-73655322D01*
X120167888Y-73648673D01*
X120199727Y-73648454D01*
X120258848Y-73650701D01*
X120285118Y-73666195D01*
X120291869Y-73708066D01*
X120292091Y-73739424D01*
X120294871Y-73798253D01*
X120311748Y-73825434D01*
X120355530Y-73835480D01*
X120378682Y-73837561D01*
X120465273Y-73844727D01*
X120472017Y-74023682D01*
X120478662Y-74200001D01*
X120563409Y-74207015D01*
X120620577Y-74215434D01*
X120646511Y-74237775D01*
X120656146Y-74288974D01*
X120657167Y-74300773D01*
X120664820Y-74356855D01*
X120684920Y-74381307D01*
X120732109Y-74387237D01*
X120753909Y-74387364D01*
X120812165Y-74384452D01*
X120838907Y-74366979D01*
X120848777Y-74321836D01*
X120850652Y-74300773D01*
X120857818Y-74214182D01*
X121036773Y-74207438D01*
X121215727Y-74200694D01*
X121215727Y-73833182D01*
X120849061Y-73833182D01*
X120841894Y-73919773D01*
X120833852Y-73976517D01*
X120813284Y-74000797D01*
X120766273Y-74006308D01*
X120753909Y-74006364D01*
X120673091Y-74006364D01*
X120659603Y-73648454D01*
X120292091Y-73648454D01*
X120292091Y-73463727D01*
X120107364Y-73463727D01*
X120107364Y-73651242D01*
G36*
X120846273Y-75126273D02*
X121215727Y-75126273D01*
X121215727Y-74941545D01*
X120846273Y-74941545D01*
X120846273Y-75126273D01*
X120846273Y-75126273D01*
G37*
X120846273Y-75126273D02*
X121215727Y-75126273D01*
X121215727Y-74941545D01*
X120846273Y-74941545D01*
X120846273Y-75126273D01*
G36*
X118260091Y-74015121D02*
X118346682Y-74022288D01*
X118403426Y-74030330D01*
X118427706Y-74050898D01*
X118433217Y-74097908D01*
X118433273Y-74110273D01*
X118433273Y-74191091D01*
X118254318Y-74197835D01*
X118075364Y-74204579D01*
X118075364Y-74756818D01*
X118166334Y-74756818D01*
X118225163Y-74754038D01*
X118252343Y-74737161D01*
X118262389Y-74693380D01*
X118264470Y-74670227D01*
X118272512Y-74613483D01*
X118293080Y-74589203D01*
X118340090Y-74583692D01*
X118352455Y-74583636D01*
X118406622Y-74587211D01*
X118428836Y-74607378D01*
X118433263Y-74658303D01*
X118433273Y-74664454D01*
X118429688Y-74717713D01*
X118409804Y-74742019D01*
X118359924Y-74751291D01*
X118346682Y-74752439D01*
X118260091Y-74759606D01*
X118260091Y-75126273D01*
X118351061Y-75126273D01*
X118409890Y-75123493D01*
X118437070Y-75106616D01*
X118447117Y-75062834D01*
X118449197Y-75039682D01*
X118456364Y-74953091D01*
X118802727Y-74953091D01*
X118809894Y-75039682D01*
X118817548Y-75095764D01*
X118837647Y-75120216D01*
X118884836Y-75126146D01*
X118906636Y-75126273D01*
X118964893Y-75123361D01*
X118991634Y-75105888D01*
X119001505Y-75060745D01*
X119003379Y-75039682D01*
X119010546Y-74953091D01*
X119189500Y-74946347D01*
X119368455Y-74939603D01*
X119368455Y-74572091D01*
X119277485Y-74572091D01*
X119218656Y-74574870D01*
X119191476Y-74591747D01*
X119181429Y-74635529D01*
X119179349Y-74658682D01*
X119172182Y-74745273D01*
X118641091Y-74745273D01*
X118641091Y-74398909D01*
X118727682Y-74391742D01*
X118783162Y-74384319D01*
X118807791Y-74364884D01*
X118814084Y-74319048D01*
X118814273Y-74292212D01*
X118814273Y-74205424D01*
X118727682Y-74198257D01*
X118641091Y-74191091D01*
X118627651Y-73835857D01*
X118542007Y-73828746D01*
X118485441Y-73820299D01*
X118459756Y-73797782D01*
X118450167Y-73746269D01*
X118449197Y-73735045D01*
X118441774Y-73679565D01*
X118422338Y-73654937D01*
X118376502Y-73648643D01*
X118349667Y-73648454D01*
X118260091Y-73648454D01*
X118260091Y-74015121D01*
X118260091Y-74015121D01*
G37*
X118260091Y-74015121D02*
X118346682Y-74022288D01*
X118403426Y-74030330D01*
X118427706Y-74050898D01*
X118433217Y-74097908D01*
X118433273Y-74110273D01*
X118433273Y-74191091D01*
X118254318Y-74197835D01*
X118075364Y-74204579D01*
X118075364Y-74756818D01*
X118166334Y-74756818D01*
X118225163Y-74754038D01*
X118252343Y-74737161D01*
X118262389Y-74693380D01*
X118264470Y-74670227D01*
X118272512Y-74613483D01*
X118293080Y-74589203D01*
X118340090Y-74583692D01*
X118352455Y-74583636D01*
X118406622Y-74587211D01*
X118428836Y-74607378D01*
X118433263Y-74658303D01*
X118433273Y-74664454D01*
X118429688Y-74717713D01*
X118409804Y-74742019D01*
X118359924Y-74751291D01*
X118346682Y-74752439D01*
X118260091Y-74759606D01*
X118260091Y-75126273D01*
X118351061Y-75126273D01*
X118409890Y-75123493D01*
X118437070Y-75106616D01*
X118447117Y-75062834D01*
X118449197Y-75039682D01*
X118456364Y-74953091D01*
X118802727Y-74953091D01*
X118809894Y-75039682D01*
X118817548Y-75095764D01*
X118837647Y-75120216D01*
X118884836Y-75126146D01*
X118906636Y-75126273D01*
X118964893Y-75123361D01*
X118991634Y-75105888D01*
X119001505Y-75060745D01*
X119003379Y-75039682D01*
X119010546Y-74953091D01*
X119189500Y-74946347D01*
X119368455Y-74939603D01*
X119368455Y-74572091D01*
X119277485Y-74572091D01*
X119218656Y-74574870D01*
X119191476Y-74591747D01*
X119181429Y-74635529D01*
X119179349Y-74658682D01*
X119172182Y-74745273D01*
X118641091Y-74745273D01*
X118641091Y-74398909D01*
X118727682Y-74391742D01*
X118783162Y-74384319D01*
X118807791Y-74364884D01*
X118814084Y-74319048D01*
X118814273Y-74292212D01*
X118814273Y-74205424D01*
X118727682Y-74198257D01*
X118641091Y-74191091D01*
X118627651Y-73835857D01*
X118542007Y-73828746D01*
X118485441Y-73820299D01*
X118459756Y-73797782D01*
X118450167Y-73746269D01*
X118449197Y-73735045D01*
X118441774Y-73679565D01*
X118422338Y-73654937D01*
X118376502Y-73648643D01*
X118349667Y-73648454D01*
X118260091Y-73648454D01*
X118260091Y-74015121D01*
G36*
X122508818Y-75126273D02*
X122693546Y-75126273D01*
X122693546Y-74941545D01*
X122508818Y-74941545D01*
X122508818Y-75126273D01*
X122508818Y-75126273D01*
G37*
X122508818Y-75126273D02*
X122693546Y-75126273D01*
X122693546Y-74941545D01*
X122508818Y-74941545D01*
X122508818Y-75126273D01*
G36*
X119737909Y-74293606D02*
X119740689Y-74352435D01*
X119757566Y-74379615D01*
X119801348Y-74389662D01*
X119824500Y-74391742D01*
X119911091Y-74398909D01*
X119911091Y-74745273D01*
X119825816Y-74752361D01*
X119769160Y-74760956D01*
X119743629Y-74783935D01*
X119734171Y-74836352D01*
X119733452Y-74844724D01*
X119726364Y-74930000D01*
X119547409Y-74936744D01*
X119368455Y-74943488D01*
X119368455Y-75311000D01*
X119919849Y-75311000D01*
X119927015Y-75224409D01*
X119935057Y-75167664D01*
X119955625Y-75143385D01*
X120002636Y-75137874D01*
X120015000Y-75137818D01*
X120068258Y-75141403D01*
X120092565Y-75161287D01*
X120101837Y-75211167D01*
X120102985Y-75224409D01*
X120110152Y-75311000D01*
X120474031Y-75311000D01*
X120481197Y-75224409D01*
X120489616Y-75167241D01*
X120511957Y-75141307D01*
X120563156Y-75131673D01*
X120574955Y-75130651D01*
X120630733Y-75123115D01*
X120655275Y-75103353D01*
X120661389Y-75056851D01*
X120661546Y-75032515D01*
X120663827Y-74974287D01*
X120679558Y-74948413D01*
X120704512Y-74944510D01*
X120664510Y-74944510D01*
X120576437Y-74937255D01*
X120518648Y-74928961D01*
X120492249Y-74907381D01*
X120482459Y-74858092D01*
X120481254Y-74844356D01*
X120474143Y-74758712D01*
X120296526Y-74751993D01*
X120118909Y-74745273D01*
X120118909Y-74398909D01*
X120199727Y-74398909D01*
X120252986Y-74402493D01*
X120277292Y-74422378D01*
X120286564Y-74472257D01*
X120287712Y-74485500D01*
X120295249Y-74541278D01*
X120315011Y-74565821D01*
X120361512Y-74571934D01*
X120385849Y-74572091D01*
X120444381Y-74574449D01*
X120470164Y-74590477D01*
X120476631Y-74633609D01*
X120476818Y-74663061D01*
X120479598Y-74721890D01*
X120496475Y-74749070D01*
X120540257Y-74759116D01*
X120563409Y-74761197D01*
X120620217Y-74769469D01*
X120646215Y-74791388D01*
X120655976Y-74841743D01*
X120657255Y-74856437D01*
X120664510Y-74944510D01*
X120704512Y-74944510D01*
X120722070Y-74941764D01*
X120753909Y-74941545D01*
X120843485Y-74941545D01*
X120850652Y-74854954D01*
X120859070Y-74797786D01*
X120881411Y-74771853D01*
X120932610Y-74762218D01*
X120944409Y-74761197D01*
X121000188Y-74753660D01*
X121024730Y-74733899D01*
X121030844Y-74687397D01*
X121031000Y-74663061D01*
X121031000Y-74572091D01*
X120476818Y-74572091D01*
X120476818Y-74202636D01*
X119737909Y-74202636D01*
X119737909Y-74293606D01*
X119737909Y-74293606D01*
G37*
X119737909Y-74293606D02*
X119740689Y-74352435D01*
X119757566Y-74379615D01*
X119801348Y-74389662D01*
X119824500Y-74391742D01*
X119911091Y-74398909D01*
X119911091Y-74745273D01*
X119825816Y-74752361D01*
X119769160Y-74760956D01*
X119743629Y-74783935D01*
X119734171Y-74836352D01*
X119733452Y-74844724D01*
X119726364Y-74930000D01*
X119547409Y-74936744D01*
X119368455Y-74943488D01*
X119368455Y-75311000D01*
X119919849Y-75311000D01*
X119927015Y-75224409D01*
X119935057Y-75167664D01*
X119955625Y-75143385D01*
X120002636Y-75137874D01*
X120015000Y-75137818D01*
X120068258Y-75141403D01*
X120092565Y-75161287D01*
X120101837Y-75211167D01*
X120102985Y-75224409D01*
X120110152Y-75311000D01*
X120474031Y-75311000D01*
X120481197Y-75224409D01*
X120489616Y-75167241D01*
X120511957Y-75141307D01*
X120563156Y-75131673D01*
X120574955Y-75130651D01*
X120630733Y-75123115D01*
X120655275Y-75103353D01*
X120661389Y-75056851D01*
X120661546Y-75032515D01*
X120663827Y-74974287D01*
X120679558Y-74948413D01*
X120704512Y-74944510D01*
X120664510Y-74944510D01*
X120576437Y-74937255D01*
X120518648Y-74928961D01*
X120492249Y-74907381D01*
X120482459Y-74858092D01*
X120481254Y-74844356D01*
X120474143Y-74758712D01*
X120296526Y-74751993D01*
X120118909Y-74745273D01*
X120118909Y-74398909D01*
X120199727Y-74398909D01*
X120252986Y-74402493D01*
X120277292Y-74422378D01*
X120286564Y-74472257D01*
X120287712Y-74485500D01*
X120295249Y-74541278D01*
X120315011Y-74565821D01*
X120361512Y-74571934D01*
X120385849Y-74572091D01*
X120444381Y-74574449D01*
X120470164Y-74590477D01*
X120476631Y-74633609D01*
X120476818Y-74663061D01*
X120479598Y-74721890D01*
X120496475Y-74749070D01*
X120540257Y-74759116D01*
X120563409Y-74761197D01*
X120620217Y-74769469D01*
X120646215Y-74791388D01*
X120655976Y-74841743D01*
X120657255Y-74856437D01*
X120664510Y-74944510D01*
X120704512Y-74944510D01*
X120722070Y-74941764D01*
X120753909Y-74941545D01*
X120843485Y-74941545D01*
X120850652Y-74854954D01*
X120859070Y-74797786D01*
X120881411Y-74771853D01*
X120932610Y-74762218D01*
X120944409Y-74761197D01*
X121000188Y-74753660D01*
X121024730Y-74733899D01*
X121030844Y-74687397D01*
X121031000Y-74663061D01*
X121031000Y-74572091D01*
X120476818Y-74572091D01*
X120476818Y-74202636D01*
X119737909Y-74202636D01*
X119737909Y-74293606D01*
G36*
X117336455Y-74478333D02*
X117339234Y-74537162D01*
X117356111Y-74564343D01*
X117399893Y-74574389D01*
X117423046Y-74576470D01*
X117509636Y-74583636D01*
X117509636Y-74930000D01*
X117423046Y-74937166D01*
X117336455Y-74944333D01*
X117336455Y-75495727D01*
X117519239Y-75495727D01*
X117525983Y-75316773D01*
X117532727Y-75137818D01*
X117694364Y-75137818D01*
X117701108Y-75316773D01*
X117707852Y-75495727D01*
X117888694Y-75495727D01*
X117895438Y-75316773D01*
X117902182Y-75137818D01*
X117988773Y-75130651D01*
X118044762Y-75123034D01*
X118069242Y-75103038D01*
X118075228Y-75056059D01*
X118075364Y-75033486D01*
X118075364Y-74943488D01*
X117896409Y-74936744D01*
X117717455Y-74930000D01*
X117717455Y-74849182D01*
X117721039Y-74795923D01*
X117740923Y-74771617D01*
X117790803Y-74762345D01*
X117804046Y-74761197D01*
X117860128Y-74753543D01*
X117884580Y-74733444D01*
X117890510Y-74686255D01*
X117890636Y-74664454D01*
X117887725Y-74606198D01*
X117870252Y-74579457D01*
X117825109Y-74569586D01*
X117804046Y-74567712D01*
X117746877Y-74559293D01*
X117720944Y-74536952D01*
X117711309Y-74485753D01*
X117710288Y-74473954D01*
X117703121Y-74387364D01*
X117336455Y-74387364D01*
X117336455Y-74478333D01*
X117336455Y-74478333D01*
G37*
X117336455Y-74478333D02*
X117339234Y-74537162D01*
X117356111Y-74564343D01*
X117399893Y-74574389D01*
X117423046Y-74576470D01*
X117509636Y-74583636D01*
X117509636Y-74930000D01*
X117423046Y-74937166D01*
X117336455Y-74944333D01*
X117336455Y-75495727D01*
X117519239Y-75495727D01*
X117525983Y-75316773D01*
X117532727Y-75137818D01*
X117694364Y-75137818D01*
X117701108Y-75316773D01*
X117707852Y-75495727D01*
X117888694Y-75495727D01*
X117895438Y-75316773D01*
X117902182Y-75137818D01*
X117988773Y-75130651D01*
X118044762Y-75123034D01*
X118069242Y-75103038D01*
X118075228Y-75056059D01*
X118075364Y-75033486D01*
X118075364Y-74943488D01*
X117896409Y-74936744D01*
X117717455Y-74930000D01*
X117717455Y-74849182D01*
X117721039Y-74795923D01*
X117740923Y-74771617D01*
X117790803Y-74762345D01*
X117804046Y-74761197D01*
X117860128Y-74753543D01*
X117884580Y-74733444D01*
X117890510Y-74686255D01*
X117890636Y-74664454D01*
X117887725Y-74606198D01*
X117870252Y-74579457D01*
X117825109Y-74569586D01*
X117804046Y-74567712D01*
X117746877Y-74559293D01*
X117720944Y-74536952D01*
X117711309Y-74485753D01*
X117710288Y-74473954D01*
X117703121Y-74387364D01*
X117336455Y-74387364D01*
X117336455Y-74478333D01*
G36*
X117521182Y-75865182D02*
X117705909Y-75865182D01*
X117705909Y-75495727D01*
X117521182Y-75495727D01*
X117521182Y-75865182D01*
X117521182Y-75865182D01*
G37*
X117521182Y-75865182D02*
X117705909Y-75865182D01*
X117705909Y-75495727D01*
X117521182Y-75495727D01*
X117521182Y-75865182D01*
G36*
X120476818Y-75401970D02*
X120479598Y-75460799D01*
X120496475Y-75487979D01*
X120540257Y-75498026D01*
X120563409Y-75500106D01*
X120620154Y-75508148D01*
X120644433Y-75528716D01*
X120649944Y-75575727D01*
X120650000Y-75588091D01*
X120646416Y-75641349D01*
X120626532Y-75665656D01*
X120576652Y-75674928D01*
X120563409Y-75676076D01*
X120476818Y-75683242D01*
X120476818Y-75495727D01*
X120292091Y-75495727D01*
X120292091Y-75680454D01*
X120384455Y-75680454D01*
X120443575Y-75682701D01*
X120469845Y-75698195D01*
X120476596Y-75740066D01*
X120476818Y-75771424D01*
X120479598Y-75830253D01*
X120496475Y-75857434D01*
X120540257Y-75867480D01*
X120563409Y-75869561D01*
X120620577Y-75877979D01*
X120646511Y-75900320D01*
X120656146Y-75951519D01*
X120657167Y-75963318D01*
X120664703Y-76019096D01*
X120684465Y-76043639D01*
X120730967Y-76049753D01*
X120755303Y-76049909D01*
X120844330Y-76049909D01*
X120851074Y-75870954D01*
X120857818Y-75692000D01*
X121035435Y-75685280D01*
X121213053Y-75678560D01*
X121220163Y-75592916D01*
X121227273Y-75507273D01*
X121683318Y-75501012D01*
X122139364Y-75494751D01*
X122139364Y-75311000D01*
X120476818Y-75311000D01*
X120476818Y-75401970D01*
X120476818Y-75401970D01*
G37*
X120476818Y-75401970D02*
X120479598Y-75460799D01*
X120496475Y-75487979D01*
X120540257Y-75498026D01*
X120563409Y-75500106D01*
X120620154Y-75508148D01*
X120644433Y-75528716D01*
X120649944Y-75575727D01*
X120650000Y-75588091D01*
X120646416Y-75641349D01*
X120626532Y-75665656D01*
X120576652Y-75674928D01*
X120563409Y-75676076D01*
X120476818Y-75683242D01*
X120476818Y-75495727D01*
X120292091Y-75495727D01*
X120292091Y-75680454D01*
X120384455Y-75680454D01*
X120443575Y-75682701D01*
X120469845Y-75698195D01*
X120476596Y-75740066D01*
X120476818Y-75771424D01*
X120479598Y-75830253D01*
X120496475Y-75857434D01*
X120540257Y-75867480D01*
X120563409Y-75869561D01*
X120620577Y-75877979D01*
X120646511Y-75900320D01*
X120656146Y-75951519D01*
X120657167Y-75963318D01*
X120664703Y-76019096D01*
X120684465Y-76043639D01*
X120730967Y-76049753D01*
X120755303Y-76049909D01*
X120844330Y-76049909D01*
X120851074Y-75870954D01*
X120857818Y-75692000D01*
X121035435Y-75685280D01*
X121213053Y-75678560D01*
X121220163Y-75592916D01*
X121227273Y-75507273D01*
X121683318Y-75501012D01*
X122139364Y-75494751D01*
X122139364Y-75311000D01*
X120476818Y-75311000D01*
X120476818Y-75401970D01*
G36*
X118999000Y-76419364D02*
X119183727Y-76419364D01*
X119183727Y-76234636D01*
X118999000Y-76234636D01*
X118999000Y-76419364D01*
X118999000Y-76419364D01*
G37*
X118999000Y-76419364D02*
X119183727Y-76419364D01*
X119183727Y-76234636D01*
X118999000Y-76234636D01*
X118999000Y-76419364D01*
G36*
X120846273Y-76601303D02*
X120932864Y-76608470D01*
X121019455Y-76615636D01*
X121026199Y-76794591D01*
X121032943Y-76973545D01*
X121215727Y-76973545D01*
X121215727Y-76237424D01*
X121129136Y-76230257D01*
X121071968Y-76221839D01*
X121046035Y-76199498D01*
X121036400Y-76148299D01*
X121035379Y-76136500D01*
X121027922Y-76080930D01*
X121008388Y-76056327D01*
X120962353Y-76050087D01*
X120936271Y-76049909D01*
X120846273Y-76049909D01*
X120846273Y-76601303D01*
X120846273Y-76601303D01*
G37*
X120846273Y-76601303D02*
X120932864Y-76608470D01*
X121019455Y-76615636D01*
X121026199Y-76794591D01*
X121032943Y-76973545D01*
X121215727Y-76973545D01*
X121215727Y-76237424D01*
X121129136Y-76230257D01*
X121071968Y-76221839D01*
X121046035Y-76199498D01*
X121036400Y-76148299D01*
X121035379Y-76136500D01*
X121027922Y-76080930D01*
X121008388Y-76056327D01*
X120962353Y-76050087D01*
X120936271Y-76049909D01*
X120846273Y-76049909D01*
X120846273Y-76601303D01*
G36*
X119553182Y-76047121D02*
X119639773Y-76054288D01*
X119696941Y-76062706D01*
X119722875Y-76085047D01*
X119732509Y-76136247D01*
X119733530Y-76148045D01*
X119741067Y-76203824D01*
X119760829Y-76228366D01*
X119807331Y-76234480D01*
X119831667Y-76234636D01*
X119890238Y-76237280D01*
X119916044Y-76252765D01*
X119922481Y-76292425D01*
X119922636Y-76311606D01*
X119918150Y-76368978D01*
X119907257Y-76403831D01*
X119906327Y-76404885D01*
X119876671Y-76412089D01*
X119814145Y-76415593D01*
X119731964Y-76414688D01*
X119727373Y-76414506D01*
X119564727Y-76407818D01*
X119557561Y-76321227D01*
X119549907Y-76265145D01*
X119529808Y-76240693D01*
X119482619Y-76234763D01*
X119460818Y-76234636D01*
X119402562Y-76237548D01*
X119375821Y-76255021D01*
X119365950Y-76300163D01*
X119364076Y-76321227D01*
X119355657Y-76378395D01*
X119333316Y-76404329D01*
X119282117Y-76413963D01*
X119270318Y-76414985D01*
X119186302Y-76421938D01*
X119179349Y-76505954D01*
X119170896Y-76563147D01*
X119148599Y-76589087D01*
X119097735Y-76598693D01*
X119086907Y-76599634D01*
X119030251Y-76608228D01*
X119004720Y-76631208D01*
X118995262Y-76683625D01*
X118994543Y-76691997D01*
X118987455Y-76777273D01*
X118260091Y-76789991D01*
X118260091Y-76973545D01*
X119180940Y-76973545D01*
X119188106Y-76886954D01*
X119196559Y-76829762D01*
X119218856Y-76803822D01*
X119269720Y-76794215D01*
X119280548Y-76793275D01*
X119337204Y-76784680D01*
X119362734Y-76761701D01*
X119372193Y-76709284D01*
X119372912Y-76700912D01*
X119381072Y-76644727D01*
X119402236Y-76620912D01*
X119450626Y-76615673D01*
X119460818Y-76615636D01*
X119541636Y-76615636D01*
X119548381Y-76794591D01*
X119555125Y-76973545D01*
X119735967Y-76973545D01*
X119742711Y-76794591D01*
X119749455Y-76615636D01*
X120111777Y-76609284D01*
X120474100Y-76602932D01*
X120481232Y-76516920D01*
X120489668Y-76460121D01*
X120512116Y-76434339D01*
X120563506Y-76424732D01*
X120574955Y-76423742D01*
X120630733Y-76416206D01*
X120655275Y-76396444D01*
X120661389Y-76349942D01*
X120661546Y-76325606D01*
X120661546Y-76234636D01*
X120294879Y-76234636D01*
X120287712Y-76321227D01*
X120279670Y-76377972D01*
X120259102Y-76402251D01*
X120212092Y-76407762D01*
X120199727Y-76407818D01*
X120146469Y-76404234D01*
X120122162Y-76384349D01*
X120112891Y-76334470D01*
X120111743Y-76321227D01*
X120104319Y-76265747D01*
X120084884Y-76241119D01*
X120039048Y-76234825D01*
X120012212Y-76234636D01*
X119919849Y-76234636D01*
X119927015Y-76148045D01*
X119935434Y-76090877D01*
X119957775Y-76064944D01*
X120008974Y-76055309D01*
X120020773Y-76054288D01*
X120076551Y-76046751D01*
X120101094Y-76026989D01*
X120107207Y-75980488D01*
X120107364Y-75956151D01*
X120109645Y-75897923D01*
X120125376Y-75872050D01*
X120167888Y-75865400D01*
X120199727Y-75865182D01*
X120292091Y-75865182D01*
X120292091Y-75680454D01*
X120107364Y-75680454D01*
X120107364Y-75867969D01*
X120020773Y-75860803D01*
X119963580Y-75852350D01*
X119937641Y-75830054D01*
X119928034Y-75779190D01*
X119927094Y-75768361D01*
X119918499Y-75711705D01*
X119895519Y-75686175D01*
X119843103Y-75676716D01*
X119834730Y-75675997D01*
X119778398Y-75667538D01*
X119752808Y-75644951D01*
X119743237Y-75593314D01*
X119742288Y-75582318D01*
X119734751Y-75526540D01*
X119714990Y-75501997D01*
X119668488Y-75495883D01*
X119644152Y-75495727D01*
X119553182Y-75495727D01*
X119553182Y-76047121D01*
X119553182Y-76047121D01*
G37*
X119553182Y-76047121D02*
X119639773Y-76054288D01*
X119696941Y-76062706D01*
X119722875Y-76085047D01*
X119732509Y-76136247D01*
X119733530Y-76148045D01*
X119741067Y-76203824D01*
X119760829Y-76228366D01*
X119807331Y-76234480D01*
X119831667Y-76234636D01*
X119890238Y-76237280D01*
X119916044Y-76252765D01*
X119922481Y-76292425D01*
X119922636Y-76311606D01*
X119918150Y-76368978D01*
X119907257Y-76403831D01*
X119906327Y-76404885D01*
X119876671Y-76412089D01*
X119814145Y-76415593D01*
X119731964Y-76414688D01*
X119727373Y-76414506D01*
X119564727Y-76407818D01*
X119557561Y-76321227D01*
X119549907Y-76265145D01*
X119529808Y-76240693D01*
X119482619Y-76234763D01*
X119460818Y-76234636D01*
X119402562Y-76237548D01*
X119375821Y-76255021D01*
X119365950Y-76300163D01*
X119364076Y-76321227D01*
X119355657Y-76378395D01*
X119333316Y-76404329D01*
X119282117Y-76413963D01*
X119270318Y-76414985D01*
X119186302Y-76421938D01*
X119179349Y-76505954D01*
X119170896Y-76563147D01*
X119148599Y-76589087D01*
X119097735Y-76598693D01*
X119086907Y-76599634D01*
X119030251Y-76608228D01*
X119004720Y-76631208D01*
X118995262Y-76683625D01*
X118994543Y-76691997D01*
X118987455Y-76777273D01*
X118260091Y-76789991D01*
X118260091Y-76973545D01*
X119180940Y-76973545D01*
X119188106Y-76886954D01*
X119196559Y-76829762D01*
X119218856Y-76803822D01*
X119269720Y-76794215D01*
X119280548Y-76793275D01*
X119337204Y-76784680D01*
X119362734Y-76761701D01*
X119372193Y-76709284D01*
X119372912Y-76700912D01*
X119381072Y-76644727D01*
X119402236Y-76620912D01*
X119450626Y-76615673D01*
X119460818Y-76615636D01*
X119541636Y-76615636D01*
X119548381Y-76794591D01*
X119555125Y-76973545D01*
X119735967Y-76973545D01*
X119742711Y-76794591D01*
X119749455Y-76615636D01*
X120111777Y-76609284D01*
X120474100Y-76602932D01*
X120481232Y-76516920D01*
X120489668Y-76460121D01*
X120512116Y-76434339D01*
X120563506Y-76424732D01*
X120574955Y-76423742D01*
X120630733Y-76416206D01*
X120655275Y-76396444D01*
X120661389Y-76349942D01*
X120661546Y-76325606D01*
X120661546Y-76234636D01*
X120294879Y-76234636D01*
X120287712Y-76321227D01*
X120279670Y-76377972D01*
X120259102Y-76402251D01*
X120212092Y-76407762D01*
X120199727Y-76407818D01*
X120146469Y-76404234D01*
X120122162Y-76384349D01*
X120112891Y-76334470D01*
X120111743Y-76321227D01*
X120104319Y-76265747D01*
X120084884Y-76241119D01*
X120039048Y-76234825D01*
X120012212Y-76234636D01*
X119919849Y-76234636D01*
X119927015Y-76148045D01*
X119935434Y-76090877D01*
X119957775Y-76064944D01*
X120008974Y-76055309D01*
X120020773Y-76054288D01*
X120076551Y-76046751D01*
X120101094Y-76026989D01*
X120107207Y-75980488D01*
X120107364Y-75956151D01*
X120109645Y-75897923D01*
X120125376Y-75872050D01*
X120167888Y-75865400D01*
X120199727Y-75865182D01*
X120292091Y-75865182D01*
X120292091Y-75680454D01*
X120107364Y-75680454D01*
X120107364Y-75867969D01*
X120020773Y-75860803D01*
X119963580Y-75852350D01*
X119937641Y-75830054D01*
X119928034Y-75779190D01*
X119927094Y-75768361D01*
X119918499Y-75711705D01*
X119895519Y-75686175D01*
X119843103Y-75676716D01*
X119834730Y-75675997D01*
X119778398Y-75667538D01*
X119752808Y-75644951D01*
X119743237Y-75593314D01*
X119742288Y-75582318D01*
X119734751Y-75526540D01*
X119714990Y-75501997D01*
X119668488Y-75495883D01*
X119644152Y-75495727D01*
X119553182Y-75495727D01*
X119553182Y-76047121D01*
G36*
X119033929Y-75129052D02*
X119006748Y-75145929D01*
X118996702Y-75189711D01*
X118994621Y-75212864D01*
X118987455Y-75299454D01*
X118641091Y-75299454D01*
X118633924Y-75212864D01*
X118626271Y-75156781D01*
X118606171Y-75132329D01*
X118558982Y-75126399D01*
X118537182Y-75126273D01*
X118478926Y-75129184D01*
X118452184Y-75146658D01*
X118442314Y-75191800D01*
X118440439Y-75212864D01*
X118433273Y-75299454D01*
X118255272Y-75306181D01*
X118077272Y-75312908D01*
X118070545Y-75490909D01*
X118063818Y-75668909D01*
X117978543Y-75675997D01*
X117921887Y-75684592D01*
X117896357Y-75707572D01*
X117886898Y-75759988D01*
X117886179Y-75768361D01*
X117877720Y-75824693D01*
X117855133Y-75850283D01*
X117803496Y-75859853D01*
X117792500Y-75860803D01*
X117708484Y-75867756D01*
X117701530Y-75951773D01*
X117694364Y-76038364D01*
X117515409Y-76045108D01*
X117336455Y-76051852D01*
X117336455Y-76141850D01*
X117339326Y-76200280D01*
X117356615Y-76227155D01*
X117401338Y-76237078D01*
X117423046Y-76239015D01*
X117480214Y-76247434D01*
X117506147Y-76269775D01*
X117515782Y-76320974D01*
X117516803Y-76332773D01*
X117523757Y-76416789D01*
X117607773Y-76423742D01*
X117694364Y-76430909D01*
X117701108Y-76609864D01*
X117707753Y-76786183D01*
X117792500Y-76793197D01*
X117849668Y-76801615D01*
X117875602Y-76823956D01*
X117885236Y-76875156D01*
X117886258Y-76886954D01*
X117893875Y-76942944D01*
X117913871Y-76967424D01*
X117960850Y-76973410D01*
X117983423Y-76973545D01*
X118073421Y-76973545D01*
X118080165Y-76794591D01*
X118086909Y-76615636D01*
X118265864Y-76608892D01*
X118444818Y-76602148D01*
X118444818Y-76422084D01*
X118359710Y-76415073D01*
X118302338Y-76407155D01*
X118277536Y-76387224D01*
X118271718Y-76341694D01*
X118271636Y-76327000D01*
X118272764Y-76309902D01*
X118073410Y-76309902D01*
X118067351Y-76372752D01*
X118048993Y-76405625D01*
X118014724Y-76416484D01*
X117977386Y-76415066D01*
X117902182Y-76407818D01*
X117902182Y-76061454D01*
X118063818Y-76061454D01*
X118070780Y-76209113D01*
X118073410Y-76309902D01*
X118272764Y-76309902D01*
X118275211Y-76272833D01*
X118295378Y-76250619D01*
X118346303Y-76246192D01*
X118352455Y-76246182D01*
X118405387Y-76249661D01*
X118429751Y-76269154D01*
X118439134Y-76318249D01*
X118440528Y-76334255D01*
X118447326Y-76416784D01*
X118531409Y-76423742D01*
X118588577Y-76432161D01*
X118614511Y-76454502D01*
X118624146Y-76505701D01*
X118625167Y-76517500D01*
X118632784Y-76573489D01*
X118652780Y-76597969D01*
X118699759Y-76603955D01*
X118722332Y-76604091D01*
X118812330Y-76604091D01*
X118819074Y-76425136D01*
X118825818Y-76246182D01*
X118997874Y-76231941D01*
X119004187Y-75870954D01*
X119004526Y-75851510D01*
X118811021Y-75851510D01*
X118810259Y-75939166D01*
X118807289Y-75999853D01*
X118804015Y-76020245D01*
X118787906Y-76034240D01*
X118748054Y-76042747D01*
X118677662Y-76046381D01*
X118569933Y-76045758D01*
X118531842Y-76044897D01*
X118271636Y-76038364D01*
X118271636Y-75507273D01*
X118802727Y-75507273D01*
X118809354Y-75748166D01*
X118811021Y-75851510D01*
X119004526Y-75851510D01*
X119010546Y-75507273D01*
X119097136Y-75500106D01*
X119183727Y-75492939D01*
X119183727Y-75126273D01*
X119092758Y-75126273D01*
X119033929Y-75129052D01*
X119033929Y-75129052D01*
G37*
X119033929Y-75129052D02*
X119006748Y-75145929D01*
X118996702Y-75189711D01*
X118994621Y-75212864D01*
X118987455Y-75299454D01*
X118641091Y-75299454D01*
X118633924Y-75212864D01*
X118626271Y-75156781D01*
X118606171Y-75132329D01*
X118558982Y-75126399D01*
X118537182Y-75126273D01*
X118478926Y-75129184D01*
X118452184Y-75146658D01*
X118442314Y-75191800D01*
X118440439Y-75212864D01*
X118433273Y-75299454D01*
X118255272Y-75306181D01*
X118077272Y-75312908D01*
X118070545Y-75490909D01*
X118063818Y-75668909D01*
X117978543Y-75675997D01*
X117921887Y-75684592D01*
X117896357Y-75707572D01*
X117886898Y-75759988D01*
X117886179Y-75768361D01*
X117877720Y-75824693D01*
X117855133Y-75850283D01*
X117803496Y-75859853D01*
X117792500Y-75860803D01*
X117708484Y-75867756D01*
X117701530Y-75951773D01*
X117694364Y-76038364D01*
X117515409Y-76045108D01*
X117336455Y-76051852D01*
X117336455Y-76141850D01*
X117339326Y-76200280D01*
X117356615Y-76227155D01*
X117401338Y-76237078D01*
X117423046Y-76239015D01*
X117480214Y-76247434D01*
X117506147Y-76269775D01*
X117515782Y-76320974D01*
X117516803Y-76332773D01*
X117523757Y-76416789D01*
X117607773Y-76423742D01*
X117694364Y-76430909D01*
X117701108Y-76609864D01*
X117707753Y-76786183D01*
X117792500Y-76793197D01*
X117849668Y-76801615D01*
X117875602Y-76823956D01*
X117885236Y-76875156D01*
X117886258Y-76886954D01*
X117893875Y-76942944D01*
X117913871Y-76967424D01*
X117960850Y-76973410D01*
X117983423Y-76973545D01*
X118073421Y-76973545D01*
X118080165Y-76794591D01*
X118086909Y-76615636D01*
X118265864Y-76608892D01*
X118444818Y-76602148D01*
X118444818Y-76422084D01*
X118359710Y-76415073D01*
X118302338Y-76407155D01*
X118277536Y-76387224D01*
X118271718Y-76341694D01*
X118271636Y-76327000D01*
X118272764Y-76309902D01*
X118073410Y-76309902D01*
X118067351Y-76372752D01*
X118048993Y-76405625D01*
X118014724Y-76416484D01*
X117977386Y-76415066D01*
X117902182Y-76407818D01*
X117902182Y-76061454D01*
X118063818Y-76061454D01*
X118070780Y-76209113D01*
X118073410Y-76309902D01*
X118272764Y-76309902D01*
X118275211Y-76272833D01*
X118295378Y-76250619D01*
X118346303Y-76246192D01*
X118352455Y-76246182D01*
X118405387Y-76249661D01*
X118429751Y-76269154D01*
X118439134Y-76318249D01*
X118440528Y-76334255D01*
X118447326Y-76416784D01*
X118531409Y-76423742D01*
X118588577Y-76432161D01*
X118614511Y-76454502D01*
X118624146Y-76505701D01*
X118625167Y-76517500D01*
X118632784Y-76573489D01*
X118652780Y-76597969D01*
X118699759Y-76603955D01*
X118722332Y-76604091D01*
X118812330Y-76604091D01*
X118819074Y-76425136D01*
X118825818Y-76246182D01*
X118997874Y-76231941D01*
X119004187Y-75870954D01*
X119004526Y-75851510D01*
X118811021Y-75851510D01*
X118810259Y-75939166D01*
X118807289Y-75999853D01*
X118804015Y-76020245D01*
X118787906Y-76034240D01*
X118748054Y-76042747D01*
X118677662Y-76046381D01*
X118569933Y-76045758D01*
X118531842Y-76044897D01*
X118271636Y-76038364D01*
X118271636Y-75507273D01*
X118802727Y-75507273D01*
X118809354Y-75748166D01*
X118811021Y-75851510D01*
X119004526Y-75851510D01*
X119010546Y-75507273D01*
X119097136Y-75500106D01*
X119183727Y-75492939D01*
X119183727Y-75126273D01*
X119092758Y-75126273D01*
X119033929Y-75129052D01*
G36*
X117521182Y-76973545D02*
X117705909Y-76973545D01*
X117705909Y-76788818D01*
X117521182Y-76788818D01*
X117521182Y-76973545D01*
X117521182Y-76973545D01*
G37*
X117521182Y-76973545D02*
X117705909Y-76973545D01*
X117705909Y-76788818D01*
X117521182Y-76788818D01*
X117521182Y-76973545D01*
G36*
X121400455Y-76973545D02*
X122693546Y-76973545D01*
X122693546Y-75865182D01*
X122508818Y-75865182D01*
X122508818Y-76788818D01*
X121585182Y-76788818D01*
X121585182Y-75865182D01*
X122508818Y-75865182D01*
X122693546Y-75865182D01*
X122693546Y-75680454D01*
X121400455Y-75680454D01*
X121400455Y-76973545D01*
X121400455Y-76973545D01*
G37*
X121400455Y-76973545D02*
X122693546Y-76973545D01*
X122693546Y-75865182D01*
X122508818Y-75865182D01*
X122508818Y-76788818D01*
X121585182Y-76788818D01*
X121585182Y-75865182D01*
X122508818Y-75865182D01*
X122693546Y-75865182D01*
X122693546Y-75680454D01*
X121400455Y-75680454D01*
X121400455Y-76973545D01*
G04 #@! TD*
G04 #@! TO.C,U4*
D12*
X171703904Y-76160380D02*
X171703904Y-76969904D01*
X171656285Y-77065142D01*
X171608666Y-77112761D01*
X171513428Y-77160380D01*
X171322952Y-77160380D01*
X171227714Y-77112761D01*
X171180095Y-77065142D01*
X171132476Y-76969904D01*
X171132476Y-76160380D01*
X170227714Y-76493714D02*
X170227714Y-77160380D01*
X170465809Y-76112761D02*
X170703904Y-76827047D01*
X170084857Y-76827047D01*
G04 #@! TO.C,C15*
X174510834Y-76636642D02*
X174558453Y-76589023D01*
X174606072Y-76446166D01*
X174606072Y-76350928D01*
X174558453Y-76208071D01*
X174463215Y-76112833D01*
X174367977Y-76065214D01*
X174177501Y-76017595D01*
X174034644Y-76017595D01*
X173844168Y-76065214D01*
X173748930Y-76112833D01*
X173653692Y-76208071D01*
X173606072Y-76350928D01*
X173606072Y-76446166D01*
X173653692Y-76589023D01*
X173701311Y-76636642D01*
X174606072Y-77589023D02*
X174606072Y-77017595D01*
X174606072Y-77303309D02*
X173606072Y-77303309D01*
X173748930Y-77208071D01*
X173844168Y-77112833D01*
X173891787Y-77017595D01*
X173606072Y-78493785D02*
X173606072Y-78017595D01*
X174082263Y-77969976D01*
X174034644Y-78017595D01*
X173987025Y-78112833D01*
X173987025Y-78350928D01*
X174034644Y-78446166D01*
X174082263Y-78493785D01*
X174177501Y-78541404D01*
X174415596Y-78541404D01*
X174510834Y-78493785D01*
X174558453Y-78446166D01*
X174606072Y-78350928D01*
X174606072Y-78112833D01*
X174558453Y-78017595D01*
X174510834Y-77969976D01*
G04 #@! TO.C,Q4*
X130397238Y-78652619D02*
X130492476Y-78605000D01*
X130587714Y-78509761D01*
X130730571Y-78366904D01*
X130825809Y-78319285D01*
X130921047Y-78319285D01*
X130873428Y-78557380D02*
X130968666Y-78509761D01*
X131063904Y-78414523D01*
X131111523Y-78224047D01*
X131111523Y-77890714D01*
X131063904Y-77700238D01*
X130968666Y-77605000D01*
X130873428Y-77557380D01*
X130682952Y-77557380D01*
X130587714Y-77605000D01*
X130492476Y-77700238D01*
X130444857Y-77890714D01*
X130444857Y-78224047D01*
X130492476Y-78414523D01*
X130587714Y-78509761D01*
X130682952Y-78557380D01*
X130873428Y-78557380D01*
X129587714Y-77890714D02*
X129587714Y-78557380D01*
X129825809Y-77509761D02*
X130063904Y-78224047D01*
X129444857Y-78224047D01*
G04 #@! TO.C,U3*
X153923904Y-77430380D02*
X153923904Y-78239904D01*
X153876285Y-78335142D01*
X153828666Y-78382761D01*
X153733428Y-78430380D01*
X153542952Y-78430380D01*
X153447714Y-78382761D01*
X153400095Y-78335142D01*
X153352476Y-78239904D01*
X153352476Y-77430380D01*
X152971523Y-77430380D02*
X152352476Y-77430380D01*
X152685809Y-77811333D01*
X152542952Y-77811333D01*
X152447714Y-77858952D01*
X152400095Y-77906571D01*
X152352476Y-78001809D01*
X152352476Y-78239904D01*
X152400095Y-78335142D01*
X152447714Y-78382761D01*
X152542952Y-78430380D01*
X152828666Y-78430380D01*
X152923904Y-78382761D01*
X152971523Y-78335142D01*
G04 #@! TO.C,R8*
X131643380Y-84748333D02*
X131167190Y-84415000D01*
X131643380Y-84176904D02*
X130643380Y-84176904D01*
X130643380Y-84557857D01*
X130691000Y-84653095D01*
X130738619Y-84700714D01*
X130833857Y-84748333D01*
X130976714Y-84748333D01*
X131071952Y-84700714D01*
X131119571Y-84653095D01*
X131167190Y-84557857D01*
X131167190Y-84176904D01*
X131071952Y-85319761D02*
X131024333Y-85224523D01*
X130976714Y-85176904D01*
X130881476Y-85129285D01*
X130833857Y-85129285D01*
X130738619Y-85176904D01*
X130691000Y-85224523D01*
X130643380Y-85319761D01*
X130643380Y-85510238D01*
X130691000Y-85605476D01*
X130738619Y-85653095D01*
X130833857Y-85700714D01*
X130881476Y-85700714D01*
X130976714Y-85653095D01*
X131024333Y-85605476D01*
X131071952Y-85510238D01*
X131071952Y-85319761D01*
X131119571Y-85224523D01*
X131167190Y-85176904D01*
X131262428Y-85129285D01*
X131452904Y-85129285D01*
X131548142Y-85176904D01*
X131595761Y-85224523D01*
X131643380Y-85319761D01*
X131643380Y-85510238D01*
X131595761Y-85605476D01*
X131548142Y-85653095D01*
X131452904Y-85700714D01*
X131262428Y-85700714D01*
X131167190Y-85653095D01*
X131119571Y-85605476D01*
X131071952Y-85510238D01*
G04 #@! TO.C,C1*
X154865342Y-89050833D02*
X154912961Y-89003214D01*
X154960580Y-88860357D01*
X154960580Y-88765119D01*
X154912961Y-88622261D01*
X154817723Y-88527023D01*
X154722485Y-88479404D01*
X154532009Y-88431785D01*
X154389152Y-88431785D01*
X154198676Y-88479404D01*
X154103438Y-88527023D01*
X154008200Y-88622261D01*
X153960580Y-88765119D01*
X153960580Y-88860357D01*
X154008200Y-89003214D01*
X154055819Y-89050833D01*
X154960580Y-90003214D02*
X154960580Y-89431785D01*
X154960580Y-89717500D02*
X153960580Y-89717500D01*
X154103438Y-89622261D01*
X154198676Y-89527023D01*
X154246295Y-89431785D01*
G04 #@! TO.C,C2*
X162559293Y-87844333D02*
X162606912Y-87796714D01*
X162654531Y-87653857D01*
X162654531Y-87558619D01*
X162606912Y-87415761D01*
X162511674Y-87320523D01*
X162416436Y-87272904D01*
X162225960Y-87225285D01*
X162083103Y-87225285D01*
X161892627Y-87272904D01*
X161797389Y-87320523D01*
X161702151Y-87415761D01*
X161654531Y-87558619D01*
X161654531Y-87653857D01*
X161702151Y-87796714D01*
X161749770Y-87844333D01*
X161749770Y-88225285D02*
X161702151Y-88272904D01*
X161654531Y-88368142D01*
X161654531Y-88606238D01*
X161702151Y-88701476D01*
X161749770Y-88749095D01*
X161845008Y-88796714D01*
X161940246Y-88796714D01*
X162083103Y-88749095D01*
X162654531Y-88177666D01*
X162654531Y-88796714D01*
G04 #@! TO.C,C3*
X168314666Y-84837542D02*
X168362285Y-84885161D01*
X168505142Y-84932780D01*
X168600380Y-84932780D01*
X168743238Y-84885161D01*
X168838476Y-84789923D01*
X168886095Y-84694685D01*
X168933714Y-84504209D01*
X168933714Y-84361352D01*
X168886095Y-84170876D01*
X168838476Y-84075638D01*
X168743238Y-83980400D01*
X168600380Y-83932780D01*
X168505142Y-83932780D01*
X168362285Y-83980400D01*
X168314666Y-84028019D01*
X167981333Y-83932780D02*
X167362285Y-83932780D01*
X167695619Y-84313733D01*
X167552761Y-84313733D01*
X167457523Y-84361352D01*
X167409904Y-84408971D01*
X167362285Y-84504209D01*
X167362285Y-84742304D01*
X167409904Y-84837542D01*
X167457523Y-84885161D01*
X167552761Y-84932780D01*
X167838476Y-84932780D01*
X167933714Y-84885161D01*
X167981333Y-84837542D01*
G04 #@! TO.C,C4*
X168314666Y-86361542D02*
X168362285Y-86409161D01*
X168505142Y-86456780D01*
X168600380Y-86456780D01*
X168743238Y-86409161D01*
X168838476Y-86313923D01*
X168886095Y-86218685D01*
X168933714Y-86028209D01*
X168933714Y-85885352D01*
X168886095Y-85694876D01*
X168838476Y-85599638D01*
X168743238Y-85504400D01*
X168600380Y-85456780D01*
X168505142Y-85456780D01*
X168362285Y-85504400D01*
X168314666Y-85552019D01*
X167457523Y-85790114D02*
X167457523Y-86456780D01*
X167695619Y-85409161D02*
X167933714Y-86123447D01*
X167314666Y-86123447D01*
G04 #@! TO.C,C5*
X156313142Y-77557333D02*
X156360761Y-77509714D01*
X156408380Y-77366857D01*
X156408380Y-77271619D01*
X156360761Y-77128761D01*
X156265523Y-77033523D01*
X156170285Y-76985904D01*
X155979809Y-76938285D01*
X155836952Y-76938285D01*
X155646476Y-76985904D01*
X155551238Y-77033523D01*
X155456000Y-77128761D01*
X155408380Y-77271619D01*
X155408380Y-77366857D01*
X155456000Y-77509714D01*
X155503619Y-77557333D01*
X155408380Y-78462095D02*
X155408380Y-77985904D01*
X155884571Y-77938285D01*
X155836952Y-77985904D01*
X155789333Y-78081142D01*
X155789333Y-78319238D01*
X155836952Y-78414476D01*
X155884571Y-78462095D01*
X155979809Y-78509714D01*
X156217904Y-78509714D01*
X156313142Y-78462095D01*
X156360761Y-78414476D01*
X156408380Y-78319238D01*
X156408380Y-78081142D01*
X156360761Y-77985904D01*
X156313142Y-77938285D01*
G04 #@! TO.C,C8*
X137834666Y-85653142D02*
X137882285Y-85700761D01*
X138025142Y-85748380D01*
X138120380Y-85748380D01*
X138263238Y-85700761D01*
X138358476Y-85605523D01*
X138406095Y-85510285D01*
X138453714Y-85319809D01*
X138453714Y-85176952D01*
X138406095Y-84986476D01*
X138358476Y-84891238D01*
X138263238Y-84796000D01*
X138120380Y-84748380D01*
X138025142Y-84748380D01*
X137882285Y-84796000D01*
X137834666Y-84843619D01*
X137263238Y-85176952D02*
X137358476Y-85129333D01*
X137406095Y-85081714D01*
X137453714Y-84986476D01*
X137453714Y-84938857D01*
X137406095Y-84843619D01*
X137358476Y-84796000D01*
X137263238Y-84748380D01*
X137072761Y-84748380D01*
X136977523Y-84796000D01*
X136929904Y-84843619D01*
X136882285Y-84938857D01*
X136882285Y-84986476D01*
X136929904Y-85081714D01*
X136977523Y-85129333D01*
X137072761Y-85176952D01*
X137263238Y-85176952D01*
X137358476Y-85224571D01*
X137406095Y-85272190D01*
X137453714Y-85367428D01*
X137453714Y-85557904D01*
X137406095Y-85653142D01*
X137358476Y-85700761D01*
X137263238Y-85748380D01*
X137072761Y-85748380D01*
X136977523Y-85700761D01*
X136929904Y-85653142D01*
X136882285Y-85557904D01*
X136882285Y-85367428D01*
X136929904Y-85272190D01*
X136977523Y-85224571D01*
X137072761Y-85176952D01*
G04 #@! TO.C,C9*
D10*
X132088466Y-70076785D02*
X132127171Y-70115490D01*
X132243285Y-70154195D01*
X132320695Y-70154195D01*
X132436809Y-70115490D01*
X132514219Y-70038080D01*
X132552923Y-69960671D01*
X132591628Y-69805852D01*
X132591628Y-69689738D01*
X132552923Y-69534919D01*
X132514219Y-69457509D01*
X132436809Y-69380100D01*
X132320695Y-69341395D01*
X132243285Y-69341395D01*
X132127171Y-69380100D01*
X132088466Y-69418804D01*
X131701419Y-70154195D02*
X131546600Y-70154195D01*
X131469190Y-70115490D01*
X131430485Y-70076785D01*
X131353076Y-69960671D01*
X131314371Y-69805852D01*
X131314371Y-69496214D01*
X131353076Y-69418804D01*
X131391780Y-69380100D01*
X131469190Y-69341395D01*
X131624009Y-69341395D01*
X131701419Y-69380100D01*
X131740123Y-69418804D01*
X131778828Y-69496214D01*
X131778828Y-69689738D01*
X131740123Y-69767147D01*
X131701419Y-69805852D01*
X131624009Y-69844557D01*
X131469190Y-69844557D01*
X131391780Y-69805852D01*
X131353076Y-69767147D01*
X131314371Y-69689738D01*
G04 #@! TO.C,C11*
D12*
X138342642Y-74668142D02*
X138390261Y-74620523D01*
X138437880Y-74477666D01*
X138437880Y-74382428D01*
X138390261Y-74239571D01*
X138295023Y-74144333D01*
X138199785Y-74096714D01*
X138009309Y-74049095D01*
X137866452Y-74049095D01*
X137675976Y-74096714D01*
X137580738Y-74144333D01*
X137485500Y-74239571D01*
X137437880Y-74382428D01*
X137437880Y-74477666D01*
X137485500Y-74620523D01*
X137533119Y-74668142D01*
X138437880Y-75620523D02*
X138437880Y-75049095D01*
X138437880Y-75334809D02*
X137437880Y-75334809D01*
X137580738Y-75239571D01*
X137675976Y-75144333D01*
X137723595Y-75049095D01*
X138437880Y-76572904D02*
X138437880Y-76001476D01*
X138437880Y-76287190D02*
X137437880Y-76287190D01*
X137580738Y-76191952D01*
X137675976Y-76096714D01*
X137723595Y-76001476D01*
G04 #@! TO.C,C12*
X144883142Y-83939142D02*
X144930761Y-83891523D01*
X144978380Y-83748666D01*
X144978380Y-83653428D01*
X144930761Y-83510571D01*
X144835523Y-83415333D01*
X144740285Y-83367714D01*
X144549809Y-83320095D01*
X144406952Y-83320095D01*
X144216476Y-83367714D01*
X144121238Y-83415333D01*
X144026000Y-83510571D01*
X143978380Y-83653428D01*
X143978380Y-83748666D01*
X144026000Y-83891523D01*
X144073619Y-83939142D01*
X144978380Y-84891523D02*
X144978380Y-84320095D01*
X144978380Y-84605809D02*
X143978380Y-84605809D01*
X144121238Y-84510571D01*
X144216476Y-84415333D01*
X144264095Y-84320095D01*
X144073619Y-85272476D02*
X144026000Y-85320095D01*
X143978380Y-85415333D01*
X143978380Y-85653428D01*
X144026000Y-85748666D01*
X144073619Y-85796285D01*
X144168857Y-85843904D01*
X144264095Y-85843904D01*
X144406952Y-85796285D01*
X144978380Y-85224857D01*
X144978380Y-85843904D01*
G04 #@! TO.C,C13*
X143232142Y-83939142D02*
X143279761Y-83891523D01*
X143327380Y-83748666D01*
X143327380Y-83653428D01*
X143279761Y-83510571D01*
X143184523Y-83415333D01*
X143089285Y-83367714D01*
X142898809Y-83320095D01*
X142755952Y-83320095D01*
X142565476Y-83367714D01*
X142470238Y-83415333D01*
X142375000Y-83510571D01*
X142327380Y-83653428D01*
X142327380Y-83748666D01*
X142375000Y-83891523D01*
X142422619Y-83939142D01*
X143327380Y-84891523D02*
X143327380Y-84320095D01*
X143327380Y-84605809D02*
X142327380Y-84605809D01*
X142470238Y-84510571D01*
X142565476Y-84415333D01*
X142613095Y-84320095D01*
X142327380Y-85224857D02*
X142327380Y-85843904D01*
X142708333Y-85510571D01*
X142708333Y-85653428D01*
X142755952Y-85748666D01*
X142803571Y-85796285D01*
X142898809Y-85843904D01*
X143136904Y-85843904D01*
X143232142Y-85796285D01*
X143279761Y-85748666D01*
X143327380Y-85653428D01*
X143327380Y-85367714D01*
X143279761Y-85272476D01*
X143232142Y-85224857D01*
G04 #@! TO.C,C16*
X174632857Y-73636142D02*
X174680476Y-73683761D01*
X174823333Y-73731380D01*
X174918571Y-73731380D01*
X175061428Y-73683761D01*
X175156666Y-73588523D01*
X175204285Y-73493285D01*
X175251904Y-73302809D01*
X175251904Y-73159952D01*
X175204285Y-72969476D01*
X175156666Y-72874238D01*
X175061428Y-72779000D01*
X174918571Y-72731380D01*
X174823333Y-72731380D01*
X174680476Y-72779000D01*
X174632857Y-72826619D01*
X173680476Y-73731380D02*
X174251904Y-73731380D01*
X173966190Y-73731380D02*
X173966190Y-72731380D01*
X174061428Y-72874238D01*
X174156666Y-72969476D01*
X174251904Y-73017095D01*
X172823333Y-72731380D02*
X173013809Y-72731380D01*
X173109047Y-72779000D01*
X173156666Y-72826619D01*
X173251904Y-72969476D01*
X173299523Y-73159952D01*
X173299523Y-73540904D01*
X173251904Y-73636142D01*
X173204285Y-73683761D01*
X173109047Y-73731380D01*
X172918571Y-73731380D01*
X172823333Y-73683761D01*
X172775714Y-73636142D01*
X172728095Y-73540904D01*
X172728095Y-73302809D01*
X172775714Y-73207571D01*
X172823333Y-73159952D01*
X172918571Y-73112333D01*
X173109047Y-73112333D01*
X173204285Y-73159952D01*
X173251904Y-73207571D01*
X173299523Y-73302809D01*
G04 #@! TO.C,C17*
X174510834Y-80192642D02*
X174558453Y-80145023D01*
X174606072Y-80002166D01*
X174606072Y-79906928D01*
X174558453Y-79764071D01*
X174463215Y-79668833D01*
X174367977Y-79621214D01*
X174177501Y-79573595D01*
X174034644Y-79573595D01*
X173844168Y-79621214D01*
X173748930Y-79668833D01*
X173653692Y-79764071D01*
X173606072Y-79906928D01*
X173606072Y-80002166D01*
X173653692Y-80145023D01*
X173701311Y-80192642D01*
X174606072Y-81145023D02*
X174606072Y-80573595D01*
X174606072Y-80859309D02*
X173606072Y-80859309D01*
X173748930Y-80764071D01*
X173844168Y-80668833D01*
X173891787Y-80573595D01*
X173606072Y-81478357D02*
X173606072Y-82145023D01*
X174606072Y-81716452D01*
G04 #@! TO.C,L1*
X143803666Y-77541380D02*
X144279857Y-77541380D01*
X144279857Y-76541380D01*
X142946523Y-77541380D02*
X143517952Y-77541380D01*
X143232238Y-77541380D02*
X143232238Y-76541380D01*
X143327476Y-76684238D01*
X143422714Y-76779476D01*
X143517952Y-76827095D01*
G04 #@! TO.C,Q3*
X128492238Y-85129619D02*
X128587476Y-85082000D01*
X128682714Y-84986761D01*
X128825571Y-84843904D01*
X128920809Y-84796285D01*
X129016047Y-84796285D01*
X128968428Y-85034380D02*
X129063666Y-84986761D01*
X129158904Y-84891523D01*
X129206523Y-84701047D01*
X129206523Y-84367714D01*
X129158904Y-84177238D01*
X129063666Y-84082000D01*
X128968428Y-84034380D01*
X128777952Y-84034380D01*
X128682714Y-84082000D01*
X128587476Y-84177238D01*
X128539857Y-84367714D01*
X128539857Y-84701047D01*
X128587476Y-84891523D01*
X128682714Y-84986761D01*
X128777952Y-85034380D01*
X128968428Y-85034380D01*
X128206523Y-84034380D02*
X127587476Y-84034380D01*
X127920809Y-84415333D01*
X127777952Y-84415333D01*
X127682714Y-84462952D01*
X127635095Y-84510571D01*
X127587476Y-84605809D01*
X127587476Y-84843904D01*
X127635095Y-84939142D01*
X127682714Y-84986761D01*
X127777952Y-85034380D01*
X128063666Y-85034380D01*
X128158904Y-84986761D01*
X128206523Y-84939142D01*
G04 #@! TO.C,Q5*
X140755619Y-74707761D02*
X140708000Y-74612523D01*
X140612761Y-74517285D01*
X140469904Y-74374428D01*
X140422285Y-74279190D01*
X140422285Y-74183952D01*
X140660380Y-74231571D02*
X140612761Y-74136333D01*
X140517523Y-74041095D01*
X140327047Y-73993476D01*
X139993714Y-73993476D01*
X139803238Y-74041095D01*
X139708000Y-74136333D01*
X139660380Y-74231571D01*
X139660380Y-74422047D01*
X139708000Y-74517285D01*
X139803238Y-74612523D01*
X139993714Y-74660142D01*
X140327047Y-74660142D01*
X140517523Y-74612523D01*
X140612761Y-74517285D01*
X140660380Y-74422047D01*
X140660380Y-74231571D01*
X139660380Y-75564904D02*
X139660380Y-75088714D01*
X140136571Y-75041095D01*
X140088952Y-75088714D01*
X140041333Y-75183952D01*
X140041333Y-75422047D01*
X140088952Y-75517285D01*
X140136571Y-75564904D01*
X140231809Y-75612523D01*
X140469904Y-75612523D01*
X140565142Y-75564904D01*
X140612761Y-75517285D01*
X140660380Y-75422047D01*
X140660380Y-75183952D01*
X140612761Y-75088714D01*
X140565142Y-75041095D01*
G04 #@! TO.C,Q6*
X145835619Y-74707761D02*
X145788000Y-74612523D01*
X145692761Y-74517285D01*
X145549904Y-74374428D01*
X145502285Y-74279190D01*
X145502285Y-74183952D01*
X145740380Y-74231571D02*
X145692761Y-74136333D01*
X145597523Y-74041095D01*
X145407047Y-73993476D01*
X145073714Y-73993476D01*
X144883238Y-74041095D01*
X144788000Y-74136333D01*
X144740380Y-74231571D01*
X144740380Y-74422047D01*
X144788000Y-74517285D01*
X144883238Y-74612523D01*
X145073714Y-74660142D01*
X145407047Y-74660142D01*
X145597523Y-74612523D01*
X145692761Y-74517285D01*
X145740380Y-74422047D01*
X145740380Y-74231571D01*
X144740380Y-75517285D02*
X144740380Y-75326809D01*
X144788000Y-75231571D01*
X144835619Y-75183952D01*
X144978476Y-75088714D01*
X145168952Y-75041095D01*
X145549904Y-75041095D01*
X145645142Y-75088714D01*
X145692761Y-75136333D01*
X145740380Y-75231571D01*
X145740380Y-75422047D01*
X145692761Y-75517285D01*
X145645142Y-75564904D01*
X145549904Y-75612523D01*
X145311809Y-75612523D01*
X145216571Y-75564904D01*
X145168952Y-75517285D01*
X145121333Y-75422047D01*
X145121333Y-75231571D01*
X145168952Y-75136333D01*
X145216571Y-75088714D01*
X145311809Y-75041095D01*
G04 #@! TO.C,Q7*
X150915619Y-74707761D02*
X150868000Y-74612523D01*
X150772761Y-74517285D01*
X150629904Y-74374428D01*
X150582285Y-74279190D01*
X150582285Y-74183952D01*
X150820380Y-74231571D02*
X150772761Y-74136333D01*
X150677523Y-74041095D01*
X150487047Y-73993476D01*
X150153714Y-73993476D01*
X149963238Y-74041095D01*
X149868000Y-74136333D01*
X149820380Y-74231571D01*
X149820380Y-74422047D01*
X149868000Y-74517285D01*
X149963238Y-74612523D01*
X150153714Y-74660142D01*
X150487047Y-74660142D01*
X150677523Y-74612523D01*
X150772761Y-74517285D01*
X150820380Y-74422047D01*
X150820380Y-74231571D01*
X149820380Y-74993476D02*
X149820380Y-75660142D01*
X150820380Y-75231571D01*
G04 #@! TO.C,R1*
X150257724Y-89114333D02*
X149781534Y-88781000D01*
X150257724Y-88542904D02*
X149257724Y-88542904D01*
X149257724Y-88923857D01*
X149305344Y-89019095D01*
X149352963Y-89066714D01*
X149448201Y-89114333D01*
X149591058Y-89114333D01*
X149686296Y-89066714D01*
X149733915Y-89019095D01*
X149781534Y-88923857D01*
X149781534Y-88542904D01*
X150257724Y-90066714D02*
X150257724Y-89495285D01*
X150257724Y-89781000D02*
X149257724Y-89781000D01*
X149400582Y-89685761D01*
X149495820Y-89590523D01*
X149543439Y-89495285D01*
G04 #@! TO.C,R2*
X156535380Y-89050833D02*
X156059190Y-88717500D01*
X156535380Y-88479404D02*
X155535380Y-88479404D01*
X155535380Y-88860357D01*
X155583000Y-88955595D01*
X155630619Y-89003214D01*
X155725857Y-89050833D01*
X155868714Y-89050833D01*
X155963952Y-89003214D01*
X156011571Y-88955595D01*
X156059190Y-88860357D01*
X156059190Y-88479404D01*
X155630619Y-89431785D02*
X155583000Y-89479404D01*
X155535380Y-89574642D01*
X155535380Y-89812738D01*
X155583000Y-89907976D01*
X155630619Y-89955595D01*
X155725857Y-90003214D01*
X155821095Y-90003214D01*
X155963952Y-89955595D01*
X156535380Y-89384166D01*
X156535380Y-90003214D01*
G04 #@! TO.C,R3*
X148661380Y-89114333D02*
X148185190Y-88781000D01*
X148661380Y-88542904D02*
X147661380Y-88542904D01*
X147661380Y-88923857D01*
X147709000Y-89019095D01*
X147756619Y-89066714D01*
X147851857Y-89114333D01*
X147994714Y-89114333D01*
X148089952Y-89066714D01*
X148137571Y-89019095D01*
X148185190Y-88923857D01*
X148185190Y-88542904D01*
X147661380Y-89447666D02*
X147661380Y-90066714D01*
X148042333Y-89733380D01*
X148042333Y-89876238D01*
X148089952Y-89971476D01*
X148137571Y-90019095D01*
X148232809Y-90066714D01*
X148470904Y-90066714D01*
X148566142Y-90019095D01*
X148613761Y-89971476D01*
X148661380Y-89876238D01*
X148661380Y-89590523D01*
X148613761Y-89495285D01*
X148566142Y-89447666D01*
G04 #@! TO.C,R4*
X153385780Y-89050833D02*
X152909590Y-88717500D01*
X153385780Y-88479404D02*
X152385780Y-88479404D01*
X152385780Y-88860357D01*
X152433400Y-88955595D01*
X152481019Y-89003214D01*
X152576257Y-89050833D01*
X152719114Y-89050833D01*
X152814352Y-89003214D01*
X152861971Y-88955595D01*
X152909590Y-88860357D01*
X152909590Y-88479404D01*
X152719114Y-89907976D02*
X153385780Y-89907976D01*
X152338161Y-89669880D02*
X153052447Y-89431785D01*
X153052447Y-90050833D01*
G04 #@! TO.C,R5*
X151827536Y-89050833D02*
X151351346Y-88717500D01*
X151827536Y-88479404D02*
X150827536Y-88479404D01*
X150827536Y-88860357D01*
X150875156Y-88955595D01*
X150922775Y-89003214D01*
X151018013Y-89050833D01*
X151160870Y-89050833D01*
X151256108Y-89003214D01*
X151303727Y-88955595D01*
X151351346Y-88860357D01*
X151351346Y-88479404D01*
X150827536Y-89955595D02*
X150827536Y-89479404D01*
X151303727Y-89431785D01*
X151256108Y-89479404D01*
X151208489Y-89574642D01*
X151208489Y-89812738D01*
X151256108Y-89907976D01*
X151303727Y-89955595D01*
X151398965Y-90003214D01*
X151637060Y-90003214D01*
X151732298Y-89955595D01*
X151779917Y-89907976D01*
X151827536Y-89812738D01*
X151827536Y-89574642D01*
X151779917Y-89479404D01*
X151732298Y-89431785D01*
G04 #@! TO.C,R10*
X126186534Y-84598142D02*
X125710344Y-84264809D01*
X126186534Y-84026714D02*
X125186534Y-84026714D01*
X125186534Y-84407666D01*
X125234154Y-84502904D01*
X125281773Y-84550523D01*
X125377011Y-84598142D01*
X125519868Y-84598142D01*
X125615106Y-84550523D01*
X125662725Y-84502904D01*
X125710344Y-84407666D01*
X125710344Y-84026714D01*
X126186534Y-85550523D02*
X126186534Y-84979095D01*
X126186534Y-85264809D02*
X125186534Y-85264809D01*
X125329392Y-85169571D01*
X125424630Y-85074333D01*
X125472249Y-84979095D01*
X125186534Y-86169571D02*
X125186534Y-86264809D01*
X125234154Y-86360047D01*
X125281773Y-86407666D01*
X125377011Y-86455285D01*
X125567487Y-86502904D01*
X125805582Y-86502904D01*
X125996058Y-86455285D01*
X126091296Y-86407666D01*
X126138915Y-86360047D01*
X126186534Y-86264809D01*
X126186534Y-86169571D01*
X126138915Y-86074333D01*
X126091296Y-86026714D01*
X125996058Y-85979095D01*
X125805582Y-85931476D01*
X125567487Y-85931476D01*
X125377011Y-85979095D01*
X125281773Y-86026714D01*
X125234154Y-86074333D01*
X125186534Y-86169571D01*
G04 #@! TO.C,R12*
X128468380Y-87447142D02*
X127992190Y-87113809D01*
X128468380Y-86875714D02*
X127468380Y-86875714D01*
X127468380Y-87256666D01*
X127516000Y-87351904D01*
X127563619Y-87399523D01*
X127658857Y-87447142D01*
X127801714Y-87447142D01*
X127896952Y-87399523D01*
X127944571Y-87351904D01*
X127992190Y-87256666D01*
X127992190Y-86875714D01*
X128468380Y-88399523D02*
X128468380Y-87828095D01*
X128468380Y-88113809D02*
X127468380Y-88113809D01*
X127611238Y-88018571D01*
X127706476Y-87923333D01*
X127754095Y-87828095D01*
X127563619Y-88780476D02*
X127516000Y-88828095D01*
X127468380Y-88923333D01*
X127468380Y-89161428D01*
X127516000Y-89256666D01*
X127563619Y-89304285D01*
X127658857Y-89351904D01*
X127754095Y-89351904D01*
X127896952Y-89304285D01*
X128468380Y-88732857D01*
X128468380Y-89351904D01*
G04 #@! TO.C,R13*
X133611857Y-88796380D02*
X133945190Y-88320190D01*
X134183285Y-88796380D02*
X134183285Y-87796380D01*
X133802333Y-87796380D01*
X133707095Y-87844000D01*
X133659476Y-87891619D01*
X133611857Y-87986857D01*
X133611857Y-88129714D01*
X133659476Y-88224952D01*
X133707095Y-88272571D01*
X133802333Y-88320190D01*
X134183285Y-88320190D01*
X132659476Y-88796380D02*
X133230904Y-88796380D01*
X132945190Y-88796380D02*
X132945190Y-87796380D01*
X133040428Y-87939238D01*
X133135666Y-88034476D01*
X133230904Y-88082095D01*
X132326142Y-87796380D02*
X131707095Y-87796380D01*
X132040428Y-88177333D01*
X131897571Y-88177333D01*
X131802333Y-88224952D01*
X131754714Y-88272571D01*
X131707095Y-88367809D01*
X131707095Y-88605904D01*
X131754714Y-88701142D01*
X131802333Y-88748761D01*
X131897571Y-88796380D01*
X132183285Y-88796380D01*
X132278523Y-88748761D01*
X132326142Y-88701142D01*
G04 #@! TO.C,C10*
X131167142Y-74668142D02*
X131214761Y-74620523D01*
X131262380Y-74477666D01*
X131262380Y-74382428D01*
X131214761Y-74239571D01*
X131119523Y-74144333D01*
X131024285Y-74096714D01*
X130833809Y-74049095D01*
X130690952Y-74049095D01*
X130500476Y-74096714D01*
X130405238Y-74144333D01*
X130310000Y-74239571D01*
X130262380Y-74382428D01*
X130262380Y-74477666D01*
X130310000Y-74620523D01*
X130357619Y-74668142D01*
X131262380Y-75620523D02*
X131262380Y-75049095D01*
X131262380Y-75334809D02*
X130262380Y-75334809D01*
X130405238Y-75239571D01*
X130500476Y-75144333D01*
X130548095Y-75049095D01*
X130262380Y-76239571D02*
X130262380Y-76334809D01*
X130310000Y-76430047D01*
X130357619Y-76477666D01*
X130452857Y-76525285D01*
X130643333Y-76572904D01*
X130881428Y-76572904D01*
X131071904Y-76525285D01*
X131167142Y-76477666D01*
X131214761Y-76430047D01*
X131262380Y-76334809D01*
X131262380Y-76239571D01*
X131214761Y-76144333D01*
X131167142Y-76096714D01*
X131071904Y-76049095D01*
X130881428Y-76001476D01*
X130643333Y-76001476D01*
X130452857Y-76049095D01*
X130357619Y-76096714D01*
X130310000Y-76144333D01*
X130262380Y-76239571D01*
G04 #@! TO.C,D2*
X122626380Y-84430904D02*
X121626380Y-84430904D01*
X121626380Y-84669000D01*
X121674000Y-84811857D01*
X121769238Y-84907095D01*
X121864476Y-84954714D01*
X122054952Y-85002333D01*
X122197809Y-85002333D01*
X122388285Y-84954714D01*
X122483523Y-84907095D01*
X122578761Y-84811857D01*
X122626380Y-84669000D01*
X122626380Y-84430904D01*
X121721619Y-85383285D02*
X121674000Y-85430904D01*
X121626380Y-85526142D01*
X121626380Y-85764238D01*
X121674000Y-85859476D01*
X121721619Y-85907095D01*
X121816857Y-85954714D01*
X121912095Y-85954714D01*
X122054952Y-85907095D01*
X122626380Y-85335666D01*
X122626380Y-85954714D01*
G04 #@! TO.C,Q2*
X139795238Y-83351619D02*
X139890476Y-83304000D01*
X139985714Y-83208761D01*
X140128571Y-83065904D01*
X140223809Y-83018285D01*
X140319047Y-83018285D01*
X140271428Y-83256380D02*
X140366666Y-83208761D01*
X140461904Y-83113523D01*
X140509523Y-82923047D01*
X140509523Y-82589714D01*
X140461904Y-82399238D01*
X140366666Y-82304000D01*
X140271428Y-82256380D01*
X140080952Y-82256380D01*
X139985714Y-82304000D01*
X139890476Y-82399238D01*
X139842857Y-82589714D01*
X139842857Y-82923047D01*
X139890476Y-83113523D01*
X139985714Y-83208761D01*
X140080952Y-83256380D01*
X140271428Y-83256380D01*
X139461904Y-82351619D02*
X139414285Y-82304000D01*
X139319047Y-82256380D01*
X139080952Y-82256380D01*
X138985714Y-82304000D01*
X138938095Y-82351619D01*
X138890476Y-82446857D01*
X138890476Y-82542095D01*
X138938095Y-82684952D01*
X139509523Y-83256380D01*
X138890476Y-83256380D01*
G04 #@! TO.C,12*
D11*
X149437285Y-67675142D02*
X149437285Y-67246571D01*
X149437285Y-67460857D02*
X148687285Y-67460857D01*
X148794428Y-67389428D01*
X148865857Y-67318000D01*
X148901571Y-67246571D01*
X148758714Y-67960857D02*
X148723000Y-67996571D01*
X148687285Y-68068000D01*
X148687285Y-68246571D01*
X148723000Y-68318000D01*
X148758714Y-68353714D01*
X148830142Y-68389428D01*
X148901571Y-68389428D01*
X149008714Y-68353714D01*
X149437285Y-67925142D01*
X149437285Y-68389428D01*
G04 #@! TO.C,3.3*
X151798785Y-67032285D02*
X151798785Y-67496571D01*
X152084500Y-67246571D01*
X152084500Y-67353714D01*
X152120214Y-67425142D01*
X152155928Y-67460857D01*
X152227357Y-67496571D01*
X152405928Y-67496571D01*
X152477357Y-67460857D01*
X152513071Y-67425142D01*
X152548785Y-67353714D01*
X152548785Y-67139428D01*
X152513071Y-67068000D01*
X152477357Y-67032285D01*
X152477357Y-67818000D02*
X152513071Y-67853714D01*
X152548785Y-67818000D01*
X152513071Y-67782285D01*
X152477357Y-67818000D01*
X152548785Y-67818000D01*
X151798785Y-68103714D02*
X151798785Y-68568000D01*
X152084500Y-68318000D01*
X152084500Y-68425142D01*
X152120214Y-68496571D01*
X152155928Y-68532285D01*
X152227357Y-68568000D01*
X152405928Y-68568000D01*
X152477357Y-68532285D01*
X152513071Y-68496571D01*
X152548785Y-68425142D01*
X152548785Y-68210857D01*
X152513071Y-68139428D01*
X152477357Y-68103714D01*
G04 #@! TO.C,R20*
D12*
X169552857Y-74112380D02*
X169886190Y-73636190D01*
X170124285Y-74112380D02*
X170124285Y-73112380D01*
X169743333Y-73112380D01*
X169648095Y-73160000D01*
X169600476Y-73207619D01*
X169552857Y-73302857D01*
X169552857Y-73445714D01*
X169600476Y-73540952D01*
X169648095Y-73588571D01*
X169743333Y-73636190D01*
X170124285Y-73636190D01*
X169171904Y-73207619D02*
X169124285Y-73160000D01*
X169029047Y-73112380D01*
X168790952Y-73112380D01*
X168695714Y-73160000D01*
X168648095Y-73207619D01*
X168600476Y-73302857D01*
X168600476Y-73398095D01*
X168648095Y-73540952D01*
X169219523Y-74112380D01*
X168600476Y-74112380D01*
X167981428Y-73112380D02*
X167886190Y-73112380D01*
X167790952Y-73160000D01*
X167743333Y-73207619D01*
X167695714Y-73302857D01*
X167648095Y-73493333D01*
X167648095Y-73731428D01*
X167695714Y-73921904D01*
X167743333Y-74017142D01*
X167790952Y-74064761D01*
X167886190Y-74112380D01*
X167981428Y-74112380D01*
X168076666Y-74064761D01*
X168124285Y-74017142D01*
X168171904Y-73921904D01*
X168219523Y-73731428D01*
X168219523Y-73493333D01*
X168171904Y-73302857D01*
X168124285Y-73207619D01*
X168076666Y-73160000D01*
X167981428Y-73112380D01*
G04 #@! TO.C,R9*
X124531380Y-84557254D02*
X124055190Y-84223921D01*
X124531380Y-83985825D02*
X123531380Y-83985825D01*
X123531380Y-84366778D01*
X123579000Y-84462016D01*
X123626619Y-84509635D01*
X123721857Y-84557254D01*
X123864714Y-84557254D01*
X123959952Y-84509635D01*
X124007571Y-84462016D01*
X124055190Y-84366778D01*
X124055190Y-83985825D01*
X124531380Y-85033444D02*
X124531380Y-85223921D01*
X124483761Y-85319159D01*
X124436142Y-85366778D01*
X124293285Y-85462016D01*
X124102809Y-85509635D01*
X123721857Y-85509635D01*
X123626619Y-85462016D01*
X123579000Y-85414397D01*
X123531380Y-85319159D01*
X123531380Y-85128682D01*
X123579000Y-85033444D01*
X123626619Y-84985825D01*
X123721857Y-84938206D01*
X123959952Y-84938206D01*
X124055190Y-84985825D01*
X124102809Y-85033444D01*
X124150428Y-85128682D01*
X124150428Y-85319159D01*
X124102809Y-85414397D01*
X124055190Y-85462016D01*
X123959952Y-85509635D01*
G04 #@! TO.C,D4*
D10*
X130774923Y-68566695D02*
X130774923Y-67753895D01*
X130581400Y-67753895D01*
X130465285Y-67792600D01*
X130387876Y-67870009D01*
X130349171Y-67947419D01*
X130310466Y-68102238D01*
X130310466Y-68218352D01*
X130349171Y-68373171D01*
X130387876Y-68450580D01*
X130465285Y-68527990D01*
X130581400Y-68566695D01*
X130774923Y-68566695D01*
X129613780Y-68024828D02*
X129613780Y-68566695D01*
X129807304Y-67715190D02*
X130000828Y-68295761D01*
X129497666Y-68295761D01*
G04 #@! TO.C,D5*
X139283923Y-68566695D02*
X139283923Y-67753895D01*
X139090400Y-67753895D01*
X138974285Y-67792600D01*
X138896876Y-67870009D01*
X138858171Y-67947419D01*
X138819466Y-68102238D01*
X138819466Y-68218352D01*
X138858171Y-68373171D01*
X138896876Y-68450580D01*
X138974285Y-68527990D01*
X139090400Y-68566695D01*
X139283923Y-68566695D01*
X138084076Y-67753895D02*
X138471123Y-67753895D01*
X138509828Y-68140942D01*
X138471123Y-68102238D01*
X138393714Y-68063533D01*
X138200190Y-68063533D01*
X138122780Y-68102238D01*
X138084076Y-68140942D01*
X138045371Y-68218352D01*
X138045371Y-68411876D01*
X138084076Y-68489285D01*
X138122780Y-68527990D01*
X138200190Y-68566695D01*
X138393714Y-68566695D01*
X138471123Y-68527990D01*
X138509828Y-68489285D01*
G04 #@! TO.C,D6*
X132552923Y-64933195D02*
X132552923Y-64120395D01*
X132359400Y-64120395D01*
X132243285Y-64159100D01*
X132165876Y-64236509D01*
X132127171Y-64313919D01*
X132088466Y-64468738D01*
X132088466Y-64584852D01*
X132127171Y-64739671D01*
X132165876Y-64817080D01*
X132243285Y-64894490D01*
X132359400Y-64933195D01*
X132552923Y-64933195D01*
X131391780Y-64120395D02*
X131546600Y-64120395D01*
X131624009Y-64159100D01*
X131662714Y-64197804D01*
X131740123Y-64313919D01*
X131778828Y-64468738D01*
X131778828Y-64778376D01*
X131740123Y-64855785D01*
X131701419Y-64894490D01*
X131624009Y-64933195D01*
X131469190Y-64933195D01*
X131391780Y-64894490D01*
X131353076Y-64855785D01*
X131314371Y-64778376D01*
X131314371Y-64584852D01*
X131353076Y-64507442D01*
X131391780Y-64468738D01*
X131469190Y-64430033D01*
X131624009Y-64430033D01*
X131701419Y-64468738D01*
X131740123Y-64507442D01*
X131778828Y-64584852D01*
G04 #@! TO.C,D7*
X137505923Y-64947195D02*
X137505923Y-64134395D01*
X137312400Y-64134395D01*
X137196285Y-64173100D01*
X137118876Y-64250509D01*
X137080171Y-64327919D01*
X137041466Y-64482738D01*
X137041466Y-64598852D01*
X137080171Y-64753671D01*
X137118876Y-64831080D01*
X137196285Y-64908490D01*
X137312400Y-64947195D01*
X137505923Y-64947195D01*
X136770533Y-64134395D02*
X136228666Y-64134395D01*
X136577009Y-64947195D01*
G04 #@! TO.C,D8*
D12*
X139508666Y-69206333D02*
X138808666Y-69206333D01*
X138808666Y-69373000D01*
X138842000Y-69473000D01*
X138908666Y-69539666D01*
X138975333Y-69573000D01*
X139108666Y-69606333D01*
X139208666Y-69606333D01*
X139342000Y-69573000D01*
X139408666Y-69539666D01*
X139475333Y-69473000D01*
X139508666Y-69373000D01*
X139508666Y-69206333D01*
X139108666Y-70006333D02*
X139075333Y-69939666D01*
X139042000Y-69906333D01*
X138975333Y-69873000D01*
X138942000Y-69873000D01*
X138875333Y-69906333D01*
X138842000Y-69939666D01*
X138808666Y-70006333D01*
X138808666Y-70139666D01*
X138842000Y-70206333D01*
X138875333Y-70239666D01*
X138942000Y-70273000D01*
X138975333Y-70273000D01*
X139042000Y-70239666D01*
X139075333Y-70206333D01*
X139108666Y-70139666D01*
X139108666Y-70006333D01*
X139142000Y-69939666D01*
X139175333Y-69906333D01*
X139242000Y-69873000D01*
X139375333Y-69873000D01*
X139442000Y-69906333D01*
X139475333Y-69939666D01*
X139508666Y-70006333D01*
X139508666Y-70139666D01*
X139475333Y-70206333D01*
X139442000Y-70239666D01*
X139375333Y-70273000D01*
X139242000Y-70273000D01*
X139175333Y-70239666D01*
X139142000Y-70206333D01*
X139108666Y-70139666D01*
G04 #@! TO.C,D9*
X149668666Y-69206333D02*
X148968666Y-69206333D01*
X148968666Y-69373000D01*
X149002000Y-69473000D01*
X149068666Y-69539666D01*
X149135333Y-69573000D01*
X149268666Y-69606333D01*
X149368666Y-69606333D01*
X149502000Y-69573000D01*
X149568666Y-69539666D01*
X149635333Y-69473000D01*
X149668666Y-69373000D01*
X149668666Y-69206333D01*
X149668666Y-69939666D02*
X149668666Y-70073000D01*
X149635333Y-70139666D01*
X149602000Y-70173000D01*
X149502000Y-70239666D01*
X149368666Y-70273000D01*
X149102000Y-70273000D01*
X149035333Y-70239666D01*
X149002000Y-70206333D01*
X148968666Y-70139666D01*
X148968666Y-70006333D01*
X149002000Y-69939666D01*
X149035333Y-69906333D01*
X149102000Y-69873000D01*
X149268666Y-69873000D01*
X149335333Y-69906333D01*
X149368666Y-69939666D01*
X149402000Y-70006333D01*
X149402000Y-70139666D01*
X149368666Y-70206333D01*
X149335333Y-70239666D01*
X149268666Y-70273000D01*
G04 #@! TO.C,12*
D11*
X144357285Y-67675142D02*
X144357285Y-67246571D01*
X144357285Y-67460857D02*
X143607285Y-67460857D01*
X143714428Y-67389428D01*
X143785857Y-67318000D01*
X143821571Y-67246571D01*
X143678714Y-67960857D02*
X143643000Y-67996571D01*
X143607285Y-68068000D01*
X143607285Y-68246571D01*
X143643000Y-68318000D01*
X143678714Y-68353714D01*
X143750142Y-68389428D01*
X143821571Y-68389428D01*
X143928714Y-68353714D01*
X144357285Y-67925142D01*
X144357285Y-68389428D01*
G04 #@! TO.C,3.3*
X146718785Y-67032285D02*
X146718785Y-67496571D01*
X147004500Y-67246571D01*
X147004500Y-67353714D01*
X147040214Y-67425142D01*
X147075928Y-67460857D01*
X147147357Y-67496571D01*
X147325928Y-67496571D01*
X147397357Y-67460857D01*
X147433071Y-67425142D01*
X147468785Y-67353714D01*
X147468785Y-67139428D01*
X147433071Y-67068000D01*
X147397357Y-67032285D01*
X147397357Y-67818000D02*
X147433071Y-67853714D01*
X147468785Y-67818000D01*
X147433071Y-67782285D01*
X147397357Y-67818000D01*
X147468785Y-67818000D01*
X146718785Y-68103714D02*
X146718785Y-68568000D01*
X147004500Y-68318000D01*
X147004500Y-68425142D01*
X147040214Y-68496571D01*
X147075928Y-68532285D01*
X147147357Y-68568000D01*
X147325928Y-68568000D01*
X147397357Y-68532285D01*
X147433071Y-68496571D01*
X147468785Y-68425142D01*
X147468785Y-68210857D01*
X147433071Y-68139428D01*
X147397357Y-68103714D01*
G04 #@! TO.C,C18*
D12*
X159471471Y-87876142D02*
X159519090Y-87828523D01*
X159566709Y-87685666D01*
X159566709Y-87590428D01*
X159519090Y-87447571D01*
X159423852Y-87352333D01*
X159328614Y-87304714D01*
X159138138Y-87257095D01*
X158995281Y-87257095D01*
X158804805Y-87304714D01*
X158709567Y-87352333D01*
X158614329Y-87447571D01*
X158566709Y-87590428D01*
X158566709Y-87685666D01*
X158614329Y-87828523D01*
X158661948Y-87876142D01*
X159566709Y-88828523D02*
X159566709Y-88257095D01*
X159566709Y-88542809D02*
X158566709Y-88542809D01*
X158709567Y-88447571D01*
X158804805Y-88352333D01*
X158852424Y-88257095D01*
X158995281Y-89399952D02*
X158947662Y-89304714D01*
X158900043Y-89257095D01*
X158804805Y-89209476D01*
X158757186Y-89209476D01*
X158661948Y-89257095D01*
X158614329Y-89304714D01*
X158566709Y-89399952D01*
X158566709Y-89590428D01*
X158614329Y-89685666D01*
X158661948Y-89733285D01*
X158757186Y-89780904D01*
X158804805Y-89780904D01*
X158900043Y-89733285D01*
X158947662Y-89685666D01*
X158995281Y-89590428D01*
X158995281Y-89399952D01*
X159042900Y-89304714D01*
X159090519Y-89257095D01*
X159185757Y-89209476D01*
X159376233Y-89209476D01*
X159471471Y-89257095D01*
X159519090Y-89304714D01*
X159566709Y-89399952D01*
X159566709Y-89590428D01*
X159519090Y-89685666D01*
X159471471Y-89733285D01*
X159376233Y-89780904D01*
X159185757Y-89780904D01*
X159090519Y-89733285D01*
X159042900Y-89685666D01*
X158995281Y-89590428D01*
G04 #@! TO.C,C19*
X161020873Y-87876142D02*
X161068492Y-87828523D01*
X161116111Y-87685666D01*
X161116111Y-87590428D01*
X161068492Y-87447571D01*
X160973254Y-87352333D01*
X160878016Y-87304714D01*
X160687540Y-87257095D01*
X160544683Y-87257095D01*
X160354207Y-87304714D01*
X160258969Y-87352333D01*
X160163731Y-87447571D01*
X160116111Y-87590428D01*
X160116111Y-87685666D01*
X160163731Y-87828523D01*
X160211350Y-87876142D01*
X161116111Y-88828523D02*
X161116111Y-88257095D01*
X161116111Y-88542809D02*
X160116111Y-88542809D01*
X160258969Y-88447571D01*
X160354207Y-88352333D01*
X160401826Y-88257095D01*
X161116111Y-89304714D02*
X161116111Y-89495190D01*
X161068492Y-89590428D01*
X161020873Y-89638047D01*
X160878016Y-89733285D01*
X160687540Y-89780904D01*
X160306588Y-89780904D01*
X160211350Y-89733285D01*
X160163731Y-89685666D01*
X160116111Y-89590428D01*
X160116111Y-89399952D01*
X160163731Y-89304714D01*
X160211350Y-89257095D01*
X160306588Y-89209476D01*
X160544683Y-89209476D01*
X160639921Y-89257095D01*
X160687540Y-89304714D01*
X160735159Y-89399952D01*
X160735159Y-89590428D01*
X160687540Y-89685666D01*
X160639921Y-89733285D01*
X160544683Y-89780904D01*
G04 #@! TO.C,U1*
X157987904Y-82510380D02*
X157987904Y-83319904D01*
X157940285Y-83415142D01*
X157892666Y-83462761D01*
X157797428Y-83510380D01*
X157606952Y-83510380D01*
X157511714Y-83462761D01*
X157464095Y-83415142D01*
X157416476Y-83319904D01*
X157416476Y-82510380D01*
X156416476Y-83510380D02*
X156987904Y-83510380D01*
X156702190Y-83510380D02*
X156702190Y-82510380D01*
X156797428Y-82653238D01*
X156892666Y-82748476D01*
X156987904Y-82796095D01*
G04 #@! TO.C,D12*
X144588666Y-68873000D02*
X143888666Y-68873000D01*
X143888666Y-69039666D01*
X143922000Y-69139666D01*
X143988666Y-69206333D01*
X144055333Y-69239666D01*
X144188666Y-69273000D01*
X144288666Y-69273000D01*
X144422000Y-69239666D01*
X144488666Y-69206333D01*
X144555333Y-69139666D01*
X144588666Y-69039666D01*
X144588666Y-68873000D01*
X144588666Y-69939666D02*
X144588666Y-69539666D01*
X144588666Y-69739666D02*
X143888666Y-69739666D01*
X143988666Y-69673000D01*
X144055333Y-69606333D01*
X144088666Y-69539666D01*
X143955333Y-70206333D02*
X143922000Y-70239666D01*
X143888666Y-70306333D01*
X143888666Y-70473000D01*
X143922000Y-70539666D01*
X143955333Y-70573000D01*
X144022000Y-70606333D01*
X144088666Y-70606333D01*
X144188666Y-70573000D01*
X144588666Y-70173000D01*
X144588666Y-70606333D01*
G04 #@! TO.C,D13*
D10*
X158228695Y-65561028D02*
X157415895Y-65561028D01*
X157415895Y-65754552D01*
X157454600Y-65870666D01*
X157532009Y-65948076D01*
X157609419Y-65986780D01*
X157764238Y-66025485D01*
X157880352Y-66025485D01*
X158035171Y-65986780D01*
X158112580Y-65948076D01*
X158189990Y-65870666D01*
X158228695Y-65754552D01*
X158228695Y-65561028D01*
X158228695Y-66799580D02*
X158228695Y-66335123D01*
X158228695Y-66567352D02*
X157415895Y-66567352D01*
X157532009Y-66489942D01*
X157609419Y-66412533D01*
X157648123Y-66335123D01*
X157415895Y-67070514D02*
X157415895Y-67573676D01*
X157725533Y-67302742D01*
X157725533Y-67418857D01*
X157764238Y-67496266D01*
X157802942Y-67534971D01*
X157880352Y-67573676D01*
X158073876Y-67573676D01*
X158151285Y-67534971D01*
X158189990Y-67496266D01*
X158228695Y-67418857D01*
X158228695Y-67186628D01*
X158189990Y-67109219D01*
X158151285Y-67070514D01*
G04 #@! TO.C,D14*
X163308695Y-65561028D02*
X162495895Y-65561028D01*
X162495895Y-65754552D01*
X162534600Y-65870666D01*
X162612009Y-65948076D01*
X162689419Y-65986780D01*
X162844238Y-66025485D01*
X162960352Y-66025485D01*
X163115171Y-65986780D01*
X163192580Y-65948076D01*
X163269990Y-65870666D01*
X163308695Y-65754552D01*
X163308695Y-65561028D01*
X163308695Y-66799580D02*
X163308695Y-66335123D01*
X163308695Y-66567352D02*
X162495895Y-66567352D01*
X162612009Y-66489942D01*
X162689419Y-66412533D01*
X162728123Y-66335123D01*
X162766828Y-67496266D02*
X163308695Y-67496266D01*
X162457190Y-67302742D02*
X163037761Y-67109219D01*
X163037761Y-67612380D01*
G04 #@! TO.C,D15*
X165848695Y-65561028D02*
X165035895Y-65561028D01*
X165035895Y-65754552D01*
X165074600Y-65870666D01*
X165152009Y-65948076D01*
X165229419Y-65986780D01*
X165384238Y-66025485D01*
X165500352Y-66025485D01*
X165655171Y-65986780D01*
X165732580Y-65948076D01*
X165809990Y-65870666D01*
X165848695Y-65754552D01*
X165848695Y-65561028D01*
X165848695Y-66799580D02*
X165848695Y-66335123D01*
X165848695Y-66567352D02*
X165035895Y-66567352D01*
X165152009Y-66489942D01*
X165229419Y-66412533D01*
X165268123Y-66335123D01*
X165035895Y-67534971D02*
X165035895Y-67147923D01*
X165422942Y-67109219D01*
X165384238Y-67147923D01*
X165345533Y-67225333D01*
X165345533Y-67418857D01*
X165384238Y-67496266D01*
X165422942Y-67534971D01*
X165500352Y-67573676D01*
X165693876Y-67573676D01*
X165771285Y-67534971D01*
X165809990Y-67496266D01*
X165848695Y-67418857D01*
X165848695Y-67225333D01*
X165809990Y-67147923D01*
X165771285Y-67109219D01*
G04 #@! TD*
M02*
