G04 #@! TF.GenerationSoftware,KiCad,Pcbnew,5.0.2+dfsg1-1*
G04 #@! TF.CreationDate,2021-06-07T16:20:21-04:00*
G04 #@! TF.ProjectId,KyberBoard,4b796265-7242-46f6-9172-642e6b696361,rev?*
G04 #@! TF.SameCoordinates,Original*
G04 #@! TF.FileFunction,Copper,L3,Inr*
G04 #@! TF.FilePolarity,Positive*
%FSLAX46Y46*%
G04 Gerber Fmt 4.6, Leading zero omitted, Abs format (unit mm)*
G04 Created by KiCad (PCBNEW 5.0.2+dfsg1-1) date Mon 07 Jun 2021 04:20:21 PM EDT*
%MOMM*%
%LPD*%
G01*
G04 APERTURE LIST*
G04 #@! TA.AperFunction,ViaPad*
%ADD10C,0.600000*%
G04 #@! TD*
G04 #@! TA.AperFunction,ViaPad*
%ADD11R,2.200000X2.200000*%
G04 #@! TD*
G04 #@! TA.AperFunction,ViaPad*
%ADD12C,2.200000*%
G04 #@! TD*
G04 #@! TA.AperFunction,ViaPad*
%ADD13C,0.800000*%
G04 #@! TD*
G04 #@! TA.AperFunction,ViaPad*
%ADD14C,6.400000*%
G04 #@! TD*
G04 #@! TA.AperFunction,ViaPad*
%ADD15R,2.100000X2.100000*%
G04 #@! TD*
G04 #@! TA.AperFunction,ViaPad*
%ADD16C,2.100000*%
G04 #@! TD*
G04 #@! TA.AperFunction,ViaPad*
%ADD17C,0.508000*%
G04 #@! TD*
G04 #@! TA.AperFunction,Conductor*
%ADD18C,0.254000*%
G04 #@! TD*
G04 APERTURE END LIST*
D10*
G04 #@! TO.N,/hbridge/VCC*
G04 #@! TO.C,U2*
X132866000Y-83336000D03*
X134366000Y-83336000D03*
X135866000Y-83336000D03*
X132866000Y-84336000D03*
X134366000Y-84336000D03*
X135866000Y-84336000D03*
X132866000Y-85336000D03*
X134366000Y-85336000D03*
X135866000Y-85336000D03*
X132866000Y-86336000D03*
X134366000Y-86336000D03*
X135866000Y-86336000D03*
G04 #@! TD*
D11*
G04 #@! TO.N,+12V*
G04 #@! TO.C,*
X140081000Y-71755000D03*
D12*
G04 #@! TO.N,/SOL-*
X142621000Y-71755000D03*
G04 #@! TO.N,/LED+*
X145161000Y-71755000D03*
G04 #@! TO.N,/LED-*
X147701000Y-71755000D03*
G04 #@! TO.N,/SPKR+*
X150241000Y-71755000D03*
G04 #@! TO.N,/SPKR-*
X152781000Y-71755000D03*
G04 #@! TO.N,+3V3*
X155321000Y-71755000D03*
G04 #@! TO.N,/BTN*
X157861000Y-71755000D03*
G04 #@! TO.N,+3V3*
X160401000Y-71755000D03*
G04 #@! TO.N,/ENC_A*
X162941000Y-71755000D03*
G04 #@! TO.N,/ENC_B*
X165481000Y-71755000D03*
G04 #@! TO.N,GND*
X168021000Y-71755000D03*
G04 #@! TD*
D13*
G04 #@! TO.N,GND*
G04 #@! TO.C,*
X121839056Y-65358944D03*
X120142000Y-64656000D03*
X118444944Y-65358944D03*
X117742000Y-67056000D03*
X118444944Y-68753056D03*
X120142000Y-69456000D03*
X121839056Y-68753056D03*
X122542000Y-67056000D03*
D14*
X120142000Y-67056000D03*
G04 #@! TD*
G04 #@! TO.N,GND*
G04 #@! TO.C,*
X173228000Y-67056000D03*
D13*
X175628000Y-67056000D03*
X174925056Y-68753056D03*
X173228000Y-69456000D03*
X171530944Y-68753056D03*
X170828000Y-67056000D03*
X171530944Y-65358944D03*
X173228000Y-64656000D03*
X174925056Y-65358944D03*
G04 #@! TD*
D14*
G04 #@! TO.N,GND*
G04 #@! TO.C,*
X173228000Y-86614000D03*
D13*
X175628000Y-86614000D03*
X174925056Y-88311056D03*
X173228000Y-89014000D03*
X171530944Y-88311056D03*
X170828000Y-86614000D03*
X171530944Y-84916944D03*
X173228000Y-84214000D03*
X174925056Y-84916944D03*
G04 #@! TD*
D15*
G04 #@! TO.N,GND*
G04 #@! TO.C,*
X128651000Y-71755000D03*
D16*
G04 #@! TO.N,/BATT+*
X126111000Y-71755000D03*
G04 #@! TD*
G04 #@! TO.N,/MOT+*
G04 #@! TO.C,*
X133096000Y-71755000D03*
D15*
G04 #@! TO.N,/MOT-*
X135636000Y-71755000D03*
G04 #@! TD*
D17*
G04 #@! TO.N,GND*
X136271000Y-80470000D03*
X135636000Y-80470000D03*
X135001000Y-80470000D03*
X134366000Y-80470000D03*
X140792200Y-85600800D03*
X140792200Y-87124800D03*
X131336759Y-89891800D03*
X120269000Y-85296000D03*
X120269000Y-87836000D03*
X123571000Y-87836000D03*
X143637000Y-84074000D03*
X134620000Y-89398100D03*
X145796000Y-76200000D03*
X140716000Y-76200000D03*
X150876000Y-76200000D03*
X154940000Y-76200000D03*
X161925000Y-80010000D03*
X164592000Y-81026000D03*
X143764000Y-86207600D03*
X127000000Y-86868000D03*
X123571000Y-85979000D03*
X152273000Y-84074000D03*
X160655000Y-87630000D03*
X159004000Y-67564000D03*
X164084000Y-67564000D03*
X166624000Y-67564000D03*
X139319000Y-73660000D03*
X132080000Y-65405000D03*
X136652000Y-65532000D03*
X169926000Y-83566000D03*
X166624000Y-87376000D03*
X171450000Y-75438000D03*
X175212200Y-78994000D03*
G04 #@! TO.N,+3V3*
X154686000Y-78994000D03*
X151384000Y-78994000D03*
X154686000Y-82804000D03*
X151384000Y-82804000D03*
X151384000Y-80772000D03*
X154686000Y-80772000D03*
X158038800Y-84480400D03*
X154940000Y-73914000D03*
X126492000Y-89408000D03*
X127704954Y-85655046D03*
X148336000Y-80137000D03*
X160655000Y-76200000D03*
X147955000Y-68072000D03*
X151638000Y-66611500D03*
X164084000Y-87376000D03*
X175006000Y-75438000D03*
G04 #@! TO.N,+12C*
X148209000Y-78168500D03*
G04 #@! TO.N,/micro/SWCLK*
X164465000Y-76200000D03*
G04 #@! TO.N,/micro/SWDIO*
X164465000Y-78740000D03*
G04 #@! TO.N,+12V*
X141605000Y-79756000D03*
X141605000Y-77470000D03*
X139700000Y-77470000D03*
X140652500Y-77470000D03*
X142748000Y-68072000D03*
X141732000Y-66802000D03*
G04 #@! TO.N,/hbridge/PWM_MTR*
X140716000Y-88471000D03*
G04 #@! TO.N,/hbridge/INA*
X130937000Y-88090000D03*
G04 #@! TO.N,/hbridge/INB*
X142211799Y-87658201D03*
G04 #@! TO.N,/hbridge/imtr*
X152146000Y-89281000D03*
G04 #@! TO.N,/micro/LED_HBEAT*
X159385000Y-78740000D03*
G04 #@! TO.N,Net-(C8-Pad1)*
X140774859Y-86311791D03*
G04 #@! TO.N,Net-(Q4-Pad2)*
X135001000Y-78184000D03*
X137795000Y-86566000D03*
G04 #@! TO.N,Net-(Q4-Pad4)*
X129025948Y-75791633D03*
G04 #@! TO.N,Net-(R12-Pad1)*
X126997224Y-87585483D03*
G04 #@! TO.N,Net-(R13-Pad1)*
X137795000Y-87328000D03*
G04 #@! TO.N,/hbridge/VCC*
X123698000Y-75819000D03*
X123698000Y-74549000D03*
X123698000Y-77089000D03*
X120015000Y-78740000D03*
X118745000Y-78740000D03*
X120015000Y-80010000D03*
X118745000Y-80010000D03*
X118745000Y-81280000D03*
X120015000Y-81280000D03*
X136652000Y-66548000D03*
X132080000Y-66548000D03*
G04 #@! TO.N,/micro/NRST*
X163322000Y-84455000D03*
G04 #@! TO.N,Net-(Q2-Pad4)*
X142240000Y-76835000D03*
G04 #@! TD*
D18*
G04 #@! TO.N,GND*
G36*
X173912214Y-63722785D02*
X174568470Y-63928443D01*
X175169976Y-64261865D01*
X175692151Y-64709423D01*
X176113667Y-65252838D01*
X176417302Y-65869906D01*
X176591918Y-66540268D01*
X176632801Y-67071583D01*
X176632800Y-86593470D01*
X176561215Y-87298214D01*
X176355557Y-87954470D01*
X176022137Y-88555975D01*
X175574577Y-89078151D01*
X175031162Y-89499667D01*
X174414093Y-89803303D01*
X173743732Y-89977918D01*
X173212430Y-90018800D01*
X120162530Y-90018800D01*
X119457786Y-89947215D01*
X118801530Y-89741557D01*
X118200025Y-89408137D01*
X118064287Y-89291795D01*
X125907800Y-89291795D01*
X125907800Y-89524205D01*
X125996739Y-89738923D01*
X126161077Y-89903261D01*
X126375795Y-89992200D01*
X126608205Y-89992200D01*
X126822923Y-89903261D01*
X126987261Y-89738923D01*
X127076200Y-89524205D01*
X127076200Y-89291795D01*
X127023595Y-89164795D01*
X151561800Y-89164795D01*
X151561800Y-89397205D01*
X151650739Y-89611923D01*
X151815077Y-89776261D01*
X152029795Y-89865200D01*
X152262205Y-89865200D01*
X152476923Y-89776261D01*
X152641261Y-89611923D01*
X152730200Y-89397205D01*
X152730200Y-89164795D01*
X152641261Y-88950077D01*
X152476923Y-88785739D01*
X152262205Y-88696800D01*
X152029795Y-88696800D01*
X151815077Y-88785739D01*
X151650739Y-88950077D01*
X151561800Y-89164795D01*
X127023595Y-89164795D01*
X126987261Y-89077077D01*
X126822923Y-88912739D01*
X126608205Y-88823800D01*
X126375795Y-88823800D01*
X126161077Y-88912739D01*
X125996739Y-89077077D01*
X125907800Y-89291795D01*
X118064287Y-89291795D01*
X117677849Y-88960577D01*
X117256333Y-88417162D01*
X116952697Y-87800093D01*
X116866527Y-87469278D01*
X126413024Y-87469278D01*
X126413024Y-87701688D01*
X126501963Y-87916406D01*
X126666301Y-88080744D01*
X126881019Y-88169683D01*
X127113429Y-88169683D01*
X127328147Y-88080744D01*
X127435096Y-87973795D01*
X130352800Y-87973795D01*
X130352800Y-88206205D01*
X130441739Y-88420923D01*
X130606077Y-88585261D01*
X130820795Y-88674200D01*
X131053205Y-88674200D01*
X131267923Y-88585261D01*
X131432261Y-88420923D01*
X131459652Y-88354795D01*
X140131800Y-88354795D01*
X140131800Y-88587205D01*
X140220739Y-88801923D01*
X140385077Y-88966261D01*
X140599795Y-89055200D01*
X140832205Y-89055200D01*
X141046923Y-88966261D01*
X141211261Y-88801923D01*
X141300200Y-88587205D01*
X141300200Y-88354795D01*
X141211261Y-88140077D01*
X141046923Y-87975739D01*
X140832205Y-87886800D01*
X140599795Y-87886800D01*
X140385077Y-87975739D01*
X140220739Y-88140077D01*
X140131800Y-88354795D01*
X131459652Y-88354795D01*
X131521200Y-88206205D01*
X131521200Y-87973795D01*
X131432261Y-87759077D01*
X131267923Y-87594739D01*
X131053205Y-87505800D01*
X130820795Y-87505800D01*
X130606077Y-87594739D01*
X130441739Y-87759077D01*
X130352800Y-87973795D01*
X127435096Y-87973795D01*
X127492485Y-87916406D01*
X127581424Y-87701688D01*
X127581424Y-87469278D01*
X127492485Y-87254560D01*
X127328147Y-87090222D01*
X127113429Y-87001283D01*
X126881019Y-87001283D01*
X126666301Y-87090222D01*
X126501963Y-87254560D01*
X126413024Y-87469278D01*
X116866527Y-87469278D01*
X116778082Y-87129732D01*
X116737200Y-86598430D01*
X116737200Y-85538841D01*
X127120754Y-85538841D01*
X127120754Y-85771251D01*
X127209693Y-85985969D01*
X127374031Y-86150307D01*
X127588749Y-86239246D01*
X127821159Y-86239246D01*
X128035877Y-86150307D01*
X128200215Y-85985969D01*
X128289154Y-85771251D01*
X128289154Y-85538841D01*
X128200215Y-85324123D01*
X128035877Y-85159785D01*
X127821159Y-85070846D01*
X127588749Y-85070846D01*
X127374031Y-85159785D01*
X127209693Y-85324123D01*
X127120754Y-85538841D01*
X116737200Y-85538841D01*
X116737200Y-83210645D01*
X132235800Y-83210645D01*
X132235800Y-83461355D01*
X132331743Y-83692979D01*
X132474764Y-83836000D01*
X132331743Y-83979021D01*
X132235800Y-84210645D01*
X132235800Y-84461355D01*
X132331743Y-84692979D01*
X132474764Y-84836000D01*
X132331743Y-84979021D01*
X132235800Y-85210645D01*
X132235800Y-85461355D01*
X132331743Y-85692979D01*
X132474764Y-85836000D01*
X132331743Y-85979021D01*
X132235800Y-86210645D01*
X132235800Y-86461355D01*
X132331743Y-86692979D01*
X132509021Y-86870257D01*
X132740645Y-86966200D01*
X132991355Y-86966200D01*
X133222979Y-86870257D01*
X133400257Y-86692979D01*
X133496200Y-86461355D01*
X133496200Y-86210645D01*
X133400257Y-85979021D01*
X133257236Y-85836000D01*
X133400257Y-85692979D01*
X133496200Y-85461355D01*
X133496200Y-85210645D01*
X133400257Y-84979021D01*
X133257236Y-84836000D01*
X133400257Y-84692979D01*
X133496200Y-84461355D01*
X133496200Y-84210645D01*
X133400257Y-83979021D01*
X133257236Y-83836000D01*
X133400257Y-83692979D01*
X133496200Y-83461355D01*
X133496200Y-83210645D01*
X133735800Y-83210645D01*
X133735800Y-83461355D01*
X133831743Y-83692979D01*
X133974764Y-83836000D01*
X133831743Y-83979021D01*
X133735800Y-84210645D01*
X133735800Y-84461355D01*
X133831743Y-84692979D01*
X133974764Y-84836000D01*
X133831743Y-84979021D01*
X133735800Y-85210645D01*
X133735800Y-85461355D01*
X133831743Y-85692979D01*
X133974764Y-85836000D01*
X133831743Y-85979021D01*
X133735800Y-86210645D01*
X133735800Y-86461355D01*
X133831743Y-86692979D01*
X134009021Y-86870257D01*
X134240645Y-86966200D01*
X134491355Y-86966200D01*
X134722979Y-86870257D01*
X134900257Y-86692979D01*
X134996200Y-86461355D01*
X134996200Y-86210645D01*
X134900257Y-85979021D01*
X134757236Y-85836000D01*
X134900257Y-85692979D01*
X134996200Y-85461355D01*
X134996200Y-85210645D01*
X134900257Y-84979021D01*
X134757236Y-84836000D01*
X134900257Y-84692979D01*
X134996200Y-84461355D01*
X134996200Y-84210645D01*
X134900257Y-83979021D01*
X134757236Y-83836000D01*
X134900257Y-83692979D01*
X134996200Y-83461355D01*
X134996200Y-83210645D01*
X135235800Y-83210645D01*
X135235800Y-83461355D01*
X135331743Y-83692979D01*
X135474764Y-83836000D01*
X135331743Y-83979021D01*
X135235800Y-84210645D01*
X135235800Y-84461355D01*
X135331743Y-84692979D01*
X135474764Y-84836000D01*
X135331743Y-84979021D01*
X135235800Y-85210645D01*
X135235800Y-85461355D01*
X135331743Y-85692979D01*
X135474764Y-85836000D01*
X135331743Y-85979021D01*
X135235800Y-86210645D01*
X135235800Y-86461355D01*
X135331743Y-86692979D01*
X135509021Y-86870257D01*
X135740645Y-86966200D01*
X135991355Y-86966200D01*
X136222979Y-86870257D01*
X136400257Y-86692979D01*
X136496200Y-86461355D01*
X136496200Y-86449795D01*
X137210800Y-86449795D01*
X137210800Y-86682205D01*
X137299739Y-86896923D01*
X137349816Y-86947000D01*
X137299739Y-86997077D01*
X137210800Y-87211795D01*
X137210800Y-87444205D01*
X137299739Y-87658923D01*
X137464077Y-87823261D01*
X137678795Y-87912200D01*
X137911205Y-87912200D01*
X138125923Y-87823261D01*
X138290261Y-87658923D01*
X138338693Y-87541996D01*
X141627599Y-87541996D01*
X141627599Y-87774406D01*
X141716538Y-87989124D01*
X141880876Y-88153462D01*
X142095594Y-88242401D01*
X142328004Y-88242401D01*
X142542722Y-88153462D01*
X142707060Y-87989124D01*
X142795999Y-87774406D01*
X142795999Y-87541996D01*
X142707060Y-87327278D01*
X142639577Y-87259795D01*
X163499800Y-87259795D01*
X163499800Y-87492205D01*
X163588739Y-87706923D01*
X163753077Y-87871261D01*
X163967795Y-87960200D01*
X164200205Y-87960200D01*
X164414923Y-87871261D01*
X164579261Y-87706923D01*
X164668200Y-87492205D01*
X164668200Y-87259795D01*
X164579261Y-87045077D01*
X164414923Y-86880739D01*
X164200205Y-86791800D01*
X163967795Y-86791800D01*
X163753077Y-86880739D01*
X163588739Y-87045077D01*
X163499800Y-87259795D01*
X142639577Y-87259795D01*
X142542722Y-87162940D01*
X142328004Y-87074001D01*
X142095594Y-87074001D01*
X141880876Y-87162940D01*
X141716538Y-87327278D01*
X141627599Y-87541996D01*
X138338693Y-87541996D01*
X138379200Y-87444205D01*
X138379200Y-87211795D01*
X138290261Y-86997077D01*
X138240184Y-86947000D01*
X138290261Y-86896923D01*
X138379200Y-86682205D01*
X138379200Y-86449795D01*
X138290261Y-86235077D01*
X138250770Y-86195586D01*
X140190659Y-86195586D01*
X140190659Y-86427996D01*
X140279598Y-86642714D01*
X140443936Y-86807052D01*
X140658654Y-86895991D01*
X140891064Y-86895991D01*
X141105782Y-86807052D01*
X141270120Y-86642714D01*
X141359059Y-86427996D01*
X141359059Y-86195586D01*
X141270120Y-85980868D01*
X141105782Y-85816530D01*
X140891064Y-85727591D01*
X140658654Y-85727591D01*
X140443936Y-85816530D01*
X140279598Y-85980868D01*
X140190659Y-86195586D01*
X138250770Y-86195586D01*
X138125923Y-86070739D01*
X137911205Y-85981800D01*
X137678795Y-85981800D01*
X137464077Y-86070739D01*
X137299739Y-86235077D01*
X137210800Y-86449795D01*
X136496200Y-86449795D01*
X136496200Y-86210645D01*
X136400257Y-85979021D01*
X136257236Y-85836000D01*
X136400257Y-85692979D01*
X136496200Y-85461355D01*
X136496200Y-85210645D01*
X136400257Y-84979021D01*
X136257236Y-84836000D01*
X136400257Y-84692979D01*
X136496200Y-84461355D01*
X136496200Y-84364195D01*
X157454600Y-84364195D01*
X157454600Y-84596605D01*
X157543539Y-84811323D01*
X157707877Y-84975661D01*
X157922595Y-85064600D01*
X158155005Y-85064600D01*
X158369723Y-84975661D01*
X158534061Y-84811323D01*
X158623000Y-84596605D01*
X158623000Y-84364195D01*
X158612479Y-84338795D01*
X162737800Y-84338795D01*
X162737800Y-84571205D01*
X162826739Y-84785923D01*
X162991077Y-84950261D01*
X163205795Y-85039200D01*
X163438205Y-85039200D01*
X163652923Y-84950261D01*
X163817261Y-84785923D01*
X163906200Y-84571205D01*
X163906200Y-84338795D01*
X163817261Y-84124077D01*
X163652923Y-83959739D01*
X163438205Y-83870800D01*
X163205795Y-83870800D01*
X162991077Y-83959739D01*
X162826739Y-84124077D01*
X162737800Y-84338795D01*
X158612479Y-84338795D01*
X158534061Y-84149477D01*
X158369723Y-83985139D01*
X158155005Y-83896200D01*
X157922595Y-83896200D01*
X157707877Y-83985139D01*
X157543539Y-84149477D01*
X157454600Y-84364195D01*
X136496200Y-84364195D01*
X136496200Y-84210645D01*
X136400257Y-83979021D01*
X136257236Y-83836000D01*
X136400257Y-83692979D01*
X136496200Y-83461355D01*
X136496200Y-83210645D01*
X136400257Y-82979021D01*
X136222979Y-82801743D01*
X135991355Y-82705800D01*
X135740645Y-82705800D01*
X135509021Y-82801743D01*
X135331743Y-82979021D01*
X135235800Y-83210645D01*
X134996200Y-83210645D01*
X134900257Y-82979021D01*
X134722979Y-82801743D01*
X134491355Y-82705800D01*
X134240645Y-82705800D01*
X134009021Y-82801743D01*
X133831743Y-82979021D01*
X133735800Y-83210645D01*
X133496200Y-83210645D01*
X133400257Y-82979021D01*
X133222979Y-82801743D01*
X132991355Y-82705800D01*
X132740645Y-82705800D01*
X132509021Y-82801743D01*
X132331743Y-82979021D01*
X132235800Y-83210645D01*
X116737200Y-83210645D01*
X116737200Y-82687795D01*
X150799800Y-82687795D01*
X150799800Y-82920205D01*
X150888739Y-83134923D01*
X151053077Y-83299261D01*
X151267795Y-83388200D01*
X151500205Y-83388200D01*
X151714923Y-83299261D01*
X151879261Y-83134923D01*
X151968200Y-82920205D01*
X151968200Y-82687795D01*
X154101800Y-82687795D01*
X154101800Y-82920205D01*
X154190739Y-83134923D01*
X154355077Y-83299261D01*
X154569795Y-83388200D01*
X154802205Y-83388200D01*
X155016923Y-83299261D01*
X155181261Y-83134923D01*
X155270200Y-82920205D01*
X155270200Y-82687795D01*
X155181261Y-82473077D01*
X155016923Y-82308739D01*
X154802205Y-82219800D01*
X154569795Y-82219800D01*
X154355077Y-82308739D01*
X154190739Y-82473077D01*
X154101800Y-82687795D01*
X151968200Y-82687795D01*
X151879261Y-82473077D01*
X151714923Y-82308739D01*
X151500205Y-82219800D01*
X151267795Y-82219800D01*
X151053077Y-82308739D01*
X150888739Y-82473077D01*
X150799800Y-82687795D01*
X116737200Y-82687795D01*
X116737200Y-81163795D01*
X118160800Y-81163795D01*
X118160800Y-81396205D01*
X118249739Y-81610923D01*
X118414077Y-81775261D01*
X118628795Y-81864200D01*
X118861205Y-81864200D01*
X119075923Y-81775261D01*
X119240261Y-81610923D01*
X119329200Y-81396205D01*
X119329200Y-81163795D01*
X119430800Y-81163795D01*
X119430800Y-81396205D01*
X119519739Y-81610923D01*
X119684077Y-81775261D01*
X119898795Y-81864200D01*
X120131205Y-81864200D01*
X120345923Y-81775261D01*
X120510261Y-81610923D01*
X120599200Y-81396205D01*
X120599200Y-81163795D01*
X120510261Y-80949077D01*
X120345923Y-80784739D01*
X120131205Y-80695800D01*
X119898795Y-80695800D01*
X119684077Y-80784739D01*
X119519739Y-80949077D01*
X119430800Y-81163795D01*
X119329200Y-81163795D01*
X119240261Y-80949077D01*
X119075923Y-80784739D01*
X118861205Y-80695800D01*
X118628795Y-80695800D01*
X118414077Y-80784739D01*
X118249739Y-80949077D01*
X118160800Y-81163795D01*
X116737200Y-81163795D01*
X116737200Y-79893795D01*
X118160800Y-79893795D01*
X118160800Y-80126205D01*
X118249739Y-80340923D01*
X118414077Y-80505261D01*
X118628795Y-80594200D01*
X118861205Y-80594200D01*
X119075923Y-80505261D01*
X119240261Y-80340923D01*
X119329200Y-80126205D01*
X119329200Y-79893795D01*
X119430800Y-79893795D01*
X119430800Y-80126205D01*
X119519739Y-80340923D01*
X119684077Y-80505261D01*
X119898795Y-80594200D01*
X120131205Y-80594200D01*
X120345923Y-80505261D01*
X120510261Y-80340923D01*
X120599200Y-80126205D01*
X120599200Y-79893795D01*
X120510261Y-79679077D01*
X120470979Y-79639795D01*
X141020800Y-79639795D01*
X141020800Y-79872205D01*
X141109739Y-80086923D01*
X141274077Y-80251261D01*
X141488795Y-80340200D01*
X141721205Y-80340200D01*
X141935923Y-80251261D01*
X142100261Y-80086923D01*
X142127652Y-80020795D01*
X147751800Y-80020795D01*
X147751800Y-80253205D01*
X147840739Y-80467923D01*
X148005077Y-80632261D01*
X148219795Y-80721200D01*
X148452205Y-80721200D01*
X148610106Y-80655795D01*
X150799800Y-80655795D01*
X150799800Y-80888205D01*
X150888739Y-81102923D01*
X151053077Y-81267261D01*
X151267795Y-81356200D01*
X151500205Y-81356200D01*
X151714923Y-81267261D01*
X151879261Y-81102923D01*
X151968200Y-80888205D01*
X151968200Y-80655795D01*
X154101800Y-80655795D01*
X154101800Y-80888205D01*
X154190739Y-81102923D01*
X154355077Y-81267261D01*
X154569795Y-81356200D01*
X154802205Y-81356200D01*
X155016923Y-81267261D01*
X155181261Y-81102923D01*
X155270200Y-80888205D01*
X155270200Y-80655795D01*
X155181261Y-80441077D01*
X155016923Y-80276739D01*
X154802205Y-80187800D01*
X154569795Y-80187800D01*
X154355077Y-80276739D01*
X154190739Y-80441077D01*
X154101800Y-80655795D01*
X151968200Y-80655795D01*
X151879261Y-80441077D01*
X151714923Y-80276739D01*
X151500205Y-80187800D01*
X151267795Y-80187800D01*
X151053077Y-80276739D01*
X150888739Y-80441077D01*
X150799800Y-80655795D01*
X148610106Y-80655795D01*
X148666923Y-80632261D01*
X148831261Y-80467923D01*
X148920200Y-80253205D01*
X148920200Y-80020795D01*
X148831261Y-79806077D01*
X148666923Y-79641739D01*
X148452205Y-79552800D01*
X148219795Y-79552800D01*
X148005077Y-79641739D01*
X147840739Y-79806077D01*
X147751800Y-80020795D01*
X142127652Y-80020795D01*
X142189200Y-79872205D01*
X142189200Y-79639795D01*
X142100261Y-79425077D01*
X141935923Y-79260739D01*
X141721205Y-79171800D01*
X141488795Y-79171800D01*
X141274077Y-79260739D01*
X141109739Y-79425077D01*
X141020800Y-79639795D01*
X120470979Y-79639795D01*
X120345923Y-79514739D01*
X120131205Y-79425800D01*
X119898795Y-79425800D01*
X119684077Y-79514739D01*
X119519739Y-79679077D01*
X119430800Y-79893795D01*
X119329200Y-79893795D01*
X119240261Y-79679077D01*
X119075923Y-79514739D01*
X118861205Y-79425800D01*
X118628795Y-79425800D01*
X118414077Y-79514739D01*
X118249739Y-79679077D01*
X118160800Y-79893795D01*
X116737200Y-79893795D01*
X116737200Y-78623795D01*
X118160800Y-78623795D01*
X118160800Y-78856205D01*
X118249739Y-79070923D01*
X118414077Y-79235261D01*
X118628795Y-79324200D01*
X118861205Y-79324200D01*
X119075923Y-79235261D01*
X119240261Y-79070923D01*
X119329200Y-78856205D01*
X119329200Y-78623795D01*
X119430800Y-78623795D01*
X119430800Y-78856205D01*
X119519739Y-79070923D01*
X119684077Y-79235261D01*
X119898795Y-79324200D01*
X120131205Y-79324200D01*
X120345923Y-79235261D01*
X120510261Y-79070923D01*
X120590257Y-78877795D01*
X150799800Y-78877795D01*
X150799800Y-79110205D01*
X150888739Y-79324923D01*
X151053077Y-79489261D01*
X151267795Y-79578200D01*
X151500205Y-79578200D01*
X151714923Y-79489261D01*
X151879261Y-79324923D01*
X151968200Y-79110205D01*
X151968200Y-78877795D01*
X154101800Y-78877795D01*
X154101800Y-79110205D01*
X154190739Y-79324923D01*
X154355077Y-79489261D01*
X154569795Y-79578200D01*
X154802205Y-79578200D01*
X155016923Y-79489261D01*
X155181261Y-79324923D01*
X155270200Y-79110205D01*
X155270200Y-78877795D01*
X155181261Y-78663077D01*
X155141979Y-78623795D01*
X158800800Y-78623795D01*
X158800800Y-78856205D01*
X158889739Y-79070923D01*
X159054077Y-79235261D01*
X159268795Y-79324200D01*
X159501205Y-79324200D01*
X159715923Y-79235261D01*
X159880261Y-79070923D01*
X159969200Y-78856205D01*
X159969200Y-78623795D01*
X163880800Y-78623795D01*
X163880800Y-78856205D01*
X163969739Y-79070923D01*
X164134077Y-79235261D01*
X164348795Y-79324200D01*
X164581205Y-79324200D01*
X164795923Y-79235261D01*
X164960261Y-79070923D01*
X165049200Y-78856205D01*
X165049200Y-78623795D01*
X164960261Y-78409077D01*
X164795923Y-78244739D01*
X164581205Y-78155800D01*
X164348795Y-78155800D01*
X164134077Y-78244739D01*
X163969739Y-78409077D01*
X163880800Y-78623795D01*
X159969200Y-78623795D01*
X159880261Y-78409077D01*
X159715923Y-78244739D01*
X159501205Y-78155800D01*
X159268795Y-78155800D01*
X159054077Y-78244739D01*
X158889739Y-78409077D01*
X158800800Y-78623795D01*
X155141979Y-78623795D01*
X155016923Y-78498739D01*
X154802205Y-78409800D01*
X154569795Y-78409800D01*
X154355077Y-78498739D01*
X154190739Y-78663077D01*
X154101800Y-78877795D01*
X151968200Y-78877795D01*
X151879261Y-78663077D01*
X151714923Y-78498739D01*
X151500205Y-78409800D01*
X151267795Y-78409800D01*
X151053077Y-78498739D01*
X150888739Y-78663077D01*
X150799800Y-78877795D01*
X120590257Y-78877795D01*
X120599200Y-78856205D01*
X120599200Y-78623795D01*
X120510261Y-78409077D01*
X120345923Y-78244739D01*
X120131205Y-78155800D01*
X119898795Y-78155800D01*
X119684077Y-78244739D01*
X119519739Y-78409077D01*
X119430800Y-78623795D01*
X119329200Y-78623795D01*
X119240261Y-78409077D01*
X119075923Y-78244739D01*
X118861205Y-78155800D01*
X118628795Y-78155800D01*
X118414077Y-78244739D01*
X118249739Y-78409077D01*
X118160800Y-78623795D01*
X116737200Y-78623795D01*
X116737200Y-78067795D01*
X134416800Y-78067795D01*
X134416800Y-78300205D01*
X134505739Y-78514923D01*
X134670077Y-78679261D01*
X134884795Y-78768200D01*
X135117205Y-78768200D01*
X135331923Y-78679261D01*
X135496261Y-78514923D01*
X135585200Y-78300205D01*
X135585200Y-78067795D01*
X135496261Y-77853077D01*
X135331923Y-77688739D01*
X135117205Y-77599800D01*
X134884795Y-77599800D01*
X134670077Y-77688739D01*
X134505739Y-77853077D01*
X134416800Y-78067795D01*
X116737200Y-78067795D01*
X116737200Y-76972795D01*
X123113800Y-76972795D01*
X123113800Y-77205205D01*
X123202739Y-77419923D01*
X123367077Y-77584261D01*
X123581795Y-77673200D01*
X123814205Y-77673200D01*
X124028923Y-77584261D01*
X124193261Y-77419923D01*
X124220652Y-77353795D01*
X139115800Y-77353795D01*
X139115800Y-77586205D01*
X139204739Y-77800923D01*
X139369077Y-77965261D01*
X139583795Y-78054200D01*
X139816205Y-78054200D01*
X140030923Y-77965261D01*
X140176250Y-77819934D01*
X140321577Y-77965261D01*
X140536295Y-78054200D01*
X140768705Y-78054200D01*
X140983423Y-77965261D01*
X141128750Y-77819934D01*
X141274077Y-77965261D01*
X141488795Y-78054200D01*
X141721205Y-78054200D01*
X141725804Y-78052295D01*
X147624800Y-78052295D01*
X147624800Y-78284705D01*
X147713739Y-78499423D01*
X147878077Y-78663761D01*
X148092795Y-78752700D01*
X148325205Y-78752700D01*
X148539923Y-78663761D01*
X148704261Y-78499423D01*
X148793200Y-78284705D01*
X148793200Y-78052295D01*
X148704261Y-77837577D01*
X148539923Y-77673239D01*
X148325205Y-77584300D01*
X148092795Y-77584300D01*
X147878077Y-77673239D01*
X147713739Y-77837577D01*
X147624800Y-78052295D01*
X141725804Y-78052295D01*
X141935923Y-77965261D01*
X142100261Y-77800923D01*
X142189200Y-77586205D01*
X142189200Y-77419200D01*
X142356205Y-77419200D01*
X142570923Y-77330261D01*
X142735261Y-77165923D01*
X142824200Y-76951205D01*
X142824200Y-76718795D01*
X142735261Y-76504077D01*
X142570923Y-76339739D01*
X142356205Y-76250800D01*
X142123795Y-76250800D01*
X141909077Y-76339739D01*
X141744739Y-76504077D01*
X141655800Y-76718795D01*
X141655800Y-76885800D01*
X141488795Y-76885800D01*
X141274077Y-76974739D01*
X141128750Y-77120066D01*
X140983423Y-76974739D01*
X140768705Y-76885800D01*
X140536295Y-76885800D01*
X140321577Y-76974739D01*
X140176250Y-77120066D01*
X140030923Y-76974739D01*
X139816205Y-76885800D01*
X139583795Y-76885800D01*
X139369077Y-76974739D01*
X139204739Y-77139077D01*
X139115800Y-77353795D01*
X124220652Y-77353795D01*
X124282200Y-77205205D01*
X124282200Y-76972795D01*
X124193261Y-76758077D01*
X124028923Y-76593739D01*
X123814205Y-76504800D01*
X123581795Y-76504800D01*
X123367077Y-76593739D01*
X123202739Y-76758077D01*
X123113800Y-76972795D01*
X116737200Y-76972795D01*
X116737200Y-75702795D01*
X123113800Y-75702795D01*
X123113800Y-75935205D01*
X123202739Y-76149923D01*
X123367077Y-76314261D01*
X123581795Y-76403200D01*
X123814205Y-76403200D01*
X124028923Y-76314261D01*
X124193261Y-76149923D01*
X124282200Y-75935205D01*
X124282200Y-75702795D01*
X124270865Y-75675428D01*
X128441748Y-75675428D01*
X128441748Y-75907838D01*
X128530687Y-76122556D01*
X128695025Y-76286894D01*
X128909743Y-76375833D01*
X129142153Y-76375833D01*
X129356871Y-76286894D01*
X129521209Y-76122556D01*
X129537264Y-76083795D01*
X160070800Y-76083795D01*
X160070800Y-76316205D01*
X160159739Y-76530923D01*
X160324077Y-76695261D01*
X160538795Y-76784200D01*
X160771205Y-76784200D01*
X160985923Y-76695261D01*
X161150261Y-76530923D01*
X161239200Y-76316205D01*
X161239200Y-76083795D01*
X163880800Y-76083795D01*
X163880800Y-76316205D01*
X163969739Y-76530923D01*
X164134077Y-76695261D01*
X164348795Y-76784200D01*
X164581205Y-76784200D01*
X164795923Y-76695261D01*
X164960261Y-76530923D01*
X165049200Y-76316205D01*
X165049200Y-76083795D01*
X164960261Y-75869077D01*
X164795923Y-75704739D01*
X164581205Y-75615800D01*
X164348795Y-75615800D01*
X164134077Y-75704739D01*
X163969739Y-75869077D01*
X163880800Y-76083795D01*
X161239200Y-76083795D01*
X161150261Y-75869077D01*
X160985923Y-75704739D01*
X160771205Y-75615800D01*
X160538795Y-75615800D01*
X160324077Y-75704739D01*
X160159739Y-75869077D01*
X160070800Y-76083795D01*
X129537264Y-76083795D01*
X129610148Y-75907838D01*
X129610148Y-75675428D01*
X129521209Y-75460710D01*
X129382294Y-75321795D01*
X174421800Y-75321795D01*
X174421800Y-75554205D01*
X174510739Y-75768923D01*
X174675077Y-75933261D01*
X174889795Y-76022200D01*
X175122205Y-76022200D01*
X175336923Y-75933261D01*
X175501261Y-75768923D01*
X175590200Y-75554205D01*
X175590200Y-75321795D01*
X175501261Y-75107077D01*
X175336923Y-74942739D01*
X175122205Y-74853800D01*
X174889795Y-74853800D01*
X174675077Y-74942739D01*
X174510739Y-75107077D01*
X174421800Y-75321795D01*
X129382294Y-75321795D01*
X129356871Y-75296372D01*
X129142153Y-75207433D01*
X128909743Y-75207433D01*
X128695025Y-75296372D01*
X128530687Y-75460710D01*
X128441748Y-75675428D01*
X124270865Y-75675428D01*
X124193261Y-75488077D01*
X124028923Y-75323739D01*
X123814205Y-75234800D01*
X123581795Y-75234800D01*
X123367077Y-75323739D01*
X123202739Y-75488077D01*
X123113800Y-75702795D01*
X116737200Y-75702795D01*
X116737200Y-74432795D01*
X123113800Y-74432795D01*
X123113800Y-74665205D01*
X123202739Y-74879923D01*
X123367077Y-75044261D01*
X123581795Y-75133200D01*
X123814205Y-75133200D01*
X124028923Y-75044261D01*
X124193261Y-74879923D01*
X124282200Y-74665205D01*
X124282200Y-74432795D01*
X124193261Y-74218077D01*
X124028923Y-74053739D01*
X123814205Y-73964800D01*
X123581795Y-73964800D01*
X123367077Y-74053739D01*
X123202739Y-74218077D01*
X123113800Y-74432795D01*
X116737200Y-74432795D01*
X116737200Y-73797795D01*
X154355800Y-73797795D01*
X154355800Y-74030205D01*
X154444739Y-74244923D01*
X154609077Y-74409261D01*
X154823795Y-74498200D01*
X155056205Y-74498200D01*
X155270923Y-74409261D01*
X155435261Y-74244923D01*
X155524200Y-74030205D01*
X155524200Y-73797795D01*
X155435261Y-73583077D01*
X155270923Y-73418739D01*
X155056205Y-73329800D01*
X154823795Y-73329800D01*
X154609077Y-73418739D01*
X154444739Y-73583077D01*
X154355800Y-73797795D01*
X116737200Y-73797795D01*
X116737200Y-71480461D01*
X124730800Y-71480461D01*
X124730800Y-72029539D01*
X124940923Y-72536821D01*
X125329179Y-72925077D01*
X125836461Y-73135200D01*
X126385539Y-73135200D01*
X126892821Y-72925077D01*
X127281077Y-72536821D01*
X127491200Y-72029539D01*
X127491200Y-71480461D01*
X131715800Y-71480461D01*
X131715800Y-72029539D01*
X131925923Y-72536821D01*
X132314179Y-72925077D01*
X132821461Y-73135200D01*
X133370539Y-73135200D01*
X133877821Y-72925077D01*
X134249331Y-72553567D01*
X134249331Y-72805000D01*
X134274958Y-72933838D01*
X134347939Y-73043061D01*
X134457162Y-73116042D01*
X134586000Y-73141669D01*
X136686000Y-73141669D01*
X136814838Y-73116042D01*
X136924061Y-73043061D01*
X136997042Y-72933838D01*
X137022669Y-72805000D01*
X137022669Y-70705000D01*
X137012724Y-70655000D01*
X138644331Y-70655000D01*
X138644331Y-72855000D01*
X138669958Y-72983838D01*
X138742939Y-73093061D01*
X138852162Y-73166042D01*
X138981000Y-73191669D01*
X141181000Y-73191669D01*
X141309838Y-73166042D01*
X141419061Y-73093061D01*
X141492042Y-72983838D01*
X141517669Y-72855000D01*
X141517669Y-72674277D01*
X141810857Y-72967465D01*
X142336516Y-73185200D01*
X142905484Y-73185200D01*
X143431143Y-72967465D01*
X143833465Y-72565143D01*
X143891000Y-72426241D01*
X143948535Y-72565143D01*
X144350857Y-72967465D01*
X144876516Y-73185200D01*
X145445484Y-73185200D01*
X145971143Y-72967465D01*
X146373465Y-72565143D01*
X146431000Y-72426241D01*
X146488535Y-72565143D01*
X146890857Y-72967465D01*
X147416516Y-73185200D01*
X147985484Y-73185200D01*
X148511143Y-72967465D01*
X148913465Y-72565143D01*
X148971000Y-72426241D01*
X149028535Y-72565143D01*
X149430857Y-72967465D01*
X149956516Y-73185200D01*
X150525484Y-73185200D01*
X151051143Y-72967465D01*
X151453465Y-72565143D01*
X151511000Y-72426241D01*
X151568535Y-72565143D01*
X151970857Y-72967465D01*
X152496516Y-73185200D01*
X153065484Y-73185200D01*
X153591143Y-72967465D01*
X153993465Y-72565143D01*
X154051000Y-72426241D01*
X154108535Y-72565143D01*
X154510857Y-72967465D01*
X155036516Y-73185200D01*
X155605484Y-73185200D01*
X156131143Y-72967465D01*
X156533465Y-72565143D01*
X156591000Y-72426241D01*
X156648535Y-72565143D01*
X157050857Y-72967465D01*
X157576516Y-73185200D01*
X158145484Y-73185200D01*
X158671143Y-72967465D01*
X159073465Y-72565143D01*
X159131000Y-72426241D01*
X159188535Y-72565143D01*
X159590857Y-72967465D01*
X160116516Y-73185200D01*
X160685484Y-73185200D01*
X161211143Y-72967465D01*
X161613465Y-72565143D01*
X161671000Y-72426241D01*
X161728535Y-72565143D01*
X162130857Y-72967465D01*
X162656516Y-73185200D01*
X163225484Y-73185200D01*
X163751143Y-72967465D01*
X164153465Y-72565143D01*
X164211000Y-72426241D01*
X164268535Y-72565143D01*
X164670857Y-72967465D01*
X165196516Y-73185200D01*
X165765484Y-73185200D01*
X166291143Y-72967465D01*
X166693465Y-72565143D01*
X166911200Y-72039484D01*
X166911200Y-71470516D01*
X166693465Y-70944857D01*
X166291143Y-70542535D01*
X165765484Y-70324800D01*
X165196516Y-70324800D01*
X164670857Y-70542535D01*
X164268535Y-70944857D01*
X164211000Y-71083759D01*
X164153465Y-70944857D01*
X163751143Y-70542535D01*
X163225484Y-70324800D01*
X162656516Y-70324800D01*
X162130857Y-70542535D01*
X161728535Y-70944857D01*
X161671000Y-71083759D01*
X161613465Y-70944857D01*
X161211143Y-70542535D01*
X160685484Y-70324800D01*
X160116516Y-70324800D01*
X159590857Y-70542535D01*
X159188535Y-70944857D01*
X159131000Y-71083759D01*
X159073465Y-70944857D01*
X158671143Y-70542535D01*
X158145484Y-70324800D01*
X157576516Y-70324800D01*
X157050857Y-70542535D01*
X156648535Y-70944857D01*
X156591000Y-71083759D01*
X156533465Y-70944857D01*
X156131143Y-70542535D01*
X155605484Y-70324800D01*
X155036516Y-70324800D01*
X154510857Y-70542535D01*
X154108535Y-70944857D01*
X154051000Y-71083759D01*
X153993465Y-70944857D01*
X153591143Y-70542535D01*
X153065484Y-70324800D01*
X152496516Y-70324800D01*
X151970857Y-70542535D01*
X151568535Y-70944857D01*
X151511000Y-71083759D01*
X151453465Y-70944857D01*
X151051143Y-70542535D01*
X150525484Y-70324800D01*
X149956516Y-70324800D01*
X149430857Y-70542535D01*
X149028535Y-70944857D01*
X148971000Y-71083759D01*
X148913465Y-70944857D01*
X148511143Y-70542535D01*
X147985484Y-70324800D01*
X147416516Y-70324800D01*
X146890857Y-70542535D01*
X146488535Y-70944857D01*
X146431000Y-71083759D01*
X146373465Y-70944857D01*
X145971143Y-70542535D01*
X145445484Y-70324800D01*
X144876516Y-70324800D01*
X144350857Y-70542535D01*
X143948535Y-70944857D01*
X143891000Y-71083759D01*
X143833465Y-70944857D01*
X143431143Y-70542535D01*
X142905484Y-70324800D01*
X142336516Y-70324800D01*
X141810857Y-70542535D01*
X141517669Y-70835723D01*
X141517669Y-70655000D01*
X141492042Y-70526162D01*
X141419061Y-70416939D01*
X141309838Y-70343958D01*
X141181000Y-70318331D01*
X138981000Y-70318331D01*
X138852162Y-70343958D01*
X138742939Y-70416939D01*
X138669958Y-70526162D01*
X138644331Y-70655000D01*
X137012724Y-70655000D01*
X136997042Y-70576162D01*
X136924061Y-70466939D01*
X136814838Y-70393958D01*
X136686000Y-70368331D01*
X134586000Y-70368331D01*
X134457162Y-70393958D01*
X134347939Y-70466939D01*
X134274958Y-70576162D01*
X134249331Y-70705000D01*
X134249331Y-70956433D01*
X133877821Y-70584923D01*
X133370539Y-70374800D01*
X132821461Y-70374800D01*
X132314179Y-70584923D01*
X131925923Y-70973179D01*
X131715800Y-71480461D01*
X127491200Y-71480461D01*
X127281077Y-70973179D01*
X126892821Y-70584923D01*
X126385539Y-70374800D01*
X125836461Y-70374800D01*
X125329179Y-70584923D01*
X124940923Y-70973179D01*
X124730800Y-71480461D01*
X116737200Y-71480461D01*
X116737200Y-67955795D01*
X142163800Y-67955795D01*
X142163800Y-68188205D01*
X142252739Y-68402923D01*
X142417077Y-68567261D01*
X142631795Y-68656200D01*
X142864205Y-68656200D01*
X143078923Y-68567261D01*
X143243261Y-68402923D01*
X143332200Y-68188205D01*
X143332200Y-67955795D01*
X147370800Y-67955795D01*
X147370800Y-68188205D01*
X147459739Y-68402923D01*
X147624077Y-68567261D01*
X147838795Y-68656200D01*
X148071205Y-68656200D01*
X148285923Y-68567261D01*
X148450261Y-68402923D01*
X148539200Y-68188205D01*
X148539200Y-67955795D01*
X148450261Y-67741077D01*
X148285923Y-67576739D01*
X148071205Y-67487800D01*
X147838795Y-67487800D01*
X147624077Y-67576739D01*
X147459739Y-67741077D01*
X147370800Y-67955795D01*
X143332200Y-67955795D01*
X143243261Y-67741077D01*
X143078923Y-67576739D01*
X142864205Y-67487800D01*
X142631795Y-67487800D01*
X142417077Y-67576739D01*
X142252739Y-67741077D01*
X142163800Y-67955795D01*
X116737200Y-67955795D01*
X116737200Y-67076530D01*
X116802689Y-66431795D01*
X131495800Y-66431795D01*
X131495800Y-66664205D01*
X131584739Y-66878923D01*
X131749077Y-67043261D01*
X131963795Y-67132200D01*
X132196205Y-67132200D01*
X132410923Y-67043261D01*
X132575261Y-66878923D01*
X132664200Y-66664205D01*
X132664200Y-66431795D01*
X136067800Y-66431795D01*
X136067800Y-66664205D01*
X136156739Y-66878923D01*
X136321077Y-67043261D01*
X136535795Y-67132200D01*
X136768205Y-67132200D01*
X136982923Y-67043261D01*
X137147261Y-66878923D01*
X137227257Y-66685795D01*
X141147800Y-66685795D01*
X141147800Y-66918205D01*
X141236739Y-67132923D01*
X141401077Y-67297261D01*
X141615795Y-67386200D01*
X141848205Y-67386200D01*
X142062923Y-67297261D01*
X142227261Y-67132923D01*
X142316200Y-66918205D01*
X142316200Y-66685795D01*
X142237293Y-66495295D01*
X151053800Y-66495295D01*
X151053800Y-66727705D01*
X151142739Y-66942423D01*
X151307077Y-67106761D01*
X151521795Y-67195700D01*
X151754205Y-67195700D01*
X151968923Y-67106761D01*
X152133261Y-66942423D01*
X152222200Y-66727705D01*
X152222200Y-66495295D01*
X152133261Y-66280577D01*
X151968923Y-66116239D01*
X151754205Y-66027300D01*
X151521795Y-66027300D01*
X151307077Y-66116239D01*
X151142739Y-66280577D01*
X151053800Y-66495295D01*
X142237293Y-66495295D01*
X142227261Y-66471077D01*
X142062923Y-66306739D01*
X141848205Y-66217800D01*
X141615795Y-66217800D01*
X141401077Y-66306739D01*
X141236739Y-66471077D01*
X141147800Y-66685795D01*
X137227257Y-66685795D01*
X137236200Y-66664205D01*
X137236200Y-66431795D01*
X137147261Y-66217077D01*
X136982923Y-66052739D01*
X136768205Y-65963800D01*
X136535795Y-65963800D01*
X136321077Y-66052739D01*
X136156739Y-66217077D01*
X136067800Y-66431795D01*
X132664200Y-66431795D01*
X132575261Y-66217077D01*
X132410923Y-66052739D01*
X132196205Y-65963800D01*
X131963795Y-65963800D01*
X131749077Y-66052739D01*
X131584739Y-66217077D01*
X131495800Y-66431795D01*
X116802689Y-66431795D01*
X116808785Y-66371786D01*
X117014443Y-65715530D01*
X117347865Y-65114024D01*
X117795423Y-64591849D01*
X118338838Y-64170333D01*
X118955906Y-63866698D01*
X119626268Y-63692082D01*
X120157570Y-63651200D01*
X173207470Y-63651200D01*
X173912214Y-63722785D01*
X173912214Y-63722785D01*
G37*
X173912214Y-63722785D02*
X174568470Y-63928443D01*
X175169976Y-64261865D01*
X175692151Y-64709423D01*
X176113667Y-65252838D01*
X176417302Y-65869906D01*
X176591918Y-66540268D01*
X176632801Y-67071583D01*
X176632800Y-86593470D01*
X176561215Y-87298214D01*
X176355557Y-87954470D01*
X176022137Y-88555975D01*
X175574577Y-89078151D01*
X175031162Y-89499667D01*
X174414093Y-89803303D01*
X173743732Y-89977918D01*
X173212430Y-90018800D01*
X120162530Y-90018800D01*
X119457786Y-89947215D01*
X118801530Y-89741557D01*
X118200025Y-89408137D01*
X118064287Y-89291795D01*
X125907800Y-89291795D01*
X125907800Y-89524205D01*
X125996739Y-89738923D01*
X126161077Y-89903261D01*
X126375795Y-89992200D01*
X126608205Y-89992200D01*
X126822923Y-89903261D01*
X126987261Y-89738923D01*
X127076200Y-89524205D01*
X127076200Y-89291795D01*
X127023595Y-89164795D01*
X151561800Y-89164795D01*
X151561800Y-89397205D01*
X151650739Y-89611923D01*
X151815077Y-89776261D01*
X152029795Y-89865200D01*
X152262205Y-89865200D01*
X152476923Y-89776261D01*
X152641261Y-89611923D01*
X152730200Y-89397205D01*
X152730200Y-89164795D01*
X152641261Y-88950077D01*
X152476923Y-88785739D01*
X152262205Y-88696800D01*
X152029795Y-88696800D01*
X151815077Y-88785739D01*
X151650739Y-88950077D01*
X151561800Y-89164795D01*
X127023595Y-89164795D01*
X126987261Y-89077077D01*
X126822923Y-88912739D01*
X126608205Y-88823800D01*
X126375795Y-88823800D01*
X126161077Y-88912739D01*
X125996739Y-89077077D01*
X125907800Y-89291795D01*
X118064287Y-89291795D01*
X117677849Y-88960577D01*
X117256333Y-88417162D01*
X116952697Y-87800093D01*
X116866527Y-87469278D01*
X126413024Y-87469278D01*
X126413024Y-87701688D01*
X126501963Y-87916406D01*
X126666301Y-88080744D01*
X126881019Y-88169683D01*
X127113429Y-88169683D01*
X127328147Y-88080744D01*
X127435096Y-87973795D01*
X130352800Y-87973795D01*
X130352800Y-88206205D01*
X130441739Y-88420923D01*
X130606077Y-88585261D01*
X130820795Y-88674200D01*
X131053205Y-88674200D01*
X131267923Y-88585261D01*
X131432261Y-88420923D01*
X131459652Y-88354795D01*
X140131800Y-88354795D01*
X140131800Y-88587205D01*
X140220739Y-88801923D01*
X140385077Y-88966261D01*
X140599795Y-89055200D01*
X140832205Y-89055200D01*
X141046923Y-88966261D01*
X141211261Y-88801923D01*
X141300200Y-88587205D01*
X141300200Y-88354795D01*
X141211261Y-88140077D01*
X141046923Y-87975739D01*
X140832205Y-87886800D01*
X140599795Y-87886800D01*
X140385077Y-87975739D01*
X140220739Y-88140077D01*
X140131800Y-88354795D01*
X131459652Y-88354795D01*
X131521200Y-88206205D01*
X131521200Y-87973795D01*
X131432261Y-87759077D01*
X131267923Y-87594739D01*
X131053205Y-87505800D01*
X130820795Y-87505800D01*
X130606077Y-87594739D01*
X130441739Y-87759077D01*
X130352800Y-87973795D01*
X127435096Y-87973795D01*
X127492485Y-87916406D01*
X127581424Y-87701688D01*
X127581424Y-87469278D01*
X127492485Y-87254560D01*
X127328147Y-87090222D01*
X127113429Y-87001283D01*
X126881019Y-87001283D01*
X126666301Y-87090222D01*
X126501963Y-87254560D01*
X126413024Y-87469278D01*
X116866527Y-87469278D01*
X116778082Y-87129732D01*
X116737200Y-86598430D01*
X116737200Y-85538841D01*
X127120754Y-85538841D01*
X127120754Y-85771251D01*
X127209693Y-85985969D01*
X127374031Y-86150307D01*
X127588749Y-86239246D01*
X127821159Y-86239246D01*
X128035877Y-86150307D01*
X128200215Y-85985969D01*
X128289154Y-85771251D01*
X128289154Y-85538841D01*
X128200215Y-85324123D01*
X128035877Y-85159785D01*
X127821159Y-85070846D01*
X127588749Y-85070846D01*
X127374031Y-85159785D01*
X127209693Y-85324123D01*
X127120754Y-85538841D01*
X116737200Y-85538841D01*
X116737200Y-83210645D01*
X132235800Y-83210645D01*
X132235800Y-83461355D01*
X132331743Y-83692979D01*
X132474764Y-83836000D01*
X132331743Y-83979021D01*
X132235800Y-84210645D01*
X132235800Y-84461355D01*
X132331743Y-84692979D01*
X132474764Y-84836000D01*
X132331743Y-84979021D01*
X132235800Y-85210645D01*
X132235800Y-85461355D01*
X132331743Y-85692979D01*
X132474764Y-85836000D01*
X132331743Y-85979021D01*
X132235800Y-86210645D01*
X132235800Y-86461355D01*
X132331743Y-86692979D01*
X132509021Y-86870257D01*
X132740645Y-86966200D01*
X132991355Y-86966200D01*
X133222979Y-86870257D01*
X133400257Y-86692979D01*
X133496200Y-86461355D01*
X133496200Y-86210645D01*
X133400257Y-85979021D01*
X133257236Y-85836000D01*
X133400257Y-85692979D01*
X133496200Y-85461355D01*
X133496200Y-85210645D01*
X133400257Y-84979021D01*
X133257236Y-84836000D01*
X133400257Y-84692979D01*
X133496200Y-84461355D01*
X133496200Y-84210645D01*
X133400257Y-83979021D01*
X133257236Y-83836000D01*
X133400257Y-83692979D01*
X133496200Y-83461355D01*
X133496200Y-83210645D01*
X133735800Y-83210645D01*
X133735800Y-83461355D01*
X133831743Y-83692979D01*
X133974764Y-83836000D01*
X133831743Y-83979021D01*
X133735800Y-84210645D01*
X133735800Y-84461355D01*
X133831743Y-84692979D01*
X133974764Y-84836000D01*
X133831743Y-84979021D01*
X133735800Y-85210645D01*
X133735800Y-85461355D01*
X133831743Y-85692979D01*
X133974764Y-85836000D01*
X133831743Y-85979021D01*
X133735800Y-86210645D01*
X133735800Y-86461355D01*
X133831743Y-86692979D01*
X134009021Y-86870257D01*
X134240645Y-86966200D01*
X134491355Y-86966200D01*
X134722979Y-86870257D01*
X134900257Y-86692979D01*
X134996200Y-86461355D01*
X134996200Y-86210645D01*
X134900257Y-85979021D01*
X134757236Y-85836000D01*
X134900257Y-85692979D01*
X134996200Y-85461355D01*
X134996200Y-85210645D01*
X134900257Y-84979021D01*
X134757236Y-84836000D01*
X134900257Y-84692979D01*
X134996200Y-84461355D01*
X134996200Y-84210645D01*
X134900257Y-83979021D01*
X134757236Y-83836000D01*
X134900257Y-83692979D01*
X134996200Y-83461355D01*
X134996200Y-83210645D01*
X135235800Y-83210645D01*
X135235800Y-83461355D01*
X135331743Y-83692979D01*
X135474764Y-83836000D01*
X135331743Y-83979021D01*
X135235800Y-84210645D01*
X135235800Y-84461355D01*
X135331743Y-84692979D01*
X135474764Y-84836000D01*
X135331743Y-84979021D01*
X135235800Y-85210645D01*
X135235800Y-85461355D01*
X135331743Y-85692979D01*
X135474764Y-85836000D01*
X135331743Y-85979021D01*
X135235800Y-86210645D01*
X135235800Y-86461355D01*
X135331743Y-86692979D01*
X135509021Y-86870257D01*
X135740645Y-86966200D01*
X135991355Y-86966200D01*
X136222979Y-86870257D01*
X136400257Y-86692979D01*
X136496200Y-86461355D01*
X136496200Y-86449795D01*
X137210800Y-86449795D01*
X137210800Y-86682205D01*
X137299739Y-86896923D01*
X137349816Y-86947000D01*
X137299739Y-86997077D01*
X137210800Y-87211795D01*
X137210800Y-87444205D01*
X137299739Y-87658923D01*
X137464077Y-87823261D01*
X137678795Y-87912200D01*
X137911205Y-87912200D01*
X138125923Y-87823261D01*
X138290261Y-87658923D01*
X138338693Y-87541996D01*
X141627599Y-87541996D01*
X141627599Y-87774406D01*
X141716538Y-87989124D01*
X141880876Y-88153462D01*
X142095594Y-88242401D01*
X142328004Y-88242401D01*
X142542722Y-88153462D01*
X142707060Y-87989124D01*
X142795999Y-87774406D01*
X142795999Y-87541996D01*
X142707060Y-87327278D01*
X142639577Y-87259795D01*
X163499800Y-87259795D01*
X163499800Y-87492205D01*
X163588739Y-87706923D01*
X163753077Y-87871261D01*
X163967795Y-87960200D01*
X164200205Y-87960200D01*
X164414923Y-87871261D01*
X164579261Y-87706923D01*
X164668200Y-87492205D01*
X164668200Y-87259795D01*
X164579261Y-87045077D01*
X164414923Y-86880739D01*
X164200205Y-86791800D01*
X163967795Y-86791800D01*
X163753077Y-86880739D01*
X163588739Y-87045077D01*
X163499800Y-87259795D01*
X142639577Y-87259795D01*
X142542722Y-87162940D01*
X142328004Y-87074001D01*
X142095594Y-87074001D01*
X141880876Y-87162940D01*
X141716538Y-87327278D01*
X141627599Y-87541996D01*
X138338693Y-87541996D01*
X138379200Y-87444205D01*
X138379200Y-87211795D01*
X138290261Y-86997077D01*
X138240184Y-86947000D01*
X138290261Y-86896923D01*
X138379200Y-86682205D01*
X138379200Y-86449795D01*
X138290261Y-86235077D01*
X138250770Y-86195586D01*
X140190659Y-86195586D01*
X140190659Y-86427996D01*
X140279598Y-86642714D01*
X140443936Y-86807052D01*
X140658654Y-86895991D01*
X140891064Y-86895991D01*
X141105782Y-86807052D01*
X141270120Y-86642714D01*
X141359059Y-86427996D01*
X141359059Y-86195586D01*
X141270120Y-85980868D01*
X141105782Y-85816530D01*
X140891064Y-85727591D01*
X140658654Y-85727591D01*
X140443936Y-85816530D01*
X140279598Y-85980868D01*
X140190659Y-86195586D01*
X138250770Y-86195586D01*
X138125923Y-86070739D01*
X137911205Y-85981800D01*
X137678795Y-85981800D01*
X137464077Y-86070739D01*
X137299739Y-86235077D01*
X137210800Y-86449795D01*
X136496200Y-86449795D01*
X136496200Y-86210645D01*
X136400257Y-85979021D01*
X136257236Y-85836000D01*
X136400257Y-85692979D01*
X136496200Y-85461355D01*
X136496200Y-85210645D01*
X136400257Y-84979021D01*
X136257236Y-84836000D01*
X136400257Y-84692979D01*
X136496200Y-84461355D01*
X136496200Y-84364195D01*
X157454600Y-84364195D01*
X157454600Y-84596605D01*
X157543539Y-84811323D01*
X157707877Y-84975661D01*
X157922595Y-85064600D01*
X158155005Y-85064600D01*
X158369723Y-84975661D01*
X158534061Y-84811323D01*
X158623000Y-84596605D01*
X158623000Y-84364195D01*
X158612479Y-84338795D01*
X162737800Y-84338795D01*
X162737800Y-84571205D01*
X162826739Y-84785923D01*
X162991077Y-84950261D01*
X163205795Y-85039200D01*
X163438205Y-85039200D01*
X163652923Y-84950261D01*
X163817261Y-84785923D01*
X163906200Y-84571205D01*
X163906200Y-84338795D01*
X163817261Y-84124077D01*
X163652923Y-83959739D01*
X163438205Y-83870800D01*
X163205795Y-83870800D01*
X162991077Y-83959739D01*
X162826739Y-84124077D01*
X162737800Y-84338795D01*
X158612479Y-84338795D01*
X158534061Y-84149477D01*
X158369723Y-83985139D01*
X158155005Y-83896200D01*
X157922595Y-83896200D01*
X157707877Y-83985139D01*
X157543539Y-84149477D01*
X157454600Y-84364195D01*
X136496200Y-84364195D01*
X136496200Y-84210645D01*
X136400257Y-83979021D01*
X136257236Y-83836000D01*
X136400257Y-83692979D01*
X136496200Y-83461355D01*
X136496200Y-83210645D01*
X136400257Y-82979021D01*
X136222979Y-82801743D01*
X135991355Y-82705800D01*
X135740645Y-82705800D01*
X135509021Y-82801743D01*
X135331743Y-82979021D01*
X135235800Y-83210645D01*
X134996200Y-83210645D01*
X134900257Y-82979021D01*
X134722979Y-82801743D01*
X134491355Y-82705800D01*
X134240645Y-82705800D01*
X134009021Y-82801743D01*
X133831743Y-82979021D01*
X133735800Y-83210645D01*
X133496200Y-83210645D01*
X133400257Y-82979021D01*
X133222979Y-82801743D01*
X132991355Y-82705800D01*
X132740645Y-82705800D01*
X132509021Y-82801743D01*
X132331743Y-82979021D01*
X132235800Y-83210645D01*
X116737200Y-83210645D01*
X116737200Y-82687795D01*
X150799800Y-82687795D01*
X150799800Y-82920205D01*
X150888739Y-83134923D01*
X151053077Y-83299261D01*
X151267795Y-83388200D01*
X151500205Y-83388200D01*
X151714923Y-83299261D01*
X151879261Y-83134923D01*
X151968200Y-82920205D01*
X151968200Y-82687795D01*
X154101800Y-82687795D01*
X154101800Y-82920205D01*
X154190739Y-83134923D01*
X154355077Y-83299261D01*
X154569795Y-83388200D01*
X154802205Y-83388200D01*
X155016923Y-83299261D01*
X155181261Y-83134923D01*
X155270200Y-82920205D01*
X155270200Y-82687795D01*
X155181261Y-82473077D01*
X155016923Y-82308739D01*
X154802205Y-82219800D01*
X154569795Y-82219800D01*
X154355077Y-82308739D01*
X154190739Y-82473077D01*
X154101800Y-82687795D01*
X151968200Y-82687795D01*
X151879261Y-82473077D01*
X151714923Y-82308739D01*
X151500205Y-82219800D01*
X151267795Y-82219800D01*
X151053077Y-82308739D01*
X150888739Y-82473077D01*
X150799800Y-82687795D01*
X116737200Y-82687795D01*
X116737200Y-81163795D01*
X118160800Y-81163795D01*
X118160800Y-81396205D01*
X118249739Y-81610923D01*
X118414077Y-81775261D01*
X118628795Y-81864200D01*
X118861205Y-81864200D01*
X119075923Y-81775261D01*
X119240261Y-81610923D01*
X119329200Y-81396205D01*
X119329200Y-81163795D01*
X119430800Y-81163795D01*
X119430800Y-81396205D01*
X119519739Y-81610923D01*
X119684077Y-81775261D01*
X119898795Y-81864200D01*
X120131205Y-81864200D01*
X120345923Y-81775261D01*
X120510261Y-81610923D01*
X120599200Y-81396205D01*
X120599200Y-81163795D01*
X120510261Y-80949077D01*
X120345923Y-80784739D01*
X120131205Y-80695800D01*
X119898795Y-80695800D01*
X119684077Y-80784739D01*
X119519739Y-80949077D01*
X119430800Y-81163795D01*
X119329200Y-81163795D01*
X119240261Y-80949077D01*
X119075923Y-80784739D01*
X118861205Y-80695800D01*
X118628795Y-80695800D01*
X118414077Y-80784739D01*
X118249739Y-80949077D01*
X118160800Y-81163795D01*
X116737200Y-81163795D01*
X116737200Y-79893795D01*
X118160800Y-79893795D01*
X118160800Y-80126205D01*
X118249739Y-80340923D01*
X118414077Y-80505261D01*
X118628795Y-80594200D01*
X118861205Y-80594200D01*
X119075923Y-80505261D01*
X119240261Y-80340923D01*
X119329200Y-80126205D01*
X119329200Y-79893795D01*
X119430800Y-79893795D01*
X119430800Y-80126205D01*
X119519739Y-80340923D01*
X119684077Y-80505261D01*
X119898795Y-80594200D01*
X120131205Y-80594200D01*
X120345923Y-80505261D01*
X120510261Y-80340923D01*
X120599200Y-80126205D01*
X120599200Y-79893795D01*
X120510261Y-79679077D01*
X120470979Y-79639795D01*
X141020800Y-79639795D01*
X141020800Y-79872205D01*
X141109739Y-80086923D01*
X141274077Y-80251261D01*
X141488795Y-80340200D01*
X141721205Y-80340200D01*
X141935923Y-80251261D01*
X142100261Y-80086923D01*
X142127652Y-80020795D01*
X147751800Y-80020795D01*
X147751800Y-80253205D01*
X147840739Y-80467923D01*
X148005077Y-80632261D01*
X148219795Y-80721200D01*
X148452205Y-80721200D01*
X148610106Y-80655795D01*
X150799800Y-80655795D01*
X150799800Y-80888205D01*
X150888739Y-81102923D01*
X151053077Y-81267261D01*
X151267795Y-81356200D01*
X151500205Y-81356200D01*
X151714923Y-81267261D01*
X151879261Y-81102923D01*
X151968200Y-80888205D01*
X151968200Y-80655795D01*
X154101800Y-80655795D01*
X154101800Y-80888205D01*
X154190739Y-81102923D01*
X154355077Y-81267261D01*
X154569795Y-81356200D01*
X154802205Y-81356200D01*
X155016923Y-81267261D01*
X155181261Y-81102923D01*
X155270200Y-80888205D01*
X155270200Y-80655795D01*
X155181261Y-80441077D01*
X155016923Y-80276739D01*
X154802205Y-80187800D01*
X154569795Y-80187800D01*
X154355077Y-80276739D01*
X154190739Y-80441077D01*
X154101800Y-80655795D01*
X151968200Y-80655795D01*
X151879261Y-80441077D01*
X151714923Y-80276739D01*
X151500205Y-80187800D01*
X151267795Y-80187800D01*
X151053077Y-80276739D01*
X150888739Y-80441077D01*
X150799800Y-80655795D01*
X148610106Y-80655795D01*
X148666923Y-80632261D01*
X148831261Y-80467923D01*
X148920200Y-80253205D01*
X148920200Y-80020795D01*
X148831261Y-79806077D01*
X148666923Y-79641739D01*
X148452205Y-79552800D01*
X148219795Y-79552800D01*
X148005077Y-79641739D01*
X147840739Y-79806077D01*
X147751800Y-80020795D01*
X142127652Y-80020795D01*
X142189200Y-79872205D01*
X142189200Y-79639795D01*
X142100261Y-79425077D01*
X141935923Y-79260739D01*
X141721205Y-79171800D01*
X141488795Y-79171800D01*
X141274077Y-79260739D01*
X141109739Y-79425077D01*
X141020800Y-79639795D01*
X120470979Y-79639795D01*
X120345923Y-79514739D01*
X120131205Y-79425800D01*
X119898795Y-79425800D01*
X119684077Y-79514739D01*
X119519739Y-79679077D01*
X119430800Y-79893795D01*
X119329200Y-79893795D01*
X119240261Y-79679077D01*
X119075923Y-79514739D01*
X118861205Y-79425800D01*
X118628795Y-79425800D01*
X118414077Y-79514739D01*
X118249739Y-79679077D01*
X118160800Y-79893795D01*
X116737200Y-79893795D01*
X116737200Y-78623795D01*
X118160800Y-78623795D01*
X118160800Y-78856205D01*
X118249739Y-79070923D01*
X118414077Y-79235261D01*
X118628795Y-79324200D01*
X118861205Y-79324200D01*
X119075923Y-79235261D01*
X119240261Y-79070923D01*
X119329200Y-78856205D01*
X119329200Y-78623795D01*
X119430800Y-78623795D01*
X119430800Y-78856205D01*
X119519739Y-79070923D01*
X119684077Y-79235261D01*
X119898795Y-79324200D01*
X120131205Y-79324200D01*
X120345923Y-79235261D01*
X120510261Y-79070923D01*
X120590257Y-78877795D01*
X150799800Y-78877795D01*
X150799800Y-79110205D01*
X150888739Y-79324923D01*
X151053077Y-79489261D01*
X151267795Y-79578200D01*
X151500205Y-79578200D01*
X151714923Y-79489261D01*
X151879261Y-79324923D01*
X151968200Y-79110205D01*
X151968200Y-78877795D01*
X154101800Y-78877795D01*
X154101800Y-79110205D01*
X154190739Y-79324923D01*
X154355077Y-79489261D01*
X154569795Y-79578200D01*
X154802205Y-79578200D01*
X155016923Y-79489261D01*
X155181261Y-79324923D01*
X155270200Y-79110205D01*
X155270200Y-78877795D01*
X155181261Y-78663077D01*
X155141979Y-78623795D01*
X158800800Y-78623795D01*
X158800800Y-78856205D01*
X158889739Y-79070923D01*
X159054077Y-79235261D01*
X159268795Y-79324200D01*
X159501205Y-79324200D01*
X159715923Y-79235261D01*
X159880261Y-79070923D01*
X159969200Y-78856205D01*
X159969200Y-78623795D01*
X163880800Y-78623795D01*
X163880800Y-78856205D01*
X163969739Y-79070923D01*
X164134077Y-79235261D01*
X164348795Y-79324200D01*
X164581205Y-79324200D01*
X164795923Y-79235261D01*
X164960261Y-79070923D01*
X165049200Y-78856205D01*
X165049200Y-78623795D01*
X164960261Y-78409077D01*
X164795923Y-78244739D01*
X164581205Y-78155800D01*
X164348795Y-78155800D01*
X164134077Y-78244739D01*
X163969739Y-78409077D01*
X163880800Y-78623795D01*
X159969200Y-78623795D01*
X159880261Y-78409077D01*
X159715923Y-78244739D01*
X159501205Y-78155800D01*
X159268795Y-78155800D01*
X159054077Y-78244739D01*
X158889739Y-78409077D01*
X158800800Y-78623795D01*
X155141979Y-78623795D01*
X155016923Y-78498739D01*
X154802205Y-78409800D01*
X154569795Y-78409800D01*
X154355077Y-78498739D01*
X154190739Y-78663077D01*
X154101800Y-78877795D01*
X151968200Y-78877795D01*
X151879261Y-78663077D01*
X151714923Y-78498739D01*
X151500205Y-78409800D01*
X151267795Y-78409800D01*
X151053077Y-78498739D01*
X150888739Y-78663077D01*
X150799800Y-78877795D01*
X120590257Y-78877795D01*
X120599200Y-78856205D01*
X120599200Y-78623795D01*
X120510261Y-78409077D01*
X120345923Y-78244739D01*
X120131205Y-78155800D01*
X119898795Y-78155800D01*
X119684077Y-78244739D01*
X119519739Y-78409077D01*
X119430800Y-78623795D01*
X119329200Y-78623795D01*
X119240261Y-78409077D01*
X119075923Y-78244739D01*
X118861205Y-78155800D01*
X118628795Y-78155800D01*
X118414077Y-78244739D01*
X118249739Y-78409077D01*
X118160800Y-78623795D01*
X116737200Y-78623795D01*
X116737200Y-78067795D01*
X134416800Y-78067795D01*
X134416800Y-78300205D01*
X134505739Y-78514923D01*
X134670077Y-78679261D01*
X134884795Y-78768200D01*
X135117205Y-78768200D01*
X135331923Y-78679261D01*
X135496261Y-78514923D01*
X135585200Y-78300205D01*
X135585200Y-78067795D01*
X135496261Y-77853077D01*
X135331923Y-77688739D01*
X135117205Y-77599800D01*
X134884795Y-77599800D01*
X134670077Y-77688739D01*
X134505739Y-77853077D01*
X134416800Y-78067795D01*
X116737200Y-78067795D01*
X116737200Y-76972795D01*
X123113800Y-76972795D01*
X123113800Y-77205205D01*
X123202739Y-77419923D01*
X123367077Y-77584261D01*
X123581795Y-77673200D01*
X123814205Y-77673200D01*
X124028923Y-77584261D01*
X124193261Y-77419923D01*
X124220652Y-77353795D01*
X139115800Y-77353795D01*
X139115800Y-77586205D01*
X139204739Y-77800923D01*
X139369077Y-77965261D01*
X139583795Y-78054200D01*
X139816205Y-78054200D01*
X140030923Y-77965261D01*
X140176250Y-77819934D01*
X140321577Y-77965261D01*
X140536295Y-78054200D01*
X140768705Y-78054200D01*
X140983423Y-77965261D01*
X141128750Y-77819934D01*
X141274077Y-77965261D01*
X141488795Y-78054200D01*
X141721205Y-78054200D01*
X141725804Y-78052295D01*
X147624800Y-78052295D01*
X147624800Y-78284705D01*
X147713739Y-78499423D01*
X147878077Y-78663761D01*
X148092795Y-78752700D01*
X148325205Y-78752700D01*
X148539923Y-78663761D01*
X148704261Y-78499423D01*
X148793200Y-78284705D01*
X148793200Y-78052295D01*
X148704261Y-77837577D01*
X148539923Y-77673239D01*
X148325205Y-77584300D01*
X148092795Y-77584300D01*
X147878077Y-77673239D01*
X147713739Y-77837577D01*
X147624800Y-78052295D01*
X141725804Y-78052295D01*
X141935923Y-77965261D01*
X142100261Y-77800923D01*
X142189200Y-77586205D01*
X142189200Y-77419200D01*
X142356205Y-77419200D01*
X142570923Y-77330261D01*
X142735261Y-77165923D01*
X142824200Y-76951205D01*
X142824200Y-76718795D01*
X142735261Y-76504077D01*
X142570923Y-76339739D01*
X142356205Y-76250800D01*
X142123795Y-76250800D01*
X141909077Y-76339739D01*
X141744739Y-76504077D01*
X141655800Y-76718795D01*
X141655800Y-76885800D01*
X141488795Y-76885800D01*
X141274077Y-76974739D01*
X141128750Y-77120066D01*
X140983423Y-76974739D01*
X140768705Y-76885800D01*
X140536295Y-76885800D01*
X140321577Y-76974739D01*
X140176250Y-77120066D01*
X140030923Y-76974739D01*
X139816205Y-76885800D01*
X139583795Y-76885800D01*
X139369077Y-76974739D01*
X139204739Y-77139077D01*
X139115800Y-77353795D01*
X124220652Y-77353795D01*
X124282200Y-77205205D01*
X124282200Y-76972795D01*
X124193261Y-76758077D01*
X124028923Y-76593739D01*
X123814205Y-76504800D01*
X123581795Y-76504800D01*
X123367077Y-76593739D01*
X123202739Y-76758077D01*
X123113800Y-76972795D01*
X116737200Y-76972795D01*
X116737200Y-75702795D01*
X123113800Y-75702795D01*
X123113800Y-75935205D01*
X123202739Y-76149923D01*
X123367077Y-76314261D01*
X123581795Y-76403200D01*
X123814205Y-76403200D01*
X124028923Y-76314261D01*
X124193261Y-76149923D01*
X124282200Y-75935205D01*
X124282200Y-75702795D01*
X124270865Y-75675428D01*
X128441748Y-75675428D01*
X128441748Y-75907838D01*
X128530687Y-76122556D01*
X128695025Y-76286894D01*
X128909743Y-76375833D01*
X129142153Y-76375833D01*
X129356871Y-76286894D01*
X129521209Y-76122556D01*
X129537264Y-76083795D01*
X160070800Y-76083795D01*
X160070800Y-76316205D01*
X160159739Y-76530923D01*
X160324077Y-76695261D01*
X160538795Y-76784200D01*
X160771205Y-76784200D01*
X160985923Y-76695261D01*
X161150261Y-76530923D01*
X161239200Y-76316205D01*
X161239200Y-76083795D01*
X163880800Y-76083795D01*
X163880800Y-76316205D01*
X163969739Y-76530923D01*
X164134077Y-76695261D01*
X164348795Y-76784200D01*
X164581205Y-76784200D01*
X164795923Y-76695261D01*
X164960261Y-76530923D01*
X165049200Y-76316205D01*
X165049200Y-76083795D01*
X164960261Y-75869077D01*
X164795923Y-75704739D01*
X164581205Y-75615800D01*
X164348795Y-75615800D01*
X164134077Y-75704739D01*
X163969739Y-75869077D01*
X163880800Y-76083795D01*
X161239200Y-76083795D01*
X161150261Y-75869077D01*
X160985923Y-75704739D01*
X160771205Y-75615800D01*
X160538795Y-75615800D01*
X160324077Y-75704739D01*
X160159739Y-75869077D01*
X160070800Y-76083795D01*
X129537264Y-76083795D01*
X129610148Y-75907838D01*
X129610148Y-75675428D01*
X129521209Y-75460710D01*
X129382294Y-75321795D01*
X174421800Y-75321795D01*
X174421800Y-75554205D01*
X174510739Y-75768923D01*
X174675077Y-75933261D01*
X174889795Y-76022200D01*
X175122205Y-76022200D01*
X175336923Y-75933261D01*
X175501261Y-75768923D01*
X175590200Y-75554205D01*
X175590200Y-75321795D01*
X175501261Y-75107077D01*
X175336923Y-74942739D01*
X175122205Y-74853800D01*
X174889795Y-74853800D01*
X174675077Y-74942739D01*
X174510739Y-75107077D01*
X174421800Y-75321795D01*
X129382294Y-75321795D01*
X129356871Y-75296372D01*
X129142153Y-75207433D01*
X128909743Y-75207433D01*
X128695025Y-75296372D01*
X128530687Y-75460710D01*
X128441748Y-75675428D01*
X124270865Y-75675428D01*
X124193261Y-75488077D01*
X124028923Y-75323739D01*
X123814205Y-75234800D01*
X123581795Y-75234800D01*
X123367077Y-75323739D01*
X123202739Y-75488077D01*
X123113800Y-75702795D01*
X116737200Y-75702795D01*
X116737200Y-74432795D01*
X123113800Y-74432795D01*
X123113800Y-74665205D01*
X123202739Y-74879923D01*
X123367077Y-75044261D01*
X123581795Y-75133200D01*
X123814205Y-75133200D01*
X124028923Y-75044261D01*
X124193261Y-74879923D01*
X124282200Y-74665205D01*
X124282200Y-74432795D01*
X124193261Y-74218077D01*
X124028923Y-74053739D01*
X123814205Y-73964800D01*
X123581795Y-73964800D01*
X123367077Y-74053739D01*
X123202739Y-74218077D01*
X123113800Y-74432795D01*
X116737200Y-74432795D01*
X116737200Y-73797795D01*
X154355800Y-73797795D01*
X154355800Y-74030205D01*
X154444739Y-74244923D01*
X154609077Y-74409261D01*
X154823795Y-74498200D01*
X155056205Y-74498200D01*
X155270923Y-74409261D01*
X155435261Y-74244923D01*
X155524200Y-74030205D01*
X155524200Y-73797795D01*
X155435261Y-73583077D01*
X155270923Y-73418739D01*
X155056205Y-73329800D01*
X154823795Y-73329800D01*
X154609077Y-73418739D01*
X154444739Y-73583077D01*
X154355800Y-73797795D01*
X116737200Y-73797795D01*
X116737200Y-71480461D01*
X124730800Y-71480461D01*
X124730800Y-72029539D01*
X124940923Y-72536821D01*
X125329179Y-72925077D01*
X125836461Y-73135200D01*
X126385539Y-73135200D01*
X126892821Y-72925077D01*
X127281077Y-72536821D01*
X127491200Y-72029539D01*
X127491200Y-71480461D01*
X131715800Y-71480461D01*
X131715800Y-72029539D01*
X131925923Y-72536821D01*
X132314179Y-72925077D01*
X132821461Y-73135200D01*
X133370539Y-73135200D01*
X133877821Y-72925077D01*
X134249331Y-72553567D01*
X134249331Y-72805000D01*
X134274958Y-72933838D01*
X134347939Y-73043061D01*
X134457162Y-73116042D01*
X134586000Y-73141669D01*
X136686000Y-73141669D01*
X136814838Y-73116042D01*
X136924061Y-73043061D01*
X136997042Y-72933838D01*
X137022669Y-72805000D01*
X137022669Y-70705000D01*
X137012724Y-70655000D01*
X138644331Y-70655000D01*
X138644331Y-72855000D01*
X138669958Y-72983838D01*
X138742939Y-73093061D01*
X138852162Y-73166042D01*
X138981000Y-73191669D01*
X141181000Y-73191669D01*
X141309838Y-73166042D01*
X141419061Y-73093061D01*
X141492042Y-72983838D01*
X141517669Y-72855000D01*
X141517669Y-72674277D01*
X141810857Y-72967465D01*
X142336516Y-73185200D01*
X142905484Y-73185200D01*
X143431143Y-72967465D01*
X143833465Y-72565143D01*
X143891000Y-72426241D01*
X143948535Y-72565143D01*
X144350857Y-72967465D01*
X144876516Y-73185200D01*
X145445484Y-73185200D01*
X145971143Y-72967465D01*
X146373465Y-72565143D01*
X146431000Y-72426241D01*
X146488535Y-72565143D01*
X146890857Y-72967465D01*
X147416516Y-73185200D01*
X147985484Y-73185200D01*
X148511143Y-72967465D01*
X148913465Y-72565143D01*
X148971000Y-72426241D01*
X149028535Y-72565143D01*
X149430857Y-72967465D01*
X149956516Y-73185200D01*
X150525484Y-73185200D01*
X151051143Y-72967465D01*
X151453465Y-72565143D01*
X151511000Y-72426241D01*
X151568535Y-72565143D01*
X151970857Y-72967465D01*
X152496516Y-73185200D01*
X153065484Y-73185200D01*
X153591143Y-72967465D01*
X153993465Y-72565143D01*
X154051000Y-72426241D01*
X154108535Y-72565143D01*
X154510857Y-72967465D01*
X155036516Y-73185200D01*
X155605484Y-73185200D01*
X156131143Y-72967465D01*
X156533465Y-72565143D01*
X156591000Y-72426241D01*
X156648535Y-72565143D01*
X157050857Y-72967465D01*
X157576516Y-73185200D01*
X158145484Y-73185200D01*
X158671143Y-72967465D01*
X159073465Y-72565143D01*
X159131000Y-72426241D01*
X159188535Y-72565143D01*
X159590857Y-72967465D01*
X160116516Y-73185200D01*
X160685484Y-73185200D01*
X161211143Y-72967465D01*
X161613465Y-72565143D01*
X161671000Y-72426241D01*
X161728535Y-72565143D01*
X162130857Y-72967465D01*
X162656516Y-73185200D01*
X163225484Y-73185200D01*
X163751143Y-72967465D01*
X164153465Y-72565143D01*
X164211000Y-72426241D01*
X164268535Y-72565143D01*
X164670857Y-72967465D01*
X165196516Y-73185200D01*
X165765484Y-73185200D01*
X166291143Y-72967465D01*
X166693465Y-72565143D01*
X166911200Y-72039484D01*
X166911200Y-71470516D01*
X166693465Y-70944857D01*
X166291143Y-70542535D01*
X165765484Y-70324800D01*
X165196516Y-70324800D01*
X164670857Y-70542535D01*
X164268535Y-70944857D01*
X164211000Y-71083759D01*
X164153465Y-70944857D01*
X163751143Y-70542535D01*
X163225484Y-70324800D01*
X162656516Y-70324800D01*
X162130857Y-70542535D01*
X161728535Y-70944857D01*
X161671000Y-71083759D01*
X161613465Y-70944857D01*
X161211143Y-70542535D01*
X160685484Y-70324800D01*
X160116516Y-70324800D01*
X159590857Y-70542535D01*
X159188535Y-70944857D01*
X159131000Y-71083759D01*
X159073465Y-70944857D01*
X158671143Y-70542535D01*
X158145484Y-70324800D01*
X157576516Y-70324800D01*
X157050857Y-70542535D01*
X156648535Y-70944857D01*
X156591000Y-71083759D01*
X156533465Y-70944857D01*
X156131143Y-70542535D01*
X155605484Y-70324800D01*
X155036516Y-70324800D01*
X154510857Y-70542535D01*
X154108535Y-70944857D01*
X154051000Y-71083759D01*
X153993465Y-70944857D01*
X153591143Y-70542535D01*
X153065484Y-70324800D01*
X152496516Y-70324800D01*
X151970857Y-70542535D01*
X151568535Y-70944857D01*
X151511000Y-71083759D01*
X151453465Y-70944857D01*
X151051143Y-70542535D01*
X150525484Y-70324800D01*
X149956516Y-70324800D01*
X149430857Y-70542535D01*
X149028535Y-70944857D01*
X148971000Y-71083759D01*
X148913465Y-70944857D01*
X148511143Y-70542535D01*
X147985484Y-70324800D01*
X147416516Y-70324800D01*
X146890857Y-70542535D01*
X146488535Y-70944857D01*
X146431000Y-71083759D01*
X146373465Y-70944857D01*
X145971143Y-70542535D01*
X145445484Y-70324800D01*
X144876516Y-70324800D01*
X144350857Y-70542535D01*
X143948535Y-70944857D01*
X143891000Y-71083759D01*
X143833465Y-70944857D01*
X143431143Y-70542535D01*
X142905484Y-70324800D01*
X142336516Y-70324800D01*
X141810857Y-70542535D01*
X141517669Y-70835723D01*
X141517669Y-70655000D01*
X141492042Y-70526162D01*
X141419061Y-70416939D01*
X141309838Y-70343958D01*
X141181000Y-70318331D01*
X138981000Y-70318331D01*
X138852162Y-70343958D01*
X138742939Y-70416939D01*
X138669958Y-70526162D01*
X138644331Y-70655000D01*
X137012724Y-70655000D01*
X136997042Y-70576162D01*
X136924061Y-70466939D01*
X136814838Y-70393958D01*
X136686000Y-70368331D01*
X134586000Y-70368331D01*
X134457162Y-70393958D01*
X134347939Y-70466939D01*
X134274958Y-70576162D01*
X134249331Y-70705000D01*
X134249331Y-70956433D01*
X133877821Y-70584923D01*
X133370539Y-70374800D01*
X132821461Y-70374800D01*
X132314179Y-70584923D01*
X131925923Y-70973179D01*
X131715800Y-71480461D01*
X127491200Y-71480461D01*
X127281077Y-70973179D01*
X126892821Y-70584923D01*
X126385539Y-70374800D01*
X125836461Y-70374800D01*
X125329179Y-70584923D01*
X124940923Y-70973179D01*
X124730800Y-71480461D01*
X116737200Y-71480461D01*
X116737200Y-67955795D01*
X142163800Y-67955795D01*
X142163800Y-68188205D01*
X142252739Y-68402923D01*
X142417077Y-68567261D01*
X142631795Y-68656200D01*
X142864205Y-68656200D01*
X143078923Y-68567261D01*
X143243261Y-68402923D01*
X143332200Y-68188205D01*
X143332200Y-67955795D01*
X147370800Y-67955795D01*
X147370800Y-68188205D01*
X147459739Y-68402923D01*
X147624077Y-68567261D01*
X147838795Y-68656200D01*
X148071205Y-68656200D01*
X148285923Y-68567261D01*
X148450261Y-68402923D01*
X148539200Y-68188205D01*
X148539200Y-67955795D01*
X148450261Y-67741077D01*
X148285923Y-67576739D01*
X148071205Y-67487800D01*
X147838795Y-67487800D01*
X147624077Y-67576739D01*
X147459739Y-67741077D01*
X147370800Y-67955795D01*
X143332200Y-67955795D01*
X143243261Y-67741077D01*
X143078923Y-67576739D01*
X142864205Y-67487800D01*
X142631795Y-67487800D01*
X142417077Y-67576739D01*
X142252739Y-67741077D01*
X142163800Y-67955795D01*
X116737200Y-67955795D01*
X116737200Y-67076530D01*
X116802689Y-66431795D01*
X131495800Y-66431795D01*
X131495800Y-66664205D01*
X131584739Y-66878923D01*
X131749077Y-67043261D01*
X131963795Y-67132200D01*
X132196205Y-67132200D01*
X132410923Y-67043261D01*
X132575261Y-66878923D01*
X132664200Y-66664205D01*
X132664200Y-66431795D01*
X136067800Y-66431795D01*
X136067800Y-66664205D01*
X136156739Y-66878923D01*
X136321077Y-67043261D01*
X136535795Y-67132200D01*
X136768205Y-67132200D01*
X136982923Y-67043261D01*
X137147261Y-66878923D01*
X137227257Y-66685795D01*
X141147800Y-66685795D01*
X141147800Y-66918205D01*
X141236739Y-67132923D01*
X141401077Y-67297261D01*
X141615795Y-67386200D01*
X141848205Y-67386200D01*
X142062923Y-67297261D01*
X142227261Y-67132923D01*
X142316200Y-66918205D01*
X142316200Y-66685795D01*
X142237293Y-66495295D01*
X151053800Y-66495295D01*
X151053800Y-66727705D01*
X151142739Y-66942423D01*
X151307077Y-67106761D01*
X151521795Y-67195700D01*
X151754205Y-67195700D01*
X151968923Y-67106761D01*
X152133261Y-66942423D01*
X152222200Y-66727705D01*
X152222200Y-66495295D01*
X152133261Y-66280577D01*
X151968923Y-66116239D01*
X151754205Y-66027300D01*
X151521795Y-66027300D01*
X151307077Y-66116239D01*
X151142739Y-66280577D01*
X151053800Y-66495295D01*
X142237293Y-66495295D01*
X142227261Y-66471077D01*
X142062923Y-66306739D01*
X141848205Y-66217800D01*
X141615795Y-66217800D01*
X141401077Y-66306739D01*
X141236739Y-66471077D01*
X141147800Y-66685795D01*
X137227257Y-66685795D01*
X137236200Y-66664205D01*
X137236200Y-66431795D01*
X137147261Y-66217077D01*
X136982923Y-66052739D01*
X136768205Y-65963800D01*
X136535795Y-65963800D01*
X136321077Y-66052739D01*
X136156739Y-66217077D01*
X136067800Y-66431795D01*
X132664200Y-66431795D01*
X132575261Y-66217077D01*
X132410923Y-66052739D01*
X132196205Y-65963800D01*
X131963795Y-65963800D01*
X131749077Y-66052739D01*
X131584739Y-66217077D01*
X131495800Y-66431795D01*
X116802689Y-66431795D01*
X116808785Y-66371786D01*
X117014443Y-65715530D01*
X117347865Y-65114024D01*
X117795423Y-64591849D01*
X118338838Y-64170333D01*
X118955906Y-63866698D01*
X119626268Y-63692082D01*
X120157570Y-63651200D01*
X173207470Y-63651200D01*
X173912214Y-63722785D01*
G04 #@! TD*
M02*
