M48
;DRILL file {KiCad 5.0.2+dfsg1-1} date Mon 07 Jun 2021 04:10:33 PM EDT
;FORMAT={-:-/ absolute / inch / decimal}
FMAT,2
INCH,TZ
T1C0.0118
T2C0.0118
T3C0.0197
T4C0.0433
T5C0.1260
%
G90
G05
T1
X4.675Y-3.1
X4.675Y-3.15
X4.675Y-3.2
X4.725Y-3.1
X4.725Y-3.15
X4.725Y-3.2
X4.735Y-3.3581
X4.735Y-3.4581
X4.865Y-3.385
X4.865Y-3.4581
X4.87Y-2.935
X4.87Y-2.985
X4.87Y-3.035
X4.98Y-3.52
X4.9999Y-3.4482
X5.Y-3.42
X5.0278Y-3.3722
X5.0798Y-2.9839
X5.155Y-3.4681
X5.1707Y-3.539
X5.2Y-2.575
X5.2Y-2.62
X5.29Y-3.1681
X5.3Y-3.5196
X5.315Y-3.0781
X5.315Y-3.1681
X5.34Y-3.1681
X5.365Y-3.1681
X5.38Y-2.58
X5.38Y-2.62
X5.425Y-3.4081
X5.425Y-3.4381
X5.485Y-2.9
X5.5Y-3.05
X5.5375Y-3.05
X5.54Y-3.
X5.54Y-3.4831
X5.5423Y-3.3981
X5.543Y-3.3701
X5.543Y-3.4301
X5.575Y-3.05
X5.575Y-3.14
X5.58Y-2.63
X5.5989Y-3.4511
X5.6Y-3.025
X5.62Y-2.68
X5.655Y-3.31
X5.66Y-3.394
X5.74Y-3.
X5.825Y-2.68
X5.835Y-3.0775
X5.84Y-3.155
X5.94Y-3.
X5.96Y-3.11
X5.96Y-3.18
X5.96Y-3.26
X5.97Y-2.6225
X5.99Y-3.515
X5.995Y-3.31
X6.09Y-3.11
X6.09Y-3.18
X6.09Y-3.26
X6.1Y-2.91
X6.1Y-3.
X6.222Y-3.326
X6.26Y-2.66
X6.275Y-3.1
X6.325Y-3.
X6.325Y-3.45
X6.375Y-3.15
X6.43Y-3.325
X6.46Y-2.66
X6.46Y-3.44
X6.475Y-3.
X6.475Y-3.1
X6.48Y-3.19
X6.56Y-2.66
X6.56Y-3.44
X6.69Y-3.29
X6.75Y-2.97
X6.89Y-2.97
X6.8981Y-3.11
T2
X5.2309Y-3.2809
X5.2309Y-3.3203
X5.2309Y-3.3597
X5.2309Y-3.3991
X5.29Y-3.2809
X5.29Y-3.3203
X5.29Y-3.3597
X5.29Y-3.3991
X5.3491Y-3.2809
X5.3491Y-3.3203
X5.3491Y-3.3597
X5.3491Y-3.3991
T3
X4.6355Y-2.64
X4.6632Y-2.5732
X4.6632Y-2.7068
X4.73Y-2.5455
X4.73Y-2.7345
X4.7968Y-2.5732
X4.7968Y-2.7068
X4.8245Y-2.64
X6.7255Y-2.64
X6.7532Y-2.5732
X6.7532Y-2.7068
X6.82Y-2.5455
X6.82Y-2.7345
X6.8868Y-2.5732
X6.8868Y-2.7068
X6.9145Y-2.64
X6.7255Y-3.41
X6.7532Y-3.3432
X6.7532Y-3.4768
X6.82Y-3.3155
X6.82Y-3.5045
X6.8868Y-3.3432
X6.8868Y-3.4768
X6.9145Y-3.41
T4
X5.515Y-2.825
X5.615Y-2.825
X5.715Y-2.825
X5.815Y-2.825
X5.915Y-2.825
X6.015Y-2.825
X6.115Y-2.825
X6.215Y-2.825
X6.315Y-2.825
X6.415Y-2.825
X6.515Y-2.825
X6.615Y-2.825
X5.24Y-2.825
X5.34Y-2.825
X4.965Y-2.825
X5.065Y-2.825
T5
X4.73Y-2.64
X6.82Y-2.64
X6.82Y-3.41
T0
M30
