M48
;DRILL file {KiCad 5.0.2+dfsg1-1} date Mon 07 Jun 2021 04:18:36 PM EDT
;FORMAT={-:-/ absolute / metric / decimal}
FMAT,2
METRIC,TZ
T1C0.300
T2C0.300
T3C0.500
T4C1.100
T5C3.200
%
G90
G05
T1
X118.745Y-78.74
X118.745Y-80.01
X118.745Y-81.28
X120.015Y-78.74
X120.015Y-80.01
X120.015Y-81.28
X120.269Y-85.296
X120.269Y-87.836
X123.571Y-85.979
X123.571Y-87.836
X123.698Y-74.549
X123.698Y-75.819
X123.698Y-77.089
X126.492Y-89.408
X126.997Y-87.585
X127.Y-86.868
X127.705Y-85.655
X129.026Y-75.792
X130.937Y-88.09
X131.337Y-89.892
X132.08Y-65.405
X132.08Y-66.548
X134.366Y-80.47
X134.62Y-89.398
X135.001Y-78.184
X135.001Y-80.47
X135.636Y-80.47
X136.271Y-80.47
X136.652Y-65.532
X136.652Y-66.548
X137.795Y-86.566
X137.795Y-87.328
X139.319Y-73.66
X139.7Y-77.47
X140.653Y-77.47
X140.716Y-76.2
X140.716Y-88.471
X140.775Y-86.312
X140.792Y-85.601
X140.792Y-87.125
X141.605Y-77.47
X141.605Y-79.756
X141.732Y-66.802
X142.212Y-87.658
X142.24Y-76.835
X142.748Y-68.072
X143.637Y-84.074
X143.764Y-86.208
X145.796Y-76.2
X147.955Y-68.072
X148.209Y-78.168
X148.336Y-80.137
X150.876Y-76.2
X151.384Y-78.994
X151.384Y-80.772
X151.384Y-82.804
X151.638Y-66.611
X152.146Y-89.281
X152.273Y-84.074
X154.686Y-78.994
X154.686Y-80.772
X154.686Y-82.804
X154.94Y-73.914
X154.94Y-76.2
X158.039Y-84.48
X159.004Y-67.564
X159.385Y-78.74
X160.655Y-76.2
X160.655Y-87.63
X161.925Y-80.01
X163.322Y-84.455
X164.084Y-67.564
X164.084Y-87.376
X164.465Y-76.2
X164.465Y-78.74
X164.592Y-81.026
X166.624Y-67.564
X166.624Y-87.376
X169.926Y-83.566
X171.45Y-75.438
X175.006Y-75.438
X175.212Y-78.994
T2
X132.866Y-83.336
X132.866Y-84.336
X132.866Y-85.336
X132.866Y-86.336
X134.366Y-83.336
X134.366Y-84.336
X134.366Y-85.336
X134.366Y-86.336
X135.866Y-83.336
X135.866Y-84.336
X135.866Y-85.336
X135.866Y-86.336
T3
X117.742Y-67.056
X118.445Y-65.359
X118.445Y-68.753
X120.142Y-64.656
X120.142Y-69.456
X121.839Y-65.359
X121.839Y-68.753
X122.542Y-67.056
X170.828Y-67.056
X171.531Y-65.359
X171.531Y-68.753
X173.228Y-64.656
X173.228Y-69.456
X174.925Y-65.359
X174.925Y-68.753
X175.628Y-67.056
X170.828Y-86.614
X171.531Y-84.917
X171.531Y-88.311
X173.228Y-84.214
X173.228Y-89.014
X174.925Y-84.917
X174.925Y-88.311
X175.628Y-86.614
T4
X140.081Y-71.755
X142.621Y-71.755
X145.161Y-71.755
X147.701Y-71.755
X150.241Y-71.755
X152.781Y-71.755
X155.321Y-71.755
X157.861Y-71.755
X160.401Y-71.755
X162.941Y-71.755
X165.481Y-71.755
X168.021Y-71.755
X133.096Y-71.755
X135.636Y-71.755
X126.111Y-71.755
X128.651Y-71.755
T5
X120.142Y-67.056
X173.228Y-67.056
X173.228Y-86.614
T0
M30
