G04 #@! TF.GenerationSoftware,KiCad,Pcbnew,5.0.2+dfsg1-1*
G04 #@! TF.CreationDate,2021-06-07T16:10:35-04:00*
G04 #@! TF.ProjectId,KyberBoard,4b796265-7242-46f6-9172-642e6b696361,rev?*
G04 #@! TF.SameCoordinates,Original*
G04 #@! TF.FileFunction,Soldermask,Bot*
G04 #@! TF.FilePolarity,Negative*
%FSLAX46Y46*%
G04 Gerber Fmt 4.6, Leading zero omitted, Abs format (unit mm)*
G04 Created by KiCad (PCBNEW 5.0.2+dfsg1-1) date Mon 07 Jun 2021 04:10:35 PM EDT*
%MOMM*%
%LPD*%
G01*
G04 APERTURE LIST*
%ADD10C,0.150000*%
G04 APERTURE END LIST*
D10*
X116332000Y-67056000D02*
G75*
G02X120142000Y-63246000I3810000J0D01*
G01*
X120142000Y-90424000D02*
G75*
G02X116332000Y-86614000I0J3810000D01*
G01*
X116332000Y-86614000D02*
X116332000Y-67056000D01*
X173228000Y-90424000D02*
X120142000Y-90424000D01*
X173228000Y-63246000D02*
X120142000Y-63246000D01*
X177038000Y-86614000D02*
X177038000Y-67056000D01*
X177038000Y-86614000D02*
G75*
G02X173228000Y-90424000I-3810000J0D01*
G01*
X173228000Y-63246000D02*
G75*
G02X177038000Y-67056000I0J-3810000D01*
G01*
G36*
X174175990Y-83488896D02*
X174175992Y-83488897D01*
X174175993Y-83488897D01*
X174767452Y-83733888D01*
X175299754Y-84089560D01*
X175752440Y-84542246D01*
X176068819Y-85015742D01*
X176108112Y-85074548D01*
X176349373Y-85657001D01*
X176353104Y-85666010D01*
X176478000Y-86293903D01*
X176478000Y-86934097D01*
X176353104Y-87561990D01*
X176353103Y-87561993D01*
X176216094Y-87892761D01*
X176108112Y-88153452D01*
X175752440Y-88685754D01*
X175299754Y-89138440D01*
X174840516Y-89445292D01*
X174767452Y-89494112D01*
X174175993Y-89739103D01*
X174175992Y-89739103D01*
X174175990Y-89739104D01*
X173548097Y-89864000D01*
X172907903Y-89864000D01*
X172280010Y-89739104D01*
X172280008Y-89739103D01*
X172280007Y-89739103D01*
X171688548Y-89494112D01*
X171615484Y-89445292D01*
X171156246Y-89138440D01*
X170703560Y-88685754D01*
X170347888Y-88153452D01*
X170239906Y-87892761D01*
X170102897Y-87561993D01*
X170102896Y-87561990D01*
X169978000Y-86934097D01*
X169978000Y-86293903D01*
X170102896Y-85666010D01*
X170106628Y-85657001D01*
X170347888Y-85074548D01*
X170387181Y-85015742D01*
X170703560Y-84542246D01*
X171156246Y-84089560D01*
X171688548Y-83733888D01*
X172280007Y-83488897D01*
X172280008Y-83488897D01*
X172280010Y-83488896D01*
X172907903Y-83364000D01*
X173548097Y-83364000D01*
X174175990Y-83488896D01*
X174175990Y-83488896D01*
G37*
G36*
X129893861Y-88394557D02*
X129933635Y-88406623D01*
X129970292Y-88426216D01*
X130002418Y-88452582D01*
X130028784Y-88484708D01*
X130048377Y-88521365D01*
X130060443Y-88561139D01*
X130065000Y-88607408D01*
X130065000Y-89322592D01*
X130060443Y-89368861D01*
X130048377Y-89408635D01*
X130028784Y-89445292D01*
X130002418Y-89477418D01*
X129970292Y-89503784D01*
X129933635Y-89523377D01*
X129893861Y-89535443D01*
X129847592Y-89540000D01*
X129232408Y-89540000D01*
X129186139Y-89535443D01*
X129146365Y-89523377D01*
X129109708Y-89503784D01*
X129077582Y-89477418D01*
X129051216Y-89445292D01*
X129031623Y-89408635D01*
X129019557Y-89368861D01*
X129015000Y-89322592D01*
X129015000Y-88607408D01*
X129019557Y-88561139D01*
X129031623Y-88521365D01*
X129051216Y-88484708D01*
X129077582Y-88452582D01*
X129109708Y-88426216D01*
X129146365Y-88406623D01*
X129186139Y-88394557D01*
X129232408Y-88390000D01*
X129847592Y-88390000D01*
X129893861Y-88394557D01*
X129893861Y-88394557D01*
G37*
G36*
X137422861Y-87823557D02*
X137462635Y-87835623D01*
X137499292Y-87855216D01*
X137531418Y-87881582D01*
X137557784Y-87913708D01*
X137577377Y-87950365D01*
X137589443Y-87990139D01*
X137594000Y-88036408D01*
X137594000Y-88651592D01*
X137589443Y-88697861D01*
X137577377Y-88737635D01*
X137557784Y-88774292D01*
X137531418Y-88806418D01*
X137499292Y-88832784D01*
X137462635Y-88852377D01*
X137422861Y-88864443D01*
X137376592Y-88869000D01*
X136661408Y-88869000D01*
X136615139Y-88864443D01*
X136575365Y-88852377D01*
X136538708Y-88832784D01*
X136506582Y-88806418D01*
X136480216Y-88774292D01*
X136460623Y-88737635D01*
X136448557Y-88697861D01*
X136444000Y-88651592D01*
X136444000Y-88036408D01*
X136448557Y-87990139D01*
X136460623Y-87950365D01*
X136480216Y-87913708D01*
X136506582Y-87881582D01*
X136538708Y-87855216D01*
X136575365Y-87835623D01*
X136615139Y-87823557D01*
X136661408Y-87819000D01*
X137376592Y-87819000D01*
X137422861Y-87823557D01*
X137422861Y-87823557D01*
G37*
G36*
X135672861Y-87823557D02*
X135712635Y-87835623D01*
X135749292Y-87855216D01*
X135781418Y-87881582D01*
X135807784Y-87913708D01*
X135827377Y-87950365D01*
X135839443Y-87990139D01*
X135844000Y-88036408D01*
X135844000Y-88651592D01*
X135839443Y-88697861D01*
X135827377Y-88737635D01*
X135807784Y-88774292D01*
X135781418Y-88806418D01*
X135749292Y-88832784D01*
X135712635Y-88852377D01*
X135672861Y-88864443D01*
X135626592Y-88869000D01*
X134911408Y-88869000D01*
X134865139Y-88864443D01*
X134825365Y-88852377D01*
X134788708Y-88832784D01*
X134756582Y-88806418D01*
X134730216Y-88774292D01*
X134710623Y-88737635D01*
X134698557Y-88697861D01*
X134694000Y-88651592D01*
X134694000Y-88036408D01*
X134698557Y-87990139D01*
X134710623Y-87950365D01*
X134730216Y-87913708D01*
X134756582Y-87881582D01*
X134788708Y-87855216D01*
X134825365Y-87835623D01*
X134865139Y-87823557D01*
X134911408Y-87819000D01*
X135626592Y-87819000D01*
X135672861Y-87823557D01*
X135672861Y-87823557D01*
G37*
G36*
X150159205Y-86791557D02*
X150198979Y-86803623D01*
X150235636Y-86823216D01*
X150267762Y-86849582D01*
X150294128Y-86881708D01*
X150313721Y-86918365D01*
X150325787Y-86958139D01*
X150330344Y-87004408D01*
X150330344Y-87719592D01*
X150325787Y-87765861D01*
X150313721Y-87805635D01*
X150294128Y-87842292D01*
X150267762Y-87874418D01*
X150235636Y-87900784D01*
X150198979Y-87920377D01*
X150159205Y-87932443D01*
X150112936Y-87937000D01*
X149497752Y-87937000D01*
X149451483Y-87932443D01*
X149411709Y-87920377D01*
X149375052Y-87900784D01*
X149342926Y-87874418D01*
X149316560Y-87842292D01*
X149296967Y-87805635D01*
X149284901Y-87765861D01*
X149280344Y-87719592D01*
X149280344Y-87004408D01*
X149284901Y-86958139D01*
X149296967Y-86918365D01*
X149316560Y-86881708D01*
X149342926Y-86849582D01*
X149375052Y-86823216D01*
X149411709Y-86803623D01*
X149451483Y-86791557D01*
X149497752Y-86787000D01*
X150112936Y-86787000D01*
X150159205Y-86791557D01*
X150159205Y-86791557D01*
G37*
G36*
X151737861Y-86791557D02*
X151777635Y-86803623D01*
X151814292Y-86823216D01*
X151846418Y-86849582D01*
X151872784Y-86881708D01*
X151892377Y-86918365D01*
X151904443Y-86958139D01*
X151909000Y-87004408D01*
X151909000Y-87719592D01*
X151904443Y-87765861D01*
X151892377Y-87805635D01*
X151872784Y-87842292D01*
X151846418Y-87874418D01*
X151814292Y-87900784D01*
X151777635Y-87920377D01*
X151737861Y-87932443D01*
X151691592Y-87937000D01*
X151076408Y-87937000D01*
X151030139Y-87932443D01*
X150990365Y-87920377D01*
X150953708Y-87900784D01*
X150921582Y-87874418D01*
X150895216Y-87842292D01*
X150875623Y-87805635D01*
X150863557Y-87765861D01*
X150859000Y-87719592D01*
X150859000Y-87004408D01*
X150863557Y-86958139D01*
X150875623Y-86918365D01*
X150895216Y-86881708D01*
X150921582Y-86849582D01*
X150953708Y-86823216D01*
X150990365Y-86803623D01*
X151030139Y-86791557D01*
X151076408Y-86787000D01*
X151691592Y-86787000D01*
X151737861Y-86791557D01*
X151737861Y-86791557D01*
G37*
G36*
X153287261Y-86791557D02*
X153327035Y-86803623D01*
X153363692Y-86823216D01*
X153395818Y-86849582D01*
X153422184Y-86881708D01*
X153441777Y-86918365D01*
X153453843Y-86958139D01*
X153458400Y-87004408D01*
X153458400Y-87719592D01*
X153453843Y-87765861D01*
X153441777Y-87805635D01*
X153422184Y-87842292D01*
X153395818Y-87874418D01*
X153363692Y-87900784D01*
X153327035Y-87920377D01*
X153287261Y-87932443D01*
X153240992Y-87937000D01*
X152625808Y-87937000D01*
X152579539Y-87932443D01*
X152539765Y-87920377D01*
X152503108Y-87900784D01*
X152470982Y-87874418D01*
X152444616Y-87842292D01*
X152425023Y-87805635D01*
X152412957Y-87765861D01*
X152408400Y-87719592D01*
X152408400Y-87004408D01*
X152412957Y-86958139D01*
X152425023Y-86918365D01*
X152444616Y-86881708D01*
X152470982Y-86849582D01*
X152503108Y-86823216D01*
X152539765Y-86803623D01*
X152579539Y-86791557D01*
X152625808Y-86787000D01*
X153240992Y-86787000D01*
X153287261Y-86791557D01*
X153287261Y-86791557D01*
G37*
G36*
X148562861Y-86791557D02*
X148602635Y-86803623D01*
X148639292Y-86823216D01*
X148671418Y-86849582D01*
X148697784Y-86881708D01*
X148717377Y-86918365D01*
X148729443Y-86958139D01*
X148734000Y-87004408D01*
X148734000Y-87719592D01*
X148729443Y-87765861D01*
X148717377Y-87805635D01*
X148697784Y-87842292D01*
X148671418Y-87874418D01*
X148639292Y-87900784D01*
X148602635Y-87920377D01*
X148562861Y-87932443D01*
X148516592Y-87937000D01*
X147901408Y-87937000D01*
X147855139Y-87932443D01*
X147815365Y-87920377D01*
X147778708Y-87900784D01*
X147746582Y-87874418D01*
X147720216Y-87842292D01*
X147700623Y-87805635D01*
X147688557Y-87765861D01*
X147684000Y-87719592D01*
X147684000Y-87004408D01*
X147688557Y-86958139D01*
X147700623Y-86918365D01*
X147720216Y-86881708D01*
X147746582Y-86849582D01*
X147778708Y-86823216D01*
X147815365Y-86803623D01*
X147855139Y-86791557D01*
X147901408Y-86787000D01*
X148516592Y-86787000D01*
X148562861Y-86791557D01*
X148562861Y-86791557D01*
G37*
G36*
X156436861Y-86791557D02*
X156476635Y-86803623D01*
X156513292Y-86823216D01*
X156545418Y-86849582D01*
X156571784Y-86881708D01*
X156591377Y-86918365D01*
X156603443Y-86958139D01*
X156608000Y-87004408D01*
X156608000Y-87719592D01*
X156603443Y-87765861D01*
X156591377Y-87805635D01*
X156571784Y-87842292D01*
X156545418Y-87874418D01*
X156513292Y-87900784D01*
X156476635Y-87920377D01*
X156436861Y-87932443D01*
X156390592Y-87937000D01*
X155775408Y-87937000D01*
X155729139Y-87932443D01*
X155689365Y-87920377D01*
X155652708Y-87900784D01*
X155620582Y-87874418D01*
X155594216Y-87842292D01*
X155574623Y-87805635D01*
X155562557Y-87765861D01*
X155558000Y-87719592D01*
X155558000Y-87004408D01*
X155562557Y-86958139D01*
X155574623Y-86918365D01*
X155594216Y-86881708D01*
X155620582Y-86849582D01*
X155652708Y-86823216D01*
X155689365Y-86803623D01*
X155729139Y-86791557D01*
X155775408Y-86787000D01*
X156390592Y-86787000D01*
X156436861Y-86791557D01*
X156436861Y-86791557D01*
G37*
G36*
X154849361Y-86791557D02*
X154889135Y-86803623D01*
X154925792Y-86823216D01*
X154957918Y-86849582D01*
X154984284Y-86881708D01*
X155003877Y-86918365D01*
X155015943Y-86958139D01*
X155020500Y-87004408D01*
X155020500Y-87719592D01*
X155015943Y-87765861D01*
X155003877Y-87805635D01*
X154984284Y-87842292D01*
X154957918Y-87874418D01*
X154925792Y-87900784D01*
X154889135Y-87920377D01*
X154849361Y-87932443D01*
X154803092Y-87937000D01*
X154187908Y-87937000D01*
X154141639Y-87932443D01*
X154101865Y-87920377D01*
X154065208Y-87900784D01*
X154033082Y-87874418D01*
X154006716Y-87842292D01*
X153987123Y-87805635D01*
X153975057Y-87765861D01*
X153970500Y-87719592D01*
X153970500Y-87004408D01*
X153975057Y-86958139D01*
X153987123Y-86918365D01*
X154006716Y-86881708D01*
X154033082Y-86849582D01*
X154065208Y-86823216D01*
X154101865Y-86803623D01*
X154141639Y-86791557D01*
X154187908Y-86787000D01*
X154803092Y-86787000D01*
X154849361Y-86791557D01*
X154849361Y-86791557D01*
G37*
G36*
X129893861Y-86644557D02*
X129933635Y-86656623D01*
X129970292Y-86676216D01*
X130002418Y-86702582D01*
X130028784Y-86734708D01*
X130048377Y-86771365D01*
X130060443Y-86811139D01*
X130065000Y-86857408D01*
X130065000Y-87572592D01*
X130060443Y-87618861D01*
X130048377Y-87658635D01*
X130028784Y-87695292D01*
X130002418Y-87727418D01*
X129970292Y-87753784D01*
X129933635Y-87773377D01*
X129893861Y-87785443D01*
X129847592Y-87790000D01*
X129232408Y-87790000D01*
X129186139Y-87785443D01*
X129146365Y-87773377D01*
X129109708Y-87753784D01*
X129077582Y-87727418D01*
X129051216Y-87695292D01*
X129031623Y-87658635D01*
X129019557Y-87618861D01*
X129015000Y-87572592D01*
X129015000Y-86857408D01*
X129019557Y-86811139D01*
X129031623Y-86771365D01*
X129051216Y-86734708D01*
X129077582Y-86702582D01*
X129109708Y-86676216D01*
X129146365Y-86656623D01*
X129186139Y-86644557D01*
X129232408Y-86640000D01*
X129847592Y-86640000D01*
X129893861Y-86644557D01*
X129893861Y-86644557D01*
G37*
G36*
X139736570Y-86489557D02*
X139776344Y-86501623D01*
X139813001Y-86521216D01*
X139845127Y-86547582D01*
X139871493Y-86579708D01*
X139891086Y-86616365D01*
X139903152Y-86656139D01*
X139907709Y-86702408D01*
X139907709Y-87417592D01*
X139903152Y-87463861D01*
X139891086Y-87503635D01*
X139871493Y-87540292D01*
X139845127Y-87572418D01*
X139813001Y-87598784D01*
X139776344Y-87618377D01*
X139736570Y-87630443D01*
X139690301Y-87635000D01*
X139075117Y-87635000D01*
X139028848Y-87630443D01*
X138989074Y-87618377D01*
X138952417Y-87598784D01*
X138920291Y-87572418D01*
X138893925Y-87540292D01*
X138874332Y-87503635D01*
X138862266Y-87463861D01*
X138857709Y-87417592D01*
X138857709Y-86702408D01*
X138862266Y-86656139D01*
X138874332Y-86616365D01*
X138893925Y-86579708D01*
X138920291Y-86547582D01*
X138952417Y-86521216D01*
X138989074Y-86501623D01*
X139028848Y-86489557D01*
X139075117Y-86485000D01*
X139690301Y-86485000D01*
X139736570Y-86489557D01*
X139736570Y-86489557D01*
G37*
G36*
X159459461Y-85656515D02*
X159499235Y-85668581D01*
X159535892Y-85688174D01*
X159568018Y-85714540D01*
X159594384Y-85746666D01*
X159613977Y-85783323D01*
X159626043Y-85823097D01*
X159630600Y-85869366D01*
X159630600Y-86584550D01*
X159626043Y-86630819D01*
X159613977Y-86670593D01*
X159594384Y-86707250D01*
X159568018Y-86739376D01*
X159535892Y-86765742D01*
X159499235Y-86785335D01*
X159459461Y-86797401D01*
X159413192Y-86801958D01*
X158798008Y-86801958D01*
X158751739Y-86797401D01*
X158711965Y-86785335D01*
X158675308Y-86765742D01*
X158643182Y-86739376D01*
X158616816Y-86707250D01*
X158597223Y-86670593D01*
X158585157Y-86630819D01*
X158580600Y-86584550D01*
X158580600Y-85869366D01*
X158585157Y-85823097D01*
X158597223Y-85783323D01*
X158616816Y-85746666D01*
X158643182Y-85714540D01*
X158675308Y-85688174D01*
X158711965Y-85668581D01*
X158751739Y-85656515D01*
X158798008Y-85651958D01*
X159413192Y-85651958D01*
X159459461Y-85656515D01*
X159459461Y-85656515D01*
G37*
G36*
X161008861Y-85656514D02*
X161048635Y-85668580D01*
X161085292Y-85688173D01*
X161117418Y-85714539D01*
X161143784Y-85746665D01*
X161163377Y-85783322D01*
X161175443Y-85823096D01*
X161180000Y-85869365D01*
X161180000Y-86584549D01*
X161175443Y-86630818D01*
X161163377Y-86670592D01*
X161143784Y-86707249D01*
X161117418Y-86739375D01*
X161085292Y-86765741D01*
X161048635Y-86785334D01*
X161008861Y-86797400D01*
X160962592Y-86801957D01*
X160347408Y-86801957D01*
X160301139Y-86797400D01*
X160261365Y-86785334D01*
X160224708Y-86765741D01*
X160192582Y-86739375D01*
X160166216Y-86707249D01*
X160146623Y-86670592D01*
X160134557Y-86630818D01*
X160130000Y-86584549D01*
X160130000Y-85869365D01*
X160134557Y-85823096D01*
X160146623Y-85783322D01*
X160166216Y-85746665D01*
X160192582Y-85714539D01*
X160224708Y-85688173D01*
X160261365Y-85668580D01*
X160301139Y-85656514D01*
X160347408Y-85651957D01*
X160962592Y-85651957D01*
X161008861Y-85656514D01*
X161008861Y-85656514D01*
G37*
G36*
X162556012Y-85648557D02*
X162595786Y-85660623D01*
X162632443Y-85680216D01*
X162664569Y-85706582D01*
X162690935Y-85738708D01*
X162710528Y-85775365D01*
X162722594Y-85815139D01*
X162727151Y-85861408D01*
X162727151Y-86576592D01*
X162722594Y-86622861D01*
X162710528Y-86662635D01*
X162690935Y-86699292D01*
X162664569Y-86731418D01*
X162632443Y-86757784D01*
X162595786Y-86777377D01*
X162556012Y-86789443D01*
X162509743Y-86794000D01*
X161894559Y-86794000D01*
X161848290Y-86789443D01*
X161808516Y-86777377D01*
X161771859Y-86757784D01*
X161739733Y-86731418D01*
X161713367Y-86699292D01*
X161693774Y-86662635D01*
X161681708Y-86622861D01*
X161677151Y-86576592D01*
X161677151Y-85861408D01*
X161681708Y-85815139D01*
X161693774Y-85775365D01*
X161713367Y-85738708D01*
X161739733Y-85706582D01*
X161771859Y-85680216D01*
X161808516Y-85660623D01*
X161848290Y-85648557D01*
X161894559Y-85644000D01*
X162509743Y-85644000D01*
X162556012Y-85648557D01*
X162556012Y-85648557D01*
G37*
G36*
X164904412Y-85483957D02*
X164944186Y-85496023D01*
X164980843Y-85515616D01*
X165012969Y-85541982D01*
X165039335Y-85574108D01*
X165058928Y-85610765D01*
X165070994Y-85650539D01*
X165075551Y-85696808D01*
X165075551Y-86311992D01*
X165070994Y-86358261D01*
X165058928Y-86398035D01*
X165039335Y-86434692D01*
X165012969Y-86466818D01*
X164980843Y-86493184D01*
X164944186Y-86512777D01*
X164904412Y-86524843D01*
X164858143Y-86529400D01*
X164142959Y-86529400D01*
X164096690Y-86524843D01*
X164056916Y-86512777D01*
X164020259Y-86493184D01*
X163988133Y-86466818D01*
X163961767Y-86434692D01*
X163942174Y-86398035D01*
X163930108Y-86358261D01*
X163925551Y-86311992D01*
X163925551Y-85696808D01*
X163930108Y-85650539D01*
X163942174Y-85610765D01*
X163961767Y-85574108D01*
X163988133Y-85541982D01*
X164020259Y-85515616D01*
X164056916Y-85496023D01*
X164096690Y-85483957D01*
X164142959Y-85479400D01*
X164858143Y-85479400D01*
X164904412Y-85483957D01*
X164904412Y-85483957D01*
G37*
G36*
X166654410Y-85483957D02*
X166694184Y-85496023D01*
X166730841Y-85515616D01*
X166762967Y-85541982D01*
X166789333Y-85574108D01*
X166808926Y-85610765D01*
X166820992Y-85650539D01*
X166825549Y-85696808D01*
X166825549Y-86311992D01*
X166820992Y-86358261D01*
X166808926Y-86398035D01*
X166789333Y-86434692D01*
X166762967Y-86466818D01*
X166730841Y-86493184D01*
X166694184Y-86512777D01*
X166654410Y-86524843D01*
X166608141Y-86529400D01*
X165892957Y-86529400D01*
X165846688Y-86524843D01*
X165806914Y-86512777D01*
X165770257Y-86493184D01*
X165738131Y-86466818D01*
X165711765Y-86434692D01*
X165692172Y-86398035D01*
X165680106Y-86358261D01*
X165675549Y-86311992D01*
X165675549Y-85696808D01*
X165680106Y-85650539D01*
X165692172Y-85610765D01*
X165711765Y-85574108D01*
X165738131Y-85541982D01*
X165770257Y-85515616D01*
X165806914Y-85496023D01*
X165846688Y-85483957D01*
X165892957Y-85479400D01*
X166608141Y-85479400D01*
X166654410Y-85483957D01*
X166654410Y-85483957D01*
G37*
G36*
X148562861Y-85041557D02*
X148602635Y-85053623D01*
X148639292Y-85073216D01*
X148671418Y-85099582D01*
X148697784Y-85131708D01*
X148717377Y-85168365D01*
X148729443Y-85208139D01*
X148734000Y-85254408D01*
X148734000Y-85969592D01*
X148729443Y-86015861D01*
X148717377Y-86055635D01*
X148697784Y-86092292D01*
X148671418Y-86124418D01*
X148639292Y-86150784D01*
X148602635Y-86170377D01*
X148562861Y-86182443D01*
X148516592Y-86187000D01*
X147901408Y-86187000D01*
X147855139Y-86182443D01*
X147815365Y-86170377D01*
X147778708Y-86150784D01*
X147746582Y-86124418D01*
X147720216Y-86092292D01*
X147700623Y-86055635D01*
X147688557Y-86015861D01*
X147684000Y-85969592D01*
X147684000Y-85254408D01*
X147688557Y-85208139D01*
X147700623Y-85168365D01*
X147720216Y-85131708D01*
X147746582Y-85099582D01*
X147778708Y-85073216D01*
X147815365Y-85053623D01*
X147855139Y-85041557D01*
X147901408Y-85037000D01*
X148516592Y-85037000D01*
X148562861Y-85041557D01*
X148562861Y-85041557D01*
G37*
G36*
X150159205Y-85041557D02*
X150198979Y-85053623D01*
X150235636Y-85073216D01*
X150267762Y-85099582D01*
X150294128Y-85131708D01*
X150313721Y-85168365D01*
X150325787Y-85208139D01*
X150330344Y-85254408D01*
X150330344Y-85969592D01*
X150325787Y-86015861D01*
X150313721Y-86055635D01*
X150294128Y-86092292D01*
X150267762Y-86124418D01*
X150235636Y-86150784D01*
X150198979Y-86170377D01*
X150159205Y-86182443D01*
X150112936Y-86187000D01*
X149497752Y-86187000D01*
X149451483Y-86182443D01*
X149411709Y-86170377D01*
X149375052Y-86150784D01*
X149342926Y-86124418D01*
X149316560Y-86092292D01*
X149296967Y-86055635D01*
X149284901Y-86015861D01*
X149280344Y-85969592D01*
X149280344Y-85254408D01*
X149284901Y-85208139D01*
X149296967Y-85168365D01*
X149316560Y-85131708D01*
X149342926Y-85099582D01*
X149375052Y-85073216D01*
X149411709Y-85053623D01*
X149451483Y-85041557D01*
X149497752Y-85037000D01*
X150112936Y-85037000D01*
X150159205Y-85041557D01*
X150159205Y-85041557D01*
G37*
G36*
X156436861Y-85041557D02*
X156476635Y-85053623D01*
X156513292Y-85073216D01*
X156545418Y-85099582D01*
X156571784Y-85131708D01*
X156591377Y-85168365D01*
X156603443Y-85208139D01*
X156608000Y-85254408D01*
X156608000Y-85969592D01*
X156603443Y-86015861D01*
X156591377Y-86055635D01*
X156571784Y-86092292D01*
X156545418Y-86124418D01*
X156513292Y-86150784D01*
X156476635Y-86170377D01*
X156436861Y-86182443D01*
X156390592Y-86187000D01*
X155775408Y-86187000D01*
X155729139Y-86182443D01*
X155689365Y-86170377D01*
X155652708Y-86150784D01*
X155620582Y-86124418D01*
X155594216Y-86092292D01*
X155574623Y-86055635D01*
X155562557Y-86015861D01*
X155558000Y-85969592D01*
X155558000Y-85254408D01*
X155562557Y-85208139D01*
X155574623Y-85168365D01*
X155594216Y-85131708D01*
X155620582Y-85099582D01*
X155652708Y-85073216D01*
X155689365Y-85053623D01*
X155729139Y-85041557D01*
X155775408Y-85037000D01*
X156390592Y-85037000D01*
X156436861Y-85041557D01*
X156436861Y-85041557D01*
G37*
G36*
X154849361Y-85041557D02*
X154889135Y-85053623D01*
X154925792Y-85073216D01*
X154957918Y-85099582D01*
X154984284Y-85131708D01*
X155003877Y-85168365D01*
X155015943Y-85208139D01*
X155020500Y-85254408D01*
X155020500Y-85969592D01*
X155015943Y-86015861D01*
X155003877Y-86055635D01*
X154984284Y-86092292D01*
X154957918Y-86124418D01*
X154925792Y-86150784D01*
X154889135Y-86170377D01*
X154849361Y-86182443D01*
X154803092Y-86187000D01*
X154187908Y-86187000D01*
X154141639Y-86182443D01*
X154101865Y-86170377D01*
X154065208Y-86150784D01*
X154033082Y-86124418D01*
X154006716Y-86092292D01*
X153987123Y-86055635D01*
X153975057Y-86015861D01*
X153970500Y-85969592D01*
X153970500Y-85254408D01*
X153975057Y-85208139D01*
X153987123Y-85168365D01*
X154006716Y-85131708D01*
X154033082Y-85099582D01*
X154065208Y-85073216D01*
X154101865Y-85053623D01*
X154141639Y-85041557D01*
X154187908Y-85037000D01*
X154803092Y-85037000D01*
X154849361Y-85041557D01*
X154849361Y-85041557D01*
G37*
G36*
X153287261Y-85041557D02*
X153327035Y-85053623D01*
X153363692Y-85073216D01*
X153395818Y-85099582D01*
X153422184Y-85131708D01*
X153441777Y-85168365D01*
X153453843Y-85208139D01*
X153458400Y-85254408D01*
X153458400Y-85969592D01*
X153453843Y-86015861D01*
X153441777Y-86055635D01*
X153422184Y-86092292D01*
X153395818Y-86124418D01*
X153363692Y-86150784D01*
X153327035Y-86170377D01*
X153287261Y-86182443D01*
X153240992Y-86187000D01*
X152625808Y-86187000D01*
X152579539Y-86182443D01*
X152539765Y-86170377D01*
X152503108Y-86150784D01*
X152470982Y-86124418D01*
X152444616Y-86092292D01*
X152425023Y-86055635D01*
X152412957Y-86015861D01*
X152408400Y-85969592D01*
X152408400Y-85254408D01*
X152412957Y-85208139D01*
X152425023Y-85168365D01*
X152444616Y-85131708D01*
X152470982Y-85099582D01*
X152503108Y-85073216D01*
X152539765Y-85053623D01*
X152579539Y-85041557D01*
X152625808Y-85037000D01*
X153240992Y-85037000D01*
X153287261Y-85041557D01*
X153287261Y-85041557D01*
G37*
G36*
X151737861Y-85041557D02*
X151777635Y-85053623D01*
X151814292Y-85073216D01*
X151846418Y-85099582D01*
X151872784Y-85131708D01*
X151892377Y-85168365D01*
X151904443Y-85208139D01*
X151909000Y-85254408D01*
X151909000Y-85969592D01*
X151904443Y-86015861D01*
X151892377Y-86055635D01*
X151872784Y-86092292D01*
X151846418Y-86124418D01*
X151814292Y-86150784D01*
X151777635Y-86170377D01*
X151737861Y-86182443D01*
X151691592Y-86187000D01*
X151076408Y-86187000D01*
X151030139Y-86182443D01*
X150990365Y-86170377D01*
X150953708Y-86150784D01*
X150921582Y-86124418D01*
X150895216Y-86092292D01*
X150875623Y-86055635D01*
X150863557Y-86015861D01*
X150859000Y-85969592D01*
X150859000Y-85254408D01*
X150863557Y-85208139D01*
X150875623Y-85168365D01*
X150895216Y-85131708D01*
X150921582Y-85099582D01*
X150953708Y-85073216D01*
X150990365Y-85053623D01*
X151030139Y-85041557D01*
X151076408Y-85037000D01*
X151691592Y-85037000D01*
X151737861Y-85041557D01*
X151737861Y-85041557D01*
G37*
G36*
X139736570Y-84739557D02*
X139776344Y-84751623D01*
X139813001Y-84771216D01*
X139845127Y-84797582D01*
X139871493Y-84829708D01*
X139891086Y-84866365D01*
X139903152Y-84906139D01*
X139907709Y-84952408D01*
X139907709Y-85667592D01*
X139903152Y-85713861D01*
X139891086Y-85753635D01*
X139871493Y-85790292D01*
X139845127Y-85822418D01*
X139813001Y-85848784D01*
X139776344Y-85868377D01*
X139736570Y-85880443D01*
X139690301Y-85885000D01*
X139075117Y-85885000D01*
X139028848Y-85880443D01*
X138989074Y-85868377D01*
X138952417Y-85848784D01*
X138920291Y-85822418D01*
X138893925Y-85790292D01*
X138874332Y-85753635D01*
X138862266Y-85713861D01*
X138857709Y-85667592D01*
X138857709Y-84952408D01*
X138862266Y-84906139D01*
X138874332Y-84866365D01*
X138893925Y-84829708D01*
X138920291Y-84797582D01*
X138952417Y-84771216D01*
X138989074Y-84751623D01*
X139028848Y-84739557D01*
X139075117Y-84735000D01*
X139690301Y-84735000D01*
X139736570Y-84739557D01*
X139736570Y-84739557D01*
G37*
G36*
X159459461Y-83906515D02*
X159499235Y-83918581D01*
X159535892Y-83938174D01*
X159568018Y-83964540D01*
X159594384Y-83996666D01*
X159613977Y-84033323D01*
X159626043Y-84073097D01*
X159630600Y-84119366D01*
X159630600Y-84834550D01*
X159626043Y-84880819D01*
X159613977Y-84920593D01*
X159594384Y-84957250D01*
X159568018Y-84989376D01*
X159535892Y-85015742D01*
X159499235Y-85035335D01*
X159459461Y-85047401D01*
X159413192Y-85051958D01*
X158798008Y-85051958D01*
X158751739Y-85047401D01*
X158711965Y-85035335D01*
X158675308Y-85015742D01*
X158643182Y-84989376D01*
X158616816Y-84957250D01*
X158597223Y-84920593D01*
X158585157Y-84880819D01*
X158580600Y-84834550D01*
X158580600Y-84119366D01*
X158585157Y-84073097D01*
X158597223Y-84033323D01*
X158616816Y-83996666D01*
X158643182Y-83964540D01*
X158675308Y-83938174D01*
X158711965Y-83918581D01*
X158751739Y-83906515D01*
X158798008Y-83901958D01*
X159413192Y-83901958D01*
X159459461Y-83906515D01*
X159459461Y-83906515D01*
G37*
G36*
X161008861Y-83906514D02*
X161048635Y-83918580D01*
X161085292Y-83938173D01*
X161117418Y-83964539D01*
X161143784Y-83996665D01*
X161163377Y-84033322D01*
X161175443Y-84073096D01*
X161180000Y-84119365D01*
X161180000Y-84834549D01*
X161175443Y-84880818D01*
X161163377Y-84920592D01*
X161143784Y-84957249D01*
X161117418Y-84989375D01*
X161085292Y-85015741D01*
X161048635Y-85035334D01*
X161008861Y-85047400D01*
X160962592Y-85051957D01*
X160347408Y-85051957D01*
X160301139Y-85047400D01*
X160261365Y-85035334D01*
X160224708Y-85015741D01*
X160192582Y-84989375D01*
X160166216Y-84957249D01*
X160146623Y-84920592D01*
X160134557Y-84880818D01*
X160130000Y-84834549D01*
X160130000Y-84119365D01*
X160134557Y-84073096D01*
X160146623Y-84033322D01*
X160166216Y-83996665D01*
X160192582Y-83964539D01*
X160224708Y-83938173D01*
X160261365Y-83918580D01*
X160301139Y-83906514D01*
X160347408Y-83901957D01*
X160962592Y-83901957D01*
X161008861Y-83906514D01*
X161008861Y-83906514D01*
G37*
G36*
X162556012Y-83898557D02*
X162595786Y-83910623D01*
X162632443Y-83930216D01*
X162664569Y-83956582D01*
X162690935Y-83988708D01*
X162710528Y-84025365D01*
X162722594Y-84065139D01*
X162727151Y-84111408D01*
X162727151Y-84826592D01*
X162722594Y-84872861D01*
X162710528Y-84912635D01*
X162690935Y-84949292D01*
X162664569Y-84981418D01*
X162632443Y-85007784D01*
X162595786Y-85027377D01*
X162556012Y-85039443D01*
X162509743Y-85044000D01*
X161894559Y-85044000D01*
X161848290Y-85039443D01*
X161808516Y-85027377D01*
X161771859Y-85007784D01*
X161739733Y-84981418D01*
X161713367Y-84949292D01*
X161693774Y-84912635D01*
X161681708Y-84872861D01*
X161677151Y-84826592D01*
X161677151Y-84111408D01*
X161681708Y-84065139D01*
X161693774Y-84025365D01*
X161713367Y-83988708D01*
X161739733Y-83956582D01*
X161771859Y-83930216D01*
X161808516Y-83910623D01*
X161848290Y-83898557D01*
X161894559Y-83894000D01*
X162509743Y-83894000D01*
X162556012Y-83898557D01*
X162556012Y-83898557D01*
G37*
G36*
X164904412Y-83959957D02*
X164944186Y-83972023D01*
X164980843Y-83991616D01*
X165012969Y-84017982D01*
X165039335Y-84050108D01*
X165058928Y-84086765D01*
X165070994Y-84126539D01*
X165075551Y-84172808D01*
X165075551Y-84787992D01*
X165070994Y-84834261D01*
X165058928Y-84874035D01*
X165039335Y-84910692D01*
X165012969Y-84942818D01*
X164980843Y-84969184D01*
X164944186Y-84988777D01*
X164904412Y-85000843D01*
X164858143Y-85005400D01*
X164142959Y-85005400D01*
X164096690Y-85000843D01*
X164056916Y-84988777D01*
X164020259Y-84969184D01*
X163988133Y-84942818D01*
X163961767Y-84910692D01*
X163942174Y-84874035D01*
X163930108Y-84834261D01*
X163925551Y-84787992D01*
X163925551Y-84172808D01*
X163930108Y-84126539D01*
X163942174Y-84086765D01*
X163961767Y-84050108D01*
X163988133Y-84017982D01*
X164020259Y-83991616D01*
X164056916Y-83972023D01*
X164096690Y-83959957D01*
X164142959Y-83955400D01*
X164858143Y-83955400D01*
X164904412Y-83959957D01*
X164904412Y-83959957D01*
G37*
G36*
X166654410Y-83959957D02*
X166694184Y-83972023D01*
X166730841Y-83991616D01*
X166762967Y-84017982D01*
X166789333Y-84050108D01*
X166808926Y-84086765D01*
X166820992Y-84126539D01*
X166825549Y-84172808D01*
X166825549Y-84787992D01*
X166820992Y-84834261D01*
X166808926Y-84874035D01*
X166789333Y-84910692D01*
X166762967Y-84942818D01*
X166730841Y-84969184D01*
X166694184Y-84988777D01*
X166654410Y-85000843D01*
X166608141Y-85005400D01*
X165892957Y-85005400D01*
X165846688Y-85000843D01*
X165806914Y-84988777D01*
X165770257Y-84969184D01*
X165738131Y-84942818D01*
X165711765Y-84910692D01*
X165692172Y-84874035D01*
X165680106Y-84834261D01*
X165675549Y-84787992D01*
X165675549Y-84172808D01*
X165680106Y-84126539D01*
X165692172Y-84086765D01*
X165711765Y-84050108D01*
X165738131Y-84017982D01*
X165770257Y-83991616D01*
X165806914Y-83972023D01*
X165846688Y-83959957D01*
X165892957Y-83955400D01*
X166608141Y-83955400D01*
X166654410Y-83959957D01*
X166654410Y-83959957D01*
G37*
G36*
X122724000Y-84048000D02*
X121624000Y-84048000D01*
X121624000Y-82948000D01*
X122724000Y-82948000D01*
X122724000Y-84048000D01*
X122724000Y-84048000D01*
G37*
G36*
X147760000Y-83999000D02*
X145660000Y-83999000D01*
X145660000Y-82399000D01*
X147760000Y-82399000D01*
X147760000Y-83999000D01*
X147760000Y-83999000D01*
G37*
G36*
X129797000Y-83796000D02*
X128897000Y-83796000D01*
X128897000Y-82796000D01*
X129797000Y-82796000D01*
X129797000Y-83796000D01*
X129797000Y-83796000D01*
G37*
G36*
X127897000Y-83796000D02*
X126997000Y-83796000D01*
X126997000Y-82796000D01*
X127897000Y-82796000D01*
X127897000Y-83796000D01*
X127897000Y-83796000D01*
G37*
G36*
X131544861Y-82497557D02*
X131584635Y-82509623D01*
X131621292Y-82529216D01*
X131653418Y-82555582D01*
X131679784Y-82587708D01*
X131699377Y-82624365D01*
X131711443Y-82664139D01*
X131716000Y-82710408D01*
X131716000Y-83425592D01*
X131711443Y-83471861D01*
X131699377Y-83511635D01*
X131679784Y-83548292D01*
X131653418Y-83580418D01*
X131621292Y-83606784D01*
X131584635Y-83626377D01*
X131544861Y-83638443D01*
X131498592Y-83643000D01*
X130883408Y-83643000D01*
X130837139Y-83638443D01*
X130797365Y-83626377D01*
X130760708Y-83606784D01*
X130728582Y-83580418D01*
X130702216Y-83548292D01*
X130682623Y-83511635D01*
X130670557Y-83471861D01*
X130666000Y-83425592D01*
X130666000Y-82710408D01*
X130670557Y-82664139D01*
X130682623Y-82624365D01*
X130702216Y-82587708D01*
X130728582Y-82555582D01*
X130760708Y-82529216D01*
X130797365Y-82509623D01*
X130837139Y-82497557D01*
X130883408Y-82493000D01*
X131498592Y-82493000D01*
X131544861Y-82497557D01*
X131544861Y-82497557D01*
G37*
G36*
X124432861Y-82497557D02*
X124472635Y-82509623D01*
X124509292Y-82529216D01*
X124541418Y-82555582D01*
X124567784Y-82587708D01*
X124587377Y-82624365D01*
X124599443Y-82664139D01*
X124604000Y-82710408D01*
X124604000Y-83425592D01*
X124599443Y-83471861D01*
X124587377Y-83511635D01*
X124567784Y-83548292D01*
X124541418Y-83580418D01*
X124509292Y-83606784D01*
X124472635Y-83626377D01*
X124432861Y-83638443D01*
X124386592Y-83643000D01*
X123771408Y-83643000D01*
X123725139Y-83638443D01*
X123685365Y-83626377D01*
X123648708Y-83606784D01*
X123616582Y-83580418D01*
X123590216Y-83548292D01*
X123570623Y-83511635D01*
X123558557Y-83471861D01*
X123554000Y-83425592D01*
X123554000Y-82710408D01*
X123558557Y-82664139D01*
X123570623Y-82624365D01*
X123590216Y-82587708D01*
X123616582Y-82555582D01*
X123648708Y-82529216D01*
X123685365Y-82509623D01*
X123725139Y-82497557D01*
X123771408Y-82493000D01*
X124386592Y-82493000D01*
X124432861Y-82497557D01*
X124432861Y-82497557D01*
G37*
G36*
X126083861Y-82497557D02*
X126123635Y-82509623D01*
X126160292Y-82529216D01*
X126192418Y-82555582D01*
X126218784Y-82587708D01*
X126238377Y-82624365D01*
X126250443Y-82664139D01*
X126255000Y-82710408D01*
X126255000Y-83425592D01*
X126250443Y-83471861D01*
X126238377Y-83511635D01*
X126218784Y-83548292D01*
X126192418Y-83580418D01*
X126160292Y-83606784D01*
X126123635Y-83626377D01*
X126083861Y-83638443D01*
X126037592Y-83643000D01*
X125422408Y-83643000D01*
X125376139Y-83638443D01*
X125336365Y-83626377D01*
X125299708Y-83606784D01*
X125267582Y-83580418D01*
X125241216Y-83548292D01*
X125221623Y-83511635D01*
X125209557Y-83471861D01*
X125205000Y-83425592D01*
X125205000Y-82710408D01*
X125209557Y-82664139D01*
X125221623Y-82624365D01*
X125241216Y-82587708D01*
X125267582Y-82555582D01*
X125299708Y-82529216D01*
X125336365Y-82509623D01*
X125376139Y-82497557D01*
X125422408Y-82493000D01*
X126037592Y-82493000D01*
X126083861Y-82497557D01*
X126083861Y-82497557D01*
G37*
G36*
X165079151Y-83394956D02*
X158779151Y-83394956D01*
X158779151Y-82094956D01*
X165079151Y-82094956D01*
X165079151Y-83394956D01*
X165079151Y-83394956D01*
G37*
G36*
X143228861Y-81838557D02*
X143268635Y-81850623D01*
X143305292Y-81870216D01*
X143337418Y-81896582D01*
X143363784Y-81928708D01*
X143383377Y-81965365D01*
X143395443Y-82005139D01*
X143400000Y-82051408D01*
X143400000Y-82766592D01*
X143395443Y-82812861D01*
X143383377Y-82852635D01*
X143363784Y-82889292D01*
X143337418Y-82921418D01*
X143305292Y-82947784D01*
X143268635Y-82967377D01*
X143228861Y-82979443D01*
X143182592Y-82984000D01*
X142567408Y-82984000D01*
X142521139Y-82979443D01*
X142481365Y-82967377D01*
X142444708Y-82947784D01*
X142412582Y-82921418D01*
X142386216Y-82889292D01*
X142366623Y-82852635D01*
X142354557Y-82812861D01*
X142350000Y-82766592D01*
X142350000Y-82051408D01*
X142354557Y-82005139D01*
X142366623Y-81965365D01*
X142386216Y-81928708D01*
X142412582Y-81896582D01*
X142444708Y-81870216D01*
X142481365Y-81850623D01*
X142521139Y-81838557D01*
X142567408Y-81834000D01*
X143182592Y-81834000D01*
X143228861Y-81838557D01*
X143228861Y-81838557D01*
G37*
G36*
X144879861Y-81838557D02*
X144919635Y-81850623D01*
X144956292Y-81870216D01*
X144988418Y-81896582D01*
X145014784Y-81928708D01*
X145034377Y-81965365D01*
X145046443Y-82005139D01*
X145051000Y-82051408D01*
X145051000Y-82766592D01*
X145046443Y-82812861D01*
X145034377Y-82852635D01*
X145014784Y-82889292D01*
X144988418Y-82921418D01*
X144956292Y-82947784D01*
X144919635Y-82967377D01*
X144879861Y-82979443D01*
X144833592Y-82984000D01*
X144218408Y-82984000D01*
X144172139Y-82979443D01*
X144132365Y-82967377D01*
X144095708Y-82947784D01*
X144063582Y-82921418D01*
X144037216Y-82889292D01*
X144017623Y-82852635D01*
X144005557Y-82812861D01*
X144001000Y-82766592D01*
X144001000Y-82051408D01*
X144005557Y-82005139D01*
X144017623Y-81965365D01*
X144037216Y-81928708D01*
X144063582Y-81896582D01*
X144095708Y-81870216D01*
X144132365Y-81850623D01*
X144172139Y-81838557D01*
X144218408Y-81834000D01*
X144833592Y-81834000D01*
X144879861Y-81838557D01*
X144879861Y-81838557D01*
G37*
G36*
X154060000Y-82849000D02*
X151960000Y-82849000D01*
X151960000Y-78949000D01*
X154060000Y-78949000D01*
X154060000Y-82849000D01*
X154060000Y-82849000D01*
G37*
G36*
X175867861Y-81140057D02*
X175907635Y-81152123D01*
X175944292Y-81171716D01*
X175976418Y-81198082D01*
X176002784Y-81230208D01*
X176022377Y-81266865D01*
X176034443Y-81306639D01*
X176039000Y-81352908D01*
X176039000Y-82068092D01*
X176034443Y-82114361D01*
X176022377Y-82154135D01*
X176002784Y-82190792D01*
X175976418Y-82222918D01*
X175944292Y-82249284D01*
X175907635Y-82268877D01*
X175867861Y-82280943D01*
X175821592Y-82285500D01*
X175206408Y-82285500D01*
X175160139Y-82280943D01*
X175120365Y-82268877D01*
X175083708Y-82249284D01*
X175051582Y-82222918D01*
X175025216Y-82190792D01*
X175005623Y-82154135D01*
X174993557Y-82114361D01*
X174989000Y-82068092D01*
X174989000Y-81352908D01*
X174993557Y-81306639D01*
X175005623Y-81266865D01*
X175025216Y-81230208D01*
X175051582Y-81198082D01*
X175083708Y-81171716D01*
X175120365Y-81152123D01*
X175160139Y-81140057D01*
X175206408Y-81135500D01*
X175821592Y-81135500D01*
X175867861Y-81140057D01*
X175867861Y-81140057D01*
G37*
G36*
X126083861Y-80747557D02*
X126123635Y-80759623D01*
X126160292Y-80779216D01*
X126192418Y-80805582D01*
X126218784Y-80837708D01*
X126238377Y-80874365D01*
X126250443Y-80914139D01*
X126255000Y-80960408D01*
X126255000Y-81675592D01*
X126250443Y-81721861D01*
X126238377Y-81761635D01*
X126218784Y-81798292D01*
X126192418Y-81830418D01*
X126160292Y-81856784D01*
X126123635Y-81876377D01*
X126083861Y-81888443D01*
X126037592Y-81893000D01*
X125422408Y-81893000D01*
X125376139Y-81888443D01*
X125336365Y-81876377D01*
X125299708Y-81856784D01*
X125267582Y-81830418D01*
X125241216Y-81798292D01*
X125221623Y-81761635D01*
X125209557Y-81721861D01*
X125205000Y-81675592D01*
X125205000Y-80960408D01*
X125209557Y-80914139D01*
X125221623Y-80874365D01*
X125241216Y-80837708D01*
X125267582Y-80805582D01*
X125299708Y-80779216D01*
X125336365Y-80759623D01*
X125376139Y-80747557D01*
X125422408Y-80743000D01*
X126037592Y-80743000D01*
X126083861Y-80747557D01*
X126083861Y-80747557D01*
G37*
G36*
X124432861Y-80747557D02*
X124472635Y-80759623D01*
X124509292Y-80779216D01*
X124541418Y-80805582D01*
X124567784Y-80837708D01*
X124587377Y-80874365D01*
X124599443Y-80914139D01*
X124604000Y-80960408D01*
X124604000Y-81675592D01*
X124599443Y-81721861D01*
X124587377Y-81761635D01*
X124567784Y-81798292D01*
X124541418Y-81830418D01*
X124509292Y-81856784D01*
X124472635Y-81876377D01*
X124432861Y-81888443D01*
X124386592Y-81893000D01*
X123771408Y-81893000D01*
X123725139Y-81888443D01*
X123685365Y-81876377D01*
X123648708Y-81856784D01*
X123616582Y-81830418D01*
X123590216Y-81798292D01*
X123570623Y-81761635D01*
X123558557Y-81721861D01*
X123554000Y-81675592D01*
X123554000Y-80960408D01*
X123558557Y-80914139D01*
X123570623Y-80874365D01*
X123590216Y-80837708D01*
X123616582Y-80805582D01*
X123648708Y-80779216D01*
X123685365Y-80759623D01*
X123725139Y-80747557D01*
X123771408Y-80743000D01*
X124386592Y-80743000D01*
X124432861Y-80747557D01*
X124432861Y-80747557D01*
G37*
G36*
X131544861Y-80747557D02*
X131584635Y-80759623D01*
X131621292Y-80779216D01*
X131653418Y-80805582D01*
X131679784Y-80837708D01*
X131699377Y-80874365D01*
X131711443Y-80914139D01*
X131716000Y-80960408D01*
X131716000Y-81675592D01*
X131711443Y-81721861D01*
X131699377Y-81761635D01*
X131679784Y-81798292D01*
X131653418Y-81830418D01*
X131621292Y-81856784D01*
X131584635Y-81876377D01*
X131544861Y-81888443D01*
X131498592Y-81893000D01*
X130883408Y-81893000D01*
X130837139Y-81888443D01*
X130797365Y-81876377D01*
X130760708Y-81856784D01*
X130728582Y-81830418D01*
X130702216Y-81798292D01*
X130682623Y-81761635D01*
X130670557Y-81721861D01*
X130666000Y-81675592D01*
X130666000Y-80960408D01*
X130670557Y-80914139D01*
X130682623Y-80874365D01*
X130702216Y-80837708D01*
X130728582Y-80805582D01*
X130760708Y-80779216D01*
X130797365Y-80759623D01*
X130837139Y-80747557D01*
X130883408Y-80743000D01*
X131498592Y-80743000D01*
X131544861Y-80747557D01*
X131544861Y-80747557D01*
G37*
G36*
X140942500Y-81863000D02*
X138457500Y-81863000D01*
X138457500Y-80773000D01*
X140942500Y-80773000D01*
X140942500Y-81863000D01*
X140942500Y-81863000D01*
G37*
G36*
X128847000Y-81796000D02*
X127947000Y-81796000D01*
X127947000Y-80796000D01*
X128847000Y-80796000D01*
X128847000Y-81796000D01*
X128847000Y-81796000D01*
G37*
G36*
X147760000Y-81699000D02*
X145660000Y-81699000D01*
X145660000Y-80099000D01*
X147760000Y-80099000D01*
X147760000Y-81699000D01*
X147760000Y-81699000D01*
G37*
G36*
X166829151Y-81644956D02*
X165529151Y-81644956D01*
X165529151Y-75344956D01*
X166829151Y-75344956D01*
X166829151Y-81644956D01*
X166829151Y-81644956D01*
G37*
G36*
X158329151Y-81644956D02*
X157029151Y-81644956D01*
X157029151Y-75344956D01*
X158329151Y-75344956D01*
X158329151Y-81644956D01*
X158329151Y-81644956D01*
G37*
G36*
X122724000Y-81548000D02*
X121624000Y-81548000D01*
X121624000Y-80448000D01*
X122724000Y-80448000D01*
X122724000Y-81548000D01*
X122724000Y-81548000D01*
G37*
G36*
X144879861Y-80088557D02*
X144919635Y-80100623D01*
X144956292Y-80120216D01*
X144988418Y-80146582D01*
X145014784Y-80178708D01*
X145034377Y-80215365D01*
X145046443Y-80255139D01*
X145051000Y-80301408D01*
X145051000Y-81016592D01*
X145046443Y-81062861D01*
X145034377Y-81102635D01*
X145014784Y-81139292D01*
X144988418Y-81171418D01*
X144956292Y-81197784D01*
X144919635Y-81217377D01*
X144879861Y-81229443D01*
X144833592Y-81234000D01*
X144218408Y-81234000D01*
X144172139Y-81229443D01*
X144132365Y-81217377D01*
X144095708Y-81197784D01*
X144063582Y-81171418D01*
X144037216Y-81139292D01*
X144017623Y-81102635D01*
X144005557Y-81062861D01*
X144001000Y-81016592D01*
X144001000Y-80301408D01*
X144005557Y-80255139D01*
X144017623Y-80215365D01*
X144037216Y-80178708D01*
X144063582Y-80146582D01*
X144095708Y-80120216D01*
X144132365Y-80100623D01*
X144172139Y-80088557D01*
X144218408Y-80084000D01*
X144833592Y-80084000D01*
X144879861Y-80088557D01*
X144879861Y-80088557D01*
G37*
G36*
X143228861Y-80088557D02*
X143268635Y-80100623D01*
X143305292Y-80120216D01*
X143337418Y-80146582D01*
X143363784Y-80178708D01*
X143383377Y-80215365D01*
X143395443Y-80255139D01*
X143400000Y-80301408D01*
X143400000Y-81016592D01*
X143395443Y-81062861D01*
X143383377Y-81102635D01*
X143363784Y-81139292D01*
X143337418Y-81171418D01*
X143305292Y-81197784D01*
X143268635Y-81217377D01*
X143228861Y-81229443D01*
X143182592Y-81234000D01*
X142567408Y-81234000D01*
X142521139Y-81229443D01*
X142481365Y-81217377D01*
X142444708Y-81197784D01*
X142412582Y-81171418D01*
X142386216Y-81139292D01*
X142366623Y-81102635D01*
X142354557Y-81062861D01*
X142350000Y-81016592D01*
X142350000Y-80301408D01*
X142354557Y-80255139D01*
X142366623Y-80215365D01*
X142386216Y-80178708D01*
X142412582Y-80146582D01*
X142444708Y-80120216D01*
X142481365Y-80100623D01*
X142521139Y-80088557D01*
X142567408Y-80084000D01*
X143182592Y-80084000D01*
X143228861Y-80088557D01*
X143228861Y-80088557D01*
G37*
G36*
X169997696Y-77326431D02*
X170035867Y-77338010D01*
X170071048Y-77356814D01*
X170101880Y-77382118D01*
X170101881Y-77382119D01*
X170127187Y-77412953D01*
X170127188Y-77412955D01*
X170130699Y-77417233D01*
X170144561Y-77431095D01*
X170160860Y-77441986D01*
X170178972Y-77449488D01*
X170198198Y-77453312D01*
X170217802Y-77453312D01*
X170237029Y-77449488D01*
X170255140Y-77441986D01*
X170271439Y-77431095D01*
X170285301Y-77417233D01*
X170314119Y-77382118D01*
X170344951Y-77356814D01*
X170380132Y-77338010D01*
X170418305Y-77326430D01*
X170457999Y-77322521D01*
X170458000Y-77322521D01*
X170497696Y-77326431D01*
X170535867Y-77338010D01*
X170571048Y-77356814D01*
X170601880Y-77382118D01*
X170601881Y-77382119D01*
X170627187Y-77412953D01*
X170627188Y-77412955D01*
X170630699Y-77417233D01*
X170644561Y-77431095D01*
X170660860Y-77441986D01*
X170678972Y-77449488D01*
X170698198Y-77453312D01*
X170717802Y-77453312D01*
X170737029Y-77449488D01*
X170755140Y-77441986D01*
X170771439Y-77431095D01*
X170785301Y-77417233D01*
X170814119Y-77382118D01*
X170844951Y-77356814D01*
X170880132Y-77338010D01*
X170918305Y-77326430D01*
X170957999Y-77322521D01*
X170958000Y-77322521D01*
X170997696Y-77326431D01*
X171035867Y-77338010D01*
X171071048Y-77356814D01*
X171101880Y-77382118D01*
X171101881Y-77382119D01*
X171127187Y-77412953D01*
X171127188Y-77412955D01*
X171130699Y-77417233D01*
X171144561Y-77431095D01*
X171160860Y-77441986D01*
X171178972Y-77449488D01*
X171198198Y-77453312D01*
X171217802Y-77453312D01*
X171237029Y-77449488D01*
X171255140Y-77441986D01*
X171271439Y-77431095D01*
X171285301Y-77417233D01*
X171314119Y-77382118D01*
X171344951Y-77356814D01*
X171380132Y-77338010D01*
X171418305Y-77326430D01*
X171457999Y-77322521D01*
X171458000Y-77322521D01*
X171497696Y-77326431D01*
X171535867Y-77338010D01*
X171571048Y-77356814D01*
X171601883Y-77382120D01*
X171630701Y-77417234D01*
X171644563Y-77431096D01*
X171660863Y-77441987D01*
X171678974Y-77449488D01*
X171698201Y-77453313D01*
X171717804Y-77453312D01*
X171737031Y-77449488D01*
X171755142Y-77441985D01*
X171771441Y-77431094D01*
X171785302Y-77417233D01*
X171788813Y-77412955D01*
X171788814Y-77412953D01*
X171798259Y-77401445D01*
X171814120Y-77382118D01*
X171844952Y-77356814D01*
X171880133Y-77338010D01*
X171918304Y-77326431D01*
X171958000Y-77322521D01*
X171958001Y-77322521D01*
X171997695Y-77326430D01*
X172035868Y-77338010D01*
X172071049Y-77356814D01*
X172101882Y-77382118D01*
X172127186Y-77412951D01*
X172145990Y-77448132D01*
X172157570Y-77486305D01*
X172160500Y-77516056D01*
X172160500Y-78231944D01*
X172157570Y-78261695D01*
X172145990Y-78299868D01*
X172127186Y-78335049D01*
X172099202Y-78369146D01*
X172091287Y-78377062D01*
X172080396Y-78393362D01*
X172072894Y-78411474D01*
X172069070Y-78430700D01*
X172069071Y-78450304D01*
X172072896Y-78469530D01*
X172080398Y-78487642D01*
X172091289Y-78503941D01*
X172105151Y-78517802D01*
X172121451Y-78528693D01*
X172139563Y-78536195D01*
X172168589Y-78540500D01*
X172684944Y-78540500D01*
X172714695Y-78543430D01*
X172752868Y-78555010D01*
X172788049Y-78573814D01*
X172818882Y-78599118D01*
X172844186Y-78629951D01*
X172862990Y-78665132D01*
X172874570Y-78703305D01*
X172878480Y-78743000D01*
X172874570Y-78782695D01*
X172862990Y-78820868D01*
X172844186Y-78856049D01*
X172818881Y-78886882D01*
X172783767Y-78915700D01*
X172769905Y-78929562D01*
X172759014Y-78945861D01*
X172751513Y-78963973D01*
X172747688Y-78983199D01*
X172747689Y-79002803D01*
X172751513Y-79022030D01*
X172759015Y-79040141D01*
X172769907Y-79056440D01*
X172783767Y-79070300D01*
X172818881Y-79099118D01*
X172844186Y-79129951D01*
X172862990Y-79165132D01*
X172874570Y-79203305D01*
X172878480Y-79243000D01*
X172874570Y-79282695D01*
X172862990Y-79320868D01*
X172844186Y-79356049D01*
X172818881Y-79386882D01*
X172783767Y-79415700D01*
X172769905Y-79429562D01*
X172759014Y-79445861D01*
X172751513Y-79463973D01*
X172747688Y-79483199D01*
X172747689Y-79502803D01*
X172751513Y-79522030D01*
X172759015Y-79540141D01*
X172769907Y-79556440D01*
X172783767Y-79570300D01*
X172818881Y-79599118D01*
X172844186Y-79629951D01*
X172862990Y-79665132D01*
X172874570Y-79703305D01*
X172878480Y-79743000D01*
X172874570Y-79782695D01*
X172862990Y-79820868D01*
X172844186Y-79856049D01*
X172818882Y-79886882D01*
X172788049Y-79912186D01*
X172752868Y-79930990D01*
X172714695Y-79942570D01*
X172684944Y-79945500D01*
X172260500Y-79945500D01*
X172240991Y-79947421D01*
X172222232Y-79953112D01*
X172204943Y-79962353D01*
X172189789Y-79974789D01*
X172177353Y-79989943D01*
X172168112Y-80007232D01*
X172162421Y-80025991D01*
X172160500Y-80045500D01*
X172160500Y-81171500D01*
X171751385Y-81171500D01*
X171747888Y-81159974D01*
X171738647Y-81142685D01*
X171726211Y-81127531D01*
X171711057Y-81115095D01*
X171693768Y-81105854D01*
X171675009Y-81100163D01*
X171655500Y-81098242D01*
X171635991Y-81100163D01*
X171617232Y-81105854D01*
X171599943Y-81115095D01*
X171592060Y-81120942D01*
X171571049Y-81138186D01*
X171535868Y-81156990D01*
X171497695Y-81168570D01*
X171458001Y-81172479D01*
X171458000Y-81172479D01*
X171418304Y-81168569D01*
X171380133Y-81156990D01*
X171344954Y-81138187D01*
X171344952Y-81138186D01*
X171314120Y-81112882D01*
X171288814Y-81082046D01*
X171288813Y-81082045D01*
X171285302Y-81077767D01*
X171271440Y-81063905D01*
X171255141Y-81053014D01*
X171237029Y-81045512D01*
X171217803Y-81041688D01*
X171198199Y-81041688D01*
X171178972Y-81045512D01*
X171160861Y-81053014D01*
X171144562Y-81063905D01*
X171130701Y-81077766D01*
X171101882Y-81112881D01*
X171071049Y-81138186D01*
X171035868Y-81156990D01*
X170997695Y-81168570D01*
X170958001Y-81172479D01*
X170958000Y-81172479D01*
X170918304Y-81168569D01*
X170880133Y-81156990D01*
X170844954Y-81138187D01*
X170844952Y-81138186D01*
X170814120Y-81112882D01*
X170788814Y-81082046D01*
X170788813Y-81082045D01*
X170785302Y-81077767D01*
X170771440Y-81063905D01*
X170755141Y-81053014D01*
X170737029Y-81045512D01*
X170717803Y-81041688D01*
X170698199Y-81041688D01*
X170678972Y-81045512D01*
X170660861Y-81053014D01*
X170644562Y-81063905D01*
X170630701Y-81077766D01*
X170601882Y-81112881D01*
X170571049Y-81138186D01*
X170535868Y-81156990D01*
X170497695Y-81168570D01*
X170458001Y-81172479D01*
X170458000Y-81172479D01*
X170418304Y-81168569D01*
X170380133Y-81156990D01*
X170344954Y-81138187D01*
X170344952Y-81138186D01*
X170314120Y-81112882D01*
X170288814Y-81082046D01*
X170288813Y-81082045D01*
X170285302Y-81077767D01*
X170271440Y-81063905D01*
X170255141Y-81053014D01*
X170237029Y-81045512D01*
X170217803Y-81041688D01*
X170198199Y-81041688D01*
X170178972Y-81045512D01*
X170160861Y-81053014D01*
X170144562Y-81063905D01*
X170130701Y-81077766D01*
X170101883Y-81112880D01*
X170071048Y-81138186D01*
X170071046Y-81138187D01*
X170035867Y-81156990D01*
X169997696Y-81168569D01*
X169958000Y-81172479D01*
X169957999Y-81172479D01*
X169918305Y-81168570D01*
X169880132Y-81156990D01*
X169844951Y-81138186D01*
X169814119Y-81112882D01*
X169788814Y-81082048D01*
X169770010Y-81046867D01*
X169758430Y-81008694D01*
X169755500Y-80978944D01*
X169755501Y-80263056D01*
X169758431Y-80233305D01*
X169770011Y-80195132D01*
X169788815Y-80159951D01*
X169814118Y-80129120D01*
X169821819Y-80122800D01*
X169835680Y-80108938D01*
X169846571Y-80092638D01*
X169854073Y-80074526D01*
X169857897Y-80055299D01*
X169857896Y-80035696D01*
X169854071Y-80016469D01*
X169846569Y-79998358D01*
X169842715Y-79992590D01*
X169993910Y-79992590D01*
X169993911Y-80012193D01*
X169997736Y-80031420D01*
X170005238Y-80049531D01*
X170016130Y-80065830D01*
X170029992Y-80079691D01*
X170046290Y-80090580D01*
X170071047Y-80103813D01*
X170101881Y-80129118D01*
X170113500Y-80143276D01*
X170127187Y-80159953D01*
X170127188Y-80159955D01*
X170130699Y-80164233D01*
X170144561Y-80178095D01*
X170160860Y-80188986D01*
X170178972Y-80196488D01*
X170198198Y-80200312D01*
X170217802Y-80200312D01*
X170237029Y-80196488D01*
X170255140Y-80188986D01*
X170271439Y-80178095D01*
X170285301Y-80164233D01*
X170314119Y-80129118D01*
X170344951Y-80103814D01*
X170380132Y-80085010D01*
X170418305Y-80073430D01*
X170457999Y-80069521D01*
X170458000Y-80069521D01*
X170497696Y-80073431D01*
X170532537Y-80084000D01*
X170535867Y-80085010D01*
X170571048Y-80103814D01*
X170600809Y-80128239D01*
X170601881Y-80129119D01*
X170627187Y-80159953D01*
X170627188Y-80159955D01*
X170630699Y-80164233D01*
X170644561Y-80178095D01*
X170660860Y-80188986D01*
X170678972Y-80196488D01*
X170698198Y-80200312D01*
X170717802Y-80200312D01*
X170737029Y-80196488D01*
X170755140Y-80188986D01*
X170771439Y-80178095D01*
X170785301Y-80164233D01*
X170814119Y-80129118D01*
X170844951Y-80103814D01*
X170880132Y-80085010D01*
X170918305Y-80073430D01*
X170957999Y-80069521D01*
X170958000Y-80069521D01*
X170997696Y-80073431D01*
X171032537Y-80084000D01*
X171035867Y-80085010D01*
X171071048Y-80103814D01*
X171100809Y-80128239D01*
X171101881Y-80129119D01*
X171127187Y-80159953D01*
X171127188Y-80159955D01*
X171130699Y-80164233D01*
X171144561Y-80178095D01*
X171160860Y-80188986D01*
X171178972Y-80196488D01*
X171198198Y-80200312D01*
X171217802Y-80200312D01*
X171237029Y-80196488D01*
X171255140Y-80188986D01*
X171271439Y-80178095D01*
X171285301Y-80164233D01*
X171314119Y-80129118D01*
X171344951Y-80103814D01*
X171380132Y-80085010D01*
X171418305Y-80073430D01*
X171457999Y-80069521D01*
X171458000Y-80069521D01*
X171497696Y-80073431D01*
X171535867Y-80085010D01*
X171571046Y-80103813D01*
X171591033Y-80120216D01*
X171592061Y-80121060D01*
X171608361Y-80131951D01*
X171626472Y-80139452D01*
X171645699Y-80143277D01*
X171665303Y-80143276D01*
X171684529Y-80139452D01*
X171702640Y-80131950D01*
X171718940Y-80121059D01*
X171732802Y-80107197D01*
X171743693Y-80090897D01*
X171751194Y-80072786D01*
X171751533Y-80070500D01*
X171779377Y-80070500D01*
X171798886Y-80068579D01*
X171817645Y-80062888D01*
X171834934Y-80053647D01*
X171850088Y-80041211D01*
X171862524Y-80026057D01*
X171871765Y-80008768D01*
X171877456Y-79990009D01*
X171879377Y-79970500D01*
X171877456Y-79950991D01*
X171871765Y-79932232D01*
X171862524Y-79914943D01*
X171842818Y-79893200D01*
X171835117Y-79886880D01*
X171809814Y-79856049D01*
X171791010Y-79820868D01*
X171779430Y-79782695D01*
X171775520Y-79743000D01*
X171779430Y-79703305D01*
X171791010Y-79665132D01*
X171809814Y-79629951D01*
X171835119Y-79599118D01*
X171870233Y-79570300D01*
X171884095Y-79556438D01*
X171894986Y-79540139D01*
X171902487Y-79522027D01*
X171906312Y-79502801D01*
X171906311Y-79483197D01*
X171902487Y-79463970D01*
X171894985Y-79445859D01*
X171884093Y-79429560D01*
X171870233Y-79415700D01*
X171835119Y-79386882D01*
X171809814Y-79356049D01*
X171791010Y-79320868D01*
X171779430Y-79282695D01*
X171775520Y-79243000D01*
X171779430Y-79203305D01*
X171791010Y-79165132D01*
X171809814Y-79129951D01*
X171835119Y-79099118D01*
X171870233Y-79070300D01*
X171884095Y-79056438D01*
X171894986Y-79040139D01*
X171902487Y-79022027D01*
X171906312Y-79002801D01*
X171906311Y-78983197D01*
X171902487Y-78963970D01*
X171894985Y-78945859D01*
X171884093Y-78929560D01*
X171870233Y-78915700D01*
X171835119Y-78886882D01*
X171809814Y-78856049D01*
X171791010Y-78820868D01*
X171779430Y-78782695D01*
X171775520Y-78743000D01*
X171779430Y-78703305D01*
X171791010Y-78665132D01*
X171809814Y-78629951D01*
X171835118Y-78599118D01*
X171870038Y-78570460D01*
X171877600Y-78565406D01*
X171891460Y-78551542D01*
X171902350Y-78535242D01*
X171909849Y-78517130D01*
X171913672Y-78497902D01*
X171913669Y-78478299D01*
X171909843Y-78459073D01*
X171902339Y-78440962D01*
X171891446Y-78424664D01*
X171877582Y-78410804D01*
X171861291Y-78399920D01*
X171844953Y-78391187D01*
X171814119Y-78365882D01*
X171785301Y-78330767D01*
X171771439Y-78316905D01*
X171755140Y-78306014D01*
X171737028Y-78298512D01*
X171717802Y-78294688D01*
X171698198Y-78294688D01*
X171678971Y-78298512D01*
X171660860Y-78306014D01*
X171644561Y-78316905D01*
X171630699Y-78330767D01*
X171627188Y-78335045D01*
X171627188Y-78335046D01*
X171601881Y-78365882D01*
X171571049Y-78391186D01*
X171535868Y-78409990D01*
X171497695Y-78421570D01*
X171458001Y-78425479D01*
X171458000Y-78425479D01*
X171418304Y-78421569D01*
X171380133Y-78409990D01*
X171344954Y-78391187D01*
X171344952Y-78391186D01*
X171314120Y-78365882D01*
X171288814Y-78335046D01*
X171288813Y-78335045D01*
X171285302Y-78330767D01*
X171271440Y-78316905D01*
X171255141Y-78306014D01*
X171237029Y-78298512D01*
X171217803Y-78294688D01*
X171198199Y-78294688D01*
X171178972Y-78298512D01*
X171160861Y-78306014D01*
X171144562Y-78316905D01*
X171130701Y-78330766D01*
X171101882Y-78365881D01*
X171071049Y-78391186D01*
X171035868Y-78409990D01*
X170997695Y-78421570D01*
X170958001Y-78425479D01*
X170958000Y-78425479D01*
X170918304Y-78421569D01*
X170880133Y-78409990D01*
X170844954Y-78391187D01*
X170844952Y-78391186D01*
X170814120Y-78365882D01*
X170788814Y-78335046D01*
X170788813Y-78335045D01*
X170785302Y-78330767D01*
X170771440Y-78316905D01*
X170755141Y-78306014D01*
X170737029Y-78298512D01*
X170717803Y-78294688D01*
X170698199Y-78294688D01*
X170678972Y-78298512D01*
X170660861Y-78306014D01*
X170644562Y-78316905D01*
X170630701Y-78330766D01*
X170601882Y-78365881D01*
X170571049Y-78391186D01*
X170535868Y-78409990D01*
X170497695Y-78421570D01*
X170458001Y-78425479D01*
X170458000Y-78425479D01*
X170418304Y-78421569D01*
X170380133Y-78409990D01*
X170344954Y-78391187D01*
X170344952Y-78391186D01*
X170314120Y-78365882D01*
X170288814Y-78335046D01*
X170288813Y-78335045D01*
X170285302Y-78330767D01*
X170271440Y-78316905D01*
X170255141Y-78306014D01*
X170237029Y-78298512D01*
X170217803Y-78294688D01*
X170198199Y-78294688D01*
X170178972Y-78298512D01*
X170160861Y-78306014D01*
X170144562Y-78316905D01*
X170130701Y-78330766D01*
X170101882Y-78365881D01*
X170071047Y-78391187D01*
X170054709Y-78399920D01*
X170038409Y-78410811D01*
X170024547Y-78424672D01*
X170013656Y-78440972D01*
X170006154Y-78459083D01*
X170002330Y-78478310D01*
X170002329Y-78497913D01*
X170006154Y-78517140D01*
X170013656Y-78535251D01*
X170024547Y-78551551D01*
X170038408Y-78565413D01*
X170045967Y-78570465D01*
X170080882Y-78599118D01*
X170106186Y-78629951D01*
X170124990Y-78665132D01*
X170136570Y-78703305D01*
X170140480Y-78743000D01*
X170136570Y-78782695D01*
X170124990Y-78820868D01*
X170106186Y-78856049D01*
X170080881Y-78886882D01*
X170045767Y-78915700D01*
X170031905Y-78929562D01*
X170021014Y-78945861D01*
X170013513Y-78963973D01*
X170009688Y-78983199D01*
X170009689Y-79002803D01*
X170013513Y-79022030D01*
X170021015Y-79040141D01*
X170031907Y-79056440D01*
X170045767Y-79070300D01*
X170080881Y-79099118D01*
X170106186Y-79129951D01*
X170124990Y-79165132D01*
X170136570Y-79203305D01*
X170140480Y-79243000D01*
X170136570Y-79282695D01*
X170124990Y-79320868D01*
X170106186Y-79356049D01*
X170080881Y-79386882D01*
X170045767Y-79415700D01*
X170031905Y-79429562D01*
X170021014Y-79445861D01*
X170013513Y-79463973D01*
X170009688Y-79483199D01*
X170009689Y-79502803D01*
X170013513Y-79522030D01*
X170021015Y-79540141D01*
X170031907Y-79556440D01*
X170045767Y-79570300D01*
X170080881Y-79599118D01*
X170106186Y-79629951D01*
X170124990Y-79665132D01*
X170136570Y-79703305D01*
X170140480Y-79743000D01*
X170136570Y-79782695D01*
X170124990Y-79820868D01*
X170106186Y-79856049D01*
X170080882Y-79886882D01*
X170055122Y-79908022D01*
X170050047Y-79912187D01*
X170046286Y-79914197D01*
X170029987Y-79925089D01*
X170016126Y-79938951D01*
X170005235Y-79955251D01*
X169997734Y-79973363D01*
X169993910Y-79992590D01*
X169842715Y-79992590D01*
X169835678Y-79982059D01*
X169821816Y-79968198D01*
X169805516Y-79957307D01*
X169787404Y-79949805D01*
X169758378Y-79945500D01*
X169231056Y-79945500D01*
X169201305Y-79942570D01*
X169163132Y-79930990D01*
X169127951Y-79912186D01*
X169097118Y-79886882D01*
X169071814Y-79856049D01*
X169053010Y-79820868D01*
X169041430Y-79782695D01*
X169037520Y-79743000D01*
X169041430Y-79703305D01*
X169053010Y-79665132D01*
X169071814Y-79629951D01*
X169097119Y-79599118D01*
X169132233Y-79570300D01*
X169146095Y-79556438D01*
X169156986Y-79540139D01*
X169164487Y-79522027D01*
X169168312Y-79502801D01*
X169168311Y-79483197D01*
X169164487Y-79463970D01*
X169156985Y-79445859D01*
X169146093Y-79429560D01*
X169132233Y-79415700D01*
X169097119Y-79386882D01*
X169071814Y-79356049D01*
X169053010Y-79320868D01*
X169041430Y-79282695D01*
X169037520Y-79243000D01*
X169041430Y-79203305D01*
X169053010Y-79165132D01*
X169071814Y-79129951D01*
X169097119Y-79099118D01*
X169132233Y-79070300D01*
X169146095Y-79056438D01*
X169156986Y-79040139D01*
X169164487Y-79022027D01*
X169168312Y-79002801D01*
X169168311Y-78983197D01*
X169164487Y-78963970D01*
X169156985Y-78945859D01*
X169146093Y-78929560D01*
X169132233Y-78915700D01*
X169097119Y-78886882D01*
X169071814Y-78856049D01*
X169053010Y-78820868D01*
X169041430Y-78782695D01*
X169037520Y-78743000D01*
X169041430Y-78703305D01*
X169053010Y-78665132D01*
X169071814Y-78629951D01*
X169097118Y-78599118D01*
X169127951Y-78573814D01*
X169163132Y-78555010D01*
X169201305Y-78543430D01*
X169231056Y-78540500D01*
X169747412Y-78540500D01*
X169766921Y-78538579D01*
X169785680Y-78532888D01*
X169802969Y-78523647D01*
X169818123Y-78511211D01*
X169830559Y-78496057D01*
X169839800Y-78478768D01*
X169845491Y-78460009D01*
X169847412Y-78440500D01*
X169845491Y-78420991D01*
X169839800Y-78402232D01*
X169830559Y-78384943D01*
X169820261Y-78373581D01*
X169820367Y-78373494D01*
X169788815Y-78335049D01*
X169770011Y-78299868D01*
X169758431Y-78261695D01*
X169755501Y-78231944D01*
X169755500Y-77516056D01*
X169758430Y-77486306D01*
X169770010Y-77448133D01*
X169788814Y-77412952D01*
X169814119Y-77382118D01*
X169844951Y-77356814D01*
X169880132Y-77338010D01*
X169918305Y-77326430D01*
X169957999Y-77322521D01*
X169958000Y-77322521D01*
X169997696Y-77326431D01*
X169997696Y-77326431D01*
G37*
G36*
X175867861Y-79390057D02*
X175907635Y-79402123D01*
X175944292Y-79421716D01*
X175976418Y-79448082D01*
X176002784Y-79480208D01*
X176022377Y-79516865D01*
X176034443Y-79556639D01*
X176039000Y-79602908D01*
X176039000Y-80318092D01*
X176034443Y-80364361D01*
X176022377Y-80404135D01*
X176002784Y-80440792D01*
X175976418Y-80472918D01*
X175944292Y-80499284D01*
X175907635Y-80518877D01*
X175867861Y-80530943D01*
X175821592Y-80535500D01*
X175206408Y-80535500D01*
X175160139Y-80530943D01*
X175120365Y-80518877D01*
X175083708Y-80499284D01*
X175051582Y-80472918D01*
X175025216Y-80440792D01*
X175005623Y-80404135D01*
X174993557Y-80364361D01*
X174989000Y-80318092D01*
X174989000Y-79602908D01*
X174993557Y-79556639D01*
X175005623Y-79516865D01*
X175025216Y-79480208D01*
X175051582Y-79448082D01*
X175083708Y-79421716D01*
X175120365Y-79402123D01*
X175160139Y-79390057D01*
X175206408Y-79385500D01*
X175821592Y-79385500D01*
X175867861Y-79390057D01*
X175867861Y-79390057D01*
G37*
G36*
X138912497Y-77902758D02*
X138912500Y-77902758D01*
X138922302Y-77903723D01*
X138931727Y-77906582D01*
X138940413Y-77911225D01*
X138948026Y-77917474D01*
X138954275Y-77925087D01*
X138954276Y-77925089D01*
X138957597Y-77929136D01*
X138962699Y-77936771D01*
X138976561Y-77950633D01*
X138992860Y-77961524D01*
X139010972Y-77969026D01*
X139030198Y-77972850D01*
X139049802Y-77972850D01*
X139069029Y-77969026D01*
X139087140Y-77961524D01*
X139103439Y-77950633D01*
X139117301Y-77936771D01*
X139122403Y-77929136D01*
X139125724Y-77925089D01*
X139125725Y-77925087D01*
X139131974Y-77917474D01*
X139139587Y-77911225D01*
X139148273Y-77906582D01*
X139157698Y-77903723D01*
X139167500Y-77902758D01*
X139167503Y-77902758D01*
X139172417Y-77902274D01*
X139567583Y-77902274D01*
X139572497Y-77902758D01*
X139572500Y-77902758D01*
X139582302Y-77903723D01*
X139591727Y-77906582D01*
X139600413Y-77911225D01*
X139608026Y-77917474D01*
X139614275Y-77925087D01*
X139614276Y-77925089D01*
X139617597Y-77929136D01*
X139622699Y-77936771D01*
X139636561Y-77950633D01*
X139652860Y-77961524D01*
X139670972Y-77969026D01*
X139690198Y-77972850D01*
X139709802Y-77972850D01*
X139729029Y-77969026D01*
X139747140Y-77961524D01*
X139763439Y-77950633D01*
X139777301Y-77936771D01*
X139782403Y-77929136D01*
X139785724Y-77925089D01*
X139785725Y-77925087D01*
X139791974Y-77917474D01*
X139799587Y-77911225D01*
X139808273Y-77906582D01*
X139817698Y-77903723D01*
X139827500Y-77902758D01*
X139827503Y-77902758D01*
X139832417Y-77902274D01*
X140227583Y-77902274D01*
X140232497Y-77902758D01*
X140232500Y-77902758D01*
X140242302Y-77903723D01*
X140251727Y-77906582D01*
X140260413Y-77911225D01*
X140268026Y-77917474D01*
X140274275Y-77925087D01*
X140274276Y-77925089D01*
X140277597Y-77929136D01*
X140282699Y-77936771D01*
X140296561Y-77950633D01*
X140312860Y-77961524D01*
X140330972Y-77969026D01*
X140350198Y-77972850D01*
X140369802Y-77972850D01*
X140389029Y-77969026D01*
X140407140Y-77961524D01*
X140423439Y-77950633D01*
X140437301Y-77936771D01*
X140442403Y-77929136D01*
X140445724Y-77925089D01*
X140445725Y-77925087D01*
X140451974Y-77917474D01*
X140459587Y-77911225D01*
X140468273Y-77906582D01*
X140477698Y-77903723D01*
X140487500Y-77902758D01*
X140487503Y-77902758D01*
X140492417Y-77902274D01*
X140890083Y-77902274D01*
X140894997Y-77902758D01*
X140895000Y-77902758D01*
X140904802Y-77903723D01*
X140914227Y-77906582D01*
X140922913Y-77911225D01*
X140930526Y-77917474D01*
X140936775Y-77925087D01*
X140941418Y-77933773D01*
X140944277Y-77943198D01*
X140944316Y-77943598D01*
X140945726Y-77957917D01*
X140945726Y-78708083D01*
X140945242Y-78712997D01*
X140945242Y-78713000D01*
X140944277Y-78722802D01*
X140941418Y-78732227D01*
X140936775Y-78740913D01*
X140930526Y-78748526D01*
X140922913Y-78754775D01*
X140921084Y-78755753D01*
X140904788Y-78766640D01*
X140890926Y-78780502D01*
X140880035Y-78796801D01*
X140872533Y-78814912D01*
X140868708Y-78834139D01*
X140868226Y-78843943D01*
X140868226Y-80183083D01*
X140867742Y-80187997D01*
X140867742Y-80188000D01*
X140866777Y-80197802D01*
X140863918Y-80207227D01*
X140859275Y-80215913D01*
X140853026Y-80223526D01*
X140845413Y-80229775D01*
X140836727Y-80234418D01*
X140827302Y-80237277D01*
X140817500Y-80238242D01*
X140817497Y-80238242D01*
X140812583Y-80238726D01*
X138587417Y-80238726D01*
X138582503Y-80238242D01*
X138582500Y-80238242D01*
X138572698Y-80237277D01*
X138563273Y-80234418D01*
X138554587Y-80229775D01*
X138546974Y-80223526D01*
X138540725Y-80215913D01*
X138536082Y-80207227D01*
X138533223Y-80197802D01*
X138532258Y-80188000D01*
X138532258Y-80187997D01*
X138531774Y-80183083D01*
X138531774Y-78843943D01*
X138529853Y-78824434D01*
X138524162Y-78805675D01*
X138514921Y-78788386D01*
X138502485Y-78773232D01*
X138487331Y-78760796D01*
X138478920Y-78755755D01*
X138477087Y-78754775D01*
X138469474Y-78748526D01*
X138463225Y-78740913D01*
X138458582Y-78732227D01*
X138455723Y-78722802D01*
X138454758Y-78713000D01*
X138454758Y-78712997D01*
X138454274Y-78708083D01*
X138454274Y-77957917D01*
X138455684Y-77943598D01*
X138455723Y-77943198D01*
X138458582Y-77933773D01*
X138463225Y-77925087D01*
X138469474Y-77917474D01*
X138477087Y-77911225D01*
X138485773Y-77906582D01*
X138495198Y-77903723D01*
X138505000Y-77902758D01*
X138505003Y-77902758D01*
X138509917Y-77902274D01*
X138907583Y-77902274D01*
X138912497Y-77902758D01*
X138912497Y-77902758D01*
G37*
G36*
X132836000Y-79875000D02*
X132086000Y-79875000D01*
X132086000Y-78525000D01*
X132836000Y-78525000D01*
X132836000Y-79875000D01*
X132836000Y-79875000D01*
G37*
G36*
X134106000Y-79875000D02*
X133356000Y-79875000D01*
X133356000Y-78525000D01*
X134106000Y-78525000D01*
X134106000Y-79875000D01*
X134106000Y-79875000D01*
G37*
G36*
X136646000Y-79875000D02*
X135896000Y-79875000D01*
X135896000Y-78525000D01*
X136646000Y-78525000D01*
X136646000Y-79875000D01*
X136646000Y-79875000D01*
G37*
G36*
X135376000Y-79875000D02*
X134626000Y-79875000D01*
X134626000Y-78525000D01*
X135376000Y-78525000D01*
X135376000Y-79875000D01*
X135376000Y-79875000D01*
G37*
G36*
X144950830Y-77931177D02*
X144991776Y-77943598D01*
X145029510Y-77963767D01*
X145062587Y-77990913D01*
X145089733Y-78023990D01*
X145109902Y-78061724D01*
X145122323Y-78102670D01*
X145127000Y-78150158D01*
X145127000Y-79202842D01*
X145122323Y-79250330D01*
X145109902Y-79291276D01*
X145089733Y-79329010D01*
X145062587Y-79362087D01*
X145029510Y-79389233D01*
X144991776Y-79409402D01*
X144950830Y-79421823D01*
X144903342Y-79426500D01*
X144275658Y-79426500D01*
X144228170Y-79421823D01*
X144187224Y-79409402D01*
X144149490Y-79389233D01*
X144116413Y-79362087D01*
X144089267Y-79329010D01*
X144069098Y-79291276D01*
X144056677Y-79250330D01*
X144052000Y-79202842D01*
X144052000Y-78150158D01*
X144056677Y-78102670D01*
X144069098Y-78061724D01*
X144089267Y-78023990D01*
X144116413Y-77990913D01*
X144149490Y-77963767D01*
X144187224Y-77943598D01*
X144228170Y-77931177D01*
X144275658Y-77926500D01*
X144903342Y-77926500D01*
X144950830Y-77931177D01*
X144950830Y-77931177D01*
G37*
G36*
X143075830Y-77931177D02*
X143116776Y-77943598D01*
X143154510Y-77963767D01*
X143187587Y-77990913D01*
X143214733Y-78023990D01*
X143234902Y-78061724D01*
X143247323Y-78102670D01*
X143252000Y-78150158D01*
X143252000Y-79202842D01*
X143247323Y-79250330D01*
X143234902Y-79291276D01*
X143214733Y-79329010D01*
X143187587Y-79362087D01*
X143154510Y-79389233D01*
X143116776Y-79409402D01*
X143075830Y-79421823D01*
X143028342Y-79426500D01*
X142400658Y-79426500D01*
X142353170Y-79421823D01*
X142312224Y-79409402D01*
X142274490Y-79389233D01*
X142241413Y-79362087D01*
X142214267Y-79329010D01*
X142194098Y-79291276D01*
X142181677Y-79250330D01*
X142177000Y-79202842D01*
X142177000Y-78150158D01*
X142181677Y-78102670D01*
X142194098Y-78061724D01*
X142214267Y-78023990D01*
X142241413Y-77990913D01*
X142274490Y-77963767D01*
X142312224Y-77943598D01*
X142353170Y-77931177D01*
X142400658Y-77926500D01*
X143028342Y-77926500D01*
X143075830Y-77931177D01*
X143075830Y-77931177D01*
G37*
G36*
X147760000Y-79399000D02*
X145660000Y-79399000D01*
X145660000Y-77799000D01*
X147760000Y-77799000D01*
X147760000Y-79399000D01*
X147760000Y-79399000D01*
G37*
G36*
X175867861Y-77584057D02*
X175907635Y-77596123D01*
X175944292Y-77615716D01*
X175976418Y-77642082D01*
X176002784Y-77674208D01*
X176022377Y-77710865D01*
X176034443Y-77750639D01*
X176039000Y-77796908D01*
X176039000Y-78512092D01*
X176034443Y-78558361D01*
X176022377Y-78598135D01*
X176002784Y-78634792D01*
X175976418Y-78666918D01*
X175944292Y-78693284D01*
X175907635Y-78712877D01*
X175867861Y-78724943D01*
X175821592Y-78729500D01*
X175206408Y-78729500D01*
X175160139Y-78724943D01*
X175120365Y-78712877D01*
X175083708Y-78693284D01*
X175051582Y-78666918D01*
X175025216Y-78634792D01*
X175005623Y-78598135D01*
X174993557Y-78558361D01*
X174989000Y-78512092D01*
X174989000Y-77796908D01*
X174993557Y-77750639D01*
X175005623Y-77710865D01*
X175025216Y-77674208D01*
X175051582Y-77642082D01*
X175083708Y-77615716D01*
X175120365Y-77596123D01*
X175160139Y-77584057D01*
X175206408Y-77579500D01*
X175821592Y-77579500D01*
X175867861Y-77584057D01*
X175867861Y-77584057D01*
G37*
G36*
X132790997Y-73124758D02*
X132791000Y-73124758D01*
X132800802Y-73125723D01*
X132810227Y-73128582D01*
X132818913Y-73133225D01*
X132826526Y-73139474D01*
X132832775Y-73147087D01*
X132837418Y-73155773D01*
X132840277Y-73165198D01*
X132841242Y-73175000D01*
X132841726Y-73179917D01*
X132841726Y-73624274D01*
X132843647Y-73643783D01*
X132849338Y-73662542D01*
X132858579Y-73679831D01*
X132871015Y-73694985D01*
X132886169Y-73707421D01*
X132903458Y-73716662D01*
X132922217Y-73722353D01*
X132941726Y-73724274D01*
X133290274Y-73724274D01*
X133309783Y-73722353D01*
X133328542Y-73716662D01*
X133345831Y-73707421D01*
X133360985Y-73694985D01*
X133373421Y-73679831D01*
X133382662Y-73662542D01*
X133388353Y-73643783D01*
X133390274Y-73624274D01*
X133390274Y-73179917D01*
X133390758Y-73175000D01*
X133391723Y-73165198D01*
X133394582Y-73155773D01*
X133399225Y-73147087D01*
X133405474Y-73139474D01*
X133413087Y-73133225D01*
X133421773Y-73128582D01*
X133431198Y-73125723D01*
X133441000Y-73124758D01*
X133441003Y-73124758D01*
X133445917Y-73124274D01*
X134161083Y-73124274D01*
X134165997Y-73124758D01*
X134166000Y-73124758D01*
X134175802Y-73125723D01*
X134185227Y-73128582D01*
X134193913Y-73133225D01*
X134201526Y-73139474D01*
X134207775Y-73147087D01*
X134212418Y-73155773D01*
X134215277Y-73165198D01*
X134216242Y-73175000D01*
X134216726Y-73179917D01*
X134216726Y-77670083D01*
X134216242Y-77674997D01*
X134216242Y-77675000D01*
X134215277Y-77684802D01*
X134212418Y-77694227D01*
X134207775Y-77702913D01*
X134201526Y-77710526D01*
X134193913Y-77716775D01*
X134185227Y-77721418D01*
X134175802Y-77724277D01*
X134166000Y-77725242D01*
X134165997Y-77725242D01*
X134161083Y-77725726D01*
X132070917Y-77725726D01*
X132066003Y-77725242D01*
X132066000Y-77725242D01*
X132056198Y-77724277D01*
X132046773Y-77721418D01*
X132038087Y-77716775D01*
X132030474Y-77710526D01*
X132024225Y-77702913D01*
X132019582Y-77694227D01*
X132016723Y-77684802D01*
X132015758Y-77675000D01*
X132015758Y-77674997D01*
X132015274Y-77670083D01*
X132015274Y-77635726D01*
X132013353Y-77616217D01*
X132007662Y-77597458D01*
X131998421Y-77580169D01*
X131985985Y-77565015D01*
X131970831Y-77552579D01*
X131953542Y-77543338D01*
X131934783Y-77537647D01*
X131915274Y-77535726D01*
X131670917Y-77535726D01*
X131666003Y-77535242D01*
X131666000Y-77535242D01*
X131656198Y-77534277D01*
X131646773Y-77531418D01*
X131638087Y-77526775D01*
X131630474Y-77520526D01*
X131624225Y-77512913D01*
X131619582Y-77504227D01*
X131616723Y-77494802D01*
X131615758Y-77485000D01*
X131615758Y-77484997D01*
X131615274Y-77480083D01*
X131615274Y-76689917D01*
X131615758Y-76685000D01*
X131616723Y-76675198D01*
X131619582Y-76665773D01*
X131624225Y-76657087D01*
X131630474Y-76649474D01*
X131638087Y-76643225D01*
X131646773Y-76638582D01*
X131656198Y-76635723D01*
X131666000Y-76634758D01*
X131666003Y-76634758D01*
X131670917Y-76634274D01*
X131915274Y-76634274D01*
X131934783Y-76632353D01*
X131953542Y-76626662D01*
X131970831Y-76617421D01*
X131985985Y-76604985D01*
X131998421Y-76589831D01*
X132007662Y-76572542D01*
X132013353Y-76553783D01*
X132015274Y-76534274D01*
X132015274Y-75185726D01*
X132013353Y-75166217D01*
X132007662Y-75147458D01*
X131998421Y-75130169D01*
X131985985Y-75115015D01*
X131970831Y-75102579D01*
X131953542Y-75093338D01*
X131934783Y-75087647D01*
X131915274Y-75085726D01*
X131670917Y-75085726D01*
X131666003Y-75085242D01*
X131666000Y-75085242D01*
X131656198Y-75084277D01*
X131646773Y-75081418D01*
X131638087Y-75076775D01*
X131630474Y-75070526D01*
X131624225Y-75062913D01*
X131619582Y-75054227D01*
X131616723Y-75044802D01*
X131615758Y-75035000D01*
X131615758Y-75034997D01*
X131615274Y-75030083D01*
X131615274Y-74239917D01*
X131615758Y-74235000D01*
X131616723Y-74225198D01*
X131619582Y-74215773D01*
X131624225Y-74207087D01*
X131630474Y-74199474D01*
X131638087Y-74193225D01*
X131646773Y-74188582D01*
X131656198Y-74185723D01*
X131666000Y-74184758D01*
X131666003Y-74184758D01*
X131670917Y-74184274D01*
X131915274Y-74184274D01*
X131934783Y-74182353D01*
X131953542Y-74176662D01*
X131970831Y-74167421D01*
X131985985Y-74154985D01*
X131998421Y-74139831D01*
X132007662Y-74122542D01*
X132013353Y-74103783D01*
X132015274Y-74084274D01*
X132015274Y-73179917D01*
X132015758Y-73175000D01*
X132016723Y-73165198D01*
X132019582Y-73155773D01*
X132024225Y-73147087D01*
X132030474Y-73139474D01*
X132038087Y-73133225D01*
X132046773Y-73128582D01*
X132056198Y-73125723D01*
X132066000Y-73124758D01*
X132066003Y-73124758D01*
X132070917Y-73124274D01*
X132786083Y-73124274D01*
X132790997Y-73124758D01*
X132790997Y-73124758D01*
G37*
G36*
X135290997Y-73124758D02*
X135291000Y-73124758D01*
X135300802Y-73125723D01*
X135310227Y-73128582D01*
X135318913Y-73133225D01*
X135326526Y-73139474D01*
X135332775Y-73147087D01*
X135337418Y-73155773D01*
X135340277Y-73165198D01*
X135341242Y-73175000D01*
X135341726Y-73179917D01*
X135341726Y-73624274D01*
X135343647Y-73643783D01*
X135349338Y-73662542D01*
X135358579Y-73679831D01*
X135371015Y-73694985D01*
X135386169Y-73707421D01*
X135403458Y-73716662D01*
X135422217Y-73722353D01*
X135441726Y-73724274D01*
X135790274Y-73724274D01*
X135809783Y-73722353D01*
X135828542Y-73716662D01*
X135845831Y-73707421D01*
X135860985Y-73694985D01*
X135873421Y-73679831D01*
X135882662Y-73662542D01*
X135888353Y-73643783D01*
X135890274Y-73624274D01*
X135890274Y-73179917D01*
X135890758Y-73175000D01*
X135891723Y-73165198D01*
X135894582Y-73155773D01*
X135899225Y-73147087D01*
X135905474Y-73139474D01*
X135913087Y-73133225D01*
X135921773Y-73128582D01*
X135931198Y-73125723D01*
X135941000Y-73124758D01*
X135941003Y-73124758D01*
X135945917Y-73124274D01*
X136661083Y-73124274D01*
X136665997Y-73124758D01*
X136666000Y-73124758D01*
X136675802Y-73125723D01*
X136685227Y-73128582D01*
X136693913Y-73133225D01*
X136701526Y-73139474D01*
X136707775Y-73147087D01*
X136712418Y-73155773D01*
X136715277Y-73165198D01*
X136716242Y-73175000D01*
X136716726Y-73179917D01*
X136716726Y-74084274D01*
X136718647Y-74103783D01*
X136724338Y-74122542D01*
X136733579Y-74139831D01*
X136746015Y-74154985D01*
X136761169Y-74167421D01*
X136778458Y-74176662D01*
X136797217Y-74182353D01*
X136816726Y-74184274D01*
X137061083Y-74184274D01*
X137065997Y-74184758D01*
X137066000Y-74184758D01*
X137075802Y-74185723D01*
X137085227Y-74188582D01*
X137093913Y-74193225D01*
X137101526Y-74199474D01*
X137107775Y-74207087D01*
X137112418Y-74215773D01*
X137115277Y-74225198D01*
X137116242Y-74235000D01*
X137116726Y-74239917D01*
X137116726Y-75030083D01*
X137116242Y-75034997D01*
X137116242Y-75035000D01*
X137115277Y-75044802D01*
X137112418Y-75054227D01*
X137107775Y-75062913D01*
X137101526Y-75070526D01*
X137093913Y-75076775D01*
X137085227Y-75081418D01*
X137075802Y-75084277D01*
X137066000Y-75085242D01*
X137065997Y-75085242D01*
X137061083Y-75085726D01*
X136816726Y-75085726D01*
X136797217Y-75087647D01*
X136778458Y-75093338D01*
X136761169Y-75102579D01*
X136746015Y-75115015D01*
X136733579Y-75130169D01*
X136724338Y-75147458D01*
X136718647Y-75166217D01*
X136716726Y-75185726D01*
X136716726Y-76534274D01*
X136718647Y-76553783D01*
X136724338Y-76572542D01*
X136733579Y-76589831D01*
X136746015Y-76604985D01*
X136761169Y-76617421D01*
X136778458Y-76626662D01*
X136797217Y-76632353D01*
X136816726Y-76634274D01*
X137061083Y-76634274D01*
X137065997Y-76634758D01*
X137066000Y-76634758D01*
X137075802Y-76635723D01*
X137085227Y-76638582D01*
X137093913Y-76643225D01*
X137101526Y-76649474D01*
X137107775Y-76657087D01*
X137112418Y-76665773D01*
X137115277Y-76675198D01*
X137116242Y-76685000D01*
X137116726Y-76689917D01*
X137116726Y-77480083D01*
X137116242Y-77484997D01*
X137116242Y-77485000D01*
X137115277Y-77494802D01*
X137112418Y-77504227D01*
X137107775Y-77512913D01*
X137101526Y-77520526D01*
X137093913Y-77526775D01*
X137085227Y-77531418D01*
X137075802Y-77534277D01*
X137066000Y-77535242D01*
X137065997Y-77535242D01*
X137061083Y-77535726D01*
X136816726Y-77535726D01*
X136797217Y-77537647D01*
X136778458Y-77543338D01*
X136761169Y-77552579D01*
X136746015Y-77565015D01*
X136733579Y-77580169D01*
X136724338Y-77597458D01*
X136718647Y-77616217D01*
X136716726Y-77635726D01*
X136716726Y-77670083D01*
X136716242Y-77674997D01*
X136716242Y-77675000D01*
X136715277Y-77684802D01*
X136712418Y-77694227D01*
X136707775Y-77702913D01*
X136701526Y-77710526D01*
X136693913Y-77716775D01*
X136685227Y-77721418D01*
X136675802Y-77724277D01*
X136666000Y-77725242D01*
X136665997Y-77725242D01*
X136661083Y-77725726D01*
X134570917Y-77725726D01*
X134566003Y-77725242D01*
X134566000Y-77725242D01*
X134556198Y-77724277D01*
X134546773Y-77721418D01*
X134538087Y-77716775D01*
X134530474Y-77710526D01*
X134524225Y-77702913D01*
X134519582Y-77694227D01*
X134516723Y-77684802D01*
X134515758Y-77675000D01*
X134515758Y-77674997D01*
X134515274Y-77670083D01*
X134515274Y-73179917D01*
X134515758Y-73175000D01*
X134516723Y-73165198D01*
X134519582Y-73155773D01*
X134524225Y-73147087D01*
X134530474Y-73139474D01*
X134538087Y-73133225D01*
X134546773Y-73128582D01*
X134556198Y-73125723D01*
X134566000Y-73124758D01*
X134566003Y-73124758D01*
X134570917Y-73124274D01*
X135286083Y-73124274D01*
X135290997Y-73124758D01*
X135290997Y-73124758D01*
G37*
G36*
X175867861Y-75834057D02*
X175907635Y-75846123D01*
X175944292Y-75865716D01*
X175976418Y-75892082D01*
X176002784Y-75924208D01*
X176022377Y-75960865D01*
X176034443Y-76000639D01*
X176039000Y-76046908D01*
X176039000Y-76762092D01*
X176034443Y-76808361D01*
X176022377Y-76848135D01*
X176002784Y-76884792D01*
X175976418Y-76916918D01*
X175944292Y-76943284D01*
X175907635Y-76962877D01*
X175867861Y-76974943D01*
X175821592Y-76979500D01*
X175206408Y-76979500D01*
X175160139Y-76974943D01*
X175120365Y-76962877D01*
X175083708Y-76943284D01*
X175051582Y-76916918D01*
X175025216Y-76884792D01*
X175005623Y-76848135D01*
X174993557Y-76808361D01*
X174989000Y-76762092D01*
X174989000Y-76046908D01*
X174993557Y-76000639D01*
X175005623Y-75960865D01*
X175025216Y-75924208D01*
X175051582Y-75892082D01*
X175083708Y-75865716D01*
X175120365Y-75846123D01*
X175160139Y-75834057D01*
X175206408Y-75829500D01*
X175821592Y-75829500D01*
X175867861Y-75834057D01*
X175867861Y-75834057D01*
G37*
G36*
X156309861Y-75361556D02*
X156349635Y-75373622D01*
X156386292Y-75393215D01*
X156418418Y-75419581D01*
X156444784Y-75451707D01*
X156464377Y-75488364D01*
X156476443Y-75528138D01*
X156481000Y-75574407D01*
X156481000Y-76289591D01*
X156476443Y-76335860D01*
X156464377Y-76375634D01*
X156444784Y-76412291D01*
X156418418Y-76444417D01*
X156386292Y-76470783D01*
X156349635Y-76490376D01*
X156309861Y-76502442D01*
X156263592Y-76506999D01*
X155648408Y-76506999D01*
X155602139Y-76502442D01*
X155562365Y-76490376D01*
X155525708Y-76470783D01*
X155493582Y-76444417D01*
X155467216Y-76412291D01*
X155447623Y-76375634D01*
X155435557Y-76335860D01*
X155431000Y-76289591D01*
X155431000Y-75574407D01*
X155435557Y-75528138D01*
X155447623Y-75488364D01*
X155467216Y-75451707D01*
X155493582Y-75419581D01*
X155525708Y-75393215D01*
X155562365Y-75373622D01*
X155602139Y-75361556D01*
X155648408Y-75356999D01*
X156263592Y-75356999D01*
X156309861Y-75361556D01*
X156309861Y-75361556D01*
G37*
G36*
X142121000Y-76287000D02*
X141221000Y-76287000D01*
X141221000Y-75287000D01*
X142121000Y-75287000D01*
X142121000Y-76287000D01*
X142121000Y-76287000D01*
G37*
G36*
X154181000Y-76287000D02*
X153281000Y-76287000D01*
X153281000Y-75287000D01*
X154181000Y-75287000D01*
X154181000Y-76287000D01*
X154181000Y-76287000D01*
G37*
G36*
X152281000Y-76287000D02*
X151381000Y-76287000D01*
X151381000Y-75287000D01*
X152281000Y-75287000D01*
X152281000Y-76287000D01*
X152281000Y-76287000D01*
G37*
G36*
X149101000Y-76287000D02*
X148201000Y-76287000D01*
X148201000Y-75287000D01*
X149101000Y-75287000D01*
X149101000Y-76287000D01*
X149101000Y-76287000D01*
G37*
G36*
X144021000Y-76287000D02*
X143121000Y-76287000D01*
X143121000Y-75287000D01*
X144021000Y-75287000D01*
X144021000Y-76287000D01*
X144021000Y-76287000D01*
G37*
G36*
X147201000Y-76287000D02*
X146301000Y-76287000D01*
X146301000Y-75287000D01*
X147201000Y-75287000D01*
X147201000Y-76287000D01*
X147201000Y-76287000D01*
G37*
G36*
X170188860Y-74536557D02*
X170228634Y-74548623D01*
X170265291Y-74568216D01*
X170297417Y-74594582D01*
X170323783Y-74626708D01*
X170343376Y-74663365D01*
X170355442Y-74703139D01*
X170359999Y-74749408D01*
X170359999Y-75364592D01*
X170355442Y-75410861D01*
X170343376Y-75450635D01*
X170323783Y-75487292D01*
X170297417Y-75519418D01*
X170265291Y-75545784D01*
X170228634Y-75565377D01*
X170188860Y-75577443D01*
X170142591Y-75582000D01*
X169427407Y-75582000D01*
X169381138Y-75577443D01*
X169341364Y-75565377D01*
X169304707Y-75545784D01*
X169272581Y-75519418D01*
X169246215Y-75487292D01*
X169226622Y-75450635D01*
X169214556Y-75410861D01*
X169209999Y-75364592D01*
X169209999Y-74749408D01*
X169214556Y-74703139D01*
X169226622Y-74663365D01*
X169246215Y-74626708D01*
X169272581Y-74594582D01*
X169304707Y-74568216D01*
X169341364Y-74548623D01*
X169381138Y-74536557D01*
X169427407Y-74532000D01*
X170142591Y-74532000D01*
X170188860Y-74536557D01*
X170188860Y-74536557D01*
G37*
G36*
X168438862Y-74536557D02*
X168478636Y-74548623D01*
X168515293Y-74568216D01*
X168547419Y-74594582D01*
X168573785Y-74626708D01*
X168593378Y-74663365D01*
X168605444Y-74703139D01*
X168610001Y-74749408D01*
X168610001Y-75364592D01*
X168605444Y-75410861D01*
X168593378Y-75450635D01*
X168573785Y-75487292D01*
X168547419Y-75519418D01*
X168515293Y-75545784D01*
X168478636Y-75565377D01*
X168438862Y-75577443D01*
X168392593Y-75582000D01*
X167677409Y-75582000D01*
X167631140Y-75577443D01*
X167591366Y-75565377D01*
X167554709Y-75545784D01*
X167522583Y-75519418D01*
X167496217Y-75487292D01*
X167476624Y-75450635D01*
X167464558Y-75410861D01*
X167460001Y-75364592D01*
X167460001Y-74749408D01*
X167464558Y-74703139D01*
X167476624Y-74663365D01*
X167496217Y-74626708D01*
X167522583Y-74594582D01*
X167554709Y-74568216D01*
X167591366Y-74548623D01*
X167631140Y-74536557D01*
X167677409Y-74532000D01*
X168392593Y-74532000D01*
X168438862Y-74536557D01*
X168438862Y-74536557D01*
G37*
G36*
X175268860Y-74028557D02*
X175308634Y-74040623D01*
X175345291Y-74060216D01*
X175377417Y-74086582D01*
X175403783Y-74118708D01*
X175423376Y-74155365D01*
X175435442Y-74195139D01*
X175439999Y-74241408D01*
X175439999Y-74856592D01*
X175435442Y-74902861D01*
X175423376Y-74942635D01*
X175403783Y-74979292D01*
X175377417Y-75011418D01*
X175345291Y-75037784D01*
X175308634Y-75057377D01*
X175268860Y-75069443D01*
X175222591Y-75074000D01*
X174507407Y-75074000D01*
X174461138Y-75069443D01*
X174421364Y-75057377D01*
X174384707Y-75037784D01*
X174352581Y-75011418D01*
X174326215Y-74979292D01*
X174306622Y-74942635D01*
X174294556Y-74902861D01*
X174289999Y-74856592D01*
X174289999Y-74241408D01*
X174294556Y-74195139D01*
X174306622Y-74155365D01*
X174326215Y-74118708D01*
X174352581Y-74086582D01*
X174384707Y-74060216D01*
X174421364Y-74040623D01*
X174461138Y-74028557D01*
X174507407Y-74024000D01*
X175222591Y-74024000D01*
X175268860Y-74028557D01*
X175268860Y-74028557D01*
G37*
G36*
X173518862Y-74028557D02*
X173558636Y-74040623D01*
X173595293Y-74060216D01*
X173627419Y-74086582D01*
X173653785Y-74118708D01*
X173673378Y-74155365D01*
X173685444Y-74195139D01*
X173690001Y-74241408D01*
X173690001Y-74856592D01*
X173685444Y-74902861D01*
X173673378Y-74942635D01*
X173653785Y-74979292D01*
X173627419Y-75011418D01*
X173595293Y-75037784D01*
X173558636Y-75057377D01*
X173518862Y-75069443D01*
X173472593Y-75074000D01*
X172757409Y-75074000D01*
X172711140Y-75069443D01*
X172671366Y-75057377D01*
X172634709Y-75037784D01*
X172602583Y-75011418D01*
X172576217Y-74979292D01*
X172556624Y-74942635D01*
X172544558Y-74902861D01*
X172540001Y-74856592D01*
X172540001Y-74241408D01*
X172544558Y-74195139D01*
X172556624Y-74155365D01*
X172576217Y-74118708D01*
X172602583Y-74086582D01*
X172634709Y-74060216D01*
X172671366Y-74040623D01*
X172711140Y-74028557D01*
X172757409Y-74024000D01*
X173472593Y-74024000D01*
X173518862Y-74028557D01*
X173518862Y-74028557D01*
G37*
G36*
X165079151Y-74894956D02*
X158779151Y-74894956D01*
X158779151Y-73594956D01*
X165079151Y-73594956D01*
X165079151Y-74894956D01*
X165079151Y-74894956D01*
G37*
G36*
X156309861Y-73611558D02*
X156349635Y-73623624D01*
X156386292Y-73643217D01*
X156418418Y-73669583D01*
X156444784Y-73701709D01*
X156464377Y-73738366D01*
X156476443Y-73778140D01*
X156481000Y-73824409D01*
X156481000Y-74539593D01*
X156476443Y-74585862D01*
X156464377Y-74625636D01*
X156444784Y-74662293D01*
X156418418Y-74694419D01*
X156386292Y-74720785D01*
X156349635Y-74740378D01*
X156309861Y-74752444D01*
X156263592Y-74757001D01*
X155648408Y-74757001D01*
X155602139Y-74752444D01*
X155562365Y-74740378D01*
X155525708Y-74720785D01*
X155493582Y-74694419D01*
X155467216Y-74662293D01*
X155447623Y-74625636D01*
X155435557Y-74585862D01*
X155431000Y-74539593D01*
X155431000Y-73824409D01*
X155435557Y-73778140D01*
X155447623Y-73738366D01*
X155467216Y-73701709D01*
X155493582Y-73669583D01*
X155525708Y-73643217D01*
X155562365Y-73623624D01*
X155602139Y-73611558D01*
X155648408Y-73607001D01*
X156263592Y-73607001D01*
X156309861Y-73611558D01*
X156309861Y-73611558D01*
G37*
G36*
X153231000Y-74287000D02*
X152331000Y-74287000D01*
X152331000Y-73287000D01*
X153231000Y-73287000D01*
X153231000Y-74287000D01*
X153231000Y-74287000D01*
G37*
G36*
X143071000Y-74287000D02*
X142171000Y-74287000D01*
X142171000Y-73287000D01*
X143071000Y-73287000D01*
X143071000Y-74287000D01*
X143071000Y-74287000D01*
G37*
G36*
X148151000Y-74287000D02*
X147251000Y-74287000D01*
X147251000Y-73287000D01*
X148151000Y-73287000D01*
X148151000Y-74287000D01*
X148151000Y-74287000D01*
G37*
G36*
X131163861Y-72440557D02*
X131203635Y-72452623D01*
X131240292Y-72472216D01*
X131272418Y-72498582D01*
X131298784Y-72530708D01*
X131318377Y-72567365D01*
X131330443Y-72607139D01*
X131335000Y-72653408D01*
X131335000Y-73368592D01*
X131330443Y-73414861D01*
X131318377Y-73454635D01*
X131298784Y-73491292D01*
X131272418Y-73523418D01*
X131240292Y-73549784D01*
X131203635Y-73569377D01*
X131163861Y-73581443D01*
X131117592Y-73586000D01*
X130502408Y-73586000D01*
X130456139Y-73581443D01*
X130416365Y-73569377D01*
X130379708Y-73549784D01*
X130347582Y-73523418D01*
X130321216Y-73491292D01*
X130301623Y-73454635D01*
X130289557Y-73414861D01*
X130285000Y-73368592D01*
X130285000Y-72653408D01*
X130289557Y-72607139D01*
X130301623Y-72567365D01*
X130321216Y-72530708D01*
X130347582Y-72498582D01*
X130379708Y-72472216D01*
X130416365Y-72452623D01*
X130456139Y-72440557D01*
X130502408Y-72436000D01*
X131117592Y-72436000D01*
X131163861Y-72440557D01*
X131163861Y-72440557D01*
G37*
G36*
X138339361Y-72440557D02*
X138379135Y-72452623D01*
X138415792Y-72472216D01*
X138447918Y-72498582D01*
X138474284Y-72530708D01*
X138493877Y-72567365D01*
X138505943Y-72607139D01*
X138510500Y-72653408D01*
X138510500Y-73368592D01*
X138505943Y-73414861D01*
X138493877Y-73454635D01*
X138474284Y-73491292D01*
X138447918Y-73523418D01*
X138415792Y-73549784D01*
X138379135Y-73569377D01*
X138339361Y-73581443D01*
X138293092Y-73586000D01*
X137677908Y-73586000D01*
X137631639Y-73581443D01*
X137591865Y-73569377D01*
X137555208Y-73549784D01*
X137523082Y-73523418D01*
X137496716Y-73491292D01*
X137477123Y-73454635D01*
X137465057Y-73414861D01*
X137460500Y-73368592D01*
X137460500Y-72653408D01*
X137465057Y-72607139D01*
X137477123Y-72567365D01*
X137496716Y-72530708D01*
X137523082Y-72498582D01*
X137555208Y-72472216D01*
X137591865Y-72452623D01*
X137631639Y-72440557D01*
X137677908Y-72436000D01*
X138293092Y-72436000D01*
X138339361Y-72440557D01*
X138339361Y-72440557D01*
G37*
G36*
X163276443Y-70649194D02*
X163485729Y-70735884D01*
X163674082Y-70861737D01*
X163834263Y-71021918D01*
X163960116Y-71210271D01*
X164046806Y-71419557D01*
X164091000Y-71641735D01*
X164091000Y-71868265D01*
X164046806Y-72090443D01*
X163960116Y-72299729D01*
X163834263Y-72488082D01*
X163674082Y-72648263D01*
X163485729Y-72774116D01*
X163276443Y-72860806D01*
X163054265Y-72905000D01*
X162827735Y-72905000D01*
X162605557Y-72860806D01*
X162396271Y-72774116D01*
X162207918Y-72648263D01*
X162047737Y-72488082D01*
X161921884Y-72299729D01*
X161835194Y-72090443D01*
X161791000Y-71868265D01*
X161791000Y-71641735D01*
X161835194Y-71419557D01*
X161921884Y-71210271D01*
X162047737Y-71021918D01*
X162207918Y-70861737D01*
X162396271Y-70735884D01*
X162605557Y-70649194D01*
X162827735Y-70605000D01*
X163054265Y-70605000D01*
X163276443Y-70649194D01*
X163276443Y-70649194D01*
G37*
G36*
X153116443Y-70649194D02*
X153325729Y-70735884D01*
X153514082Y-70861737D01*
X153674263Y-71021918D01*
X153800116Y-71210271D01*
X153886806Y-71419557D01*
X153931000Y-71641735D01*
X153931000Y-71868265D01*
X153886806Y-72090443D01*
X153800116Y-72299729D01*
X153674263Y-72488082D01*
X153514082Y-72648263D01*
X153325729Y-72774116D01*
X153116443Y-72860806D01*
X152894265Y-72905000D01*
X152667735Y-72905000D01*
X152445557Y-72860806D01*
X152236271Y-72774116D01*
X152047918Y-72648263D01*
X151887737Y-72488082D01*
X151761884Y-72299729D01*
X151675194Y-72090443D01*
X151631000Y-71868265D01*
X151631000Y-71641735D01*
X151675194Y-71419557D01*
X151761884Y-71210271D01*
X151887737Y-71021918D01*
X152047918Y-70861737D01*
X152236271Y-70735884D01*
X152445557Y-70649194D01*
X152667735Y-70605000D01*
X152894265Y-70605000D01*
X153116443Y-70649194D01*
X153116443Y-70649194D01*
G37*
G36*
X155656443Y-70649194D02*
X155865729Y-70735884D01*
X156054082Y-70861737D01*
X156214263Y-71021918D01*
X156340116Y-71210271D01*
X156426806Y-71419557D01*
X156471000Y-71641735D01*
X156471000Y-71868265D01*
X156426806Y-72090443D01*
X156340116Y-72299729D01*
X156214263Y-72488082D01*
X156054082Y-72648263D01*
X155865729Y-72774116D01*
X155656443Y-72860806D01*
X155434265Y-72905000D01*
X155207735Y-72905000D01*
X154985557Y-72860806D01*
X154776271Y-72774116D01*
X154587918Y-72648263D01*
X154427737Y-72488082D01*
X154301884Y-72299729D01*
X154215194Y-72090443D01*
X154171000Y-71868265D01*
X154171000Y-71641735D01*
X154215194Y-71419557D01*
X154301884Y-71210271D01*
X154427737Y-71021918D01*
X154587918Y-70861737D01*
X154776271Y-70735884D01*
X154985557Y-70649194D01*
X155207735Y-70605000D01*
X155434265Y-70605000D01*
X155656443Y-70649194D01*
X155656443Y-70649194D01*
G37*
G36*
X158196443Y-70649194D02*
X158405729Y-70735884D01*
X158594082Y-70861737D01*
X158754263Y-71021918D01*
X158880116Y-71210271D01*
X158966806Y-71419557D01*
X159011000Y-71641735D01*
X159011000Y-71868265D01*
X158966806Y-72090443D01*
X158880116Y-72299729D01*
X158754263Y-72488082D01*
X158594082Y-72648263D01*
X158405729Y-72774116D01*
X158196443Y-72860806D01*
X157974265Y-72905000D01*
X157747735Y-72905000D01*
X157525557Y-72860806D01*
X157316271Y-72774116D01*
X157127918Y-72648263D01*
X156967737Y-72488082D01*
X156841884Y-72299729D01*
X156755194Y-72090443D01*
X156711000Y-71868265D01*
X156711000Y-71641735D01*
X156755194Y-71419557D01*
X156841884Y-71210271D01*
X156967737Y-71021918D01*
X157127918Y-70861737D01*
X157316271Y-70735884D01*
X157525557Y-70649194D01*
X157747735Y-70605000D01*
X157974265Y-70605000D01*
X158196443Y-70649194D01*
X158196443Y-70649194D01*
G37*
G36*
X160736443Y-70649194D02*
X160945729Y-70735884D01*
X161134082Y-70861737D01*
X161294263Y-71021918D01*
X161420116Y-71210271D01*
X161506806Y-71419557D01*
X161551000Y-71641735D01*
X161551000Y-71868265D01*
X161506806Y-72090443D01*
X161420116Y-72299729D01*
X161294263Y-72488082D01*
X161134082Y-72648263D01*
X160945729Y-72774116D01*
X160736443Y-72860806D01*
X160514265Y-72905000D01*
X160287735Y-72905000D01*
X160065557Y-72860806D01*
X159856271Y-72774116D01*
X159667918Y-72648263D01*
X159507737Y-72488082D01*
X159381884Y-72299729D01*
X159295194Y-72090443D01*
X159251000Y-71868265D01*
X159251000Y-71641735D01*
X159295194Y-71419557D01*
X159381884Y-71210271D01*
X159507737Y-71021918D01*
X159667918Y-70861737D01*
X159856271Y-70735884D01*
X160065557Y-70649194D01*
X160287735Y-70605000D01*
X160514265Y-70605000D01*
X160736443Y-70649194D01*
X160736443Y-70649194D01*
G37*
G36*
X145496443Y-70649194D02*
X145705729Y-70735884D01*
X145894082Y-70861737D01*
X146054263Y-71021918D01*
X146180116Y-71210271D01*
X146266806Y-71419557D01*
X146311000Y-71641735D01*
X146311000Y-71868265D01*
X146266806Y-72090443D01*
X146180116Y-72299729D01*
X146054263Y-72488082D01*
X145894082Y-72648263D01*
X145705729Y-72774116D01*
X145496443Y-72860806D01*
X145274265Y-72905000D01*
X145047735Y-72905000D01*
X144825557Y-72860806D01*
X144616271Y-72774116D01*
X144427918Y-72648263D01*
X144267737Y-72488082D01*
X144141884Y-72299729D01*
X144055194Y-72090443D01*
X144011000Y-71868265D01*
X144011000Y-71641735D01*
X144055194Y-71419557D01*
X144141884Y-71210271D01*
X144267737Y-71021918D01*
X144427918Y-70861737D01*
X144616271Y-70735884D01*
X144825557Y-70649194D01*
X145047735Y-70605000D01*
X145274265Y-70605000D01*
X145496443Y-70649194D01*
X145496443Y-70649194D01*
G37*
G36*
X141231000Y-72905000D02*
X138931000Y-72905000D01*
X138931000Y-70605000D01*
X141231000Y-70605000D01*
X141231000Y-72905000D01*
X141231000Y-72905000D01*
G37*
G36*
X165816443Y-70649194D02*
X166025729Y-70735884D01*
X166214082Y-70861737D01*
X166374263Y-71021918D01*
X166500116Y-71210271D01*
X166586806Y-71419557D01*
X166631000Y-71641735D01*
X166631000Y-71868265D01*
X166586806Y-72090443D01*
X166500116Y-72299729D01*
X166374263Y-72488082D01*
X166214082Y-72648263D01*
X166025729Y-72774116D01*
X165816443Y-72860806D01*
X165594265Y-72905000D01*
X165367735Y-72905000D01*
X165145557Y-72860806D01*
X164936271Y-72774116D01*
X164747918Y-72648263D01*
X164587737Y-72488082D01*
X164461884Y-72299729D01*
X164375194Y-72090443D01*
X164331000Y-71868265D01*
X164331000Y-71641735D01*
X164375194Y-71419557D01*
X164461884Y-71210271D01*
X164587737Y-71021918D01*
X164747918Y-70861737D01*
X164936271Y-70735884D01*
X165145557Y-70649194D01*
X165367735Y-70605000D01*
X165594265Y-70605000D01*
X165816443Y-70649194D01*
X165816443Y-70649194D01*
G37*
G36*
X168356443Y-70649194D02*
X168565729Y-70735884D01*
X168754082Y-70861737D01*
X168914263Y-71021918D01*
X169040116Y-71210271D01*
X169126806Y-71419557D01*
X169171000Y-71641735D01*
X169171000Y-71868265D01*
X169126806Y-72090443D01*
X169040116Y-72299729D01*
X168914263Y-72488082D01*
X168754082Y-72648263D01*
X168565729Y-72774116D01*
X168356443Y-72860806D01*
X168134265Y-72905000D01*
X167907735Y-72905000D01*
X167685557Y-72860806D01*
X167476271Y-72774116D01*
X167287918Y-72648263D01*
X167127737Y-72488082D01*
X167001884Y-72299729D01*
X166915194Y-72090443D01*
X166871000Y-71868265D01*
X166871000Y-71641735D01*
X166915194Y-71419557D01*
X167001884Y-71210271D01*
X167127737Y-71021918D01*
X167287918Y-70861737D01*
X167476271Y-70735884D01*
X167685557Y-70649194D01*
X167907735Y-70605000D01*
X168134265Y-70605000D01*
X168356443Y-70649194D01*
X168356443Y-70649194D01*
G37*
G36*
X150576443Y-70649194D02*
X150785729Y-70735884D01*
X150974082Y-70861737D01*
X151134263Y-71021918D01*
X151260116Y-71210271D01*
X151346806Y-71419557D01*
X151391000Y-71641735D01*
X151391000Y-71868265D01*
X151346806Y-72090443D01*
X151260116Y-72299729D01*
X151134263Y-72488082D01*
X150974082Y-72648263D01*
X150785729Y-72774116D01*
X150576443Y-72860806D01*
X150354265Y-72905000D01*
X150127735Y-72905000D01*
X149905557Y-72860806D01*
X149696271Y-72774116D01*
X149507918Y-72648263D01*
X149347737Y-72488082D01*
X149221884Y-72299729D01*
X149135194Y-72090443D01*
X149091000Y-71868265D01*
X149091000Y-71641735D01*
X149135194Y-71419557D01*
X149221884Y-71210271D01*
X149347737Y-71021918D01*
X149507918Y-70861737D01*
X149696271Y-70735884D01*
X149905557Y-70649194D01*
X150127735Y-70605000D01*
X150354265Y-70605000D01*
X150576443Y-70649194D01*
X150576443Y-70649194D01*
G37*
G36*
X148036443Y-70649194D02*
X148245729Y-70735884D01*
X148434082Y-70861737D01*
X148594263Y-71021918D01*
X148720116Y-71210271D01*
X148806806Y-71419557D01*
X148851000Y-71641735D01*
X148851000Y-71868265D01*
X148806806Y-72090443D01*
X148720116Y-72299729D01*
X148594263Y-72488082D01*
X148434082Y-72648263D01*
X148245729Y-72774116D01*
X148036443Y-72860806D01*
X147814265Y-72905000D01*
X147587735Y-72905000D01*
X147365557Y-72860806D01*
X147156271Y-72774116D01*
X146967918Y-72648263D01*
X146807737Y-72488082D01*
X146681884Y-72299729D01*
X146595194Y-72090443D01*
X146551000Y-71868265D01*
X146551000Y-71641735D01*
X146595194Y-71419557D01*
X146681884Y-71210271D01*
X146807737Y-71021918D01*
X146967918Y-70861737D01*
X147156271Y-70735884D01*
X147365557Y-70649194D01*
X147587735Y-70605000D01*
X147814265Y-70605000D01*
X148036443Y-70649194D01*
X148036443Y-70649194D01*
G37*
G36*
X142956443Y-70649194D02*
X143165729Y-70735884D01*
X143354082Y-70861737D01*
X143514263Y-71021918D01*
X143640116Y-71210271D01*
X143726806Y-71419557D01*
X143771000Y-71641735D01*
X143771000Y-71868265D01*
X143726806Y-72090443D01*
X143640116Y-72299729D01*
X143514263Y-72488082D01*
X143354082Y-72648263D01*
X143165729Y-72774116D01*
X142956443Y-72860806D01*
X142734265Y-72905000D01*
X142507735Y-72905000D01*
X142285557Y-72860806D01*
X142076271Y-72774116D01*
X141887918Y-72648263D01*
X141727737Y-72488082D01*
X141601884Y-72299729D01*
X141515194Y-72090443D01*
X141471000Y-71868265D01*
X141471000Y-71641735D01*
X141515194Y-71419557D01*
X141601884Y-71210271D01*
X141727737Y-71021918D01*
X141887918Y-70861737D01*
X142076271Y-70735884D01*
X142285557Y-70649194D01*
X142507735Y-70605000D01*
X142734265Y-70605000D01*
X142956443Y-70649194D01*
X142956443Y-70649194D01*
G37*
G36*
X126431856Y-70697272D02*
X126632045Y-70780193D01*
X126812207Y-70900573D01*
X126965427Y-71053793D01*
X127085807Y-71233955D01*
X127168728Y-71434144D01*
X127211000Y-71646657D01*
X127211000Y-71863343D01*
X127168728Y-72075856D01*
X127085807Y-72276045D01*
X126965427Y-72456207D01*
X126812207Y-72609427D01*
X126632045Y-72729807D01*
X126431856Y-72812728D01*
X126219343Y-72855000D01*
X126002657Y-72855000D01*
X125790144Y-72812728D01*
X125589955Y-72729807D01*
X125409793Y-72609427D01*
X125256573Y-72456207D01*
X125136193Y-72276045D01*
X125053272Y-72075856D01*
X125011000Y-71863343D01*
X125011000Y-71646657D01*
X125053272Y-71434144D01*
X125136193Y-71233955D01*
X125256573Y-71053793D01*
X125409793Y-70900573D01*
X125589955Y-70780193D01*
X125790144Y-70697272D01*
X126002657Y-70655000D01*
X126219343Y-70655000D01*
X126431856Y-70697272D01*
X126431856Y-70697272D01*
G37*
G36*
X129751000Y-72855000D02*
X127551000Y-72855000D01*
X127551000Y-70655000D01*
X129751000Y-70655000D01*
X129751000Y-72855000D01*
X129751000Y-72855000D01*
G37*
G36*
X133416856Y-70697272D02*
X133617045Y-70780193D01*
X133797207Y-70900573D01*
X133950427Y-71053793D01*
X134070807Y-71233955D01*
X134153728Y-71434144D01*
X134196000Y-71646657D01*
X134196000Y-71863343D01*
X134153728Y-72075856D01*
X134070807Y-72276045D01*
X133950427Y-72456207D01*
X133797207Y-72609427D01*
X133617045Y-72729807D01*
X133416856Y-72812728D01*
X133204343Y-72855000D01*
X132987657Y-72855000D01*
X132775144Y-72812728D01*
X132574955Y-72729807D01*
X132394793Y-72609427D01*
X132241573Y-72456207D01*
X132121193Y-72276045D01*
X132038272Y-72075856D01*
X131996000Y-71863343D01*
X131996000Y-71646657D01*
X132038272Y-71434144D01*
X132121193Y-71233955D01*
X132241573Y-71053793D01*
X132394793Y-70900573D01*
X132574955Y-70780193D01*
X132775144Y-70697272D01*
X132987657Y-70655000D01*
X133204343Y-70655000D01*
X133416856Y-70697272D01*
X133416856Y-70697272D01*
G37*
G36*
X136736000Y-72855000D02*
X134536000Y-72855000D01*
X134536000Y-70655000D01*
X136736000Y-70655000D01*
X136736000Y-72855000D01*
X136736000Y-72855000D01*
G37*
G36*
X138339361Y-70690557D02*
X138379135Y-70702623D01*
X138415792Y-70722216D01*
X138447918Y-70748582D01*
X138474284Y-70780708D01*
X138493877Y-70817365D01*
X138505943Y-70857139D01*
X138510500Y-70903408D01*
X138510500Y-71618592D01*
X138505943Y-71664861D01*
X138493877Y-71704635D01*
X138474284Y-71741292D01*
X138447918Y-71773418D01*
X138415792Y-71799784D01*
X138379135Y-71819377D01*
X138339361Y-71831443D01*
X138293092Y-71836000D01*
X137677908Y-71836000D01*
X137631639Y-71831443D01*
X137591865Y-71819377D01*
X137555208Y-71799784D01*
X137523082Y-71773418D01*
X137496716Y-71741292D01*
X137477123Y-71704635D01*
X137465057Y-71664861D01*
X137460500Y-71618592D01*
X137460500Y-70903408D01*
X137465057Y-70857139D01*
X137477123Y-70817365D01*
X137496716Y-70780708D01*
X137523082Y-70748582D01*
X137555208Y-70722216D01*
X137591865Y-70702623D01*
X137631639Y-70690557D01*
X137677908Y-70686000D01*
X138293092Y-70686000D01*
X138339361Y-70690557D01*
X138339361Y-70690557D01*
G37*
G36*
X131163861Y-70690557D02*
X131203635Y-70702623D01*
X131240292Y-70722216D01*
X131272418Y-70748582D01*
X131298784Y-70780708D01*
X131318377Y-70817365D01*
X131330443Y-70857139D01*
X131335000Y-70903408D01*
X131335000Y-71618592D01*
X131330443Y-71664861D01*
X131318377Y-71704635D01*
X131298784Y-71741292D01*
X131272418Y-71773418D01*
X131240292Y-71799784D01*
X131203635Y-71819377D01*
X131163861Y-71831443D01*
X131117592Y-71836000D01*
X130502408Y-71836000D01*
X130456139Y-71831443D01*
X130416365Y-71819377D01*
X130379708Y-71799784D01*
X130347582Y-71773418D01*
X130321216Y-71741292D01*
X130301623Y-71704635D01*
X130289557Y-71664861D01*
X130285000Y-71618592D01*
X130285000Y-70903408D01*
X130289557Y-70857139D01*
X130301623Y-70817365D01*
X130321216Y-70780708D01*
X130347582Y-70748582D01*
X130379708Y-70722216D01*
X130416365Y-70702623D01*
X130456139Y-70690557D01*
X130502408Y-70686000D01*
X131117592Y-70686000D01*
X131163861Y-70690557D01*
X131163861Y-70690557D01*
G37*
G36*
X133958361Y-69266057D02*
X133998135Y-69278123D01*
X134034792Y-69297716D01*
X134066918Y-69324082D01*
X134093284Y-69356208D01*
X134112877Y-69392865D01*
X134124943Y-69432639D01*
X134129500Y-69478908D01*
X134129500Y-70094092D01*
X134124943Y-70140361D01*
X134112877Y-70180135D01*
X134093284Y-70216792D01*
X134066918Y-70248918D01*
X134034792Y-70275284D01*
X133998135Y-70294877D01*
X133958361Y-70306943D01*
X133912092Y-70311500D01*
X133196908Y-70311500D01*
X133150639Y-70306943D01*
X133110865Y-70294877D01*
X133074208Y-70275284D01*
X133042082Y-70248918D01*
X133015716Y-70216792D01*
X132996123Y-70180135D01*
X132984057Y-70140361D01*
X132979500Y-70094092D01*
X132979500Y-69478908D01*
X132984057Y-69432639D01*
X132996123Y-69392865D01*
X133015716Y-69356208D01*
X133042082Y-69324082D01*
X133074208Y-69297716D01*
X133110865Y-69278123D01*
X133150639Y-69266057D01*
X133196908Y-69261500D01*
X133912092Y-69261500D01*
X133958361Y-69266057D01*
X133958361Y-69266057D01*
G37*
G36*
X135708361Y-69266057D02*
X135748135Y-69278123D01*
X135784792Y-69297716D01*
X135816918Y-69324082D01*
X135843284Y-69356208D01*
X135862877Y-69392865D01*
X135874943Y-69432639D01*
X135879500Y-69478908D01*
X135879500Y-70094092D01*
X135874943Y-70140361D01*
X135862877Y-70180135D01*
X135843284Y-70216792D01*
X135816918Y-70248918D01*
X135784792Y-70275284D01*
X135748135Y-70294877D01*
X135708361Y-70306943D01*
X135662092Y-70311500D01*
X134946908Y-70311500D01*
X134900639Y-70306943D01*
X134860865Y-70294877D01*
X134824208Y-70275284D01*
X134792082Y-70248918D01*
X134765716Y-70216792D01*
X134746123Y-70180135D01*
X134734057Y-70140361D01*
X134729500Y-70094092D01*
X134729500Y-69478908D01*
X134734057Y-69432639D01*
X134746123Y-69392865D01*
X134765716Y-69356208D01*
X134792082Y-69324082D01*
X134824208Y-69297716D01*
X134860865Y-69278123D01*
X134900639Y-69266057D01*
X134946908Y-69261500D01*
X135662092Y-69261500D01*
X135708361Y-69266057D01*
X135708361Y-69266057D01*
G37*
G36*
X174175990Y-63930896D02*
X174175992Y-63930897D01*
X174175993Y-63930897D01*
X174744278Y-64166289D01*
X174767452Y-64175888D01*
X175299754Y-64531560D01*
X175752440Y-64984246D01*
X175822018Y-65088377D01*
X176108112Y-65516548D01*
X176273691Y-65916289D01*
X176353104Y-66108010D01*
X176478000Y-66735903D01*
X176478000Y-67376097D01*
X176356469Y-67987071D01*
X176353103Y-68003993D01*
X176300702Y-68130500D01*
X176108112Y-68595452D01*
X175752440Y-69127754D01*
X175299754Y-69580440D01*
X174962870Y-69805538D01*
X174767452Y-69936112D01*
X174175993Y-70181103D01*
X174175992Y-70181103D01*
X174175990Y-70181104D01*
X173548097Y-70306000D01*
X172907903Y-70306000D01*
X172280010Y-70181104D01*
X172280008Y-70181103D01*
X172280007Y-70181103D01*
X171688548Y-69936112D01*
X171493130Y-69805538D01*
X171156246Y-69580440D01*
X170703560Y-69127754D01*
X170347888Y-68595452D01*
X170155298Y-68130500D01*
X170102897Y-68003993D01*
X170099531Y-67987071D01*
X169978000Y-67376097D01*
X169978000Y-66735903D01*
X170102896Y-66108010D01*
X170182310Y-65916289D01*
X170347888Y-65516548D01*
X170633982Y-65088377D01*
X170703560Y-64984246D01*
X171156246Y-64531560D01*
X171688548Y-64175888D01*
X171711722Y-64166289D01*
X172280007Y-63930897D01*
X172280008Y-63930897D01*
X172280010Y-63930896D01*
X172907903Y-63806000D01*
X173548097Y-63806000D01*
X174175990Y-63930896D01*
X174175990Y-63930896D01*
G37*
G36*
X121089990Y-63930896D02*
X121089992Y-63930897D01*
X121089993Y-63930897D01*
X121658278Y-64166289D01*
X121681452Y-64175888D01*
X122213754Y-64531560D01*
X122666440Y-64984246D01*
X122736018Y-65088377D01*
X123022112Y-65516548D01*
X123187691Y-65916289D01*
X123267104Y-66108010D01*
X123392000Y-66735903D01*
X123392000Y-67376097D01*
X123270469Y-67987071D01*
X123267103Y-68003993D01*
X123214702Y-68130500D01*
X123022112Y-68595452D01*
X122666440Y-69127754D01*
X122213754Y-69580440D01*
X121876870Y-69805538D01*
X121681452Y-69936112D01*
X121089993Y-70181103D01*
X121089992Y-70181103D01*
X121089990Y-70181104D01*
X120462097Y-70306000D01*
X119821903Y-70306000D01*
X119194010Y-70181104D01*
X119194008Y-70181103D01*
X119194007Y-70181103D01*
X118602548Y-69936112D01*
X118407130Y-69805538D01*
X118070246Y-69580440D01*
X117617560Y-69127754D01*
X117261888Y-68595452D01*
X117069298Y-68130500D01*
X117016897Y-68003993D01*
X117013531Y-67987071D01*
X116892000Y-67376097D01*
X116892000Y-66735903D01*
X117016896Y-66108010D01*
X117096310Y-65916289D01*
X117261888Y-65516548D01*
X117547982Y-65088377D01*
X117617560Y-64984246D01*
X118070246Y-64531560D01*
X118602548Y-64175888D01*
X118625722Y-64166289D01*
X119194007Y-63930897D01*
X119194008Y-63930897D01*
X119194010Y-63930896D01*
X119821903Y-63806000D01*
X120462097Y-63806000D01*
X121089990Y-63930896D01*
X121089990Y-63930896D01*
G37*
G36*
X152789861Y-69202557D02*
X152829635Y-69214623D01*
X152866292Y-69234216D01*
X152898418Y-69260582D01*
X152924784Y-69292708D01*
X152944377Y-69329365D01*
X152956443Y-69369139D01*
X152961000Y-69415408D01*
X152961000Y-70030592D01*
X152956443Y-70076861D01*
X152944377Y-70116635D01*
X152924784Y-70153292D01*
X152898418Y-70185418D01*
X152866292Y-70211784D01*
X152829635Y-70231377D01*
X152789861Y-70243443D01*
X152743592Y-70248000D01*
X152028408Y-70248000D01*
X151982139Y-70243443D01*
X151942365Y-70231377D01*
X151905708Y-70211784D01*
X151873582Y-70185418D01*
X151847216Y-70153292D01*
X151827623Y-70116635D01*
X151815557Y-70076861D01*
X151811000Y-70030592D01*
X151811000Y-69415408D01*
X151815557Y-69369139D01*
X151827623Y-69329365D01*
X151847216Y-69292708D01*
X151873582Y-69260582D01*
X151905708Y-69234216D01*
X151942365Y-69214623D01*
X151982139Y-69202557D01*
X152028408Y-69198000D01*
X152743592Y-69198000D01*
X152789861Y-69202557D01*
X152789861Y-69202557D01*
G37*
G36*
X151039861Y-69202557D02*
X151079635Y-69214623D01*
X151116292Y-69234216D01*
X151148418Y-69260582D01*
X151174784Y-69292708D01*
X151194377Y-69329365D01*
X151206443Y-69369139D01*
X151211000Y-69415408D01*
X151211000Y-70030592D01*
X151206443Y-70076861D01*
X151194377Y-70116635D01*
X151174784Y-70153292D01*
X151148418Y-70185418D01*
X151116292Y-70211784D01*
X151079635Y-70231377D01*
X151039861Y-70243443D01*
X150993592Y-70248000D01*
X150278408Y-70248000D01*
X150232139Y-70243443D01*
X150192365Y-70231377D01*
X150155708Y-70211784D01*
X150123582Y-70185418D01*
X150097216Y-70153292D01*
X150077623Y-70116635D01*
X150065557Y-70076861D01*
X150061000Y-70030592D01*
X150061000Y-69415408D01*
X150065557Y-69369139D01*
X150077623Y-69329365D01*
X150097216Y-69292708D01*
X150123582Y-69260582D01*
X150155708Y-69234216D01*
X150192365Y-69214623D01*
X150232139Y-69202557D01*
X150278408Y-69198000D01*
X150993592Y-69198000D01*
X151039861Y-69202557D01*
X151039861Y-69202557D01*
G37*
G36*
X147709861Y-69202557D02*
X147749635Y-69214623D01*
X147786292Y-69234216D01*
X147818418Y-69260582D01*
X147844784Y-69292708D01*
X147864377Y-69329365D01*
X147876443Y-69369139D01*
X147881000Y-69415408D01*
X147881000Y-70030592D01*
X147876443Y-70076861D01*
X147864377Y-70116635D01*
X147844784Y-70153292D01*
X147818418Y-70185418D01*
X147786292Y-70211784D01*
X147749635Y-70231377D01*
X147709861Y-70243443D01*
X147663592Y-70248000D01*
X146948408Y-70248000D01*
X146902139Y-70243443D01*
X146862365Y-70231377D01*
X146825708Y-70211784D01*
X146793582Y-70185418D01*
X146767216Y-70153292D01*
X146747623Y-70116635D01*
X146735557Y-70076861D01*
X146731000Y-70030592D01*
X146731000Y-69415408D01*
X146735557Y-69369139D01*
X146747623Y-69329365D01*
X146767216Y-69292708D01*
X146793582Y-69260582D01*
X146825708Y-69234216D01*
X146862365Y-69214623D01*
X146902139Y-69202557D01*
X146948408Y-69198000D01*
X147663592Y-69198000D01*
X147709861Y-69202557D01*
X147709861Y-69202557D01*
G37*
G36*
X145959861Y-69202557D02*
X145999635Y-69214623D01*
X146036292Y-69234216D01*
X146068418Y-69260582D01*
X146094784Y-69292708D01*
X146114377Y-69329365D01*
X146126443Y-69369139D01*
X146131000Y-69415408D01*
X146131000Y-70030592D01*
X146126443Y-70076861D01*
X146114377Y-70116635D01*
X146094784Y-70153292D01*
X146068418Y-70185418D01*
X146036292Y-70211784D01*
X145999635Y-70231377D01*
X145959861Y-70243443D01*
X145913592Y-70248000D01*
X145198408Y-70248000D01*
X145152139Y-70243443D01*
X145112365Y-70231377D01*
X145075708Y-70211784D01*
X145043582Y-70185418D01*
X145017216Y-70153292D01*
X144997623Y-70116635D01*
X144985557Y-70076861D01*
X144981000Y-70030592D01*
X144981000Y-69415408D01*
X144985557Y-69369139D01*
X144997623Y-69329365D01*
X145017216Y-69292708D01*
X145043582Y-69260582D01*
X145075708Y-69234216D01*
X145112365Y-69214623D01*
X145152139Y-69202557D01*
X145198408Y-69198000D01*
X145913592Y-69198000D01*
X145959861Y-69202557D01*
X145959861Y-69202557D01*
G37*
G36*
X142629861Y-69202557D02*
X142669635Y-69214623D01*
X142706292Y-69234216D01*
X142738418Y-69260582D01*
X142764784Y-69292708D01*
X142784377Y-69329365D01*
X142796443Y-69369139D01*
X142801000Y-69415408D01*
X142801000Y-70030592D01*
X142796443Y-70076861D01*
X142784377Y-70116635D01*
X142764784Y-70153292D01*
X142738418Y-70185418D01*
X142706292Y-70211784D01*
X142669635Y-70231377D01*
X142629861Y-70243443D01*
X142583592Y-70248000D01*
X141868408Y-70248000D01*
X141822139Y-70243443D01*
X141782365Y-70231377D01*
X141745708Y-70211784D01*
X141713582Y-70185418D01*
X141687216Y-70153292D01*
X141667623Y-70116635D01*
X141655557Y-70076861D01*
X141651000Y-70030592D01*
X141651000Y-69415408D01*
X141655557Y-69369139D01*
X141667623Y-69329365D01*
X141687216Y-69292708D01*
X141713582Y-69260582D01*
X141745708Y-69234216D01*
X141782365Y-69214623D01*
X141822139Y-69202557D01*
X141868408Y-69198000D01*
X142583592Y-69198000D01*
X142629861Y-69202557D01*
X142629861Y-69202557D01*
G37*
G36*
X140879861Y-69202557D02*
X140919635Y-69214623D01*
X140956292Y-69234216D01*
X140988418Y-69260582D01*
X141014784Y-69292708D01*
X141034377Y-69329365D01*
X141046443Y-69369139D01*
X141051000Y-69415408D01*
X141051000Y-70030592D01*
X141046443Y-70076861D01*
X141034377Y-70116635D01*
X141014784Y-70153292D01*
X140988418Y-70185418D01*
X140956292Y-70211784D01*
X140919635Y-70231377D01*
X140879861Y-70243443D01*
X140833592Y-70248000D01*
X140118408Y-70248000D01*
X140072139Y-70243443D01*
X140032365Y-70231377D01*
X139995708Y-70211784D01*
X139963582Y-70185418D01*
X139937216Y-70153292D01*
X139917623Y-70116635D01*
X139905557Y-70076861D01*
X139901000Y-70030592D01*
X139901000Y-69415408D01*
X139905557Y-69369139D01*
X139917623Y-69329365D01*
X139937216Y-69292708D01*
X139963582Y-69260582D01*
X139995708Y-69234216D01*
X140032365Y-69214623D01*
X140072139Y-69202557D01*
X140118408Y-69198000D01*
X140833592Y-69198000D01*
X140879861Y-69202557D01*
X140879861Y-69202557D01*
G37*
G36*
X158261000Y-70138000D02*
X157461000Y-70138000D01*
X157461000Y-69438000D01*
X158261000Y-69438000D01*
X158261000Y-70138000D01*
X158261000Y-70138000D01*
G37*
G36*
X165881000Y-70138000D02*
X165081000Y-70138000D01*
X165081000Y-69438000D01*
X165881000Y-69438000D01*
X165881000Y-70138000D01*
X165881000Y-70138000D01*
G37*
G36*
X163341000Y-70138000D02*
X162541000Y-70138000D01*
X162541000Y-69438000D01*
X163341000Y-69438000D01*
X163341000Y-70138000D01*
X163341000Y-70138000D01*
G37*
G36*
X158261000Y-68738000D02*
X157461000Y-68738000D01*
X157461000Y-68038000D01*
X158261000Y-68038000D01*
X158261000Y-68738000D01*
X158261000Y-68738000D01*
G37*
G36*
X163341000Y-68738000D02*
X162541000Y-68738000D01*
X162541000Y-68038000D01*
X163341000Y-68038000D01*
X163341000Y-68738000D01*
X163341000Y-68738000D01*
G37*
G36*
X165881000Y-68738000D02*
X165081000Y-68738000D01*
X165081000Y-68038000D01*
X165881000Y-68038000D01*
X165881000Y-68738000D01*
X165881000Y-68738000D01*
G37*
G36*
X132208361Y-67678557D02*
X132248135Y-67690623D01*
X132284792Y-67710216D01*
X132316918Y-67736582D01*
X132343284Y-67768708D01*
X132362877Y-67805365D01*
X132374943Y-67845139D01*
X132379500Y-67891408D01*
X132379500Y-68506592D01*
X132374943Y-68552861D01*
X132362877Y-68592635D01*
X132343284Y-68629292D01*
X132316918Y-68661418D01*
X132284792Y-68687784D01*
X132248135Y-68707377D01*
X132208361Y-68719443D01*
X132162092Y-68724000D01*
X131446908Y-68724000D01*
X131400639Y-68719443D01*
X131360865Y-68707377D01*
X131324208Y-68687784D01*
X131292082Y-68661418D01*
X131265716Y-68629292D01*
X131246123Y-68592635D01*
X131234057Y-68552861D01*
X131229500Y-68506592D01*
X131229500Y-67891408D01*
X131234057Y-67845139D01*
X131246123Y-67805365D01*
X131265716Y-67768708D01*
X131292082Y-67736582D01*
X131324208Y-67710216D01*
X131360865Y-67690623D01*
X131400639Y-67678557D01*
X131446908Y-67674000D01*
X132162092Y-67674000D01*
X132208361Y-67678557D01*
X132208361Y-67678557D01*
G37*
G36*
X137458361Y-67678557D02*
X137498135Y-67690623D01*
X137534792Y-67710216D01*
X137566918Y-67736582D01*
X137593284Y-67768708D01*
X137612877Y-67805365D01*
X137624943Y-67845139D01*
X137629500Y-67891408D01*
X137629500Y-68506592D01*
X137624943Y-68552861D01*
X137612877Y-68592635D01*
X137593284Y-68629292D01*
X137566918Y-68661418D01*
X137534792Y-68687784D01*
X137498135Y-68707377D01*
X137458361Y-68719443D01*
X137412092Y-68724000D01*
X136696908Y-68724000D01*
X136650639Y-68719443D01*
X136610865Y-68707377D01*
X136574208Y-68687784D01*
X136542082Y-68661418D01*
X136515716Y-68629292D01*
X136496123Y-68592635D01*
X136484057Y-68552861D01*
X136479500Y-68506592D01*
X136479500Y-67891408D01*
X136484057Y-67845139D01*
X136496123Y-67805365D01*
X136515716Y-67768708D01*
X136542082Y-67736582D01*
X136574208Y-67710216D01*
X136610865Y-67690623D01*
X136650639Y-67678557D01*
X136696908Y-67674000D01*
X137412092Y-67674000D01*
X137458361Y-67678557D01*
X137458361Y-67678557D01*
G37*
G36*
X135708361Y-67678557D02*
X135748135Y-67690623D01*
X135784792Y-67710216D01*
X135816918Y-67736582D01*
X135843284Y-67768708D01*
X135862877Y-67805365D01*
X135874943Y-67845139D01*
X135879500Y-67891408D01*
X135879500Y-68506592D01*
X135874943Y-68552861D01*
X135862877Y-68592635D01*
X135843284Y-68629292D01*
X135816918Y-68661418D01*
X135784792Y-68687784D01*
X135748135Y-68707377D01*
X135708361Y-68719443D01*
X135662092Y-68724000D01*
X134946908Y-68724000D01*
X134900639Y-68719443D01*
X134860865Y-68707377D01*
X134824208Y-68687784D01*
X134792082Y-68661418D01*
X134765716Y-68629292D01*
X134746123Y-68592635D01*
X134734057Y-68552861D01*
X134729500Y-68506592D01*
X134729500Y-67891408D01*
X134734057Y-67845139D01*
X134746123Y-67805365D01*
X134765716Y-67768708D01*
X134792082Y-67736582D01*
X134824208Y-67710216D01*
X134860865Y-67690623D01*
X134900639Y-67678557D01*
X134946908Y-67674000D01*
X135662092Y-67674000D01*
X135708361Y-67678557D01*
X135708361Y-67678557D01*
G37*
G36*
X133958361Y-67678557D02*
X133998135Y-67690623D01*
X134034792Y-67710216D01*
X134066918Y-67736582D01*
X134093284Y-67768708D01*
X134112877Y-67805365D01*
X134124943Y-67845139D01*
X134129500Y-67891408D01*
X134129500Y-68506592D01*
X134124943Y-68552861D01*
X134112877Y-68592635D01*
X134093284Y-68629292D01*
X134066918Y-68661418D01*
X134034792Y-68687784D01*
X133998135Y-68707377D01*
X133958361Y-68719443D01*
X133912092Y-68724000D01*
X133196908Y-68724000D01*
X133150639Y-68719443D01*
X133110865Y-68707377D01*
X133074208Y-68687784D01*
X133042082Y-68661418D01*
X133015716Y-68629292D01*
X132996123Y-68592635D01*
X132984057Y-68552861D01*
X132979500Y-68506592D01*
X132979500Y-67891408D01*
X132984057Y-67845139D01*
X132996123Y-67805365D01*
X133015716Y-67768708D01*
X133042082Y-67736582D01*
X133074208Y-67710216D01*
X133110865Y-67690623D01*
X133150639Y-67678557D01*
X133196908Y-67674000D01*
X133912092Y-67674000D01*
X133958361Y-67678557D01*
X133958361Y-67678557D01*
G37*
G36*
X146384804Y-67960829D02*
X146407695Y-67967773D01*
X146428786Y-67979046D01*
X146447278Y-67994222D01*
X146462454Y-68012714D01*
X146473727Y-68033805D01*
X146480671Y-68056696D01*
X146483500Y-68085417D01*
X146483500Y-68520583D01*
X146480671Y-68549304D01*
X146473727Y-68572195D01*
X146462454Y-68593286D01*
X146447278Y-68611778D01*
X146428786Y-68626954D01*
X146407695Y-68638227D01*
X146384804Y-68645171D01*
X146356083Y-68648000D01*
X145870917Y-68648000D01*
X145842196Y-68645171D01*
X145819305Y-68638227D01*
X145798214Y-68626954D01*
X145779722Y-68611778D01*
X145764546Y-68593286D01*
X145753273Y-68572195D01*
X145746329Y-68549304D01*
X145743500Y-68520583D01*
X145743500Y-68085417D01*
X145746329Y-68056696D01*
X145753273Y-68033805D01*
X145764546Y-68012714D01*
X145779722Y-67994222D01*
X145798214Y-67979046D01*
X145819305Y-67967773D01*
X145842196Y-67960829D01*
X145870917Y-67958000D01*
X146356083Y-67958000D01*
X146384804Y-67960829D01*
X146384804Y-67960829D01*
G37*
G36*
X150321804Y-67960829D02*
X150344695Y-67967773D01*
X150365786Y-67979046D01*
X150384278Y-67994222D01*
X150399454Y-68012714D01*
X150410727Y-68033805D01*
X150417671Y-68056696D01*
X150420500Y-68085417D01*
X150420500Y-68520583D01*
X150417671Y-68549304D01*
X150410727Y-68572195D01*
X150399454Y-68593286D01*
X150384278Y-68611778D01*
X150365786Y-68626954D01*
X150344695Y-68638227D01*
X150321804Y-68645171D01*
X150293083Y-68648000D01*
X149807917Y-68648000D01*
X149779196Y-68645171D01*
X149756305Y-68638227D01*
X149735214Y-68626954D01*
X149716722Y-68611778D01*
X149701546Y-68593286D01*
X149690273Y-68572195D01*
X149683329Y-68549304D01*
X149680500Y-68520583D01*
X149680500Y-68085417D01*
X149683329Y-68056696D01*
X149690273Y-68033805D01*
X149701546Y-68012714D01*
X149716722Y-67994222D01*
X149735214Y-67979046D01*
X149756305Y-67967773D01*
X149779196Y-67960829D01*
X149807917Y-67958000D01*
X150293083Y-67958000D01*
X150321804Y-67960829D01*
X150321804Y-67960829D01*
G37*
G36*
X145241804Y-67960829D02*
X145264695Y-67967773D01*
X145285786Y-67979046D01*
X145304278Y-67994222D01*
X145319454Y-68012714D01*
X145330727Y-68033805D01*
X145337671Y-68056696D01*
X145340500Y-68085417D01*
X145340500Y-68520583D01*
X145337671Y-68549304D01*
X145330727Y-68572195D01*
X145319454Y-68593286D01*
X145304278Y-68611778D01*
X145285786Y-68626954D01*
X145264695Y-68638227D01*
X145241804Y-68645171D01*
X145213083Y-68648000D01*
X144727917Y-68648000D01*
X144699196Y-68645171D01*
X144676305Y-68638227D01*
X144655214Y-68626954D01*
X144636722Y-68611778D01*
X144621546Y-68593286D01*
X144610273Y-68572195D01*
X144603329Y-68549304D01*
X144600500Y-68520583D01*
X144600500Y-68085417D01*
X144603329Y-68056696D01*
X144610273Y-68033805D01*
X144621546Y-68012714D01*
X144636722Y-67994222D01*
X144655214Y-67979046D01*
X144676305Y-67967773D01*
X144699196Y-67960829D01*
X144727917Y-67958000D01*
X145213083Y-67958000D01*
X145241804Y-67960829D01*
X145241804Y-67960829D01*
G37*
G36*
X151464804Y-67960829D02*
X151487695Y-67967773D01*
X151508786Y-67979046D01*
X151527278Y-67994222D01*
X151542454Y-68012714D01*
X151553727Y-68033805D01*
X151560671Y-68056696D01*
X151563500Y-68085417D01*
X151563500Y-68520583D01*
X151560671Y-68549304D01*
X151553727Y-68572195D01*
X151542454Y-68593286D01*
X151527278Y-68611778D01*
X151508786Y-68626954D01*
X151487695Y-68638227D01*
X151464804Y-68645171D01*
X151436083Y-68648000D01*
X150950917Y-68648000D01*
X150922196Y-68645171D01*
X150899305Y-68638227D01*
X150878214Y-68626954D01*
X150859722Y-68611778D01*
X150844546Y-68593286D01*
X150833273Y-68572195D01*
X150826329Y-68549304D01*
X150823500Y-68520583D01*
X150823500Y-68085417D01*
X150826329Y-68056696D01*
X150833273Y-68033805D01*
X150844546Y-68012714D01*
X150859722Y-67994222D01*
X150878214Y-67979046D01*
X150899305Y-67967773D01*
X150922196Y-67960829D01*
X150950917Y-67958000D01*
X151436083Y-67958000D01*
X151464804Y-67960829D01*
X151464804Y-67960829D01*
G37*
G36*
X150321804Y-66990829D02*
X150344695Y-66997773D01*
X150365786Y-67009046D01*
X150384278Y-67024222D01*
X150399454Y-67042714D01*
X150410727Y-67063805D01*
X150417671Y-67086696D01*
X150420500Y-67115417D01*
X150420500Y-67550583D01*
X150417671Y-67579304D01*
X150410727Y-67602195D01*
X150399454Y-67623286D01*
X150384278Y-67641778D01*
X150365786Y-67656954D01*
X150344695Y-67668227D01*
X150321804Y-67675171D01*
X150293083Y-67678000D01*
X149807917Y-67678000D01*
X149779196Y-67675171D01*
X149756305Y-67668227D01*
X149735214Y-67656954D01*
X149716722Y-67641778D01*
X149701546Y-67623286D01*
X149690273Y-67602195D01*
X149683329Y-67579304D01*
X149680500Y-67550583D01*
X149680500Y-67115417D01*
X149683329Y-67086696D01*
X149690273Y-67063805D01*
X149701546Y-67042714D01*
X149716722Y-67024222D01*
X149735214Y-67009046D01*
X149756305Y-66997773D01*
X149779196Y-66990829D01*
X149807917Y-66988000D01*
X150293083Y-66988000D01*
X150321804Y-66990829D01*
X150321804Y-66990829D01*
G37*
G36*
X145241804Y-66990829D02*
X145264695Y-66997773D01*
X145285786Y-67009046D01*
X145304278Y-67024222D01*
X145319454Y-67042714D01*
X145330727Y-67063805D01*
X145337671Y-67086696D01*
X145340500Y-67115417D01*
X145340500Y-67550583D01*
X145337671Y-67579304D01*
X145330727Y-67602195D01*
X145319454Y-67623286D01*
X145304278Y-67641778D01*
X145285786Y-67656954D01*
X145264695Y-67668227D01*
X145241804Y-67675171D01*
X145213083Y-67678000D01*
X144727917Y-67678000D01*
X144699196Y-67675171D01*
X144676305Y-67668227D01*
X144655214Y-67656954D01*
X144636722Y-67641778D01*
X144621546Y-67623286D01*
X144610273Y-67602195D01*
X144603329Y-67579304D01*
X144600500Y-67550583D01*
X144600500Y-67115417D01*
X144603329Y-67086696D01*
X144610273Y-67063805D01*
X144621546Y-67042714D01*
X144636722Y-67024222D01*
X144655214Y-67009046D01*
X144676305Y-66997773D01*
X144699196Y-66990829D01*
X144727917Y-66988000D01*
X145213083Y-66988000D01*
X145241804Y-66990829D01*
X145241804Y-66990829D01*
G37*
G36*
X151464804Y-66990829D02*
X151487695Y-66997773D01*
X151508786Y-67009046D01*
X151527278Y-67024222D01*
X151542454Y-67042714D01*
X151553727Y-67063805D01*
X151560671Y-67086696D01*
X151563500Y-67115417D01*
X151563500Y-67550583D01*
X151560671Y-67579304D01*
X151553727Y-67602195D01*
X151542454Y-67623286D01*
X151527278Y-67641778D01*
X151508786Y-67656954D01*
X151487695Y-67668227D01*
X151464804Y-67675171D01*
X151436083Y-67678000D01*
X150950917Y-67678000D01*
X150922196Y-67675171D01*
X150899305Y-67668227D01*
X150878214Y-67656954D01*
X150859722Y-67641778D01*
X150844546Y-67623286D01*
X150833273Y-67602195D01*
X150826329Y-67579304D01*
X150823500Y-67550583D01*
X150823500Y-67115417D01*
X150826329Y-67086696D01*
X150833273Y-67063805D01*
X150844546Y-67042714D01*
X150859722Y-67024222D01*
X150878214Y-67009046D01*
X150899305Y-66997773D01*
X150922196Y-66990829D01*
X150950917Y-66988000D01*
X151436083Y-66988000D01*
X151464804Y-66990829D01*
X151464804Y-66990829D01*
G37*
G36*
X146384804Y-66990829D02*
X146407695Y-66997773D01*
X146428786Y-67009046D01*
X146447278Y-67024222D01*
X146462454Y-67042714D01*
X146473727Y-67063805D01*
X146480671Y-67086696D01*
X146483500Y-67115417D01*
X146483500Y-67550583D01*
X146480671Y-67579304D01*
X146473727Y-67602195D01*
X146462454Y-67623286D01*
X146447278Y-67641778D01*
X146428786Y-67656954D01*
X146407695Y-67668227D01*
X146384804Y-67675171D01*
X146356083Y-67678000D01*
X145870917Y-67678000D01*
X145842196Y-67675171D01*
X145819305Y-67668227D01*
X145798214Y-67656954D01*
X145779722Y-67641778D01*
X145764546Y-67623286D01*
X145753273Y-67602195D01*
X145746329Y-67579304D01*
X145743500Y-67550583D01*
X145743500Y-67115417D01*
X145746329Y-67086696D01*
X145753273Y-67063805D01*
X145764546Y-67042714D01*
X145779722Y-67024222D01*
X145798214Y-67009046D01*
X145819305Y-66997773D01*
X145842196Y-66990829D01*
X145870917Y-66988000D01*
X146356083Y-66988000D01*
X146384804Y-66990829D01*
X146384804Y-66990829D01*
G37*
G36*
X133908361Y-65709557D02*
X133948135Y-65721623D01*
X133984792Y-65741216D01*
X134016918Y-65767582D01*
X134043284Y-65799708D01*
X134062877Y-65836365D01*
X134074943Y-65876139D01*
X134079500Y-65922408D01*
X134079500Y-66637592D01*
X134074943Y-66683861D01*
X134062877Y-66723635D01*
X134043284Y-66760292D01*
X134016918Y-66792418D01*
X133984792Y-66818784D01*
X133948135Y-66838377D01*
X133908361Y-66850443D01*
X133862092Y-66855000D01*
X133246908Y-66855000D01*
X133200639Y-66850443D01*
X133160865Y-66838377D01*
X133124208Y-66818784D01*
X133092082Y-66792418D01*
X133065716Y-66760292D01*
X133046123Y-66723635D01*
X133034057Y-66683861D01*
X133029500Y-66637592D01*
X133029500Y-65922408D01*
X133034057Y-65876139D01*
X133046123Y-65836365D01*
X133065716Y-65799708D01*
X133092082Y-65767582D01*
X133124208Y-65741216D01*
X133160865Y-65721623D01*
X133200639Y-65709557D01*
X133246908Y-65705000D01*
X133862092Y-65705000D01*
X133908361Y-65709557D01*
X133908361Y-65709557D01*
G37*
G36*
X135658361Y-65709557D02*
X135698135Y-65721623D01*
X135734792Y-65741216D01*
X135766918Y-65767582D01*
X135793284Y-65799708D01*
X135812877Y-65836365D01*
X135824943Y-65876139D01*
X135829500Y-65922408D01*
X135829500Y-66637592D01*
X135824943Y-66683861D01*
X135812877Y-66723635D01*
X135793284Y-66760292D01*
X135766918Y-66792418D01*
X135734792Y-66818784D01*
X135698135Y-66838377D01*
X135658361Y-66850443D01*
X135612092Y-66855000D01*
X134996908Y-66855000D01*
X134950639Y-66850443D01*
X134910865Y-66838377D01*
X134874208Y-66818784D01*
X134842082Y-66792418D01*
X134815716Y-66760292D01*
X134796123Y-66723635D01*
X134784057Y-66683861D01*
X134779500Y-66637592D01*
X134779500Y-65922408D01*
X134784057Y-65876139D01*
X134796123Y-65836365D01*
X134815716Y-65799708D01*
X134842082Y-65767582D01*
X134874208Y-65741216D01*
X134910865Y-65721623D01*
X134950639Y-65709557D01*
X134996908Y-65705000D01*
X135612092Y-65705000D01*
X135658361Y-65709557D01*
X135658361Y-65709557D01*
G37*
G36*
X133908361Y-63959557D02*
X133948135Y-63971623D01*
X133984792Y-63991216D01*
X134016918Y-64017582D01*
X134043284Y-64049708D01*
X134062877Y-64086365D01*
X134074943Y-64126139D01*
X134079500Y-64172408D01*
X134079500Y-64887592D01*
X134074943Y-64933861D01*
X134062877Y-64973635D01*
X134043284Y-65010292D01*
X134016918Y-65042418D01*
X133984792Y-65068784D01*
X133948135Y-65088377D01*
X133908361Y-65100443D01*
X133862092Y-65105000D01*
X133246908Y-65105000D01*
X133200639Y-65100443D01*
X133160865Y-65088377D01*
X133124208Y-65068784D01*
X133092082Y-65042418D01*
X133065716Y-65010292D01*
X133046123Y-64973635D01*
X133034057Y-64933861D01*
X133029500Y-64887592D01*
X133029500Y-64172408D01*
X133034057Y-64126139D01*
X133046123Y-64086365D01*
X133065716Y-64049708D01*
X133092082Y-64017582D01*
X133124208Y-63991216D01*
X133160865Y-63971623D01*
X133200639Y-63959557D01*
X133246908Y-63955000D01*
X133862092Y-63955000D01*
X133908361Y-63959557D01*
X133908361Y-63959557D01*
G37*
G36*
X135658361Y-63959557D02*
X135698135Y-63971623D01*
X135734792Y-63991216D01*
X135766918Y-64017582D01*
X135793284Y-64049708D01*
X135812877Y-64086365D01*
X135824943Y-64126139D01*
X135829500Y-64172408D01*
X135829500Y-64887592D01*
X135824943Y-64933861D01*
X135812877Y-64973635D01*
X135793284Y-65010292D01*
X135766918Y-65042418D01*
X135734792Y-65068784D01*
X135698135Y-65088377D01*
X135658361Y-65100443D01*
X135612092Y-65105000D01*
X134996908Y-65105000D01*
X134950639Y-65100443D01*
X134910865Y-65088377D01*
X134874208Y-65068784D01*
X134842082Y-65042418D01*
X134815716Y-65010292D01*
X134796123Y-64973635D01*
X134784057Y-64933861D01*
X134779500Y-64887592D01*
X134779500Y-64172408D01*
X134784057Y-64126139D01*
X134796123Y-64086365D01*
X134815716Y-64049708D01*
X134842082Y-64017582D01*
X134874208Y-63991216D01*
X134910865Y-63971623D01*
X134950639Y-63959557D01*
X134996908Y-63955000D01*
X135612092Y-63955000D01*
X135658361Y-63959557D01*
X135658361Y-63959557D01*
G37*
M02*
