G04 #@! TF.GenerationSoftware,KiCad,Pcbnew,5.0.2+dfsg1-1*
G04 #@! TF.CreationDate,2021-06-07T16:20:21-04:00*
G04 #@! TF.ProjectId,KyberBoard,4b796265-7242-46f6-9172-642e6b696361,rev?*
G04 #@! TF.SameCoordinates,Original*
G04 #@! TF.FileFunction,Copper,L2,Inr*
G04 #@! TF.FilePolarity,Positive*
%FSLAX46Y46*%
G04 Gerber Fmt 4.6, Leading zero omitted, Abs format (unit mm)*
G04 Created by KiCad (PCBNEW 5.0.2+dfsg1-1) date Mon 07 Jun 2021 04:20:21 PM EDT*
%MOMM*%
%LPD*%
G01*
G04 APERTURE LIST*
G04 #@! TA.AperFunction,ViaPad*
%ADD10C,0.600000*%
G04 #@! TD*
G04 #@! TA.AperFunction,ViaPad*
%ADD11R,2.200000X2.200000*%
G04 #@! TD*
G04 #@! TA.AperFunction,ViaPad*
%ADD12C,2.200000*%
G04 #@! TD*
G04 #@! TA.AperFunction,ViaPad*
%ADD13C,0.800000*%
G04 #@! TD*
G04 #@! TA.AperFunction,ViaPad*
%ADD14C,6.400000*%
G04 #@! TD*
G04 #@! TA.AperFunction,ViaPad*
%ADD15R,2.100000X2.100000*%
G04 #@! TD*
G04 #@! TA.AperFunction,ViaPad*
%ADD16C,2.100000*%
G04 #@! TD*
G04 #@! TA.AperFunction,ViaPad*
%ADD17C,0.508000*%
G04 #@! TD*
G04 #@! TA.AperFunction,Conductor*
%ADD18C,0.152400*%
G04 #@! TD*
G04 #@! TA.AperFunction,Conductor*
%ADD19C,0.254000*%
G04 #@! TD*
G04 APERTURE END LIST*
D10*
G04 #@! TO.N,/hbridge/VCC*
G04 #@! TO.C,U2*
X132866000Y-83336000D03*
X134366000Y-83336000D03*
X135866000Y-83336000D03*
X132866000Y-84336000D03*
X134366000Y-84336000D03*
X135866000Y-84336000D03*
X132866000Y-85336000D03*
X134366000Y-85336000D03*
X135866000Y-85336000D03*
X132866000Y-86336000D03*
X134366000Y-86336000D03*
X135866000Y-86336000D03*
G04 #@! TD*
D11*
G04 #@! TO.N,+12V*
G04 #@! TO.C,*
X140081000Y-71755000D03*
D12*
G04 #@! TO.N,/SOL-*
X142621000Y-71755000D03*
G04 #@! TO.N,/LED+*
X145161000Y-71755000D03*
G04 #@! TO.N,/LED-*
X147701000Y-71755000D03*
G04 #@! TO.N,/SPKR+*
X150241000Y-71755000D03*
G04 #@! TO.N,/SPKR-*
X152781000Y-71755000D03*
G04 #@! TO.N,+3V3*
X155321000Y-71755000D03*
G04 #@! TO.N,/BTN*
X157861000Y-71755000D03*
G04 #@! TO.N,+3V3*
X160401000Y-71755000D03*
G04 #@! TO.N,/ENC_A*
X162941000Y-71755000D03*
G04 #@! TO.N,/ENC_B*
X165481000Y-71755000D03*
G04 #@! TO.N,GND*
X168021000Y-71755000D03*
G04 #@! TD*
D13*
G04 #@! TO.N,GND*
G04 #@! TO.C,*
X121839056Y-65358944D03*
X120142000Y-64656000D03*
X118444944Y-65358944D03*
X117742000Y-67056000D03*
X118444944Y-68753056D03*
X120142000Y-69456000D03*
X121839056Y-68753056D03*
X122542000Y-67056000D03*
D14*
X120142000Y-67056000D03*
G04 #@! TD*
G04 #@! TO.N,GND*
G04 #@! TO.C,*
X173228000Y-67056000D03*
D13*
X175628000Y-67056000D03*
X174925056Y-68753056D03*
X173228000Y-69456000D03*
X171530944Y-68753056D03*
X170828000Y-67056000D03*
X171530944Y-65358944D03*
X173228000Y-64656000D03*
X174925056Y-65358944D03*
G04 #@! TD*
D14*
G04 #@! TO.N,GND*
G04 #@! TO.C,*
X173228000Y-86614000D03*
D13*
X175628000Y-86614000D03*
X174925056Y-88311056D03*
X173228000Y-89014000D03*
X171530944Y-88311056D03*
X170828000Y-86614000D03*
X171530944Y-84916944D03*
X173228000Y-84214000D03*
X174925056Y-84916944D03*
G04 #@! TD*
D15*
G04 #@! TO.N,GND*
G04 #@! TO.C,*
X128651000Y-71755000D03*
D16*
G04 #@! TO.N,/BATT+*
X126111000Y-71755000D03*
G04 #@! TD*
G04 #@! TO.N,/MOT+*
G04 #@! TO.C,*
X133096000Y-71755000D03*
D15*
G04 #@! TO.N,/MOT-*
X135636000Y-71755000D03*
G04 #@! TD*
D17*
G04 #@! TO.N,GND*
X136271000Y-80470000D03*
X135636000Y-80470000D03*
X135001000Y-80470000D03*
X134366000Y-80470000D03*
X140792200Y-85600800D03*
X140792200Y-87124800D03*
X131336759Y-89891800D03*
X120269000Y-85296000D03*
X120269000Y-87836000D03*
X123571000Y-87836000D03*
X143637000Y-84074000D03*
X134620000Y-89398100D03*
X145796000Y-76200000D03*
X140716000Y-76200000D03*
X150876000Y-76200000D03*
X154940000Y-76200000D03*
X161925000Y-80010000D03*
X164592000Y-81026000D03*
X143764000Y-86207600D03*
X127000000Y-86868000D03*
X123571000Y-85979000D03*
X152273000Y-84074000D03*
X160655000Y-87630000D03*
X159004000Y-67564000D03*
X164084000Y-67564000D03*
X166624000Y-67564000D03*
X139319000Y-73660000D03*
X132080000Y-65405000D03*
X136652000Y-65532000D03*
X169926000Y-83566000D03*
X166624000Y-87376000D03*
X171450000Y-75438000D03*
X175212200Y-78994000D03*
G04 #@! TO.N,+3V3*
X154686000Y-78994000D03*
X151384000Y-78994000D03*
X154686000Y-82804000D03*
X151384000Y-82804000D03*
X151384000Y-80772000D03*
X154686000Y-80772000D03*
X158038800Y-84480400D03*
X154940000Y-73914000D03*
X126492000Y-89408000D03*
X127704954Y-85655046D03*
X148336000Y-80137000D03*
X160655000Y-76200000D03*
X147955000Y-68072000D03*
X151638000Y-66611500D03*
X164084000Y-87376000D03*
X175006000Y-75438000D03*
G04 #@! TO.N,+12C*
X148209000Y-78168500D03*
G04 #@! TO.N,/micro/SWCLK*
X164465000Y-76200000D03*
G04 #@! TO.N,/micro/SWDIO*
X164465000Y-78740000D03*
G04 #@! TO.N,+12V*
X141605000Y-79756000D03*
X141605000Y-77470000D03*
X139700000Y-77470000D03*
X140652500Y-77470000D03*
X142748000Y-68072000D03*
X141732000Y-66802000D03*
G04 #@! TO.N,/hbridge/PWM_MTR*
X140716000Y-88471000D03*
G04 #@! TO.N,/hbridge/INA*
X130937000Y-88090000D03*
G04 #@! TO.N,/hbridge/INB*
X142211799Y-87658201D03*
G04 #@! TO.N,/hbridge/imtr*
X152146000Y-89281000D03*
G04 #@! TO.N,/micro/LED_HBEAT*
X159385000Y-78740000D03*
G04 #@! TO.N,Net-(C8-Pad1)*
X140774859Y-86311791D03*
G04 #@! TO.N,Net-(Q4-Pad2)*
X135001000Y-78184000D03*
X137795000Y-86566000D03*
G04 #@! TO.N,Net-(Q4-Pad4)*
X129025948Y-75791633D03*
G04 #@! TO.N,Net-(R12-Pad1)*
X126997224Y-87585483D03*
G04 #@! TO.N,Net-(R13-Pad1)*
X137795000Y-87328000D03*
G04 #@! TO.N,/hbridge/VCC*
X123698000Y-75819000D03*
X123698000Y-74549000D03*
X123698000Y-77089000D03*
X120015000Y-78740000D03*
X118745000Y-78740000D03*
X120015000Y-80010000D03*
X118745000Y-80010000D03*
X118745000Y-81280000D03*
X120015000Y-81280000D03*
X136652000Y-66548000D03*
X132080000Y-66548000D03*
G04 #@! TO.N,/micro/NRST*
X163322000Y-84455000D03*
G04 #@! TO.N,Net-(Q2-Pad4)*
X142240000Y-76835000D03*
G04 #@! TD*
D18*
G04 #@! TO.N,Net-(Q4-Pad2)*
X135001000Y-78184000D02*
X135001000Y-78184000D01*
X137795000Y-86566000D02*
X137795000Y-78692000D01*
X137287000Y-78184000D02*
X137795000Y-78692000D01*
X135001000Y-78184000D02*
X137287000Y-78184000D01*
G04 #@! TD*
D19*
G04 #@! TO.N,+3V3*
G36*
X171257078Y-64106308D02*
X170278308Y-65085078D01*
X169748600Y-66363904D01*
X169748600Y-67748096D01*
X170278308Y-69026922D01*
X171257078Y-70005692D01*
X172535904Y-70535400D01*
X173920096Y-70535400D01*
X175198922Y-70005692D01*
X176177692Y-69026922D01*
X176683601Y-67805552D01*
X176683600Y-85864446D01*
X176177692Y-84643078D01*
X175198922Y-83664308D01*
X173920096Y-83134600D01*
X172535904Y-83134600D01*
X171257078Y-83664308D01*
X170278308Y-84643078D01*
X169748600Y-85921904D01*
X169748600Y-87306096D01*
X170278308Y-88584922D01*
X171257078Y-89563692D01*
X172478446Y-90069600D01*
X131840460Y-90069600D01*
X131870159Y-89997900D01*
X131870159Y-89785700D01*
X131788954Y-89589653D01*
X131638906Y-89439605D01*
X131442859Y-89358400D01*
X131230659Y-89358400D01*
X131034612Y-89439605D01*
X130884564Y-89589653D01*
X130803359Y-89785700D01*
X130803359Y-89997900D01*
X130833058Y-90069600D01*
X120159955Y-90069600D01*
X119447521Y-89997234D01*
X118781410Y-89788487D01*
X118170882Y-89450065D01*
X117986465Y-89292000D01*
X134086600Y-89292000D01*
X134086600Y-89504200D01*
X134167805Y-89700247D01*
X134317853Y-89850295D01*
X134513900Y-89931500D01*
X134726100Y-89931500D01*
X134922147Y-89850295D01*
X135072195Y-89700247D01*
X135153400Y-89504200D01*
X135153400Y-89292000D01*
X135104896Y-89174900D01*
X151612600Y-89174900D01*
X151612600Y-89387100D01*
X151693805Y-89583147D01*
X151843853Y-89733195D01*
X152039900Y-89814400D01*
X152252100Y-89814400D01*
X152448147Y-89733195D01*
X152598195Y-89583147D01*
X152679400Y-89387100D01*
X152679400Y-89174900D01*
X152598195Y-88978853D01*
X152448147Y-88828805D01*
X152252100Y-88747600D01*
X152039900Y-88747600D01*
X151843853Y-88828805D01*
X151693805Y-88978853D01*
X151612600Y-89174900D01*
X135104896Y-89174900D01*
X135072195Y-89095953D01*
X134922147Y-88945905D01*
X134726100Y-88864700D01*
X134513900Y-88864700D01*
X134317853Y-88945905D01*
X134167805Y-89095953D01*
X134086600Y-89292000D01*
X117986465Y-89292000D01*
X117640872Y-88995791D01*
X117213031Y-88444222D01*
X116904838Y-87817890D01*
X116810194Y-87454547D01*
X119896046Y-87454612D01*
X119816805Y-87533853D01*
X119735600Y-87729900D01*
X119735600Y-87942100D01*
X119816805Y-88138147D01*
X119966853Y-88288195D01*
X120162900Y-88369400D01*
X120375100Y-88369400D01*
X120571147Y-88288195D01*
X120721195Y-88138147D01*
X120802400Y-87942100D01*
X120802400Y-87729900D01*
X120721195Y-87533853D01*
X120641970Y-87454628D01*
X123197976Y-87454682D01*
X123118805Y-87533853D01*
X123037600Y-87729900D01*
X123037600Y-87942100D01*
X123118805Y-88138147D01*
X123268853Y-88288195D01*
X123464900Y-88369400D01*
X123677100Y-88369400D01*
X123873147Y-88288195D01*
X124023195Y-88138147D01*
X124104400Y-87942100D01*
X124104400Y-87729900D01*
X124023195Y-87533853D01*
X123944040Y-87454698D01*
X126474027Y-87454752D01*
X126463824Y-87479383D01*
X126463824Y-87691583D01*
X126545029Y-87887630D01*
X126695077Y-88037678D01*
X126891124Y-88118883D01*
X127103324Y-88118883D01*
X127299371Y-88037678D01*
X127353149Y-87983900D01*
X130403600Y-87983900D01*
X130403600Y-88196100D01*
X130484805Y-88392147D01*
X130634853Y-88542195D01*
X130830900Y-88623400D01*
X131043100Y-88623400D01*
X131239147Y-88542195D01*
X131389195Y-88392147D01*
X131400481Y-88364900D01*
X140182600Y-88364900D01*
X140182600Y-88577100D01*
X140263805Y-88773147D01*
X140413853Y-88923195D01*
X140609900Y-89004400D01*
X140822100Y-89004400D01*
X141018147Y-88923195D01*
X141168195Y-88773147D01*
X141249400Y-88577100D01*
X141249400Y-88364900D01*
X141168195Y-88168853D01*
X141018147Y-88018805D01*
X140822100Y-87937600D01*
X140609900Y-87937600D01*
X140413853Y-88018805D01*
X140263805Y-88168853D01*
X140182600Y-88364900D01*
X131400481Y-88364900D01*
X131470400Y-88196100D01*
X131470400Y-87983900D01*
X131389195Y-87787853D01*
X131239147Y-87637805D01*
X131043100Y-87556600D01*
X130830900Y-87556600D01*
X130634853Y-87637805D01*
X130484805Y-87787853D01*
X130403600Y-87983900D01*
X127353149Y-87983900D01*
X127449419Y-87887630D01*
X127530624Y-87691583D01*
X127530624Y-87479383D01*
X127520431Y-87454774D01*
X137270249Y-87454981D01*
X137342805Y-87630147D01*
X137492853Y-87780195D01*
X137688900Y-87861400D01*
X137901100Y-87861400D01*
X138097147Y-87780195D01*
X138247195Y-87630147D01*
X138328400Y-87434100D01*
X138328400Y-87221900D01*
X138303000Y-87160579D01*
X138303000Y-86733421D01*
X138328400Y-86672100D01*
X138328400Y-86459900D01*
X138303000Y-86398579D01*
X138303000Y-86205691D01*
X140241459Y-86205691D01*
X140241459Y-86417891D01*
X140322664Y-86613938D01*
X140435692Y-86726966D01*
X140340005Y-86822653D01*
X140258800Y-87018700D01*
X140258800Y-87230900D01*
X140340005Y-87426947D01*
X140490053Y-87576995D01*
X140686100Y-87658200D01*
X140898300Y-87658200D01*
X141094347Y-87576995D01*
X141119241Y-87552101D01*
X141678399Y-87552101D01*
X141678399Y-87764301D01*
X141759604Y-87960348D01*
X141909652Y-88110396D01*
X142105699Y-88191601D01*
X142317899Y-88191601D01*
X142513946Y-88110396D01*
X142663994Y-87960348D01*
X142745199Y-87764301D01*
X142745199Y-87552101D01*
X142733518Y-87523900D01*
X160121600Y-87523900D01*
X160121600Y-87736100D01*
X160202805Y-87932147D01*
X160352853Y-88082195D01*
X160548900Y-88163400D01*
X160761100Y-88163400D01*
X160957147Y-88082195D01*
X161107195Y-87932147D01*
X161188400Y-87736100D01*
X161188400Y-87523900D01*
X161107195Y-87327853D01*
X161049242Y-87269900D01*
X166090600Y-87269900D01*
X166090600Y-87482100D01*
X166171805Y-87678147D01*
X166321853Y-87828195D01*
X166517900Y-87909400D01*
X166730100Y-87909400D01*
X166926147Y-87828195D01*
X167076195Y-87678147D01*
X167157400Y-87482100D01*
X167157400Y-87269900D01*
X167076195Y-87073853D01*
X166926147Y-86923805D01*
X166730100Y-86842600D01*
X166517900Y-86842600D01*
X166321853Y-86923805D01*
X166171805Y-87073853D01*
X166090600Y-87269900D01*
X161049242Y-87269900D01*
X160957147Y-87177805D01*
X160761100Y-87096600D01*
X160548900Y-87096600D01*
X160352853Y-87177805D01*
X160202805Y-87327853D01*
X160121600Y-87523900D01*
X142733518Y-87523900D01*
X142663994Y-87356054D01*
X142513946Y-87206006D01*
X142317899Y-87124801D01*
X142105699Y-87124801D01*
X141909652Y-87206006D01*
X141759604Y-87356054D01*
X141678399Y-87552101D01*
X141119241Y-87552101D01*
X141244395Y-87426947D01*
X141325600Y-87230900D01*
X141325600Y-87018700D01*
X141244395Y-86822653D01*
X141131367Y-86709625D01*
X141227054Y-86613938D01*
X141308259Y-86417891D01*
X141308259Y-86205691D01*
X141265102Y-86101500D01*
X143230600Y-86101500D01*
X143230600Y-86313700D01*
X143311805Y-86509747D01*
X143461853Y-86659795D01*
X143657900Y-86741000D01*
X143870100Y-86741000D01*
X144066147Y-86659795D01*
X144216195Y-86509747D01*
X144297400Y-86313700D01*
X144297400Y-86101500D01*
X144216195Y-85905453D01*
X144066147Y-85755405D01*
X143870100Y-85674200D01*
X143657900Y-85674200D01*
X143461853Y-85755405D01*
X143311805Y-85905453D01*
X143230600Y-86101500D01*
X141265102Y-86101500D01*
X141227054Y-86009644D01*
X141182376Y-85964966D01*
X141244395Y-85902947D01*
X141325600Y-85706900D01*
X141325600Y-85494700D01*
X141244395Y-85298653D01*
X141094347Y-85148605D01*
X140898300Y-85067400D01*
X140686100Y-85067400D01*
X140490053Y-85148605D01*
X140340005Y-85298653D01*
X140258800Y-85494700D01*
X140258800Y-85706900D01*
X140340005Y-85902947D01*
X140384683Y-85947625D01*
X140322664Y-86009644D01*
X140241459Y-86205691D01*
X138303000Y-86205691D01*
X138303000Y-83967900D01*
X143103600Y-83967900D01*
X143103600Y-84180100D01*
X143184805Y-84376147D01*
X143334853Y-84526195D01*
X143530900Y-84607400D01*
X143743100Y-84607400D01*
X143939147Y-84526195D01*
X144089195Y-84376147D01*
X144170400Y-84180100D01*
X144170400Y-83967900D01*
X151739600Y-83967900D01*
X151739600Y-84180100D01*
X151820805Y-84376147D01*
X151970853Y-84526195D01*
X152166900Y-84607400D01*
X152379100Y-84607400D01*
X152575147Y-84526195D01*
X152725195Y-84376147D01*
X152736481Y-84348900D01*
X162788600Y-84348900D01*
X162788600Y-84561100D01*
X162869805Y-84757147D01*
X163019853Y-84907195D01*
X163215900Y-84988400D01*
X163428100Y-84988400D01*
X163624147Y-84907195D01*
X163774195Y-84757147D01*
X163855400Y-84561100D01*
X163855400Y-84348900D01*
X163774195Y-84152853D01*
X163624147Y-84002805D01*
X163428100Y-83921600D01*
X163215900Y-83921600D01*
X163019853Y-84002805D01*
X162869805Y-84152853D01*
X162788600Y-84348900D01*
X152736481Y-84348900D01*
X152806400Y-84180100D01*
X152806400Y-83967900D01*
X152725195Y-83771853D01*
X152575147Y-83621805D01*
X152379100Y-83540600D01*
X152166900Y-83540600D01*
X151970853Y-83621805D01*
X151820805Y-83771853D01*
X151739600Y-83967900D01*
X144170400Y-83967900D01*
X144089195Y-83771853D01*
X143939147Y-83621805D01*
X143743100Y-83540600D01*
X143530900Y-83540600D01*
X143334853Y-83621805D01*
X143184805Y-83771853D01*
X143103600Y-83967900D01*
X138303000Y-83967900D01*
X138303000Y-83459900D01*
X169392600Y-83459900D01*
X169392600Y-83672100D01*
X169473805Y-83868147D01*
X169623853Y-84018195D01*
X169819900Y-84099400D01*
X170032100Y-84099400D01*
X170228147Y-84018195D01*
X170378195Y-83868147D01*
X170459400Y-83672100D01*
X170459400Y-83459900D01*
X170378195Y-83263853D01*
X170228147Y-83113805D01*
X170032100Y-83032600D01*
X169819900Y-83032600D01*
X169623853Y-83113805D01*
X169473805Y-83263853D01*
X169392600Y-83459900D01*
X138303000Y-83459900D01*
X138303000Y-81867000D01*
X143891000Y-81867000D01*
X143939601Y-81857333D01*
X143980803Y-81829803D01*
X144008333Y-81788601D01*
X144018000Y-81740000D01*
X144018000Y-80919900D01*
X164058600Y-80919900D01*
X164058600Y-81132100D01*
X164139805Y-81328147D01*
X164289853Y-81478195D01*
X164485900Y-81559400D01*
X164698100Y-81559400D01*
X164894147Y-81478195D01*
X165044195Y-81328147D01*
X165125400Y-81132100D01*
X165125400Y-80919900D01*
X165044195Y-80723853D01*
X164894147Y-80573805D01*
X164698100Y-80492600D01*
X164485900Y-80492600D01*
X164289853Y-80573805D01*
X164139805Y-80723853D01*
X164058600Y-80919900D01*
X144018000Y-80919900D01*
X144018000Y-79903900D01*
X161391600Y-79903900D01*
X161391600Y-80116100D01*
X161472805Y-80312147D01*
X161622853Y-80462195D01*
X161818900Y-80543400D01*
X162031100Y-80543400D01*
X162227147Y-80462195D01*
X162377195Y-80312147D01*
X162458400Y-80116100D01*
X162458400Y-79903900D01*
X162377195Y-79707853D01*
X162227147Y-79557805D01*
X162031100Y-79476600D01*
X161818900Y-79476600D01*
X161622853Y-79557805D01*
X161472805Y-79707853D01*
X161391600Y-79903900D01*
X144018000Y-79903900D01*
X144018000Y-78062400D01*
X147675600Y-78062400D01*
X147675600Y-78274600D01*
X147756805Y-78470647D01*
X147906853Y-78620695D01*
X148102900Y-78701900D01*
X148315100Y-78701900D01*
X148479267Y-78633900D01*
X158851600Y-78633900D01*
X158851600Y-78846100D01*
X158932805Y-79042147D01*
X159082853Y-79192195D01*
X159278900Y-79273400D01*
X159491100Y-79273400D01*
X159687147Y-79192195D01*
X159837195Y-79042147D01*
X159918400Y-78846100D01*
X159918400Y-78633900D01*
X163931600Y-78633900D01*
X163931600Y-78846100D01*
X164012805Y-79042147D01*
X164162853Y-79192195D01*
X164358900Y-79273400D01*
X164571100Y-79273400D01*
X164767147Y-79192195D01*
X164917195Y-79042147D01*
X164981085Y-78887900D01*
X174678800Y-78887900D01*
X174678800Y-79100100D01*
X174760005Y-79296147D01*
X174910053Y-79446195D01*
X175106100Y-79527400D01*
X175318300Y-79527400D01*
X175514347Y-79446195D01*
X175664395Y-79296147D01*
X175745600Y-79100100D01*
X175745600Y-78887900D01*
X175664395Y-78691853D01*
X175514347Y-78541805D01*
X175318300Y-78460600D01*
X175106100Y-78460600D01*
X174910053Y-78541805D01*
X174760005Y-78691853D01*
X174678800Y-78887900D01*
X164981085Y-78887900D01*
X164998400Y-78846100D01*
X164998400Y-78633900D01*
X164917195Y-78437853D01*
X164767147Y-78287805D01*
X164571100Y-78206600D01*
X164358900Y-78206600D01*
X164162853Y-78287805D01*
X164012805Y-78437853D01*
X163931600Y-78633900D01*
X159918400Y-78633900D01*
X159837195Y-78437853D01*
X159687147Y-78287805D01*
X159491100Y-78206600D01*
X159278900Y-78206600D01*
X159082853Y-78287805D01*
X158932805Y-78437853D01*
X158851600Y-78633900D01*
X148479267Y-78633900D01*
X148511147Y-78620695D01*
X148661195Y-78470647D01*
X148742400Y-78274600D01*
X148742400Y-78062400D01*
X148661195Y-77866353D01*
X148511147Y-77716305D01*
X148315100Y-77635100D01*
X148102900Y-77635100D01*
X147906853Y-77716305D01*
X147756805Y-77866353D01*
X147675600Y-78062400D01*
X144018000Y-78062400D01*
X144018000Y-76093900D01*
X145262600Y-76093900D01*
X145262600Y-76306100D01*
X145343805Y-76502147D01*
X145493853Y-76652195D01*
X145689900Y-76733400D01*
X145902100Y-76733400D01*
X146098147Y-76652195D01*
X146248195Y-76502147D01*
X146329400Y-76306100D01*
X146329400Y-76093900D01*
X150342600Y-76093900D01*
X150342600Y-76306100D01*
X150423805Y-76502147D01*
X150573853Y-76652195D01*
X150769900Y-76733400D01*
X150982100Y-76733400D01*
X151178147Y-76652195D01*
X151328195Y-76502147D01*
X151409400Y-76306100D01*
X151409400Y-76093900D01*
X154406600Y-76093900D01*
X154406600Y-76306100D01*
X154487805Y-76502147D01*
X154637853Y-76652195D01*
X154833900Y-76733400D01*
X155046100Y-76733400D01*
X155242147Y-76652195D01*
X155392195Y-76502147D01*
X155473400Y-76306100D01*
X155473400Y-76093900D01*
X163931600Y-76093900D01*
X163931600Y-76306100D01*
X164012805Y-76502147D01*
X164162853Y-76652195D01*
X164358900Y-76733400D01*
X164571100Y-76733400D01*
X164767147Y-76652195D01*
X164917195Y-76502147D01*
X164998400Y-76306100D01*
X164998400Y-76093900D01*
X164917195Y-75897853D01*
X164767147Y-75747805D01*
X164571100Y-75666600D01*
X164358900Y-75666600D01*
X164162853Y-75747805D01*
X164012805Y-75897853D01*
X163931600Y-76093900D01*
X155473400Y-76093900D01*
X155392195Y-75897853D01*
X155242147Y-75747805D01*
X155046100Y-75666600D01*
X154833900Y-75666600D01*
X154637853Y-75747805D01*
X154487805Y-75897853D01*
X154406600Y-76093900D01*
X151409400Y-76093900D01*
X151328195Y-75897853D01*
X151178147Y-75747805D01*
X150982100Y-75666600D01*
X150769900Y-75666600D01*
X150573853Y-75747805D01*
X150423805Y-75897853D01*
X150342600Y-76093900D01*
X146329400Y-76093900D01*
X146248195Y-75897853D01*
X146098147Y-75747805D01*
X145902100Y-75666600D01*
X145689900Y-75666600D01*
X145493853Y-75747805D01*
X145343805Y-75897853D01*
X145262600Y-76093900D01*
X144018000Y-76093900D01*
X144018000Y-75331900D01*
X170916600Y-75331900D01*
X170916600Y-75544100D01*
X170997805Y-75740147D01*
X171147853Y-75890195D01*
X171343900Y-75971400D01*
X171556100Y-75971400D01*
X171752147Y-75890195D01*
X171902195Y-75740147D01*
X171983400Y-75544100D01*
X171983400Y-75331900D01*
X171902195Y-75135853D01*
X171752147Y-74985805D01*
X171556100Y-74904600D01*
X171343900Y-74904600D01*
X171147853Y-74985805D01*
X170997805Y-75135853D01*
X170916600Y-75331900D01*
X144018000Y-75331900D01*
X144018000Y-72562766D01*
X144379633Y-72924399D01*
X144886620Y-73134400D01*
X145435380Y-73134400D01*
X145942367Y-72924399D01*
X146330399Y-72536367D01*
X146431000Y-72293495D01*
X146531601Y-72536367D01*
X146919633Y-72924399D01*
X147426620Y-73134400D01*
X147975380Y-73134400D01*
X148482367Y-72924399D01*
X148870399Y-72536367D01*
X148971000Y-72293495D01*
X149071601Y-72536367D01*
X149459633Y-72924399D01*
X149966620Y-73134400D01*
X150515380Y-73134400D01*
X151022367Y-72924399D01*
X151410399Y-72536367D01*
X151511000Y-72293495D01*
X151611601Y-72536367D01*
X151999633Y-72924399D01*
X152506620Y-73134400D01*
X153055380Y-73134400D01*
X153562367Y-72924399D01*
X153950399Y-72536367D01*
X154160400Y-72029380D01*
X154160400Y-71480620D01*
X156481600Y-71480620D01*
X156481600Y-72029380D01*
X156691601Y-72536367D01*
X157079633Y-72924399D01*
X157586620Y-73134400D01*
X158135380Y-73134400D01*
X158642367Y-72924399D01*
X159030399Y-72536367D01*
X159240400Y-72029380D01*
X159240400Y-71480620D01*
X161561600Y-71480620D01*
X161561600Y-72029380D01*
X161771601Y-72536367D01*
X162159633Y-72924399D01*
X162666620Y-73134400D01*
X163215380Y-73134400D01*
X163722367Y-72924399D01*
X164110399Y-72536367D01*
X164211000Y-72293495D01*
X164311601Y-72536367D01*
X164699633Y-72924399D01*
X165206620Y-73134400D01*
X165755380Y-73134400D01*
X166262367Y-72924399D01*
X166650399Y-72536367D01*
X166751000Y-72293495D01*
X166851601Y-72536367D01*
X167239633Y-72924399D01*
X167746620Y-73134400D01*
X168295380Y-73134400D01*
X168802367Y-72924399D01*
X169190399Y-72536367D01*
X169400400Y-72029380D01*
X169400400Y-71480620D01*
X169190399Y-70973633D01*
X168802367Y-70585601D01*
X168295380Y-70375600D01*
X167746620Y-70375600D01*
X167239633Y-70585601D01*
X166851601Y-70973633D01*
X166751000Y-71216505D01*
X166650399Y-70973633D01*
X166262367Y-70585601D01*
X165755380Y-70375600D01*
X165206620Y-70375600D01*
X164699633Y-70585601D01*
X164311601Y-70973633D01*
X164211000Y-71216505D01*
X164110399Y-70973633D01*
X163722367Y-70585601D01*
X163215380Y-70375600D01*
X162666620Y-70375600D01*
X162159633Y-70585601D01*
X161771601Y-70973633D01*
X161561600Y-71480620D01*
X159240400Y-71480620D01*
X159030399Y-70973633D01*
X158642367Y-70585601D01*
X158135380Y-70375600D01*
X157586620Y-70375600D01*
X157079633Y-70585601D01*
X156691601Y-70973633D01*
X156481600Y-71480620D01*
X154160400Y-71480620D01*
X153950399Y-70973633D01*
X153562367Y-70585601D01*
X153055380Y-70375600D01*
X152506620Y-70375600D01*
X151999633Y-70585601D01*
X151611601Y-70973633D01*
X151511000Y-71216505D01*
X151410399Y-70973633D01*
X151022367Y-70585601D01*
X150515380Y-70375600D01*
X149966620Y-70375600D01*
X149459633Y-70585601D01*
X149071601Y-70973633D01*
X148971000Y-71216505D01*
X148870399Y-70973633D01*
X148482367Y-70585601D01*
X147975380Y-70375600D01*
X147426620Y-70375600D01*
X146919633Y-70585601D01*
X146531601Y-70973633D01*
X146431000Y-71216505D01*
X146330399Y-70973633D01*
X145942367Y-70585601D01*
X145435380Y-70375600D01*
X144886620Y-70375600D01*
X144379633Y-70585601D01*
X144018000Y-70947234D01*
X144018000Y-67457900D01*
X158470600Y-67457900D01*
X158470600Y-67670100D01*
X158551805Y-67866147D01*
X158701853Y-68016195D01*
X158897900Y-68097400D01*
X159110100Y-68097400D01*
X159306147Y-68016195D01*
X159456195Y-67866147D01*
X159537400Y-67670100D01*
X159537400Y-67457900D01*
X163550600Y-67457900D01*
X163550600Y-67670100D01*
X163631805Y-67866147D01*
X163781853Y-68016195D01*
X163977900Y-68097400D01*
X164190100Y-68097400D01*
X164386147Y-68016195D01*
X164536195Y-67866147D01*
X164617400Y-67670100D01*
X164617400Y-67457900D01*
X166090600Y-67457900D01*
X166090600Y-67670100D01*
X166171805Y-67866147D01*
X166321853Y-68016195D01*
X166517900Y-68097400D01*
X166730100Y-68097400D01*
X166926147Y-68016195D01*
X167076195Y-67866147D01*
X167157400Y-67670100D01*
X167157400Y-67457900D01*
X167076195Y-67261853D01*
X166926147Y-67111805D01*
X166730100Y-67030600D01*
X166517900Y-67030600D01*
X166321853Y-67111805D01*
X166171805Y-67261853D01*
X166090600Y-67457900D01*
X164617400Y-67457900D01*
X164536195Y-67261853D01*
X164386147Y-67111805D01*
X164190100Y-67030600D01*
X163977900Y-67030600D01*
X163781853Y-67111805D01*
X163631805Y-67261853D01*
X163550600Y-67457900D01*
X159537400Y-67457900D01*
X159456195Y-67261853D01*
X159306147Y-67111805D01*
X159110100Y-67030600D01*
X158897900Y-67030600D01*
X158701853Y-67111805D01*
X158551805Y-67261853D01*
X158470600Y-67457900D01*
X144018000Y-67457900D01*
X144018000Y-63600400D01*
X172478446Y-63600400D01*
X171257078Y-64106308D01*
X171257078Y-64106308D01*
G37*
X171257078Y-64106308D02*
X170278308Y-65085078D01*
X169748600Y-66363904D01*
X169748600Y-67748096D01*
X170278308Y-69026922D01*
X171257078Y-70005692D01*
X172535904Y-70535400D01*
X173920096Y-70535400D01*
X175198922Y-70005692D01*
X176177692Y-69026922D01*
X176683601Y-67805552D01*
X176683600Y-85864446D01*
X176177692Y-84643078D01*
X175198922Y-83664308D01*
X173920096Y-83134600D01*
X172535904Y-83134600D01*
X171257078Y-83664308D01*
X170278308Y-84643078D01*
X169748600Y-85921904D01*
X169748600Y-87306096D01*
X170278308Y-88584922D01*
X171257078Y-89563692D01*
X172478446Y-90069600D01*
X131840460Y-90069600D01*
X131870159Y-89997900D01*
X131870159Y-89785700D01*
X131788954Y-89589653D01*
X131638906Y-89439605D01*
X131442859Y-89358400D01*
X131230659Y-89358400D01*
X131034612Y-89439605D01*
X130884564Y-89589653D01*
X130803359Y-89785700D01*
X130803359Y-89997900D01*
X130833058Y-90069600D01*
X120159955Y-90069600D01*
X119447521Y-89997234D01*
X118781410Y-89788487D01*
X118170882Y-89450065D01*
X117986465Y-89292000D01*
X134086600Y-89292000D01*
X134086600Y-89504200D01*
X134167805Y-89700247D01*
X134317853Y-89850295D01*
X134513900Y-89931500D01*
X134726100Y-89931500D01*
X134922147Y-89850295D01*
X135072195Y-89700247D01*
X135153400Y-89504200D01*
X135153400Y-89292000D01*
X135104896Y-89174900D01*
X151612600Y-89174900D01*
X151612600Y-89387100D01*
X151693805Y-89583147D01*
X151843853Y-89733195D01*
X152039900Y-89814400D01*
X152252100Y-89814400D01*
X152448147Y-89733195D01*
X152598195Y-89583147D01*
X152679400Y-89387100D01*
X152679400Y-89174900D01*
X152598195Y-88978853D01*
X152448147Y-88828805D01*
X152252100Y-88747600D01*
X152039900Y-88747600D01*
X151843853Y-88828805D01*
X151693805Y-88978853D01*
X151612600Y-89174900D01*
X135104896Y-89174900D01*
X135072195Y-89095953D01*
X134922147Y-88945905D01*
X134726100Y-88864700D01*
X134513900Y-88864700D01*
X134317853Y-88945905D01*
X134167805Y-89095953D01*
X134086600Y-89292000D01*
X117986465Y-89292000D01*
X117640872Y-88995791D01*
X117213031Y-88444222D01*
X116904838Y-87817890D01*
X116810194Y-87454547D01*
X119896046Y-87454612D01*
X119816805Y-87533853D01*
X119735600Y-87729900D01*
X119735600Y-87942100D01*
X119816805Y-88138147D01*
X119966853Y-88288195D01*
X120162900Y-88369400D01*
X120375100Y-88369400D01*
X120571147Y-88288195D01*
X120721195Y-88138147D01*
X120802400Y-87942100D01*
X120802400Y-87729900D01*
X120721195Y-87533853D01*
X120641970Y-87454628D01*
X123197976Y-87454682D01*
X123118805Y-87533853D01*
X123037600Y-87729900D01*
X123037600Y-87942100D01*
X123118805Y-88138147D01*
X123268853Y-88288195D01*
X123464900Y-88369400D01*
X123677100Y-88369400D01*
X123873147Y-88288195D01*
X124023195Y-88138147D01*
X124104400Y-87942100D01*
X124104400Y-87729900D01*
X124023195Y-87533853D01*
X123944040Y-87454698D01*
X126474027Y-87454752D01*
X126463824Y-87479383D01*
X126463824Y-87691583D01*
X126545029Y-87887630D01*
X126695077Y-88037678D01*
X126891124Y-88118883D01*
X127103324Y-88118883D01*
X127299371Y-88037678D01*
X127353149Y-87983900D01*
X130403600Y-87983900D01*
X130403600Y-88196100D01*
X130484805Y-88392147D01*
X130634853Y-88542195D01*
X130830900Y-88623400D01*
X131043100Y-88623400D01*
X131239147Y-88542195D01*
X131389195Y-88392147D01*
X131400481Y-88364900D01*
X140182600Y-88364900D01*
X140182600Y-88577100D01*
X140263805Y-88773147D01*
X140413853Y-88923195D01*
X140609900Y-89004400D01*
X140822100Y-89004400D01*
X141018147Y-88923195D01*
X141168195Y-88773147D01*
X141249400Y-88577100D01*
X141249400Y-88364900D01*
X141168195Y-88168853D01*
X141018147Y-88018805D01*
X140822100Y-87937600D01*
X140609900Y-87937600D01*
X140413853Y-88018805D01*
X140263805Y-88168853D01*
X140182600Y-88364900D01*
X131400481Y-88364900D01*
X131470400Y-88196100D01*
X131470400Y-87983900D01*
X131389195Y-87787853D01*
X131239147Y-87637805D01*
X131043100Y-87556600D01*
X130830900Y-87556600D01*
X130634853Y-87637805D01*
X130484805Y-87787853D01*
X130403600Y-87983900D01*
X127353149Y-87983900D01*
X127449419Y-87887630D01*
X127530624Y-87691583D01*
X127530624Y-87479383D01*
X127520431Y-87454774D01*
X137270249Y-87454981D01*
X137342805Y-87630147D01*
X137492853Y-87780195D01*
X137688900Y-87861400D01*
X137901100Y-87861400D01*
X138097147Y-87780195D01*
X138247195Y-87630147D01*
X138328400Y-87434100D01*
X138328400Y-87221900D01*
X138303000Y-87160579D01*
X138303000Y-86733421D01*
X138328400Y-86672100D01*
X138328400Y-86459900D01*
X138303000Y-86398579D01*
X138303000Y-86205691D01*
X140241459Y-86205691D01*
X140241459Y-86417891D01*
X140322664Y-86613938D01*
X140435692Y-86726966D01*
X140340005Y-86822653D01*
X140258800Y-87018700D01*
X140258800Y-87230900D01*
X140340005Y-87426947D01*
X140490053Y-87576995D01*
X140686100Y-87658200D01*
X140898300Y-87658200D01*
X141094347Y-87576995D01*
X141119241Y-87552101D01*
X141678399Y-87552101D01*
X141678399Y-87764301D01*
X141759604Y-87960348D01*
X141909652Y-88110396D01*
X142105699Y-88191601D01*
X142317899Y-88191601D01*
X142513946Y-88110396D01*
X142663994Y-87960348D01*
X142745199Y-87764301D01*
X142745199Y-87552101D01*
X142733518Y-87523900D01*
X160121600Y-87523900D01*
X160121600Y-87736100D01*
X160202805Y-87932147D01*
X160352853Y-88082195D01*
X160548900Y-88163400D01*
X160761100Y-88163400D01*
X160957147Y-88082195D01*
X161107195Y-87932147D01*
X161188400Y-87736100D01*
X161188400Y-87523900D01*
X161107195Y-87327853D01*
X161049242Y-87269900D01*
X166090600Y-87269900D01*
X166090600Y-87482100D01*
X166171805Y-87678147D01*
X166321853Y-87828195D01*
X166517900Y-87909400D01*
X166730100Y-87909400D01*
X166926147Y-87828195D01*
X167076195Y-87678147D01*
X167157400Y-87482100D01*
X167157400Y-87269900D01*
X167076195Y-87073853D01*
X166926147Y-86923805D01*
X166730100Y-86842600D01*
X166517900Y-86842600D01*
X166321853Y-86923805D01*
X166171805Y-87073853D01*
X166090600Y-87269900D01*
X161049242Y-87269900D01*
X160957147Y-87177805D01*
X160761100Y-87096600D01*
X160548900Y-87096600D01*
X160352853Y-87177805D01*
X160202805Y-87327853D01*
X160121600Y-87523900D01*
X142733518Y-87523900D01*
X142663994Y-87356054D01*
X142513946Y-87206006D01*
X142317899Y-87124801D01*
X142105699Y-87124801D01*
X141909652Y-87206006D01*
X141759604Y-87356054D01*
X141678399Y-87552101D01*
X141119241Y-87552101D01*
X141244395Y-87426947D01*
X141325600Y-87230900D01*
X141325600Y-87018700D01*
X141244395Y-86822653D01*
X141131367Y-86709625D01*
X141227054Y-86613938D01*
X141308259Y-86417891D01*
X141308259Y-86205691D01*
X141265102Y-86101500D01*
X143230600Y-86101500D01*
X143230600Y-86313700D01*
X143311805Y-86509747D01*
X143461853Y-86659795D01*
X143657900Y-86741000D01*
X143870100Y-86741000D01*
X144066147Y-86659795D01*
X144216195Y-86509747D01*
X144297400Y-86313700D01*
X144297400Y-86101500D01*
X144216195Y-85905453D01*
X144066147Y-85755405D01*
X143870100Y-85674200D01*
X143657900Y-85674200D01*
X143461853Y-85755405D01*
X143311805Y-85905453D01*
X143230600Y-86101500D01*
X141265102Y-86101500D01*
X141227054Y-86009644D01*
X141182376Y-85964966D01*
X141244395Y-85902947D01*
X141325600Y-85706900D01*
X141325600Y-85494700D01*
X141244395Y-85298653D01*
X141094347Y-85148605D01*
X140898300Y-85067400D01*
X140686100Y-85067400D01*
X140490053Y-85148605D01*
X140340005Y-85298653D01*
X140258800Y-85494700D01*
X140258800Y-85706900D01*
X140340005Y-85902947D01*
X140384683Y-85947625D01*
X140322664Y-86009644D01*
X140241459Y-86205691D01*
X138303000Y-86205691D01*
X138303000Y-83967900D01*
X143103600Y-83967900D01*
X143103600Y-84180100D01*
X143184805Y-84376147D01*
X143334853Y-84526195D01*
X143530900Y-84607400D01*
X143743100Y-84607400D01*
X143939147Y-84526195D01*
X144089195Y-84376147D01*
X144170400Y-84180100D01*
X144170400Y-83967900D01*
X151739600Y-83967900D01*
X151739600Y-84180100D01*
X151820805Y-84376147D01*
X151970853Y-84526195D01*
X152166900Y-84607400D01*
X152379100Y-84607400D01*
X152575147Y-84526195D01*
X152725195Y-84376147D01*
X152736481Y-84348900D01*
X162788600Y-84348900D01*
X162788600Y-84561100D01*
X162869805Y-84757147D01*
X163019853Y-84907195D01*
X163215900Y-84988400D01*
X163428100Y-84988400D01*
X163624147Y-84907195D01*
X163774195Y-84757147D01*
X163855400Y-84561100D01*
X163855400Y-84348900D01*
X163774195Y-84152853D01*
X163624147Y-84002805D01*
X163428100Y-83921600D01*
X163215900Y-83921600D01*
X163019853Y-84002805D01*
X162869805Y-84152853D01*
X162788600Y-84348900D01*
X152736481Y-84348900D01*
X152806400Y-84180100D01*
X152806400Y-83967900D01*
X152725195Y-83771853D01*
X152575147Y-83621805D01*
X152379100Y-83540600D01*
X152166900Y-83540600D01*
X151970853Y-83621805D01*
X151820805Y-83771853D01*
X151739600Y-83967900D01*
X144170400Y-83967900D01*
X144089195Y-83771853D01*
X143939147Y-83621805D01*
X143743100Y-83540600D01*
X143530900Y-83540600D01*
X143334853Y-83621805D01*
X143184805Y-83771853D01*
X143103600Y-83967900D01*
X138303000Y-83967900D01*
X138303000Y-83459900D01*
X169392600Y-83459900D01*
X169392600Y-83672100D01*
X169473805Y-83868147D01*
X169623853Y-84018195D01*
X169819900Y-84099400D01*
X170032100Y-84099400D01*
X170228147Y-84018195D01*
X170378195Y-83868147D01*
X170459400Y-83672100D01*
X170459400Y-83459900D01*
X170378195Y-83263853D01*
X170228147Y-83113805D01*
X170032100Y-83032600D01*
X169819900Y-83032600D01*
X169623853Y-83113805D01*
X169473805Y-83263853D01*
X169392600Y-83459900D01*
X138303000Y-83459900D01*
X138303000Y-81867000D01*
X143891000Y-81867000D01*
X143939601Y-81857333D01*
X143980803Y-81829803D01*
X144008333Y-81788601D01*
X144018000Y-81740000D01*
X144018000Y-80919900D01*
X164058600Y-80919900D01*
X164058600Y-81132100D01*
X164139805Y-81328147D01*
X164289853Y-81478195D01*
X164485900Y-81559400D01*
X164698100Y-81559400D01*
X164894147Y-81478195D01*
X165044195Y-81328147D01*
X165125400Y-81132100D01*
X165125400Y-80919900D01*
X165044195Y-80723853D01*
X164894147Y-80573805D01*
X164698100Y-80492600D01*
X164485900Y-80492600D01*
X164289853Y-80573805D01*
X164139805Y-80723853D01*
X164058600Y-80919900D01*
X144018000Y-80919900D01*
X144018000Y-79903900D01*
X161391600Y-79903900D01*
X161391600Y-80116100D01*
X161472805Y-80312147D01*
X161622853Y-80462195D01*
X161818900Y-80543400D01*
X162031100Y-80543400D01*
X162227147Y-80462195D01*
X162377195Y-80312147D01*
X162458400Y-80116100D01*
X162458400Y-79903900D01*
X162377195Y-79707853D01*
X162227147Y-79557805D01*
X162031100Y-79476600D01*
X161818900Y-79476600D01*
X161622853Y-79557805D01*
X161472805Y-79707853D01*
X161391600Y-79903900D01*
X144018000Y-79903900D01*
X144018000Y-78062400D01*
X147675600Y-78062400D01*
X147675600Y-78274600D01*
X147756805Y-78470647D01*
X147906853Y-78620695D01*
X148102900Y-78701900D01*
X148315100Y-78701900D01*
X148479267Y-78633900D01*
X158851600Y-78633900D01*
X158851600Y-78846100D01*
X158932805Y-79042147D01*
X159082853Y-79192195D01*
X159278900Y-79273400D01*
X159491100Y-79273400D01*
X159687147Y-79192195D01*
X159837195Y-79042147D01*
X159918400Y-78846100D01*
X159918400Y-78633900D01*
X163931600Y-78633900D01*
X163931600Y-78846100D01*
X164012805Y-79042147D01*
X164162853Y-79192195D01*
X164358900Y-79273400D01*
X164571100Y-79273400D01*
X164767147Y-79192195D01*
X164917195Y-79042147D01*
X164981085Y-78887900D01*
X174678800Y-78887900D01*
X174678800Y-79100100D01*
X174760005Y-79296147D01*
X174910053Y-79446195D01*
X175106100Y-79527400D01*
X175318300Y-79527400D01*
X175514347Y-79446195D01*
X175664395Y-79296147D01*
X175745600Y-79100100D01*
X175745600Y-78887900D01*
X175664395Y-78691853D01*
X175514347Y-78541805D01*
X175318300Y-78460600D01*
X175106100Y-78460600D01*
X174910053Y-78541805D01*
X174760005Y-78691853D01*
X174678800Y-78887900D01*
X164981085Y-78887900D01*
X164998400Y-78846100D01*
X164998400Y-78633900D01*
X164917195Y-78437853D01*
X164767147Y-78287805D01*
X164571100Y-78206600D01*
X164358900Y-78206600D01*
X164162853Y-78287805D01*
X164012805Y-78437853D01*
X163931600Y-78633900D01*
X159918400Y-78633900D01*
X159837195Y-78437853D01*
X159687147Y-78287805D01*
X159491100Y-78206600D01*
X159278900Y-78206600D01*
X159082853Y-78287805D01*
X158932805Y-78437853D01*
X158851600Y-78633900D01*
X148479267Y-78633900D01*
X148511147Y-78620695D01*
X148661195Y-78470647D01*
X148742400Y-78274600D01*
X148742400Y-78062400D01*
X148661195Y-77866353D01*
X148511147Y-77716305D01*
X148315100Y-77635100D01*
X148102900Y-77635100D01*
X147906853Y-77716305D01*
X147756805Y-77866353D01*
X147675600Y-78062400D01*
X144018000Y-78062400D01*
X144018000Y-76093900D01*
X145262600Y-76093900D01*
X145262600Y-76306100D01*
X145343805Y-76502147D01*
X145493853Y-76652195D01*
X145689900Y-76733400D01*
X145902100Y-76733400D01*
X146098147Y-76652195D01*
X146248195Y-76502147D01*
X146329400Y-76306100D01*
X146329400Y-76093900D01*
X150342600Y-76093900D01*
X150342600Y-76306100D01*
X150423805Y-76502147D01*
X150573853Y-76652195D01*
X150769900Y-76733400D01*
X150982100Y-76733400D01*
X151178147Y-76652195D01*
X151328195Y-76502147D01*
X151409400Y-76306100D01*
X151409400Y-76093900D01*
X154406600Y-76093900D01*
X154406600Y-76306100D01*
X154487805Y-76502147D01*
X154637853Y-76652195D01*
X154833900Y-76733400D01*
X155046100Y-76733400D01*
X155242147Y-76652195D01*
X155392195Y-76502147D01*
X155473400Y-76306100D01*
X155473400Y-76093900D01*
X163931600Y-76093900D01*
X163931600Y-76306100D01*
X164012805Y-76502147D01*
X164162853Y-76652195D01*
X164358900Y-76733400D01*
X164571100Y-76733400D01*
X164767147Y-76652195D01*
X164917195Y-76502147D01*
X164998400Y-76306100D01*
X164998400Y-76093900D01*
X164917195Y-75897853D01*
X164767147Y-75747805D01*
X164571100Y-75666600D01*
X164358900Y-75666600D01*
X164162853Y-75747805D01*
X164012805Y-75897853D01*
X163931600Y-76093900D01*
X155473400Y-76093900D01*
X155392195Y-75897853D01*
X155242147Y-75747805D01*
X155046100Y-75666600D01*
X154833900Y-75666600D01*
X154637853Y-75747805D01*
X154487805Y-75897853D01*
X154406600Y-76093900D01*
X151409400Y-76093900D01*
X151328195Y-75897853D01*
X151178147Y-75747805D01*
X150982100Y-75666600D01*
X150769900Y-75666600D01*
X150573853Y-75747805D01*
X150423805Y-75897853D01*
X150342600Y-76093900D01*
X146329400Y-76093900D01*
X146248195Y-75897853D01*
X146098147Y-75747805D01*
X145902100Y-75666600D01*
X145689900Y-75666600D01*
X145493853Y-75747805D01*
X145343805Y-75897853D01*
X145262600Y-76093900D01*
X144018000Y-76093900D01*
X144018000Y-75331900D01*
X170916600Y-75331900D01*
X170916600Y-75544100D01*
X170997805Y-75740147D01*
X171147853Y-75890195D01*
X171343900Y-75971400D01*
X171556100Y-75971400D01*
X171752147Y-75890195D01*
X171902195Y-75740147D01*
X171983400Y-75544100D01*
X171983400Y-75331900D01*
X171902195Y-75135853D01*
X171752147Y-74985805D01*
X171556100Y-74904600D01*
X171343900Y-74904600D01*
X171147853Y-74985805D01*
X170997805Y-75135853D01*
X170916600Y-75331900D01*
X144018000Y-75331900D01*
X144018000Y-72562766D01*
X144379633Y-72924399D01*
X144886620Y-73134400D01*
X145435380Y-73134400D01*
X145942367Y-72924399D01*
X146330399Y-72536367D01*
X146431000Y-72293495D01*
X146531601Y-72536367D01*
X146919633Y-72924399D01*
X147426620Y-73134400D01*
X147975380Y-73134400D01*
X148482367Y-72924399D01*
X148870399Y-72536367D01*
X148971000Y-72293495D01*
X149071601Y-72536367D01*
X149459633Y-72924399D01*
X149966620Y-73134400D01*
X150515380Y-73134400D01*
X151022367Y-72924399D01*
X151410399Y-72536367D01*
X151511000Y-72293495D01*
X151611601Y-72536367D01*
X151999633Y-72924399D01*
X152506620Y-73134400D01*
X153055380Y-73134400D01*
X153562367Y-72924399D01*
X153950399Y-72536367D01*
X154160400Y-72029380D01*
X154160400Y-71480620D01*
X156481600Y-71480620D01*
X156481600Y-72029380D01*
X156691601Y-72536367D01*
X157079633Y-72924399D01*
X157586620Y-73134400D01*
X158135380Y-73134400D01*
X158642367Y-72924399D01*
X159030399Y-72536367D01*
X159240400Y-72029380D01*
X159240400Y-71480620D01*
X161561600Y-71480620D01*
X161561600Y-72029380D01*
X161771601Y-72536367D01*
X162159633Y-72924399D01*
X162666620Y-73134400D01*
X163215380Y-73134400D01*
X163722367Y-72924399D01*
X164110399Y-72536367D01*
X164211000Y-72293495D01*
X164311601Y-72536367D01*
X164699633Y-72924399D01*
X165206620Y-73134400D01*
X165755380Y-73134400D01*
X166262367Y-72924399D01*
X166650399Y-72536367D01*
X166751000Y-72293495D01*
X166851601Y-72536367D01*
X167239633Y-72924399D01*
X167746620Y-73134400D01*
X168295380Y-73134400D01*
X168802367Y-72924399D01*
X169190399Y-72536367D01*
X169400400Y-72029380D01*
X169400400Y-71480620D01*
X169190399Y-70973633D01*
X168802367Y-70585601D01*
X168295380Y-70375600D01*
X167746620Y-70375600D01*
X167239633Y-70585601D01*
X166851601Y-70973633D01*
X166751000Y-71216505D01*
X166650399Y-70973633D01*
X166262367Y-70585601D01*
X165755380Y-70375600D01*
X165206620Y-70375600D01*
X164699633Y-70585601D01*
X164311601Y-70973633D01*
X164211000Y-71216505D01*
X164110399Y-70973633D01*
X163722367Y-70585601D01*
X163215380Y-70375600D01*
X162666620Y-70375600D01*
X162159633Y-70585601D01*
X161771601Y-70973633D01*
X161561600Y-71480620D01*
X159240400Y-71480620D01*
X159030399Y-70973633D01*
X158642367Y-70585601D01*
X158135380Y-70375600D01*
X157586620Y-70375600D01*
X157079633Y-70585601D01*
X156691601Y-70973633D01*
X156481600Y-71480620D01*
X154160400Y-71480620D01*
X153950399Y-70973633D01*
X153562367Y-70585601D01*
X153055380Y-70375600D01*
X152506620Y-70375600D01*
X151999633Y-70585601D01*
X151611601Y-70973633D01*
X151511000Y-71216505D01*
X151410399Y-70973633D01*
X151022367Y-70585601D01*
X150515380Y-70375600D01*
X149966620Y-70375600D01*
X149459633Y-70585601D01*
X149071601Y-70973633D01*
X148971000Y-71216505D01*
X148870399Y-70973633D01*
X148482367Y-70585601D01*
X147975380Y-70375600D01*
X147426620Y-70375600D01*
X146919633Y-70585601D01*
X146531601Y-70973633D01*
X146431000Y-71216505D01*
X146330399Y-70973633D01*
X145942367Y-70585601D01*
X145435380Y-70375600D01*
X144886620Y-70375600D01*
X144379633Y-70585601D01*
X144018000Y-70947234D01*
X144018000Y-67457900D01*
X158470600Y-67457900D01*
X158470600Y-67670100D01*
X158551805Y-67866147D01*
X158701853Y-68016195D01*
X158897900Y-68097400D01*
X159110100Y-68097400D01*
X159306147Y-68016195D01*
X159456195Y-67866147D01*
X159537400Y-67670100D01*
X159537400Y-67457900D01*
X163550600Y-67457900D01*
X163550600Y-67670100D01*
X163631805Y-67866147D01*
X163781853Y-68016195D01*
X163977900Y-68097400D01*
X164190100Y-68097400D01*
X164386147Y-68016195D01*
X164536195Y-67866147D01*
X164617400Y-67670100D01*
X164617400Y-67457900D01*
X166090600Y-67457900D01*
X166090600Y-67670100D01*
X166171805Y-67866147D01*
X166321853Y-68016195D01*
X166517900Y-68097400D01*
X166730100Y-68097400D01*
X166926147Y-68016195D01*
X167076195Y-67866147D01*
X167157400Y-67670100D01*
X167157400Y-67457900D01*
X167076195Y-67261853D01*
X166926147Y-67111805D01*
X166730100Y-67030600D01*
X166517900Y-67030600D01*
X166321853Y-67111805D01*
X166171805Y-67261853D01*
X166090600Y-67457900D01*
X164617400Y-67457900D01*
X164536195Y-67261853D01*
X164386147Y-67111805D01*
X164190100Y-67030600D01*
X163977900Y-67030600D01*
X163781853Y-67111805D01*
X163631805Y-67261853D01*
X163550600Y-67457900D01*
X159537400Y-67457900D01*
X159456195Y-67261853D01*
X159306147Y-67111805D01*
X159110100Y-67030600D01*
X158897900Y-67030600D01*
X158701853Y-67111805D01*
X158551805Y-67261853D01*
X158470600Y-67457900D01*
X144018000Y-67457900D01*
X144018000Y-63600400D01*
X172478446Y-63600400D01*
X171257078Y-64106308D01*
G04 #@! TO.N,+12V*
G36*
X143611600Y-70794834D02*
X143402367Y-70585601D01*
X142895380Y-70375600D01*
X142346620Y-70375600D01*
X141839633Y-70585601D01*
X141451601Y-70973633D01*
X141241600Y-71480620D01*
X141241600Y-72029380D01*
X141451601Y-72536367D01*
X141839633Y-72924399D01*
X142346620Y-73134400D01*
X142895380Y-73134400D01*
X143402367Y-72924399D01*
X143611600Y-72715166D01*
X143611600Y-81460600D01*
X138442700Y-81460600D01*
X138442700Y-76093900D01*
X140182600Y-76093900D01*
X140182600Y-76306100D01*
X140263805Y-76502147D01*
X140413853Y-76652195D01*
X140609900Y-76733400D01*
X140822100Y-76733400D01*
X140832964Y-76728900D01*
X141706600Y-76728900D01*
X141706600Y-76941100D01*
X141787805Y-77137147D01*
X141937853Y-77287195D01*
X142133900Y-77368400D01*
X142346100Y-77368400D01*
X142542147Y-77287195D01*
X142692195Y-77137147D01*
X142773400Y-76941100D01*
X142773400Y-76728900D01*
X142692195Y-76532853D01*
X142542147Y-76382805D01*
X142346100Y-76301600D01*
X142133900Y-76301600D01*
X141937853Y-76382805D01*
X141787805Y-76532853D01*
X141706600Y-76728900D01*
X140832964Y-76728900D01*
X141018147Y-76652195D01*
X141168195Y-76502147D01*
X141249400Y-76306100D01*
X141249400Y-76093900D01*
X141168195Y-75897853D01*
X141018147Y-75747805D01*
X140822100Y-75666600D01*
X140609900Y-75666600D01*
X140413853Y-75747805D01*
X140263805Y-75897853D01*
X140182600Y-76093900D01*
X138442700Y-76093900D01*
X138442700Y-73553900D01*
X138785600Y-73553900D01*
X138785600Y-73766100D01*
X138866805Y-73962147D01*
X139016853Y-74112195D01*
X139212900Y-74193400D01*
X139425100Y-74193400D01*
X139621147Y-74112195D01*
X139771195Y-73962147D01*
X139852400Y-73766100D01*
X139852400Y-73553900D01*
X139771195Y-73357853D01*
X139621147Y-73207805D01*
X139425100Y-73126600D01*
X139212900Y-73126600D01*
X139016853Y-73207805D01*
X138866805Y-73357853D01*
X138785600Y-73553900D01*
X138442700Y-73553900D01*
X138442700Y-63600400D01*
X143611600Y-63600400D01*
X143611600Y-70794834D01*
X143611600Y-70794834D01*
G37*
X143611600Y-70794834D02*
X143402367Y-70585601D01*
X142895380Y-70375600D01*
X142346620Y-70375600D01*
X141839633Y-70585601D01*
X141451601Y-70973633D01*
X141241600Y-71480620D01*
X141241600Y-72029380D01*
X141451601Y-72536367D01*
X141839633Y-72924399D01*
X142346620Y-73134400D01*
X142895380Y-73134400D01*
X143402367Y-72924399D01*
X143611600Y-72715166D01*
X143611600Y-81460600D01*
X138442700Y-81460600D01*
X138442700Y-76093900D01*
X140182600Y-76093900D01*
X140182600Y-76306100D01*
X140263805Y-76502147D01*
X140413853Y-76652195D01*
X140609900Y-76733400D01*
X140822100Y-76733400D01*
X140832964Y-76728900D01*
X141706600Y-76728900D01*
X141706600Y-76941100D01*
X141787805Y-77137147D01*
X141937853Y-77287195D01*
X142133900Y-77368400D01*
X142346100Y-77368400D01*
X142542147Y-77287195D01*
X142692195Y-77137147D01*
X142773400Y-76941100D01*
X142773400Y-76728900D01*
X142692195Y-76532853D01*
X142542147Y-76382805D01*
X142346100Y-76301600D01*
X142133900Y-76301600D01*
X141937853Y-76382805D01*
X141787805Y-76532853D01*
X141706600Y-76728900D01*
X140832964Y-76728900D01*
X141018147Y-76652195D01*
X141168195Y-76502147D01*
X141249400Y-76306100D01*
X141249400Y-76093900D01*
X141168195Y-75897853D01*
X141018147Y-75747805D01*
X140822100Y-75666600D01*
X140609900Y-75666600D01*
X140413853Y-75747805D01*
X140263805Y-75897853D01*
X140182600Y-76093900D01*
X138442700Y-76093900D01*
X138442700Y-73553900D01*
X138785600Y-73553900D01*
X138785600Y-73766100D01*
X138866805Y-73962147D01*
X139016853Y-74112195D01*
X139212900Y-74193400D01*
X139425100Y-74193400D01*
X139621147Y-74112195D01*
X139771195Y-73962147D01*
X139852400Y-73766100D01*
X139852400Y-73553900D01*
X139771195Y-73357853D01*
X139621147Y-73207805D01*
X139425100Y-73126600D01*
X139212900Y-73126600D01*
X139016853Y-73207805D01*
X138866805Y-73357853D01*
X138785600Y-73553900D01*
X138442700Y-73553900D01*
X138442700Y-63600400D01*
X143611600Y-63600400D01*
X143611600Y-70794834D01*
G04 #@! TO.N,/hbridge/VCC*
G36*
X137985500Y-78307763D02*
X137602669Y-77924934D01*
X137579997Y-77891003D01*
X137445569Y-77801180D01*
X137327023Y-77777600D01*
X137327018Y-77777600D01*
X137287000Y-77769640D01*
X137246982Y-77777600D01*
X135420784Y-77777600D01*
X135331923Y-77688739D01*
X135117205Y-77599800D01*
X134884795Y-77599800D01*
X134670077Y-77688739D01*
X134505739Y-77853077D01*
X134416800Y-78067795D01*
X134416800Y-78300205D01*
X134505739Y-78514923D01*
X134670077Y-78679261D01*
X134884795Y-78768200D01*
X135117205Y-78768200D01*
X135331923Y-78679261D01*
X135420784Y-78590400D01*
X137118664Y-78590400D01*
X137388601Y-78860337D01*
X137388600Y-86146216D01*
X137299739Y-86235077D01*
X137210800Y-86449795D01*
X137210800Y-86682205D01*
X137299739Y-86896923D01*
X137349816Y-86947000D01*
X137299739Y-86997077D01*
X137299447Y-86997781D01*
X127578662Y-86997575D01*
X127584200Y-86984205D01*
X127584200Y-86751795D01*
X127495261Y-86537077D01*
X127330923Y-86372739D01*
X127116205Y-86283800D01*
X126883795Y-86283800D01*
X126669077Y-86372739D01*
X126504739Y-86537077D01*
X126415800Y-86751795D01*
X126415800Y-86984205D01*
X126421328Y-86997550D01*
X116767895Y-86997345D01*
X116737200Y-86598430D01*
X116737200Y-85179795D01*
X119684800Y-85179795D01*
X119684800Y-85412205D01*
X119773739Y-85626923D01*
X119938077Y-85791261D01*
X120152795Y-85880200D01*
X120385205Y-85880200D01*
X120427224Y-85862795D01*
X122986800Y-85862795D01*
X122986800Y-86095205D01*
X123075739Y-86309923D01*
X123240077Y-86474261D01*
X123454795Y-86563200D01*
X123687205Y-86563200D01*
X123901923Y-86474261D01*
X124066261Y-86309923D01*
X124155200Y-86095205D01*
X124155200Y-85862795D01*
X124066261Y-85648077D01*
X123957025Y-85538841D01*
X127120754Y-85538841D01*
X127120754Y-85771251D01*
X127209693Y-85985969D01*
X127374031Y-86150307D01*
X127588749Y-86239246D01*
X127821159Y-86239246D01*
X128035877Y-86150307D01*
X128200215Y-85985969D01*
X128289154Y-85771251D01*
X128289154Y-85538841D01*
X128200215Y-85324123D01*
X128035877Y-85159785D01*
X127821159Y-85070846D01*
X127588749Y-85070846D01*
X127374031Y-85159785D01*
X127209693Y-85324123D01*
X127120754Y-85538841D01*
X123957025Y-85538841D01*
X123901923Y-85483739D01*
X123687205Y-85394800D01*
X123454795Y-85394800D01*
X123240077Y-85483739D01*
X123075739Y-85648077D01*
X122986800Y-85862795D01*
X120427224Y-85862795D01*
X120599923Y-85791261D01*
X120764261Y-85626923D01*
X120853200Y-85412205D01*
X120853200Y-85179795D01*
X120764261Y-84965077D01*
X120599923Y-84800739D01*
X120385205Y-84711800D01*
X120152795Y-84711800D01*
X119938077Y-84800739D01*
X119773739Y-84965077D01*
X119684800Y-85179795D01*
X116737200Y-85179795D01*
X116737200Y-80353795D01*
X133781800Y-80353795D01*
X133781800Y-80586205D01*
X133870739Y-80800923D01*
X134035077Y-80965261D01*
X134249795Y-81054200D01*
X134482205Y-81054200D01*
X134683500Y-80970821D01*
X134884795Y-81054200D01*
X135117205Y-81054200D01*
X135318500Y-80970821D01*
X135519795Y-81054200D01*
X135752205Y-81054200D01*
X135953500Y-80970821D01*
X136154795Y-81054200D01*
X136387205Y-81054200D01*
X136601923Y-80965261D01*
X136766261Y-80800923D01*
X136855200Y-80586205D01*
X136855200Y-80353795D01*
X136766261Y-80139077D01*
X136601923Y-79974739D01*
X136387205Y-79885800D01*
X136154795Y-79885800D01*
X135953500Y-79969179D01*
X135752205Y-79885800D01*
X135519795Y-79885800D01*
X135318500Y-79969179D01*
X135117205Y-79885800D01*
X134884795Y-79885800D01*
X134683500Y-79969179D01*
X134482205Y-79885800D01*
X134249795Y-79885800D01*
X134035077Y-79974739D01*
X133870739Y-80139077D01*
X133781800Y-80353795D01*
X116737200Y-80353795D01*
X116737200Y-75675428D01*
X128441748Y-75675428D01*
X128441748Y-75907838D01*
X128530687Y-76122556D01*
X128695025Y-76286894D01*
X128909743Y-76375833D01*
X129142153Y-76375833D01*
X129356871Y-76286894D01*
X129521209Y-76122556D01*
X129610148Y-75907838D01*
X129610148Y-75675428D01*
X129521209Y-75460710D01*
X129356871Y-75296372D01*
X129142153Y-75207433D01*
X128909743Y-75207433D01*
X128695025Y-75296372D01*
X128530687Y-75460710D01*
X128441748Y-75675428D01*
X116737200Y-75675428D01*
X116737200Y-71480461D01*
X124730800Y-71480461D01*
X124730800Y-72029539D01*
X124940923Y-72536821D01*
X125329179Y-72925077D01*
X125836461Y-73135200D01*
X126385539Y-73135200D01*
X126892821Y-72925077D01*
X127264331Y-72553567D01*
X127264331Y-72805000D01*
X127289958Y-72933838D01*
X127362939Y-73043061D01*
X127472162Y-73116042D01*
X127601000Y-73141669D01*
X129701000Y-73141669D01*
X129829838Y-73116042D01*
X129939061Y-73043061D01*
X130012042Y-72933838D01*
X130037669Y-72805000D01*
X130037669Y-71480461D01*
X131715800Y-71480461D01*
X131715800Y-72029539D01*
X131925923Y-72536821D01*
X132314179Y-72925077D01*
X132821461Y-73135200D01*
X133370539Y-73135200D01*
X133877821Y-72925077D01*
X134249331Y-72553567D01*
X134249331Y-72805000D01*
X134274958Y-72933838D01*
X134347939Y-73043061D01*
X134457162Y-73116042D01*
X134586000Y-73141669D01*
X136686000Y-73141669D01*
X136814838Y-73116042D01*
X136924061Y-73043061D01*
X136997042Y-72933838D01*
X137022669Y-72805000D01*
X137022669Y-70705000D01*
X136997042Y-70576162D01*
X136924061Y-70466939D01*
X136814838Y-70393958D01*
X136686000Y-70368331D01*
X134586000Y-70368331D01*
X134457162Y-70393958D01*
X134347939Y-70466939D01*
X134274958Y-70576162D01*
X134249331Y-70705000D01*
X134249331Y-70956433D01*
X133877821Y-70584923D01*
X133370539Y-70374800D01*
X132821461Y-70374800D01*
X132314179Y-70584923D01*
X131925923Y-70973179D01*
X131715800Y-71480461D01*
X130037669Y-71480461D01*
X130037669Y-70705000D01*
X130012042Y-70576162D01*
X129939061Y-70466939D01*
X129829838Y-70393958D01*
X129701000Y-70368331D01*
X127601000Y-70368331D01*
X127472162Y-70393958D01*
X127362939Y-70466939D01*
X127289958Y-70576162D01*
X127264331Y-70705000D01*
X127264331Y-70956433D01*
X126892821Y-70584923D01*
X126385539Y-70374800D01*
X125836461Y-70374800D01*
X125329179Y-70584923D01*
X124940923Y-70973179D01*
X124730800Y-71480461D01*
X116737200Y-71480461D01*
X116737200Y-68060943D01*
X117149241Y-69055698D01*
X118142302Y-70048759D01*
X119439800Y-70586200D01*
X120844200Y-70586200D01*
X122141698Y-70048759D01*
X123134759Y-69055698D01*
X123672200Y-67758200D01*
X123672200Y-66353800D01*
X123231061Y-65288795D01*
X131495800Y-65288795D01*
X131495800Y-65521205D01*
X131584739Y-65735923D01*
X131749077Y-65900261D01*
X131963795Y-65989200D01*
X132196205Y-65989200D01*
X132410923Y-65900261D01*
X132575261Y-65735923D01*
X132664200Y-65521205D01*
X132664200Y-65415795D01*
X136067800Y-65415795D01*
X136067800Y-65648205D01*
X136156739Y-65862923D01*
X136321077Y-66027261D01*
X136535795Y-66116200D01*
X136768205Y-66116200D01*
X136982923Y-66027261D01*
X137147261Y-65862923D01*
X137236200Y-65648205D01*
X137236200Y-65415795D01*
X137147261Y-65201077D01*
X136982923Y-65036739D01*
X136768205Y-64947800D01*
X136535795Y-64947800D01*
X136321077Y-65036739D01*
X136156739Y-65201077D01*
X136067800Y-65415795D01*
X132664200Y-65415795D01*
X132664200Y-65288795D01*
X132575261Y-65074077D01*
X132410923Y-64909739D01*
X132196205Y-64820800D01*
X131963795Y-64820800D01*
X131749077Y-64909739D01*
X131584739Y-65074077D01*
X131495800Y-65288795D01*
X123231061Y-65288795D01*
X123134759Y-65056302D01*
X122141698Y-64063241D01*
X121146943Y-63651200D01*
X137985500Y-63651200D01*
X137985500Y-78307763D01*
X137985500Y-78307763D01*
G37*
X137985500Y-78307763D02*
X137602669Y-77924934D01*
X137579997Y-77891003D01*
X137445569Y-77801180D01*
X137327023Y-77777600D01*
X137327018Y-77777600D01*
X137287000Y-77769640D01*
X137246982Y-77777600D01*
X135420784Y-77777600D01*
X135331923Y-77688739D01*
X135117205Y-77599800D01*
X134884795Y-77599800D01*
X134670077Y-77688739D01*
X134505739Y-77853077D01*
X134416800Y-78067795D01*
X134416800Y-78300205D01*
X134505739Y-78514923D01*
X134670077Y-78679261D01*
X134884795Y-78768200D01*
X135117205Y-78768200D01*
X135331923Y-78679261D01*
X135420784Y-78590400D01*
X137118664Y-78590400D01*
X137388601Y-78860337D01*
X137388600Y-86146216D01*
X137299739Y-86235077D01*
X137210800Y-86449795D01*
X137210800Y-86682205D01*
X137299739Y-86896923D01*
X137349816Y-86947000D01*
X137299739Y-86997077D01*
X137299447Y-86997781D01*
X127578662Y-86997575D01*
X127584200Y-86984205D01*
X127584200Y-86751795D01*
X127495261Y-86537077D01*
X127330923Y-86372739D01*
X127116205Y-86283800D01*
X126883795Y-86283800D01*
X126669077Y-86372739D01*
X126504739Y-86537077D01*
X126415800Y-86751795D01*
X126415800Y-86984205D01*
X126421328Y-86997550D01*
X116767895Y-86997345D01*
X116737200Y-86598430D01*
X116737200Y-85179795D01*
X119684800Y-85179795D01*
X119684800Y-85412205D01*
X119773739Y-85626923D01*
X119938077Y-85791261D01*
X120152795Y-85880200D01*
X120385205Y-85880200D01*
X120427224Y-85862795D01*
X122986800Y-85862795D01*
X122986800Y-86095205D01*
X123075739Y-86309923D01*
X123240077Y-86474261D01*
X123454795Y-86563200D01*
X123687205Y-86563200D01*
X123901923Y-86474261D01*
X124066261Y-86309923D01*
X124155200Y-86095205D01*
X124155200Y-85862795D01*
X124066261Y-85648077D01*
X123957025Y-85538841D01*
X127120754Y-85538841D01*
X127120754Y-85771251D01*
X127209693Y-85985969D01*
X127374031Y-86150307D01*
X127588749Y-86239246D01*
X127821159Y-86239246D01*
X128035877Y-86150307D01*
X128200215Y-85985969D01*
X128289154Y-85771251D01*
X128289154Y-85538841D01*
X128200215Y-85324123D01*
X128035877Y-85159785D01*
X127821159Y-85070846D01*
X127588749Y-85070846D01*
X127374031Y-85159785D01*
X127209693Y-85324123D01*
X127120754Y-85538841D01*
X123957025Y-85538841D01*
X123901923Y-85483739D01*
X123687205Y-85394800D01*
X123454795Y-85394800D01*
X123240077Y-85483739D01*
X123075739Y-85648077D01*
X122986800Y-85862795D01*
X120427224Y-85862795D01*
X120599923Y-85791261D01*
X120764261Y-85626923D01*
X120853200Y-85412205D01*
X120853200Y-85179795D01*
X120764261Y-84965077D01*
X120599923Y-84800739D01*
X120385205Y-84711800D01*
X120152795Y-84711800D01*
X119938077Y-84800739D01*
X119773739Y-84965077D01*
X119684800Y-85179795D01*
X116737200Y-85179795D01*
X116737200Y-80353795D01*
X133781800Y-80353795D01*
X133781800Y-80586205D01*
X133870739Y-80800923D01*
X134035077Y-80965261D01*
X134249795Y-81054200D01*
X134482205Y-81054200D01*
X134683500Y-80970821D01*
X134884795Y-81054200D01*
X135117205Y-81054200D01*
X135318500Y-80970821D01*
X135519795Y-81054200D01*
X135752205Y-81054200D01*
X135953500Y-80970821D01*
X136154795Y-81054200D01*
X136387205Y-81054200D01*
X136601923Y-80965261D01*
X136766261Y-80800923D01*
X136855200Y-80586205D01*
X136855200Y-80353795D01*
X136766261Y-80139077D01*
X136601923Y-79974739D01*
X136387205Y-79885800D01*
X136154795Y-79885800D01*
X135953500Y-79969179D01*
X135752205Y-79885800D01*
X135519795Y-79885800D01*
X135318500Y-79969179D01*
X135117205Y-79885800D01*
X134884795Y-79885800D01*
X134683500Y-79969179D01*
X134482205Y-79885800D01*
X134249795Y-79885800D01*
X134035077Y-79974739D01*
X133870739Y-80139077D01*
X133781800Y-80353795D01*
X116737200Y-80353795D01*
X116737200Y-75675428D01*
X128441748Y-75675428D01*
X128441748Y-75907838D01*
X128530687Y-76122556D01*
X128695025Y-76286894D01*
X128909743Y-76375833D01*
X129142153Y-76375833D01*
X129356871Y-76286894D01*
X129521209Y-76122556D01*
X129610148Y-75907838D01*
X129610148Y-75675428D01*
X129521209Y-75460710D01*
X129356871Y-75296372D01*
X129142153Y-75207433D01*
X128909743Y-75207433D01*
X128695025Y-75296372D01*
X128530687Y-75460710D01*
X128441748Y-75675428D01*
X116737200Y-75675428D01*
X116737200Y-71480461D01*
X124730800Y-71480461D01*
X124730800Y-72029539D01*
X124940923Y-72536821D01*
X125329179Y-72925077D01*
X125836461Y-73135200D01*
X126385539Y-73135200D01*
X126892821Y-72925077D01*
X127264331Y-72553567D01*
X127264331Y-72805000D01*
X127289958Y-72933838D01*
X127362939Y-73043061D01*
X127472162Y-73116042D01*
X127601000Y-73141669D01*
X129701000Y-73141669D01*
X129829838Y-73116042D01*
X129939061Y-73043061D01*
X130012042Y-72933838D01*
X130037669Y-72805000D01*
X130037669Y-71480461D01*
X131715800Y-71480461D01*
X131715800Y-72029539D01*
X131925923Y-72536821D01*
X132314179Y-72925077D01*
X132821461Y-73135200D01*
X133370539Y-73135200D01*
X133877821Y-72925077D01*
X134249331Y-72553567D01*
X134249331Y-72805000D01*
X134274958Y-72933838D01*
X134347939Y-73043061D01*
X134457162Y-73116042D01*
X134586000Y-73141669D01*
X136686000Y-73141669D01*
X136814838Y-73116042D01*
X136924061Y-73043061D01*
X136997042Y-72933838D01*
X137022669Y-72805000D01*
X137022669Y-70705000D01*
X136997042Y-70576162D01*
X136924061Y-70466939D01*
X136814838Y-70393958D01*
X136686000Y-70368331D01*
X134586000Y-70368331D01*
X134457162Y-70393958D01*
X134347939Y-70466939D01*
X134274958Y-70576162D01*
X134249331Y-70705000D01*
X134249331Y-70956433D01*
X133877821Y-70584923D01*
X133370539Y-70374800D01*
X132821461Y-70374800D01*
X132314179Y-70584923D01*
X131925923Y-70973179D01*
X131715800Y-71480461D01*
X130037669Y-71480461D01*
X130037669Y-70705000D01*
X130012042Y-70576162D01*
X129939061Y-70466939D01*
X129829838Y-70393958D01*
X129701000Y-70368331D01*
X127601000Y-70368331D01*
X127472162Y-70393958D01*
X127362939Y-70466939D01*
X127289958Y-70576162D01*
X127264331Y-70705000D01*
X127264331Y-70956433D01*
X126892821Y-70584923D01*
X126385539Y-70374800D01*
X125836461Y-70374800D01*
X125329179Y-70584923D01*
X124940923Y-70973179D01*
X124730800Y-71480461D01*
X116737200Y-71480461D01*
X116737200Y-68060943D01*
X117149241Y-69055698D01*
X118142302Y-70048759D01*
X119439800Y-70586200D01*
X120844200Y-70586200D01*
X122141698Y-70048759D01*
X123134759Y-69055698D01*
X123672200Y-67758200D01*
X123672200Y-66353800D01*
X123231061Y-65288795D01*
X131495800Y-65288795D01*
X131495800Y-65521205D01*
X131584739Y-65735923D01*
X131749077Y-65900261D01*
X131963795Y-65989200D01*
X132196205Y-65989200D01*
X132410923Y-65900261D01*
X132575261Y-65735923D01*
X132664200Y-65521205D01*
X132664200Y-65415795D01*
X136067800Y-65415795D01*
X136067800Y-65648205D01*
X136156739Y-65862923D01*
X136321077Y-66027261D01*
X136535795Y-66116200D01*
X136768205Y-66116200D01*
X136982923Y-66027261D01*
X137147261Y-65862923D01*
X137236200Y-65648205D01*
X137236200Y-65415795D01*
X137147261Y-65201077D01*
X136982923Y-65036739D01*
X136768205Y-64947800D01*
X136535795Y-64947800D01*
X136321077Y-65036739D01*
X136156739Y-65201077D01*
X136067800Y-65415795D01*
X132664200Y-65415795D01*
X132664200Y-65288795D01*
X132575261Y-65074077D01*
X132410923Y-64909739D01*
X132196205Y-64820800D01*
X131963795Y-64820800D01*
X131749077Y-64909739D01*
X131584739Y-65074077D01*
X131495800Y-65288795D01*
X123231061Y-65288795D01*
X123134759Y-65056302D01*
X122141698Y-64063241D01*
X121146943Y-63651200D01*
X137985500Y-63651200D01*
X137985500Y-78307763D01*
G04 #@! TD*
M02*
