<?xml version="1.0" encoding="utf-8"?>
<!-- Generator: Adobe Illustrator 13.0.2, SVG Export Plug-In . SVG Version: 6.00 Build 14948)  -->
<!DOCTYPE svg PUBLIC "-//W3C//DTD SVG 1.1//EN" "http://www.w3.org/Graphics/SVG/1.1/DTD/svg11.dtd">
<svg version="1.1" id="Layer_1" xmlns="http://www.w3.org/2000/svg" xmlns:xlink="http://www.w3.org/1999/xlink" x="0px" y="0px"
	 width="433.562px" height="433.562px" viewBox="74.104 49.711 433.562 433.562"
	 enable-background="new 74.104 49.711 433.562 433.562" xml:space="preserve">
<g id="Gray_Circle">
	<circle fill="#C4C4C4" stroke="#000000" stroke-width="13" stroke-miterlimit="10" cx="290.885" cy="266.492" r="210.281"/>
</g>
<g id="_x23_8a8a8aff">
</g>
<path fill="#100F0D" d="M459.087,179.674C429.281,116.033,365.176,82.5,290.885,82.5c-74.294,0-138.403,33.538-168.206,97.185
	c-12.972,23.378-18.357,50.071-17.748,76.49c0.09,3.893,0.309,7.779,0.654,11.648c0.656,7.358,1.76,14.681,3.296,21.918
	c0.763,3.604,1.633,7.188,2.607,10.745c4.432-0.846,8.754-2.186,12.916-3.889c14.851-6.088,27.164-16.432,40.188-25.369
	c-2.938-24.64-2.429-50.583,6.88-73.996c4.049-10.17,10.911-25.242,21.268-30.599c12.276-6.347,24.358-7.6,36.08,0.274
	c23.181,15.583,25.99,46.493,32.741,70.672c8.566,30.628,29.233,90.372,29.323,90.094c0.091,0.278,20.756-59.466,29.311-90.094
	c6.776-24.18,9.571-55.089,32.756-70.672c11.723-7.875,23.816-6.621,36.078-0.274c10.346,5.357,17.215,20.428,21.258,30.599
	c9.33,23.414,9.819,49.356,6.881,73.996c13.036,8.938,25.359,19.283,40.205,25.369c4.146,1.705,8.472,3.043,12.908,3.889
	c0.98-3.557,1.844-7.141,2.608-10.745c1.538-7.237,2.646-14.56,3.299-21.918c0.344-3.869,0.562-7.754,0.649-11.646
	C477.449,229.753,472.057,203.055,459.087,179.674z"/>
<g>
	<path d="M261.974,386.08c-0.882-10.014-1.622-19.499-2.644-27.342c-1.359-20.625-1.052-35.912-1.052-35.912
		c-16.879-15.531-40.863-23.618-53.328-27c-2.647-0.771-5.335-1.426-8.057-1.939c-0.111-0.021-0.189-0.037-0.189-0.037l0.008,0.008
		c-9.462-1.77-19.29-1.963-28.943-0.393c34.853,19.232,58.451,19.834,68.209,64.705c5.086,23.389,12.004,115.04,52.375,101.438
		C273.3,445.637,265.749,414.89,261.974,386.08z"/>
	<path d="M319.794,386.08c0.882-10.014,1.622-19.499,2.645-27.342c1.357-20.625,1.051-35.912,1.051-35.912
		c16.881-15.531,40.864-23.618,53.33-27c2.646-0.771,5.336-1.426,8.056-1.939c0.113-0.021,0.19-0.037,0.19-0.037l-0.009,0.008
		c9.463-1.77,19.291-1.963,28.944-0.393c-34.853,19.232-58.45,19.834-68.209,64.705c-5.087,23.389-12.004,115.04-52.374,101.438
		C308.471,445.637,316.02,414.89,319.794,386.08z"/>
</g>
</svg>
